<svg width="1520" height="520" viewBox="0 0 1520 520" fill="none" xmlns="http://www.w3.org/2000/svg">
<rect width="1520" height="520" rx="49.7258" fill="url(#paint0_linear_333_360)"/>
<path d="M63.9053 106H57.6643V78.1235H63.9053V106ZM73.4131 106H67.1721V85.155H72.9554V91.5625H73.3299C73.8707 88.0675 76.3671 84.739 81.8176 84.739C87.5178 84.739 90.2222 88.4004 90.2222 93.0187V106H83.9812V95.099C83.9812 91.7705 82.6082 90.3559 78.7803 90.3559C74.8277 90.3559 73.4131 91.9369 73.4131 95.4735V106ZM108.899 106H101.201L91.7152 85.155H98.6635L104.904 99.9254H105.321L111.603 85.155H118.427L108.899 106ZM131.142 106.416C124.193 106.416 119.45 103.004 119.45 95.5983C119.45 88.9412 124.152 84.739 131.017 84.739C137.84 84.739 142.376 88.3171 142.376 94.8494C142.376 95.5983 142.292 96.1392 142.209 96.8465H125.234C125.4 100.05 126.898 101.423 130.934 101.423C134.637 101.423 135.927 100.466 135.927 98.6772V98.2611H142.168V98.7188C142.168 103.254 137.757 106.416 131.142 106.416ZM130.892 89.6069C127.189 89.6069 125.608 90.8551 125.317 93.5596H136.384C136.218 90.8135 134.554 89.6069 130.892 89.6069ZM155.549 106.416C148.517 106.416 144.648 103.67 144.648 98.8436V98.7188H150.889V99.0933C150.889 100.966 152.054 101.465 155.59 101.465C158.919 101.465 159.709 100.924 159.709 99.6758C159.709 98.5108 159.085 98.1779 156.63 97.8451L150.764 97.1378C146.603 96.6801 144.273 94.8078 144.273 91.3128C144.273 87.6514 147.394 84.739 154.55 84.739C161.374 84.739 165.243 87.3186 165.243 92.3946V92.5194H159.002V92.2698C159.002 90.5639 158.17 89.6902 154.342 89.6902C151.222 89.6902 150.431 90.231 150.431 91.5625C150.431 92.6442 151.014 93.1019 153.76 93.4348L158.211 93.9757C163.787 94.5998 165.867 96.4721 165.867 99.9254C165.867 103.836 161.998 106.416 155.549 106.416ZM183.072 106H177.913C173.045 106 170.091 103.712 170.091 98.4692V90.3143H166.804V85.155H170.091V81.1192H176.332V85.155H183.072V90.3143H176.332V97.7619C176.332 99.8422 177.123 100.383 179.328 100.383H183.072V106ZM191.651 106H185.41V85.155H191.193V91.4793H191.526C192.025 87.9843 194.106 84.739 199.348 84.739C204.175 84.739 206.629 87.693 207.087 91.5625H207.462C207.961 88.0259 210.083 84.739 215.45 84.739C220.817 84.739 223.438 88.2755 223.438 93.0187V106H217.197V95.099C217.197 91.6457 215.991 90.3559 212.413 90.3559C208.626 90.3559 207.545 91.8537 207.545 95.4735V106H201.304V95.099C201.304 91.6457 200.097 90.3559 196.519 90.3559C192.733 90.3559 191.651 91.8537 191.651 95.4735V106ZM237.678 106.416C230.729 106.416 225.986 103.004 225.986 95.5983C225.986 88.9412 230.688 84.739 237.553 84.739C244.376 84.739 248.912 88.3171 248.912 94.8494C248.912 95.5983 248.828 96.1392 248.745 96.8465H231.77C231.936 100.05 233.434 101.423 237.47 101.423C241.173 101.423 242.463 100.466 242.463 98.6772V98.2611H248.704V98.7188C248.704 103.254 244.293 106.416 237.678 106.416ZM237.428 89.6069C233.725 89.6069 232.144 90.8551 231.853 93.5596H242.92C242.754 90.8135 241.09 89.6069 237.428 89.6069ZM257.799 106H251.558V85.155H257.341V91.5625H257.716C258.257 88.0675 260.753 84.739 266.204 84.739C271.904 84.739 274.608 88.4004 274.608 93.0187V106H268.367V95.099C268.367 91.7705 266.994 90.3559 263.166 90.3559C259.214 90.3559 257.799 91.9369 257.799 95.4735V106ZM292.453 106H287.293C282.425 106 279.471 103.712 279.471 98.4692V90.3143H276.184V85.155H279.471V81.1192H285.712V85.155H292.453V90.3143H285.712V97.7619C285.712 99.8422 286.503 100.383 288.708 100.383H292.453V106ZM309.893 96.3888H294.374V91.0216H309.893V96.3888ZM335.632 106H312.79V78.1235H319.031V100.383H335.632V106ZM344.385 83.0331H338.144V78.1235H344.385V83.0331ZM344.385 106H338.144V85.155H344.385V106ZM353.893 106H347.652V78.1235H353.893V92.8939H358.636L363.962 85.155H371.368L363.754 95.2239L371.243 106H363.878L358.678 98.4692H353.893V106ZM383.951 106.416C377.003 106.416 372.26 103.004 372.26 95.5983C372.26 88.9412 376.961 84.739 383.827 84.739C390.65 84.739 395.185 88.3171 395.185 94.8494C395.185 95.5983 395.102 96.1392 395.019 96.8465H378.043C378.21 100.05 379.708 101.423 383.743 101.423C387.446 101.423 388.736 100.466 388.736 98.6772V98.2611H394.977V98.7188C394.977 103.254 390.567 106.416 383.951 106.416ZM383.702 89.6069C379.999 89.6069 378.418 90.8551 378.126 93.5596H389.194C389.027 90.8135 387.363 89.6069 383.702 89.6069ZM427.843 106H404.252V78.1235H427.843V83.7404H410.493V89.1909H427.218V94.7662H410.493V100.383H427.843V106ZM436.362 106H428.831L437.153 95.8064V95.4735L428.831 85.155H436.445L441.979 92.1866H442.312L447.679 85.155H455.21L446.889 95.3487V95.7231L455.21 106H447.596L442.062 99.0101H441.729L436.362 106ZM462.948 113.073H456.707V85.155H462.49V90.8551H462.906C463.655 86.8609 466.318 84.739 471.228 84.739C477.635 84.739 481.213 88.9828 481.213 95.5983C481.213 102.214 477.718 106.416 471.436 106.416C466.609 106.416 463.947 104.044 463.239 100.383H462.948V113.073ZM462.948 95.8896C462.948 99.4677 465.112 100.716 469.023 100.716C473.017 100.716 474.889 99.3845 474.889 95.5983C474.889 91.7705 473.017 90.4807 469.064 90.4807C465.028 90.4807 462.948 91.8537 462.948 95.5567V95.8896ZM494.876 106.416C487.927 106.416 483.184 103.004 483.184 95.5983C483.184 88.9412 487.886 84.739 494.751 84.739C501.574 84.739 506.109 88.3171 506.109 94.8494C506.109 95.5983 506.026 96.1392 505.943 96.8465H488.967C489.134 100.05 490.632 101.423 494.668 101.423C498.371 101.423 499.66 100.466 499.66 98.6772V98.2611H505.901V98.7188C505.901 103.254 501.491 106.416 494.876 106.416ZM494.626 89.6069C490.923 89.6069 489.342 90.8551 489.051 93.5596H500.118C499.952 90.8135 498.287 89.6069 494.626 89.6069ZM514.997 106H508.756V85.155H514.539V91.5625H514.914C515.455 88.0675 517.951 84.739 523.402 84.739C529.102 84.739 531.806 88.4004 531.806 93.0187V106H525.565V95.099C525.565 91.7705 524.192 90.3559 520.364 90.3559C516.412 90.3559 514.997 91.9369 514.997 95.4735V106ZM545.49 106.416C538.458 106.416 534.589 103.67 534.589 98.8436V98.7188H540.83V99.0933C540.83 100.966 541.995 101.465 545.531 101.465C548.86 101.465 549.651 100.924 549.651 99.6758C549.651 98.5108 549.026 98.1779 546.572 97.8451L540.705 97.1378C536.544 96.6801 534.214 94.8078 534.214 91.3128C534.214 87.6514 537.335 84.739 544.491 84.739C551.315 84.739 555.184 87.3186 555.184 92.3946V92.5194H548.943V92.2698C548.943 90.5639 548.111 89.6902 544.283 89.6902C541.163 89.6902 540.372 90.231 540.372 91.5625C540.372 92.6442 540.955 93.1019 543.701 93.4348L548.153 93.9757C553.728 94.5998 555.808 96.4721 555.808 99.9254C555.808 103.836 551.939 106.416 545.49 106.416ZM569.394 106.416C562.446 106.416 557.702 103.004 557.702 95.5983C557.702 88.9412 562.404 84.739 569.269 84.739C576.093 84.739 580.628 88.3171 580.628 94.8494C580.628 95.5983 580.545 96.1392 580.461 96.8465H563.486C563.652 100.05 565.15 101.423 569.186 101.423C572.889 101.423 574.179 100.466 574.179 98.6772V98.2611H580.42V98.7188C580.42 103.254 576.009 106.416 569.394 106.416ZM569.144 89.6069C565.441 89.6069 563.86 90.8551 563.569 93.5596H574.636C574.47 90.8135 572.806 89.6069 569.144 89.6069ZM73.1836 157H66.9426V134.74H56.5825V129.123H83.5437V134.74H73.1836V157ZM92.0223 157H85.7813V136.155H91.5647V141.689H91.9391C92.5216 138.319 94.7268 135.739 98.929 135.739C103.589 135.739 105.503 138.943 105.503 143.02V146.473H99.2619V144.31C99.2619 142.022 98.3466 141.023 95.8085 141.023C93.0209 141.023 92.0223 142.313 92.0223 144.934V157ZM114.17 157.416C109.677 157.416 106.972 155.336 106.972 151.841C106.972 148.762 109.261 146.848 113.713 146.39L122.658 145.475V144.684C122.658 141.98 121.452 141.231 118.123 141.231C114.961 141.231 113.671 142.063 113.671 144.435V144.601H107.389V144.476C107.389 139.317 111.716 135.739 118.581 135.739C125.529 135.739 128.816 139.317 128.816 144.768V157H122.991V152.215H122.658C121.701 155.461 118.789 157.416 114.17 157.416ZM113.255 151.425C113.255 152.548 114.129 153.006 115.96 153.006C120.203 153.006 122.492 152.007 122.658 149.053L115.419 149.885C113.921 150.01 113.255 150.426 113.255 151.425ZM143.088 157.416C135.932 157.416 131.355 153.172 131.355 146.598C131.355 139.941 135.932 135.739 143.088 135.739C149.787 135.739 154.364 139.317 154.364 144.726V145.309H148.164V144.976C148.164 142.313 146.209 141.356 142.964 141.356C139.261 141.356 137.555 142.729 137.555 146.598C137.555 150.426 139.261 151.799 142.964 151.799C146.209 151.799 148.164 150.842 148.164 148.179V147.847H154.364V148.429C154.364 153.796 149.787 157.416 143.088 157.416ZM163.29 157H157.049V129.123H163.29V143.894H168.033L173.359 136.155H180.765L173.151 146.224L180.64 157H173.276L168.075 149.469H163.29V157ZM188.522 134.033H182.281V129.123H188.522V134.033ZM188.522 157H182.281V136.155H188.522V157ZM198.03 157H191.789V136.155H197.572V142.562H197.947C198.488 139.067 200.984 135.739 206.435 135.739C212.135 135.739 214.839 139.4 214.839 144.019V157H208.598V146.099C208.598 142.77 207.225 141.356 203.397 141.356C199.445 141.356 198.03 142.937 198.03 146.473V157ZM227.15 154.878C220.951 154.878 217.372 151.175 217.372 145.309C217.372 139.484 221.159 135.739 227.4 135.739C231.643 135.739 234.681 137.57 235.346 141.189H235.679V136.155H241.504V153.963C241.504 161.244 237.094 164.489 229.646 164.489C222.906 164.489 218.662 161.494 218.662 156.251H224.903C224.903 158.581 225.819 159.288 230.062 159.288C234.057 159.288 235.263 158.456 235.263 154.379V149.677H234.93C234.265 152.756 231.81 154.878 227.15 154.878ZM223.655 145.309C223.655 148.387 225.402 149.511 229.313 149.511C233.308 149.511 235.263 148.387 235.263 145.517V145.059C235.263 142.23 233.266 141.148 229.397 141.148C225.402 141.148 223.655 142.23 223.655 145.309Z" fill="white"/>
<path d="M74.2654 244H57.926V222.492H74.2654V224.579H60.2052V232.155H73.7838V234.209H60.2052V241.913H74.2654V244ZM81.8539 244.321C78.7402 244.321 76.6215 242.844 76.6215 240.276C76.6215 237.676 78.7723 236.553 81.7255 236.232L89.2692 235.397V234.177C89.2692 231.095 87.921 229.876 84.4541 229.876C81.0514 229.876 79.2538 231.095 79.2538 233.888V234.017H76.9746V233.888C76.9746 230.55 79.7353 227.821 84.6146 227.821C89.4297 227.821 91.4842 230.582 91.4842 234.081V244H89.4297V239.731H89.2692C88.3383 242.652 85.5455 244.321 81.8539 244.321ZM78.9007 240.116C78.9007 241.721 79.96 242.555 82.3675 242.555C86.2196 242.555 89.2692 240.854 89.2692 237.034V236.906L82.4317 237.676C80.0563 237.901 78.9007 238.479 78.9007 240.116ZM102.197 244.321C97.3172 244.321 94.4924 242.363 94.4924 238.703V238.639H96.7715V238.832C96.7715 241.496 98.3445 242.427 102.229 242.427C105.792 242.427 107.012 241.592 107.012 239.763C107.012 238.093 106.017 237.548 103.384 237.13L99.147 236.521C96.2579 236.135 94.4282 235.012 94.4282 232.38C94.4282 229.587 97.0925 227.821 101.458 227.821C106.017 227.821 108.97 229.747 108.97 233.471V233.535H106.691V233.375C106.691 230.999 105.439 229.715 101.394 229.715C98.0556 229.715 96.6752 230.518 96.6752 232.412C96.6752 234.049 97.5098 234.627 100.142 235.012L104.026 235.557C107.429 236.039 109.259 237.195 109.259 239.763C109.259 242.748 106.305 244.321 102.197 244.321ZM114.532 226.12H112.253V222.492H114.532V226.12ZM114.532 244H112.253V228.142H114.532V244ZM120.645 244H118.366V222.492H120.645V244ZM126.565 249.457H124.575V247.371H126.983C128.588 247.371 129.198 246.889 129.808 245.573L130.578 243.968L122.713 228.142H125.217L129.872 237.58L131.637 241.464H131.83L133.531 237.548L137.929 228.142H140.433L131.83 246.215C130.674 248.655 129.198 249.457 126.565 249.457ZM150.802 244H148.523V228.142H150.577V232.925H150.706C151.155 230.261 152.985 227.821 156.933 227.821C160.465 227.821 162.455 230.004 162.968 233.086H163.129C163.578 230.357 165.472 227.821 169.453 227.821C173.594 227.821 175.745 230.742 175.745 234.755V244H173.465V235.076C173.465 231.545 171.957 229.908 168.618 229.908C164.798 229.908 163.257 232.123 163.257 236.328V244H160.978V235.076C160.978 231.545 159.502 229.908 156.163 229.908C152.311 229.908 150.802 232.123 150.802 236.328V244ZM187.232 244.321C182.064 244.321 178.629 240.886 178.629 236.071C178.629 231.256 182.064 227.821 187.232 227.821C192.433 227.821 195.867 231.256 195.867 236.071C195.867 240.886 192.433 244.321 187.232 244.321ZM187.232 242.267C191.598 242.267 193.62 239.923 193.62 236.071C193.62 232.251 191.598 229.876 187.232 229.876C182.867 229.876 180.876 232.251 180.876 236.071C180.876 239.923 182.867 242.267 187.232 242.267ZM201.179 244H198.9V228.142H200.954V233.118H201.115C201.661 230.421 203.908 227.821 207.856 227.821C212.318 227.821 214.533 230.999 214.533 234.755V244H212.254V235.076C212.254 231.802 210.681 229.908 207.054 229.908C203.201 229.908 201.179 232.251 201.179 236.328V244ZM220.521 226.12H218.242V222.492H220.521V226.12ZM220.521 244H218.242V228.142H220.521V244ZM234.081 244H230.647C227.501 244 225.478 242.684 225.478 238.96V230.1H222.654V228.142H225.478V224.354H227.79V228.142H234.081V230.1H227.79V239.089C227.79 241.304 228.881 241.913 231.192 241.913H234.081V244ZM244.349 244.321C239.181 244.321 235.746 240.886 235.746 236.071C235.746 231.256 239.181 227.821 244.349 227.821C249.55 227.821 252.984 231.256 252.984 236.071C252.984 240.886 249.55 244.321 244.349 244.321ZM244.349 242.267C248.715 242.267 250.737 239.923 250.737 236.071C250.737 232.251 248.715 229.876 244.349 229.876C239.983 229.876 237.993 232.251 237.993 236.071C237.993 239.923 239.983 242.267 244.349 242.267ZM258.296 244H256.017V228.142H258.071V232.476H258.232C258.713 229.94 260.511 227.821 263.817 227.821C267.477 227.821 269.082 230.518 269.082 233.471V235.044H266.803V233.824C266.803 231.128 265.679 229.811 262.918 229.811C259.708 229.811 258.296 231.834 258.296 235.397V244ZM279.702 249.457H277.712V247.371H280.12C281.725 247.371 282.335 246.889 282.945 245.573L283.715 243.968L275.85 228.142H278.354L283.009 237.58L284.774 241.464H284.967L286.668 237.548L291.066 228.142H293.57L284.967 246.215C283.811 248.655 282.335 249.457 279.702 249.457ZM303.535 244.321C298.367 244.321 294.932 240.886 294.932 236.071C294.932 231.256 298.367 227.821 303.535 227.821C308.735 227.821 312.17 231.256 312.17 236.071C312.17 240.886 308.735 244.321 303.535 244.321ZM303.535 242.267C307.901 242.267 309.923 239.923 309.923 236.071C309.923 232.251 307.901 229.876 303.535 229.876C299.169 229.876 297.179 232.251 297.179 236.071C297.179 239.923 299.169 242.267 303.535 242.267ZM321.848 244.321C317.321 244.321 315.106 241.175 315.106 237.419V228.142H317.386V237.066C317.386 240.373 318.991 242.267 322.65 242.267C326.534 242.267 328.557 239.923 328.557 235.846V228.142H330.836V244H328.781V239.056H328.621C328.075 241.753 325.796 244.321 321.848 244.321ZM336.949 244H334.67V228.142H336.725V232.476H336.885C337.367 229.94 339.164 227.821 342.471 227.821C346.13 227.821 347.735 230.518 347.735 233.471V235.044H345.456V233.824C345.456 231.128 344.332 229.811 341.572 229.811C338.362 229.811 336.949 231.834 336.949 235.397V244ZM363.235 244.321C358.356 244.321 355.531 242.363 355.531 238.703V238.639H357.81V238.832C357.81 241.496 359.383 242.427 363.267 242.427C366.83 242.427 368.05 241.592 368.05 239.763C368.05 238.093 367.055 237.548 364.423 237.13L360.185 236.521C357.296 236.135 355.467 235.012 355.467 232.38C355.467 229.587 358.131 227.821 362.497 227.821C367.055 227.821 370.008 229.747 370.008 233.471V233.535H367.729V233.375C367.729 230.999 366.477 229.715 362.432 229.715C359.094 229.715 357.714 230.518 357.714 232.412C357.714 234.049 358.548 234.627 361.181 235.012L365.065 235.557C368.467 236.039 370.297 237.195 370.297 239.763C370.297 242.748 367.344 244.321 363.235 244.321ZM375.57 249.457H373.291V228.142H375.346V232.604H375.603C376.309 229.747 378.684 227.821 382.44 227.821C387.384 227.821 390.208 231.256 390.208 236.071C390.208 240.886 387.416 244.321 382.376 244.321C378.877 244.321 376.341 242.395 375.603 239.345H375.57V249.457ZM375.57 236.36C375.57 240.116 378.042 242.234 381.766 242.234C385.458 242.234 387.897 240.662 387.897 236.071C387.897 231.481 385.425 229.94 381.83 229.94C377.882 229.94 375.57 232.155 375.57 236.071V236.36ZM400.553 244.321C395.449 244.321 392.207 241.111 392.207 236.071C392.207 231.256 395.417 227.821 400.521 227.821C405.176 227.821 408.482 230.518 408.482 235.236C408.482 235.814 408.418 236.296 408.322 236.713H394.358C394.486 240.276 396.316 242.427 400.521 242.427C404.245 242.427 405.978 241.047 405.978 238.735V238.511H408.257V238.735C408.257 242.042 404.983 244.321 400.553 244.321ZM400.489 229.715C396.38 229.715 394.518 231.834 394.358 235.301H406.331C406.331 235.14 406.331 234.98 406.331 234.819C406.331 231.481 404.213 229.715 400.489 229.715ZM413.784 244H411.505V228.142H413.56V233.118H413.72C414.266 230.421 416.513 227.821 420.461 227.821C424.923 227.821 427.138 230.999 427.138 234.755V244H424.859V235.076C424.859 231.802 423.286 229.908 419.659 229.908C415.807 229.908 413.784 232.251 413.784 236.328V244ZM437.685 244.321C432.613 244.321 429.788 240.886 429.788 236.071C429.788 231.256 432.613 227.821 437.492 227.821C441.248 227.821 443.591 229.844 444.297 232.572H444.458V222.492H446.737V244H444.65V239.313H444.522C443.752 242.491 441.184 244.321 437.685 244.321ZM432.099 236.071C432.099 240.662 434.539 242.234 438.262 242.234C441.986 242.234 444.458 240.084 444.458 236.328V236.039C444.458 232.123 442.114 229.94 438.198 229.94C434.571 229.94 432.099 231.481 432.099 236.071ZM452.844 226.12H450.565V222.492H452.844V226.12ZM452.844 244H450.565V228.142H452.844V244ZM458.957 244H456.678V228.142H458.733V233.118H458.893C459.439 230.421 461.686 227.821 465.634 227.821C470.096 227.821 472.311 230.999 472.311 234.755V244H470.032V235.076C470.032 231.802 468.459 229.908 464.832 229.908C460.98 229.908 458.957 232.251 458.957 236.328V244ZM482.826 242.716C478.107 242.716 475.218 239.602 475.218 235.269C475.218 230.935 478.203 227.821 483.082 227.821C486.421 227.821 489.053 229.394 489.695 232.219H489.856V228.142H491.91V242.491C491.91 247.724 488.604 249.778 483.821 249.778C479.519 249.778 476.245 247.627 476.245 243.936H478.524C478.524 246.729 480.386 247.82 483.917 247.82C488.026 247.82 489.631 246.568 489.631 242.62V238.479H489.47C488.828 240.918 486.485 242.716 482.826 242.716ZM477.497 235.269C477.497 239.313 480.001 240.694 483.435 240.694C487.352 240.694 489.631 238.735 489.631 235.365V234.819C489.631 231.705 487.255 229.844 483.596 229.844C480.033 229.844 477.497 231.224 477.497 235.269ZM503.942 244H501.663V222.492H503.942V232.989H504.103C504.616 230.325 506.671 227.821 510.716 227.821C515.146 227.821 517.36 230.774 517.36 234.787V244H515.081V235.076C515.081 231.449 513.38 229.908 509.817 229.908C505.579 229.908 503.942 232.604 503.942 236.553V244ZM525.528 244.321C522.415 244.321 520.296 242.844 520.296 240.276C520.296 237.676 522.447 236.553 525.4 236.232L532.944 235.397V234.177C532.944 231.095 531.595 229.876 528.129 229.876C524.726 229.876 522.928 231.095 522.928 233.888V234.017H520.649V233.888C520.649 230.55 523.41 227.821 528.289 227.821C533.104 227.821 535.159 230.582 535.159 234.081V244H533.104V239.731H532.944C532.013 242.652 529.22 244.321 525.528 244.321ZM522.575 240.116C522.575 241.721 523.634 242.555 526.042 242.555C529.894 242.555 532.944 240.854 532.944 237.034V236.906L526.106 237.676C523.731 237.901 522.575 238.479 522.575 240.116ZM540.96 244H538.905V222.492H541.184V232.572H541.345C542.019 229.844 544.298 227.821 548.118 227.821C553.094 227.821 555.822 231.256 555.822 236.071C555.822 240.886 553.094 244.321 547.925 244.321C544.394 244.321 541.858 242.491 541.12 239.313H540.96V244ZM541.184 236.328C541.184 240.084 543.56 242.234 547.38 242.234C551.168 242.234 553.511 240.662 553.511 236.071C553.511 231.481 551.103 229.94 547.444 229.94C543.431 229.94 541.184 232.123 541.184 236.039V236.328ZM560.902 226.12H558.623V222.492H560.902V226.12ZM560.902 244H558.623V228.142H560.902V244ZM574.463 244H571.028C567.882 244 565.86 242.684 565.86 238.96V230.1H563.035V228.142H565.86V224.354H568.171V228.142H574.463V230.1H568.171V239.089C568.171 241.304 569.262 241.913 571.574 241.913H574.463V244ZM583.928 244.321C579.049 244.321 576.224 242.363 576.224 238.703V238.639H578.503V238.832C578.503 241.496 580.076 242.427 583.96 242.427C587.523 242.427 588.743 241.592 588.743 239.763C588.743 238.093 587.748 237.548 585.116 237.13L580.878 236.521C577.989 236.135 576.16 235.012 576.16 232.38C576.16 229.587 578.824 227.821 583.19 227.821C587.748 227.821 590.701 229.747 590.701 233.471V233.535H588.422V233.375C588.422 230.999 587.17 229.715 583.125 229.715C579.787 229.715 578.407 230.518 578.407 232.412C578.407 234.049 579.241 234.627 581.874 235.012L585.758 235.557C589.16 236.039 590.99 237.195 590.99 239.763C590.99 242.748 588.037 244.321 583.928 244.321ZM64.2178 283H61.3929L56.321 267.142H58.6644L62.035 277.639L62.8375 281.01H63.0301L64.1215 277.447L68.2946 267.142H71.2158L75.3568 277.447L76.4482 280.978H76.6408L77.4112 277.639L80.8139 267.142H83.1573L78.0212 283H75.1642L71.0553 272.631L69.8033 269.1H69.6428L68.3909 272.631L64.2178 283ZM87.6664 265.12H85.3873V261.492H87.6664V265.12ZM87.6664 283H85.3873V267.142H87.6664V283ZM101.227 283H97.792C94.6461 283 92.6238 281.684 92.6238 277.96V269.1H89.7989V267.142H92.6238V263.354H94.935V267.142H101.227V269.1H94.935V278.089C94.935 280.304 96.0264 280.913 98.3377 280.913H101.227V283ZM106.005 283H103.726V261.492H106.005V271.989H106.166C106.679 269.325 108.734 266.821 112.779 266.821C117.208 266.821 119.423 269.774 119.423 273.787V283H117.144V274.076C117.144 270.449 115.443 268.908 111.88 268.908C107.642 268.908 106.005 271.604 106.005 275.553V283ZM135.924 283.321C130.853 283.321 128.028 279.886 128.028 275.071C128.028 270.256 130.853 266.821 135.732 266.821C139.488 266.821 141.831 268.844 142.537 271.572H142.698V261.492H144.977V283H142.89V278.313H142.762C141.992 281.491 139.423 283.321 135.924 283.321ZM130.339 275.071C130.339 279.662 132.779 281.234 136.502 281.234C140.226 281.234 142.698 279.084 142.698 275.328V275.039C142.698 271.123 140.354 268.94 136.438 268.94C132.811 268.94 130.339 270.481 130.339 275.071ZM156.349 283.321C151.245 283.321 148.003 280.111 148.003 275.071C148.003 270.256 151.213 266.821 156.317 266.821C160.971 266.821 164.278 269.518 164.278 274.236C164.278 274.814 164.214 275.296 164.117 275.713H150.153C150.282 279.276 152.112 281.427 156.317 281.427C160.04 281.427 161.774 280.047 161.774 277.735V277.511H164.053V277.735C164.053 281.042 160.779 283.321 156.349 283.321ZM156.285 268.715C152.176 268.715 150.314 270.834 150.153 274.301H162.127C162.127 274.14 162.127 273.98 162.127 273.819C162.127 270.481 160.008 268.715 156.285 268.715ZM177.027 283H173.592C170.447 283 168.424 281.684 168.424 277.96V269.1H165.599V267.142H168.424V263.354H170.736V267.142H177.027V269.1H170.736V278.089C170.736 280.304 171.827 280.913 174.138 280.913H177.027V283ZM183.924 283.321C180.811 283.321 178.692 281.844 178.692 279.276C178.692 276.676 180.843 275.553 183.796 275.232L191.34 274.397V273.177C191.34 270.095 189.991 268.876 186.525 268.876C183.122 268.876 181.324 270.095 181.324 272.888V273.017H179.045V272.888C179.045 269.55 181.806 266.821 186.685 266.821C191.5 266.821 193.555 269.582 193.555 273.081V283H191.5V278.731H191.34C190.409 281.652 187.616 283.321 183.924 283.321ZM180.971 279.116C180.971 280.721 182.03 281.555 184.438 281.555C188.29 281.555 191.34 279.854 191.34 276.034V275.906L184.502 276.676C182.127 276.901 180.971 277.479 180.971 279.116ZM199.58 265.12H197.301V261.492H199.58V265.12ZM199.58 283H197.301V267.142H199.58V283ZM205.693 283H203.414V261.492H205.693V283ZM217.071 283.321C211.967 283.321 208.725 280.111 208.725 275.071C208.725 270.256 211.935 266.821 217.039 266.821C221.693 266.821 225 269.518 225 274.236C225 274.814 224.935 275.296 224.839 275.713H210.875C211.004 279.276 212.833 281.427 217.039 281.427C220.762 281.427 222.496 280.047 222.496 277.735V277.511H224.775V277.735C224.775 281.042 221.501 283.321 217.071 283.321ZM217.007 268.715C212.898 268.715 211.036 270.834 210.875 274.301H222.849C222.849 274.14 222.849 273.98 222.849 273.819C222.849 270.481 220.73 268.715 217.007 268.715ZM234.86 283.321C229.788 283.321 226.963 279.886 226.963 275.071C226.963 270.256 229.788 266.821 234.668 266.821C238.423 266.821 240.767 268.844 241.473 271.572H241.633V261.492H243.913V283H241.826V278.313H241.698C240.927 281.491 238.359 283.321 234.86 283.321ZM229.275 275.071C229.275 279.662 231.714 281.234 235.438 281.234C239.162 281.234 241.633 279.084 241.633 275.328V275.039C241.633 271.123 239.29 268.94 235.374 268.94C231.746 268.94 229.275 270.481 229.275 275.071ZM261.21 283.321C256.138 283.321 252.832 279.886 252.832 275.071C252.832 270.256 256.138 266.821 261.21 266.821C265.64 266.821 269.107 269.453 269.107 273.273V273.53H266.86V273.338C266.86 270.513 264.805 268.908 261.178 268.908C256.941 268.908 255.111 271.187 255.111 275.071C255.111 278.955 256.941 281.234 261.178 281.234C264.805 281.234 266.86 279.629 266.86 276.805V276.612H269.107V276.869C269.107 280.689 265.64 283.321 261.21 283.321ZM276.559 283.321C273.445 283.321 271.327 281.844 271.327 279.276C271.327 276.676 273.477 275.553 276.431 275.232L283.974 274.397V273.177C283.974 270.095 282.626 268.876 279.159 268.876C275.757 268.876 273.959 270.095 273.959 272.888V273.017H271.68V272.888C271.68 269.55 274.44 266.821 279.32 266.821C284.135 266.821 286.189 269.582 286.189 273.081V283H284.135V278.731H283.974C283.043 281.652 280.251 283.321 276.559 283.321ZM273.606 279.116C273.606 280.721 274.665 281.555 277.073 281.555C280.925 281.555 283.974 279.854 283.974 276.034V275.906L277.137 276.676C274.761 276.901 273.606 277.479 273.606 279.116ZM299.662 283H296.228C293.082 283 291.059 281.684 291.059 277.96V269.1H288.234V267.142H291.059V263.354H293.371V267.142H299.662V269.1H293.371V278.089C293.371 280.304 294.462 280.913 296.773 280.913H299.662V283ZM309.705 283.321C304.601 283.321 301.359 280.111 301.359 275.071C301.359 270.256 304.569 266.821 309.673 266.821C314.328 266.821 317.634 269.518 317.634 274.236C317.634 274.814 317.57 275.296 317.474 275.713H303.51C303.638 279.276 305.468 281.427 309.673 281.427C313.397 281.427 315.13 280.047 315.13 277.735V277.511H317.41V277.735C317.41 281.042 314.135 283.321 309.705 283.321ZM309.641 268.715C305.532 268.715 303.67 270.834 303.51 274.301H315.484C315.484 274.14 315.484 273.98 315.484 273.819C315.484 270.481 313.365 268.715 309.641 268.715ZM327.463 281.716C322.744 281.716 319.855 278.602 319.855 274.269C319.855 269.935 322.84 266.821 327.719 266.821C331.058 266.821 333.69 268.394 334.332 271.219H334.493V267.142H336.547V281.491C336.547 286.724 333.241 288.778 328.458 288.778C324.156 288.778 320.882 286.627 320.882 282.936H323.161C323.161 285.729 325.023 286.82 328.554 286.82C332.663 286.82 334.268 285.568 334.268 281.62V277.479H334.108C333.466 279.918 331.122 281.716 327.463 281.716ZM322.134 274.269C322.134 278.313 324.638 279.694 328.073 279.694C331.989 279.694 334.268 277.735 334.268 274.365V273.819C334.268 270.705 331.893 268.844 328.233 268.844C324.67 268.844 322.134 270.224 322.134 274.269ZM348.175 283.321C343.007 283.321 339.572 279.886 339.572 275.071C339.572 270.256 343.007 266.821 348.175 266.821C353.376 266.821 356.81 270.256 356.81 275.071C356.81 279.886 353.376 283.321 348.175 283.321ZM348.175 281.267C352.541 281.267 354.563 278.923 354.563 275.071C354.563 271.251 352.541 268.876 348.175 268.876C343.81 268.876 341.819 271.251 341.819 275.071C341.819 278.923 343.81 281.267 348.175 281.267ZM362.122 283H359.843V267.142H361.897V271.476H362.058C362.539 268.94 364.337 266.821 367.643 266.821C371.303 266.821 372.908 269.518 372.908 272.471V274.044H370.629V272.824C370.629 270.128 369.505 268.811 366.745 268.811C363.534 268.811 362.122 270.834 362.122 274.397V283ZM377.828 265.12H375.548V261.492H377.828V265.12ZM377.828 283H375.548V267.142H377.828V283ZM396.652 283H380.57V281.01L389.751 272.246L393.089 269.293V269.132L389.751 269.197H381.051V267.142H396.171V269.165L386.38 278.41L383.523 280.881V281.042L386.38 280.978H396.652V283ZM403.802 283.321C400.689 283.321 398.57 281.844 398.57 279.276C398.57 276.676 400.721 275.553 403.674 275.232L411.218 274.397V273.177C411.218 270.095 409.869 268.876 406.403 268.876C403 268.876 401.202 270.095 401.202 272.888V273.017H398.923V272.888C398.923 269.55 401.684 266.821 406.563 266.821C411.378 266.821 413.433 269.582 413.433 273.081V283H411.378V278.731H411.218C410.287 281.652 407.494 283.321 403.802 283.321ZM400.849 279.116C400.849 280.721 401.908 281.555 404.316 281.555C408.168 281.555 411.218 279.854 411.218 276.034V275.906L404.38 276.676C402.005 276.901 400.849 277.479 400.849 279.116ZM426.906 283H423.471C420.325 283 418.303 281.684 418.303 277.96V269.1H415.478V267.142H418.303V263.354H420.614V267.142H426.906V269.1H420.614V278.089C420.614 280.304 421.705 280.913 424.017 280.913H426.906V283ZM431.684 265.12H429.405V261.492H431.684V265.12ZM431.684 283H429.405V267.142H431.684V283ZM443.286 283.321C438.118 283.321 434.683 279.886 434.683 275.071C434.683 270.256 438.118 266.821 443.286 266.821C448.487 266.821 451.921 270.256 451.921 275.071C451.921 279.886 448.487 283.321 443.286 283.321ZM443.286 281.267C447.652 281.267 449.674 278.923 449.674 275.071C449.674 271.251 447.652 268.876 443.286 268.876C438.921 268.876 436.93 271.251 436.93 275.071C436.93 278.923 438.921 281.267 443.286 281.267ZM457.233 283H454.954V267.142H457.008V272.118H457.169C457.715 269.421 459.962 266.821 463.91 266.821C468.372 266.821 470.587 269.999 470.587 273.755V283H468.308V274.076C468.308 270.802 466.735 268.908 463.108 268.908C459.256 268.908 457.233 271.251 457.233 275.328V283ZM484.587 283.321C481.474 283.321 479.355 281.844 479.355 279.276C479.355 276.676 481.506 275.553 484.459 275.232L492.003 274.397V273.177C492.003 270.095 490.654 268.876 487.187 268.876C483.785 268.876 481.987 270.095 481.987 272.888V273.017H479.708V272.888C479.708 269.55 482.469 266.821 487.348 266.821C492.163 266.821 494.218 269.582 494.218 273.081V283H492.163V278.731H492.003C491.072 281.652 488.279 283.321 484.587 283.321ZM481.634 279.116C481.634 280.721 482.693 281.555 485.101 281.555C488.953 281.555 492.003 279.854 492.003 276.034V275.906L485.165 276.676C482.79 276.901 481.634 277.479 481.634 279.116ZM500.243 283H497.964V267.142H500.019V272.118H500.179C500.725 269.421 502.972 266.821 506.92 266.821C511.382 266.821 513.597 269.999 513.597 273.755V283H511.318V274.076C511.318 270.802 509.745 268.908 506.118 268.908C502.266 268.908 500.243 271.251 500.243 275.328V283ZM524.144 283.321C519.072 283.321 516.247 279.886 516.247 275.071C516.247 270.256 519.072 266.821 523.951 266.821C527.707 266.821 530.05 268.844 530.756 271.572H530.917V261.492H533.196V283H531.109V278.313H530.981C530.211 281.491 527.643 283.321 524.144 283.321ZM518.558 275.071C518.558 279.662 520.998 281.234 524.721 281.234C528.445 281.234 530.917 279.084 530.917 275.328V275.039C530.917 271.123 528.573 268.94 524.657 268.94C521.03 268.94 518.558 270.481 518.558 275.071ZM62.3239 322.321C59.2101 322.321 57.0914 320.844 57.0914 318.276C57.0914 315.676 59.2422 314.553 62.1955 314.232L69.7391 313.397V312.177C69.7391 309.095 68.3909 307.876 64.924 307.876C61.5213 307.876 59.7237 309.095 59.7237 311.888V312.017H57.4445V311.888C57.4445 308.55 60.2052 305.821 65.0845 305.821C69.8996 305.821 71.9541 308.582 71.9541 312.081V322H69.8996V317.731H69.7391C68.8082 320.652 66.0154 322.321 62.3239 322.321ZM59.3706 318.116C59.3706 319.721 60.4299 320.555 62.8375 320.555C66.6896 320.555 69.7391 318.854 69.7391 315.034V314.906L62.9017 315.676C60.5262 315.901 59.3706 316.479 59.3706 318.116ZM77.9798 322H75.7006V306.142H77.7551V311.118H77.9156C78.4613 308.421 80.7083 305.821 84.6567 305.821C89.1187 305.821 91.3337 308.999 91.3337 312.755V322H89.0545V313.076C89.0545 309.802 87.4816 307.908 83.8542 307.908C80.0021 307.908 77.9798 310.251 77.9798 314.328V322ZM99.4404 322.321C96.3266 322.321 94.208 320.844 94.208 318.276C94.208 315.676 96.3587 314.553 99.312 314.232L106.856 313.397V312.177C106.856 309.095 105.507 307.876 102.041 307.876C98.6379 307.876 96.8402 309.095 96.8402 311.888V312.017H94.5611V311.888C94.5611 308.55 97.3218 305.821 102.201 305.821C107.016 305.821 109.071 308.582 109.071 312.081V322H107.016V317.731H106.856C105.925 320.652 103.132 322.321 99.4404 322.321ZM96.4871 318.116C96.4871 319.721 97.5465 320.555 99.954 320.555C103.806 320.555 106.856 318.854 106.856 315.034V314.906L100.018 315.676C97.6428 315.901 96.4871 316.479 96.4871 318.116ZM115.096 322H112.817V300.492H115.096V322ZM121.017 327.457H119.026V325.371H121.434C123.039 325.371 123.649 324.889 124.259 323.573L125.029 321.968L117.165 306.142H119.668L124.323 315.58L126.089 319.464H126.281L127.983 315.548L132.38 306.142H134.884L126.281 324.215C125.126 326.655 123.649 327.457 121.017 327.457ZM144.047 322.321C139.167 322.321 136.343 320.363 136.343 316.703V316.639H138.622V316.832C138.622 319.496 140.195 320.427 144.079 320.427C147.642 320.427 148.862 319.592 148.862 317.763C148.862 316.093 147.867 315.548 145.234 315.13L140.997 314.521C138.108 314.135 136.278 313.012 136.278 310.38C136.278 307.587 138.943 305.821 143.308 305.821C147.867 305.821 150.82 307.747 150.82 311.471V311.535H148.541V311.375C148.541 308.999 147.289 307.715 143.244 307.715C139.906 307.715 138.525 308.518 138.525 310.412C138.525 312.049 139.36 312.627 141.992 313.012L145.876 313.557C149.279 314.039 151.109 315.195 151.109 317.763C151.109 320.748 148.156 322.321 144.047 322.321ZM156.382 304.12H154.103V300.492H156.382V304.12ZM156.382 322H154.103V306.142H156.382V322ZM167.182 322.321C162.303 322.321 159.478 320.363 159.478 316.703V316.639H161.757V316.832C161.757 319.496 163.33 320.427 167.214 320.427C170.777 320.427 171.997 319.592 171.997 317.763C171.997 316.093 171.002 315.548 168.37 315.13L164.132 314.521C161.243 314.135 159.413 313.012 159.413 310.38C159.413 307.587 162.078 305.821 166.444 305.821C171.002 305.821 173.955 307.747 173.955 311.471V311.535H171.676V311.375C171.676 308.999 170.424 307.715 166.379 307.715C163.041 307.715 161.661 308.518 161.661 310.412C161.661 312.049 162.495 312.627 165.127 313.012L169.012 313.557C172.414 314.039 174.244 315.195 174.244 317.763C174.244 320.748 171.291 322.321 167.182 322.321ZM176.917 324.825H176.243V323.445H176.885C177.302 323.445 177.527 323.348 177.527 322.77V322H176.275V317.538H179.1V322.738C179.1 324.151 178.265 324.825 176.917 324.825ZM195.44 322.321C190.336 322.321 187.094 319.111 187.094 314.071C187.094 309.256 190.304 305.821 195.408 305.821C200.063 305.821 203.369 308.518 203.369 313.236C203.369 313.814 203.305 314.296 203.209 314.713H189.245C189.373 318.276 191.203 320.427 195.408 320.427C199.132 320.427 200.865 319.047 200.865 316.735V316.511H203.145V316.735C203.145 320.042 199.87 322.321 195.44 322.321ZM195.376 307.715C191.267 307.715 189.405 309.834 189.245 313.301H201.219C201.219 313.14 201.219 312.98 201.219 312.819C201.219 309.481 199.1 307.715 195.376 307.715ZM208.671 322H206.392V306.142H208.447V310.925H208.575C209.025 308.261 210.854 305.821 214.803 305.821C218.334 305.821 220.324 308.004 220.838 311.086H220.998C221.448 308.357 223.341 305.821 227.322 305.821C231.463 305.821 233.614 308.742 233.614 312.755V322H231.335V313.076C231.335 309.545 229.826 307.908 226.487 307.908C222.667 307.908 221.127 310.123 221.127 314.328V322H218.847V313.076C218.847 309.545 217.371 307.908 214.032 307.908C210.18 307.908 208.671 310.123 208.671 314.328V322ZM239.612 327.457H237.333V306.142H239.388V310.604H239.644C240.351 307.747 242.726 305.821 246.482 305.821C251.425 305.821 254.25 309.256 254.25 314.071C254.25 318.886 251.458 322.321 246.418 322.321C242.919 322.321 240.383 320.395 239.644 317.345H239.612V327.457ZM239.612 314.36C239.612 318.116 242.084 320.234 245.808 320.234C249.499 320.234 251.939 318.662 251.939 314.071C251.939 309.481 249.467 307.94 245.872 307.94C241.924 307.94 239.612 310.155 239.612 314.071V314.36ZM264.82 322.321C259.651 322.321 256.217 318.886 256.217 314.071C256.217 309.256 259.651 305.821 264.82 305.821C270.02 305.821 273.455 309.256 273.455 314.071C273.455 318.886 270.02 322.321 264.82 322.321ZM264.82 320.267C269.185 320.267 271.208 317.923 271.208 314.071C271.208 310.251 269.185 307.876 264.82 307.876C260.454 307.876 258.464 310.251 258.464 314.071C258.464 317.923 260.454 320.267 264.82 320.267ZM282.779 322H279.954L274.882 306.142H277.226L280.596 316.639L281.399 320.01H281.591L282.683 316.447L286.856 306.142H289.777L293.918 316.447L295.01 319.978H295.202L295.973 316.639L299.375 306.142H301.719L296.582 322H293.725L289.617 311.631L288.365 308.1H288.204L286.952 311.631L282.779 322ZM311.492 322.321C306.388 322.321 303.146 319.111 303.146 314.071C303.146 309.256 306.356 305.821 311.46 305.821C316.115 305.821 319.421 308.518 319.421 313.236C319.421 313.814 319.357 314.296 319.261 314.713H305.297C305.425 318.276 307.255 320.427 311.46 320.427C315.184 320.427 316.917 319.047 316.917 316.735V316.511H319.196V316.735C319.196 320.042 315.922 322.321 311.492 322.321ZM311.428 307.715C307.319 307.715 305.457 309.834 305.297 313.301H317.27C317.27 313.14 317.27 312.98 317.27 312.819C317.27 309.481 315.152 307.715 311.428 307.715ZM324.723 322H322.444V306.142H324.499V310.476H324.659C325.141 307.94 326.938 305.821 330.245 305.821C333.904 305.821 335.509 308.518 335.509 311.471V313.044H333.23V311.824C333.23 309.128 332.107 307.811 329.346 307.811C326.136 307.811 324.723 309.834 324.723 313.397V322ZM340.429 304.12H338.15V300.492H340.429V304.12ZM340.429 322H338.15V306.142H340.429V322ZM346.542 322H344.263V306.142H346.317V311.118H346.478C347.023 308.421 349.27 305.821 353.219 305.821C357.681 305.821 359.896 308.999 359.896 312.755V322H357.617V313.076C357.617 309.802 356.044 307.908 352.416 307.908C348.564 307.908 346.542 310.251 346.542 314.328V322ZM370.41 320.716C365.691 320.716 362.802 317.602 362.802 313.269C362.802 308.935 365.788 305.821 370.667 305.821C374.005 305.821 376.638 307.394 377.28 310.219H377.44V306.142H379.495V320.491C379.495 325.724 376.188 327.778 371.405 327.778C367.104 327.778 363.829 325.627 363.829 321.936H366.109C366.109 324.729 367.97 325.82 371.501 325.82C375.61 325.82 377.215 324.568 377.215 320.62V316.479H377.055C376.413 318.918 374.07 320.716 370.41 320.716ZM365.081 313.269C365.081 317.313 367.585 318.694 371.02 318.694C374.936 318.694 377.215 316.735 377.215 313.365V312.819C377.215 309.705 374.84 307.844 371.18 307.844C367.617 307.844 365.081 309.224 365.081 313.269ZM391.334 327.457H389.344V325.371H391.752C393.357 325.371 393.966 324.889 394.576 323.573L395.347 321.968L387.482 306.142H389.986L394.641 315.58L396.406 319.464H396.599L398.3 315.548L402.698 306.142H405.202L396.599 324.215C395.443 326.655 393.966 327.457 391.334 327.457ZM415.167 322.321C409.999 322.321 406.564 318.886 406.564 314.071C406.564 309.256 409.999 305.821 415.167 305.821C420.367 305.821 423.802 309.256 423.802 314.071C423.802 318.886 420.367 322.321 415.167 322.321ZM415.167 320.267C419.533 320.267 421.555 317.923 421.555 314.071C421.555 310.251 419.533 307.876 415.167 307.876C410.801 307.876 408.811 310.251 408.811 314.071C408.811 317.923 410.801 320.267 415.167 320.267ZM433.479 322.321C428.953 322.321 426.738 319.175 426.738 315.419V306.142H429.017V315.066C429.017 318.373 430.622 320.267 434.282 320.267C438.166 320.267 440.188 317.923 440.188 313.846V306.142H442.468V322H440.413V317.056H440.253C439.707 319.753 437.428 322.321 433.479 322.321ZM461.922 322H458.487C455.341 322 453.319 320.684 453.319 316.96V308.1H450.494V306.142H453.319V302.354H455.63V306.142H461.922V308.1H455.63V317.089C455.63 319.304 456.722 319.913 459.033 319.913H461.922V322ZM472.19 322.321C467.021 322.321 463.587 318.886 463.587 314.071C463.587 309.256 467.021 305.821 472.19 305.821C477.39 305.821 480.825 309.256 480.825 314.071C480.825 318.886 477.39 322.321 472.19 322.321ZM472.19 320.267C476.555 320.267 478.578 317.923 478.578 314.071C478.578 310.251 476.555 307.876 472.19 307.876C467.824 307.876 465.834 310.251 465.834 314.071C465.834 317.923 467.824 320.267 472.19 320.267ZM492.03 322H489.751V306.142H491.805V310.925H491.934C492.383 308.261 494.213 305.821 498.161 305.821C501.692 305.821 503.683 308.004 504.196 311.086H504.357C504.806 308.357 506.7 305.821 510.681 305.821C514.822 305.821 516.972 308.742 516.972 312.755V322H514.693V313.076C514.693 309.545 513.184 307.908 509.846 307.908C506.026 307.908 504.485 310.123 504.485 314.328V322H502.206V313.076C502.206 309.545 500.729 307.908 497.391 307.908C493.539 307.908 492.03 310.123 492.03 314.328V322ZM525.089 322.321C521.976 322.321 519.857 320.844 519.857 318.276C519.857 315.676 522.008 314.553 524.961 314.232L532.505 313.397V312.177C532.505 309.095 531.157 307.876 527.69 307.876C524.287 307.876 522.489 309.095 522.489 311.888V312.017H520.21V311.888C520.21 308.55 522.971 305.821 527.85 305.821C532.665 305.821 534.72 308.582 534.72 312.081V322H532.665V317.731H532.505C531.574 320.652 528.781 322.321 525.089 322.321ZM522.136 318.116C522.136 319.721 523.196 320.555 525.603 320.555C529.455 320.555 532.505 318.854 532.505 315.034V314.906L525.667 315.676C523.292 315.901 522.136 316.479 522.136 318.116ZM540.745 322H538.466V300.492H540.745V312.787H546.074L551.371 306.142H554.067L547.936 313.718L554.035 322H551.371L546.042 314.874H540.745V322ZM563.816 322.321C558.712 322.321 555.47 319.111 555.47 314.071C555.47 309.256 558.68 305.821 563.784 305.821C568.438 305.821 571.745 308.518 571.745 313.236C571.745 313.814 571.681 314.296 571.584 314.713H557.62C557.749 318.276 559.579 320.427 563.784 320.427C567.507 320.427 569.241 319.047 569.241 316.735V316.511H571.52V316.735C571.52 320.042 568.246 322.321 563.816 322.321ZM563.752 307.715C559.643 307.715 557.781 309.834 557.62 313.301H569.594C569.594 313.14 569.594 312.98 569.594 312.819C569.594 309.481 567.475 307.715 563.752 307.715ZM60.2052 343.12H57.926V339.492H60.2052V343.12ZM60.2052 361H57.926V345.142H60.2052V361ZM66.3182 361H64.039V345.142H66.0934V350.118H66.2539C66.7997 347.421 69.0467 344.821 72.9951 344.821C77.4571 344.821 79.6721 347.999 79.6721 351.755V361H77.3929V352.076C77.3929 348.802 75.82 346.908 72.1926 346.908C68.3405 346.908 66.3182 349.251 66.3182 353.328V361ZM86.7837 361H84.5045V347.1H81.9685V345.142H84.5366C84.7934 341.386 87.3294 339.492 91.4383 339.492H93.1717V341.29H91.1173C88.2282 341.29 86.6553 342.253 86.7837 345.142H93.1717V347.1H86.7837V361ZM103.187 361.321C98.0189 361.321 94.5842 357.886 94.5842 353.071C94.5842 348.256 98.0189 344.821 103.187 344.821C108.388 344.821 111.822 348.256 111.822 353.071C111.822 357.886 108.388 361.321 103.187 361.321ZM103.187 359.267C107.553 359.267 109.575 356.923 109.575 353.071C109.575 349.251 107.553 346.876 103.187 346.876C98.8215 346.876 96.8312 349.251 96.8312 353.071C96.8312 356.923 98.8215 359.267 103.187 359.267ZM117.134 361H114.855V345.142H116.909V349.476H117.07C117.551 346.94 119.349 344.821 122.655 344.821C126.315 344.821 127.92 347.518 127.92 350.471V352.044H125.641V350.824C125.641 348.128 124.517 346.811 121.756 346.811C118.546 346.811 117.134 348.834 117.134 352.397V361ZM132.84 361H130.56V345.142H132.615V349.925H132.743C133.193 347.261 135.022 344.821 138.971 344.821C142.502 344.821 144.492 347.004 145.006 350.086H145.166C145.616 347.357 147.51 344.821 151.49 344.821C155.631 344.821 157.782 347.742 157.782 351.755V361H155.503V352.076C155.503 348.545 153.994 346.908 150.655 346.908C146.835 346.908 145.295 349.123 145.295 353.328V361H143.015V352.076C143.015 348.545 141.539 346.908 138.2 346.908C134.348 346.908 132.84 349.123 132.84 353.328V361ZM169.045 361.321C163.941 361.321 160.699 358.111 160.699 353.071C160.699 348.256 163.909 344.821 169.013 344.821C173.667 344.821 176.974 347.518 176.974 352.236C176.974 352.814 176.91 353.296 176.813 353.713H162.85C162.978 357.276 164.808 359.427 169.013 359.427C172.737 359.427 174.47 358.047 174.47 355.735V355.511H176.749V355.735C176.749 359.042 173.475 361.321 169.045 361.321ZM168.981 346.715C164.872 346.715 163.01 348.834 162.85 352.301H174.823C174.823 352.14 174.823 351.98 174.823 351.819C174.823 348.481 172.704 346.715 168.981 346.715ZM186.834 361.321C181.762 361.321 178.938 357.886 178.938 353.071C178.938 348.256 181.762 344.821 186.642 344.821C190.398 344.821 192.741 346.844 193.447 349.572H193.608V339.492H195.887V361H193.8V356.313H193.672C192.901 359.491 190.333 361.321 186.834 361.321ZM181.249 353.071C181.249 357.662 183.688 359.234 187.412 359.234C191.136 359.234 193.608 357.084 193.608 353.328V353.039C193.608 349.123 191.264 346.94 187.348 346.94C183.721 346.94 181.249 348.481 181.249 353.071ZM209.011 361H206.732V347.1H204.196V345.142H206.764C207.021 341.386 209.557 339.492 213.666 339.492H215.399V341.29H213.345C210.456 341.29 208.883 342.253 209.011 345.142H215.399V347.1H209.011V361ZM219.893 343.12H217.614V339.492H219.893V343.12ZM219.893 361H217.614V345.142H219.893V361ZM226.038 361H223.759V345.142H225.814V350.118H225.974C226.52 347.421 228.767 344.821 232.715 344.821C237.177 344.821 239.392 347.999 239.392 351.755V361H237.113V352.076C237.113 348.802 235.54 346.908 231.913 346.908C228.061 346.908 226.038 349.251 226.038 353.328V361ZM247.499 361.321C244.385 361.321 242.267 359.844 242.267 357.276C242.267 354.676 244.417 353.553 247.371 353.232L254.914 352.397V351.177C254.914 348.095 253.566 346.876 250.099 346.876C246.697 346.876 244.899 348.095 244.899 350.888V351.017H242.62V350.888C242.62 347.55 245.38 344.821 250.26 344.821C255.075 344.821 257.129 347.582 257.129 351.081V361H255.075V356.731H254.914C253.983 359.652 251.191 361.321 247.499 361.321ZM244.546 357.116C244.546 358.721 245.605 359.555 248.013 359.555C251.865 359.555 254.914 357.854 254.914 354.034V353.906L248.077 354.676C245.701 354.901 244.546 355.479 244.546 357.116ZM263.155 361H260.876V345.142H262.93V350.118H263.091C263.637 347.421 265.884 344.821 269.832 344.821C274.294 344.821 276.509 347.999 276.509 351.755V361H274.23V352.076C274.23 348.802 272.657 346.908 269.029 346.908C265.177 346.908 263.155 349.251 263.155 353.328V361ZM287.794 361.321C282.722 361.321 279.415 357.886 279.415 353.071C279.415 348.256 282.722 344.821 287.794 344.821C292.224 344.821 295.69 347.453 295.69 351.273V351.53H293.443V351.338C293.443 348.513 291.389 346.908 287.761 346.908C283.524 346.908 281.694 349.187 281.694 353.071C281.694 356.955 283.524 359.234 287.761 359.234C291.389 359.234 293.443 357.629 293.443 354.805V354.612H295.69V354.869C295.69 358.689 292.224 361.321 287.794 361.321ZM301.024 343.12H298.745V339.492H301.024V343.12ZM301.024 361H298.745V345.142H301.024V361ZM309.255 361.321C306.142 361.321 304.023 359.844 304.023 357.276C304.023 354.676 306.174 353.553 309.127 353.232L316.671 352.397V351.177C316.671 348.095 315.323 346.876 311.856 346.876C308.453 346.876 306.655 348.095 306.655 350.888V351.017H304.376V350.888C304.376 347.55 307.137 344.821 312.016 344.821C316.831 344.821 318.886 347.582 318.886 351.081V361H316.831V356.731H316.671C315.74 359.652 312.947 361.321 309.255 361.321ZM306.302 357.116C306.302 358.721 307.362 359.555 309.769 359.555C313.621 359.555 316.671 357.854 316.671 354.034V353.906L309.833 354.676C307.458 354.901 306.302 355.479 306.302 357.116ZM324.911 361H322.632V339.492H324.911V361ZM341.476 361.321C336.404 361.321 333.579 357.886 333.579 353.071C333.579 348.256 336.404 344.821 341.284 344.821C345.039 344.821 347.383 346.844 348.089 349.572H348.249V339.492H350.529V361H348.442V356.313H348.314C347.543 359.491 344.975 361.321 341.476 361.321ZM335.891 353.071C335.891 357.662 338.33 359.234 342.054 359.234C345.778 359.234 348.249 357.084 348.249 353.328V353.039C348.249 349.123 345.906 346.94 341.99 346.94C338.362 346.94 335.891 348.481 335.891 353.071ZM361.901 361.321C356.797 361.321 353.554 358.111 353.554 353.071C353.554 348.256 356.764 344.821 361.868 344.821C366.523 344.821 369.829 347.518 369.829 352.236C369.829 352.814 369.765 353.296 369.669 353.713H355.705C355.834 357.276 357.663 359.427 361.868 359.427C365.592 359.427 367.326 358.047 367.326 355.735V355.511H369.605V355.735C369.605 359.042 366.33 361.321 361.901 361.321ZM361.836 346.715C357.727 346.715 355.866 348.834 355.705 352.301H367.679C367.679 352.14 367.679 351.98 367.679 351.819C367.679 348.481 365.56 346.715 361.836 346.715ZM380.428 361.321C375.356 361.321 372.05 357.886 372.05 353.071C372.05 348.256 375.356 344.821 380.428 344.821C384.858 344.821 388.325 347.453 388.325 351.273V351.53H386.078V351.338C386.078 348.513 384.024 346.908 380.396 346.908C376.159 346.908 374.329 349.187 374.329 353.071C374.329 356.955 376.159 359.234 380.396 359.234C384.024 359.234 386.078 357.629 386.078 354.805V354.612H388.325V354.869C388.325 358.689 384.858 361.321 380.428 361.321ZM393.659 343.12H391.379V339.492H393.659V343.12ZM393.659 361H391.379V345.142H393.659V361ZM404.458 361.321C399.579 361.321 396.754 359.363 396.754 355.703V355.639H399.033V355.832C399.033 358.496 400.606 359.427 404.49 359.427C408.053 359.427 409.273 358.592 409.273 356.763C409.273 355.093 408.278 354.548 405.646 354.13L401.409 353.521C398.52 353.135 396.69 352.012 396.69 349.38C396.69 346.587 399.354 344.821 403.72 344.821C408.278 344.821 411.231 346.747 411.231 350.471V350.535H408.952V350.375C408.952 347.999 407.7 346.715 403.656 346.715C400.317 346.715 398.937 347.518 398.937 349.412C398.937 351.049 399.771 351.627 402.404 352.012L406.288 352.557C409.691 353.039 411.52 354.195 411.52 356.763C411.52 359.748 408.567 361.321 404.458 361.321ZM416.794 343.12H414.515V339.492H416.794V343.12ZM416.794 361H414.515V345.142H416.794V361ZM428.396 361.321C423.228 361.321 419.793 357.886 419.793 353.071C419.793 348.256 423.228 344.821 428.396 344.821C433.596 344.821 437.031 348.256 437.031 353.071C437.031 357.886 433.596 361.321 428.396 361.321ZM428.396 359.267C432.762 359.267 434.784 356.923 434.784 353.071C434.784 349.251 432.762 346.876 428.396 346.876C424.03 346.876 422.04 349.251 422.04 353.071C422.04 356.923 424.03 359.267 428.396 359.267ZM442.343 361H440.063V345.142H442.118V350.118H442.278C442.824 347.421 445.071 344.821 449.02 344.821C453.482 344.821 455.697 347.999 455.697 351.755V361H453.417V352.076C453.417 348.802 451.844 346.908 448.217 346.908C444.365 346.908 442.343 349.251 442.343 353.328V361ZM466.371 361.321C461.492 361.321 458.667 359.363 458.667 355.703V355.639H460.946V355.832C460.946 358.496 462.519 359.427 466.403 359.427C469.967 359.427 471.186 358.592 471.186 356.763C471.186 355.093 470.191 354.548 467.559 354.13L463.322 353.521C460.433 353.135 458.603 352.012 458.603 349.38C458.603 346.587 461.267 344.821 465.633 344.821C470.191 344.821 473.145 346.747 473.145 350.471V350.535H470.865V350.375C470.865 347.999 469.614 346.715 465.569 346.715C462.23 346.715 460.85 347.518 460.85 349.412C460.85 351.049 461.685 351.627 464.317 352.012L468.201 352.557C471.604 353.039 473.434 354.195 473.434 356.763C473.434 359.748 470.48 361.321 466.371 361.321ZM486.719 361.321C483.605 361.321 481.487 359.844 481.487 357.276C481.487 354.676 483.637 353.553 486.591 353.232L494.134 352.397V351.177C494.134 348.095 492.786 346.876 489.319 346.876C485.916 346.876 484.119 348.095 484.119 350.888V351.017H481.84V350.888C481.84 347.55 484.6 344.821 489.48 344.821C494.295 344.821 496.349 347.582 496.349 351.081V361H494.295V356.731H494.134C493.203 359.652 490.411 361.321 486.719 361.321ZM483.766 357.116C483.766 358.721 484.825 359.555 487.233 359.555C491.085 359.555 494.134 357.854 494.134 354.034V353.906L487.297 354.676C484.921 354.901 483.766 355.479 483.766 357.116ZM502.375 361H500.096V345.142H502.15V350.118H502.311C502.856 347.421 505.103 344.821 509.052 344.821C513.514 344.821 515.729 347.999 515.729 351.755V361H513.45V352.076C513.45 348.802 511.877 346.908 508.249 346.908C504.397 346.908 502.375 349.251 502.375 353.328V361ZM526.275 361.321C521.203 361.321 518.378 357.886 518.378 353.071C518.378 348.256 521.203 344.821 526.083 344.821C529.838 344.821 532.182 346.844 532.888 349.572H533.048V339.492H535.328V361H533.241V356.313H533.113C532.342 359.491 529.774 361.321 526.275 361.321ZM520.69 353.071C520.69 357.662 523.129 359.234 526.853 359.234C530.577 359.234 533.048 357.084 533.048 353.328V353.039C533.048 349.123 530.705 346.94 526.789 346.94C523.161 346.94 520.69 348.481 520.69 353.071ZM552.015 361.321C547.136 361.321 544.311 359.363 544.311 355.703V355.639H546.59V355.832C546.59 358.496 548.163 359.427 552.047 359.427C555.611 359.427 556.83 358.592 556.83 356.763C556.83 355.093 555.835 354.548 553.203 354.13L548.966 353.521C546.077 353.135 544.247 352.012 544.247 349.38C544.247 346.587 546.911 344.821 551.277 344.821C555.835 344.821 558.789 346.747 558.789 350.471V350.535H556.509V350.375C556.509 347.999 555.257 346.715 551.213 346.715C547.874 346.715 546.494 347.518 546.494 349.412C546.494 351.049 547.329 351.627 549.961 352.012L553.845 352.557C557.248 353.039 559.077 354.195 559.077 356.763C559.077 359.748 556.124 361.321 552.015 361.321ZM571.798 361H568.363C565.217 361 563.195 359.684 563.195 355.96V347.1H560.37V345.142H563.195V341.354H565.506V345.142H571.798V347.1H565.506V356.089C565.506 358.304 566.598 358.913 568.909 358.913H571.798V361ZM578.695 361.321C575.582 361.321 573.463 359.844 573.463 357.276C573.463 354.676 575.614 353.553 578.567 353.232L586.111 352.397V351.177C586.111 348.095 584.762 346.876 581.295 346.876C577.893 346.876 576.095 348.095 576.095 350.888V351.017H573.816V350.888C573.816 347.55 576.577 344.821 581.456 344.821C586.271 344.821 588.326 347.582 588.326 351.081V361H586.271V356.731H586.111C585.18 359.652 582.387 361.321 578.695 361.321ZM575.742 357.116C575.742 358.721 576.801 359.555 579.209 359.555C583.061 359.555 586.111 357.854 586.111 354.034V353.906L579.273 354.676C576.898 354.901 575.742 355.479 575.742 357.116ZM594.159 366.457H592.168V364.371H594.576C596.181 364.371 596.791 363.889 597.401 362.573L598.171 360.968L590.307 345.142H592.81L597.465 354.58L599.231 358.464H599.423L601.124 354.548L605.522 345.142H608.026L599.423 363.215C598.267 365.655 596.791 366.457 594.159 366.457ZM64.2178 400H61.3929L56.321 384.142H58.6644L62.035 394.639L62.8375 398.01H63.0301L64.1215 394.447L68.2946 384.142H71.2158L75.3568 394.447L76.4482 397.978H76.6408L77.4112 394.639L80.8139 384.142H83.1573L78.0212 400H75.1642L71.0553 389.631L69.8033 386.1H69.6428L68.3909 389.631L64.2178 400ZM87.6664 382.12H85.3873V378.492H87.6664V382.12ZM87.6664 400H85.3873V384.142H87.6664V400ZM101.227 400H97.792C94.6461 400 92.6238 398.684 92.6238 394.96V386.1H89.7989V384.142H92.6238V380.354H94.935V384.142H101.227V386.1H94.935V395.089C94.935 397.304 96.0264 397.913 98.3377 397.913H101.227V400ZM106.005 400H103.726V378.492H106.005V388.989H106.166C106.679 386.325 108.734 383.821 112.779 383.821C117.208 383.821 119.423 386.774 119.423 390.787V400H117.144V391.076C117.144 387.449 115.443 385.908 111.88 385.908C107.642 385.908 106.005 388.604 106.005 392.553V400ZM125.473 382.12H123.193V378.492H125.473V382.12ZM125.473 400H123.193V384.142H125.473V400ZM131.586 400H129.306V384.142H131.361V389.118H131.521C132.067 386.421 134.314 383.821 138.263 383.821C142.725 383.821 144.94 386.999 144.94 390.755V400H142.66V391.076C142.66 387.802 141.087 385.908 137.46 385.908C133.608 385.908 131.586 388.251 131.586 392.328V400ZM156.628 405.457H154.638V403.371H157.046C158.651 403.371 159.261 402.889 159.871 401.573L160.641 399.968L152.776 384.142H155.28L159.935 393.58L161.7 397.464H161.893L163.594 393.548L167.992 384.142H170.496L161.893 402.215C160.737 404.655 159.261 405.457 156.628 405.457ZM180.461 400.321C175.293 400.321 171.858 396.886 171.858 392.071C171.858 387.256 175.293 383.821 180.461 383.821C185.661 383.821 189.096 387.256 189.096 392.071C189.096 396.886 185.661 400.321 180.461 400.321ZM180.461 398.267C184.827 398.267 186.849 395.923 186.849 392.071C186.849 388.251 184.827 385.876 180.461 385.876C176.095 385.876 174.105 388.251 174.105 392.071C174.105 395.923 176.095 398.267 180.461 398.267ZM198.774 400.321C194.247 400.321 192.032 397.175 192.032 393.419V384.142H194.312V393.066C194.312 396.373 195.917 398.267 199.576 398.267C203.46 398.267 205.483 395.923 205.483 391.846V384.142H207.762V400H205.707V395.056H205.547C205.001 397.753 202.722 400.321 198.774 400.321ZM213.875 400H211.596V384.142H213.651V388.476H213.811C214.293 385.94 216.09 383.821 219.397 383.821C223.056 383.821 224.661 386.518 224.661 389.471V391.044H222.382V389.824C222.382 387.128 221.258 385.811 218.498 385.811C215.288 385.811 213.875 387.834 213.875 391.397V400ZM235.25 400H233.195V378.492H235.474V388.572H235.635C236.309 385.844 238.588 383.821 242.408 383.821C247.384 383.821 250.112 387.256 250.112 392.071C250.112 396.886 247.384 400.321 242.215 400.321C238.684 400.321 236.148 398.491 235.41 395.313H235.25V400ZM235.474 392.328C235.474 396.084 237.85 398.234 241.67 398.234C245.458 398.234 247.801 396.662 247.801 392.071C247.801 387.481 245.393 385.94 241.734 385.94C237.721 385.94 235.474 388.123 235.474 392.039V392.328ZM259.558 400.321C255.032 400.321 252.817 397.175 252.817 393.419V384.142H255.096V393.066C255.096 396.373 256.701 398.267 260.361 398.267C264.245 398.267 266.267 395.923 266.267 391.846V384.142H268.546V400H266.492V395.056H266.331C265.786 397.753 263.507 400.321 259.558 400.321ZM279.218 400.321C274.146 400.321 271.321 396.886 271.321 392.071C271.321 387.256 274.146 383.821 279.026 383.821C282.781 383.821 285.125 385.844 285.831 388.572H285.991V378.492H288.271V400H286.184V395.313H286.056C285.285 398.491 282.717 400.321 279.218 400.321ZM273.633 392.071C273.633 396.662 276.072 398.234 279.796 398.234C283.52 398.234 285.991 396.084 285.991 392.328V392.039C285.991 388.123 283.648 385.94 279.732 385.94C276.104 385.94 273.633 387.481 273.633 392.071ZM298.904 398.716C294.185 398.716 291.296 395.602 291.296 391.269C291.296 386.935 294.282 383.821 299.161 383.821C302.5 383.821 305.132 385.394 305.774 388.219H305.934V384.142H307.989V398.491C307.989 403.724 304.682 405.778 299.899 405.778C295.598 405.778 292.324 403.627 292.324 399.936H294.603C294.603 402.729 296.465 403.82 299.996 403.82C304.105 403.82 305.71 402.568 305.71 398.62V394.479H305.549C304.907 396.918 302.564 398.716 298.904 398.716ZM293.576 391.269C293.576 395.313 296.079 396.694 299.514 396.694C303.43 396.694 305.71 394.735 305.71 391.365V390.819C305.71 387.705 303.334 385.844 299.675 385.844C296.111 385.844 293.576 387.224 293.576 391.269ZM319.392 400.321C314.288 400.321 311.046 397.111 311.046 392.071C311.046 387.256 314.256 383.821 319.36 383.821C324.015 383.821 327.321 386.518 327.321 391.236C327.321 391.814 327.257 392.296 327.16 392.713H313.197C313.325 396.276 315.155 398.427 319.36 398.427C323.084 398.427 324.817 397.047 324.817 394.735V394.511H327.096V394.735C327.096 398.042 323.822 400.321 319.392 400.321ZM319.328 385.715C315.219 385.715 313.357 387.834 313.197 391.301H325.17C325.17 391.14 325.17 390.98 325.17 390.819C325.17 387.481 323.052 385.715 319.328 385.715ZM340.07 400H336.636C333.49 400 331.467 398.684 331.467 394.96V386.1H328.643V384.142H331.467V380.354H333.779V384.142H340.07V386.1H333.779V395.089C333.779 397.304 334.87 397.913 337.181 397.913H340.07V400ZM344.432 400H341.607V395.538H344.432V400Z" fill="white"/>
<path d="M899.439 443.21H897.051V435.504H894.312V433.864H894.758C895.936 433.864 896.732 433.593 897.258 432.542H899.439V443.21ZM910.05 443.21H900.576V441.681C900.576 439.802 901.388 438.831 903.633 438.083L906.372 437.191C907.327 436.857 907.677 436.538 907.677 435.838C907.677 435.026 907.231 434.564 905.48 434.564C903.522 434.564 902.932 435.153 902.932 436.331V436.538H900.592V436.331C900.592 434.262 902.009 432.383 905.56 432.383C908.776 432.383 910.082 433.848 910.082 435.87C910.082 437.764 908.84 438.704 906.945 439.229L904.62 439.866C903.585 440.185 903.092 440.487 903.092 441.331L905.878 441.06H910.05V443.21ZM913.614 443.21H911.226V432.542H913.614V436.777H919.187V432.542H921.576V443.21H919.187V438.927H913.614V443.21Z" fill="#FEFEFE"/>
<path d="M1019.07 443.21H1016.68V435.504H1013.94V433.864H1014.39C1015.56 433.864 1016.36 433.593 1016.89 432.542H1019.07V443.21ZM1025.74 443.21H1020.6V432.542H1025.74C1029.17 432.542 1031.33 434.532 1031.33 437.876C1031.33 441.22 1029.17 443.21 1025.74 443.21ZM1025.74 434.691H1022.99V441.06H1025.74C1027.91 441.06 1028.79 440.439 1028.79 437.876C1028.79 435.312 1027.91 434.691 1025.74 434.691Z" fill="#FEFEFE"/>
<rect x="1096.78" y="420.363" width="81.0798" height="38.7765" rx="15.9222" fill="#F0FF9D"/>
<path d="M1130.88 443.21H1128.49V435.504H1125.76V433.864H1126.2C1127.38 433.864 1128.18 433.593 1128.7 432.542H1130.88V443.21ZM1137.9 443.21H1134.34L1131.83 432.542H1134.5L1135.79 438.592L1136.16 440.933H1136.33L1136.83 438.592L1138.61 432.542H1142.16L1143.93 438.592L1144.42 440.933H1144.6L1144.96 438.592L1146.25 432.542H1148.87L1146.33 443.21H1142.78L1141.19 437.876L1140.44 434.803H1140.27L1139.52 437.876L1137.9 443.21Z" fill="black"/>
<path d="M1246.75 443.21H1244.36V435.504H1241.62V433.864H1242.07C1243.25 433.864 1244.04 433.593 1244.57 432.542H1246.75V443.21ZM1250.55 443.21H1248.16V432.542H1251.39L1253.89 437.796L1254.89 440.296H1255.07L1256.04 437.796L1258.46 432.542H1261.71V443.21H1259.32V437.796L1259.4 436.124H1259.22L1258.6 437.796L1256.37 442.573H1253.48L1251.25 437.796L1250.63 436.124H1250.45L1250.55 437.796V443.21Z" fill="#FEFEFE"/>
<path d="M1362.93 443.21H1360.54V435.504H1357.8V433.864H1358.25C1359.43 433.864 1360.22 433.593 1360.75 432.542H1362.93V443.21ZM1370.66 443.21H1368.25V439.675L1363.52 432.542H1366.47L1368.51 435.663L1369.4 437.096H1369.57L1370.47 435.663L1372.5 432.542H1375.47L1370.66 439.691V443.21Z" fill="#FEFEFE"/>
<path opacity="0.4" d="M966.351 329.884V71.3744" stroke="#F0FF9D" stroke-width="1.32685" stroke-linecap="round" stroke-linejoin="round" stroke-dasharray="7.96"/>
<path d="M954.777 350.589H953.458V338.143H955.26L959.44 346.261L960.536 348.564H960.629L961.706 346.261L965.867 338.143H967.687V350.589H966.369V341.821L966.406 340.149H966.294L965.514 341.821L961.372 349.846H959.774L955.632 341.821L954.833 340.149H954.74L954.777 341.821V350.589ZM974.721 350.775C971.73 350.775 969.742 348.787 969.742 346.001C969.742 343.214 971.73 341.227 974.721 341.227C977.73 341.227 979.718 343.214 979.718 346.001C979.718 348.787 977.73 350.775 974.721 350.775ZM974.721 349.586C977.247 349.586 978.417 348.23 978.417 346.001C978.417 343.79 977.247 342.416 974.721 342.416C972.194 342.416 971.043 343.79 971.043 346.001C971.043 348.23 972.194 349.586 974.721 349.586Z" fill="#EFEFEF"/>
<path opacity="0.4" d="M1036.86 329.884V71.3744" stroke="#F0FF9D" stroke-width="1.32685" stroke-linecap="round" stroke-linejoin="round" stroke-dasharray="7.96"/>
<path d="M1031.73 350.589H1030.41V339.351H1025.28V338.143H1036.84V339.351H1031.73V350.589ZM1042.33 350.775C1039.71 350.775 1038.42 348.954 1038.42 346.781V341.413H1039.74V346.577C1039.74 348.49 1040.67 349.586 1042.79 349.586C1045.04 349.586 1046.21 348.23 1046.21 345.871V341.413H1047.53V350.589H1046.34V347.728H1046.25C1045.93 349.289 1044.61 350.775 1042.33 350.775Z" fill="#EFEFEF"/>
<path opacity="0.4" d="M1107.36 329.884V71.3744" stroke="#F0FF9D" stroke-width="1.32685" stroke-linecap="round" stroke-linejoin="round" stroke-dasharray="7.96"/>
<path d="M1098.14 350.589H1096.17L1092.57 338.143H1094.04L1096.51 346.725L1097.16 349.27H1097.27L1098.01 346.725L1100.91 338.143H1102.77L1105.96 346.725L1106.8 349.27H1106.89L1107.47 346.725L1109.64 338.143H1111.09L1107.88 350.589H1105.91L1102.88 342.49L1101.89 339.592H1101.76L1100.89 342.49L1098.14 350.589ZM1117.22 350.775C1114.27 350.775 1112.39 348.917 1112.39 346.001C1112.39 343.214 1114.25 341.227 1117.2 341.227C1119.9 341.227 1121.81 342.787 1121.81 345.518C1121.81 345.852 1121.77 346.131 1121.72 346.372H1113.64C1113.71 348.434 1114.77 349.679 1117.2 349.679C1119.36 349.679 1120.36 348.88 1120.36 347.543V347.413H1121.68V347.543C1121.68 349.456 1119.79 350.775 1117.22 350.775ZM1117.19 342.323C1114.81 342.323 1113.73 343.549 1113.64 345.555H1120.57C1120.57 345.462 1120.57 345.369 1120.57 345.276C1120.57 343.345 1119.34 342.323 1117.19 342.323Z" fill="#EFEFEF"/>
<path opacity="0.4" d="M1177.86 329.884V71.3744" stroke="#F0FF9D" stroke-width="1.32685" stroke-linecap="round" stroke-linejoin="round" stroke-dasharray="7.96"/>
<path d="M1172.74 350.589H1171.42V339.351H1166.29V338.143H1177.85V339.351H1172.74V350.589ZM1180.81 350.589H1179.49V338.143H1180.81V344.218H1180.9C1181.2 342.676 1182.39 341.227 1184.73 341.227C1187.29 341.227 1188.57 342.936 1188.57 345.258V350.589H1187.25V345.425C1187.25 343.326 1186.27 342.434 1184.21 342.434C1181.75 342.434 1180.81 343.995 1180.81 346.28V350.589Z" fill="#EFEFEF"/>
<path opacity="0.4" d="M1248.37 329.884V71.3744" stroke="#F0FF9D" stroke-width="1.32685" stroke-linecap="round" stroke-linejoin="round" stroke-dasharray="7.96"/>
<path d="M1240.55 350.589H1239.23V338.143H1248.55V339.351H1240.55V344.106H1248.28V345.295H1240.55V350.589ZM1251.96 350.589H1250.65V341.413H1251.83V343.92H1251.93C1252.21 342.453 1253.25 341.227 1255.16 341.227C1257.28 341.227 1258.21 342.787 1258.21 344.496V345.406H1256.89V344.701C1256.89 343.14 1256.24 342.379 1254.64 342.379C1252.78 342.379 1251.96 343.549 1251.96 345.611V350.589Z" fill="#EFEFEF"/>
<path opacity="0.4" d="M1318.87 329.884V71.3744" stroke="#F0FF9D" stroke-width="1.32685" stroke-linecap="round" stroke-linejoin="round" stroke-dasharray="7.96"/>
<path d="M1313.76 350.775C1310.1 350.775 1308.39 349.029 1308.39 346.651V346.54H1309.73V346.781C1309.73 348.564 1310.84 349.53 1313.76 349.53C1316.25 349.53 1317.38 348.843 1317.38 347.431C1317.38 346.038 1316.54 345.536 1314.72 345.165L1312.08 344.663C1310.06 344.273 1308.44 343.419 1308.44 341.357C1308.44 339.666 1309.89 337.958 1313.46 337.958C1316.97 337.958 1318.53 339.815 1318.53 342.081V342.193H1317.19V341.97C1317.19 340.168 1316.08 339.202 1313.37 339.202C1310.9 339.202 1309.78 339.908 1309.78 341.264C1309.78 342.676 1310.6 343.103 1312.44 343.493L1315.06 344.013C1317.29 344.44 1318.72 345.388 1318.72 347.32C1318.72 349.103 1317.21 350.775 1313.76 350.775ZM1323.3 350.775C1321.5 350.775 1320.28 349.92 1320.28 348.434C1320.28 346.93 1321.52 346.28 1323.23 346.094L1327.6 345.611V344.905C1327.6 343.122 1326.82 342.416 1324.81 342.416C1322.84 342.416 1321.8 343.122 1321.8 344.738V344.812H1320.48V344.738C1320.48 342.806 1322.08 341.227 1324.9 341.227C1327.69 341.227 1328.88 342.824 1328.88 344.849V350.589H1327.69V348.119H1327.6C1327.06 349.809 1325.44 350.775 1323.3 350.775ZM1321.6 348.341C1321.6 349.27 1322.21 349.753 1323.6 349.753C1325.83 349.753 1327.6 348.769 1327.6 346.558V346.484L1323.64 346.93C1322.26 347.06 1321.6 347.394 1321.6 348.341Z" fill="#EFEFEF"/>
<path opacity="0.4" d="M1389.38 329.884V71.3744" stroke="#F0FF9D" stroke-width="1.32685" stroke-linecap="round" stroke-linejoin="round" stroke-dasharray="7.96"/>
<path d="M1383.77 350.775C1380.11 350.775 1378.4 349.029 1378.4 346.651V346.54H1379.74V346.781C1379.74 348.564 1380.86 349.53 1383.77 349.53C1386.26 349.53 1387.39 348.843 1387.39 347.431C1387.39 346.038 1386.56 345.536 1384.74 345.165L1382.1 344.663C1380.07 344.273 1378.46 343.419 1378.46 341.357C1378.46 339.666 1379.91 337.958 1383.47 337.958C1386.99 337.958 1388.55 339.815 1388.55 342.081V342.193H1387.21V341.97C1387.21 340.168 1386.09 339.202 1383.38 339.202C1380.91 339.202 1379.8 339.908 1379.8 341.264C1379.8 342.676 1380.61 343.103 1382.45 343.493L1385.07 344.013C1387.3 344.44 1388.73 345.388 1388.73 347.32C1388.73 349.103 1387.23 350.775 1383.77 350.775ZM1394.62 350.775C1392 350.775 1390.72 348.954 1390.72 346.781V341.413H1392.04V346.577C1392.04 348.49 1392.97 349.586 1395.08 349.586C1397.33 349.586 1398.5 348.23 1398.5 345.871V341.413H1399.82V350.589H1398.63V347.728H1398.54C1398.22 349.289 1396.9 350.775 1394.62 350.775Z" fill="#EFEFEF"/>
<path d="M854.535 108.307H853.309V106.598C850.262 106.338 848.832 104.684 848.832 102.511V102.399H850.17V102.641C850.17 104.424 851.284 105.39 854.201 105.39C856.69 105.39 857.823 104.703 857.823 103.291C857.823 101.898 856.987 101.396 855.166 101.025L852.529 100.523C850.504 100.133 848.888 99.2787 848.888 97.2168C848.888 95.6192 850.17 94.0217 853.309 93.836V92.1455H854.535V93.836C857.6 94.0589 858.975 95.8236 858.975 97.9412V98.0527H857.637V97.8298C857.637 96.0279 856.522 95.062 853.81 95.062C851.34 95.062 850.225 95.7678 850.225 97.1239C850.225 98.5356 851.043 98.9629 852.882 99.353L855.501 99.8731C857.73 100.3 859.16 101.248 859.16 103.18C859.16 104.907 857.749 106.523 854.535 106.635V108.307ZM870.77 106.449H860.906V105.539C860.906 103.142 861.779 101.972 864.287 101.062L867.074 100.077C868.875 99.4087 869.47 98.7957 869.47 97.4768C869.47 95.8421 868.337 95.062 865.978 95.062C863.284 95.062 862.17 96.1022 862.17 97.9598V98.1827H860.851V98.0155C860.851 95.805 862.374 93.8174 866.015 93.8174C869.358 93.8174 870.807 95.4706 870.807 97.4768C870.807 99.3901 869.618 100.468 867.426 101.211L864.882 102.065C862.838 102.79 862.262 103.607 862.262 105.353L865.049 105.242H870.77V106.449ZM877.776 106.635C874.377 106.635 872.278 105.446 872.278 103.068C872.278 101.526 873.355 100.338 875.399 99.9288V99.7988C873.597 99.5573 872.612 98.4613 872.612 97.0496C872.612 95.1363 874.377 93.8174 877.776 93.8174C881.194 93.8174 882.94 95.1363 882.94 97.0496C882.94 98.4613 881.956 99.5573 880.154 99.7988V99.9288C882.234 100.338 883.275 101.526 883.275 103.068C883.275 105.446 881.157 106.635 877.776 106.635ZM877.776 99.483C880.414 99.483 881.621 98.7586 881.621 97.2911C881.621 95.9165 880.693 95.0805 877.776 95.0805C874.878 95.0805 873.931 95.9165 873.931 97.2911C873.931 98.7586 875.138 99.483 877.776 99.483ZM877.776 105.372C880.73 105.372 881.937 104.629 881.937 102.864C881.937 101.248 880.693 100.43 877.776 100.43C874.86 100.43 873.615 101.248 873.615 102.864C873.615 104.629 874.804 105.372 877.776 105.372ZM890.508 106.635C886.96 106.635 884.731 104.238 884.731 100.226C884.731 96.2322 886.96 93.8174 890.508 93.8174C894.038 93.8174 896.267 96.2322 896.267 100.226C896.267 104.238 894.038 106.635 890.508 106.635ZM890.508 105.372C893.388 105.372 894.874 103.7 894.874 100.226C894.874 96.7524 893.388 95.0805 890.508 95.0805C887.611 95.0805 886.124 96.7524 886.124 100.226C886.124 103.7 887.611 105.372 890.508 105.372Z" fill="#EFEFEF"/>
<path d="M854.535 161.381H853.309V159.672C850.262 159.411 848.832 157.758 848.832 155.585V155.473H850.17V155.715C850.17 157.498 851.284 158.464 854.201 158.464C856.69 158.464 857.823 157.777 857.823 156.365C857.823 154.972 856.987 154.47 855.166 154.099L852.529 153.597C850.504 153.207 848.888 152.353 848.888 150.291C848.888 148.693 850.17 147.096 853.309 146.91V145.22H854.535V146.91C857.6 147.133 858.975 148.898 858.975 151.015V151.127H857.637V150.904C857.637 149.102 856.522 148.136 853.81 148.136C851.34 148.136 850.225 148.842 850.225 150.198C850.225 151.61 851.043 152.037 852.882 152.427L855.501 152.947C857.73 153.374 859.16 154.322 859.16 156.254C859.16 157.981 857.749 159.597 854.535 159.709V161.381ZM870.77 159.523H860.906V158.613C860.906 156.216 861.779 155.046 864.287 154.136L867.074 153.151C868.875 152.483 869.47 151.87 869.47 150.551C869.47 148.916 868.337 148.136 865.978 148.136C863.284 148.136 862.17 149.176 862.17 151.034V151.257H860.851V151.089C860.851 148.879 862.374 146.891 866.015 146.891C869.358 146.891 870.807 148.545 870.807 150.551C870.807 152.464 869.618 153.542 867.426 154.285L864.882 155.139C862.838 155.864 862.262 156.681 862.262 158.427L865.049 158.316H870.77V159.523ZM878.296 159.709C874.303 159.709 872.575 157.814 872.575 153.189C872.575 149.455 874.377 146.891 878.259 146.891C881.101 146.891 883.182 148.359 883.182 150.867V150.997H881.752V150.867C881.752 149.325 880.841 148.155 878.259 148.155C875.101 148.155 873.95 149.826 873.95 153.133V154.247H874.08C874.507 152.854 876.216 151.814 878.686 151.814C881.733 151.814 883.516 153.3 883.516 155.715C883.516 158.148 881.621 159.709 878.296 159.709ZM878.259 158.446C880.934 158.446 882.16 157.517 882.16 155.622C882.16 153.783 880.971 152.817 878.278 152.817C875.751 152.817 874.21 153.82 874.21 155.511C874.21 157.442 875.659 158.446 878.259 158.446ZM891.071 159.709C887.523 159.709 885.294 157.312 885.294 153.3C885.294 149.306 887.523 146.891 891.071 146.891C894.6 146.891 896.829 149.306 896.829 153.3C896.829 157.312 894.6 159.709 891.071 159.709ZM891.071 158.446C893.95 158.446 895.436 156.774 895.436 153.3C895.436 149.826 893.95 148.155 891.071 148.155C888.173 148.155 886.687 149.826 886.687 153.3C886.687 156.774 888.173 158.446 891.071 158.446Z" fill="#EFEFEF"/>
<path d="M854.535 214.455H853.309V212.746C850.262 212.485 848.832 210.832 848.832 208.659V208.547H850.17V208.789C850.17 210.572 851.284 211.538 854.201 211.538C856.69 211.538 857.823 210.851 857.823 209.439C857.823 208.046 856.987 207.544 855.166 207.173L852.529 206.671C850.504 206.281 848.888 205.427 848.888 203.365C848.888 201.767 850.17 200.17 853.309 199.984V198.293H854.535V199.984C857.6 200.207 858.975 201.972 858.975 204.089V204.201H857.637V203.978C857.637 202.176 856.522 201.21 853.81 201.21C851.34 201.21 850.225 201.916 850.225 203.272C850.225 204.684 851.043 205.111 852.882 205.501L855.501 206.021C857.73 206.448 859.16 207.396 859.16 209.328C859.16 211.055 857.749 212.671 854.535 212.783V214.455ZM870.77 212.597H860.906V211.687C860.906 209.29 861.779 208.12 864.287 207.21L867.074 206.225C868.875 205.557 869.47 204.944 869.47 203.625C869.47 201.99 868.337 201.21 865.978 201.21C863.284 201.21 862.17 202.25 862.17 204.108V204.331H860.851V204.163C860.851 201.953 862.374 199.965 866.015 199.965C869.358 199.965 870.807 201.619 870.807 203.625C870.807 205.538 869.618 206.615 867.426 207.359L864.882 208.213C862.838 208.937 862.262 209.755 862.262 211.501L865.049 211.389H870.77V212.597ZM881.566 212.597H880.228V209.959H872.259V208.993L880.005 200.151H881.566V208.752H883.888V209.959H881.566V212.597ZM874.08 208.752H880.228V201.749H880.135L874.08 208.64V208.752ZM891.107 212.783C887.559 212.783 885.33 210.386 885.33 206.374C885.33 202.38 887.559 199.965 891.107 199.965C894.636 199.965 896.866 202.38 896.866 206.374C896.866 210.386 894.636 212.783 891.107 212.783ZM891.107 211.52C893.986 211.52 895.472 209.848 895.472 206.374C895.472 202.9 893.986 201.228 891.107 201.228C888.209 201.228 886.723 202.9 886.723 206.374C886.723 209.848 888.209 211.52 891.107 211.52Z" fill="#EFEFEF"/>
<path d="M854.535 267.528H853.309V265.82C850.262 265.559 848.832 263.906 848.832 261.733V261.621H850.17V261.863C850.17 263.646 851.284 264.612 854.201 264.612C856.69 264.612 857.823 263.925 857.823 262.513C857.823 261.12 856.987 260.618 855.166 260.247L852.529 259.745C850.504 259.355 848.888 258.501 848.888 256.439C848.888 254.841 850.17 253.244 853.309 253.058V251.367H854.535V253.058C857.6 253.281 858.975 255.045 858.975 257.163V257.275H857.637V257.052C857.637 255.25 856.522 254.284 853.81 254.284C851.34 254.284 850.225 254.99 850.225 256.346C850.225 257.758 851.043 258.185 852.882 258.575L855.501 259.095C857.73 259.522 859.16 260.47 859.16 262.402C859.16 264.129 857.749 265.745 854.535 265.857V267.528ZM870.77 265.671H860.906V264.761C860.906 262.364 861.779 261.194 864.287 260.284L867.074 259.299C868.875 258.631 869.47 258.018 869.47 256.699C869.47 255.064 868.337 254.284 865.978 254.284C863.284 254.284 862.17 255.324 862.17 257.182V257.405H860.851V257.237C860.851 255.027 862.374 253.039 866.015 253.039C869.358 253.039 870.807 254.693 870.807 256.699C870.807 258.612 869.618 259.689 867.426 260.433L864.882 261.287C862.838 262.011 862.262 262.829 862.262 264.575L865.049 264.463H870.77V265.671ZM882.476 265.671H872.612V264.761C872.612 262.364 873.485 261.194 875.993 260.284L878.779 259.299C880.581 258.631 881.176 258.018 881.176 256.699C881.176 255.064 880.043 254.284 877.683 254.284C874.99 254.284 873.875 255.324 873.875 257.182V257.405H872.556V257.237C872.556 255.027 874.08 253.039 877.721 253.039C881.064 253.039 882.513 254.693 882.513 256.699C882.513 258.612 881.324 259.689 879.132 260.433L876.587 261.287C874.544 262.011 873.968 262.829 873.968 264.575L876.755 264.463H882.476V265.671ZM889.928 265.857C886.38 265.857 884.151 263.46 884.151 259.448C884.151 255.454 886.38 253.039 889.928 253.039C893.457 253.039 895.686 255.454 895.686 259.448C895.686 263.46 893.457 265.857 889.928 265.857ZM889.928 264.593C892.807 264.593 894.293 262.922 894.293 259.448C894.293 255.974 892.807 254.302 889.928 254.302C887.03 254.302 885.544 255.974 885.544 259.448C885.544 262.922 887.03 264.593 889.928 264.593Z" fill="#EFEFEF"/>
<path d="M854.535 320.602H853.309V318.893C850.262 318.633 848.832 316.98 848.832 314.807V314.695H850.17V314.937C850.17 316.72 851.284 317.686 854.201 317.686C856.69 317.686 857.823 316.999 857.823 315.587C857.823 314.194 856.987 313.692 855.166 313.321L852.529 312.819C850.504 312.429 848.888 311.574 848.888 309.513C848.888 307.915 850.17 306.317 853.309 306.132V304.441H854.535V306.132C857.6 306.355 858.975 308.119 858.975 310.237V310.348H857.637V310.126C857.637 308.324 856.522 307.358 853.81 307.358C851.34 307.358 850.225 308.064 850.225 309.42C850.225 310.831 851.043 311.259 852.882 311.649L855.501 312.169C857.73 312.596 859.16 313.544 859.16 315.475C859.16 317.203 857.749 318.819 854.535 318.931V320.602ZM870.77 318.745H860.906V317.835C860.906 315.438 861.779 314.268 864.287 313.358L867.074 312.373C868.875 311.704 869.47 311.091 869.47 309.773C869.47 308.138 868.337 307.358 865.978 307.358C863.284 307.358 862.17 308.398 862.17 310.256V310.478H860.851V310.311C860.851 308.101 862.374 306.113 866.015 306.113C869.358 306.113 870.807 307.766 870.807 309.773C870.807 311.686 869.618 312.763 867.426 313.506L864.882 314.361C862.838 315.085 862.262 315.903 862.262 317.649L865.049 317.537H870.77V318.745ZM878.222 318.931C874.674 318.931 872.445 316.534 872.445 312.522C872.445 308.528 874.674 306.113 878.222 306.113C881.752 306.113 883.981 308.528 883.981 312.522C883.981 316.534 881.752 318.931 878.222 318.931ZM878.222 317.667C881.101 317.667 882.587 315.996 882.587 312.522C882.587 309.048 881.101 307.376 878.222 307.376C875.324 307.376 873.838 309.048 873.838 312.522C873.838 315.996 875.324 317.667 878.222 317.667ZM891.397 318.931C887.849 318.931 885.62 316.534 885.62 312.522C885.62 308.528 887.849 306.113 891.397 306.113C894.927 306.113 897.156 308.528 897.156 312.522C897.156 316.534 894.927 318.931 891.397 318.931ZM891.397 317.667C894.277 317.667 895.763 315.996 895.763 312.522C895.763 309.048 894.277 307.376 891.397 307.376C888.499 307.376 887.013 309.048 887.013 312.522C887.013 315.996 888.499 317.667 891.397 317.667Z" fill="#EFEFEF"/>
<path fill-rule="evenodd" clip-rule="evenodd" d="M946.526 268.488C945.794 268.488 945.2 269.082 945.2 269.815V274.951C942.277 274.962 939.912 277.334 939.912 280.258V295.495C939.912 298.419 942.277 300.791 945.2 300.802V305.938C945.2 306.671 945.794 307.265 946.526 307.265H947.398C948.131 307.265 948.725 306.671 948.725 305.938V300.802C951.647 300.791 954.013 298.419 954.013 295.495V280.258C954.013 277.334 951.647 274.962 948.725 274.951V269.815C948.725 269.082 948.131 268.488 947.398 268.488H946.526Z" fill="#89B9FF"/>
<path fill-rule="evenodd" clip-rule="evenodd" d="M978.253 239.406C977.52 239.406 976.926 240 976.926 240.733V255.563C974.004 255.573 971.638 257.945 971.638 260.87V269.643C971.638 272.568 974.004 274.94 976.926 274.951V289.781C976.926 290.514 977.52 291.108 978.253 291.108H979.125C979.858 291.108 980.452 290.514 980.452 289.781V274.951C983.374 274.94 985.739 272.568 985.739 269.643V260.87C985.739 257.945 983.374 255.573 980.452 255.563V240.733C980.452 240 979.858 239.406 979.125 239.406H978.253Z" fill="#F0FF9D"/>
<path fill-rule="evenodd" clip-rule="evenodd" d="M1013.51 239.406C1012.77 239.406 1012.18 240 1012.18 240.733V242.637C1009.26 242.648 1006.89 245.02 1006.89 247.945V253.487C1006.89 256.411 1009.26 258.784 1012.18 258.794V260.699C1012.18 261.431 1012.77 262.025 1013.51 262.025H1014.38C1015.11 262.025 1015.7 261.431 1015.7 260.699V258.794C1018.63 258.783 1020.99 256.411 1020.99 253.487V247.945C1020.99 245.02 1018.63 242.648 1015.7 242.637V240.733C1015.7 240 1015.11 239.406 1014.38 239.406H1013.51Z" fill="#89B9FF"/>
<path fill-rule="evenodd" clip-rule="evenodd" d="M1048.76 232.943C1048.02 232.943 1047.43 233.537 1047.43 234.27V258.794C1044.51 258.805 1042.14 261.177 1042.14 264.101V269.644C1042.14 272.568 1044.51 274.94 1047.43 274.951V276.855C1047.43 277.588 1048.02 278.182 1048.76 278.182H1049.63C1050.36 278.182 1050.96 277.588 1050.96 276.855V274.951C1053.88 274.94 1056.24 272.568 1056.24 269.644V264.101C1056.24 261.177 1053.88 258.805 1050.96 258.794V234.27C1050.96 233.537 1050.36 232.943 1049.63 232.943H1048.76Z" fill="#F0FF9D"/>
<path fill-rule="evenodd" clip-rule="evenodd" d="M1078.72 252.331C1077.99 252.331 1077.39 252.925 1077.39 253.658V258.794C1074.47 258.804 1072.11 261.177 1072.11 264.101V292.263C1072.11 295.188 1074.47 297.56 1077.39 297.57V302.706C1077.39 303.439 1077.99 304.033 1078.72 304.033H1079.59C1080.33 304.033 1080.92 303.439 1080.92 302.706V297.57C1083.84 297.56 1086.21 295.188 1086.21 292.263V264.101C1086.21 261.177 1083.84 258.805 1080.92 258.794V253.658C1080.92 252.925 1080.33 252.331 1079.59 252.331H1078.72Z" fill="#F0FF9D"/>
<path fill-rule="evenodd" clip-rule="evenodd" d="M1113.97 213.555C1113.24 213.555 1112.65 214.149 1112.65 214.882V220.018C1109.72 220.028 1107.36 222.4 1107.36 225.325V279.338C1107.36 282.262 1109.72 284.634 1112.65 284.645V289.781C1112.65 290.514 1113.24 291.108 1113.97 291.108H1114.85C1115.58 291.108 1116.17 290.514 1116.17 289.781V284.645C1119.09 284.634 1121.46 282.262 1121.46 279.338V225.325C1121.46 222.4 1119.09 220.028 1116.17 220.018V214.882C1116.17 214.149 1115.58 213.555 1114.85 213.555H1113.97Z" fill="#F0FF9D"/>
<path fill-rule="evenodd" clip-rule="evenodd" d="M1145.7 137.618C1144.97 137.618 1144.37 138.212 1144.37 138.944V144.08C1141.45 144.091 1139.09 146.463 1139.09 149.388V229.251C1139.09 232.183 1141.46 234.559 1144.39 234.559H1147.88C1150.81 234.559 1153.19 232.183 1153.19 229.251V149.388C1153.19 146.463 1150.82 144.091 1147.9 144.08V138.944C1147.9 138.212 1147.31 137.618 1146.57 137.618H1145.7Z" fill="#F0FF9D"/>
<path fill-rule="evenodd" clip-rule="evenodd" d="M1177.43 157.006C1176.7 157.006 1176.1 157.6 1176.1 158.333V160.237C1173.18 160.248 1170.81 162.62 1170.81 165.545V177.549C1170.81 180.474 1173.18 182.846 1176.1 182.857V184.761C1176.1 185.494 1176.7 186.088 1177.43 186.088H1178.3C1179.03 186.088 1179.63 185.494 1179.63 184.761V182.857C1182.55 182.846 1184.91 180.474 1184.91 177.549V165.545C1184.91 162.62 1182.55 160.248 1179.63 160.237V158.333C1179.63 157.6 1179.03 157.006 1178.3 157.006H1177.43Z" fill="#F0FF9D"/>
<path fill-rule="evenodd" clip-rule="evenodd" d="M1209.15 118.229C1208.42 118.229 1207.83 118.823 1207.83 119.556V124.692C1204.91 124.703 1202.54 127.075 1202.54 129.999V184.012C1202.54 186.937 1204.91 189.309 1207.83 189.32V194.455C1207.83 195.188 1208.42 195.782 1209.15 195.782H1210.03C1210.76 195.782 1211.35 195.188 1211.35 194.455V189.32C1214.28 189.309 1216.64 186.937 1216.64 184.012V129.999C1216.64 127.075 1214.28 124.703 1211.35 124.692V119.556C1211.35 118.823 1210.76 118.229 1210.03 118.229H1209.15Z" fill="#F0FF9D"/>
<path fill-rule="evenodd" clip-rule="evenodd" d="M1247.93 103.688C1247.2 103.688 1246.61 104.282 1246.61 105.015V110.151C1243.68 110.161 1241.32 112.534 1241.32 115.458V130.694C1241.32 133.619 1243.68 135.991 1246.61 136.002V141.138C1246.61 141.871 1247.2 142.465 1247.93 142.465H1248.8C1249.54 142.465 1250.13 141.871 1250.13 141.138V136.002C1253.05 135.991 1255.42 133.619 1255.42 130.694V115.458C1255.42 112.534 1253.05 110.162 1250.13 110.151V105.015C1250.13 104.282 1249.54 103.688 1248.8 103.688H1247.93Z" fill="#89B9FF"/>
<path fill-rule="evenodd" clip-rule="evenodd" d="M1286.71 79.4528C1285.98 79.4528 1285.38 80.0469 1285.38 80.7797V103.688C1282.46 103.699 1280.09 106.071 1280.09 108.996V127.463C1280.09 130.388 1282.46 132.76 1285.38 132.77V155.679C1285.38 156.412 1285.98 157.006 1286.71 157.006H1287.58C1288.31 157.006 1288.91 156.412 1288.91 155.679V132.77C1291.83 132.76 1294.2 130.388 1294.2 127.463V108.996C1294.2 106.071 1291.83 103.699 1288.91 103.688V80.7797C1288.91 80.0469 1288.31 79.4528 1287.58 79.4528H1286.71Z" fill="#89B9FF"/>
<path fill-rule="evenodd" clip-rule="evenodd" d="M1318.44 157.006C1317.7 157.006 1317.11 157.6 1317.11 158.333V160.237C1314.19 160.248 1311.82 162.62 1311.82 165.545V187.244C1311.82 190.168 1314.19 192.54 1317.11 192.551V207.381C1317.11 208.114 1317.7 208.708 1318.44 208.708H1319.31C1320.04 208.708 1320.63 208.114 1320.63 207.381V192.551C1323.56 192.54 1325.92 190.168 1325.92 187.244V165.545C1325.92 162.62 1323.56 160.248 1320.63 160.237V158.333C1320.63 157.6 1320.04 157.006 1319.31 157.006H1318.44Z" fill="#F0FF9D"/>
<path fill-rule="evenodd" clip-rule="evenodd" d="M1352.38 166.7C1349.45 166.7 1347.07 169.076 1347.07 172.007V187.244C1347.07 190.168 1349.44 192.54 1352.36 192.551V197.687C1352.36 198.42 1352.96 199.014 1353.69 199.014H1354.56C1355.29 199.014 1355.89 198.42 1355.89 197.687V192.551C1358.81 192.54 1361.17 190.168 1361.17 187.244V172.007C1361.17 169.076 1358.8 166.7 1355.87 166.7H1352.38Z" fill="#F0FF9D"/>
<path fill-rule="evenodd" clip-rule="evenodd" d="M1388.94 81.0685C1388.21 81.0685 1387.61 81.6626 1387.61 82.3954V87.5313C1384.69 87.5419 1382.33 89.914 1382.33 92.8387V146.851C1382.33 149.776 1384.69 152.148 1387.61 152.159V157.295C1387.61 158.027 1388.21 158.621 1388.94 158.621H1389.81C1390.54 158.621 1391.14 158.027 1391.14 157.295V152.159C1394.06 152.148 1396.43 149.776 1396.43 146.851V92.8387C1396.43 89.914 1394.06 87.5418 1391.14 87.5313V82.3954C1391.14 81.6626 1390.54 81.0685 1389.81 81.0685H1388.94Z" fill="#F0FF9D"/>
<path d="M932.861 190.935H1424.63" stroke="#FEFEFE" stroke-width="1.32685" stroke-linecap="round" stroke-linejoin="round" stroke-dasharray="10.61"/>
<g filter="url(#filter0_d_333_360)">
<rect x="1089.73" y="174.778" width="112.807" height="32.3137" rx="13.2685" fill="#FEFEFE"/>
</g>
<path d="M1121.25 202.574H1119.02V201.078C1116.49 200.807 1115.09 199.565 1115.09 197.384V197.288H1117.48V197.575C1117.48 198.562 1117.97 198.96 1120.13 198.96C1122.05 198.96 1122.49 198.673 1122.49 197.957C1122.49 197.304 1122.13 197.065 1121.03 196.874L1118.03 196.444C1116.12 196.142 1114.99 195.186 1114.99 193.451C1114.99 191.986 1116.09 190.442 1119.02 190.187V188.722H1121.25V190.251C1123.59 190.633 1124.69 192.002 1124.69 193.913V194.008H1122.28V193.785C1122.28 192.766 1121.76 192.336 1119.64 192.336C1117.92 192.336 1117.4 192.671 1117.4 193.355C1117.4 193.976 1117.75 194.199 1118.64 194.358L1121.63 194.836C1124.02 195.218 1124.88 196.381 1124.88 197.845C1124.88 199.374 1123.83 200.775 1121.25 201.078V202.574ZM1135.19 200.982H1125.71V199.454C1125.71 197.575 1126.53 196.603 1128.77 195.855L1131.51 194.963C1132.47 194.629 1132.82 194.311 1132.82 193.61C1132.82 192.798 1132.37 192.336 1130.62 192.336C1128.66 192.336 1128.07 192.925 1128.07 194.104V194.311H1125.73V194.104C1125.73 192.034 1127.15 190.155 1130.7 190.155C1133.91 190.155 1135.22 191.62 1135.22 193.642C1135.22 195.537 1133.98 196.476 1132.08 197.002L1129.76 197.638C1128.72 197.957 1128.23 198.259 1128.23 199.103L1131.02 198.833H1135.19V200.982ZM1145.12 200.982H1142.73V198.944H1135.97V197.32L1142.35 190.314H1145.12V196.795H1146.75V198.944H1145.12V200.982ZM1139.29 196.795H1142.73V193.069H1142.56L1139.29 196.619V196.795ZM1156.5 200.982H1154.11V198.944H1147.34V197.32L1153.73 190.314H1156.5V196.795H1158.12V198.944H1156.5V200.982ZM1150.67 196.795H1154.11V193.069H1153.93L1150.67 196.619V196.795ZM1162.03 200.982H1158.95V198.196H1162.03V200.982ZM1172.48 200.982H1163V199.454C1163 197.575 1163.81 196.603 1166.06 195.855L1168.8 194.963C1169.75 194.629 1170.1 194.311 1170.1 193.61C1170.1 192.798 1169.66 192.336 1167.91 192.336C1165.95 192.336 1165.36 192.925 1165.36 194.104V194.311H1163.02V194.104C1163.02 192.034 1164.44 190.155 1167.99 190.155C1171.2 190.155 1172.51 191.62 1172.51 193.642C1172.51 195.537 1171.27 196.476 1169.37 197.002L1167.05 197.638C1166.01 197.957 1165.52 198.259 1165.52 199.103L1168.3 198.833H1172.48V200.982ZM1178.3 200.982H1175.91V193.276H1173.18V191.636H1173.62C1174.8 191.636 1175.6 191.365 1176.12 190.314H1178.3V200.982Z" fill="black"/>
<defs>
<filter id="filter0_d_333_360" x="1057.89" y="153.549" width="176.495" height="96.0025" filterUnits="userSpaceOnUse" color-interpolation-filters="sRGB">
<feFlood flood-opacity="0" result="BackgroundImageFix"/>
<feColorMatrix in="SourceAlpha" type="matrix" values="0 0 0 0 0 0 0 0 0 0 0 0 0 0 0 0 0 0 127 0" result="hardAlpha"/>
<feOffset dy="10.6148"/>
<feGaussianBlur stdDeviation="15.9222"/>
<feColorMatrix type="matrix" values="0 0 0 0 0.556863 0 0 0 0 0.898039 0 0 0 0 0.796078 0 0 0 0.4 0"/>
<feBlend mode="normal" in2="BackgroundImageFix" result="effect1_dropShadow_333_360"/>
<feBlend mode="normal" in="SourceGraphic" in2="effect1_dropShadow_333_360" result="shape"/>
</filter>
<linearGradient id="paint0_linear_333_360" x1="760" y1="0" x2="760" y2="520" gradientUnits="userSpaceOnUse">
<stop/>
<stop offset="1" stop-color="#111111" stop-opacity="0.5"/>
</linearGradient>
</defs>
</svg>
