<svg width="150" height="45" viewBox="0 0 150 45" fill="none" xmlns="http://www.w3.org/2000/svg">
<path d="M50.7605 2.26274C49.5481 1.83205 46.1797 0.784244 45.1422 0C45.2708 0.908952 46.145 1.22394 46.343 1.82947C46.5526 2.48258 46.343 3.40311 46.4587 4.09221C47.1812 3.26426 48.9066 3.42753 49.6291 2.60086L50.7605 2.26274Z" fill="#C1CED5"/>
<path d="M49.6869 3.30111C48.2282 2.78917 44.123 1.5919 42.8748 0.656097C43.0124 1.75704 44.0859 2.12861 44.3226 2.8511C44.5703 3.63552 43.6345 4.74748 43.7721 5.58282C44.6322 4.58509 47.4025 4.78463 48.2626 3.7869L49.6869 3.30111ZM1.8716 21.4625C0.174775 20.9754 0 18.9441 0 17.7056C0 16.134 0.18716 14.9367 1.61013 13.8633C0.363311 15.3358 2.08353 18.0799 4.24276 18.5423M16.243 8.35306C18.3266 7.3801 21.6321 5.54566 23.8533 6.43192C27.2942 7.76341 30.8358 8.81861 34.4444 9.58749C33.5457 11.1591 28.8296 11.2348 27.1713 10.9086C25.9602 10.6719 23.0923 9.8352 22.2445 9.92328C18.6142 9.90952 17.9784 8.91317 16.2444 8.35168L16.243 8.35306Z" fill="#126284"/>
<path d="M16.2415 8.35305L19.2361 7.71725L13.9846 11.0724C15.5066 11.2595 18.5508 9.82556 18.8494 11.521C19.5099 15.289 17.6273 20.4799 14.1704 22.4616C12.4859 21.8258 14.4952 20.5281 15.23 19.1065C16.0034 17.6202 16.4411 15.9757 16.5649 14.2899C16.6169 13.5714 16.6127 12.8499 16.5525 12.132C15.2424 12.1458 13.9323 12.2449 12.6359 12.4568C10.9763 12.732 9.30559 13.1559 7.77115 13.866C10.2896 11.5953 13.1603 9.76226 16.2291 8.33929L16.2415 8.35305Z" fill="#126284"/>
<path d="M20.3329 22.5745C18.1379 23.8846 16.4411 24.2218 14.3328 22.3873C16.8512 19.7423 18.8232 16.3115 18.1627 12.5449C17.8627 10.8481 14.7442 11.5348 13.2084 11.3476C14.7305 10.3747 17.9975 7.63195 19.832 7.7558C21.2797 7.85626 21.9155 7.87966 23.0522 8.50444C26.2725 10.2756 29.1404 10.7118 32.7323 9.68795C31.7965 11.883 31.9478 13.8165 33.0185 15.9496C33.5415 16.9721 34.8653 17.7083 35.6511 18.5313C36.7865 19.7423 36.9489 21.3112 37.8461 22.6983C38.2948 23.3864 38.8439 24.5699 39.5554 25.0062C40.5902 25.6296 39.6297 26.6659 39.2182 27.7379C38.42 29.8338 37.2475 31.8664 35.7255 33.5261C32.3566 37.1936 28.29 39.2895 23.0261 40.974C21.7407 41.3868 20.6563 42.708 19.1095 43.5695C17.575 44.4172 14.2447 44.9043 13.4713 42.9089C17.6507 43.0603 19.8567 40.9877 23.377 39.4161C26.3454 38.095 28.7303 35.9853 30.4643 33.2165C31.6368 31.3449 33.7204 28.0764 32.9965 25.8443L31.1497 20.1304C30.7368 22.0392 30.2896 23.9355 29.7405 25.8195C27.5193 21.8286 24.2908 20.3423 20.3219 22.5759L20.3329 22.5745Z" fill="#126284"/>
<path d="M17.9311 22.5393C19.1843 22.3247 20.9377 21.1913 22.108 20.6898C24.1957 19.8184 26.1532 21.1558 27.742 22.6828C29.9009 24.6521 30.5696 20.9162 31.2962 23.2317C32.0834 25.6775 33.2181 28.5538 31.1883 30.1532C26.7732 33.6613 25.8175 28.5657 18.0641 24.5323C16.3462 23.6372 16.3225 24.0057 12.8618 22.6104C13.566 21.9522 13.9017 21.5836 14.735 22.2523C15.6538 22.9684 15.9881 22.871 17.1439 22.6933C17.2992 22.6578 17.9206 22.538 17.9206 22.538L17.9311 22.5393Z" fill="#C1CED5"/>
<path d="M12.8921 39.4645C13.4777 38.2969 15.0786 39.146 15.3234 40.0806C14.5797 39.6554 13.7951 39.7936 13.0092 40.2609C12.8804 40.0056 12.8394 39.7409 12.8921 39.4645Z" fill="#EFEFEF"/>
<path d="M15.7893 40.6758C16.6592 40.9918 18.5145 40.2471 19.5111 39.3884C19.8897 39.0599 19.8006 38.7342 20.5327 39.2868C21.4931 39.9938 22.9824 38.4544 23.8634 37.5191C28.2032 32.9009 29.5784 25.9625 31.257 19.9441C31.9112 21.9901 33.303 24.1197 33.9572 26.1768C34.8146 28.852 30.9285 33.5815 29.2527 35.4745C28.0668 36.7995 26.6541 37.9102 25.1147 38.7801C23.2468 39.8379 21.3678 40.9626 19.4874 41.909C17.4553 42.9306 15.2353 43.4234 13.103 42.9557C11.7529 40.7607 14.1496 39.7266 15.7893 40.673V40.6758Z" fill="#126284"/>
<path d="M15.9525 39.854C15.6971 39.7695 15.6709 39.7348 15.6295 39.5048C15.8595 39.4278 18.5567 38.059 18.583 38.6279C18.736 39.2832 16.2942 39.8531 15.9544 39.8531L15.9525 39.854Z" fill="#EFEFEF"/>
<path d="M19.3261 38.5677C19.3263 38.5678 19.3266 38.5679 19.3261 38.5677V38.5677Z" fill="#CCCCCC"/>
<path d="M21.5885 40.8146C21.0849 41.3337 20.5389 41.8099 19.9562 42.2384C22.0907 39.5152 25.3918 39.2202 28.4466 37.6258C31.8303 35.8595 34.9488 33.4056 36.9979 30.1166C37.8696 28.7185 38.5192 27.1972 38.9605 25.6136C39.2312 24.6445 36.4565 22.2881 35.8691 20.8764C34.9731 18.765 32.9727 17.4291 32.1511 15.1958C31.4026 13.1832 31.2916 10.5331 32.7399 9.06183C32.3609 12.5092 33.353 15.7981 35.9882 18.0923C36.4674 18.5092 37.7667 18.9044 37.3377 19.554C36.8842 20.2538 38.2093 21.5031 38.6262 22.081C39.9526 23.9082 41.0083 24.4361 40.5035 26.6828C38.4543 35.8865 30.2955 40.0201 21.5723 40.8173L21.5885 40.8146ZM38.1511 9.61405C39.3422 8.65714 42.2738 4.04446 43.5867 4.04446C42.4823 5.92175 36.7895 13.8599 42.8017 12.2276L40.2003 15.5031C39.2312 14.3012 36.1398 10.9635 38.1511 9.77376V9.61405Z" fill="#126284"/>
<path d="M38.2955 8.35901C38.8874 9.03628 38.7914 9.77221 37.9569 10.1588C37.9569 9.94153 38.0169 9.66289 38.0169 9.44557C37.9929 10.1588 38.1008 10.8854 38.2835 11.572C38.7181 13.3612 41.5339 16.3343 40.4473 17.8328C39.1541 19.622 38.1408 19.7926 36.109 18.0621C34.7198 16.8782 33.6799 15.2944 33.1493 13.5559C32.6907 12.0227 31.6748 8.78297 33.7413 8.66298L38.3102 8.36034L38.2955 8.35901Z" fill="#CBDB2F"/>
<path d="M40.2757 15.4723L44.3711 10.4734C41.4915 14.4119 40.1428 19.8082 43.5153 23.881C44.1903 24.6995 44.985 25.4091 45.8407 26.0376C47.467 25.6365 49.13 25.4023 50.8038 25.3387C54.2002 25.2191 57.5727 25.8702 60.73 27.0847C58.7062 29.7689 56.418 26.8562 53.7192 26.3619C50.8649 25.8303 47.9495 26.4456 45.3238 27.5791C43.6854 28.29 43.324 27.2296 42.1799 26.0243C41.2165 25.0145 40.289 23.9514 39.4332 22.8445C38.9017 22.1695 36.7357 19.9903 37.2168 19.2568C38.0964 17.92 39.3243 16.7985 40.2757 15.4869V15.4723Z" fill="#126284"/>
<path d="M47.9982 3.42452L47.7178 3.02015C47.7178 2.8611 50.7236 2.42169 51.0417 2.34621C51.2008 2.30981 51.7386 4.25212 51.934 4.61875C52.6916 6.07447 53.5219 7.05034 55.1353 7.51402C53.0595 7.88064 53.8763 8.28232 51.9462 6.07178C51.531 5.59462 50.6872 4.38691 50.2613 4.3977C49.5766 4.43409 48.6735 3.38408 48.0009 3.40835L47.9982 3.42452Z" fill="#C1CED5"/>
<path d="M61.3681 21.4305C60.7338 21.3222 60.0862 21.3222 59.4519 21.4543C59.8589 20.1725 59.8114 18.8907 59.3198 17.5851C60.673 18.4837 61.3681 19.7655 61.3681 21.4173V21.4305ZM55.0303 18.3912C56.2883 19.1933 57.2345 20.5108 57.8688 22.2723L57.0786 22.6912C56.587 23.1101 56.1562 23.5541 55.773 24.0325C55.7967 22.1032 55.5695 20.2121 55.0303 18.3912ZM57.6072 18.1744C58.038 16.5451 58.0987 14.8708 57.8107 13.0947C58.7093 13.5493 59.6079 14.099 60.4695 14.7241C60.073 15.7059 59.333 17.1913 57.6058 18.1599L57.6072 18.1744ZM56.9729 12.8793C57.0442 12.6414 55.321 16.183 54.6973 16.8199L53.7511 17.634C53.825 15.7217 53.5984 13.8096 53.0798 11.9675C54.4041 12.1434 55.7079 12.4497 56.9729 12.8793ZM49.5806 12.0534L49.4722 11.8975L51.3645 11.9212C51.3883 13.0709 51.1848 14.1968 50.7778 15.2989C50.5135 14.1968 50.1171 13.1198 49.5806 12.0534ZM53.2807 20.413C53.0058 22.1137 53.6163 23.7669 54.766 25.0382C51.3275 27.134 52.1548 22.0675 53.2807 20.413Z" fill="#EFEFEF"/>
<path d="M40.2958 24.1619C40.3327 23.9263 41.041 25.0181 41.3012 25.329C42.7423 27.018 45.2505 28.3591 43.5861 30.2221C36.8684 37.7699 36.4835 35.748 34.7698 36.4055C36.1356 34.307 40.3588 28.6701 40.767 26.2112C40.804 26.1496 40.2958 24.1619 40.2958 24.1619Z" fill="#C1CED5"/>
<path d="M47.4773 3.07388C47.5273 3.03818 47.5846 3.01384 47.645 3.00255L47.8484 2.88367L50.0755 3.32617C51.045 5.52943 52.3025 6.88203 53.8836 7.40775L54.8532 7.44341C55.1174 7.52663 55.223 8.25709 55.2719 8.41295C55.4172 8.96377 55.3908 9.86198 55.2957 10.0773L52.9009 9.60969C52.3144 9.33494 52.8652 9.0351 52.3025 8.69827C50.5669 7.64419 52.5667 10.7813 51.3805 9.31909C51.3568 9.31909 51.9089 9.67837 53.0449 9.84745L51.7504 9.65592L52.0383 9.6797C52.2061 10.0033 56.577 10.4102 51.7742 9.87123C51.1031 9.7999 53.1875 9.895 54.0012 9.66781L55.3062 9.20021L56.6958 8.52919L56.3603 9.58327C56.1807 10.0377 56.0486 10.4339 56.0248 10.7087L55.1266 10.8883C54.696 10.9596 54.3129 10.9966 54.025 10.9121L53.3909 10.6849C52.852 10.4815 51.9776 10.529 50.8046 10.8645C49.9909 11.0917 49.0571 11.1525 48.361 10.924C47.6648 10.6955 47.476 10.3375 47.3914 9.9201L47.4627 9.42872C47.4865 9.29663 47.4865 9.20153 47.4865 9.11699L46.7917 8.195C46.4562 7.72741 46.0018 7.45266 45.4629 7.38133C44.5885 7.24924 44.0495 7.11715 43.8223 7.04582C43.714 6.99827 43.6189 6.93751 43.5344 6.88996C43.6057 6.19516 44.253 5.38149 45.4867 4.43572" fill="#126284"/>
<path d="M42.91 12.1695C39.3212 13.1425 39.8809 10.4919 41.1827 8.28815C41.6323 7.53389 43.0804 2.33862 45.4533 4.46853C41.9504 7.68018 46.4504 6.77963 47.7523 8.58073C48.1053 9.06792 47.9107 10.1751 47.3765 10.0409C47.7174 11.9024 50.8686 10.9173 51.9396 10.759C53.9353 10.4543 56.1002 11.1616 58.1938 10.8569C60.4325 10.5523 61.3451 8.98336 62.8644 11.1254C63.326 12.901 63.3636 14.8 63.2777 16.6119C59.7976 13.9236 55.8317 12.3534 51.4645 11.9762C50.8338 11.9159 49.4205 11.6233 48.8367 11.9521C47.1094 13.7532 46.2196 16.3434 47.1819 18.6089C48.2771 21.1992 51.6243 26.8937 54.9553 24.4001C56.1847 23.474 56.8168 22.1494 58.3616 21.5776C60.2714 20.8717 62.4255 21.3468 64.1165 22.3561C63.5448 22.6728 62.5463 22.6728 62.3892 23.317C61.8792 25.4952 61.5974 26.3944 60.9908 27.1487C57.0007 25.6053 53.1435 25.0201 49.093 26.4777C45.7713 27.6936 43.5945 26.8534 42.6456 24.4336C42.1463 23.2968 41.8223 22.0909 41.6846 20.8569C41.0404 16.5756 42.3664 13.2164 44.4709 10.3456C43.934 10.9415 43.5099 11.6233 42.9274 12.1574L42.91 12.1695Z" fill="#C1CED5"/>
<path d="M59.8187 8.91823C60.5296 9.09882 62.0369 9.98756 62.6541 10.3615C61.0188 11.2901 57.3174 11.4707 56.2353 11.0967C56.5965 7.29434 58.3754 8.80163 59.7163 9.07323C60.7856 9.29221 59.8201 8.91681 59.8201 8.91681L59.8187 8.91823Z" fill="#126284"/>
<path d="M61.2505 9.71759L57.3116 8.43793C58.3753 7.83867 59.881 6.03841 60.8423 7.06838C61.816 8.12082 62.4153 9.45666 62.7649 10.8487C62.3229 10.3493 62.2655 10.1371 61.4977 9.81871C61.3391 9.76253 61.248 9.70635 61.248 9.70635L61.2505 9.71759Z" fill="#003146"/>
<path d="M47.4488 19.1901C53.4708 16.6674 58.1172 31.5436 50.0609 31.1716C47.3835 31.0439 44.4109 25.8055 48.1161 25.8055C50.9468 25.8055 52.1194 23.2317 49.2489 22.6256L47.4488 19.1901Z" fill="#F26A36"/>
<path d="M49.1028 22.6701C49.5172 21.4358 50.2572 21.0199 51.4234 20.4161C51.0741 22.1477 50.8995 24.3736 50.8062 24.5083C49.9079 23.8512 49.7199 23.7431 49.1042 22.6035C49.051 22.4955 49.1042 22.6701 49.1042 22.6701H49.1028Z" fill="#EFEFEF"/>
<path d="M54.2468 9.34115C54.2468 10.4708 53.657 11.3873 52.9288 11.3873C52.2006 11.3873 51.6109 10.4708 51.6109 9.34115C51.6109 8.2115 52.2006 7.29504 52.9288 7.29504C53.657 7.29504 54.2468 8.2115 54.2468 9.34115Z" fill="white"/>
<path d="M54.5431 9.59762C54.5431 10.3487 54.1839 10.9617 53.7454 10.9617C53.3068 10.9617 52.9476 10.3504 52.9476 9.59762C52.9476 8.84479 53.3068 8.23355 53.7454 8.23355C54.1995 8.23355 54.5431 8.84479 54.5431 9.59762Z" fill="#003146"/>
<path d="M51.2752 6.94132C52.0366 7.92763 53.1465 8.72112 54.0438 9.5863C54.3355 7.42335 53.0464 6.573 51.2752 6.94132Z" fill="#C1CED5"/>
<path d="M16.949 11.7467C18.3078 13.5253 16.9626 16.5168 15.886 18.9863C14.2546 22.7547 9.72166 24.7922 7.84498 24.7922C10.5135 21.2841 15.886 18.1086 14.2941 13.5757C10.538 12.7103 7.05451 17.2323 4.91751 16.405C9.85931 11.624 13.7381 10.1903 16.3453 11.3147L16.949 11.7467Z" fill="#126284"/>
<path d="M11.4618 17.7638L12.4131 14.9099C7.35958 17.4176 4.18543 22.0651 2.9493 27.4866C1.55371 27.0668 0.749611 26.0665 0.50293 24.1135C2.12203 24.8181 1.42969 25.0402 1.71317 23.2985C1.99665 21.5444 2.20789 20.0862 3.49173 17.9369C6.11118 13.562 13.5975 12.0929 14.5856 13.821C16.5249 16.2674 14.4738 21.246 11.1879 22.9877C8.59299 24.3588 8.32177 24.1734 6.92618 25.1874C5.89039 25.9533 4.09684 27.5343 3.55306 28.7214C1.94758 26.4235 9.55927 19.2085 11.4618 17.7638Z" fill="#126284"/>
<path d="M6.3514 22.8787C5.15206 24.4842 4.2253 26.0678 3.48526 27.9568C2.94011 29.3156 3.95409 26.4849 2.94011 27.488C2.42221 24.7827 3.05186 25.3264 4.34796 22.6825C6.20148 18.9141 9.30203 15.8381 13.0568 13.96C12.7733 14.9958 12.7842 16.6899 12.1791 17.6044" fill="#126284"/>
<path d="M1.49381 19.7768C3.13744 16.1447 5.53338 14.1549 9.31401 13.1178C6.64549 14.6251 4.9528 16.3887 3.2969 18.9986C1.81408 21.3209 4.24819 26.9033 0.502994 24.1012C0.824633 26.4236 1.56604 26.8065 2.96163 27.2263C3.91564 28.0413 2.61546 28.0781 1.91221 27.09C0.121388 24.6436 -0.472828 20.9502 1.57831 19.8749C1.03315 21.0238 1.71459 19.3679 1.44202 20.6041C1.68734 19.3693 1.03315 21.0129 1.57831 19.8749C2.71495 17.3672 1.49244 19.7632 1.49244 19.7632L1.49381 19.7768ZM9.63565 23.6447C10.6237 23.5329 12.6013 23.7182 13.2064 24.6695C13.479 25.0893 13.1451 27.6093 12.5141 27.6093C12.2415 23.2113 6.52283 26.519 3.89111 28.0536C4.9269 26.7452 6.55963 23.6556 9.63565 23.6433V23.6447Z" fill="#126284"/>
<path d="M4.075 29.0798C4.8791 26.5966 6.24879 25.5458 8.73196 24.8549C11.0666 24.2007 12.364 25.1642 12.5003 27.597C9.07949 27.3871 5.98984 29.1779 3.54347 31.413L2.93835 27.2126C3.07464 27.2985 3.38265 27.1513 3.51894 27.2372C3.84058 26.5448 4.53156 27.2126 5.21164 26.8665C4.76734 27.5479 4.32168 28.2866 4.075 29.0662V29.0798Z" fill="#126284"/>
<path d="M3.59035 31.495C3.05785 31.3213 4.875 29.5029 5.44199 29.2373C6.98204 28.4966 10.5704 27.1303 12.0517 27.6155C11.2063 29.305 5.50073 32.214 3.59035 31.495Z" fill="#C1CED5"/>
<path d="M38.6389 11.9355C36.6848 12.4954 36.6848 13.7622 37.6493 15.3622C36.3671 14.08 35.0877 14.08 33.8041 15.3622C34.4508 14.08 34.7699 12.4689 32.8383 11.8348C34.4368 12.1525 35.7316 11.8348 35.7316 9.90588C36.0493 10.5526 36.0493 11.1881 36.4035 11.9215L38.6389 11.9355Z" fill="#FFFF00"/>
<path d="M137.593 32.4222C134.833 31.4045 134.211 28.7495 136.396 27.3336C136.896 27.0044 137.192 26.6931 137.048 26.6452C136.674 26.5195 136.15 25.3581 136.15 24.6996C136.15 24.3853 136.45 23.7926 136.809 23.3825L137.467 22.6342L136.818 21.9847C135.98 21.1466 135.62 20.0331 135.755 18.6622C135.809 17.98 136.042 17.3242 136.43 16.7609C136.819 16.1975 137.349 15.7465 137.967 15.4534C138.919 14.9804 139.284 14.9445 143.439 14.9445C147.593 14.9445 147.935 14.9146 148.533 14.4746C148.887 14.2172 149.276 13.7861 149.401 13.5167C149.701 12.7984 150 12.9181 150 13.8041C150 14.8428 149.647 15.7198 148.922 16.4801C148.405 17.0189 148.156 17.1027 146.989 17.1027C145.8 17.1027 145.666 17.1476 145.809 17.4978C146.288 18.6711 146.378 19.4075 146.154 20.2576C145.621 22.2391 144.109 23.173 141.056 23.4125C139.425 23.5412 139.239 23.6011 139.176 24.0411C139.087 24.6397 139.326 24.7175 141.849 24.9091C144.418 25.1067 145.351 25.3701 146.22 26.1453C146.917 26.7679 146.947 26.8637 146.947 28.495C146.947 30.0755 146.899 30.2461 146.267 30.9106C144.98 32.2636 144.073 32.5659 141.059 32.6407C139.458 32.6796 138.066 32.6048 137.665 32.4611L137.593 32.4222ZM142.292 30.4047C143.4 30.0964 143.984 29.2583 143.627 28.4801C143.328 27.7557 142.622 27.5103 140.778 27.4534C139.479 27.4115 139.209 27.4743 138.683 27.9443C138.263 28.3334 138.129 28.6716 138.174 29.1715C138.293 30.3987 140.218 30.9794 142.262 30.4107L142.292 30.4047ZM142.008 21.0209C142.439 20.7993 142.741 20.4072 142.885 19.8894C143.538 17.5307 141.149 15.8425 139.503 17.4948C138.985 18.0126 138.844 18.3628 138.844 19.0962C138.844 19.8295 138.988 20.1798 139.503 20.6976C140.245 21.4399 141.005 21.5357 142.008 21.0209Z" fill="#073D53" fill-opacity="0.996"/>
<path d="M78.9697 22.9365C78.9697 22.4456 78.7851 22.0465 78.4159 21.7392C78.0627 21.4319 77.6097 21.1555 77.057 20.9101C76.5182 20.6507 75.9275 20.3893 75.285 20.1258C74.6564 19.8505 74.0657 19.5212 73.513 19.1381C72.9742 18.739 72.5212 18.2481 72.154 17.6654C71.8008 17.0827 71.6242 16.3384 71.6242 15.4324C71.6242 14.6502 71.7539 13.9747 72.0133 13.406C72.2727 12.8233 72.6419 12.3394 73.1208 11.9542C73.6117 11.5711 74.1874 11.2867 74.848 11.1012C75.5065 10.9176 76.2428 10.8258 77.057 10.8258C77.9949 10.8258 78.8779 10.9106 79.706 11.0802C80.5342 11.2339 81.2176 11.4633 81.7564 11.7686L80.7686 14.4177C80.4294 14.2022 79.9225 14.0106 79.2481 13.843C78.5736 13.6594 77.8452 13.5676 77.063 13.5676C76.3246 13.5676 75.7559 13.7133 75.3568 14.0046C74.9737 14.296 74.7821 14.6871 74.7821 15.178C74.7821 15.6369 74.9587 16.0211 75.3119 16.3304C75.6811 16.6377 76.1341 16.9221 76.6709 17.1835C77.2236 17.4429 77.8143 17.7123 78.4429 17.9917C79.0874 18.267 79.6781 18.6043 80.2149 19.0034C80.7676 19.3865 81.2206 19.8704 81.5738 20.4551C81.943 21.0238 82.1276 21.7372 82.1276 22.5953C82.1276 23.4534 81.9819 24.1977 81.6906 24.8283C81.4152 25.4429 81.0161 25.9567 80.4933 26.3698C79.9864 26.7849 79.3648 27.0922 78.6285 27.2917C77.9101 27.4913 77.1119 27.591 76.2338 27.591C75.0824 27.591 74.0697 27.4833 73.1957 27.2678C72.3216 27.0523 71.6771 26.8377 71.262 26.6242L72.2738 23.9303C72.4434 24.0221 72.6579 24.1219 72.9173 24.2296C73.1927 24.3374 73.5 24.4371 73.8392 24.5289C74.1785 24.6207 74.5317 24.6976 74.8988 24.7594C75.282 24.8193 75.6731 24.8492 76.0722 24.8492C77.0101 24.8492 77.7235 24.6956 78.2124 24.3883C78.7193 24.065 78.9697 23.5811 78.9697 22.9365ZM82.9358 15.7527H84.5222V13.5886L87.5155 12.7355V15.7527H90.3231V18.285H87.5155V22.706C87.5155 23.5042 87.5923 24.0799 87.7459 24.4331C87.9156 24.7724 88.2229 24.942 88.6679 24.942C88.9752 24.942 89.2366 24.9121 89.4521 24.8522C89.6816 24.7924 89.935 24.7005 90.2124 24.5768L90.7422 26.8816C90.3271 27.0812 89.8432 27.2508 89.2905 27.3905C88.7377 27.5302 88.179 27.6 87.6142 27.6C86.5566 27.6 85.7734 27.3306 85.2645 26.7918C84.7736 26.2391 84.5282 25.3411 84.5282 24.0979V18.297H82.9417L82.9358 15.7527ZM92.1131 16.4202C92.7277 16.1448 93.4561 15.9303 94.2982 15.7766C95.1423 15.607 96.0253 15.5222 96.9472 15.5222C97.7454 15.5222 98.4139 15.622 98.9527 15.8215C99.4915 16.0051 99.9136 16.2745 100.219 16.6297C100.542 16.9829 100.765 17.405 100.886 17.8959C101.026 18.3868 101.096 18.9395 101.096 19.5541C101.096 20.2286 101.073 20.9121 101.027 21.6045C100.981 22.279 100.951 22.9475 100.937 23.61C100.937 24.2685 100.96 24.9131 101.006 25.5437C101.052 26.1583 101.167 26.742 101.35 27.2947H98.9108L98.4259 25.7083H98.3122C98.0049 26.1832 97.5758 26.5973 97.0251 26.9505C96.4863 27.2897 95.7878 27.4593 94.9298 27.4593C94.391 27.4593 93.9071 27.3825 93.478 27.2289C93.049 27.0592 92.6798 26.8298 92.3705 26.5404C92.0632 26.2331 91.8258 25.8799 91.6581 25.4808C91.4885 25.0657 91.4037 24.6068 91.4037 24.1039C91.4037 23.3975 91.5574 22.8068 91.8647 22.3319C92.1879 21.841 92.6409 21.4499 93.2236 21.1585C93.8223 20.8512 94.5287 20.6437 95.3428 20.5359C96.171 20.4122 97.0919 20.3743 98.1056 20.4222C98.2134 19.5641 98.1515 18.9505 97.92 18.5813C97.6906 18.1982 97.1767 18.0066 96.3785 18.0066C95.7799 18.0066 95.1433 18.0685 94.4688 18.1922C93.8103 18.3159 93.2655 18.4776 92.8345 18.6771L92.1131 16.4202ZM95.9146 24.9809C96.5132 24.9809 96.9891 24.8512 97.3423 24.5918C97.6956 24.3164 97.957 24.0251 98.1266 23.7178V22.2211C97.6517 22.1752 97.1927 22.1673 96.7497 22.1972C96.3206 22.2271 95.9365 22.297 95.5973 22.4067C95.258 22.5145 94.9886 22.6681 94.7891 22.8677C94.5895 23.0672 94.4898 23.3207 94.4898 23.628C94.4898 24.057 94.6125 24.3942 94.8579 24.6397C95.1173 24.8692 95.4706 24.9839 95.9175 24.9839L95.9146 24.9809ZM109.959 18.5634C109.484 18.3937 109.055 18.3089 108.672 18.3089C108.133 18.3089 107.68 18.4546 107.313 18.746C106.96 19.0213 106.722 19.3805 106.601 19.8235V27.2588H103.607V15.7467H105.933L106.277 17.2673H106.367C106.626 16.6986 106.98 16.2615 107.427 15.9562C107.872 15.6489 108.393 15.4953 108.992 15.4953C109.391 15.4953 109.844 15.5801 110.351 15.7497L109.959 18.5634ZM121.483 23.2149C121.483 23.8594 121.491 24.504 121.507 25.1485C121.523 25.7931 121.593 26.5065 121.717 27.2887H119.576L119.163 25.7921H119.073C118.766 26.3309 118.321 26.7679 117.738 27.1031C117.17 27.4264 116.494 27.5881 115.712 27.5881C114.269 27.5881 113.149 27.1121 112.351 26.1603C111.552 25.2084 111.153 23.7198 111.153 21.6943C111.153 19.7307 111.598 18.2042 112.488 17.1146C113.378 16.0251 114.683 15.4803 116.403 15.4803C116.878 15.4803 117.27 15.5102 117.577 15.5701C117.884 15.616 118.191 15.7008 118.499 15.8245V11.155H121.492L121.483 23.2149ZM116.394 25.0557C116.977 25.0557 117.436 24.9181 117.771 24.6427C118.111 24.3513 118.348 23.9373 118.484 23.4005V18.5215C118.268 18.3518 118.031 18.2291 117.771 18.1533C117.512 18.0615 117.175 18.0156 116.76 18.0156C115.916 18.0156 115.279 18.3 114.85 18.8687C114.435 19.4374 114.227 20.4122 114.227 21.7931C114.227 22.7749 114.397 23.5651 114.736 24.1638C115.089 24.7624 115.642 25.0617 116.394 25.0617V25.0557ZM123.554 21.5087C123.554 19.5591 124.03 18.0625 124.982 17.0188C125.934 15.9612 127.269 15.4324 128.987 15.4324C129.905 15.4324 130.703 15.5781 131.382 15.8694C132.056 16.1608 132.615 16.5748 133.058 17.1116C133.503 17.6344 133.832 18.271 134.046 19.0213C134.275 19.7736 134.39 20.6018 134.39 21.5057C134.39 23.4554 133.914 24.959 132.962 26.0166C132.024 27.0602 130.697 27.5821 128.981 27.5821C128.063 27.5821 127.265 27.4364 126.587 27.1451C125.912 26.8537 125.343 26.4466 124.88 25.9238C124.435 25.385 124.098 24.7405 123.869 23.9901C123.653 23.2378 123.545 22.4097 123.545 21.5057L123.554 21.5087ZM126.637 21.5087C126.637 22.0156 126.683 22.4845 126.775 22.9156C126.867 23.3446 127.005 23.7208 127.188 24.044C127.372 24.3673 127.609 24.6207 127.901 24.8043C128.208 24.9739 128.567 25.0588 128.978 25.0588C129.76 25.0588 130.344 24.7744 130.729 24.2057C131.112 23.637 131.304 22.739 131.304 21.5117C131.304 20.4541 131.127 19.602 130.774 18.9555C130.421 18.297 129.822 17.9677 128.978 17.9677C128.24 17.9677 127.664 18.2441 127.251 18.7968C126.836 19.3496 126.628 20.2556 126.628 21.5147L126.637 21.5087Z" fill="#073D53" fill-opacity="0.996"/>
</svg>
