<svg width="120" height="120" viewBox="0 0 120 120" fill="none" xmlns="http://www.w3.org/2000/svg">
<path fill-rule="evenodd" clip-rule="evenodd" d="M107.862 72.4659L107.931 38.0987H113.424V64.8173H117.353L117.284 72.4659H107.862ZM98.6398 63.2086H100.916L99.8214 52.3701L98.6398 63.2086ZM91.8428 72.5251L96.7609 45.7766H103.107L107.609 72.5251H101.889L101.472 69.0681H98.0122L97.5596 72.5251H91.8428ZM81.8253 72.4628L81.6342 48.4082H91.4549V53.9177H86.9707V57.4986H91.0565V63.0088H86.9707V66.7827H91.4549L91.6473 72.4628H81.8253ZM72.3713 54.5191C75.4305 54.9524 76.2124 48.9074 72.3713 49.0805V54.5191ZM67.0684 70.3144L67.0342 44.4213H71.971C77.7078 44.4213 80.1407 46.8375 80.3667 51.1492C80.5236 53.6519 79.1154 57.0211 77.0815 57.0211L81.0453 70.3144H75.222L72.3707 57.2813L72.4062 70.3144H67.0684ZM57.9363 72.5164L58.0234 45.8931H55.1205V39.7217H66.6625V45.8931H63.6033L63.5168 72.5164H57.9363ZM40.8137 72.6483L40.8305 44.3529H45.9416L49.2617 58.9628L49.2791 54.9518L49.3837 34.9169H54.4942L54.5639 72.6483H49.6097L45.5239 58.4131L45.9242 65.1871V72.6483H40.8137ZM25.0302 57.1095C25.0302 46.8144 28.316 41.5993 32.1752 41.5993C37.5117 41.5993 39.789 48.7008 39.789 56.1583C39.789 67.2857 36.9551 72.1142 32.1752 72.1142C27.9332 72.1148 25.2562 65.1472 25.0302 57.1095ZM30.3667 57.1095C30.5927 67.643 34.4519 67.643 34.6779 57.1095C34.8347 46.5766 30.3667 46.2205 30.3667 57.1095ZM3.85609 72.728L6.08108 44.1344H12.8432L14.2863 61.7419L15.9205 37.8373H22.5257L24.803 72.728H19.0843L18.5974 58.0234L16.4067 72.728H12.0961L10.2011 57.8317L9.57545 72.728H3.85609Z" fill="black"/>
<path fill-rule="evenodd" clip-rule="evenodd" d="M106.653 71.4829L106.722 37.1157H112.216V63.8343H116.143L116.074 71.4829H106.653Z" fill="#33348E"/>
<path fill-rule="evenodd" clip-rule="evenodd" d="M97.4164 62.2518H99.6937L98.598 51.4138L97.4164 62.2518ZM90.6194 71.5682L95.5388 44.8204H101.883L106.385 71.5682H100.667L100.248 68.1112H96.7901L96.3375 71.5682H90.6194Z" fill="#D35B2B"/>
<path fill-rule="evenodd" clip-rule="evenodd" d="M80.63 71.4667L80.4377 47.4114H90.2596V52.9216H85.7741V56.5019H89.8599V62.0121H85.7741V65.7866H90.2596L90.4507 71.4667H80.63Z" fill="#33A457"/>
<path fill-rule="evenodd" clip-rule="evenodd" d="M71.1747 53.5354C74.2352 53.9687 75.0171 47.9238 71.1747 48.0975V53.5354ZM65.8731 69.3314L65.8376 43.4383H70.7757C76.5112 43.4383 78.9454 45.8544 79.1714 50.1662C79.3282 52.6689 77.92 56.0381 75.8862 56.0381L79.8487 69.3314H74.0254L71.1741 56.2977L71.2096 69.3314H65.8731Z" fill="#7D2B8B"/>
<path fill-rule="evenodd" clip-rule="evenodd" d="M56.7403 71.5333L56.8275 44.91H53.9246V38.7381H65.4672V44.91H62.408L62.3203 71.5333H56.7403Z" fill="#00ACEC"/>
<path fill-rule="evenodd" clip-rule="evenodd" d="M39.6041 71.6522L39.6215 43.3568H44.7326L48.0527 57.9667L48.0701 53.9544L48.1741 33.9202H53.2852L53.3549 71.6522H48.4007L44.3155 57.417L44.7152 64.1904V71.6522H39.6041Z" fill="#386F49"/>
<path fill-rule="evenodd" clip-rule="evenodd" d="M23.8343 56.1265C23.8343 45.8308 27.1195 40.6163 30.9793 40.6163C36.3158 40.6163 38.5931 47.7177 38.5931 55.1758C38.5931 66.3033 35.7592 71.1318 30.9793 71.1318C26.7372 71.1318 24.0603 64.1636 23.8343 56.1265ZM29.1708 56.1265C29.3968 66.6594 33.2559 66.6594 33.4819 56.1265C33.6388 45.5936 29.1708 45.2369 29.1708 56.1265Z" fill="#F2CA30"/>
<path fill-rule="evenodd" clip-rule="evenodd" d="M2.64708 71.7319L4.87207 43.1376H11.6342L13.0773 60.7452L14.7108 36.8412H21.3167L23.594 71.7319H17.8746L17.3884 57.0273L15.1983 71.7319H10.8865L8.9921 56.835L8.36644 71.7319H2.64708Z" fill="#CC2229"/>
<path fill-rule="evenodd" clip-rule="evenodd" d="M38.0378 65.959L78.2743 59.0823L81.7133 79.2037L41.4767 86.0798L38.0378 65.959Z" fill="#808183"/>
<path fill-rule="evenodd" clip-rule="evenodd" d="M40.8118 70.7296L41.6728 70.5826L44.7799 70.051C45.8171 69.8742 46.627 69.9975 47.2116 70.422C47.7962 70.8466 48.179 71.5924 48.3608 72.6564L48.3397 72.5325C48.5351 73.6755 48.3944 74.5508 47.9207 75.1565C47.6063 75.5624 47.1051 75.8824 46.4178 76.1152C47.1854 76.0405 47.7433 76.1289 48.0919 76.3786C48.5021 76.6793 48.8066 77.3485 49.002 78.3826C49.1427 79.1321 49.2834 79.7571 49.431 80.2564L49.5144 80.5416C49.6128 80.8622 49.7024 81.1305 49.7877 81.3565C49.8724 81.5787 49.9701 81.806 50.0815 82.0363L49.1813 82.1894L48.2842 82.3432C48.1662 82.0566 48.0543 81.7674 47.9487 81.476C47.8855 81.3083 47.8303 81.1378 47.7831 80.9649L47.7103 80.7028C47.5573 80.1366 47.4273 79.5644 47.3205 78.9877C47.1699 78.1802 46.9196 77.6268 46.5673 77.3348C46.2149 77.0428 45.7063 76.9513 45.0364 77.0659L43.7054 77.2931L44.6753 82.9683L43.8143 83.1152L42.9534 83.2621L40.8118 70.7296ZM43.4639 75.8805L44.8223 75.6483C45.6832 75.5014 46.2404 75.2374 46.4932 74.8546C46.7497 74.4742 46.7982 73.8261 46.6426 72.9166L46.6638 73.0405C46.5467 72.3526 46.3077 71.9062 45.9453 71.7032C45.5861 71.4997 44.9823 71.4716 44.1331 71.6167L42.7747 71.8489L43.4639 75.8805ZM50.7464 81.9311L48.6049 69.3979L54.2196 68.4386L54.3398 69.1414L54.4606 69.8512L50.559 70.5179L51.237 74.486L54.9088 73.8597L55.0289 74.5626L55.1497 75.2723L51.4785 75.8992L52.2175 80.2259L56.2348 79.5399L56.355 80.2434L56.4764 80.9518L50.7464 81.9311ZM57.6704 69.3027L54.7843 69.7957L54.6641 69.0923L54.5427 68.3832L62.0276 67.1038L62.1478 67.8073L62.2692 68.517L59.383 69.0107L61.2831 80.1307L60.4308 80.2764L59.5704 80.4239L57.6704 69.3027ZM62.5599 67.0136L63.4209 66.8667L66.5287 66.335C67.5646 66.1582 68.3758 66.2815 68.9603 66.706C69.5443 67.1306 69.9272 67.8764 70.1096 68.9404L70.0878 68.8165C70.2833 69.9595 70.1426 70.8354 69.6694 71.4405C69.3544 71.8464 68.8533 72.1664 68.1666 72.3992C68.9336 72.3245 69.492 72.4129 69.8406 72.6626C70.2503 72.9639 70.5553 73.6331 70.7502 74.6666C70.8915 75.4161 71.0322 76.0412 71.1791 76.5404L71.2631 76.8256C71.3615 77.1462 71.4505 77.4145 71.5358 77.6405C71.6211 77.8627 71.7195 78.09 71.8303 78.3209L70.9307 78.4741L70.0336 78.6278C69.9156 78.3414 69.8037 78.0525 69.6981 77.7613C69.6352 77.5933 69.5799 77.4225 69.5325 77.2495L69.4596 76.9874C69.3074 76.421 69.1771 75.8489 69.0693 75.2723C68.9199 74.4649 68.669 73.9114 68.3166 73.6194C67.9643 73.3275 67.4556 73.2366 66.7858 73.3505L65.4541 73.5777L66.4234 79.2529L65.5625 79.3998L64.7015 79.5467L62.5599 67.0136ZM65.212 72.1639L66.5704 71.9323C67.4326 71.7854 67.9892 71.5214 68.2425 71.138C68.4978 70.7576 68.5463 70.1095 68.3907 69.2L68.4125 69.3245C68.2948 68.6366 68.0564 68.1902 67.6941 67.9872C67.3342 67.783 66.731 67.755 65.8825 67.9001L64.5241 68.1323L65.212 72.1639ZM76.0923 77.7563C74.7376 77.9879 73.7515 77.8441 73.1389 77.3249C72.525 76.8025 72.0824 75.7423 71.8073 74.1355L71.0179 69.5181C70.7769 68.108 70.8815 67.0416 71.3304 66.3225C71.7817 65.6029 72.6377 65.1353 73.8984 64.9193C75.1833 64.6996 76.1526 64.8552 76.802 65.3844C77.4538 65.9129 77.9039 66.9059 78.1529 68.3608L79.0512 73.6213C79.2641 74.8639 79.139 75.8096 78.6777 76.4589C78.2151 77.1095 77.3529 77.5409 76.0923 77.7563ZM75.8501 76.3437C76.5031 76.2323 76.9395 75.9577 77.1643 75.5201C77.3878 75.0824 77.427 74.43 77.2776 73.5572L76.3792 68.3004C76.2323 67.4357 75.9964 66.8611 75.6764 66.579C75.3564 66.2933 74.8472 66.2124 74.1406 66.3325C73.4888 66.4439 73.0536 66.7272 72.832 67.1866C72.611 67.6455 72.5792 68.3346 72.7348 69.2498L73.5255 73.8703C73.7066 74.9311 73.9644 75.6359 74.2962 75.9914C74.628 76.3468 75.1447 76.4639 75.8501 76.3437ZM49.9564 66.8225L62.6583 64.6522L62.7896 65.4223L50.0878 67.5925L49.9564 66.8225ZM48.5214 64.5638L52.4964 63.8846L52.6078 64.5377L48.6329 65.2169L48.5214 64.5638Z" fill="white"/>
<path fill-rule="evenodd" clip-rule="evenodd" d="M82.3625 45.8955L88.6391 44.5515V46.8406H82.3625V45.8955Z" fill="#33A457"/>
<path fill-rule="evenodd" clip-rule="evenodd" d="M60.376 63.4346L60.8186 66.0786H60.6574L60.2285 63.5529L60.376 63.4346ZM52.9608 64.6025L53.4184 67.3044H53.2559L52.8127 64.7202L52.9608 64.6025Z" fill="#808183"/>
<path fill-rule="evenodd" clip-rule="evenodd" d="M75.2406 46.7727H76.3045V48.0253H75.2406V46.7727ZM35.0881 46.5604H36.1514V47.6437H35.0881V46.5604ZM42.3028 44.6467H43.3667V45.7287H42.3028V44.6467ZM86.9078 45.4971H87.9705V46.3537H86.9078V45.4971ZM110.066 38.4816H111.13V39.3382H110.066V38.4816ZM58.0078 40.5946H59.0711V41.4506H58.0078V40.5946ZM50.541 37.658H51.6043V38.5146H50.541V37.658ZM68.3452 44.6467H69.4079V45.5033H68.3452V44.6467ZM100.433 47.1979H101.496V48.0546H100.433V47.1979ZM82.3625 48.6995H83.4265V49.5561H82.3625V48.6995ZM94.8658 56.1265H95.9297V56.9831H94.8658V56.1265ZM75.2406 48.9118H76.3045V50.1644H75.2406V48.9118ZM35.0881 48.42H36.1514V49.5038H35.0881V48.42ZM42.3028 46.4938H43.3667V47.5752H42.3028V46.4938ZM107.515 45.4971H108.579V46.3537H107.515V45.4971ZM110.066 39.9434H111.13V40.8H110.066V39.9434ZM58.0078 42.0824H59.0711V42.9391H58.0078V42.0824ZM50.541 39.1328H51.6043V39.9888H50.541V39.1328ZM68.3452 46.1085H69.4079V46.9651H68.3452V46.1085ZM100.433 48.6597H101.496V49.5163H100.433V48.6597ZM82.3625 50.1606H83.4265V51.0173H82.3625V50.1606ZM94.8658 57.6013H95.9297V58.458H94.8658V57.6013ZM5.76416 46.9589H6.82747V47.8155H5.76416V46.9589ZM15.3302 41.232H16.3936V42.0887H15.3302V41.232ZM35.0881 50.2802H36.1514V51.364H35.0881V50.2802ZM42.3028 48.3671H43.3667V49.4491H42.3028V48.3671ZM107.515 46.9589H108.579V47.8155H107.515V46.9589ZM110.066 41.4443H111.13V42.301H110.066V41.4443ZM58.0078 43.5436H59.0711V44.4002H58.0078V43.5436ZM50.541 40.5946H51.6043V41.4506H50.541V40.5946ZM68.3452 47.5964H69.4079V48.453H68.3452V47.5964ZM100.433 50.1339H101.496V50.9905H100.433V50.1339ZM82.3625 51.6491H83.4265V52.5058H82.3625V51.6491ZM94.8658 59.0631H95.9297V59.9197H94.8658V59.0631ZM5.76416 48.4468H6.82747V49.3034H5.76416V48.4468ZM15.3302 42.6938H16.3936V43.5504H15.3302V42.6938ZM35.0881 52.1403H36.1514V53.2242H35.0881V52.1403ZM42.3028 50.2272H43.3667V51.3092H42.3028V50.2272ZM107.515 48.4468H108.579V49.3034H107.515V48.4468ZM110.066 42.9328H111.13V43.7895H110.066V42.9328ZM58.0078 45.0452H59.0711V45.9018H58.0078V45.0452ZM50.541 42.0824H51.6043V42.9391H50.541V42.0824ZM68.3452 49.0849H69.4079V49.9415H68.3452V49.0849ZM100.433 51.6491H101.496V52.5058H100.433V51.6491ZM82.3625 53.1109H83.4265V53.9675H82.3625V53.1109ZM94.8658 60.5516H95.9297V61.4082H94.8658V60.5516ZM5.76416 49.9085H6.82747V50.7645H5.76416V49.9085ZM15.3302 44.1817H16.3936V45.0383H15.3302V44.1817ZM35.0881 54.0273H36.1514V55.1105H35.0881V54.0273ZM42.3028 52.1142H43.3667V53.1962H42.3028V52.1142ZM107.515 49.9085H108.579V50.7645H107.515V49.9085ZM110.066 44.3946H111.13V45.2512H110.066V44.3946ZM58.0078 46.5337H59.0711V47.3903H58.0078V46.5337ZM50.541 43.5436H51.6043V44.4002H50.541V43.5436ZM68.3452 50.5329H69.4079V51.3895H68.3452V50.5329ZM100.433 53.1109H101.496V53.9675H100.433V53.1109ZM82.3625 54.5851H83.4265V55.4417H82.3625V54.5851ZM94.8658 62.0127H95.9297V62.8693H94.8658V62.0127ZM5.76416 51.3833H8.30416V52.2399H5.76416V51.3833ZM15.3302 45.6428H16.3936V46.4994H15.3302V45.6428ZM35.0881 55.8607H36.1514V56.9445H35.0881V55.8607ZM42.3028 53.9607H43.3667V55.0427H42.3028V53.9607ZM107.515 51.3833H108.579V52.2399H107.515V51.3833ZM110.066 45.8694H111.13V46.726H110.066V45.8694ZM58.0078 47.9948H59.0711V48.8514H58.0078V47.9948ZM50.541 45.0321H51.6043V45.8887H50.541V45.0321ZM68.3452 52.0214H69.4079V52.8781H68.3452V52.0214ZM100.433 54.5851H101.496V55.4417H100.433V54.5851ZM82.3625 56.0468H83.4265V56.9035H82.3625V56.0468ZM94.8658 63.4614H95.9297V64.3174H94.8658V63.4614ZM5.76416 52.8712H8.30416V53.7278H5.76416V52.8712ZM15.3302 47.1182H16.3936V47.9749H15.3302V47.1182ZM19.1701 42.8793H20.2334V43.7359H19.1701V42.8793ZM107.515 52.8712H108.579V53.7278H107.515V52.8712ZM110.066 47.3305H111.13V48.1872H110.066V47.3305ZM58.0078 49.4833H59.0711V50.3399H58.0078V49.4833ZM50.541 46.4938H51.6043V47.3504H50.541V46.4938ZM68.3452 53.4826H69.4079V54.3392H68.3452V53.4826ZM100.433 56.0468H101.496V56.9035H100.433V56.0468ZM82.3625 57.5347H83.4265V58.3913H82.3625V57.5347ZM94.8658 64.963H95.9297V65.819H94.8658V64.963ZM5.76416 54.333H6.82747V55.1896H5.76416V54.333ZM15.3302 48.6061H16.3936V49.4628H15.3302V48.6061ZM19.1701 44.3678H20.2334V45.2244H19.1701V44.3678ZM107.515 54.333H108.579V55.1896H107.515V54.333ZM110.066 48.8184H111.13V49.675H110.066V48.8184ZM58.0078 50.945H59.0711V51.8011H58.0078V50.945ZM50.541 47.9686H51.6043V48.8253H50.541V47.9686ZM68.3452 54.9704H69.4079V55.8271H68.3452V54.9704ZM73.2615 55.6216H74.3254V56.4783H73.2615V55.6216ZM101.203 61.6411H102.267V63.0941H101.203V61.6411ZM5.76416 55.8208H6.82747V56.6775H5.76416V55.8208ZM15.3302 50.094H16.3936V50.9507H15.3302V50.094ZM19.1701 45.8289H20.2334V46.6856H19.1701V45.8289ZM107.515 55.8208H108.579V56.6775H107.515V55.8208ZM110.066 50.2802H111.13V51.1368H110.066V50.2802ZM58.0078 52.4199H59.0711V53.2765H58.0078V52.4199ZM29.2554 41.9231H30.3187V42.7797H29.2554V41.9231ZM68.3452 56.472H69.4079V57.3287H68.3452V56.472ZM73.2615 56.7646H74.3254V57.6213H73.2615V56.7646ZM101.203 64.112H102.267V65.5644H101.203V64.112ZM5.76416 57.2826H6.82747V58.1392H5.76416V57.2826ZM15.3302 51.5695H16.3936V52.4255H15.3302V51.5695ZM19.1701 47.3175H20.2334V48.1741H19.1701V47.3175ZM107.515 57.2826H108.579V58.1392H107.515V57.2826ZM113.48 65.3477H114.544V66.2043H113.48V65.3477ZM58.0078 53.9078H59.0711V54.7644H58.0078V53.9078ZM29.2554 43.3979H30.3187V44.2545H29.2554V43.3979ZM68.3452 57.9338H69.4079V58.7904H68.3452V57.9338ZM82.3625 61.9859H83.4265V62.8426H82.3625V61.9859ZM26.6644 49.8817H27.7277V50.7384H26.6644V49.8817ZM5.76416 58.7842H6.82747V59.6408H5.76416V58.7842ZM15.3302 53.0574H16.3936V53.914H15.3302V53.0574ZM19.1701 48.7923H20.2334V49.6489H19.1701V48.7923ZM92.8463 67.7526H93.9102V68.6092H92.8463V67.7526ZM113.48 66.7559H114.544V67.6125H113.48V66.7559ZM58.0078 55.3689H59.0711V56.2255H58.0078V55.3689ZM50.541 52.4199H51.6043V53.2765H50.541V52.4199ZM68.3452 59.4217H69.4079V60.2783H68.3452V59.4217ZM82.3625 63.4346H83.4265V64.2912H82.3625V63.4346ZM26.6644 51.3702H27.7277V52.2262H26.6644V51.3702ZM5.76416 60.2715H6.82747V61.1287H5.76416V60.2715ZM86.0561 57.6947H87.9325V58.5513H86.0561V57.6947ZM19.1701 50.254H20.2334V51.1106H19.1701V50.254ZM92.8463 69.2007H93.9102V70.0573H92.8463V69.2007ZM113.48 68.2444H114.544V69.1011H113.48V68.2444ZM58.0078 56.8574H59.0711V57.714H58.0078V56.8574ZM50.541 53.9078H51.6043V54.7644H50.541V53.9078ZM60.2932 49.403H61.3565V50.2596H60.2932V49.403ZM82.3625 64.8957H83.4265V65.7524H82.3625V64.8957ZM26.6644 52.8183H27.7277V53.6749H26.6644V52.8183ZM5.76416 61.7338H6.82747V62.5904H5.76416V61.7338ZM86.0561 59.1558H87.9325V60.0125H86.0561V59.1558ZM19.1701 51.7419H20.2334V52.5985H19.1701V51.7419ZM107.515 61.7338H108.579V62.5904H107.515V61.7338ZM110.066 56.2199H111.13V57.0765H110.066V56.2199ZM58.0078 58.3191H59.0711V59.1758H58.0078V58.3191ZM50.541 55.3689H51.6043V56.2255H50.541V55.3689ZM60.2932 50.8915H61.3565V51.7481H60.2932V50.8915ZM82.3625 66.3313H83.4265V67.188H82.3625V66.3313ZM26.6644 54.3062H27.7277V55.1628H26.6644V54.3062ZM5.76416 63.1956H6.82747V64.0522H5.76416V63.1956ZM19.1701 53.2037H20.2334V54.0603H19.1701V53.2037ZM107.515 63.1956H108.579V64.0522H107.515V63.1956ZM110.066 57.6947H111.13V58.5513H110.066V57.6947ZM58.0078 59.794H59.0711V60.6506H58.0078V59.794ZM50.541 56.8574H51.6043V57.714H50.541V56.8574ZM60.2932 52.4062H61.3565V53.2628H60.2932V52.4062ZM82.3625 67.7925H83.4265V68.6491H82.3625V67.7925ZM26.6644 55.7679H27.7277V56.6246H26.6644V55.7679ZM5.76416 64.6835H6.82747V65.5401H5.76416V64.6835ZM19.1701 54.7052H20.2334V55.5619H19.1701V54.7052ZM107.515 64.6835H108.579V65.5401H107.515V64.6835ZM110.066 59.1558H111.13V60.0125H110.066V59.1558ZM58.0078 61.308H59.0711V62.1646H58.0078V61.308ZM50.541 58.3191H51.6043V59.1758H50.541V58.3191ZM63.2833 40.2484H64.346V41.105H63.2833V40.2484ZM82.3625 69.2804H83.4265V70.137H82.3625V69.2804ZM26.6644 57.2558H27.7277V58.1124H26.6644V57.2558ZM13.4968 64.0192H14.5602V64.8758H13.4968V64.0192ZM5.76416 66.0786H6.82747V66.9352H5.76416V66.0786ZM19.1701 56.1931H20.2334V57.0498H19.1701V56.1931ZM107.515 66.0786H108.579V66.9352H107.515V66.0786ZM110.066 60.6444H111.13V61.501H110.066V60.6444ZM40.5758 59.581H42.7759V60.4377H40.5758V59.581ZM50.541 59.794H51.6043V60.6506H50.541V59.794ZM63.2833 41.7239H64.346V42.5799H63.2833V41.7239ZM19.0244 64.4307H21.0776V65.2873H19.0244V64.4307ZM26.6644 58.7306H27.7277V59.5873H26.6644V58.7306ZM13.4968 65.4809H14.5602V66.3376H13.4968V65.4809ZM5.76416 67.5534H6.82747V68.41H5.76416V67.5534ZM19.1701 57.6543H20.2334V58.5109H19.1701V57.6543ZM107.515 67.5534H108.579V68.41H107.515V67.5534ZM110.066 62.1061H111.13V62.9627H110.066V62.1061ZM40.5758 61.0428H42.7759V61.8994H40.5758V61.0428ZM50.541 61.2557H51.6043V62.1123H50.541V61.2557ZM60.2932 56.8045H61.3565V57.6611H60.2932V56.8045ZM19.0244 65.8663H21.0776V66.7229H19.0244V65.8663ZM32.5904 65.6801H34.6436V66.5362H32.5904V65.6801ZM26.6644 60.193H27.7277V61.049H26.6644V60.193ZM13.4968 66.9153H14.5602V67.7719H13.4968V66.9153ZM5.76416 69.0145H6.82747V69.8712H5.76416V69.0145ZM19.1701 59.1428H20.2334V59.9994H19.1701V59.1428ZM96.7129 47.0249H97.7769V48.3316H96.7129V47.0249ZM110.066 63.5541H111.13V64.4108H110.066V63.5541ZM40.5758 62.5307H42.7759V63.3873H40.5758V62.5307ZM50.541 62.7436H51.6043V63.6002H50.541V62.7436ZM60.2932 58.2924H61.3565V59.149H60.2932V58.2924ZM19.0244 67.3274H21.0776V68.184H19.0244V67.3274ZM32.5904 67.1282H34.6436V67.9848H32.5904V67.1282ZM26.6644 61.6803H27.7277V62.5369H26.6644V61.6803ZM13.4968 68.4038H14.5602V69.2604H13.4968V68.4038ZM5.76416 70.503H6.82747V71.3597H5.76416V70.503ZM19.1701 60.6045H20.2334V61.4611H19.1701V60.6045ZM96.7129 49.2841H97.7769V50.5902H96.7129V49.2841ZM110.066 65.042H111.13V65.8993H110.066V65.042ZM40.5758 63.9793H42.7759V64.836H40.5758V63.9793ZM60.2932 59.7672H61.3565V60.6238H60.2932V59.7672ZM19.0244 68.8029H21.0776V69.6589H19.0244V68.8029ZM26.6644 63.1159H27.7277V63.9725H26.6644V63.1159ZM13.4968 69.8655H14.5602V70.7222H13.4968V69.8655Z" fill="white"/>
</svg>
