<svg width="182" height="52" viewBox="0 0 182 52" fill="none" xmlns="http://www.w3.org/2000/svg">
<path d="M75.8069 42.501H79.1469V35.495C77.7389 36.819 76.0849 37.908 73.5469 37.908C68.9959 37.908 65.3669 34.247 65.3669 28.925C65.3669 23.932 68.9959 19.9 73.9119 19.9C76.1309 19.9 77.9349 20.745 79.4279 21.956L80.3149 20.144H82.5689V42.501H85.3149V45.481H75.8069V42.501ZM79.1469 32.671V24.572C77.8989 23.645 76.2899 22.922 74.3089 22.922C71.3709 22.922 68.9139 25.182 68.9139 28.925C68.9139 32.591 71.2499 34.888 74.2299 34.888C76.2089 34.888 77.8169 33.958 79.1469 32.671Z" fill="#353635"/>
<path d="M89.582 35.614C89.055 34.646 88.773 33.475 88.773 32.066V23.206H86.074V20.223H92.201V31.304C92.201 32.189 92.359 32.869 92.64 33.4C93.122 34.324 93.929 34.73 95.183 34.73C97.076 34.73 98.845 33.556 100.376 32.107V23.207H97.599V20.223H103.841V34.687H106.54V37.585H100.495V34.564C98.845 36.336 96.667 37.908 94.173 37.908C91.961 37.908 90.469 37.023 89.582 35.614Z" fill="#353635"/>
<path d="M109.321 32.957C109.321 29.772 112.139 27.714 116.126 27.714C117.942 27.714 119.954 28.12 120.88 28.401V26.424C120.88 25.423 120.601 24.61 120.114 24.011C119.393 23.124 118.184 22.684 116.489 22.684C115.401 22.684 114.76 22.922 114.233 23.206C114.352 23.483 114.442 23.847 114.442 24.17C114.442 25.301 113.592 26.144 112.422 26.144C111.215 26.144 110.363 25.301 110.363 24.094C110.363 22.032 112.621 19.9 117.056 19.9C119.755 19.9 121.734 20.709 122.896 22.075C123.781 23.125 124.224 24.494 124.224 26.064V34.687H126.923V37.585H120.962V35.495C119.55 36.819 117.333 37.908 115.003 37.908C111.817 37.908 109.321 36.096 109.321 32.957ZM120.879 33.235V30.419C119.715 30.093 118.225 29.81 116.652 29.81C114.197 29.81 112.826 30.978 112.826 32.671C112.826 34.247 113.994 35.288 116.006 35.288C117.862 35.288 119.551 34.403 120.879 33.235Z" fill="#353635"/>
<path d="M135.26 23.242C136.91 21.473 139.088 19.899 141.588 19.899C143.766 19.899 145.252 20.744 146.143 22.114C146.709 23.087 147.028 24.292 147.028 25.74V34.686H149.727V37.584H140.989V34.686H143.563V26.503C143.563 25.663 143.444 24.972 143.161 24.452C142.679 23.525 141.833 23.086 140.579 23.086C138.686 23.086 136.872 24.211 135.38 25.7V34.685H137.96V37.583H129.267V34.685H131.96V23.205H129.267V20.223H135.261V23.242H135.26Z" fill="#353635"/>
<path d="M151.86 29.004C151.86 24.051 155.364 19.9 160.321 19.9C162.499 19.9 164.307 20.709 165.481 21.795V11.081H162.499V8.09302H168.94V34.687H171.639V37.585H165.52V35.373C164.153 36.819 162.418 37.908 159.997 37.908C155.408 37.908 151.86 34.284 151.86 29.004ZM165.481 32.671V24.609C164.227 23.645 162.737 22.921 160.729 22.921C157.745 22.921 155.45 25.3 155.409 28.964C155.409 32.59 157.706 34.887 160.643 34.887C162.617 34.888 164.188 33.958 165.481 32.671Z" fill="#353635"/>
<path d="M175.145 34.687V11.081H172.325V8.09302H178.614V34.687H181.393V37.585H177.207L175.145 34.687Z" fill="#353635"/>
<path d="M37.338 43.159C36.805 42.603 35.787 42.382 35.059 42.671C35.059 42.671 30.201 44.631 26.66 44.631C15.866 44.631 7.112 36.224 7.112 25.852C7.112 15.485 15.865 7.081 26.66 7.081C37.458 7.081 46.208 15.485 46.208 25.852C46.208 29.835 43.351 35.333 43.351 35.333C42.994 36.008 43.165 37 43.716 37.536L52.521 46.046C53.076 46.582 53.595 46.403 53.595 45.654V1.48C53.595 0.731 52.824 0 52.034 0H1.29C0.507 0 0 0.731 0 1.48V50.228C0 50.982 0.507 51.481 1.29 51.481H43.965C44.746 51.481 44.959 51.084 44.432 50.531L37.338 43.159Z" fill="#F37321"/>
<path d="M15.7 25.852C15.7 31.673 20.6049 36.388 26.6589 36.388C32.7129 36.388 37.627 31.673 37.627 25.852C37.627 20.041 32.7129 15.321 26.6589 15.321C20.6049 15.321 15.7 20.041 15.7 25.852Z" fill="#F37321"/>
</svg>
