<svg width="150" height="42" viewBox="0 0 150 42" fill="none" xmlns="http://www.w3.org/2000/svg">
<path fill-rule="evenodd" clip-rule="evenodd" d="M8.13449 0H33.5141C38.0043 0 41.6486 3.64425 41.6486 8.13449V33.5141C41.6486 38.0043 38.0043 41.6486 33.5141 41.6486H8.13449C3.64425 41.6486 0 38.0043 0 33.5141V8.13449C0 3.64425 3.64425 0 8.13449 0Z" fill="#FEDB43"/>
<path d="M41.6486 0H0V41.6486H41.6486V0Z" fill="#FEDB43"/>
<path fill-rule="evenodd" clip-rule="evenodd" d="M17.0011 23.7527V32.2126C17.0011 33.3839 16.0575 34.3275 14.8861 34.3275H14.154C12.9827 34.3275 12.0391 33.3839 12.0391 32.2126V9.92405C12.0391 8.75268 12.9827 7.80908 14.154 7.80908H28.6334C29.8048 7.80908 30.7484 8.75268 30.7484 9.92405V10.4121C30.7484 11.5835 29.8048 12.5271 28.6334 12.5271H17.0011V19.0347H25.705C26.8764 19.0347 27.82 19.9783 27.82 21.1496V21.6377C27.82 22.8091 26.8764 23.7527 25.705 23.7527H17.0011Z" fill="#313333"/>
<path fill-rule="evenodd" clip-rule="evenodd" d="M62.6438 8.2727C63.2783 8.2727 63.7908 8.79331 63.7908 9.4278V10.3877C63.7908 11.0222 63.2783 11.5428 62.6438 11.5428H53.9725C53.4681 11.5428 53.0614 11.9576 53.0614 12.462V18.2863C53.0614 18.7906 53.4681 19.2055 53.9725 19.2055H60.5451C60.8868 19.2055 61.1715 19.4902 61.1715 19.8318V21.841C61.1715 22.1908 60.8868 22.4674 60.5451 22.4674H53.9725C53.4681 22.4674 53.0614 22.8822 53.0614 23.3866V32.7819C53.0614 33.4164 52.5489 33.937 51.9144 33.937H50.9302C50.2957 33.937 49.7832 33.4164 49.7832 32.7819V9.43593C49.7832 8.80144 50.2957 8.28084 50.9302 8.28084H62.6438V8.2727ZM105.553 7.89038C106.171 7.89038 106.668 8.39472 106.668 9.01294V32.7982C106.668 33.4164 106.163 33.9207 105.553 33.9207H104.74C104.122 33.9207 103.625 33.4164 103.625 32.7982V31.8221C102.104 33.2049 100.396 33.9045 98.5251 33.9045C96.223 33.9045 94.2545 33.0748 92.6764 31.4397C91.1146 29.8128 90.3174 27.828 90.3174 25.5504C90.3174 23.2727 91.1227 21.2879 92.7089 19.6691C94.2951 18.0422 96.2311 17.2206 98.4519 17.2206C100.461 17.2206 102.194 17.9039 103.617 19.2543V9.01294C103.617 8.39472 104.122 7.89038 104.732 7.89038H105.553ZM148.886 7.89038C149.504 7.89038 150 8.39472 150 9.01294V32.7982C150 33.4164 149.496 33.9207 148.886 33.9207H148.04C147.421 33.9207 146.925 33.4164 146.925 32.7982V9.01294C146.925 8.39472 147.43 7.89038 148.04 7.89038H148.886ZM135.976 17.2125C137.985 17.2125 139.718 17.8958 141.142 19.2461V18.7174C141.142 18.0992 141.646 17.5948 142.256 17.5948H143.078C143.696 17.5948 144.192 18.0992 144.192 18.7174V32.7901C144.192 33.4083 143.688 33.9126 143.078 33.9126H142.256C141.638 33.9126 141.142 33.4083 141.142 32.7901V31.8139C139.621 33.1968 137.912 33.8963 136.058 33.8963C133.764 33.8963 131.795 33.0585 130.209 31.4153C128.419 29.5525 127.638 27.2667 127.874 24.6068C128.013 23.0449 128.647 21.5238 129.639 20.3117C131.348 18.2619 133.471 17.2125 135.976 17.2125ZM83.5251 17.603C84.1352 17.603 84.6232 18.0992 84.6232 18.7093V19.8155C85.152 19.2217 86.0061 18.5547 87.3076 18.3188C87.511 18.2619 87.7062 18.2375 87.8933 18.2049C88.3326 18.1398 88.6498 18.1561 89.024 18.1886H89.0403C89.6585 18.1886 90.0327 18.514 90.1221 19.1322C90.1384 19.2787 90.1384 19.4495 90.1303 19.6122C90.0977 20.206 89.7805 20.8324 89.1297 20.9218C89.0402 20.9381 88.9508 20.9462 88.8532 20.93H88.8206C88.4464 20.9056 88.0967 20.873 87.5598 20.9544C86.5348 21.1252 85.7051 21.7353 85.1032 22.7846C84.8998 23.1263 84.7371 23.4761 84.6151 23.834V32.7901C84.6151 33.4083 84.1108 33.9126 83.5007 33.9126H82.5977C81.9795 33.9126 81.4833 33.4083 81.4833 32.7901V18.7174C81.4833 18.0992 81.9877 17.5948 82.5977 17.5948H83.5251V17.603ZM117.584 17.2125C119.911 17.2125 121.839 17.9853 123.319 19.5064C125.231 21.4668 125.654 23.8747 125.743 25.1355C125.767 25.4446 125.662 25.7375 125.45 25.9652C125.239 26.193 124.938 26.3231 124.629 26.3231H113.167C113.045 26.3231 112.931 26.3801 112.858 26.4696C112.777 26.5672 112.744 26.6892 112.769 26.8112C112.948 27.7792 113.314 28.5845 113.899 29.2678C114.851 30.3822 116.966 31.1144 118.52 30.8703C119.984 30.6426 121.139 29.886 122.034 28.5683C122.375 28.0639 123.002 27.9256 123.587 28.2347L124.173 28.5439C124.458 28.6903 124.661 28.9587 124.743 29.2678C124.824 29.5688 124.767 29.886 124.596 30.1382C122.937 32.6355 120.61 33.8963 117.682 33.8963C115.331 33.8963 113.354 33.0666 111.817 31.4397C110.288 29.821 109.515 27.8443 109.515 25.5666C109.515 23.289 110.296 21.3123 111.833 19.6773C113.379 18.0504 115.315 17.2125 117.584 17.2125ZM70.8759 17.2206C73.3081 17.1312 75.3906 17.9527 77.0581 19.6773C78.6362 21.3123 79.4334 23.289 79.4334 25.5666C79.4334 27.8443 78.6444 29.821 77.0907 31.4397C75.5289 33.0666 73.5685 33.8963 71.2745 33.8963C68.8098 33.8963 66.7355 32.9446 65.1086 31.0818C63.864 29.6501 63.1482 27.8117 63.0912 25.9083C63.0099 23.3215 63.9128 21.1252 65.7756 19.36C67.1585 18.0666 68.9643 17.302 70.8759 17.2206ZM98.5901 20.2548C97.1097 20.2548 95.9058 20.7673 94.9134 21.8329C93.9128 22.9066 93.4247 24.135 93.4247 25.591C93.4247 27.0471 93.921 28.2754 94.954 29.3573C95.9708 30.4311 97.1422 30.9517 98.5251 30.9517C99.9161 30.9517 101.104 30.4555 102.169 29.4305C103.219 28.4137 103.731 27.161 103.731 25.5992C103.731 24.078 103.251 22.8334 102.259 21.7922C101.266 20.7591 100.071 20.2548 98.5901 20.2548ZM136.098 20.2548C135.895 20.2548 135.683 20.2629 135.464 20.2873C134.512 20.3768 133.601 20.7754 132.893 21.4099C131.592 22.5813 130.949 23.9479 130.949 25.6073C130.949 27.0715 131.445 28.2998 132.478 29.3736C133.495 30.4392 134.683 30.9598 136.106 30.9598C137.53 30.9598 138.718 30.4636 139.743 29.4386C140.767 28.4137 141.264 27.1529 141.264 25.5829C141.264 24.0699 140.776 22.8253 139.767 21.7922C138.758 20.7591 137.554 20.2548 136.098 20.2548ZM71.2583 20.2792C69.6802 20.2792 68.3786 20.9625 67.2724 22.3779C66.6785 23.1344 66.3288 24.0455 66.2393 25.0053C66.0847 26.7787 66.5484 28.2103 67.6547 29.3817C68.6227 30.3985 69.7859 30.8947 71.2257 30.8947C72.6655 30.8947 73.845 30.3904 74.8374 29.3654C75.838 28.3324 76.3179 27.104 76.3179 25.6317C76.3179 24.1675 75.8217 22.9392 74.8049 21.8654C73.8044 20.7998 72.6411 20.2792 71.2583 20.2792ZM117.6 20.2548C115.591 20.2548 114.192 21.1171 113.33 22.8985C113.273 23.0205 113.281 23.167 113.354 23.2808C113.427 23.4029 113.558 23.4761 113.704 23.4761H121.668C121.806 23.4761 121.936 23.4029 122.017 23.2808C122.091 23.167 122.099 23.0287 122.042 22.9067C121.741 22.264 121.326 21.7434 120.757 21.3042C119.837 20.5965 118.804 20.2548 117.6 20.2548Z" fill="#313333"/>
</svg>
