<svg width="150" height="63" viewBox="0 0 150 63" fill="none" xmlns="http://www.w3.org/2000/svg">
<path fill-rule="evenodd" clip-rule="evenodd" d="M87.4573 8.77414H85.7677V12.856H84.2193V9.89971H83.1402V12.856H82.0146V10.9324H81.3577V12.856L78.3544 12.7619V18.1105H81.3577V23.8348L70.0496 23.7878V29.0428L88.8646 29.1363V28.3389L88.9116 23.8348H87.4102V21.8642L87.4573 18.1105H88.724L88.7711 12.856H87.4573V8.77414ZM82.0146 18.1105H83.1402L83.0937 21.8642V23.8348H81.9676V21.8642L82.0146 18.1105ZM84.2193 23.8348V18.1105H85.7207V23.8348H84.2193Z" fill="#E52047"/>
<path fill-rule="evenodd" clip-rule="evenodd" d="M81.9675 23.0374V23.8348H83.0937V23.0374H81.9675Z" fill="#08B14C"/>
<path fill-rule="evenodd" clip-rule="evenodd" d="M83.0937 23.0374V21.8642H81.9675V23.0374H83.0937Z" fill="#0052A4"/>
<path fill-rule="evenodd" clip-rule="evenodd" d="M84.2192 23.0374V23.8348H85.7206V23.0374H84.2192Z" fill="#08B14C"/>
<path fill-rule="evenodd" clip-rule="evenodd" d="M84.2192 21.8642V23.0374H85.7206V21.8642H84.2192Z" fill="#0052A4"/>
<path fill-rule="evenodd" clip-rule="evenodd" d="M81.3576 23.8348V23.0374L54.5665 22.9433H53.0652V23.6943H70.0495V23.7878L81.3576 23.8348Z" fill="#08B14C"/>
<path fill-rule="evenodd" clip-rule="evenodd" d="M81.3577 23.0374V21.8642L54.5667 21.7236V22.9433L81.3577 23.0374Z" fill="#0052A4"/>
<path fill-rule="evenodd" clip-rule="evenodd" d="M70.0496 23.7878V23.6943H51.5639L51.4698 28.9958L70.0496 29.0428V23.7878Z" fill="#0052A4"/>
<path fill-rule="evenodd" clip-rule="evenodd" d="M87.4103 21.8642V23.0374H89.7091V27.1192H90.6947V21.8642H87.4103Z" fill="#0052A4"/>
<path fill-rule="evenodd" clip-rule="evenodd" d="M89.7091 23.0374H87.4103V23.8348H88.9116L88.8646 28.3389H89.7091V23.0374Z" fill="#08B14C"/>
<path fill-rule="evenodd" clip-rule="evenodd" d="M89.7089 1.26672V5.39562H90.6946V0.0940991L53.8162 0V1.12617L89.7089 1.26672Z" fill="#0052A4"/>
<path fill-rule="evenodd" clip-rule="evenodd" d="M89.709 5.3956V1.26671L53.8162 1.12616H52.7371V2.15823L70.0495 2.20528L88.8645 2.25233V6.52178H89.709V5.3956Z" fill="#08B14C"/>
<path fill-rule="evenodd" clip-rule="evenodd" d="M88.8645 6.52179V2.25234L70.0495 2.20529L70.0031 7.50681L88.8645 7.55386V6.52179Z" fill="#E52047"/>
<path fill-rule="evenodd" clip-rule="evenodd" d="M70.0031 7.50683L70.0496 2.20531L52.7372 2.15826H51.4698V7.50683H52.7372V12.856H51.4234L51.3763 18.1105H52.7372L52.6901 22.1929H54.332V18.1105H55.8804V21.0668H57.0066V18.1105H58.1798V19.7059H58.7426V18.1105H61.8388V12.856H58.8367V7.55388H70.0031V7.50683ZM54.3791 7.50683H55.9275V12.856H54.3791V7.50683ZM57.0066 7.50683L58.2263 7.55388V12.856H57.0066V7.50683Z" fill="#0052A4"/>
<path fill-rule="evenodd" clip-rule="evenodd" d="M67.6102 32.656L66.4376 32.5148L65.2173 32.4207L62.6839 32.3743L60.9479 32.4207L59.3054 32.6083L57.7576 32.89L56.3032 33.3123L54.8483 33.8286L53.5816 34.4855L52.3143 35.2829L51.2358 36.2215L50.1096 37.2065L49.2181 38.3327L48.4206 39.5059L47.8102 40.7726L47.2945 42.0394L46.9657 43.4937L46.7311 44.9486L46.6846 46.5905L46.6376 47.7637L46.6846 49.4056L46.9193 50.954L47.2474 52.4084L47.7637 53.8162L48.3736 55.0359L49.171 56.2091L50.0625 57.2882L51.1417 58.2733L52.2208 59.0713L53.4875 59.8217L54.7542 60.4315L56.2091 60.9479L57.6635 61.276L59.2589 61.6047L60.9008 61.7453L62.6839 61.8394L63.3408 61.7923H64.0447L64.3258 61.7453H65.3114L65.8742 61.6518L66.1559 61.6047H66.484L67.6573 61.5106L68.6893 61.2289L69.5338 60.9949L69.8626 60.9008L70.1436 60.8067L70.6129 60.6662V56.2556L70.0031 56.4438L69.3462 56.6308L68.5488 56.819L68.0795 56.9131H67.939L67.8449 56.9595L67.6573 57.0536H67.235L67.1409 57.1L66.6716 57.1941H66.2494L66.1559 57.2412L65.6396 57.3347L64.4199 57.4288H63.4343L63.1532 57.4758L62.1675 57.4288L61.276 57.2882L60.4315 57.0536L59.6812 56.819L58.8831 56.4438L58.2262 56.0209L57.5694 55.5052L57.0066 54.9888L56.4438 54.2855L56.0209 53.5816L55.5993 52.7371L55.3176 51.8456L55.0359 50.8599L54.8954 49.7814L54.8013 48.6082V45.746L54.9418 44.6669L55.083 43.6348L55.4111 42.6962L55.7399 41.7577L56.1621 40.9132L56.6314 40.1158L57.2412 39.4589L57.804 38.7549L58.5079 38.2392L59.2119 37.7229L60.0563 37.3941L60.9008 37.066L61.8388 36.8784L62.8244 36.7372H64.9827L66.0618 36.8313L67.0474 36.9254L67.939 37.113L68.6423 37.2065L69.3462 37.3941L70.66 37.9105V33.4064L70.0495 33.1717L69.3462 32.9841L68.5017 32.7965L67.6102 32.656Z" fill="#E52047"/>
<path fill-rule="evenodd" clip-rule="evenodd" d="M77.5099 32.9841H73.2875L73.2405 61.6047H78.8237L78.8707 43.7283L96.4184 61.6982H99.7969L99.8904 33.0312H94.2602V50.0625L77.5099 32.9841Z" fill="#0052A4"/>
<path fill-rule="evenodd" clip-rule="evenodd" d="M145.683 33.0312L145.261 32.9371H144.792L144.276 32.843H143.713L143.056 32.7495H142.352L140.757 32.7025L139.021 32.7495L137.426 32.9371L135.877 33.2188L134.469 33.6881L133.015 34.2038L131.748 34.9078L130.482 35.7052L129.355 36.6438L128.276 37.6294L127.338 38.7079L126.54 39.8811L125.93 41.1478L125.367 42.4146L124.992 43.8695L124.757 45.3708L124.711 47.0128V48.0919L124.757 49.7338L124.992 51.3292L125.321 52.7836L125.837 54.1914L126.447 55.4581L127.244 56.6308L128.136 57.6634L129.215 58.6485L130.294 59.4465L131.561 60.1969L132.827 60.8067L134.282 61.3231L135.737 61.6982L137.332 62.027L138.974 62.1675L140.757 62.2616L141.414 62.2146H142.117L143.431 62.1205L143.994 62.027L144.276 61.9799H144.604L145.167 61.8858L145.731 61.8394L146.2 61.6982L146.668 61.6048L147.514 61.4172L147.654 61.3231L147.842 61.276L148.17 61.1825L148.686 60.9949V56.6784L145.731 57.4759H145.308L145.214 57.5229L144.745 57.6164H144.323L144.229 57.6634L143.713 57.7575L142.493 57.851H141.508L141.226 57.8981L140.241 57.851L139.349 57.7105L138.505 57.4759L137.754 57.2412L137.003 56.866L136.347 56.4438L135.69 55.9274L135.127 55.4111L134.563 54.7072L134.141 54.0038L133.719 53.1594L133.437 52.2678L133.156 51.2822L133.015 50.2031L132.875 49.0305V46.1683L133.015 45.0892L133.156 44.0571L133.437 43.1185L133.766 42.1805L134.188 41.336L134.658 40.538L135.267 39.8811L135.877 39.1772L136.581 38.6615L137.332 38.1451L138.176 37.8164L139.021 37.4882L139.959 37.3006L140.945 37.1601H142.024L144.041 37.2065L145.027 37.3006L146.059 37.4882L146.856 37.6294L147.607 37.8164L148.217 38.0046L148.733 38.2392V33.7351L148.123 33.5005L147.419 33.3123L146.575 33.1253L145.683 33.0312Z" fill="#0052A4"/>
<path fill-rule="evenodd" clip-rule="evenodd" d="M110.635 37.3477L124.054 37.3941L124.1 33.0776L102.8 33.0312L102.659 61.7453L124.992 61.7923V57.4758H110.588L110.635 49.3586L121.098 49.4056V45.0421H110.635V37.3477Z" fill="#0052A4"/>
<path fill-rule="evenodd" clip-rule="evenodd" d="M0.0940991 32.6084L0 36.8784H7.83556L7.78851 61.276L15.7176 61.3231L15.7646 36.9255H23.3655V32.656L0.0940991 32.6084Z" fill="#E52047"/>
<path fill-rule="evenodd" clip-rule="evenodd" d="M45.9807 36.9719L46.0277 32.7025L24.7264 32.656L24.5858 61.3231L46.9193 61.3701V57.1001L32.5149 57.0536L32.5619 48.9364L43.0244 48.9834V44.6669L32.5619 44.6199V36.9255L45.9807 36.9719Z" fill="#E52047"/>
<path fill-rule="evenodd" clip-rule="evenodd" d="M146.763 23.7413L145.965 23.7878L145.308 23.9283L144.745 24.163L144.323 24.4917L143.948 24.914L143.713 25.4303L143.572 26.0401L143.525 26.8376L143.572 27.5415L143.713 28.1984L143.948 28.7141L144.088 28.9488L144.323 29.2304L144.745 29.5592L144.98 29.6527L145.308 29.7938L145.589 29.8403L145.965 29.9344L146.763 30.0279V29.9808H147.091L147.467 29.9344L147.795 29.8403V29.7938H148.123L148.217 29.6997V29.6527H148.358L148.639 29.5592L148.874 29.371L149.156 29.2304L149.296 28.9488L149.484 28.7141L149.625 28.433V28.2919H149.671L149.765 28.1984V27.8696H149.812L149.906 27.5415L149.953 27.1663V26.8376H150L149.906 26.0401L149.765 25.4303L149.484 24.914L149.156 24.4917L148.639 24.163L148.123 23.9283L147.467 23.7878L146.763 23.7413ZM146.669 29.6056L145.965 29.4651L145.355 29.3245L144.839 29.0429L144.604 28.8553L144.463 28.7141L144.135 28.2919L143.994 28.0108L143.948 27.7761L143.853 27.4474V27.1663L143.9 26.5565L143.948 25.8525L144.182 25.3362L144.417 24.8669L144.792 24.5388L145.167 24.21L145.684 24.0695L146.246 23.976L146.95 24.0224L147.56 24.0695L148.123 24.2571L148.545 24.4917L148.968 24.8205L149.249 25.1486L149.484 25.6649L149.625 26.1807L149.671 26.8376L149.625 27.1192V27.4474L149.531 27.7291H149.484V28.0578L149.39 28.1513H149.343V28.2919L149.249 28.5736L149.061 28.7612L148.968 28.8553H148.921V28.9958L148.686 29.0899L148.499 29.2304L148.217 29.3245H148.076V29.371L147.982 29.4651H147.654V29.5121L147.372 29.5592H146.669V29.6056Z" fill="#0054A6"/>
<path fill-rule="evenodd" clip-rule="evenodd" d="M145.589 28.2454L145.636 28.3389L145.731 28.433L145.777 28.4801L145.871 28.5265V28.4801H145.918V28.3389H145.965V27.682L146.012 27.2598L146.106 26.9787L146.246 26.9316L146.528 26.9787L146.668 27.0257L146.856 27.1663L147.138 27.4474L147.419 27.8696L147.607 28.1984L147.889 28.4801L148.123 28.6206L148.404 28.6677L147.232 26.9316V26.8846H147.56L147.701 26.7905L147.889 26.744L148.17 26.5094L148.264 26.3212L148.311 26.2277L148.404 26.1807L148.452 25.8055L148.404 25.5238L148.17 25.2897L147.889 25.1015L147.607 25.008L147.138 24.961L146.481 24.9139H145.731L145.636 24.961V25.1015L145.589 25.3362V28.2454ZM146.387 25.2897H146.95L147.419 25.3832L147.701 25.4767L147.889 25.6649V25.7114L147.936 25.8055V25.9931L147.842 26.1342L147.748 26.3212L147.56 26.3683L147.325 26.4624H146.997V26.5094H146.668V26.5565L146.34 26.5094L146.106 26.4153L145.965 26.2748V25.7114L146.059 25.4767L146.152 25.3362L146.387 25.2897Z" fill="#0054A6"/>
</svg>
