<svg width="610" height="400" viewBox="0 0 610 400" fill="none" xmlns="http://www.w3.org/2000/svg">
<g filter="url(#filter0_b_297_77)">
<g clip-path="url(#clip0_297_77)">
<rect width="610" height="400" rx="20" fill="url(#paint0_linear_297_77)"/>
<path d="M40.774 37.126C40.774 38.17 40.414 39.04 39.694 39.736C38.986 40.42 37.9 40.762 36.436 40.762H34.024V46H32.386V33.454H36.436C37.852 33.454 38.926 33.796 39.658 34.48C40.402 35.164 40.774 36.046 40.774 37.126ZM36.436 39.412C37.348 39.412 38.02 39.214 38.452 38.818C38.884 38.422 39.1 37.858 39.1 37.126C39.1 35.578 38.212 34.804 36.436 34.804H34.024V39.412H36.436ZM47.1118 46.162C46.1878 46.162 45.3478 45.952 44.5918 45.532C43.8478 45.112 43.2598 44.518 42.8278 43.75C42.4078 42.97 42.1978 42.07 42.1978 41.05C42.1978 40.042 42.4138 39.154 42.8458 38.386C43.2898 37.606 43.8898 37.012 44.6458 36.604C45.4018 36.184 46.2478 35.974 47.1838 35.974C48.1198 35.974 48.9658 36.184 49.7218 36.604C50.4778 37.012 51.0718 37.6 51.5038 38.368C51.9478 39.136 52.1698 40.03 52.1698 41.05C52.1698 42.07 51.9418 42.97 51.4858 43.75C51.0418 44.518 50.4358 45.112 49.6678 45.532C48.8998 45.952 48.0478 46.162 47.1118 46.162ZM47.1118 44.722C47.6998 44.722 48.2518 44.584 48.7678 44.308C49.2838 44.032 49.6978 43.618 50.0098 43.066C50.3338 42.514 50.4958 41.842 50.4958 41.05C50.4958 40.258 50.3398 39.586 50.0278 39.034C49.7158 38.482 49.3078 38.074 48.8038 37.81C48.2998 37.534 47.7538 37.396 47.1658 37.396C46.5658 37.396 46.0138 37.534 45.5098 37.81C45.0178 38.074 44.6218 38.482 44.3218 39.034C44.0218 39.586 43.8718 40.258 43.8718 41.05C43.8718 41.854 44.0158 42.532 44.3038 43.084C44.6038 43.636 44.9998 44.05 45.4918 44.326C45.9838 44.59 46.5238 44.722 47.1118 44.722ZM59.1295 35.956C60.3295 35.956 61.3015 36.322 62.0455 37.054C62.7895 37.774 63.1615 38.818 63.1615 40.186V46H61.5415V40.42C61.5415 39.436 61.2955 38.686 60.8035 38.17C60.3115 37.642 59.6395 37.378 58.7875 37.378C57.9235 37.378 57.2335 37.648 56.7175 38.188C56.2135 38.728 55.9615 39.514 55.9615 40.546V46H54.3235V36.136H55.9615V37.54C56.2855 37.036 56.7235 36.646 57.2755 36.37C57.8395 36.094 58.4575 35.956 59.1295 35.956ZM67.8352 37.486V43.3C67.8352 43.78 67.9372 44.122 68.1412 44.326C68.3452 44.518 68.6992 44.614 69.2032 44.614H70.4092V46H68.9332C68.0212 46 67.3372 45.79 66.8812 45.37C66.4252 44.95 66.1972 44.26 66.1972 43.3V37.486H64.9192V36.136H66.1972V33.652H67.8352V36.136H70.4092V37.486H67.8352ZM81.1418 36.136V46H79.5038V44.542C79.1918 45.046 78.7538 45.442 78.1898 45.73C77.6378 46.006 77.0258 46.144 76.3538 46.144C75.5858 46.144 74.8958 45.988 74.2838 45.676C73.6718 45.352 73.1858 44.872 72.8258 44.236C72.4778 43.6 72.3038 42.826 72.3038 41.914V36.136H73.9238V41.698C73.9238 42.67 74.1698 43.42 74.6618 43.948C75.1538 44.464 75.8258 44.722 76.6778 44.722C77.5538 44.722 78.2438 44.452 78.7478 43.912C79.2518 43.372 79.5038 42.586 79.5038 41.554V36.136H81.1418ZM83.2955 41.032C83.2955 40.024 83.4995 39.142 83.9075 38.386C84.3155 37.618 84.8735 37.024 85.5815 36.604C86.3015 36.184 87.0995 35.974 87.9755 35.974C88.8395 35.974 89.5895 36.16 90.2255 36.532C90.8615 36.904 91.3355 37.372 91.6475 37.936V36.136H93.3035V46H91.6475V44.164C91.3235 44.74 90.8375 45.22 90.1895 45.604C89.5535 45.976 88.8095 46.162 87.9575 46.162C87.0815 46.162 86.2895 45.946 85.5815 45.514C84.8735 45.082 84.3155 44.476 83.9075 43.696C83.4995 42.916 83.2955 42.028 83.2955 41.032ZM91.6475 41.05C91.6475 40.306 91.4975 39.658 91.1975 39.106C90.8975 38.554 90.4895 38.134 89.9735 37.846C89.4695 37.546 88.9115 37.396 88.2995 37.396C87.6875 37.396 87.1295 37.54 86.6255 37.828C86.1215 38.116 85.7195 38.536 85.4195 39.088C85.1195 39.64 84.9695 40.288 84.9695 41.032C84.9695 41.788 85.1195 42.448 85.4195 43.012C85.7195 43.564 86.1215 43.99 86.6255 44.29C87.1295 44.578 87.6875 44.722 88.2995 44.722C88.9115 44.722 89.4695 44.578 89.9735 44.29C90.4895 43.99 90.8975 43.564 91.1975 43.012C91.4975 42.448 91.6475 41.794 91.6475 41.05ZM100.266 44.776C100.986 44.776 101.586 44.608 102.066 44.272C102.546 43.936 102.876 43.456 103.056 42.832H104.82C104.58 43.768 104.106 44.536 103.398 45.136C102.702 45.724 101.826 46.06 100.77 46.144V47.044C101.478 47.032 102.042 47.182 102.462 47.494C102.882 47.806 103.092 48.25 103.092 48.826C103.092 49.39 102.888 49.84 102.48 50.176C102.072 50.512 101.544 50.68 100.896 50.68H98.8256V49.618H100.572C100.968 49.618 101.256 49.558 101.436 49.438C101.628 49.318 101.724 49.114 101.724 48.826C101.724 48.55 101.628 48.352 101.436 48.232C101.256 48.112 100.968 48.052 100.572 48.052H99.6716V46.126C98.8436 46.042 98.1116 45.784 97.4756 45.352C96.8396 44.908 96.3416 44.32 95.9816 43.588C95.6336 42.844 95.4596 41.998 95.4596 41.05C95.4596 40.03 95.6636 39.142 96.0716 38.386C96.4796 37.618 97.0436 37.024 97.7636 36.604C98.4956 36.184 99.3296 35.974 100.266 35.974C101.478 35.974 102.474 36.268 103.254 36.856C104.046 37.444 104.568 38.26 104.82 39.304H103.056C102.888 38.704 102.558 38.23 102.066 37.882C101.586 37.534 100.986 37.36 100.266 37.36C99.3296 37.36 98.5736 37.684 97.9976 38.332C97.4216 38.968 97.1336 39.874 97.1336 41.05C97.1336 42.238 97.4216 43.156 97.9976 43.804C98.5736 44.452 99.3296 44.776 100.266 44.776ZM106.393 41.032C106.393 40.024 106.597 39.142 107.005 38.386C107.413 37.618 107.971 37.024 108.679 36.604C109.399 36.184 110.197 35.974 111.073 35.974C111.937 35.974 112.687 36.16 113.323 36.532C113.959 36.904 114.433 37.372 114.745 37.936V36.136H116.401V46H114.745V44.164C114.421 44.74 113.935 45.22 113.287 45.604C112.651 45.976 111.907 46.162 111.055 46.162C110.179 46.162 109.387 45.946 108.679 45.514C107.971 45.082 107.413 44.476 107.005 43.696C106.597 42.916 106.393 42.028 106.393 41.032ZM114.745 41.05C114.745 40.306 114.595 39.658 114.295 39.106C113.995 38.554 113.587 38.134 113.071 37.846C112.567 37.546 112.009 37.396 111.397 37.396C110.785 37.396 110.227 37.54 109.723 37.828C109.219 38.116 108.817 38.536 108.517 39.088C108.217 39.64 108.067 40.288 108.067 41.032C108.067 41.788 108.217 42.448 108.517 43.012C108.817 43.564 109.219 43.99 109.723 44.29C110.227 44.578 110.785 44.722 111.397 44.722C112.009 44.722 112.567 44.578 113.071 44.29C113.587 43.99 113.995 43.564 114.295 43.012C114.595 42.448 114.745 41.794 114.745 41.05ZM109.075 35.074C109.159 34.462 109.357 33.994 109.669 33.67C109.993 33.346 110.395 33.184 110.875 33.184C111.103 33.184 111.295 33.226 111.451 33.31C111.619 33.382 111.817 33.49 112.045 33.634C112.213 33.754 112.363 33.85 112.495 33.922C112.627 33.982 112.771 34.012 112.927 34.012C113.131 34.012 113.305 33.946 113.449 33.814C113.593 33.682 113.683 33.49 113.719 33.238H114.655C114.583 33.838 114.385 34.3 114.061 34.624C113.737 34.948 113.335 35.11 112.855 35.11C112.627 35.11 112.423 35.074 112.243 35.002C112.075 34.918 111.883 34.798 111.667 34.642C111.475 34.522 111.319 34.432 111.199 34.372C111.091 34.312 110.959 34.282 110.803 34.282C110.599 34.282 110.425 34.348 110.281 34.48C110.149 34.612 110.065 34.81 110.029 35.074H109.075ZM123.471 46.162C122.547 46.162 121.707 45.952 120.951 45.532C120.207 45.112 119.619 44.518 119.187 43.75C118.767 42.97 118.557 42.07 118.557 41.05C118.557 40.042 118.773 39.154 119.205 38.386C119.649 37.606 120.249 37.012 121.005 36.604C121.761 36.184 122.607 35.974 123.543 35.974C124.479 35.974 125.325 36.184 126.081 36.604C126.837 37.012 127.431 37.6 127.863 38.368C128.307 39.136 128.529 40.03 128.529 41.05C128.529 42.07 128.301 42.97 127.845 43.75C127.401 44.518 126.795 45.112 126.027 45.532C125.259 45.952 124.407 46.162 123.471 46.162ZM123.471 44.722C124.059 44.722 124.611 44.584 125.127 44.308C125.643 44.032 126.057 43.618 126.369 43.066C126.693 42.514 126.855 41.842 126.855 41.05C126.855 40.258 126.699 39.586 126.387 39.034C126.075 38.482 125.667 38.074 125.163 37.81C124.659 37.534 124.113 37.396 123.525 37.396C122.925 37.396 122.373 37.534 121.869 37.81C121.377 38.074 120.981 38.482 120.681 39.034C120.381 39.586 120.231 40.258 120.231 41.05C120.231 41.854 120.375 42.532 120.663 43.084C120.963 43.636 121.359 44.05 121.851 44.326C122.343 44.59 122.883 44.722 123.471 44.722Z" fill="white"/>
<rect opacity="0.08" x="548" y="20" width="37" height="37" rx="12" fill="white"/>
<g clip-path="url(#clip1_297_77)">
<path d="M560 37C558.9 37 558 37.9 558 39C558 40.1 558.9 41 560 41C561.1 41 562 40.1 562 39C562 37.9 561.1 37 560 37ZM572 37C570.9 37 570 37.9 570 39C570 40.1 570.9 41 572 41C573.1 41 574 40.1 574 39C574 37.9 573.1 37 572 37ZM566 37C564.9 37 564 37.9 564 39C564 40.1 564.9 41 566 41C567.1 41 568 40.1 568 39C568 37.9 567.1 37 566 37Z" fill="#7551FF"/>
</g>
<path d="M400.196 368.284L362.976 382.537L325.923 391.999L319.1 390.4L312.465 389.909L306.007 388.906L299.707 385.551L293.552 377.76L287.502 364.53L281.535 349.072L275.663 333.056L269.885 317.677L264.221 303.798L258.673 291.964L253.25 282.377L247.973 274.946L242.821 269.252L237.795 264.599L205.842 263.295L201.192 257.437L196.532 248.237L191.861 236.645L187.211 223.657" stroke="white" stroke-opacity="0.2" stroke-width="1.08501" stroke-linecap="round" stroke-linejoin="round"/>
<path d="M-56.1602 203.337L-54.8331 203.789L-53.8926 204.11L-20.1523 215.676L-17.958 217.025L-6.28643 221.494L-5.71168 221.547L0.202572 224.109L10.683 228.322L15.6463 230.229L18.2378 231.442L19.5961 232.045L30.5363 236.88L37.9135 239.987L51.0585 245.504L52.1975 246.179L54.0887 247.306L57.1085 248.623L71.9359 255.104L77.3485 257.47L89.4383 262.751L90.807 263.262L103.68 268.013L124.192 275.595L125.059 275.791L158.308 283.288L191.965 286.014L225.434 289.408L258.672 291.963L291.702 292.258L324.607 289.46L357.469 283.248L390.373 273.852L423.403 262.043L456.569 249.141L489.786 237.077L522.889 228.132L555.773 222.779L588.374 220.249L620.714 219.738" stroke="white" stroke-opacity="0.2" stroke-width="1.08501" stroke-linecap="round" stroke-linejoin="round"/>
<path d="M23.4731 356.64L-15.7217 361.345" stroke="white" stroke-opacity="0.2" stroke-width="1.08501" stroke-linecap="round" stroke-linejoin="round"/>
<path d="M-48.6162 227.543L-12.0233 234.738L24.6114 246.349L61.079 261.146L61.7164 261.427L97.1702 277.266L97.8181 277.541L132.708 292.259L167.608 303.136L201.986 309.073L236.081 314.42L269.884 317.677L303.468 317.579L336.936 313.503L370.415 305.43L403.988 293.943L437.729 280.26L471.605 266.257L505.47 254.488L539.096 247.509L572.387 244.633L605.354 244.58L638.007 246.199" stroke="white" stroke-opacity="0.2" stroke-width="1.08501" stroke-linecap="round" stroke-linejoin="round"/>
<path d="M55.8648 349.701L17.5373 350.546L-20.4453 356.765" stroke="white" stroke-opacity="0.2" stroke-width="1.08501" stroke-linecap="round" stroke-linejoin="round"/>
<path d="M32.5431 277.724L-4.21692 271.204L-40.7158 270.214" stroke="white" stroke-opacity="0.2" stroke-width="1.08501" stroke-linecap="round" stroke-linejoin="round"/>
<path d="M626.346 280.968L589.325 283.478L551.604 293.779L513.537 310.547L475.492 330.35L437.687 350.336L400.196 368.284L392.359 366.836L384.679 368.003L377.187 369.831L369.935 369.896L362.965 365.368L356.236 354.681L349.685 341.49L343.258 327.395L336.937 313.503L330.719 300.666L324.607 289.46L318.588 280.195L312.684 272.941L306.895 267.495L301.221 263.433L295.673 258.865L290.208 250.537L284.827 239.233L279.519 225.911" stroke="white" stroke-opacity="0.2" stroke-width="1.08501" stroke-linecap="round" stroke-linejoin="round"/>
<path d="M-44.875 247.018L-8.30301 251.166L28.4257 260.359L65.0708 273.603L65.3634 273.727L101.423 289.12L137.274 304.434L172.519 316.419L207.221 323.732L241.599 329.773L275.663 333.056L309.507 332.427L343.258 327.395L377.04 318.083L410.969 305.279L445.075 290.43L479.316 275.68L513.527 263.924L547.414 257.81L580.924 256.015L614.069 257.03L646.889 259.547" stroke="white" stroke-opacity="0.2" stroke-width="1.08501" stroke-linecap="round" stroke-linejoin="round"/>
<path d="M420.76 228.696L452.233 216.665L483.768 205.309L491.396 207.288L499.181 209.634L507.017 213.965L514.928 220.197L522.89 228.132L530.936 237.398L539.096 247.509L547.414 257.81L555.94 267.495L564.78 275.608L579.158 275.496" stroke="white" stroke-opacity="0.2" stroke-width="1.08501" stroke-linecap="round" stroke-linejoin="round"/>
<path d="M709.908 296.498L673.294 295.063L636.283 295.528L598.97 297.487L560.987 306.255L522.628 321.137L484.248 339L446.057 357.243L408.137 373.795L370.447 387.097L332.903 396.055L295.359 400L257.628 398.683L226.886 393.493L219.52 392.248L180.931 382.065L141.872 371.174L102.468 362.197L62.9287 356.994L23.4728 356.64L20.4739 353.704L17.5376 350.546L14.5388 345.893L11.3726 338.633L7.94528 327.801L4.18362 312.546L0.0353387 292.684L-4.21741 271.204L-8.30305 251.166L-12.023 234.738L-15.2622 223.224L-18.073 216.744L-20.1523 215.675" stroke="white" stroke-opacity="0.2" stroke-width="1.08501" stroke-linecap="round" stroke-linejoin="round"/>
<path d="M395.953 242.66L427.677 231.127L459.515 218.762L466.955 220.865L474.479 224.633L482.086 230.079L489.786 237.077L497.571 245.353L505.471 254.488L513.527 263.924L521.771 272.928L530.287 280.621L539.169 285.719L543.704 285.077" stroke="white" stroke-opacity="0.2" stroke-width="1.08501" stroke-linecap="round" stroke-linejoin="round"/>
<path d="M746 300.285L709.909 296.498L699.052 284.152L662.95 281.282L626.347 280.968L615.961 273.747L605.282 272.79L597.027 273.642L579.159 275.496L569.034 276.545L567.424 277.088L561.124 279.212L543.705 285.076L543.13 285.273L540.142 286.276L538.835 286.721L532.127 288.975L522.357 293.104L513.319 297.546L504.28 302.402L500.226 304.8L494.949 307.775L494.468 308.051L480.738 315.96L462.797 326.294L457.886 329.124L454.709 330.92L444.773 336.555L425.473 347.492L421.116 349.962L413.059 352.931L405.264 354.602L397.814 351.751L390.698 342.518L383.791 330.795L377.041 318.083L370.416 305.429L363.886 293.628L357.47 283.248L351.138 274.618L344.91 267.856L338.787 262.836L332.789 259.258L301.222 263.432L269.582 265.005L237.796 264.599L232.853 259.075L201.193 257.437L169.406 256.552L137.589 258.026L105.489 256.644L72.9607 251.251L69.5229 243.918L37.0156 238.053L33.9644 231.278L30.8506 223.06" stroke="white" stroke-opacity="0.2" stroke-width="1.08501" stroke-linecap="round" stroke-linejoin="round"/>
<path d="M605.281 272.79L627.851 273.36L640.964 273.694L652.114 274.52L662.95 281.282L673.294 295.063" stroke="white" stroke-opacity="0.2" stroke-width="1.08501" stroke-linecap="round" stroke-linejoin="round"/>
<path d="M483.768 205.309L515.261 195.912L546.64 188.56L554.926 191.05L586.451 186.096" stroke="white" stroke-opacity="0.2" stroke-width="1.08501" stroke-linecap="round" stroke-linejoin="round"/>
<path d="M358.127 248.82L389.391 239.764L420.759 228.696L427.676 231.127L434.751 233.342L441.929 237.057L449.202 242.346L456.568 249.141L464.029 257.234L471.605 266.257L479.316 275.68L487.216 284.814L495.345 292.802L503.799 298.359L513.318 297.547L522.356 293.104" stroke="white" stroke-opacity="0.2" stroke-width="1.08501" stroke-linecap="round" stroke-linejoin="round"/>
<path d="M77.0347 256.093L83.1161 257.273L109.187 262.332L141.621 264.179L173.752 262.64L205.841 263.295L210.543 267.98L242.821 269.251L274.931 269.441L306.895 267.495L338.786 262.836L370.687 255.32L402.661 245.235L434.751 233.342L466.955 220.865L499.18 209.634L531.311 201.004L563.286 194.857L595.061 190.873" stroke="white" stroke-opacity="0.2" stroke-width="1.08501" stroke-linecap="round" stroke-linejoin="round"/>
<path d="M332.788 259.258L364.334 252.26L395.953 242.66L402.662 245.235L409.474 249.252L416.392 254.855L423.403 262.043L430.519 270.628L437.729 280.26L445.075 290.43L452.577 300.417L460.289 309.342L468.282 315.862L476.788 315.927L485.732 311.943L494.948 307.775L504.269 306.55L525.094 296.531L541.938 288.432" stroke="white" stroke-opacity="0.2" stroke-width="1.08501" stroke-linecap="round" stroke-linejoin="round"/>
<path d="M69.5225 243.918L101.664 247.719L133.44 248.414L165.007 247.129L196.532 248.237L227.921 250.124L259.143 251.257L290.208 250.537L321.169 247.313L352.098 241.33L383.07 232.765L414.125 222.196L445.274 210.656L476.475 199.72L507.644 190.677L538.699 183.724L569.608 178.796L577.894 183.134" stroke="white" stroke-opacity="0.2" stroke-width="1.08501" stroke-linecap="round" stroke-linejoin="round"/>
<path d="M145.634 268.236L178.12 267.128" stroke="white" stroke-opacity="0.2" stroke-width="1.08501" stroke-linecap="round" stroke-linejoin="round"/>
<path d="M603.63 198.324L571.646 201.194L539.431 206.246L507.018 213.965L474.479 224.633L441.93 237.057L409.475 249.252L377.145 259.815L344.91 267.856L312.685 272.941L280.397 275.136L247.973 274.946L215.361 273.373L182.593 271.905L149.72 272.063L124.861 268.944L117.839 268.059L116.471 267.888L112.813 265.484L109.188 262.332L105.489 256.644L101.664 247.719L97.7562 236.487L93.8169 223.854" stroke="white" stroke-opacity="0.2" stroke-width="1.08501" stroke-linecap="round" stroke-linejoin="round"/>
<path d="M612.167 208.094L579.994 209.785L547.581 213.605L514.927 220.197L482.086 230.079L449.202 242.346L416.392 254.855L383.717 265.982L351.137 274.618L318.588 280.195L285.986 282.639L253.249 282.377L220.324 280.339L187.2 277.973L153.93 276.807L149.719 272.063L145.634 268.236L113.544 265.543L112.813 265.484L110.953 265.058L95.7913 261.572L85.3526 259.219L83.6285 258.787L83.5554 258.754L77.035 256.093L76.1051 255.72L74.799 255.183L59.8148 249.075L53.5767 246.526L53.5036 246.5L50.9018 245.668L37.9135 239.987L37.7881 239.783L31.4663 237.051L30.6618 236.704L19.5544 231.913L18.196 231.376L10.683 228.322L0.202572 224.109L-6.28643 221.494L-12.8902 218.624L-18.073 216.744L-53.5165 205.774L-54.2897 205.532L-56.1602 203.337" stroke="white" stroke-opacity="0.2" stroke-width="1.08501" stroke-linecap="round" stroke-linejoin="round"/>
<path d="M232.853 259.075L264.336 259.92L295.673 258.865L326.905 255.242L358.127 248.82L364.334 252.26L370.687 255.32L377.145 259.815L383.717 265.982L390.373 273.852L397.134 283.288L403.989 293.942L410.969 305.279L418.084 316.55L425.378 326.792L432.912 334.583L440.884 335.907L449.244 332.892L454.855 329.668L461.469 325.874L478.762 315.947L485.732 311.943L493.454 307.972L500.225 304.801L508.041 301.157L515.565 297.35L532.126 288.975L541.938 288.432L557.371 283.661L560.412 282.724L571.405 279.323L579.294 276.879L615.96 273.747L652.114 274.52L659.365 275.293L687.735 278.321L699.051 284.153L734.62 289.46L745.999 300.286" stroke="white" stroke-opacity="0.2" stroke-width="1.08501" stroke-linecap="round" stroke-linejoin="round"/>
<path d="M85.2792 259.147L83.5552 258.754" stroke="white" stroke-opacity="0.2" stroke-width="1.08501" stroke-linecap="round" stroke-linejoin="round"/>
<path d="M11.0796 228.375L11.4454 228.421L11.9051 228.48L33.9632 231.278L66.0003 234.574L97.7553 236.487L129.249 236.389L160.565 235.36L191.86 236.645L223.019 238.63L254.001 239.842L284.826 239.233L315.547 236.179L346.225 230.465L376.925 222.268L407.708 212.176L438.575 201.213L469.483 190.886L500.34 182.499L531.081 176.352L561.645 172.479" stroke="white" stroke-opacity="0.2" stroke-width="1.08501" stroke-linecap="round" stroke-linejoin="round"/>
<path d="M340.469 217.143L346.226 230.465L352.099 241.33L358.128 248.82" stroke="white" stroke-opacity="0.2" stroke-width="1.08501" stroke-linecap="round" stroke-linejoin="round"/>
<path d="M370.938 209.168L376.926 222.267L383.07 232.765L389.392 239.764L395.954 242.66" stroke="white" stroke-opacity="0.2" stroke-width="1.08501" stroke-linecap="round" stroke-linejoin="round"/>
<path d="M401.48 199.483L407.708 212.176L414.124 222.195L420.759 228.696" stroke="white" stroke-opacity="0.2" stroke-width="1.08501" stroke-linecap="round" stroke-linejoin="round"/>
<path d="M432.098 189.123L438.576 201.213L445.274 210.656L452.233 216.665L459.516 218.762L491.397 207.288L523.225 198.048L531.312 201.004L539.431 206.246L547.582 213.605L555.774 222.779L564.029 233.316L572.388 244.632L580.925 256.014L589.692 266.597L623.045 268.504L627.852 273.36" stroke="white" stroke-opacity="0.2" stroke-width="1.08501" stroke-linecap="round" stroke-linejoin="round"/>
<path d="M462.724 179.531L469.484 190.887L476.475 199.72L483.768 205.309" stroke="white" stroke-opacity="0.2" stroke-width="1.08501" stroke-linecap="round" stroke-linejoin="round"/>
<path d="M493.309 171.883L500.341 182.498L507.645 190.676L515.262 195.912L523.224 198.048L554.927 191.05L563.286 194.857L571.646 201.194L579.995 209.784L588.375 220.249L596.807 232.064L605.355 244.58L614.069 257.03L623.045 268.504L656.064 271.8" stroke="white" stroke-opacity="0.2" stroke-width="1.08501" stroke-linecap="round" stroke-linejoin="round"/>
<path d="M523.746 166.66L531.081 176.352L538.698 183.724L546.64 188.56L577.893 183.134L586.451 186.096L595.061 190.873L603.629 198.323L612.166 208.094L620.714 219.738L629.303 232.667L638.007 246.198L646.889 259.546L656.063 271.8L659.365 275.293" stroke="white" stroke-opacity="0.2" stroke-width="1.08501" stroke-linecap="round" stroke-linejoin="round"/>
<path d="M553.976 164L561.645 172.479L569.608 178.796" stroke="white" stroke-opacity="0.2" stroke-width="1.08501" stroke-linecap="round" stroke-linejoin="round"/>
<path d="M69.5227 243.918L66.0014 234.574L62.4277 223.827" stroke="white" stroke-opacity="0.2" stroke-width="1.08501" stroke-linecap="round" stroke-linejoin="round"/>
<path d="M232.853 259.075L227.921 250.124L223.021 238.63L218.151 225.577" stroke="white" stroke-opacity="0.2" stroke-width="1.08501" stroke-linecap="round" stroke-linejoin="round"/>
<path d="M446.057 357.243L437.687 350.336L429.349 348.396L421.115 349.962L416.705 352.151L408.921 355.997L403.247 358.809L395.63 362.583L388.482 366.122L384.679 368.002L379.904 369.804L373.509 372.216L366.591 374.817L351.649 380.453L348.504 381.639L341.555 382.091L334.805 380.433L328.264 374.221L321.89 362.157L315.641 347.682L309.508 332.427L303.468 317.578L297.533 303.994L291.702 292.258L285.987 282.639L280.396 275.136L274.932 269.441L269.582 265.005L264.336 259.92L259.143 251.257L254.002 239.842L248.913 226.651" stroke="white" stroke-opacity="0.2" stroke-width="1.08501" stroke-linecap="round" stroke-linejoin="round"/>
<path d="M597.026 273.642L589.691 266.598L555.94 267.495L521.771 272.928L487.216 284.814L452.577 300.417L418.084 316.55L383.79 330.796L349.684 341.49L315.641 347.682L281.535 349.071L247.21 346.037L212.581 339.622L177.576 331.274L142.018 318.614L105.895 303.47L69.3234 289.028L32.5423 277.724L28.4254 260.359L24.6114 246.349L21.2155 236.645L18.1957 231.376L15.646 230.229" stroke="white" stroke-opacity="0.2" stroke-width="1.08501" stroke-linecap="round" stroke-linejoin="round"/>
<path d="M541.938 288.432L551.603 293.779L560.987 306.255" stroke="white" stroke-opacity="0.2" stroke-width="1.08501" stroke-linecap="round" stroke-linejoin="round"/>
<path d="M408.137 373.795L400.196 368.284" stroke="white" stroke-opacity="0.2" stroke-width="1.08501" stroke-linecap="round" stroke-linejoin="round"/>
<path d="M504.269 306.55L513.537 310.548L522.628 321.137" stroke="white" stroke-opacity="0.2" stroke-width="1.08501" stroke-linecap="round" stroke-linejoin="round"/>
<path d="M370.447 387.097L362.976 382.537L355.662 381.193L348.504 381.639L343.958 382.681L331.608 385.512L312.465 389.908L276.363 392.451L270.365 390.079L264.482 385.236L258.683 376.148L252.915 362.052L247.21 346.037L241.599 329.773L236.081 314.42L230.69 300.81L225.434 289.408L220.324 280.339L215.361 273.373L210.544 267.98L178.12 267.128L173.752 262.64L169.406 256.552L165.006 247.129L160.565 235.36L156.146 222.268" stroke="white" stroke-opacity="0.2" stroke-width="1.08501" stroke-linecap="round" stroke-linejoin="round"/>
<path d="M569.033 276.545L579.294 276.879L589.325 283.478L598.97 297.487" stroke="white" stroke-opacity="0.2" stroke-width="1.08501" stroke-linecap="round" stroke-linejoin="round"/>
<path d="M466.674 327.532L475.493 330.35L484.249 339" stroke="white" stroke-opacity="0.2" stroke-width="1.08501" stroke-linecap="round" stroke-linejoin="round"/>
<path d="M332.903 396.055L325.923 391.999L288.85 396.042L251.588 394.508L245.736 391.848L240.031 389.476L234.462 386.055L228.976 380.151L223.501 370.191L218.015 355.644L212.581 339.622L207.221 323.731L201.986 309.073L196.897 296.38L191.965 286.013L187.201 277.973L182.592 271.905L178.12 267.128" stroke="white" stroke-opacity="0.2" stroke-width="1.08501" stroke-linecap="round" stroke-linejoin="round"/>
<path d="M180.931 382.065L175.821 377.314L170.889 373.874L166.083 370.578L163.261 369.719L160.963 369.012L130.566 359.72L128.393 359.051L124.067 353.973L119.689 346.313L115.174 334.78L110.514 319.256L105.896 303.47L101.423 289.12L97.1706 277.265L93.1686 268.458L89.4383 262.751L85.9482 259.73" stroke="white" stroke-opacity="0.2" stroke-width="1.08501" stroke-linecap="round" stroke-linejoin="round"/>
<path d="M219.52 392.248L213.95 387.713L208.559 384.607L203.313 381.744L200.669 380.951L169.75 371.679L166.083 370.578L161.349 366.181L156.616 359.34L151.799 348.639L146.888 333.856L142.018 318.614L137.274 304.433L132.708 292.258L128.34 282.613L124.192 275.594L120.242 270.916L107.526 266.761L87.871 260.353L85.9482 259.73" stroke="white" stroke-opacity="0.2" stroke-width="1.08501" stroke-linecap="round" stroke-linejoin="round"/>
<path d="M295.36 400L288.85 396.042L282.518 393.951L276.363 392.451L254.013 390.616L240.627 389.522L240.032 389.476L237.064 388.847L211.694 383.506L203.752 381.835L203.313 381.744L198.162 377.845L193.052 371.515L187.922 361.259L182.718 346.719L177.577 331.274L172.52 316.418L167.609 303.136L162.875 292.016L158.309 283.287L153.931 276.807L127.432 272.167L120.243 270.916L116.471 267.888L115.154 267.521L105.624 264.88L87.5473 259.868L85.6874 259.507L83.6289 258.786" stroke="white" stroke-opacity="0.2" stroke-width="1.08501" stroke-linecap="round" stroke-linejoin="round"/>
<path d="M257.628 398.683L251.588 394.508L246.855 393.657L232.706 391.101L213.95 387.713L209.635 386.534L187.556 380.518L175.821 377.314L172.248 376.311L137.233 366.476L136.919 366.403L134.129 365.781L98.3409 357.826L94.3494 354.13L90.431 349.943L86.4812 344.098L48.8434 338.606L11.3728 338.633L-25.7217 344.347" stroke="white" stroke-opacity="0.2" stroke-width="1.08501" stroke-linecap="round" stroke-linejoin="round"/>
<path d="M141.873 371.174L137.233 366.476L132.761 362.819L128.393 359.051L120.379 357.131L90.4315 349.943L52.3966 345.205L14.5394 345.893L-22.9521 352.118" stroke="white" stroke-opacity="0.2" stroke-width="1.08501" stroke-linecap="round" stroke-linejoin="round"/>
<path d="M332.788 259.258L326.905 255.241L321.169 247.312L315.547 236.179L310.009 222.798" stroke="white" stroke-opacity="0.2" stroke-width="1.08501" stroke-linecap="round" stroke-linejoin="round"/>
<path d="M102.469 362.196L98.341 357.826L93.6389 357.269L59.3449 353.226L20.4741 353.704L-18.0728 359.398" stroke="white" stroke-opacity="0.2" stroke-width="1.08501" stroke-linecap="round" stroke-linejoin="round"/>
<path d="M76.1054 255.72L72.9602 251.251L53.5665 246.513L53.5039 246.5" stroke="white" stroke-opacity="0.2" stroke-width="1.08501" stroke-linecap="round" stroke-linejoin="round"/>
<path d="M145.634 268.236L141.622 264.18L137.588 258.026L133.44 248.413L129.25 236.389L125.028 222.995" stroke="white" stroke-opacity="0.2" stroke-width="1.08501" stroke-linecap="round" stroke-linejoin="round"/>
<path d="M62.9287 356.994L59.3448 353.226L55.8652 349.701" stroke="white" stroke-opacity="0.2" stroke-width="1.08501" stroke-linecap="round" stroke-linejoin="round"/>
<path d="M-5.8584 221.488L-0.915976 221.743L30.8494 223.06L62.4267 223.827L93.816 223.853L125.028 222.995L156.145 222.268L187.21 223.657L218.15 225.577L248.912 226.651L279.518 225.911L310.009 222.798L340.468 217.143L370.938 209.168L401.48 199.483L432.096 189.123L462.723 179.53L493.308 171.883L523.746 166.66L553.975 164" stroke="white" stroke-opacity="0.2" stroke-width="1.08501" stroke-linecap="round" stroke-linejoin="round"/>
<path d="M-57.5283 205.584L-53.8711 206.849L-52.1888 212.189L-51.7813 213.487L-15.2616 223.224L2.98255 229.934L21.2164 236.645L40.0562 244.816L57.4122 252.352L59.1781 253.144L81.3511 263.131L93.1691 268.458L94.1513 268.852L128.341 282.613L162.875 292.016L196.898 296.38L230.69 300.81L264.222 303.798L297.533 303.994L330.72 300.666L363.885 293.628L397.135 283.287L430.52 270.627L464.03 257.233L497.572 245.353L530.936 237.398L564.028 233.316L596.807 232.064L629.304 232.667" stroke="white" stroke-opacity="0.2" stroke-width="1.08501" stroke-linecap="round" stroke-linejoin="round"/>
<path d="M543.129 285.273L539.169 285.719L537.131 286.446L529.671 289.113L529.044 289.343L503.799 298.359L468.282 315.862L453.925 323.463L432.911 334.583L412.619 344.511L397.813 351.752L362.965 365.368L328.263 374.221L293.551 377.76L258.683 376.148L223.5 370.191L187.921 361.26L151.798 348.639L115.174 334.78L78.205 322.782L73.7537 306.098L69.3232 289.028L65.0704 273.603L61.0788 261.146L57.4112 252.352L54.0883 247.306L50.7446 245.825" stroke="white" stroke-opacity="0.2" stroke-width="1.08501" stroke-linecap="round" stroke-linejoin="round"/>
<path d="M0.118927 223.912L-0.915527 221.743" stroke="white" stroke-opacity="0.2" stroke-width="1.08501" stroke-linecap="round" stroke-linejoin="round"/>
<path d="M567.424 277.089L564.78 275.608L530.288 280.621L495.346 292.802L460.289 309.342L425.378 326.792L390.698 342.519L356.236 354.681L321.89 362.157L287.502 364.53L252.915 362.053L218.015 355.644L182.718 346.719L146.888 333.856L110.514 319.256L73.7543 306.098L36.8479 296.747L0.0355967 292.684L-36.4424 294.427" stroke="white" stroke-opacity="0.2" stroke-width="1.08501" stroke-linecap="round" stroke-linejoin="round"/>
<path d="M38.0805 239.908L37.0147 238.054L30.6616 236.704" stroke="white" stroke-opacity="0.2" stroke-width="1.08501" stroke-linecap="round" stroke-linejoin="round"/>
<path d="M504.27 306.55L487.311 316.013L466.674 327.532L457.886 329.125L449.244 332.893L443.132 336.28L423.644 347.066L416.998 350.749L413.059 352.931L407.605 355.5L379.34 368.815L377.187 369.831L372.381 371.482L348.17 379.817L342.653 381.711L341.556 382.091L306.008 388.906L270.366 390.079L234.463 386.056L231.892 385.479L198.162 377.845L195.853 377.111L165.111 367.374L161.35 366.181L159.396 365.545L124.067 353.973L86.4817 344.098L82.4379 335.435L45.1136 328.85L7.94596 327.801L-28.835 332.558" stroke="white" stroke-opacity="0.2" stroke-width="1.08501" stroke-linecap="round" stroke-linejoin="round"/>
<path d="M512.838 297.586L511.208 298.418L499.379 304.433L494.426 306.95L476.788 315.927L459.85 325.35L450.759 330.409L440.885 335.906L420.854 346.424L405.264 354.602L369.935 369.896L334.805 380.433L299.707 385.551L264.483 385.236L228.976 380.151L193.052 371.515L191.381 370.958L156.616 359.339L119.689 346.312L82.4376 335.435L78.2058 322.781L41.1217 314.924L4.18401 312.546L-32.3984 316.032" stroke="white" stroke-opacity="0.2" stroke-width="1.08501" stroke-linecap="round" stroke-linejoin="round"/>
<path d="M466.673 327.532L449.212 337.289L429.349 348.396L425.702 350.218L411.846 357.118L392.359 366.836L384.898 369.752L375.431 373.461L366.998 376.757L355.661 381.193L346.884 383.401L337.657 385.728L319.1 390.4L282.517 393.951L267.345 393.086L245.736 391.848L238.547 390.446L210.627 385.007L208.558 384.607L206.197 383.932L184.933 377.877L172.655 374.378L170.889 373.873L165.612 372.347L133.972 363.173L132.76 362.819L124.098 360.86L94.9865 354.274L94.3492 354.13L83.8477 352.924L55.865 349.7L52.3958 345.205L48.8431 338.606L45.1128 328.849L41.1212 314.924L36.8475 296.747L32.5425 277.724" stroke="white" stroke-opacity="0.2" stroke-width="1.08501" stroke-linecap="round" stroke-linejoin="round"/>
<path d="M408 208C408 264.885 361.885 311 305 311C248.115 311 202 264.885 202 208C202 151.115 248.115 105 305 105C361.885 105 408 151.115 408 208ZM215.149 208C215.149 257.624 255.376 297.851 305 297.851C354.624 297.851 394.851 257.624 394.851 208C394.851 158.376 354.624 118.149 305 118.149C255.376 118.149 215.149 158.376 215.149 208Z" fill="#0077FF"/>
<path d="M266.95 216.3C267.283 218.2 268.05 219.667 269.25 220.7C270.483 221.733 272.133 222.25 274.2 222.25C276.967 222.25 279 221.167 280.3 219C281.633 216.833 282.267 213.183 282.2 208.05C281.5 209.55 280.333 210.733 278.7 211.6C277.067 212.433 275.25 212.85 273.25 212.85C271.017 212.85 269.017 212.4 267.25 211.5C265.517 210.567 264.15 209.217 263.15 207.45C262.15 205.683 261.65 203.55 261.65 201.05C261.65 197.483 262.683 194.617 264.75 192.45C266.817 190.25 269.75 189.15 273.55 189.15C278.217 189.15 281.483 190.667 283.35 193.7C285.25 196.733 286.2 201.25 286.2 207.25C286.2 211.45 285.817 214.917 285.05 217.65C284.317 220.383 283.05 222.467 281.25 223.9C279.483 225.333 277.05 226.05 273.95 226.05C270.55 226.05 267.9 225.133 266 223.3C264.1 221.467 263.017 219.133 262.75 216.3H266.95ZM274 209C276.233 209 278.067 208.317 279.5 206.95C280.933 205.55 281.65 203.667 281.65 201.3C281.65 198.8 280.95 196.783 279.55 195.25C278.15 193.717 276.183 192.95 273.65 192.95C271.317 192.95 269.45 193.683 268.05 195.15C266.683 196.617 266 198.55 266 200.95C266 203.383 266.683 205.333 268.05 206.8C269.417 208.267 271.4 209 274 209ZM299.194 207.2C297.327 206.467 295.894 205.4 294.894 204C293.894 202.6 293.394 200.9 293.394 198.9C293.394 197.1 293.844 195.483 294.744 194.05C295.644 192.583 296.977 191.433 298.744 190.6C300.544 189.733 302.711 189.3 305.244 189.3C307.777 189.3 309.927 189.733 311.694 190.6C313.494 191.433 314.844 192.583 315.744 194.05C316.677 195.483 317.144 197.1 317.144 198.9C317.144 200.833 316.627 202.533 315.594 204C314.561 205.433 313.144 206.5 311.344 207.2C313.411 207.833 315.044 208.95 316.244 210.55C317.477 212.117 318.094 214.017 318.094 216.25C318.094 218.417 317.561 220.317 316.494 221.95C315.427 223.55 313.911 224.8 311.944 225.7C310.011 226.567 307.777 227 305.244 227C302.711 227 300.477 226.567 298.544 225.7C296.644 224.8 295.161 223.55 294.094 221.95C293.027 220.317 292.494 218.417 292.494 216.25C292.494 214.017 293.094 212.1 294.294 210.5C295.494 208.9 297.127 207.8 299.194 207.2ZM312.744 199.45C312.744 197.417 312.077 195.85 310.744 194.75C309.411 193.65 307.577 193.1 305.244 193.1C302.944 193.1 301.127 193.65 299.794 194.75C298.461 195.85 297.794 197.433 297.794 199.5C297.794 201.367 298.477 202.867 299.844 204C301.244 205.133 303.044 205.7 305.244 205.7C307.477 205.7 309.277 205.133 310.644 204C312.044 202.833 312.744 201.317 312.744 199.45ZM305.244 209.2C302.777 209.2 300.761 209.783 299.194 210.95C297.627 212.083 296.844 213.8 296.844 216.1C296.844 218.233 297.594 219.95 299.094 221.25C300.627 222.55 302.677 223.2 305.244 223.2C307.811 223.2 309.844 222.55 311.344 221.25C312.844 219.95 313.594 218.233 313.594 216.1C313.594 213.867 312.827 212.167 311.294 211C309.761 209.8 307.744 209.2 305.244 209.2ZM324.137 207.55C324.137 201.817 325.07 197.35 326.937 194.15C328.804 190.917 332.07 189.3 336.737 189.3C341.37 189.3 344.62 190.917 346.487 194.15C348.354 197.35 349.287 201.817 349.287 207.55C349.287 213.383 348.354 217.917 346.487 221.15C344.62 224.383 341.37 226 336.737 226C332.07 226 328.804 224.383 326.937 221.15C325.07 217.917 324.137 213.383 324.137 207.55ZM344.787 207.55C344.787 204.65 344.587 202.2 344.187 200.2C343.82 198.167 343.037 196.533 341.837 195.3C340.67 194.067 338.97 193.45 336.737 193.45C334.47 193.45 332.737 194.067 331.537 195.3C330.37 196.533 329.587 198.167 329.187 200.2C328.82 202.2 328.637 204.65 328.637 207.55C328.637 210.55 328.82 213.067 329.187 215.1C329.587 217.133 330.37 218.767 331.537 220C332.737 221.233 334.47 221.85 336.737 221.85C338.97 221.85 340.67 221.233 341.837 220C343.037 218.767 343.82 217.133 344.187 215.1C344.587 213.067 344.787 210.55 344.787 207.55Z" fill="white"/>
<path d="M289.172 251.098C288.528 251.098 287.949 250.986 287.436 250.762C286.932 250.529 286.535 250.211 286.246 249.81C285.957 249.399 285.807 248.928 285.798 248.396H287.156C287.203 248.853 287.389 249.241 287.716 249.558C288.052 249.866 288.537 250.02 289.172 250.02C289.779 250.02 290.255 249.871 290.6 249.572C290.955 249.264 291.132 248.872 291.132 248.396C291.132 248.023 291.029 247.719 290.824 247.486C290.619 247.253 290.362 247.075 290.054 246.954C289.746 246.833 289.331 246.702 288.808 246.562C288.164 246.394 287.646 246.226 287.254 246.058C286.871 245.89 286.54 245.629 286.26 245.274C285.989 244.91 285.854 244.425 285.854 243.818C285.854 243.286 285.989 242.815 286.26 242.404C286.531 241.993 286.909 241.676 287.394 241.452C287.889 241.228 288.453 241.116 289.088 241.116C290.003 241.116 290.749 241.345 291.328 241.802C291.916 242.259 292.247 242.866 292.322 243.622H290.922C290.875 243.249 290.679 242.922 290.334 242.642C289.989 242.353 289.531 242.208 288.962 242.208C288.43 242.208 287.996 242.348 287.66 242.628C287.324 242.899 287.156 243.281 287.156 243.776C287.156 244.131 287.254 244.42 287.45 244.644C287.655 244.868 287.903 245.041 288.192 245.162C288.491 245.274 288.906 245.405 289.438 245.554C290.082 245.731 290.6 245.909 290.992 246.086C291.384 246.254 291.72 246.52 292 246.884C292.28 247.239 292.42 247.724 292.42 248.34C292.42 248.816 292.294 249.264 292.042 249.684C291.79 250.104 291.417 250.445 290.922 250.706C290.427 250.967 289.844 251.098 289.172 251.098ZM293.819 247.15C293.819 246.357 293.977 245.666 294.295 245.078C294.612 244.481 295.051 244.019 295.611 243.692C296.18 243.365 296.829 243.202 297.557 243.202C298.499 243.202 299.274 243.431 299.881 243.888C300.497 244.345 300.903 244.98 301.099 245.792H299.727C299.596 245.325 299.339 244.957 298.957 244.686C298.583 244.415 298.117 244.28 297.557 244.28C296.829 244.28 296.241 244.532 295.793 245.036C295.345 245.531 295.121 246.235 295.121 247.15C295.121 248.074 295.345 248.788 295.793 249.292C296.241 249.796 296.829 250.048 297.557 250.048C298.117 250.048 298.583 249.917 298.957 249.656C299.33 249.395 299.587 249.021 299.727 248.536H301.099C300.893 249.32 300.483 249.95 299.867 250.426C299.251 250.893 298.481 251.126 297.557 251.126C296.829 251.126 296.18 250.963 295.611 250.636C295.051 250.309 294.612 249.847 294.295 249.25C293.977 248.653 293.819 247.953 293.819 247.15ZM306.145 251.126C305.426 251.126 304.773 250.963 304.185 250.636C303.606 250.309 303.149 249.847 302.813 249.25C302.486 248.643 302.323 247.943 302.323 247.15C302.323 246.366 302.491 245.675 302.827 245.078C303.172 244.471 303.639 244.009 304.227 243.692C304.815 243.365 305.473 243.202 306.201 243.202C306.929 243.202 307.587 243.365 308.175 243.692C308.763 244.009 309.225 244.467 309.561 245.064C309.906 245.661 310.079 246.357 310.079 247.15C310.079 247.943 309.901 248.643 309.547 249.25C309.201 249.847 308.73 250.309 308.133 250.636C307.535 250.963 306.873 251.126 306.145 251.126ZM306.145 250.006C306.602 250.006 307.031 249.899 307.433 249.684C307.834 249.469 308.156 249.147 308.399 248.718C308.651 248.289 308.777 247.766 308.777 247.15C308.777 246.534 308.655 246.011 308.413 245.582C308.17 245.153 307.853 244.835 307.461 244.63C307.069 244.415 306.644 244.308 306.187 244.308C305.72 244.308 305.291 244.415 304.899 244.63C304.516 244.835 304.208 245.153 303.975 245.582C303.741 246.011 303.625 246.534 303.625 247.15C303.625 247.775 303.737 248.303 303.961 248.732C304.194 249.161 304.502 249.483 304.885 249.698C305.267 249.903 305.687 250.006 306.145 250.006ZM313.028 244.574C313.252 244.135 313.569 243.795 313.98 243.552C314.4 243.309 314.908 243.188 315.506 243.188V244.504H315.17C313.742 244.504 313.028 245.279 313.028 246.828V251H311.754V243.328H313.028V244.574ZM323.976 246.87C323.976 247.113 323.962 247.369 323.934 247.64H317.802C317.849 248.396 318.106 248.989 318.572 249.418C319.048 249.838 319.622 250.048 320.294 250.048C320.845 250.048 321.302 249.922 321.666 249.67C322.04 249.409 322.301 249.063 322.45 248.634H323.822C323.617 249.371 323.206 249.973 322.59 250.44C321.974 250.897 321.209 251.126 320.294 251.126C319.566 251.126 318.913 250.963 318.334 250.636C317.765 250.309 317.317 249.847 316.99 249.25C316.664 248.643 316.5 247.943 316.5 247.15C316.5 246.357 316.659 245.661 316.976 245.064C317.294 244.467 317.737 244.009 318.306 243.692C318.885 243.365 319.548 243.202 320.294 243.202C321.022 243.202 321.666 243.361 322.226 243.678C322.786 243.995 323.216 244.434 323.514 244.994C323.822 245.545 323.976 246.17 323.976 246.87ZM322.66 246.604C322.66 246.119 322.553 245.703 322.338 245.358C322.124 245.003 321.83 244.737 321.456 244.56C321.092 244.373 320.686 244.28 320.238 244.28C319.594 244.28 319.044 244.485 318.586 244.896C318.138 245.307 317.882 245.876 317.816 246.604H322.66Z" fill="#A0AEC0"/>
<path d="M290.502 177.098C289.597 177.098 288.771 176.888 288.024 176.468C287.277 176.039 286.685 175.446 286.246 174.69C285.817 173.925 285.602 173.066 285.602 172.114C285.602 171.162 285.817 170.308 286.246 169.552C286.685 168.787 287.277 168.194 288.024 167.774C288.771 167.345 289.597 167.13 290.502 167.13C291.417 167.13 292.247 167.345 292.994 167.774C293.741 168.194 294.329 168.782 294.758 169.538C295.187 170.294 295.402 171.153 295.402 172.114C295.402 173.075 295.187 173.934 294.758 174.69C294.329 175.446 293.741 176.039 292.994 176.468C292.247 176.888 291.417 177.098 290.502 177.098ZM290.502 175.992C291.183 175.992 291.795 175.833 292.336 175.516C292.887 175.199 293.316 174.746 293.624 174.158C293.941 173.57 294.1 172.889 294.1 172.114C294.1 171.33 293.941 170.649 293.624 170.07C293.316 169.482 292.891 169.029 292.35 168.712C291.809 168.395 291.193 168.236 290.502 168.236C289.811 168.236 289.195 168.395 288.654 168.712C288.113 169.029 287.683 169.482 287.366 170.07C287.058 170.649 286.904 171.33 286.904 172.114C286.904 172.889 287.058 173.57 287.366 174.158C287.683 174.746 288.113 175.199 288.654 175.516C289.205 175.833 289.821 175.992 290.502 175.992ZM291.902 165.128L288.92 166.724V165.772L291.902 164.022V165.128ZM298.638 170.378V174.9C298.638 175.273 298.717 175.539 298.876 175.698C299.035 175.847 299.31 175.922 299.702 175.922H300.64V177H299.492C298.783 177 298.251 176.837 297.896 176.51C297.541 176.183 297.364 175.647 297.364 174.9V170.378H296.37V169.328H297.364V167.396H298.638V169.328H300.64V170.378H298.638ZM302.841 168.082C302.599 168.082 302.393 167.998 302.225 167.83C302.057 167.662 301.973 167.457 301.973 167.214C301.973 166.971 302.057 166.766 302.225 166.598C302.393 166.43 302.599 166.346 302.841 166.346C303.075 166.346 303.271 166.43 303.429 166.598C303.597 166.766 303.681 166.971 303.681 167.214C303.681 167.457 303.597 167.662 303.429 167.83C303.271 167.998 303.075 168.082 302.841 168.082ZM303.457 169.328V177H302.183V169.328H303.457ZM314.855 169.188C315.452 169.188 315.984 169.314 316.451 169.566C316.917 169.809 317.286 170.177 317.557 170.672C317.827 171.167 317.963 171.769 317.963 172.478V177H316.703V172.66C316.703 171.895 316.511 171.311 316.129 170.91C315.755 170.499 315.247 170.294 314.603 170.294C313.94 170.294 313.413 170.509 313.021 170.938C312.629 171.358 312.433 171.969 312.433 172.772V177H311.173V172.66C311.173 171.895 310.981 171.311 310.599 170.91C310.225 170.499 309.717 170.294 309.073 170.294C308.41 170.294 307.883 170.509 307.491 170.938C307.099 171.358 306.903 171.969 306.903 172.772V177H305.629V169.328H306.903V170.434C307.155 170.033 307.491 169.725 307.911 169.51C308.34 169.295 308.811 169.188 309.325 169.188C309.969 169.188 310.538 169.333 311.033 169.622C311.527 169.911 311.896 170.336 312.139 170.896C312.353 170.355 312.708 169.935 313.203 169.636C313.697 169.337 314.248 169.188 314.855 169.188ZM323.399 177.126C322.68 177.126 322.027 176.963 321.439 176.636C320.86 176.309 320.403 175.847 320.067 175.25C319.74 174.643 319.577 173.943 319.577 173.15C319.577 172.366 319.745 171.675 320.081 171.078C320.426 170.471 320.893 170.009 321.481 169.692C322.069 169.365 322.727 169.202 323.455 169.202C324.183 169.202 324.841 169.365 325.429 169.692C326.017 170.009 326.479 170.467 326.815 171.064C327.16 171.661 327.333 172.357 327.333 173.15C327.333 173.943 327.155 174.643 326.801 175.25C326.455 175.847 325.984 176.309 325.387 176.636C324.789 176.963 324.127 177.126 323.399 177.126ZM323.399 176.006C323.856 176.006 324.285 175.899 324.687 175.684C325.088 175.469 325.41 175.147 325.653 174.718C325.905 174.289 326.031 173.766 326.031 173.15C326.031 172.534 325.909 172.011 325.667 171.582C325.424 171.153 325.107 170.835 324.715 170.63C324.323 170.415 323.898 170.308 323.441 170.308C322.974 170.308 322.545 170.415 322.153 170.63C321.77 170.835 321.462 171.153 321.229 171.582C320.995 172.011 320.879 172.534 320.879 173.15C320.879 173.775 320.991 174.303 321.215 174.732C321.448 175.161 321.756 175.483 322.139 175.698C322.521 175.903 322.941 176.006 323.399 176.006Z" fill="#A0AEC0"/>
</g>
</g>
<defs>
<filter id="filter0_b_297_77" x="-120" y="-120" width="850" height="640" filterUnits="userSpaceOnUse" color-interpolation-filters="sRGB">
<feFlood flood-opacity="0" result="BackgroundImageFix"/>
<feGaussianBlur in="BackgroundImageFix" stdDeviation="60"/>
<feComposite in2="SourceAlpha" operator="in" result="effect1_backgroundBlur_297_77"/>
<feBlend mode="normal" in="SourceGraphic" in2="effect1_backgroundBlur_297_77" result="shape"/>
</filter>
<linearGradient id="paint0_linear_297_77" x1="305" y1="-2.49999" x2="595.308" y2="330.807" gradientUnits="userSpaceOnUse">
<stop/>
<stop offset="1" stop-color="#323232"/>
</linearGradient>
<clipPath id="clip0_297_77">
<rect width="610" height="400" rx="20" fill="white"/>
</clipPath>
<clipPath id="clip1_297_77">
<rect width="24" height="24" fill="white" transform="translate(554 27)"/>
</clipPath>
</defs>
</svg>
