<svg width="1520" height="209" viewBox="0 0 1520 209" fill="none" xmlns="http://www.w3.org/2000/svg">
<rect width="1520" height="209" rx="30" fill="#3B3A65"/>
<rect width="347" height="88" transform="translate(66 61)" fill="#3B3A65"/>
<path d="M154.32 110V82.448H154.224L142.32 89.504L140.4 83.648L154.32 74.96H161.184V110H154.32ZM182.486 110.48C180.438 110.48 178.598 110.288 176.966 109.904C175.366 109.52 173.782 108.944 172.214 108.176L173.798 102.56C175.398 103.328 176.838 103.888 178.118 104.24C179.398 104.56 180.742 104.72 182.15 104.72C184.838 104.72 186.886 104.176 188.294 103.088C189.734 101.968 190.454 100.368 190.454 98.288C190.454 96.528 189.926 95.2 188.87 94.304C187.846 93.376 186.358 92.912 184.406 92.912C183.286 92.912 182.342 93.104 181.574 93.488C180.838 93.84 180.118 94.464 179.414 95.36H173.174L174.278 74.96H195.686V80.72H180.326L179.894 88.592H179.99C180.918 88.176 181.814 87.872 182.678 87.68C183.542 87.488 184.502 87.392 185.558 87.392C189.27 87.392 192.15 88.368 194.198 90.32C196.278 92.272 197.318 95.024 197.318 98.576C197.318 102.416 196.038 105.36 193.478 107.408C190.95 109.456 187.286 110.48 182.486 110.48ZM203.596 110V102.656H210.94V110H203.596ZM232.28 110V103.712H215.192V97.904L232.28 74.96H239V97.904H244.952V103.712H239V110H232.28ZM222.344 98.048H232.424V84.704H232.328L222.344 97.952V98.048ZM259.198 110.48C257.15 110.48 255.31 110.288 253.678 109.904C252.078 109.52 250.494 108.944 248.926 108.176L250.51 102.56C252.11 103.328 253.55 103.888 254.83 104.24C256.11 104.56 257.454 104.72 258.862 104.72C261.55 104.72 263.598 104.176 265.006 103.088C266.446 101.968 267.166 100.368 267.166 98.288C267.166 96.528 266.638 95.2 265.582 94.304C264.558 93.376 263.07 92.912 261.118 92.912C259.998 92.912 259.054 93.104 258.286 93.488C257.55 93.84 256.83 94.464 256.126 95.36H249.886L250.99 74.96H272.398V80.72H257.038L256.606 88.592H256.702C257.63 88.176 258.526 87.872 259.39 87.68C260.254 87.488 261.214 87.392 262.27 87.392C265.982 87.392 268.862 88.368 270.91 90.32C272.99 92.272 274.03 95.024 274.03 98.576C274.03 102.416 272.75 105.36 270.19 107.408C267.662 109.456 263.998 110.48 259.198 110.48ZM291.732 110.48C286.996 110.48 283.492 109.024 281.22 106.112C278.948 103.168 277.812 98.624 277.812 92.48C277.812 86.336 278.948 81.808 281.22 78.896C283.492 75.952 286.996 74.48 291.732 74.48C296.468 74.48 299.972 75.952 302.244 78.896C304.516 81.808 305.652 86.336 305.652 92.48C305.652 98.624 304.516 103.168 302.244 106.112C299.972 109.024 296.468 110.48 291.732 110.48ZM291.732 104.576C294.196 104.576 295.988 103.616 297.108 101.696C298.228 99.744 298.788 96.672 298.788 92.48C298.788 88.256 298.228 85.184 297.108 83.264C295.988 81.344 294.196 80.384 291.732 80.384C289.3 80.384 287.524 81.344 286.404 83.264C285.284 85.184 284.724 88.256 284.724 92.48C284.724 96.672 285.284 99.744 286.404 101.696C287.524 103.616 289.3 104.576 291.732 104.576ZM320.618 110V99.056H309.626V93.104H320.618V82.16H326.57V93.104H337.514V99.056H326.57V110H320.618Z" fill="#00FF0D"/>
<path d="M214.268 144.16C213.009 144.16 211.921 143.92 211.004 143.44C210.097 142.96 209.399 142.272 208.908 141.376C208.428 140.48 208.188 139.408 208.188 138.16C208.188 136.912 208.428 135.84 208.908 134.944C209.399 134.048 210.097 133.36 211.004 132.88C211.921 132.4 213.009 132.16 214.268 132.16C215.708 132.16 216.988 132.48 218.108 133.12L217.676 134.688C216.599 134.069 215.484 133.76 214.332 133.76C213.447 133.76 212.679 133.936 212.028 134.288C211.377 134.64 210.876 135.147 210.524 135.808C210.183 136.459 210.012 137.243 210.012 138.16C210.012 139.067 210.183 139.851 210.524 140.512C210.876 141.173 211.377 141.68 212.028 142.032C212.679 142.384 213.447 142.56 214.332 142.56C215.452 142.56 216.567 142.251 217.676 141.632L218.108 143.2C216.988 143.84 215.708 144.16 214.268 144.16ZM220.438 144V132.32H222.198V144H220.438ZM224.876 134.08V132.32H226.636V134.08H224.876ZM224.876 144V135.68H226.636V144H224.876ZM233.12 144.16C231.68 144.16 230.571 143.787 229.792 143.04C229.013 142.293 228.624 141.227 228.624 139.84C228.624 138.496 228.981 137.44 229.696 136.672C230.421 135.904 231.413 135.52 232.672 135.52C233.888 135.52 234.821 135.883 235.472 136.608C236.133 137.333 236.464 138.363 236.464 139.696C236.464 139.835 236.459 139.989 236.448 140.16C236.448 140.331 236.443 140.464 236.432 140.56H229.584V139.2H235.12L234.848 139.616C234.848 138.709 234.667 138.037 234.304 137.6C233.941 137.152 233.397 136.928 232.672 136.928C231.904 136.928 231.317 137.163 230.912 137.632C230.517 138.101 230.32 138.784 230.32 139.68V140.16C230.32 141.024 230.544 141.669 230.992 142.096C231.451 142.512 232.139 142.72 233.056 142.72C233.504 142.72 233.979 142.677 234.48 142.592C234.992 142.496 235.445 142.373 235.84 142.224L236.064 143.616C235.659 143.787 235.195 143.92 234.672 144.016C234.16 144.112 233.643 144.16 233.12 144.16ZM238.295 144V135.68H239.943L239.959 136.672H239.991C240.321 136.288 240.721 136 241.191 135.808C241.66 135.616 242.204 135.52 242.823 135.52C243.847 135.52 244.599 135.792 245.079 136.336C245.569 136.88 245.815 137.728 245.815 138.88V144H244.087V139.2C244.087 138.432 243.943 137.867 243.655 137.504C243.377 137.141 242.94 136.96 242.343 136.96C241.895 136.96 241.495 137.051 241.143 137.232C240.791 137.413 240.513 137.659 240.311 137.968C240.119 138.277 240.023 138.635 240.023 139.04V144H238.295ZM251.396 144.16C250.436 144.16 249.743 143.963 249.316 143.568C248.9 143.163 248.692 142.507 248.692 141.6V137.12H246.772V135.68H248.692V132.96H250.436V135.68H253.332V137.12H250.436V141.12C250.436 141.685 250.532 142.08 250.724 142.304C250.916 142.528 251.258 142.64 251.748 142.64C251.994 142.64 252.239 142.619 252.484 142.576C252.74 142.533 252.97 142.475 253.172 142.4L253.332 143.872C252.991 143.979 252.66 144.053 252.34 144.096C252.031 144.139 251.716 144.16 251.396 144.16ZM259.011 144.16C257.571 144.16 256.461 143.787 255.683 143.04C254.904 142.293 254.515 141.227 254.515 139.84C254.515 138.496 254.872 137.44 255.587 136.672C256.312 135.904 257.304 135.52 258.563 135.52C259.779 135.52 260.712 135.883 261.363 136.608C262.024 137.333 262.355 138.363 262.355 139.696C262.355 139.835 262.349 139.989 262.339 140.16C262.339 140.331 262.333 140.464 262.323 140.56H255.475V139.2H261.011L260.739 139.616C260.739 138.709 260.557 138.037 260.195 137.6C259.832 137.152 259.288 136.928 258.563 136.928C257.795 136.928 257.208 137.163 256.803 137.632C256.408 138.101 256.211 138.784 256.211 139.68V140.16C256.211 141.024 256.435 141.669 256.883 142.096C257.341 142.512 258.029 142.72 258.947 142.72C259.395 142.72 259.869 142.677 260.371 142.592C260.883 142.496 261.336 142.373 261.731 142.224L261.955 143.616C261.549 143.787 261.085 143.92 260.563 144.016C260.051 144.112 259.533 144.16 259.011 144.16ZM266.889 144.16C266.516 144.16 266.126 144.133 265.721 144.08C265.326 144.037 264.948 143.973 264.585 143.888C264.222 143.792 263.902 143.685 263.625 143.568L263.865 142.16C264.334 142.331 264.809 142.469 265.289 142.576C265.769 142.672 266.244 142.72 266.713 142.72C267.332 142.72 267.79 142.635 268.089 142.464C268.398 142.283 268.553 142.016 268.553 141.664C268.553 141.461 268.5 141.296 268.393 141.168C268.286 141.029 268.1 140.907 267.833 140.8C267.566 140.683 267.198 140.571 266.729 140.464C266.089 140.304 265.529 140.117 265.049 139.904C264.58 139.691 264.217 139.419 263.961 139.088C263.705 138.757 263.577 138.341 263.577 137.84C263.577 137.083 263.865 136.507 264.441 136.112C265.028 135.717 265.87 135.52 266.969 135.52C267.481 135.52 268.004 135.563 268.537 135.648C269.081 135.733 269.577 135.856 270.025 136.016L269.769 137.424C269.342 137.264 268.91 137.147 268.473 137.072C268.046 136.997 267.614 136.96 267.177 136.96C266.548 136.96 266.078 137.04 265.769 137.2C265.47 137.349 265.321 137.579 265.321 137.888C265.321 138.069 265.369 138.224 265.465 138.352C265.572 138.48 265.753 138.597 266.009 138.704C266.265 138.811 266.622 138.917 267.081 139.024C267.55 139.131 267.977 139.259 268.361 139.408C268.756 139.557 269.097 139.739 269.385 139.952C269.673 140.155 269.897 140.4 270.057 140.688C270.217 140.976 270.297 141.317 270.297 141.712C270.297 142.224 270.158 142.661 269.881 143.024C269.614 143.387 269.225 143.669 268.713 143.872C268.212 144.064 267.604 144.16 266.889 144.16Z" fill="white"/>
<rect width="347" height="88" transform="translate(413 61)" fill="#3B3A65"/>
<path d="M555.32 110V82.448H555.224L543.32 89.504L541.4 83.648L555.32 74.96H562.184V110H555.32ZM585.262 110.48C580.526 110.48 577.022 109.024 574.75 106.112C572.478 103.168 571.342 98.624 571.342 92.48C571.342 86.336 572.478 81.808 574.75 78.896C577.022 75.952 580.526 74.48 585.262 74.48C589.998 74.48 593.502 75.952 595.774 78.896C598.046 81.808 599.182 86.336 599.182 92.48C599.182 98.624 598.046 103.168 595.774 106.112C593.502 109.024 589.998 110.48 585.262 110.48ZM585.262 104.576C587.726 104.576 589.518 103.616 590.638 101.696C591.758 99.744 592.318 96.672 592.318 92.48C592.318 88.256 591.758 85.184 590.638 83.264C589.518 81.344 587.726 80.384 585.262 80.384C582.83 80.384 581.054 81.344 579.934 83.264C578.814 85.184 578.254 88.256 578.254 92.48C578.254 96.672 578.814 99.744 579.934 101.696C581.054 103.616 582.83 104.576 585.262 104.576ZM614.148 110V99.056H603.156V93.104H614.148V82.16H620.1V93.104H631.044V99.056H620.1V110H614.148Z" fill="#00FF0D"/>
<path d="M508.208 144L512.464 132.32H514.848L519.088 144H517.152L513.664 133.824H513.632L510.144 144H508.208ZM510.416 141.072V139.472H516.896V141.072H510.416ZM520.685 144V135.68H522.333L522.349 136.672H522.381C522.712 136.288 523.112 136 523.581 135.808C524.05 135.616 524.594 135.52 525.213 135.52C526.237 135.52 526.989 135.792 527.469 136.336C527.96 136.88 528.205 137.728 528.205 138.88V144H526.477V139.2C526.477 138.432 526.333 137.867 526.045 137.504C525.768 137.141 525.33 136.96 524.733 136.96C524.285 136.96 523.885 137.051 523.533 137.232C523.181 137.413 522.904 137.659 522.701 137.968C522.509 138.277 522.413 138.635 522.413 139.04V144H520.685ZM533.987 144.16C532.664 144.16 531.64 143.787 530.915 143.04C530.19 142.283 529.827 141.216 529.827 139.84C529.827 138.464 530.19 137.403 530.915 136.656C531.64 135.899 532.664 135.52 533.987 135.52C535.31 135.52 536.334 135.899 537.059 136.656C537.784 137.403 538.147 138.464 538.147 139.84C538.147 141.216 537.784 142.283 537.059 143.04C536.334 143.787 535.31 144.16 533.987 144.16ZM533.987 142.72C534.776 142.72 535.379 142.475 535.795 141.984C536.211 141.493 536.419 140.779 536.419 139.84C536.419 138.901 536.211 138.187 535.795 137.696C535.379 137.205 534.776 136.96 533.987 136.96C533.208 136.96 532.606 137.205 532.179 137.696C531.763 138.187 531.555 138.901 531.555 139.84C531.555 140.779 531.763 141.493 532.179 141.984C532.606 142.475 533.208 142.72 533.987 142.72ZM542.702 144.16C542.328 144.16 541.939 144.133 541.534 144.08C541.139 144.037 540.76 143.973 540.398 143.888C540.035 143.792 539.715 143.685 539.438 143.568L539.678 142.16C540.147 142.331 540.622 142.469 541.102 142.576C541.582 142.672 542.056 142.72 542.526 142.72C543.144 142.72 543.603 142.635 543.902 142.464C544.211 142.283 544.366 142.016 544.366 141.664C544.366 141.461 544.312 141.296 544.206 141.168C544.099 141.029 543.912 140.907 543.646 140.8C543.379 140.683 543.011 140.571 542.542 140.464C541.902 140.304 541.342 140.117 540.862 139.904C540.392 139.691 540.03 139.419 539.774 139.088C539.518 138.757 539.39 138.341 539.39 137.84C539.39 137.083 539.678 136.507 540.254 136.112C540.84 135.717 541.683 135.52 542.782 135.52C543.294 135.52 543.816 135.563 544.35 135.648C544.894 135.733 545.39 135.856 545.838 136.016L545.582 137.424C545.155 137.264 544.723 137.147 544.286 137.072C543.859 136.997 543.427 136.96 542.99 136.96C542.36 136.96 541.891 137.04 541.582 137.2C541.283 137.349 541.134 137.579 541.134 137.888C541.134 138.069 541.182 138.224 541.278 138.352C541.384 138.48 541.566 138.597 541.822 138.704C542.078 138.811 542.435 138.917 542.894 139.024C543.363 139.131 543.79 139.259 544.174 139.408C544.568 139.557 544.91 139.739 545.198 139.952C545.486 140.155 545.71 140.4 545.87 140.688C546.03 140.976 546.11 141.317 546.11 141.712C546.11 142.224 545.971 142.661 545.694 143.024C545.427 143.387 545.038 143.669 544.526 143.872C544.024 144.064 543.416 144.16 542.702 144.16ZM555.395 144.16C554.285 144.16 553.416 143.781 552.787 143.024C552.157 142.256 551.843 141.195 551.843 139.84C551.843 138.485 552.157 137.429 552.787 136.672C553.416 135.904 554.285 135.52 555.395 135.52C555.96 135.52 556.472 135.621 556.931 135.824C557.4 136.016 557.784 136.299 558.083 136.672H558.115V132.32H559.843V144H558.195L558.179 143.008H558.147C557.848 143.371 557.453 143.653 556.963 143.856C556.483 144.059 555.96 144.16 555.395 144.16ZM555.779 142.72C556.237 142.72 556.637 142.629 556.979 142.448C557.331 142.267 557.608 142.016 557.811 141.696C558.013 141.376 558.115 141.019 558.115 140.624V139.056C558.115 138.651 558.013 138.293 557.811 137.984C557.608 137.664 557.331 137.413 556.979 137.232C556.637 137.051 556.243 136.96 555.795 136.96C555.08 136.96 554.525 137.211 554.131 137.712C553.736 138.203 553.539 138.912 553.539 139.84C553.539 140.757 553.736 141.467 554.131 141.968C554.525 142.469 555.075 142.72 555.779 142.72ZM566.198 144.16C564.758 144.16 563.649 143.787 562.87 143.04C562.091 142.293 561.702 141.227 561.702 139.84C561.702 138.496 562.059 137.44 562.774 136.672C563.499 135.904 564.491 135.52 565.75 135.52C566.966 135.52 567.899 135.883 568.55 136.608C569.211 137.333 569.542 138.363 569.542 139.696C569.542 139.835 569.537 139.989 569.526 140.16C569.526 140.331 569.521 140.464 569.51 140.56H562.662V139.2H568.198L567.926 139.616C567.926 138.709 567.745 138.037 567.382 137.6C567.019 137.152 566.475 136.928 565.75 136.928C564.982 136.928 564.395 137.163 563.99 137.632C563.595 138.101 563.398 138.784 563.398 139.68V140.16C563.398 141.024 563.622 141.669 564.07 142.096C564.529 142.512 565.217 142.72 566.134 142.72C566.582 142.72 567.057 142.677 567.558 142.592C568.07 142.496 568.523 142.373 568.918 142.224L569.142 143.616C568.737 143.787 568.273 143.92 567.75 144.016C567.238 144.112 566.721 144.16 566.198 144.16ZM575.985 144V132.32H583.665V133.888H577.745V137.12H583.345V138.656H577.745V142.432H583.665V144H575.985ZM585.028 144L587.764 139.808L585.06 135.68H587.044L588.932 138.88H588.964L590.852 135.68H592.836L590.132 139.808L592.868 144H590.884L588.964 140.736H588.932L587.012 144H585.028ZM599.055 135.52C600.164 135.52 601.034 135.904 601.663 136.672C602.292 137.429 602.607 138.485 602.607 139.84C602.607 141.195 602.292 142.256 601.663 143.024C601.034 143.781 600.164 144.16 599.055 144.16C598.5 144.16 597.988 144.059 597.519 143.856C597.05 143.653 596.666 143.371 596.367 143.008H596.335V147.36H594.607V135.68H596.255L596.271 136.672H596.303C596.612 136.299 597.007 136.016 597.487 135.824C597.967 135.621 598.49 135.52 599.055 135.52ZM598.655 136.96C598.218 136.96 597.823 137.051 597.471 137.232C597.119 137.413 596.842 137.664 596.639 137.984C596.436 138.293 596.335 138.651 596.335 139.056V140.624C596.335 141.019 596.436 141.376 596.639 141.696C596.842 142.016 597.119 142.267 597.471 142.448C597.823 142.629 598.218 142.72 598.655 142.72C599.38 142.72 599.935 142.469 600.319 141.968C600.714 141.467 600.911 140.757 600.911 139.84C600.911 138.923 600.714 138.213 600.319 137.712C599.935 137.211 599.38 136.96 598.655 136.96ZM608.433 144.16C606.993 144.16 605.883 143.787 605.105 143.04C604.326 142.293 603.937 141.227 603.937 139.84C603.937 138.496 604.294 137.44 605.009 136.672C605.734 135.904 606.726 135.52 607.985 135.52C609.201 135.52 610.134 135.883 610.785 136.608C611.446 137.333 611.777 138.363 611.777 139.696C611.777 139.835 611.771 139.989 611.76 140.16C611.76 140.331 611.755 140.464 611.745 140.56H604.897V139.2H610.433L610.161 139.616C610.161 138.709 609.979 138.037 609.617 137.6C609.254 137.152 608.71 136.928 607.985 136.928C607.217 136.928 606.63 137.163 606.225 137.632C605.83 138.101 605.633 138.784 605.633 139.68V140.16C605.633 141.024 605.857 141.669 606.305 142.096C606.763 142.512 607.451 142.72 608.369 142.72C608.817 142.72 609.291 142.677 609.793 142.592C610.305 142.496 610.758 142.373 611.153 142.224L611.377 143.616C610.971 143.787 610.507 143.92 609.985 144.016C609.473 144.112 608.955 144.16 608.433 144.16ZM613.607 144V135.68H615.271L615.287 137.28H615.319C615.586 136.907 615.906 136.592 616.279 136.336C616.663 136.069 617.09 135.867 617.559 135.728C618.039 135.589 618.535 135.52 619.047 135.52V137.04C618.364 137.04 617.74 137.173 617.175 137.44C616.62 137.707 616.178 138.064 615.847 138.512C615.516 138.96 615.351 139.456 615.351 140V144H613.607ZM620.548 134.08V132.32H622.308V134.08H620.548ZM620.548 144V135.68H622.308V144H620.548ZM628.792 144.16C627.352 144.16 626.243 143.787 625.464 143.04C624.685 142.293 624.296 141.227 624.296 139.84C624.296 138.496 624.653 137.44 625.368 136.672C626.093 135.904 627.085 135.52 628.344 135.52C629.56 135.52 630.493 135.883 631.144 136.608C631.805 137.333 632.136 138.363 632.136 139.696C632.136 139.835 632.131 139.989 632.12 140.16C632.12 140.331 632.115 140.464 632.104 140.56H625.256V139.2H630.792L630.52 139.616C630.52 138.709 630.339 138.037 629.976 137.6C629.613 137.152 629.069 136.928 628.344 136.928C627.576 136.928 626.989 137.163 626.584 137.632C626.189 138.101 625.992 138.784 625.992 139.68V140.16C625.992 141.024 626.216 141.669 626.664 142.096C627.123 142.512 627.811 142.72 628.728 142.72C629.176 142.72 629.651 142.677 630.152 142.592C630.664 142.496 631.117 142.373 631.512 142.224L631.736 143.616C631.331 143.787 630.867 143.92 630.344 144.016C629.832 144.112 629.315 144.16 628.792 144.16ZM624.728 134.88L627.192 131.36H629.32L631.8 134.88H629.72L628.28 132.64H628.248L626.808 134.88H624.728ZM633.966 144V135.68H635.614L635.63 136.672H635.662C635.993 136.288 636.393 136 636.862 135.808C637.332 135.616 637.876 135.52 638.494 135.52C639.518 135.52 640.27 135.792 640.75 136.336C641.241 136.88 641.486 137.728 641.486 138.88V144H639.758V139.2C639.758 138.432 639.614 137.867 639.326 137.504C639.049 137.141 638.612 136.96 638.014 136.96C637.566 136.96 637.166 137.051 636.814 137.232C636.462 137.413 636.185 137.659 635.982 137.968C635.79 138.277 635.694 138.635 635.694 139.04V144H633.966ZM647.604 144.16C646.666 144.16 645.86 143.989 645.188 143.648C644.516 143.307 643.999 142.816 643.636 142.176C643.284 141.525 643.108 140.747 643.108 139.84C643.108 138.933 643.284 138.16 643.636 137.52C643.999 136.869 644.516 136.373 645.188 136.032C645.86 135.691 646.666 135.52 647.604 135.52C648.074 135.52 648.516 135.568 648.932 135.664C649.348 135.749 649.754 135.899 650.148 136.112L649.844 137.504C649.482 137.312 649.124 137.173 648.772 137.088C648.42 137.003 648.068 136.96 647.716 136.96C646.81 136.96 646.106 137.211 645.604 137.712C645.114 138.213 644.868 138.923 644.868 139.84C644.868 140.747 645.114 141.456 645.604 141.968C646.106 142.469 646.81 142.72 647.716 142.72C648.068 142.72 648.42 142.677 648.772 142.592C649.124 142.507 649.482 142.368 649.844 142.176L650.148 143.568C649.754 143.771 649.348 143.92 648.932 144.016C648.516 144.112 648.074 144.16 647.604 144.16ZM652.501 134.08V132.32H654.261V134.08H652.501ZM652.501 144V135.68H654.261V144H652.501ZM658.809 144.16C657.977 144.16 657.321 143.936 656.841 143.488C656.361 143.029 656.121 142.411 656.121 141.632C656.121 140.661 656.505 139.915 657.273 139.392C658.041 138.859 659.134 138.592 660.553 138.592H661.753C661.753 138.165 661.7 137.835 661.593 137.6C661.486 137.365 661.3 137.2 661.033 137.104C660.777 137.008 660.42 136.96 659.961 136.96C659.417 136.96 658.862 137.013 658.297 137.12C657.742 137.227 657.214 137.387 656.713 137.6L656.473 136.176C657.006 135.973 657.593 135.813 658.233 135.696C658.884 135.579 659.534 135.52 660.185 135.52C661.017 135.52 661.668 135.621 662.137 135.824C662.617 136.027 662.958 136.368 663.161 136.848C663.374 137.328 663.481 137.963 663.481 138.752V144H661.833L661.817 143.04H661.785C661.497 143.371 661.07 143.643 660.505 143.856C659.95 144.059 659.385 144.16 658.809 144.16ZM659.417 142.752C659.844 142.752 660.233 142.672 660.585 142.512C660.948 142.352 661.23 142.139 661.433 141.872C661.646 141.605 661.753 141.307 661.753 140.976V139.904H660.793C659.812 139.904 659.076 140.032 658.585 140.288C658.094 140.544 657.849 140.933 657.849 141.456C657.849 141.861 657.982 142.181 658.249 142.416C658.526 142.64 658.916 142.752 659.417 142.752Z" fill="white"/>
<rect width="348" height="88" transform="translate(760 61)" fill="#3B3A65"/>
<path d="M864.612 110V82.448H864.516L852.612 89.504L850.692 83.648L864.612 74.96H871.476V110H864.612ZM883.13 110V102.656H890.474V110H883.13ZM907.974 110.48C905.926 110.48 904.086 110.288 902.454 109.904C900.854 109.52 899.27 108.944 897.702 108.176L899.286 102.56C900.886 103.328 902.326 103.888 903.606 104.24C904.886 104.56 906.23 104.72 907.638 104.72C910.326 104.72 912.374 104.176 913.782 103.088C915.222 101.968 915.942 100.368 915.942 98.288C915.942 96.528 915.414 95.2 914.358 94.304C913.334 93.376 911.846 92.912 909.894 92.912C908.774 92.912 907.83 93.104 907.062 93.488C906.326 93.84 905.606 94.464 904.902 95.36H898.662L899.766 74.96H921.174V80.72H905.814L905.382 88.592H905.478C906.406 88.176 907.302 87.872 908.166 87.68C909.03 87.488 909.99 87.392 911.046 87.392C914.758 87.392 917.638 88.368 919.686 90.32C921.766 92.272 922.806 95.024 922.806 98.576C922.806 102.416 921.526 105.36 918.966 107.408C916.438 109.456 912.774 110.48 907.974 110.48ZM940.508 110.48C935.772 110.48 932.268 109.024 929.996 106.112C927.724 103.168 926.588 98.624 926.588 92.48C926.588 86.336 927.724 81.808 929.996 78.896C932.268 75.952 935.772 74.48 940.508 74.48C945.244 74.48 948.748 75.952 951.02 78.896C953.292 81.808 954.428 86.336 954.428 92.48C954.428 98.624 953.292 103.168 951.02 106.112C948.748 109.024 945.244 110.48 940.508 110.48ZM940.508 104.576C942.972 104.576 944.764 103.616 945.884 101.696C947.004 99.744 947.564 96.672 947.564 92.48C947.564 88.256 947.004 85.184 945.884 83.264C944.764 81.344 942.972 80.384 940.508 80.384C938.076 80.384 936.3 81.344 935.18 83.264C934.06 85.184 933.5 88.256 933.5 92.48C933.5 96.672 934.06 99.744 935.18 101.696C936.3 103.616 938.076 104.576 940.508 104.576ZM971.266 110.48C966.53 110.48 963.026 109.024 960.754 106.112C958.482 103.168 957.346 98.624 957.346 92.48C957.346 86.336 958.482 81.808 960.754 78.896C963.026 75.952 966.53 74.48 971.266 74.48C976.002 74.48 979.506 75.952 981.778 78.896C984.05 81.808 985.186 86.336 985.186 92.48C985.186 98.624 984.05 103.168 981.778 106.112C979.506 109.024 976.002 110.48 971.266 110.48ZM971.266 104.576C973.73 104.576 975.522 103.616 976.642 101.696C977.762 99.744 978.322 96.672 978.322 92.48C978.322 88.256 977.762 85.184 976.642 83.264C975.522 81.344 973.73 80.384 971.266 80.384C968.834 80.384 967.058 81.344 965.938 83.264C964.818 85.184 964.258 88.256 964.258 92.48C964.258 96.672 964.818 99.744 965.938 101.696C967.058 103.616 968.834 104.576 971.266 104.576ZM1000.15 110V99.056H989.16V93.104H1000.15V82.16H1006.1V93.104H1017.05V99.056H1006.1V110H1000.15Z" fill="#00FF0D"/>
<path d="M895.768 144.16C894.509 144.16 893.421 143.92 892.504 143.44C891.597 142.96 890.899 142.272 890.408 141.376C889.928 140.48 889.688 139.408 889.688 138.16C889.688 136.912 889.928 135.84 890.408 134.944C890.899 134.048 891.597 133.36 892.504 132.88C893.421 132.4 894.509 132.16 895.768 132.16C897.208 132.16 898.488 132.48 899.608 133.12L899.176 134.688C898.099 134.069 896.984 133.76 895.832 133.76C894.947 133.76 894.179 133.936 893.528 134.288C892.877 134.64 892.376 135.147 892.024 135.808C891.683 136.459 891.512 137.243 891.512 138.16C891.512 139.067 891.683 139.851 892.024 140.512C892.376 141.173 892.877 141.68 893.528 142.032C894.179 142.384 894.947 142.56 895.832 142.56C896.952 142.56 898.067 142.251 899.176 141.632L899.608 143.2C898.488 143.84 897.208 144.16 895.768 144.16ZM904.815 144.16C903.493 144.16 902.469 143.787 901.743 143.04C901.018 142.283 900.655 141.216 900.655 139.84C900.655 138.464 901.018 137.403 901.743 136.656C902.469 135.899 903.493 135.52 904.815 135.52C906.138 135.52 907.162 135.899 907.887 136.656C908.613 137.403 908.975 138.464 908.975 139.84C908.975 141.216 908.613 142.283 907.887 143.04C907.162 143.787 906.138 144.16 904.815 144.16ZM904.815 142.72C905.605 142.72 906.207 142.475 906.623 141.984C907.039 141.493 907.247 140.779 907.247 139.84C907.247 138.901 907.039 138.187 906.623 137.696C906.207 137.205 905.605 136.96 904.815 136.96C904.037 136.96 903.434 137.205 903.007 137.696C902.591 138.187 902.383 138.901 902.383 139.84C902.383 140.779 902.591 141.493 903.007 141.984C903.434 142.475 904.037 142.72 904.815 142.72ZM910.826 144V135.68H912.474L912.49 136.672H912.522C912.852 136.288 913.252 136 913.722 135.808C914.191 135.616 914.735 135.52 915.354 135.52C916.378 135.52 917.13 135.792 917.61 136.336C918.1 136.88 918.346 137.728 918.346 138.88V144H916.618V139.2C916.618 138.432 916.474 137.867 916.186 137.504C915.908 137.141 915.471 136.96 914.874 136.96C914.426 136.96 914.026 137.051 913.674 137.232C913.322 137.413 913.044 137.659 912.842 137.968C912.65 138.277 912.554 138.635 912.554 139.04V144H910.826ZM923.928 144.16C922.968 144.16 922.274 143.963 921.848 143.568C921.432 143.163 921.224 142.507 921.224 141.6V137.12H919.304V135.68H921.224V132.96H922.968V135.68H925.864V137.12H922.968V141.12C922.968 141.685 923.064 142.08 923.256 142.304C923.448 142.528 923.789 142.64 924.28 142.64C924.525 142.64 924.77 142.619 925.016 142.576C925.272 142.533 925.501 142.475 925.704 142.4L925.864 143.872C925.522 143.979 925.192 144.053 924.872 144.096C924.562 144.139 924.248 144.16 923.928 144.16ZM927.888 144V135.68H929.552L929.568 137.28H929.6C929.867 136.907 930.187 136.592 930.56 136.336C930.944 136.069 931.371 135.867 931.84 135.728C932.32 135.589 932.816 135.52 933.328 135.52V137.04C932.646 137.04 932.022 137.173 931.456 137.44C930.902 137.707 930.459 138.064 930.128 138.512C929.798 138.96 929.632 139.456 929.632 140V144H927.888ZM936.653 144.16C935.821 144.16 935.165 143.936 934.685 143.488C934.205 143.029 933.965 142.411 933.965 141.632C933.965 140.661 934.349 139.915 935.117 139.392C935.885 138.859 936.978 138.592 938.397 138.592H939.597C939.597 138.165 939.543 137.835 939.437 137.6C939.33 137.365 939.143 137.2 938.877 137.104C938.621 137.008 938.263 136.96 937.805 136.96C937.261 136.96 936.706 137.013 936.141 137.12C935.586 137.227 935.058 137.387 934.557 137.6L934.317 136.176C934.85 135.973 935.437 135.813 936.077 135.696C936.727 135.579 937.378 135.52 938.029 135.52C938.861 135.52 939.511 135.621 939.981 135.824C940.461 136.027 940.802 136.368 941.005 136.848C941.218 137.328 941.325 137.963 941.325 138.752V144H939.677L939.661 143.04H939.629C939.341 143.371 938.914 143.643 938.349 143.856C937.794 144.059 937.229 144.16 936.653 144.16ZM937.261 142.752C937.687 142.752 938.077 142.672 938.429 142.512C938.791 142.352 939.074 142.139 939.277 141.872C939.49 141.605 939.597 141.307 939.597 140.976V139.904H938.637C937.655 139.904 936.919 140.032 936.429 140.288C935.938 140.544 935.693 140.933 935.693 141.456C935.693 141.861 935.826 142.181 936.093 142.416C936.37 142.64 936.759 142.752 937.261 142.752ZM946.896 144.16C945.936 144.16 945.243 143.963 944.816 143.568C944.4 143.163 944.192 142.507 944.192 141.6V137.12H942.272V135.68H944.192V132.96H945.936V135.68H948.832V137.12H945.936V141.12C945.936 141.685 946.032 142.08 946.224 142.304C946.416 142.528 946.758 142.64 947.248 142.64C947.494 142.64 947.739 142.619 947.984 142.576C948.24 142.533 948.47 142.475 948.672 142.4L948.832 143.872C948.491 143.979 948.16 144.053 947.84 144.096C947.531 144.139 947.216 144.16 946.896 144.16ZM954.175 144.16C952.852 144.16 951.828 143.787 951.103 143.04C950.377 142.283 950.015 141.216 950.015 139.84C950.015 138.464 950.377 137.403 951.103 136.656C951.828 135.899 952.852 135.52 954.175 135.52C955.497 135.52 956.521 135.899 957.247 136.656C957.972 137.403 958.335 138.464 958.335 139.84C958.335 141.216 957.972 142.283 957.247 143.04C956.521 143.787 955.497 144.16 954.175 144.16ZM954.175 142.72C954.964 142.72 955.567 142.475 955.983 141.984C956.399 141.493 956.607 140.779 956.607 139.84C956.607 138.901 956.399 138.187 955.983 137.696C955.567 137.205 954.964 136.96 954.175 136.96C953.396 136.96 952.793 137.205 952.367 137.696C951.951 138.187 951.743 138.901 951.743 139.84C951.743 140.779 951.951 141.493 952.367 141.984C952.793 142.475 953.396 142.72 954.175 142.72ZM962.889 144.16C962.516 144.16 962.126 144.133 961.721 144.08C961.326 144.037 960.948 143.973 960.585 143.888C960.222 143.792 959.902 143.685 959.625 143.568L959.865 142.16C960.334 142.331 960.809 142.469 961.289 142.576C961.769 142.672 962.244 142.72 962.713 142.72C963.332 142.72 963.79 142.635 964.089 142.464C964.398 142.283 964.553 142.016 964.553 141.664C964.553 141.461 964.5 141.296 964.393 141.168C964.286 141.029 964.1 140.907 963.833 140.8C963.566 140.683 963.198 140.571 962.729 140.464C962.089 140.304 961.529 140.117 961.049 139.904C960.58 139.691 960.217 139.419 959.961 139.088C959.705 138.757 959.577 138.341 959.577 137.84C959.577 137.083 959.865 136.507 960.441 136.112C961.028 135.717 961.87 135.52 962.969 135.52C963.481 135.52 964.004 135.563 964.537 135.648C965.081 135.733 965.577 135.856 966.025 136.016L965.769 137.424C965.342 137.264 964.91 137.147 964.473 137.072C964.046 136.997 963.614 136.96 963.177 136.96C962.548 136.96 962.078 137.04 961.769 137.2C961.47 137.349 961.321 137.579 961.321 137.888C961.321 138.069 961.369 138.224 961.465 138.352C961.572 138.48 961.753 138.597 962.009 138.704C962.265 138.811 962.622 138.917 963.081 139.024C963.55 139.131 963.977 139.259 964.361 139.408C964.756 139.557 965.097 139.739 965.385 139.952C965.673 140.155 965.897 140.4 966.057 140.688C966.217 140.976 966.297 141.317 966.297 141.712C966.297 142.224 966.158 142.661 965.881 143.024C965.614 143.387 965.225 143.669 964.713 143.872C964.212 144.064 963.604 144.16 962.889 144.16Z" fill="white"/>
<rect width="347" height="88" transform="translate(1108 61)" fill="#3B3A65"/>
<path d="M1237.22 104.144C1240.35 101.808 1242.99 99.728 1245.14 97.904C1247.31 96.08 1249.06 94.448 1250.37 93.008C1251.68 91.536 1252.64 90.192 1253.25 88.976C1253.86 87.76 1254.16 86.592 1254.16 85.472C1254.16 82.08 1252.26 80.384 1248.45 80.384C1245.34 80.384 1241.82 81.68 1237.89 84.272L1236.02 78.608C1239.73 75.856 1244.21 74.48 1249.46 74.48C1253.26 74.48 1256.14 75.344 1258.1 77.072C1260.05 78.8 1261.02 81.344 1261.02 84.704C1261.02 86.24 1260.75 87.76 1260.21 89.264C1259.7 90.768 1258.86 92.304 1257.71 93.872C1256.56 95.408 1255.09 97.024 1253.3 98.72C1251.54 100.384 1249.39 102.16 1246.86 104.048V104.144H1261.36V110H1237.22V104.144ZM1278.49 110.48C1276.44 110.48 1274.6 110.288 1272.97 109.904C1271.37 109.52 1269.78 108.944 1268.21 108.176L1269.8 102.56C1271.4 103.328 1272.84 103.888 1274.12 104.24C1275.4 104.56 1276.74 104.72 1278.15 104.72C1280.84 104.72 1282.89 104.176 1284.29 103.088C1285.73 101.968 1286.45 100.368 1286.45 98.288C1286.45 96.528 1285.93 95.2 1284.87 94.304C1283.85 93.376 1282.36 92.912 1280.41 92.912C1279.29 92.912 1278.34 93.104 1277.57 93.488C1276.84 93.84 1276.12 94.464 1275.41 95.36H1269.17L1270.28 74.96H1291.69V80.72H1276.33L1275.89 88.592H1275.99C1276.92 88.176 1277.81 87.872 1278.68 87.68C1279.54 87.488 1280.5 87.392 1281.56 87.392C1285.27 87.392 1288.15 88.368 1290.2 90.32C1292.28 92.272 1293.32 95.024 1293.32 98.576C1293.32 102.416 1292.04 105.36 1289.48 107.408C1286.95 109.456 1283.29 110.48 1278.49 110.48ZM1309.15 110V99.056H1298.16V93.104H1309.15V82.16H1315.1V93.104H1326.04V99.056H1315.1V110H1309.15Z" fill="#00FF0D"/>
<path d="M1258.36 144V132.32H1261.72C1263.46 132.32 1264.74 132.64 1265.58 133.28C1266.42 133.909 1266.84 134.885 1266.84 136.208C1266.84 137.509 1266.43 138.485 1265.62 139.136C1264.82 139.776 1263.6 140.096 1261.96 140.096H1259.24V138.496H1261.75C1262.9 138.496 1263.74 138.315 1264.26 137.952C1264.79 137.589 1265.05 137.008 1265.05 136.208C1265.05 135.408 1264.79 134.827 1264.26 134.464C1263.74 134.101 1262.9 133.92 1261.75 133.92H1260.12V144H1258.36ZM1270.03 144.16C1269.2 144.16 1268.54 143.936 1268.06 143.488C1267.58 143.029 1267.34 142.411 1267.34 141.632C1267.34 140.661 1267.72 139.915 1268.49 139.392C1269.26 138.859 1270.35 138.592 1271.77 138.592H1272.97C1272.97 138.165 1272.92 137.835 1272.81 137.6C1272.71 137.365 1272.52 137.2 1272.25 137.104C1272 137.008 1271.64 136.96 1271.18 136.96C1270.64 136.96 1270.08 137.013 1269.52 137.12C1268.96 137.227 1268.43 137.387 1267.93 137.6L1267.69 136.176C1268.23 135.973 1268.81 135.813 1269.45 135.696C1270.1 135.579 1270.75 135.52 1271.4 135.52C1272.24 135.52 1272.89 135.621 1273.36 135.824C1273.84 136.027 1274.18 136.368 1274.38 136.848C1274.59 137.328 1274.7 137.963 1274.7 138.752V144H1273.05L1273.04 143.04H1273C1272.72 143.371 1272.29 143.643 1271.72 143.856C1271.17 144.059 1270.6 144.16 1270.03 144.16ZM1270.64 142.752C1271.06 142.752 1271.45 142.672 1271.8 142.512C1272.17 142.352 1272.45 142.139 1272.65 141.872C1272.87 141.605 1272.97 141.307 1272.97 140.976V139.904H1272.01C1271.03 139.904 1270.29 140.032 1269.8 140.288C1269.31 140.544 1269.07 140.933 1269.07 141.456C1269.07 141.861 1269.2 142.181 1269.47 142.416C1269.75 142.64 1270.13 142.752 1270.64 142.752ZM1277.05 144V135.68H1278.81V144H1277.05ZM1278.81 134.88H1277.05L1278.5 131.36H1280.74L1278.81 134.88ZM1284.11 144.16C1283.73 144.16 1283.35 144.133 1282.94 144.08C1282.55 144.037 1282.17 143.973 1281.8 143.888C1281.44 143.792 1281.12 143.685 1280.84 143.568L1281.08 142.16C1281.55 142.331 1282.03 142.469 1282.51 142.576C1282.99 142.672 1283.46 142.72 1283.93 142.72C1284.55 142.72 1285.01 142.635 1285.31 142.464C1285.62 142.283 1285.77 142.016 1285.77 141.664C1285.77 141.461 1285.72 141.296 1285.61 141.168C1285.51 141.029 1285.32 140.907 1285.05 140.8C1284.79 140.683 1284.42 140.571 1283.95 140.464C1283.31 140.304 1282.75 140.117 1282.27 139.904C1281.8 139.691 1281.44 139.419 1281.18 139.088C1280.92 138.757 1280.8 138.341 1280.8 137.84C1280.8 137.083 1281.08 136.507 1281.66 136.112C1282.25 135.717 1283.09 135.52 1284.19 135.52C1284.7 135.52 1285.22 135.563 1285.76 135.648C1286.3 135.733 1286.8 135.856 1287.24 136.016L1286.99 137.424C1286.56 137.264 1286.13 137.147 1285.69 137.072C1285.27 136.997 1284.83 136.96 1284.4 136.96C1283.77 136.96 1283.3 137.04 1282.99 137.2C1282.69 137.349 1282.54 137.579 1282.54 137.888C1282.54 138.069 1282.59 138.224 1282.68 138.352C1282.79 138.48 1282.97 138.597 1283.23 138.704C1283.48 138.811 1283.84 138.917 1284.3 139.024C1284.77 139.131 1285.2 139.259 1285.58 139.408C1285.97 139.557 1286.32 139.739 1286.6 139.952C1286.89 140.155 1287.12 140.4 1287.28 140.688C1287.44 140.976 1287.52 141.317 1287.52 141.712C1287.52 142.224 1287.38 142.661 1287.1 143.024C1286.83 143.387 1286.44 143.669 1285.93 143.872C1285.43 144.064 1284.82 144.16 1284.11 144.16ZM1293.26 144.16C1291.82 144.16 1290.71 143.787 1289.93 143.04C1289.15 142.293 1288.76 141.227 1288.76 139.84C1288.76 138.496 1289.12 137.44 1289.84 136.672C1290.56 135.904 1291.55 135.52 1292.81 135.52C1294.03 135.52 1294.96 135.883 1295.61 136.608C1296.27 137.333 1296.6 138.363 1296.6 139.696C1296.6 139.835 1296.6 139.989 1296.59 140.16C1296.59 140.331 1296.58 140.464 1296.57 140.56H1289.72V139.2H1295.26L1294.99 139.616C1294.99 138.709 1294.81 138.037 1294.44 137.6C1294.08 137.152 1293.54 136.928 1292.81 136.928C1292.04 136.928 1291.46 137.163 1291.05 137.632C1290.66 138.101 1290.46 138.784 1290.46 139.68V140.16C1290.46 141.024 1290.68 141.669 1291.13 142.096C1291.59 142.512 1292.28 142.72 1293.2 142.72C1293.64 142.72 1294.12 142.677 1294.62 142.592C1295.13 142.496 1295.59 142.373 1295.98 142.224L1296.2 143.616C1295.8 143.787 1295.34 143.92 1294.81 144.016C1294.3 144.112 1293.78 144.16 1293.26 144.16ZM1301.14 144.16C1300.77 144.16 1300.38 144.133 1299.97 144.08C1299.58 144.037 1299.2 143.973 1298.84 143.888C1298.47 143.792 1298.15 143.685 1297.88 143.568L1298.12 142.16C1298.58 142.331 1299.06 142.469 1299.54 142.576C1300.02 142.672 1300.49 142.72 1300.96 142.72C1301.58 142.72 1302.04 142.635 1302.34 142.464C1302.65 142.283 1302.8 142.016 1302.8 141.664C1302.8 141.461 1302.75 141.296 1302.64 141.168C1302.54 141.029 1302.35 140.907 1302.08 140.8C1301.82 140.683 1301.45 140.571 1300.98 140.464C1300.34 140.304 1299.78 140.117 1299.3 139.904C1298.83 139.691 1298.47 139.419 1298.21 139.088C1297.96 138.757 1297.83 138.341 1297.83 137.84C1297.83 137.083 1298.12 136.507 1298.69 136.112C1299.28 135.717 1300.12 135.52 1301.22 135.52C1301.73 135.52 1302.25 135.563 1302.79 135.648C1303.33 135.733 1303.83 135.856 1304.28 136.016L1304.02 137.424C1303.59 137.264 1303.16 137.147 1302.72 137.072C1302.3 136.997 1301.86 136.96 1301.43 136.96C1300.8 136.96 1300.33 137.04 1300.02 137.2C1299.72 137.349 1299.57 137.579 1299.57 137.888C1299.57 138.069 1299.62 138.224 1299.72 138.352C1299.82 138.48 1300 138.597 1300.26 138.704C1300.52 138.811 1300.87 138.917 1301.33 139.024C1301.8 139.131 1302.23 139.259 1302.61 139.408C1303.01 139.557 1303.35 139.739 1303.64 139.952C1303.92 140.155 1304.15 140.4 1304.31 140.688C1304.47 140.976 1304.55 141.317 1304.55 141.712C1304.55 142.224 1304.41 142.661 1304.13 143.024C1303.86 143.387 1303.48 143.669 1302.96 143.872C1302.46 144.064 1301.85 144.16 1301.14 144.16Z" fill="white"/>
</svg>
