<svg width="900" height="400" viewBox="0 0 900 400" fill="none" xmlns="http://www.w3.org/2000/svg">
<rect width="900" height="400" rx="20" fill="url(#paint0_radial_320_2666)"/>
<g clip-path="url(#clip0_320_2666)">
<path d="M34.9722 364.757L31.6522 359.057H29.4522V364.757H27.6322V350.817H32.1322C33.1855 350.817 34.0722 350.997 34.7922 351.357C35.5255 351.717 36.0722 352.204 36.4322 352.817C36.7922 353.43 36.9722 354.13 36.9722 354.917C36.9722 355.877 36.6922 356.724 36.1322 357.457C35.5855 358.19 34.7589 358.677 33.6522 358.917L37.1522 364.757H34.9722ZM29.4522 357.597H32.1322C33.1189 357.597 33.8589 357.357 34.3522 356.877C34.8455 356.384 35.0922 355.73 35.0922 354.917C35.0922 354.09 34.8455 353.45 34.3522 352.997C33.8722 352.544 33.1322 352.317 32.1322 352.317H29.4522V357.597ZM48.8002 360.937C48.8002 361.577 48.6402 362.19 48.3202 362.777C48.0002 363.35 47.5268 363.83 46.9002 364.217C46.2868 364.604 45.5468 364.824 44.6802 364.877V366.497H43.6002V364.877C42.3868 364.77 41.4002 364.384 40.6402 363.717C39.8802 363.037 39.4935 362.177 39.4802 361.137H41.4202C41.4735 361.697 41.6802 362.184 42.0402 362.597C42.4135 363.01 42.9335 363.27 43.6002 363.377V358.377C42.7068 358.15 41.9868 357.917 41.4402 357.677C40.8935 357.437 40.4268 357.064 40.0402 356.557C39.6535 356.05 39.4602 355.37 39.4602 354.517C39.4602 353.437 39.8335 352.544 40.5802 351.837C41.3402 351.13 42.3468 350.737 43.6002 350.657V348.997H44.6802V350.657C45.8135 350.75 46.7268 351.117 47.4202 351.757C48.1135 352.384 48.5135 353.204 48.6202 354.217H46.6802C46.6135 353.75 46.4068 353.33 46.0602 352.957C45.7135 352.57 45.2535 352.317 44.6802 352.197V357.077C45.5602 357.304 46.2735 357.537 46.8202 357.777C47.3802 358.004 47.8468 358.37 48.2202 358.877C48.6068 359.384 48.8002 360.07 48.8002 360.937ZM41.3202 354.417C41.3202 355.07 41.5135 355.57 41.9002 355.917C42.2868 356.264 42.8535 356.55 43.6002 356.777V352.157C42.9068 352.224 42.3535 352.45 41.9402 352.837C41.5268 353.21 41.3202 353.737 41.3202 354.417ZM44.6802 363.397C45.4002 363.317 45.9602 363.057 46.3602 362.617C46.7735 362.177 46.9802 361.65 46.9802 361.037C46.9802 360.384 46.7802 359.884 46.3802 359.537C45.9802 359.177 45.4135 358.89 44.6802 358.677V363.397ZM51.5016 361.537V360.157L58.5216 350.437H60.7016V359.957H62.7016V361.537H60.7016V364.757H58.9016V361.537H51.5016ZM58.9816 352.337L53.6016 359.957H58.9816V352.337ZM66.8597 360.877C66.993 361.637 67.2997 362.224 67.7797 362.637C68.273 363.05 68.933 363.257 69.7597 363.257C70.8664 363.257 71.6797 362.824 72.1997 361.957C72.733 361.09 72.9864 359.63 72.9597 357.577C72.6797 358.177 72.213 358.65 71.5597 358.997C70.9064 359.33 70.1797 359.497 69.3797 359.497C68.4864 359.497 67.6864 359.317 66.9797 358.957C66.2864 358.584 65.7397 358.044 65.3397 357.337C64.9397 356.63 64.7397 355.777 64.7397 354.777C64.7397 353.35 65.153 352.204 65.9797 351.337C66.8064 350.457 67.9797 350.017 69.4997 350.017C71.3664 350.017 72.673 350.624 73.4197 351.837C74.1797 353.05 74.5597 354.857 74.5597 357.257C74.5597 358.937 74.4064 360.324 74.0997 361.417C73.8064 362.51 73.2997 363.344 72.5797 363.917C71.873 364.49 70.8997 364.777 69.6597 364.777C68.2997 364.777 67.2397 364.41 66.4797 363.677C65.7197 362.944 65.2864 362.01 65.1797 360.877H66.8597ZM69.6797 357.957C70.573 357.957 71.3064 357.684 71.8797 357.137C72.453 356.577 72.7397 355.824 72.7397 354.877C72.7397 353.877 72.4597 353.07 71.8997 352.457C71.3397 351.844 70.553 351.537 69.5397 351.537C68.6064 351.537 67.8597 351.83 67.2997 352.417C66.753 353.004 66.4797 353.777 66.4797 354.737C66.4797 355.71 66.753 356.49 67.2997 357.077C67.8464 357.664 68.6397 357.957 69.6797 357.957ZM77.9973 364.877C77.6507 364.877 77.3573 364.757 77.1173 364.517C76.8773 364.277 76.7573 363.984 76.7573 363.637C76.7573 363.29 76.8773 362.997 77.1173 362.757C77.3573 362.517 77.6507 362.397 77.9973 362.397C78.3307 362.397 78.6107 362.517 78.8373 362.757C79.0773 362.997 79.1974 363.29 79.1974 363.637C79.1974 363.984 79.0773 364.277 78.8373 364.517C78.6107 364.757 78.3307 364.877 77.9973 364.877ZM90.2166 351.717L84.6566 364.757H82.8166L88.4566 351.897H80.7366V350.337H90.2166V351.717ZM91.7945 361.537V360.157L98.8145 350.437H100.995V359.957H102.995V361.537H100.995V364.757H99.1945V361.537H91.7945ZM99.2745 352.337L93.8945 359.957H99.2745V352.337ZM104.593 363.297C106.286 361.937 107.613 360.824 108.573 359.957C109.533 359.077 110.339 358.164 110.993 357.217C111.659 356.257 111.993 355.317 111.993 354.397C111.993 353.53 111.779 352.85 111.353 352.357C110.939 351.85 110.266 351.597 109.333 351.597C108.426 351.597 107.719 351.884 107.213 352.457C106.719 353.017 106.453 353.77 106.413 354.717H104.653C104.706 353.224 105.159 352.07 106.013 351.257C106.866 350.444 107.966 350.037 109.313 350.037C110.686 350.037 111.773 350.417 112.573 351.177C113.386 351.937 113.793 352.984 113.793 354.317C113.793 355.424 113.459 356.504 112.793 357.557C112.139 358.597 111.393 359.517 110.553 360.317C109.713 361.104 108.639 362.024 107.333 363.077H114.213V364.597H104.593V363.297ZM118.497 362.237L116.257 367.617H115.037L116.497 362.237H118.497ZM122.621 360.877C122.755 361.637 123.061 362.224 123.541 362.637C124.035 363.05 124.695 363.257 125.521 363.257C126.628 363.257 127.441 362.824 127.961 361.957C128.495 361.09 128.748 359.63 128.721 357.577C128.441 358.177 127.975 358.65 127.321 358.997C126.668 359.33 125.941 359.497 125.141 359.497C124.248 359.497 123.448 359.317 122.741 358.957C122.048 358.584 121.501 358.044 121.101 357.337C120.701 356.63 120.501 355.777 120.501 354.777C120.501 353.35 120.915 352.204 121.741 351.337C122.568 350.457 123.741 350.017 125.261 350.017C127.128 350.017 128.435 350.624 129.181 351.837C129.941 353.05 130.321 354.857 130.321 357.257C130.321 358.937 130.168 360.324 129.861 361.417C129.568 362.51 129.061 363.344 128.341 363.917C127.635 364.49 126.661 364.777 125.421 364.777C124.061 364.777 123.001 364.41 122.241 363.677C121.481 362.944 121.048 362.01 120.941 360.877H122.621ZM125.441 357.957C126.335 357.957 127.068 357.684 127.641 357.137C128.215 356.577 128.501 355.824 128.501 354.877C128.501 353.877 128.221 353.07 127.661 352.457C127.101 351.844 126.315 351.537 125.301 351.537C124.368 351.537 123.621 351.83 123.061 352.417C122.515 353.004 122.241 353.777 122.241 354.737C122.241 355.71 122.515 356.49 123.061 357.077C123.608 357.664 124.401 357.957 125.441 357.957ZM135.519 357.237C134.772 356.944 134.199 356.517 133.799 355.957C133.399 355.397 133.199 354.717 133.199 353.917C133.199 353.197 133.379 352.55 133.739 351.977C134.099 351.39 134.632 350.93 135.339 350.597C136.059 350.25 136.926 350.077 137.939 350.077C138.952 350.077 139.812 350.25 140.519 350.597C141.239 350.93 141.779 351.39 142.139 351.977C142.512 352.55 142.699 353.197 142.699 353.917C142.699 354.69 142.492 355.37 142.079 355.957C141.666 356.53 141.099 356.957 140.379 357.237C141.206 357.49 141.859 357.937 142.339 358.577C142.832 359.204 143.079 359.964 143.079 360.857C143.079 361.724 142.866 362.484 142.439 363.137C142.012 363.777 141.406 364.277 140.619 364.637C139.846 364.984 138.952 365.157 137.939 365.157C136.926 365.157 136.032 364.984 135.259 364.637C134.499 364.277 133.906 363.777 133.479 363.137C133.052 362.484 132.839 361.724 132.839 360.857C132.839 359.964 133.079 359.197 133.559 358.557C134.039 357.917 134.692 357.477 135.519 357.237ZM140.939 354.137C140.939 353.324 140.672 352.697 140.139 352.257C139.606 351.817 138.872 351.597 137.939 351.597C137.019 351.597 136.292 351.817 135.759 352.257C135.226 352.697 134.959 353.33 134.959 354.157C134.959 354.904 135.232 355.504 135.779 355.957C136.339 356.41 137.059 356.637 137.939 356.637C138.832 356.637 139.552 356.41 140.099 355.957C140.659 355.49 140.939 354.884 140.939 354.137ZM137.939 358.037C136.952 358.037 136.146 358.27 135.519 358.737C134.892 359.19 134.579 359.877 134.579 360.797C134.579 361.65 134.879 362.337 135.479 362.857C136.092 363.377 136.912 363.637 137.939 363.637C138.966 363.637 139.779 363.377 140.379 362.857C140.979 362.337 141.279 361.65 141.279 360.797C141.279 359.904 140.972 359.224 140.359 358.757C139.746 358.277 138.939 358.037 137.939 358.037Z" fill="white"/>
<path d="M168.53 358.03L165.9 365H164.85L162.22 358.03H163.19L165.38 364.04L167.57 358.03H168.53ZM171.918 365.09C171.404 365.09 170.938 364.973 170.518 364.74C170.104 364.507 169.778 364.177 169.538 363.75C169.304 363.317 169.188 362.817 169.188 362.25C169.188 361.69 169.308 361.197 169.548 360.77C169.794 360.337 170.128 360.007 170.548 359.78C170.968 359.547 171.438 359.43 171.958 359.43C172.478 359.43 172.948 359.547 173.368 359.78C173.788 360.007 174.118 360.333 174.358 360.76C174.604 361.187 174.728 361.683 174.728 362.25C174.728 362.817 174.601 363.317 174.348 363.75C174.101 364.177 173.764 364.507 173.338 364.74C172.911 364.973 172.438 365.09 171.918 365.09ZM171.918 364.29C172.244 364.29 172.551 364.213 172.838 364.06C173.124 363.907 173.354 363.677 173.528 363.37C173.708 363.063 173.798 362.69 173.798 362.25C173.798 361.81 173.711 361.437 173.538 361.13C173.364 360.823 173.138 360.597 172.858 360.45C172.578 360.297 172.274 360.22 171.948 360.22C171.614 360.22 171.308 360.297 171.028 360.45C170.754 360.597 170.534 360.823 170.368 361.13C170.201 361.437 170.118 361.81 170.118 362.25C170.118 362.697 170.198 363.073 170.358 363.38C170.524 363.687 170.744 363.917 171.018 364.07C171.291 364.217 171.591 364.29 171.918 364.29ZM175.584 362.25C175.584 361.683 175.698 361.19 175.924 360.77C176.151 360.343 176.464 360.013 176.864 359.78C177.271 359.547 177.734 359.43 178.254 359.43C178.928 359.43 179.481 359.593 179.914 359.92C180.354 360.247 180.644 360.7 180.784 361.28H179.804C179.711 360.947 179.528 360.683 179.254 360.49C178.988 360.297 178.654 360.2 178.254 360.2C177.734 360.2 177.314 360.38 176.994 360.74C176.674 361.093 176.514 361.597 176.514 362.25C176.514 362.91 176.674 363.42 176.994 363.78C177.314 364.14 177.734 364.32 178.254 364.32C178.654 364.32 178.988 364.227 179.254 364.04C179.521 363.853 179.704 363.587 179.804 363.24H180.784C180.638 363.8 180.344 364.25 179.904 364.59C179.464 364.923 178.914 365.09 178.254 365.09C177.734 365.09 177.271 364.973 176.864 364.74C176.464 364.507 176.151 364.177 175.924 363.75C175.698 363.323 175.584 362.823 175.584 362.25ZM186.999 362.05C186.999 362.223 186.989 362.407 186.969 362.6H182.589C182.622 363.14 182.805 363.563 183.139 363.87C183.479 364.17 183.889 364.32 184.369 364.32C184.762 364.32 185.089 364.23 185.349 364.05C185.615 363.863 185.802 363.617 185.909 363.31H186.889C186.742 363.837 186.449 364.267 186.009 364.6C185.569 364.927 185.022 365.09 184.369 365.09C183.849 365.09 183.382 364.973 182.969 364.74C182.562 364.507 182.242 364.177 182.009 363.75C181.775 363.317 181.659 362.817 181.659 362.25C181.659 361.683 181.772 361.187 181.999 360.76C182.225 360.333 182.542 360.007 182.949 359.78C183.362 359.547 183.835 359.43 184.369 359.43C184.889 359.43 185.349 359.543 185.749 359.77C186.149 359.997 186.455 360.31 186.669 360.71C186.889 361.103 186.999 361.55 186.999 362.05ZM186.059 361.86C186.059 361.513 185.982 361.217 185.829 360.97C185.675 360.717 185.465 360.527 185.199 360.4C184.939 360.267 184.649 360.2 184.329 360.2C183.869 360.2 183.475 360.347 183.149 360.64C182.829 360.933 182.645 361.34 182.599 361.86H186.059ZM184.339 358.18L182.949 359.03V358.31L184.339 357.48L185.719 358.31V359.03L184.339 358.18ZM193.126 359.43C193.599 359.43 194.012 359.533 194.366 359.74C194.726 359.947 194.992 360.207 195.166 360.52V359.52H196.086V365.12C196.086 365.62 195.979 366.063 195.766 366.45C195.552 366.843 195.246 367.15 194.846 367.37C194.452 367.59 193.992 367.7 193.466 367.7C192.746 367.7 192.146 367.53 191.666 367.19C191.186 366.85 190.902 366.387 190.816 365.8H191.716C191.816 366.133 192.022 366.4 192.336 366.6C192.649 366.807 193.026 366.91 193.466 366.91C193.966 366.91 194.372 366.753 194.686 366.44C195.006 366.127 195.166 365.687 195.166 365.12V363.97C194.986 364.29 194.719 364.557 194.366 364.77C194.012 364.983 193.599 365.09 193.126 365.09C192.639 365.09 192.196 364.97 191.796 364.73C191.402 364.49 191.092 364.153 190.866 363.72C190.639 363.287 190.526 362.793 190.526 362.24C190.526 361.68 190.639 361.19 190.866 360.77C191.092 360.343 191.402 360.013 191.796 359.78C192.196 359.547 192.639 359.43 193.126 359.43ZM195.166 362.25C195.166 361.837 195.082 361.477 194.916 361.17C194.749 360.863 194.522 360.63 194.236 360.47C193.956 360.303 193.646 360.22 193.306 360.22C192.966 360.22 192.656 360.3 192.376 360.46C192.096 360.62 191.872 360.853 191.706 361.16C191.539 361.467 191.456 361.827 191.456 362.24C191.456 362.66 191.539 363.027 191.706 363.34C191.872 363.647 192.096 363.883 192.376 364.05C192.656 364.21 192.966 364.29 193.306 364.29C193.646 364.29 193.956 364.21 194.236 364.05C194.522 363.883 194.749 363.647 194.916 363.34C195.082 363.027 195.166 362.663 195.166 362.25ZM197.284 362.24C197.284 361.68 197.397 361.19 197.624 360.77C197.85 360.343 198.16 360.013 198.554 359.78C198.954 359.547 199.397 359.43 199.884 359.43C200.364 359.43 200.78 359.533 201.134 359.74C201.487 359.947 201.75 360.207 201.924 360.52V359.52H202.844V365H201.924V363.98C201.744 364.3 201.474 364.567 201.114 364.78C200.76 364.987 200.347 365.09 199.874 365.09C199.387 365.09 198.947 364.97 198.554 364.73C198.16 364.49 197.85 364.153 197.624 363.72C197.397 363.287 197.284 362.793 197.284 362.24ZM201.924 362.25C201.924 361.837 201.84 361.477 201.674 361.17C201.507 360.863 201.28 360.63 200.994 360.47C200.714 360.303 200.404 360.22 200.064 360.22C199.724 360.22 199.414 360.3 199.134 360.46C198.854 360.62 198.63 360.853 198.464 361.16C198.297 361.467 198.214 361.827 198.214 362.24C198.214 362.66 198.297 363.027 198.464 363.34C198.63 363.647 198.854 363.883 199.134 364.05C199.414 364.21 199.724 364.29 200.064 364.29C200.404 364.29 200.714 364.21 200.994 364.05C201.28 363.883 201.507 363.647 201.674 363.34C201.84 363.027 201.924 362.663 201.924 362.25ZM206.321 365.09C205.901 365.09 205.525 365.02 205.191 364.88C204.858 364.733 204.595 364.533 204.401 364.28C204.208 364.02 204.101 363.723 204.081 363.39H205.021C205.048 363.663 205.175 363.887 205.401 364.06C205.635 364.233 205.938 364.32 206.311 364.32C206.658 364.32 206.931 364.243 207.131 364.09C207.331 363.937 207.431 363.743 207.431 363.51C207.431 363.27 207.325 363.093 207.111 362.98C206.898 362.86 206.568 362.743 206.121 362.63C205.715 362.523 205.381 362.417 205.121 362.31C204.868 362.197 204.648 362.033 204.461 361.82C204.281 361.6 204.191 361.313 204.191 360.96C204.191 360.68 204.275 360.423 204.441 360.19C204.608 359.957 204.845 359.773 205.151 359.64C205.458 359.5 205.808 359.43 206.201 359.43C206.808 359.43 207.298 359.583 207.671 359.89C208.045 360.197 208.245 360.617 208.271 361.15H207.361C207.341 360.863 207.225 360.633 207.011 360.46C206.805 360.287 206.525 360.2 206.171 360.2C205.845 360.2 205.585 360.27 205.391 360.41C205.198 360.55 205.101 360.733 205.101 360.96C205.101 361.14 205.158 361.29 205.271 361.41C205.391 361.523 205.538 361.617 205.711 361.69C205.891 361.757 206.138 361.833 206.451 361.92C206.845 362.027 207.165 362.133 207.411 362.24C207.658 362.34 207.868 362.493 208.041 362.7C208.221 362.907 208.315 363.177 208.321 363.51C208.321 363.81 208.238 364.08 208.071 364.32C207.905 364.56 207.668 364.75 207.361 364.89C207.061 365.023 206.715 365.09 206.321 365.09ZM210.716 360.27V363.5C210.716 363.767 210.773 363.957 210.886 364.07C210.999 364.177 211.196 364.23 211.476 364.23H212.146V365H211.326C210.819 365 210.439 364.883 210.186 364.65C209.933 364.417 209.806 364.033 209.806 363.5V360.27H209.096V359.52H209.806V358.14H210.716V359.52H212.146V360.27H210.716ZM215.639 365.09C215.125 365.09 214.659 364.973 214.239 364.74C213.825 364.507 213.499 364.177 213.259 363.75C213.025 363.317 212.909 362.817 212.909 362.25C212.909 361.69 213.029 361.197 213.269 360.77C213.515 360.337 213.849 360.007 214.269 359.78C214.689 359.547 215.159 359.43 215.679 359.43C216.199 359.43 216.669 359.547 217.089 359.78C217.509 360.007 217.839 360.333 218.079 360.76C218.325 361.187 218.449 361.683 218.449 362.25C218.449 362.817 218.322 363.317 218.069 363.75C217.822 364.177 217.485 364.507 217.059 364.74C216.632 364.973 216.159 365.09 215.639 365.09ZM215.639 364.29C215.965 364.29 216.272 364.213 216.559 364.06C216.845 363.907 217.075 363.677 217.249 363.37C217.429 363.063 217.519 362.69 217.519 362.25C217.519 361.81 217.432 361.437 217.259 361.13C217.085 360.823 216.859 360.597 216.579 360.45C216.299 360.297 215.995 360.22 215.669 360.22C215.335 360.22 215.029 360.297 214.749 360.45C214.475 360.597 214.255 360.823 214.089 361.13C213.922 361.437 213.839 361.81 213.839 362.25C213.839 362.697 213.919 363.073 214.079 363.38C214.245 363.687 214.465 363.917 214.739 364.07C215.012 364.217 215.312 364.29 215.639 364.29ZM224.505 359.52V365H223.595V364.19C223.422 364.47 223.178 364.69 222.865 364.85C222.558 365.003 222.218 365.08 221.845 365.08C221.418 365.08 221.035 364.993 220.695 364.82C220.355 364.64 220.085 364.373 219.885 364.02C219.692 363.667 219.595 363.237 219.595 362.73V359.52H220.495V362.61C220.495 363.15 220.632 363.567 220.905 363.86C221.178 364.147 221.552 364.29 222.025 364.29C222.512 364.29 222.895 364.14 223.175 363.84C223.455 363.54 223.595 363.103 223.595 362.53V359.52H224.505ZM232.378 365L230.718 362.15H229.618V365H228.708V358.03H230.958C231.484 358.03 231.928 358.12 232.288 358.3C232.654 358.48 232.928 358.723 233.108 359.03C233.288 359.337 233.378 359.687 233.378 360.08C233.378 360.56 233.238 360.983 232.958 361.35C232.684 361.717 232.271 361.96 231.718 362.08L233.468 365H232.378ZM229.618 361.42H230.958C231.451 361.42 231.821 361.3 232.068 361.06C232.314 360.813 232.438 360.487 232.438 360.08C232.438 359.667 232.314 359.347 232.068 359.12C231.828 358.893 231.458 358.78 230.958 358.78H229.618V361.42ZM239.291 363.09C239.291 363.41 239.211 363.717 239.051 364.01C238.891 364.297 238.655 364.537 238.341 364.73C238.035 364.923 237.665 365.033 237.231 365.06V365.87H236.691V365.06C236.085 365.007 235.591 364.813 235.211 364.48C234.831 364.14 234.638 363.71 234.631 363.19H235.601C235.628 363.47 235.731 363.713 235.911 363.92C236.098 364.127 236.358 364.257 236.691 364.31V361.81C236.245 361.697 235.885 361.58 235.611 361.46C235.338 361.34 235.105 361.153 234.911 360.9C234.718 360.647 234.621 360.307 234.621 359.88C234.621 359.34 234.808 358.893 235.181 358.54C235.561 358.187 236.065 357.99 236.691 357.95V357.12H237.231V357.95C237.798 357.997 238.255 358.18 238.601 358.5C238.948 358.813 239.148 359.223 239.201 359.73H238.231C238.198 359.497 238.095 359.287 237.921 359.1C237.748 358.907 237.518 358.78 237.231 358.72V361.16C237.671 361.273 238.028 361.39 238.301 361.51C238.581 361.623 238.815 361.807 239.001 362.06C239.195 362.313 239.291 362.657 239.291 363.09ZM235.551 359.83C235.551 360.157 235.648 360.407 235.841 360.58C236.035 360.753 236.318 360.897 236.691 361.01V358.7C236.345 358.733 236.068 358.847 235.861 359.04C235.655 359.227 235.551 359.49 235.551 359.83ZM237.231 364.32C237.591 364.28 237.871 364.15 238.071 363.93C238.278 363.71 238.381 363.447 238.381 363.14C238.381 362.813 238.281 362.563 238.081 362.39C237.881 362.21 237.598 362.067 237.231 361.96V364.32ZM244.848 361.24C244.475 361.093 244.188 360.88 243.988 360.6C243.788 360.32 243.688 359.98 243.688 359.58C243.688 359.22 243.778 358.897 243.958 358.61C244.138 358.317 244.405 358.087 244.758 357.92C245.118 357.747 245.552 357.66 246.058 357.66C246.565 357.66 246.995 357.747 247.348 357.92C247.708 358.087 247.978 358.317 248.158 358.61C248.345 358.897 248.438 359.22 248.438 359.58C248.438 359.967 248.335 360.307 248.128 360.6C247.922 360.887 247.638 361.1 247.278 361.24C247.692 361.367 248.018 361.59 248.258 361.91C248.505 362.223 248.628 362.603 248.628 363.05C248.628 363.483 248.522 363.863 248.308 364.19C248.095 364.51 247.792 364.76 247.398 364.94C247.012 365.113 246.565 365.2 246.058 365.2C245.552 365.2 245.105 365.113 244.718 364.94C244.338 364.76 244.042 364.51 243.828 364.19C243.615 363.863 243.508 363.483 243.508 363.05C243.508 362.603 243.628 362.22 243.868 361.9C244.108 361.58 244.435 361.36 244.848 361.24ZM247.558 359.69C247.558 359.283 247.425 358.97 247.158 358.75C246.892 358.53 246.525 358.42 246.058 358.42C245.598 358.42 245.235 358.53 244.968 358.75C244.702 358.97 244.568 359.287 244.568 359.7C244.568 360.073 244.705 360.373 244.978 360.6C245.258 360.827 245.618 360.94 246.058 360.94C246.505 360.94 246.865 360.827 247.138 360.6C247.418 360.367 247.558 360.063 247.558 359.69ZM246.058 361.64C245.565 361.64 245.162 361.757 244.848 361.99C244.535 362.217 244.378 362.56 244.378 363.02C244.378 363.447 244.528 363.79 244.828 364.05C245.135 364.31 245.545 364.44 246.058 364.44C246.572 364.44 246.978 364.31 247.278 364.05C247.578 363.79 247.728 363.447 247.728 363.02C247.728 362.573 247.575 362.233 247.268 362C246.962 361.76 246.558 361.64 246.058 361.64ZM250.277 365.06C250.103 365.06 249.957 365 249.837 364.88C249.717 364.76 249.657 364.613 249.657 364.44C249.657 364.267 249.717 364.12 249.837 364C249.957 363.88 250.103 363.82 250.277 363.82C250.443 363.82 250.583 363.88 250.697 364C250.817 364.12 250.877 364.267 250.877 364.44C250.877 364.613 250.817 364.76 250.697 364.88C250.583 365 250.443 365.06 250.277 365.06ZM256.546 358.56H253.036V360.84C253.19 360.627 253.416 360.453 253.716 360.32C254.016 360.18 254.34 360.11 254.686 360.11C255.24 360.11 255.69 360.227 256.036 360.46C256.383 360.687 256.63 360.983 256.776 361.35C256.93 361.71 257.006 362.093 257.006 362.5C257.006 362.98 256.916 363.41 256.736 363.79C256.556 364.17 256.28 364.47 255.906 364.69C255.54 364.91 255.083 365.02 254.536 365.02C253.836 365.02 253.27 364.84 252.836 364.48C252.403 364.12 252.14 363.64 252.046 363.04H252.936C253.023 363.42 253.206 363.717 253.486 363.93C253.766 364.143 254.12 364.25 254.546 364.25C255.073 364.25 255.47 364.093 255.736 363.78C256.003 363.46 256.136 363.04 256.136 362.52C256.136 362 256.003 361.6 255.736 361.32C255.47 361.033 255.076 360.89 254.556 360.89C254.203 360.89 253.893 360.977 253.626 361.15C253.366 361.317 253.176 361.547 253.056 361.84H252.196V357.76H256.546V358.56ZM257.976 358.6V357.77H259.856V365H258.936V358.6H257.976ZM261.199 363.39V362.7L264.709 357.84H265.799V362.6H266.799V363.39H265.799V365H264.899V363.39H261.199ZM264.939 358.79L262.249 362.6H264.939V358.79ZM268.798 363.74L267.678 366.43H267.068L267.798 363.74H268.798ZM270.86 363.06C270.927 363.44 271.08 363.733 271.32 363.94C271.567 364.147 271.897 364.25 272.31 364.25C272.864 364.25 273.27 364.033 273.53 363.6C273.797 363.167 273.924 362.437 273.91 361.41C273.77 361.71 273.537 361.947 273.21 362.12C272.884 362.287 272.52 362.37 272.12 362.37C271.674 362.37 271.274 362.28 270.92 362.1C270.574 361.913 270.3 361.643 270.1 361.29C269.9 360.937 269.8 360.51 269.8 360.01C269.8 359.297 270.007 358.723 270.42 358.29C270.834 357.85 271.42 357.63 272.18 357.63C273.114 357.63 273.767 357.933 274.14 358.54C274.52 359.147 274.71 360.05 274.71 361.25C274.71 362.09 274.634 362.783 274.48 363.33C274.334 363.877 274.08 364.293 273.72 364.58C273.367 364.867 272.88 365.01 272.26 365.01C271.58 365.01 271.05 364.827 270.67 364.46C270.29 364.093 270.074 363.627 270.02 363.06H270.86ZM272.27 361.6C272.717 361.6 273.084 361.463 273.37 361.19C273.657 360.91 273.8 360.533 273.8 360.06C273.8 359.56 273.66 359.157 273.38 358.85C273.1 358.543 272.707 358.39 272.2 358.39C271.734 358.39 271.36 358.537 271.08 358.83C270.807 359.123 270.67 359.51 270.67 359.99C270.67 360.477 270.807 360.867 271.08 361.16C271.354 361.453 271.75 361.6 272.27 361.6ZM275.749 358.6V357.77H277.629V365H276.709V358.6H275.749ZM281.668 362.24C281.668 361.68 281.782 361.19 282.008 360.77C282.235 360.343 282.545 360.013 282.938 359.78C283.338 359.547 283.782 359.43 284.268 359.43C284.748 359.43 285.165 359.533 285.518 359.74C285.872 359.947 286.135 360.207 286.308 360.52V359.52H287.228V365H286.308V363.98C286.128 364.3 285.858 364.567 285.498 364.78C285.145 364.987 284.732 365.09 284.258 365.09C283.772 365.09 283.332 364.97 282.938 364.73C282.545 364.49 282.235 364.153 282.008 363.72C281.782 363.287 281.668 362.793 281.668 362.24ZM286.308 362.25C286.308 361.837 286.225 361.477 286.058 361.17C285.892 360.863 285.665 360.63 285.378 360.47C285.098 360.303 284.788 360.22 284.448 360.22C284.108 360.22 283.798 360.3 283.518 360.46C283.238 360.62 283.015 360.853 282.848 361.16C282.682 361.467 282.598 361.827 282.598 362.24C282.598 362.66 282.682 363.027 282.848 363.34C283.015 363.647 283.238 363.883 283.518 364.05C283.798 364.21 284.108 364.29 284.448 364.29C284.788 364.29 285.098 364.21 285.378 364.05C285.665 363.883 285.892 363.647 286.058 363.34C286.225 363.027 286.308 362.663 286.308 362.25ZM298.022 359.42C298.449 359.42 298.829 359.51 299.162 359.69C299.495 359.863 299.759 360.127 299.952 360.48C300.145 360.833 300.242 361.263 300.242 361.77V365H299.342V361.9C299.342 361.353 299.205 360.937 298.932 360.65C298.665 360.357 298.302 360.21 297.842 360.21C297.369 360.21 296.992 360.363 296.712 360.67C296.432 360.97 296.292 361.407 296.292 361.98V365H295.392V361.9C295.392 361.353 295.255 360.937 294.982 360.65C294.715 360.357 294.352 360.21 293.892 360.21C293.419 360.21 293.042 360.363 292.762 360.67C292.482 360.97 292.342 361.407 292.342 361.98V365H291.432V359.52H292.342V360.31C292.522 360.023 292.762 359.803 293.062 359.65C293.369 359.497 293.705 359.42 294.072 359.42C294.532 359.42 294.939 359.523 295.292 359.73C295.645 359.937 295.909 360.24 296.082 360.64C296.235 360.253 296.489 359.953 296.842 359.74C297.195 359.527 297.589 359.42 298.022 359.42ZM306.735 362.05C306.735 362.223 306.725 362.407 306.705 362.6H302.325C302.358 363.14 302.542 363.563 302.875 363.87C303.215 364.17 303.625 364.32 304.105 364.32C304.498 364.32 304.825 364.23 305.085 364.05C305.352 363.863 305.538 363.617 305.645 363.31H306.625C306.478 363.837 306.185 364.267 305.745 364.6C305.305 364.927 304.758 365.09 304.105 365.09C303.585 365.09 303.118 364.973 302.705 364.74C302.298 364.507 301.978 364.177 301.745 363.75C301.512 363.317 301.395 362.817 301.395 362.25C301.395 361.683 301.508 361.187 301.735 360.76C301.962 360.333 302.278 360.007 302.685 359.78C303.098 359.547 303.572 359.43 304.105 359.43C304.625 359.43 305.085 359.543 305.485 359.77C305.885 359.997 306.192 360.31 306.405 360.71C306.625 361.103 306.735 361.55 306.735 362.05ZM305.795 361.86C305.795 361.513 305.718 361.217 305.565 360.97C305.412 360.717 305.202 360.527 304.935 360.4C304.675 360.267 304.385 360.2 304.065 360.2C303.605 360.2 303.212 360.347 302.885 360.64C302.565 360.933 302.382 361.34 302.335 361.86H305.795ZM310.606 359.42C311.273 359.42 311.813 359.623 312.226 360.03C312.639 360.43 312.846 361.01 312.846 361.77V365H311.946V361.9C311.946 361.353 311.809 360.937 311.536 360.65C311.263 360.357 310.889 360.21 310.416 360.21C309.936 360.21 309.553 360.36 309.266 360.66C308.986 360.96 308.846 361.397 308.846 361.97V365H307.936V359.52H308.846V360.3C309.026 360.02 309.269 359.803 309.576 359.65C309.889 359.497 310.233 359.42 310.606 359.42ZM316.723 365.09C316.209 365.09 315.743 364.973 315.323 364.74C314.909 364.507 314.583 364.177 314.343 363.75C314.109 363.317 313.993 362.817 313.993 362.25C313.993 361.69 314.113 361.197 314.353 360.77C314.599 360.337 314.933 360.007 315.353 359.78C315.773 359.547 316.243 359.43 316.763 359.43C317.283 359.43 317.753 359.547 318.173 359.78C318.593 360.007 318.923 360.333 319.163 360.76C319.409 361.187 319.533 361.683 319.533 362.25C319.533 362.817 319.406 363.317 319.153 363.75C318.906 364.177 318.569 364.507 318.143 364.74C317.716 364.973 317.243 365.09 316.723 365.09ZM316.723 364.29C317.049 364.29 317.356 364.213 317.643 364.06C317.929 363.907 318.159 363.677 318.333 363.37C318.513 363.063 318.603 362.69 318.603 362.25C318.603 361.81 318.516 361.437 318.343 361.13C318.169 360.823 317.943 360.597 317.663 360.45C317.383 360.297 317.079 360.22 316.753 360.22C316.419 360.22 316.113 360.297 315.833 360.45C315.559 360.597 315.339 360.823 315.173 361.13C315.006 361.437 314.923 361.81 314.923 362.25C314.923 362.697 315.003 363.073 315.163 363.38C315.329 363.687 315.549 363.917 315.823 364.07C316.096 364.217 316.396 364.29 316.723 364.29ZM322.669 365.09C322.249 365.09 321.872 365.02 321.539 364.88C321.206 364.733 320.942 364.533 320.749 364.28C320.556 364.02 320.449 363.723 320.429 363.39H321.369C321.396 363.663 321.522 363.887 321.749 364.06C321.982 364.233 322.286 364.32 322.659 364.32C323.006 364.32 323.279 364.243 323.479 364.09C323.679 363.937 323.779 363.743 323.779 363.51C323.779 363.27 323.672 363.093 323.459 362.98C323.246 362.86 322.916 362.743 322.469 362.63C322.062 362.523 321.729 362.417 321.469 362.31C321.216 362.197 320.996 362.033 320.809 361.82C320.629 361.6 320.539 361.313 320.539 360.96C320.539 360.68 320.622 360.423 320.789 360.19C320.956 359.957 321.192 359.773 321.499 359.64C321.806 359.5 322.156 359.43 322.549 359.43C323.156 359.43 323.646 359.583 324.019 359.89C324.392 360.197 324.592 360.617 324.619 361.15H323.709C323.689 360.863 323.572 360.633 323.359 360.46C323.152 360.287 322.872 360.2 322.519 360.2C322.192 360.2 321.932 360.27 321.739 360.41C321.546 360.55 321.449 360.733 321.449 360.96C321.449 361.14 321.506 361.29 321.619 361.41C321.739 361.523 321.886 361.617 322.059 361.69C322.239 361.757 322.486 361.833 322.799 361.92C323.192 362.027 323.512 362.133 323.759 362.24C324.006 362.34 324.216 362.493 324.389 362.7C324.569 362.907 324.662 363.177 324.669 363.51C324.669 363.81 324.586 364.08 324.419 364.32C324.252 364.56 324.016 364.75 323.709 364.89C323.409 365.023 323.062 365.09 322.669 365.09ZM333.62 362.05C333.62 362.223 333.61 362.407 333.59 362.6H329.21C329.243 363.14 329.426 363.563 329.76 363.87C330.1 364.17 330.51 364.32 330.99 364.32C331.383 364.32 331.71 364.23 331.97 364.05C332.236 363.863 332.423 363.617 332.53 363.31H333.51C333.363 363.837 333.07 364.267 332.63 364.6C332.19 364.927 331.643 365.09 330.99 365.09C330.47 365.09 330.003 364.973 329.59 364.74C329.183 364.507 328.863 364.177 328.63 363.75C328.396 363.317 328.28 362.817 328.28 362.25C328.28 361.683 328.393 361.187 328.62 360.76C328.846 360.333 329.163 360.007 329.57 359.78C329.983 359.547 330.456 359.43 330.99 359.43C331.51 359.43 331.97 359.543 332.37 359.77C332.77 359.997 333.076 360.31 333.29 360.71C333.51 361.103 333.62 361.55 333.62 362.05ZM332.68 361.86C332.68 361.513 332.603 361.217 332.45 360.97C332.296 360.717 332.086 360.527 331.82 360.4C331.56 360.267 331.27 360.2 330.95 360.2C330.49 360.2 330.096 360.347 329.77 360.64C329.45 360.933 329.266 361.34 329.22 361.86H332.68ZM341.411 359.42C341.837 359.42 342.217 359.51 342.551 359.69C342.884 359.863 343.147 360.127 343.341 360.48C343.534 360.833 343.631 361.263 343.631 361.77V365H342.731V361.9C342.731 361.353 342.594 360.937 342.321 360.65C342.054 360.357 341.691 360.21 341.231 360.21C340.757 360.21 340.381 360.363 340.101 360.67C339.821 360.97 339.681 361.407 339.681 361.98V365H338.781V361.9C338.781 361.353 338.644 360.937 338.371 360.65C338.104 360.357 337.741 360.21 337.281 360.21C336.807 360.21 336.431 360.363 336.151 360.67C335.871 360.97 335.731 361.407 335.731 361.98V365H334.821V359.52H335.731V360.31C335.911 360.023 336.151 359.803 336.451 359.65C336.757 359.497 337.094 359.42 337.461 359.42C337.921 359.42 338.327 359.523 338.681 359.73C339.034 359.937 339.297 360.24 339.471 360.64C339.624 360.253 339.877 359.953 340.231 359.74C340.584 359.527 340.977 359.42 341.411 359.42ZM348.7 360.41C348.86 360.097 349.086 359.853 349.38 359.68C349.68 359.507 350.043 359.42 350.47 359.42V360.36H350.23C349.21 360.36 348.7 360.913 348.7 362.02V365H347.79V359.52H348.7V360.41ZM356.52 362.05C356.52 362.223 356.51 362.407 356.49 362.6H352.11C352.143 363.14 352.327 363.563 352.66 363.87C353 364.17 353.41 364.32 353.89 364.32C354.283 364.32 354.61 364.23 354.87 364.05C355.137 363.863 355.323 363.617 355.43 363.31H356.41C356.263 363.837 355.97 364.267 355.53 364.6C355.09 364.927 354.543 365.09 353.89 365.09C353.37 365.09 352.903 364.973 352.49 364.74C352.083 364.507 351.763 364.177 351.53 363.75C351.297 363.317 351.18 362.817 351.18 362.25C351.18 361.683 351.293 361.187 351.52 360.76C351.747 360.333 352.063 360.007 352.47 359.78C352.883 359.547 353.357 359.43 353.89 359.43C354.41 359.43 354.87 359.543 355.27 359.77C355.67 359.997 355.977 360.31 356.19 360.71C356.41 361.103 356.52 361.55 356.52 362.05ZM355.58 361.86C355.58 361.513 355.503 361.217 355.35 360.97C355.197 360.717 354.987 360.527 354.72 360.4C354.46 360.267 354.17 360.2 353.85 360.2C353.39 360.2 352.997 360.347 352.67 360.64C352.35 360.933 352.167 361.34 352.12 361.86H355.58ZM358.631 357.6V365H357.721V357.6H358.631ZM359.842 362.24C359.842 361.68 359.955 361.19 360.182 360.77C360.409 360.343 360.719 360.013 361.112 359.78C361.512 359.547 361.955 359.43 362.442 359.43C362.922 359.43 363.339 359.533 363.692 359.74C364.045 359.947 364.309 360.207 364.482 360.52V359.52H365.402V365H364.482V363.98C364.302 364.3 364.032 364.567 363.672 364.78C363.319 364.987 362.905 365.09 362.432 365.09C361.945 365.09 361.505 364.97 361.112 364.73C360.719 364.49 360.409 364.153 360.182 363.72C359.955 363.287 359.842 362.793 359.842 362.24ZM364.482 362.25C364.482 361.837 364.399 361.477 364.232 361.17C364.065 360.863 363.839 360.63 363.552 360.47C363.272 360.303 362.962 360.22 362.622 360.22C362.282 360.22 361.972 360.3 361.692 360.46C361.412 360.62 361.189 360.853 361.022 361.16C360.855 361.467 360.772 361.827 360.772 362.24C360.772 362.66 360.855 363.027 361.022 363.34C361.189 363.647 361.412 363.883 361.692 364.05C361.972 364.21 362.282 364.29 362.622 364.29C362.962 364.29 363.272 364.21 363.552 364.05C363.839 363.883 364.065 363.647 364.232 363.34C364.399 363.027 364.482 362.663 364.482 362.25ZM369.27 364.32C369.67 364.32 370.003 364.227 370.27 364.04C370.537 363.853 370.72 363.587 370.82 363.24H371.8C371.667 363.76 371.403 364.187 371.01 364.52C370.623 364.847 370.137 365.033 369.55 365.08V365.58C369.943 365.573 370.257 365.657 370.49 365.83C370.723 366.003 370.84 366.25 370.84 366.57C370.84 366.883 370.727 367.133 370.5 367.32C370.273 367.507 369.98 367.6 369.62 367.6H368.47V367.01H369.44C369.66 367.01 369.82 366.977 369.92 366.91C370.027 366.843 370.08 366.73 370.08 366.57C370.08 366.417 370.027 366.307 369.92 366.24C369.82 366.173 369.66 366.14 369.44 366.14H368.94V365.07C368.48 365.023 368.073 364.88 367.72 364.64C367.367 364.393 367.09 364.067 366.89 363.66C366.697 363.247 366.6 362.777 366.6 362.25C366.6 361.683 366.713 361.19 366.94 360.77C367.167 360.343 367.48 360.013 367.88 359.78C368.287 359.547 368.75 359.43 369.27 359.43C369.943 359.43 370.497 359.593 370.93 359.92C371.37 360.247 371.66 360.7 371.8 361.28H370.82C370.727 360.947 370.543 360.683 370.27 360.49C370.003 360.297 369.67 360.2 369.27 360.2C368.75 360.2 368.33 360.38 368.01 360.74C367.69 361.093 367.53 361.597 367.53 362.25C367.53 362.91 367.69 363.42 368.01 363.78C368.33 364.14 368.75 364.32 369.27 364.32ZM372.674 362.24C372.674 361.68 372.787 361.19 373.014 360.77C373.241 360.343 373.551 360.013 373.944 359.78C374.344 359.547 374.787 359.43 375.274 359.43C375.754 359.43 376.171 359.533 376.524 359.74C376.877 359.947 377.141 360.207 377.314 360.52V359.52H378.234V365H377.314V363.98C377.134 364.3 376.864 364.567 376.504 364.78C376.151 364.987 375.737 365.09 375.264 365.09C374.777 365.09 374.337 364.97 373.944 364.73C373.551 364.49 373.241 364.153 373.014 363.72C372.787 363.287 372.674 362.793 372.674 362.24ZM377.314 362.25C377.314 361.837 377.231 361.477 377.064 361.17C376.897 360.863 376.671 360.63 376.384 360.47C376.104 360.303 375.794 360.22 375.454 360.22C375.114 360.22 374.804 360.3 374.524 360.46C374.244 360.62 374.021 360.853 373.854 361.16C373.687 361.467 373.604 361.827 373.604 362.24C373.604 362.66 373.687 363.027 373.854 363.34C374.021 363.647 374.244 363.883 374.524 364.05C374.804 364.21 375.114 364.29 375.454 364.29C375.794 364.29 376.104 364.21 376.384 364.05C376.671 363.883 376.897 363.647 377.064 363.34C377.231 363.027 377.314 362.663 377.314 362.25ZM374.164 358.93C374.211 358.59 374.321 358.33 374.494 358.15C374.674 357.97 374.897 357.88 375.164 357.88C375.291 357.88 375.397 357.903 375.484 357.95C375.577 357.99 375.687 358.05 375.814 358.13C375.907 358.197 375.991 358.25 376.064 358.29C376.137 358.323 376.217 358.34 376.304 358.34C376.417 358.34 376.514 358.303 376.594 358.23C376.674 358.157 376.724 358.05 376.744 357.91H377.264C377.224 358.243 377.114 358.5 376.934 358.68C376.754 358.86 376.531 358.95 376.264 358.95C376.137 358.95 376.024 358.93 375.924 358.89C375.831 358.843 375.724 358.777 375.604 358.69C375.497 358.623 375.411 358.573 375.344 358.54C375.284 358.507 375.211 358.49 375.124 358.49C375.011 358.49 374.914 358.527 374.834 358.6C374.761 358.673 374.714 358.783 374.694 358.93H374.164ZM382.162 365.09C381.649 365.09 381.182 364.973 380.762 364.74C380.349 364.507 380.022 364.177 379.782 363.75C379.549 363.317 379.432 362.817 379.432 362.25C379.432 361.69 379.552 361.197 379.792 360.77C380.039 360.337 380.372 360.007 380.792 359.78C381.212 359.547 381.682 359.43 382.202 359.43C382.722 359.43 383.192 359.547 383.612 359.78C384.032 360.007 384.362 360.333 384.602 360.76C384.849 361.187 384.972 361.683 384.972 362.25C384.972 362.817 384.845 363.317 384.592 363.75C384.345 364.177 384.009 364.507 383.582 364.74C383.155 364.973 382.682 365.09 382.162 365.09ZM382.162 364.29C382.489 364.29 382.795 364.213 383.082 364.06C383.369 363.907 383.599 363.677 383.772 363.37C383.952 363.063 384.042 362.69 384.042 362.25C384.042 361.81 383.955 361.437 383.782 361.13C383.609 360.823 383.382 360.597 383.102 360.45C382.822 360.297 382.519 360.22 382.192 360.22C381.859 360.22 381.552 360.297 381.272 360.45C380.999 360.597 380.779 360.823 380.612 361.13C380.445 361.437 380.362 361.81 380.362 362.25C380.362 362.697 380.442 363.073 380.602 363.38C380.769 363.687 380.989 363.917 381.262 364.07C381.535 364.217 381.835 364.29 382.162 364.29ZM388.494 362.24C388.494 361.68 388.608 361.19 388.834 360.77C389.061 360.343 389.371 360.013 389.764 359.78C390.164 359.547 390.608 359.43 391.094 359.43C391.574 359.43 391.991 359.533 392.344 359.74C392.698 359.947 392.961 360.207 393.134 360.52V359.52H394.054V365H393.134V363.98C392.954 364.3 392.684 364.567 392.324 364.78C391.971 364.987 391.558 365.09 391.084 365.09C390.598 365.09 390.158 364.97 389.764 364.73C389.371 364.49 389.061 364.153 388.834 363.72C388.608 363.287 388.494 362.793 388.494 362.24ZM393.134 362.25C393.134 361.837 393.051 361.477 392.884 361.17C392.718 360.863 392.491 360.63 392.204 360.47C391.924 360.303 391.614 360.22 391.274 360.22C390.934 360.22 390.624 360.3 390.344 360.46C390.064 360.62 389.841 360.853 389.674 361.16C389.508 361.467 389.424 361.827 389.424 362.24C389.424 362.66 389.508 363.027 389.674 363.34C389.841 363.647 390.064 363.883 390.344 364.05C390.624 364.21 390.934 364.29 391.274 364.29C391.614 364.29 391.924 364.21 392.204 364.05C392.491 363.883 392.718 363.647 392.884 363.34C393.051 363.027 393.134 362.663 393.134 362.25ZM397.982 365.09C397.469 365.09 397.002 364.973 396.582 364.74C396.169 364.507 395.842 364.177 395.602 363.75C395.369 363.317 395.252 362.817 395.252 362.25C395.252 361.69 395.372 361.197 395.612 360.77C395.859 360.337 396.192 360.007 396.612 359.78C397.032 359.547 397.502 359.43 398.022 359.43C398.542 359.43 399.012 359.547 399.432 359.78C399.852 360.007 400.182 360.333 400.422 360.76C400.669 361.187 400.792 361.683 400.792 362.25C400.792 362.817 400.666 363.317 400.412 363.75C400.166 364.177 399.829 364.507 399.402 364.74C398.976 364.973 398.502 365.09 397.982 365.09ZM397.982 364.29C398.309 364.29 398.616 364.213 398.902 364.06C399.189 363.907 399.419 363.677 399.592 363.37C399.772 363.063 399.862 362.69 399.862 362.25C399.862 361.81 399.776 361.437 399.602 361.13C399.429 360.823 399.202 360.597 398.922 360.45C398.642 360.297 398.339 360.22 398.012 360.22C397.679 360.22 397.372 360.297 397.092 360.45C396.819 360.597 396.599 360.823 396.432 361.13C396.266 361.437 396.182 361.81 396.182 362.25C396.182 362.697 396.262 363.073 396.422 363.38C396.589 363.687 396.809 363.917 397.082 364.07C397.356 364.217 397.656 364.29 397.982 364.29ZM411.245 359.42C411.671 359.42 412.051 359.51 412.385 359.69C412.718 359.863 412.981 360.127 413.175 360.48C413.368 360.833 413.465 361.263 413.465 361.77V365H412.565V361.9C412.565 361.353 412.428 360.937 412.155 360.65C411.888 360.357 411.525 360.21 411.065 360.21C410.591 360.21 410.215 360.363 409.935 360.67C409.655 360.97 409.515 361.407 409.515 361.98V365H408.615V361.9C408.615 361.353 408.478 360.937 408.205 360.65C407.938 360.357 407.575 360.21 407.115 360.21C406.641 360.21 406.265 360.363 405.985 360.67C405.705 360.97 405.565 361.407 405.565 361.98V365H404.655V359.52H405.565V360.31C405.745 360.023 405.985 359.803 406.285 359.65C406.591 359.497 406.928 359.42 407.295 359.42C407.755 359.42 408.161 359.523 408.515 359.73C408.868 359.937 409.131 360.24 409.305 360.64C409.458 360.253 409.711 359.953 410.065 359.74C410.418 359.527 410.811 359.42 411.245 359.42ZM419.958 362.05C419.958 362.223 419.948 362.407 419.928 362.6H415.548C415.581 363.14 415.764 363.563 416.098 363.87C416.438 364.17 416.848 364.32 417.328 364.32C417.721 364.32 418.048 364.23 418.308 364.05C418.574 363.863 418.761 363.617 418.868 363.31H419.848C419.701 363.837 419.408 364.267 418.968 364.6C418.528 364.927 417.981 365.09 417.328 365.09C416.808 365.09 416.341 364.973 415.928 364.74C415.521 364.507 415.201 364.177 414.968 363.75C414.734 363.317 414.618 362.817 414.618 362.25C414.618 361.683 414.731 361.187 414.958 360.76C415.184 360.333 415.501 360.007 415.908 359.78C416.321 359.547 416.794 359.43 417.328 359.43C417.848 359.43 418.308 359.543 418.708 359.77C419.108 359.997 419.414 360.31 419.628 360.71C419.848 361.103 419.958 361.55 419.958 362.05ZM419.018 361.86C419.018 361.513 418.941 361.217 418.788 360.97C418.634 360.717 418.424 360.527 418.158 360.4C417.898 360.267 417.608 360.2 417.288 360.2C416.828 360.2 416.434 360.347 416.108 360.64C415.788 360.933 415.604 361.34 415.558 361.86H419.018ZM417.298 358.18L415.908 359.03V358.31L417.298 357.48L418.678 358.31V359.03L417.298 358.18ZM423.099 365.09C422.679 365.09 422.302 365.02 421.969 364.88C421.635 364.733 421.372 364.533 421.179 364.28C420.985 364.02 420.879 363.723 420.859 363.39H421.799C421.825 363.663 421.952 363.887 422.179 364.06C422.412 364.233 422.715 364.32 423.089 364.32C423.435 364.32 423.709 364.243 423.909 364.09C424.109 363.937 424.209 363.743 424.209 363.51C424.209 363.27 424.102 363.093 423.889 362.98C423.675 362.86 423.345 362.743 422.899 362.63C422.492 362.523 422.159 362.417 421.899 362.31C421.645 362.197 421.425 362.033 421.239 361.82C421.059 361.6 420.969 361.313 420.969 360.96C420.969 360.68 421.052 360.423 421.219 360.19C421.385 359.957 421.622 359.773 421.929 359.64C422.235 359.5 422.585 359.43 422.979 359.43C423.585 359.43 424.075 359.583 424.449 359.89C424.822 360.197 425.022 360.617 425.049 361.15H424.139C424.119 360.863 424.002 360.633 423.789 360.46C423.582 360.287 423.302 360.2 422.949 360.2C422.622 360.2 422.362 360.27 422.169 360.41C421.975 360.55 421.879 360.733 421.879 360.96C421.879 361.14 421.935 361.29 422.049 361.41C422.169 361.523 422.315 361.617 422.489 361.69C422.669 361.757 422.915 361.833 423.229 361.92C423.622 362.027 423.942 362.133 424.189 362.24C424.435 362.34 424.645 362.493 424.819 362.7C424.999 362.907 425.092 363.177 425.099 363.51C425.099 363.81 425.015 364.08 424.849 364.32C424.682 364.56 424.445 364.75 424.139 364.89C423.839 365.023 423.492 365.09 423.099 365.09ZM428.709 362.24C428.709 361.68 428.823 361.19 429.049 360.77C429.276 360.343 429.586 360.013 429.979 359.78C430.379 359.547 430.823 359.43 431.309 359.43C431.789 359.43 432.206 359.533 432.559 359.74C432.913 359.947 433.176 360.207 433.349 360.52V359.52H434.269V365H433.349V363.98C433.169 364.3 432.899 364.567 432.539 364.78C432.186 364.987 431.773 365.09 431.299 365.09C430.813 365.09 430.373 364.97 429.979 364.73C429.586 364.49 429.276 364.153 429.049 363.72C428.823 363.287 428.709 362.793 428.709 362.24ZM433.349 362.25C433.349 361.837 433.266 361.477 433.099 361.17C432.933 360.863 432.706 360.63 432.419 360.47C432.139 360.303 431.829 360.22 431.489 360.22C431.149 360.22 430.839 360.3 430.559 360.46C430.279 360.62 430.056 360.853 429.889 361.16C429.723 361.467 429.639 361.827 429.639 362.24C429.639 362.66 429.723 363.027 429.889 363.34C430.056 363.647 430.279 363.883 430.559 364.05C430.839 364.21 431.149 364.29 431.489 364.29C431.829 364.29 432.139 364.21 432.419 364.05C432.706 363.883 432.933 363.647 433.099 363.34C433.266 363.027 433.349 362.663 433.349 362.25ZM438.477 359.42C439.144 359.42 439.684 359.623 440.097 360.03C440.51 360.43 440.717 361.01 440.717 361.77V365H439.817V361.9C439.817 361.353 439.68 360.937 439.407 360.65C439.134 360.357 438.76 360.21 438.287 360.21C437.807 360.21 437.424 360.36 437.137 360.66C436.857 360.96 436.717 361.397 436.717 361.97V365H435.807V359.52H436.717V360.3C436.897 360.02 437.14 359.803 437.447 359.65C437.76 359.497 438.104 359.42 438.477 359.42ZM443.314 360.27V363.5C443.314 363.767 443.37 363.957 443.484 364.07C443.597 364.177 443.794 364.23 444.074 364.23H444.744V365H443.924C443.417 365 443.037 364.883 442.784 364.65C442.53 364.417 442.404 364.033 442.404 363.5V360.27H441.694V359.52H442.404V358.14H443.314V359.52H444.744V360.27H443.314ZM450.846 362.05C450.846 362.223 450.836 362.407 450.816 362.6H446.436C446.47 363.14 446.653 363.563 446.986 363.87C447.326 364.17 447.736 364.32 448.216 364.32C448.61 364.32 448.936 364.23 449.196 364.05C449.463 363.863 449.65 363.617 449.756 363.31H450.736C450.59 363.837 450.296 364.267 449.856 364.6C449.416 364.927 448.87 365.09 448.216 365.09C447.696 365.09 447.23 364.973 446.816 364.74C446.41 364.507 446.09 364.177 445.856 363.75C445.623 363.317 445.506 362.817 445.506 362.25C445.506 361.683 445.62 361.187 445.846 360.76C446.073 360.333 446.39 360.007 446.796 359.78C447.21 359.547 447.683 359.43 448.216 359.43C448.736 359.43 449.196 359.543 449.596 359.77C449.996 359.997 450.303 360.31 450.516 360.71C450.736 361.103 450.846 361.55 450.846 362.05ZM449.906 361.86C449.906 361.513 449.83 361.217 449.676 360.97C449.523 360.717 449.313 360.527 449.046 360.4C448.786 360.267 448.496 360.2 448.176 360.2C447.716 360.2 447.323 360.347 446.996 360.64C446.676 360.933 446.493 361.34 446.446 361.86H449.906ZM452.957 360.41C453.117 360.097 453.344 359.853 453.637 359.68C453.937 359.507 454.301 359.42 454.727 359.42V360.36H454.487C453.467 360.36 452.957 360.913 452.957 362.02V365H452.047V359.52H452.957V360.41ZM456.248 358.63C456.074 358.63 455.928 358.57 455.808 358.45C455.688 358.33 455.628 358.183 455.628 358.01C455.628 357.837 455.688 357.69 455.808 357.57C455.928 357.45 456.074 357.39 456.248 357.39C456.414 357.39 456.554 357.45 456.668 357.57C456.788 357.69 456.848 357.837 456.848 358.01C456.848 358.183 456.788 358.33 456.668 358.45C456.554 358.57 456.414 358.63 456.248 358.63ZM456.688 359.52V365H455.778V359.52H456.688ZM460.629 365.09C460.115 365.09 459.649 364.973 459.229 364.74C458.815 364.507 458.489 364.177 458.249 363.75C458.015 363.317 457.899 362.817 457.899 362.25C457.899 361.69 458.019 361.197 458.259 360.77C458.505 360.337 458.839 360.007 459.259 359.78C459.679 359.547 460.149 359.43 460.669 359.43C461.189 359.43 461.659 359.547 462.079 359.78C462.499 360.007 462.829 360.333 463.069 360.76C463.315 361.187 463.439 361.683 463.439 362.25C463.439 362.817 463.312 363.317 463.059 363.75C462.812 364.177 462.475 364.507 462.049 364.74C461.622 364.973 461.149 365.09 460.629 365.09ZM460.629 364.29C460.955 364.29 461.262 364.213 461.549 364.06C461.835 363.907 462.065 363.677 462.239 363.37C462.419 363.063 462.509 362.69 462.509 362.25C462.509 361.81 462.422 361.437 462.249 361.13C462.075 360.823 461.849 360.597 461.569 360.45C461.289 360.297 460.985 360.22 460.659 360.22C460.325 360.22 460.019 360.297 459.739 360.45C459.465 360.597 459.245 360.823 459.079 361.13C458.912 361.437 458.829 361.81 458.829 362.25C458.829 362.697 458.909 363.073 459.069 363.38C459.235 363.687 459.455 363.917 459.729 364.07C460.002 364.217 460.302 364.29 460.629 364.29ZM465.545 360.41C465.705 360.097 465.932 359.853 466.225 359.68C466.525 359.507 466.889 359.42 467.315 359.42V360.36H467.075C466.055 360.36 465.545 360.913 465.545 362.02V365H464.635V359.52H465.545V360.41ZM468.656 365.06C468.482 365.06 468.336 365 468.216 364.88C468.096 364.76 468.036 364.613 468.036 364.44C468.036 364.267 468.096 364.12 468.216 364C468.336 363.88 468.482 363.82 468.656 363.82C468.822 363.82 468.962 363.88 469.076 364C469.196 364.12 469.256 364.267 469.256 364.44C469.256 364.613 469.196 364.76 469.076 364.88C468.962 365 468.822 365.06 468.656 365.06Z" fill="white"/>
</g>
<g clip-path="url(#clip1_320_2666)">
<rect x="820.114" y="287.006" width="53.924" height="27.1186" rx="13.5593" fill="#212121"/>
<rect x="820.614" y="287.506" width="52.924" height="26.1186" rx="13.0593" stroke="#9B9B9B" stroke-opacity="0.60278"/>
<path d="M838.311 306.09C837.535 306.09 836.827 305.91 836.187 305.55C835.547 305.182 835.039 304.674 834.663 304.026C834.295 303.37 834.111 302.634 834.111 301.818C834.111 301.002 834.295 300.27 834.663 299.622C835.039 298.966 835.547 298.458 836.187 298.098C836.827 297.73 837.535 297.546 838.311 297.546C839.095 297.546 839.807 297.73 840.447 298.098C841.087 298.458 841.591 298.962 841.959 299.61C842.327 300.258 842.511 300.994 842.511 301.818C842.511 302.642 842.327 303.378 841.959 304.026C841.591 304.674 841.087 305.182 840.447 305.55C839.807 305.91 839.095 306.09 838.311 306.09ZM838.311 305.142C838.895 305.142 839.419 305.006 839.883 304.734C840.355 304.462 840.723 304.074 840.987 303.57C841.259 303.066 841.395 302.482 841.395 301.818C841.395 301.146 841.259 300.562 840.987 300.066C840.723 299.562 840.359 299.174 839.895 298.902C839.431 298.63 838.903 298.494 838.311 298.494C837.719 298.494 837.191 298.63 836.727 298.902C836.263 299.174 835.895 299.562 835.623 300.066C835.359 300.562 835.227 301.146 835.227 301.818C835.227 302.482 835.359 303.066 835.623 303.57C835.895 304.074 836.263 304.462 836.727 304.734C837.199 305.006 837.727 305.142 838.311 305.142ZM849.785 299.43V306.006H848.693V305.034C848.485 305.37 848.193 305.634 847.817 305.826C847.449 306.01 847.041 306.102 846.593 306.102C846.081 306.102 845.621 305.998 845.213 305.79C844.805 305.574 844.481 305.254 844.241 304.83C844.009 304.406 843.893 303.89 843.893 303.282V299.43H844.973V303.138C844.973 303.786 845.137 304.286 845.465 304.638C845.793 304.982 846.241 305.154 846.809 305.154C847.393 305.154 847.853 304.974 848.189 304.614C848.525 304.254 848.693 303.73 848.693 303.042V299.43H849.785ZM852.961 300.33V304.206C852.961 304.526 853.029 304.754 853.165 304.89C853.301 305.018 853.537 305.082 853.873 305.082H854.677V306.006H853.693C853.085 306.006 852.629 305.866 852.325 305.586C852.021 305.306 851.869 304.846 851.869 304.206V300.33H851.017V299.43H851.869V297.774H852.961V299.43H854.677V300.33H852.961Z" fill="white"/>
</g>
<g clip-path="url(#clip2_320_2666)">
<rect x="731.875" y="287.006" width="53.924" height="27.1186" rx="13.5593" fill="#212121"/>
<rect x="732.375" y="287.506" width="52.924" height="26.1186" rx="13.0593" stroke="#9B9B9B" stroke-opacity="0.60278"/>
<path d="M748.932 306.09C748.38 306.09 747.884 305.994 747.444 305.802C747.012 305.602 746.672 305.33 746.424 304.986C746.176 304.634 746.048 304.23 746.04 303.774H747.204C747.244 304.166 747.404 304.498 747.684 304.77C747.972 305.034 748.388 305.166 748.932 305.166C749.452 305.166 749.86 305.038 750.156 304.782C750.46 304.518 750.612 304.182 750.612 303.774C750.612 303.454 750.524 303.194 750.348 302.994C750.172 302.794 749.952 302.642 749.688 302.538C749.424 302.434 749.068 302.322 748.62 302.202C748.068 302.058 747.624 301.914 747.288 301.77C746.96 301.626 746.676 301.402 746.436 301.098C746.204 300.786 746.088 300.37 746.088 299.85C746.088 299.394 746.204 298.99 746.436 298.638C746.668 298.286 746.992 298.014 747.408 297.822C747.832 297.63 748.316 297.534 748.86 297.534C749.644 297.534 750.284 297.73 750.78 298.122C751.284 298.514 751.568 299.034 751.632 299.682H750.432C750.392 299.362 750.224 299.082 749.928 298.842C749.632 298.594 749.24 298.47 748.752 298.47C748.296 298.47 747.924 298.59 747.636 298.83C747.348 299.062 747.204 299.39 747.204 299.814C747.204 300.118 747.288 300.366 747.456 300.558C747.632 300.75 747.844 300.898 748.092 301.002C748.348 301.098 748.704 301.21 749.16 301.338C749.712 301.49 750.156 301.642 750.492 301.794C750.828 301.938 751.116 302.166 751.356 302.478C751.596 302.782 751.716 303.198 751.716 303.726C751.716 304.134 751.608 304.518 751.392 304.878C751.176 305.238 750.856 305.53 750.432 305.754C750.008 305.978 749.508 306.09 748.932 306.09ZM759.323 302.466C759.323 302.674 759.311 302.894 759.287 303.126H754.031C754.071 303.774 754.291 304.282 754.691 304.65C755.099 305.01 755.591 305.19 756.167 305.19C756.639 305.19 757.031 305.082 757.343 304.866C757.663 304.642 757.887 304.346 758.015 303.978H759.191C759.015 304.61 758.663 305.126 758.135 305.526C757.607 305.918 756.951 306.114 756.167 306.114C755.543 306.114 754.983 305.974 754.487 305.694C753.999 305.414 753.615 305.018 753.335 304.506C753.055 303.986 752.915 303.386 752.915 302.706C752.915 302.026 753.051 301.43 753.323 300.918C753.595 300.406 753.975 300.014 754.463 299.742C754.959 299.462 755.527 299.322 756.167 299.322C756.791 299.322 757.343 299.458 757.823 299.73C758.303 300.002 758.671 300.378 758.927 300.858C759.191 301.33 759.323 301.866 759.323 302.466ZM758.195 302.238C758.195 301.822 758.103 301.466 757.919 301.17C757.735 300.866 757.483 300.638 757.163 300.486C756.851 300.326 756.503 300.246 756.119 300.246C755.567 300.246 755.095 300.422 754.703 300.774C754.319 301.126 754.099 301.614 754.043 302.238H758.195ZM762.097 300.33V304.206C762.097 304.526 762.165 304.754 762.301 304.89C762.437 305.018 762.673 305.082 763.009 305.082H763.813V306.006H762.829C762.221 306.006 761.765 305.866 761.461 305.586C761.157 305.306 761.005 304.846 761.005 304.206V300.33H760.153V299.43H761.005V297.774H762.097V299.43H763.813V300.33H762.097Z" fill="white"/>
</g>
<g clip-path="url(#clip3_320_2666)">
<rect x="643.636" y="287.006" width="53.924" height="27.1186" rx="13.5593" fill="#212121"/>
<rect x="644.136" y="287.506" width="52.924" height="26.1186" rx="13.0593" stroke="#9B9B9B" stroke-opacity="0.60278"/>
<path d="M661.759 304.146H658.111L657.439 306.006H656.287L659.311 297.69H660.571L663.583 306.006H662.431L661.759 304.146ZM661.447 303.258L659.935 299.034L658.423 303.258H661.447ZM667.613 299.322C668.181 299.322 668.677 299.446 669.101 299.694C669.533 299.942 669.853 300.254 670.061 300.63V299.43H671.165V306.15C671.165 306.75 671.037 307.282 670.781 307.746C670.525 308.218 670.157 308.586 669.677 308.85C669.205 309.114 668.653 309.246 668.021 309.246C667.157 309.246 666.437 309.042 665.861 308.634C665.285 308.226 664.945 307.67 664.841 306.966H665.921C666.041 307.366 666.289 307.686 666.665 307.926C667.041 308.174 667.493 308.298 668.021 308.298C668.621 308.298 669.109 308.11 669.485 307.734C669.869 307.358 670.061 306.83 670.061 306.15V304.77C669.845 305.154 669.525 305.474 669.101 305.73C668.677 305.986 668.181 306.114 667.613 306.114C667.029 306.114 666.497 305.97 666.017 305.682C665.545 305.394 665.173 304.99 664.901 304.47C664.629 303.95 664.493 303.358 664.493 302.694C664.493 302.022 664.629 301.434 664.901 300.93C665.173 300.418 665.545 300.022 666.017 299.742C666.497 299.462 667.029 299.322 667.613 299.322ZM670.061 302.706C670.061 302.21 669.961 301.778 669.761 301.41C669.561 301.042 669.289 300.762 668.945 300.57C668.609 300.37 668.237 300.27 667.829 300.27C667.421 300.27 667.049 300.366 666.713 300.558C666.377 300.75 666.109 301.03 665.909 301.398C665.709 301.766 665.609 302.198 665.609 302.694C665.609 303.198 665.709 303.638 665.909 304.014C666.109 304.382 666.377 304.666 666.713 304.866C667.049 305.058 667.421 305.154 667.829 305.154C668.237 305.154 668.609 305.058 668.945 304.866C669.289 304.666 669.561 304.382 669.761 304.014C669.961 303.638 670.061 303.202 670.061 302.706ZM675.879 306.114C675.263 306.114 674.703 305.974 674.199 305.694C673.703 305.414 673.311 305.018 673.023 304.506C672.743 303.986 672.603 303.386 672.603 302.706C672.603 302.034 672.747 301.442 673.035 300.93C673.331 300.41 673.731 300.014 674.235 299.742C674.739 299.462 675.303 299.322 675.927 299.322C676.551 299.322 677.115 299.462 677.619 299.742C678.123 300.014 678.519 300.406 678.807 300.918C679.103 301.43 679.251 302.026 679.251 302.706C679.251 303.386 679.099 303.986 678.795 304.506C678.499 305.018 678.095 305.414 677.583 305.694C677.071 305.974 676.503 306.114 675.879 306.114ZM675.879 305.154C676.271 305.154 676.639 305.062 676.983 304.878C677.327 304.694 677.603 304.418 677.811 304.05C678.027 303.682 678.135 303.234 678.135 302.706C678.135 302.178 678.031 301.73 677.823 301.362C677.615 300.994 677.343 300.722 677.007 300.546C676.671 300.362 676.307 300.27 675.915 300.27C675.515 300.27 675.147 300.362 674.811 300.546C674.483 300.722 674.219 300.994 674.019 301.362C673.819 301.73 673.719 302.178 673.719 302.706C673.719 303.242 673.815 303.694 674.007 304.062C674.207 304.43 674.471 304.706 674.799 304.89C675.127 305.066 675.487 305.154 675.879 305.154Z" fill="white"/>
</g>
<g clip-path="url(#clip4_320_2666)">
<rect x="555.397" y="287.006" width="53.924" height="27.1186" rx="13.5593" fill="#212121"/>
<rect x="555.897" y="287.506" width="52.924" height="26.1186" rx="13.0593" stroke="#9B9B9B" stroke-opacity="0.60278"/>
<path d="M577.69 297.642V303.822C577.69 304.51 577.478 305.062 577.054 305.478C576.63 305.886 576.07 306.09 575.374 306.09C574.67 306.09 574.106 305.882 573.682 305.466C573.258 305.042 573.046 304.466 573.046 303.738H574.138C574.146 304.146 574.25 304.478 574.45 304.734C574.658 304.99 574.966 305.118 575.374 305.118C575.782 305.118 576.086 304.998 576.286 304.758C576.486 304.51 576.586 304.198 576.586 303.822V297.642H577.69ZM585.674 299.43V306.006H584.582V305.034C584.374 305.37 584.082 305.634 583.706 305.826C583.338 306.01 582.93 306.102 582.482 306.102C581.97 306.102 581.51 305.998 581.102 305.79C580.694 305.574 580.37 305.254 580.13 304.83C579.898 304.406 579.782 303.89 579.782 303.282V299.43H580.862V303.138C580.862 303.786 581.026 304.286 581.354 304.638C581.682 304.982 582.13 305.154 582.698 305.154C583.282 305.154 583.742 304.974 584.078 304.614C584.414 304.254 584.582 303.73 584.582 303.042V299.43H585.674ZM588.609 297.126V306.006H587.517V297.126H588.609Z" fill="white"/>
</g>
<g clip-path="url(#clip5_320_2666)">
<rect x="467.157" y="287.006" width="53.924" height="27.1186" rx="13.5593" fill="white"/>
<path d="M485.774 297.642V303.822C485.774 304.51 485.562 305.062 485.138 305.478C484.714 305.886 484.154 306.09 483.458 306.09C482.754 306.09 482.19 305.882 481.766 305.466C481.342 305.042 481.13 304.466 481.13 303.738H482.222C482.23 304.146 482.334 304.478 482.534 304.734C482.742 304.99 483.05 305.118 483.458 305.118C483.866 305.118 484.17 304.998 484.37 304.758C484.57 304.51 484.67 304.198 484.67 303.822V297.642H485.774ZM493.758 299.43V306.006H492.666V305.034C492.458 305.37 492.166 305.634 491.79 305.826C491.422 306.01 491.014 306.102 490.566 306.102C490.054 306.102 489.594 305.998 489.186 305.79C488.778 305.574 488.454 305.254 488.214 304.83C487.982 304.406 487.866 303.89 487.866 303.282V299.43H488.946V303.138C488.946 303.786 489.11 304.286 489.438 304.638C489.766 304.982 490.214 305.154 490.782 305.154C491.366 305.154 491.826 304.974 492.162 304.614C492.498 304.254 492.666 303.73 492.666 303.042V299.43H493.758ZM498.806 299.31C499.606 299.31 500.254 299.554 500.75 300.042C501.246 300.522 501.494 301.218 501.494 302.13V306.006H500.414V302.286C500.414 301.63 500.25 301.13 499.922 300.786C499.594 300.434 499.146 300.258 498.578 300.258C498.002 300.258 497.542 300.438 497.198 300.798C496.862 301.158 496.694 301.682 496.694 302.37V306.006H495.602V299.43H496.694V300.366C496.91 300.03 497.202 299.77 497.57 299.586C497.946 299.402 498.358 299.31 498.806 299.31Z" fill="black"/>
</g>
<g clip-path="url(#clip6_320_2666)">
<rect x="378.918" y="287.006" width="53.924" height="27.1186" rx="13.5593" fill="#212121"/>
<rect x="379.418" y="287.506" width="52.924" height="26.1186" rx="13.0593" stroke="#9B9B9B" stroke-opacity="0.60278"/>
<path d="M399.356 297.702V306.006H398.264V299.814L395.504 306.006H394.736L391.964 299.802V306.006H390.872V297.702H392.048L395.12 304.566L398.192 297.702H399.356ZM400.8 302.694C400.8 302.022 400.936 301.434 401.208 300.93C401.48 300.418 401.852 300.022 402.324 299.742C402.804 299.462 403.336 299.322 403.92 299.322C404.496 299.322 404.996 299.446 405.42 299.694C405.844 299.942 406.16 300.254 406.368 300.63V299.43H407.472V306.006H406.368V304.782C406.152 305.166 405.828 305.486 405.396 305.742C404.972 305.99 404.476 306.114 403.908 306.114C403.324 306.114 402.796 305.97 402.324 305.682C401.852 305.394 401.48 304.99 401.208 304.47C400.936 303.95 400.8 303.358 400.8 302.694ZM406.368 302.706C406.368 302.21 406.268 301.778 406.068 301.41C405.868 301.042 405.596 300.762 405.252 300.57C404.916 300.37 404.544 300.27 404.136 300.27C403.728 300.27 403.356 300.366 403.02 300.558C402.684 300.75 402.416 301.03 402.216 301.398C402.016 301.766 401.916 302.198 401.916 302.694C401.916 303.198 402.016 303.638 402.216 304.014C402.416 304.382 402.684 304.666 403.02 304.866C403.356 305.058 403.728 305.154 404.136 305.154C404.544 305.154 404.916 305.058 405.252 304.866C405.596 304.666 405.868 304.382 406.068 304.014C406.268 303.638 406.368 303.202 406.368 302.706ZM409.882 298.362C409.674 298.362 409.498 298.29 409.354 298.146C409.21 298.002 409.138 297.826 409.138 297.618C409.138 297.41 409.21 297.234 409.354 297.09C409.498 296.946 409.674 296.874 409.882 296.874C410.082 296.874 410.25 296.946 410.386 297.09C410.53 297.234 410.602 297.41 410.602 297.618C410.602 297.826 410.53 298.002 410.386 298.146C410.25 298.29 410.082 298.362 409.882 298.362ZM410.41 299.43V306.006H409.318V299.43H410.41Z" fill="white"/>
</g>
<g clip-path="url(#clip7_320_2666)">
<rect x="290.679" y="287.006" width="53.924" height="27.1186" rx="13.5593" fill="#212121"/>
<rect x="291.179" y="287.506" width="52.924" height="26.1186" rx="13.0593" stroke="#9B9B9B" stroke-opacity="0.60278"/>
<path d="M310.028 304.146H306.38L305.708 306.006H304.556L307.58 297.69H308.84L311.852 306.006H310.7L310.028 304.146ZM309.716 303.258L308.204 299.034L306.692 303.258H309.716ZM314.262 300.654C314.486 300.262 314.814 299.942 315.246 299.694C315.678 299.446 316.17 299.322 316.722 299.322C317.314 299.322 317.846 299.462 318.318 299.742C318.79 300.022 319.162 300.418 319.434 300.93C319.706 301.434 319.842 302.022 319.842 302.694C319.842 303.358 319.706 303.95 319.434 304.47C319.162 304.99 318.786 305.394 318.306 305.682C317.834 305.97 317.306 306.114 316.722 306.114C316.154 306.114 315.654 305.99 315.222 305.742C314.798 305.494 314.478 305.178 314.262 304.794V306.006H313.17V297.126H314.262V300.654ZM318.726 302.694C318.726 302.198 318.626 301.766 318.426 301.398C318.226 301.03 317.954 300.75 317.61 300.558C317.274 300.366 316.902 300.27 316.494 300.27C316.094 300.27 315.722 300.37 315.378 300.57C315.042 300.762 314.77 301.046 314.562 301.422C314.362 301.79 314.262 302.218 314.262 302.706C314.262 303.202 314.362 303.638 314.562 304.014C314.77 304.382 315.042 304.666 315.378 304.866C315.722 305.058 316.094 305.154 316.494 305.154C316.902 305.154 317.274 305.058 317.61 304.866C317.954 304.666 318.226 304.382 318.426 304.014C318.626 303.638 318.726 303.198 318.726 302.694ZM322.371 300.498C322.563 300.122 322.835 299.83 323.187 299.622C323.547 299.414 323.983 299.31 324.495 299.31V300.438H324.207C322.983 300.438 322.371 301.102 322.371 302.43V306.006H321.279V299.43H322.371V300.498Z" fill="white"/>
</g>
<g clip-path="url(#clip8_320_2666)">
<rect x="202.44" y="287.006" width="53.924" height="27.1186" rx="13.5593" fill="#212121"/>
<rect x="202.94" y="287.506" width="52.924" height="26.1186" rx="13.0593" stroke="#9B9B9B" stroke-opacity="0.60278"/>
<path d="M225.329 297.702V306.006H224.237V299.814L221.477 306.006H220.709L217.937 299.802V306.006H216.845V297.702H218.021L221.093 304.566L224.165 297.702H225.329ZM226.773 302.694C226.773 302.022 226.909 301.434 227.181 300.93C227.453 300.418 227.825 300.022 228.297 299.742C228.777 299.462 229.309 299.322 229.893 299.322C230.469 299.322 230.969 299.446 231.393 299.694C231.817 299.942 232.133 300.254 232.341 300.63V299.43H233.445V306.006H232.341V304.782C232.125 305.166 231.801 305.486 231.369 305.742C230.945 305.99 230.449 306.114 229.881 306.114C229.297 306.114 228.769 305.97 228.297 305.682C227.825 305.394 227.453 304.99 227.181 304.47C226.909 303.95 226.773 303.358 226.773 302.694ZM232.341 302.706C232.341 302.21 232.241 301.778 232.041 301.41C231.841 301.042 231.569 300.762 231.225 300.57C230.889 300.37 230.517 300.27 230.109 300.27C229.701 300.27 229.329 300.366 228.993 300.558C228.657 300.75 228.389 301.03 228.189 301.398C227.989 301.766 227.889 302.198 227.889 302.694C227.889 303.198 227.989 303.638 228.189 304.014C228.389 304.382 228.657 304.666 228.993 304.866C229.329 305.058 229.701 305.154 230.109 305.154C230.517 305.154 230.889 305.058 231.225 304.866C231.569 304.666 231.841 304.382 232.041 304.014C232.241 303.638 232.341 303.202 232.341 302.706ZM236.382 300.498C236.574 300.122 236.846 299.83 237.198 299.622C237.558 299.414 237.994 299.31 238.506 299.31V300.438H238.218C236.994 300.438 236.382 301.102 236.382 302.43V306.006H235.29V299.43H236.382V300.498Z" fill="white"/>
</g>
<g clip-path="url(#clip9_320_2666)">
<rect x="114.201" y="287.006" width="53.924" height="27.1186" rx="13.5593" fill="#212121"/>
<rect x="114.701" y="287.506" width="52.924" height="26.1186" rx="13.0593" stroke="#9B9B9B" stroke-opacity="0.60278"/>
<path d="M133.334 297.642V298.53H129.698V301.35H132.65V302.238H129.698V306.006H128.606V297.642H133.334ZM140.653 302.466C140.653 302.674 140.641 302.894 140.617 303.126H135.361C135.401 303.774 135.621 304.282 136.021 304.65C136.429 305.01 136.921 305.19 137.497 305.19C137.969 305.19 138.361 305.082 138.673 304.866C138.993 304.642 139.217 304.346 139.345 303.978H140.521C140.345 304.61 139.993 305.126 139.465 305.526C138.937 305.918 138.281 306.114 137.497 306.114C136.873 306.114 136.313 305.974 135.817 305.694C135.329 305.414 134.945 305.018 134.665 304.506C134.385 303.986 134.245 303.386 134.245 302.706C134.245 302.026 134.381 301.43 134.653 300.918C134.925 300.406 135.305 300.014 135.793 299.742C136.289 299.462 136.857 299.322 137.497 299.322C138.121 299.322 138.673 299.458 139.153 299.73C139.633 300.002 140.001 300.378 140.257 300.858C140.521 301.33 140.653 301.866 140.653 302.466ZM139.525 302.238C139.525 301.822 139.433 301.466 139.249 301.17C139.065 300.866 138.813 300.638 138.493 300.486C138.181 300.326 137.833 300.246 137.449 300.246C136.897 300.246 136.425 300.422 136.033 300.774C135.649 301.126 135.429 301.614 135.373 302.238H139.525ZM144.542 304.998L146.582 299.43H147.746L145.166 306.006H143.894L141.314 299.43H142.49L144.542 304.998Z" fill="white"/>
</g>
<g clip-path="url(#clip10_320_2666)">
<rect x="25.9614" y="287.006" width="53.924" height="27.1186" rx="13.5593" fill="#212121"/>
<rect x="26.4614" y="287.506" width="52.924" height="26.1186" rx="13.0593" stroke="#9B9B9B" stroke-opacity="0.60278"/>
<path d="M44.5784 297.642V303.822C44.5784 304.51 44.3664 305.062 43.9424 305.478C43.5184 305.886 42.9584 306.09 42.2624 306.09C41.5584 306.09 40.9944 305.882 40.5704 305.466C40.1464 305.042 39.9344 304.466 39.9344 303.738H41.0264C41.0344 304.146 41.1384 304.478 41.3384 304.734C41.5464 304.99 41.8544 305.118 42.2624 305.118C42.6704 305.118 42.9744 304.998 43.1744 304.758C43.3744 304.51 43.4744 304.198 43.4744 303.822V297.642H44.5784ZM46.3217 302.694C46.3217 302.022 46.4577 301.434 46.7297 300.93C47.0017 300.418 47.3737 300.022 47.8457 299.742C48.3257 299.462 48.8577 299.322 49.4417 299.322C50.0177 299.322 50.5177 299.446 50.9417 299.694C51.3657 299.942 51.6817 300.254 51.8897 300.63V299.43H52.9937V306.006H51.8897V304.782C51.6737 305.166 51.3497 305.486 50.9177 305.742C50.4937 305.99 49.9977 306.114 49.4297 306.114C48.8457 306.114 48.3177 305.97 47.8457 305.682C47.3737 305.394 47.0017 304.99 46.7297 304.47C46.4577 303.95 46.3217 303.358 46.3217 302.694ZM51.8897 302.706C51.8897 302.21 51.7897 301.778 51.5897 301.41C51.3897 301.042 51.1177 300.762 50.7737 300.57C50.4377 300.37 50.0657 300.27 49.6577 300.27C49.2497 300.27 48.8777 300.366 48.5417 300.558C48.2057 300.75 47.9377 301.03 47.7377 301.398C47.5377 301.766 47.4377 302.198 47.4377 302.694C47.4377 303.198 47.5377 303.638 47.7377 304.014C47.9377 304.382 48.2057 304.666 48.5417 304.866C48.8777 305.058 49.2497 305.154 49.6577 305.154C50.0657 305.154 50.4377 305.058 50.7737 304.866C51.1177 304.666 51.3897 304.382 51.5897 304.014C51.7897 303.638 51.8897 303.202 51.8897 302.706ZM58.0431 299.31C58.8431 299.31 59.4911 299.554 59.9871 300.042C60.4831 300.522 60.7311 301.218 60.7311 302.13V306.006H59.6511V302.286C59.6511 301.63 59.4871 301.13 59.1591 300.786C58.8311 300.434 58.3831 300.258 57.8151 300.258C57.2391 300.258 56.7791 300.438 56.4351 300.798C56.0991 301.158 55.9311 301.682 55.9311 302.37V306.006H54.8391V299.43H55.9311V300.366C56.1471 300.03 56.4391 299.77 56.8071 299.586C57.1831 299.402 57.5951 299.31 58.0431 299.31Z" fill="white"/>
</g>
<path opacity="0.2" fill-rule="evenodd" clip-rule="evenodd" d="M25.9999 257.85C77.3031 257.85 85.6522 151.067 116.345 151.067C147.038 151.067 127.91 170.249 167.545 170.249C207.18 170.249 192.113 206.334 221.777 206.334C251.44 206.334 234.619 111 279.666 111C324.712 111 300.031 163.714 365.204 163.714C430.377 163.714 414.74 256.934 457.082 256.906C499.425 256.878 500.713 175.302 530.973 175.302C561.234 175.302 555.74 238.299 596.13 238.299C636.518 238.299 643.007 196.659 677.418 196.659C711.829 196.659 711.829 207.718 737.258 207.718C762.688 207.718 751.05 157.876 791.088 157.122C831.126 156.367 813.115 269.192 874.077 269.192" fill="url(#paint1_linear_320_2666)"/>
<path d="M25.9614 249.717C72.6018 249.717 92.1667 167.364 136.359 217.398C180.552 267.432 224.965 141.755 249.406 173.71C273.848 205.665 273.848 118.597 290.524 186.311C298.545 218.884 313.805 276.474 342.377 231.446C366.335 193.69 381.991 276.474 412.318 218.518C442.644 160.563 437.674 252.902 457.044 226.168C465.581 214.386 486.748 254.938 522.266 197.401C537.294 173.057 572.601 257.391 601.262 221.851C615.466 204.238 628.595 152.747 641.707 172.54C654.819 192.333 666.588 149.152 677.379 149.152C697.403 149.152 688.844 190.951 728.596 163.237C768.348 135.524 805.093 249.717 874.038 249.717" stroke="#FF0000" stroke-linecap="round" stroke-linejoin="round"/>
<path fill-rule="evenodd" clip-rule="evenodd" d="M494.732 150.282V287.006H494.119V150.282H494.732Z" fill="#D8D8D8"/>
<ellipse cx="494.351" cy="224.859" rx="7.57211" ry="7.9096" fill="white"/>
<g clip-path="url(#clip11_320_2666)">
<g filter="url(#filter0_d_320_2666)">
<path fill-rule="evenodd" clip-rule="evenodd" d="M464.5 110.734C456.492 110.734 450 117.226 450 125.234V129.003C450 137.011 456.492 143.503 464.5 143.503H488.624L494.732 150.282L500.879 143.503H524.965C532.973 143.503 539.465 137.011 539.465 129.003V125.234C539.465 117.226 532.973 110.734 524.965 110.734H464.5Z" fill="white"/>
</g>
<path d="M470.478 132.734L468.32 129.029H466.89V132.734H465.707V123.673H468.632C469.317 123.673 469.893 123.79 470.361 124.024C470.838 124.258 471.193 124.575 471.427 124.973C471.661 125.372 471.778 125.827 471.778 126.338C471.778 126.962 471.596 127.513 471.232 127.989C470.877 128.466 470.34 128.782 469.62 128.938L471.895 132.734H470.478ZM466.89 128.08H468.632C469.274 128.08 469.755 127.924 470.075 127.612C470.396 127.292 470.556 126.867 470.556 126.338C470.556 125.801 470.396 125.385 470.075 125.09C469.763 124.796 469.282 124.648 468.632 124.648H466.89V128.08ZM479.467 130.251C479.467 130.667 479.363 131.066 479.155 131.447C478.947 131.82 478.639 132.132 478.232 132.383C477.833 132.635 477.352 132.778 476.789 132.812V133.865H476.087V132.812C475.298 132.743 474.657 132.492 474.163 132.058C473.669 131.616 473.417 131.057 473.409 130.381H474.67C474.704 130.745 474.839 131.062 475.073 131.33C475.315 131.599 475.653 131.768 476.087 131.837V128.587C475.506 128.44 475.038 128.288 474.683 128.132C474.327 127.976 474.024 127.734 473.773 127.404C473.521 127.075 473.396 126.633 473.396 126.078C473.396 125.376 473.638 124.796 474.124 124.336C474.618 123.877 475.272 123.621 476.087 123.569V122.49H476.789V123.569C477.525 123.63 478.119 123.868 478.57 124.284C479.02 124.692 479.28 125.225 479.35 125.883H478.089C478.045 125.58 477.911 125.307 477.686 125.064C477.46 124.813 477.161 124.648 476.789 124.57V127.742C477.361 127.89 477.824 128.041 478.18 128.197C478.544 128.345 478.847 128.583 479.09 128.912C479.341 129.242 479.467 129.688 479.467 130.251ZM474.605 126.013C474.605 126.438 474.73 126.763 474.982 126.988C475.233 127.214 475.601 127.4 476.087 127.547V124.544C475.636 124.588 475.276 124.735 475.008 124.986C474.739 125.229 474.605 125.571 474.605 126.013ZM476.789 131.85C477.257 131.798 477.621 131.629 477.881 131.343C478.149 131.057 478.284 130.715 478.284 130.316C478.284 129.892 478.154 129.567 477.894 129.341C477.634 129.107 477.265 128.921 476.789 128.782V131.85ZM484.688 130.641V129.744L489.251 123.426H490.668V129.614H491.968V130.641H490.668V132.734H489.498V130.641H484.688ZM489.55 124.661L486.053 129.614H489.55V124.661ZM492.838 124.414V123.335H495.282V132.734H494.086V124.414H492.838ZM497.171 131.785C498.272 130.901 499.134 130.178 499.758 129.614C500.382 129.042 500.907 128.449 501.331 127.833C501.765 127.209 501.981 126.598 501.981 126C501.981 125.437 501.843 124.995 501.565 124.674C501.297 124.345 500.859 124.18 500.252 124.18C499.663 124.18 499.204 124.367 498.874 124.739C498.554 125.103 498.38 125.593 498.354 126.208H497.21C497.245 125.238 497.54 124.488 498.094 123.959C498.649 123.431 499.364 123.166 500.239 123.166C501.132 123.166 501.838 123.413 502.358 123.907C502.887 124.401 503.151 125.082 503.151 125.948C503.151 126.668 502.935 127.37 502.501 128.054C502.077 128.73 501.591 129.328 501.045 129.848C500.499 130.36 499.802 130.958 498.952 131.642H503.424V132.63H497.171V131.785ZM505.364 132.812C505.138 132.812 504.948 132.734 504.792 132.578C504.636 132.422 504.558 132.232 504.558 132.006C504.558 131.781 504.636 131.59 504.792 131.434C504.948 131.278 505.138 131.2 505.364 131.2C505.58 131.2 505.762 131.278 505.91 131.434C506.066 131.59 506.144 131.781 506.144 132.006C506.144 132.232 506.066 132.422 505.91 132.578C505.762 132.734 505.58 132.812 505.364 132.812ZM513.306 124.258L509.692 132.734H508.496L512.162 124.375H507.144V123.361H513.306V124.258ZM514.332 130.641V129.744L518.895 123.426H520.312V129.614H521.612V130.641H520.312V132.734H519.142V130.641H514.332ZM519.194 124.661L515.697 129.614H519.194V124.661Z" fill="black"/>
</g>
<ellipse cx="846.995" cy="55.3672" rx="27.0433" ry="28.2486" fill="#212121"/>
<path d="M873.538 55.3672C873.538 70.7131 861.634 83.1158 846.995 83.1158C832.356 83.1158 820.452 70.7131 820.452 55.3672C820.452 40.0213 832.356 27.6187 846.995 27.6187C861.634 27.6187 873.538 40.0213 873.538 55.3672Z" stroke="#9B9B9B" stroke-opacity="0.60278"/>
<path d="M851.887 49.7175H844.653C844.36 49.7175 844.136 49.9508 844.136 50.2559C844.136 50.561 844.36 50.7943 844.653 50.7943H850.681L841.742 60.1084C841.535 60.3237 841.535 60.6647 841.742 60.8621C841.948 61.0595 842.276 61.0775 842.465 60.8621L851.37 51.6019V57.7933C851.37 58.0984 851.594 58.3317 851.887 58.3317C852.18 58.3317 852.404 58.0984 852.404 57.7933V50.2559C852.404 49.9508 852.18 49.7175 851.887 49.7175Z" fill="white"/>
<ellipse cx="784.255" cy="55.3672" rx="27.0433" ry="28.2486" fill="#212121"/>
<path d="M810.798 55.3672C810.798 70.7131 798.894 83.1158 784.255 83.1158C769.616 83.1158 757.711 70.7131 757.711 55.3672C757.711 40.0213 769.616 27.6187 784.255 27.6187C798.894 27.6187 810.798 40.0213 810.798 55.3672Z" stroke="#9B9B9B" stroke-opacity="0.60278"/>
<path fill-rule="evenodd" clip-rule="evenodd" d="M779.151 47.1045V46.1511C779.151 45.6109 778.75 45.1978 778.225 45.1978C777.701 45.1978 777.3 45.6109 777.3 46.1511V47.1045C776.96 47.1045 776.683 47.3906 776.683 47.7401V50.2825C776.683 50.6321 776.96 50.9181 777.3 50.9181V64.5833C777.3 65.1236 777.701 65.5367 778.225 65.5367C778.75 65.5367 779.151 65.1236 779.151 64.5833V50.9181C779.491 50.9181 779.768 50.6321 779.768 50.2825V47.7401C779.768 47.3906 779.491 47.1045 779.151 47.1045ZM785.177 60.452V46.1511C785.177 45.6109 784.776 45.1978 784.251 45.1978C783.726 45.1978 783.325 45.6109 783.325 46.1511V60.452C782.986 60.452 782.708 60.738 782.708 61.0876V63.63C782.708 63.9795 782.986 64.2655 783.325 64.2655V64.5833C783.325 65.1236 783.726 65.5367 784.251 65.5367C784.776 65.5367 785.177 65.1236 785.177 64.5833V64.2655C785.516 64.2655 785.794 63.9795 785.794 63.63V61.0876C785.794 60.738 785.516 60.452 785.177 60.452ZM791.211 46.1511V52.1893C791.55 52.1893 791.828 52.4753 791.828 52.8249V55.3672C791.828 55.7168 791.55 56.0028 791.211 56.0028V64.5833C791.211 65.1236 790.81 65.5367 790.285 65.5367C789.761 65.5367 789.359 65.1236 789.359 64.5833V56.0028C789.02 56.0028 788.742 55.7168 788.742 55.3672V52.8249C788.742 52.4753 789.02 52.1893 789.359 52.1893V46.1511C789.359 45.6109 789.761 45.1978 790.285 45.1978C790.81 45.1978 791.211 45.6109 791.211 46.1511Z" fill="white"/>
<path d="M39.2894 67.236V79H37.7424V70.228L33.8324 79H32.7444L28.8174 70.211V79H27.2704V67.236H28.9364L33.2884 76.96L37.6404 67.236H39.2894ZM45.976 79.153C45.1033 79.153 44.31 78.9547 43.596 78.558C42.8933 78.1613 42.338 77.6003 41.93 76.875C41.5333 76.1383 41.335 75.2883 41.335 74.325C41.335 73.373 41.539 72.5343 41.947 71.809C42.3663 71.0723 42.933 70.5113 43.647 70.126C44.361 69.7293 45.16 69.531 46.044 69.531C46.928 69.531 47.727 69.7293 48.441 70.126C49.155 70.5113 49.716 71.0667 50.124 71.792C50.5433 72.5173 50.753 73.3617 50.753 74.325C50.753 75.2883 50.5377 76.1383 50.107 76.875C49.6877 77.6003 49.1153 78.1613 48.39 78.558C47.6647 78.9547 46.86 79.153 45.976 79.153ZM45.976 77.793C46.5313 77.793 47.0527 77.6627 47.54 77.402C48.0273 77.1413 48.4183 76.7503 48.713 76.229C49.019 75.7077 49.172 75.073 49.172 74.325C49.172 73.577 49.0247 72.9423 48.73 72.421C48.4353 71.8997 48.05 71.5143 47.574 71.265C47.098 71.0043 46.5823 70.874 46.027 70.874C45.4603 70.874 44.939 71.0043 44.463 71.265C43.9983 71.5143 43.6243 71.8997 43.341 72.421C43.0577 72.9423 42.916 73.577 42.916 74.325C42.916 75.0843 43.052 75.7247 43.324 76.246C43.6073 76.7673 43.9813 77.1583 44.446 77.419C44.9107 77.6683 45.4207 77.793 45.976 77.793ZM56.255 77.572L59.145 69.684H60.794L57.139 79H55.337L51.682 69.684H53.348L56.255 77.572ZM63.1153 68.171C62.8207 68.171 62.5713 68.069 62.3673 67.865C62.1633 67.661 62.0613 67.4117 62.0613 67.117C62.0613 66.8223 62.1633 66.573 62.3673 66.369C62.5713 66.165 62.8207 66.063 63.1153 66.063C63.3987 66.063 63.6367 66.165 63.8293 66.369C64.0333 66.573 64.1353 66.8223 64.1353 67.117C64.1353 67.4117 64.0333 67.661 63.8293 67.865C63.6367 68.069 63.3987 68.171 63.1153 68.171ZM63.8633 69.684V79H62.3163V69.684H63.8633ZM77.7029 69.514C78.4283 69.514 79.0743 69.667 79.6409 69.973C80.2076 70.2677 80.6553 70.7153 80.9839 71.316C81.3126 71.9167 81.4769 72.6477 81.4769 73.509V79H79.9469V73.73C79.9469 72.8007 79.7146 72.0923 79.2499 71.605C78.7966 71.1063 78.1789 70.857 77.3969 70.857C76.5923 70.857 75.9519 71.1177 75.4759 71.639C74.9999 72.149 74.7619 72.8913 74.7619 73.866V79H73.2319V73.73C73.2319 72.8007 72.9996 72.0923 72.5349 71.605C72.0816 71.1063 71.4639 70.857 70.6819 70.857C69.8773 70.857 69.2369 71.1177 68.7609 71.639C68.2849 72.149 68.0469 72.8913 68.0469 73.866V79H66.4999V69.684H68.0469V71.027C68.3529 70.5397 68.7609 70.1657 69.2709 69.905C69.7923 69.6443 70.3646 69.514 70.9879 69.514C71.7699 69.514 72.4613 69.6897 73.0619 70.041C73.6626 70.3923 74.1103 70.908 74.4049 71.588C74.6656 70.9307 75.0963 70.4207 75.6969 70.058C76.2976 69.6953 76.9663 69.514 77.7029 69.514ZM92.5146 73.985C92.5146 74.2797 92.4976 74.5913 92.4636 74.92H85.0176C85.0742 75.838 85.3859 76.5577 85.9526 77.079C86.5306 77.589 87.2276 77.844 88.0436 77.844C88.7122 77.844 89.2676 77.691 89.7096 77.385C90.1629 77.0677 90.4802 76.6483 90.6616 76.127H92.3276C92.0782 77.0223 91.5796 77.7533 90.8316 78.32C90.0836 78.8753 89.1542 79.153 88.0436 79.153C87.1596 79.153 86.3662 78.9547 85.6636 78.558C84.9722 78.1613 84.4282 77.6003 84.0316 76.875C83.6349 76.1383 83.4366 75.2883 83.4366 74.325C83.4366 73.3617 83.6292 72.5173 84.0146 71.792C84.3999 71.0667 84.9382 70.5113 85.6296 70.126C86.3322 69.7293 87.1369 69.531 88.0436 69.531C88.9276 69.531 89.7096 69.7237 90.3896 70.109C91.0696 70.4943 91.5909 71.027 91.9536 71.707C92.3276 72.3757 92.5146 73.135 92.5146 73.985ZM90.9166 73.662C90.9166 73.0727 90.7862 72.5683 90.5256 72.149C90.2649 71.7183 89.9079 71.3953 89.4546 71.18C89.0126 70.9533 88.5196 70.84 87.9756 70.84C87.1936 70.84 86.5249 71.0893 85.9696 71.588C85.4256 72.0867 85.1139 72.778 85.0346 73.662H90.9166ZM99.0956 69.514C100.229 69.514 101.147 69.8597 101.85 70.551C102.552 71.231 102.904 72.217 102.904 73.509V79H101.374V73.73C101.374 72.8007 101.141 72.0923 100.677 71.605C100.212 71.1063 99.5772 70.857 98.7726 70.857C97.9566 70.857 97.3049 71.112 96.8176 71.622C96.3416 72.132 96.1036 72.8743 96.1036 73.849V79H94.5566V69.684H96.1036V71.01C96.4096 70.534 96.8232 70.1657 97.3446 69.905C97.8772 69.6443 98.4609 69.514 99.0956 69.514ZM107.318 70.959V76.45C107.318 76.9033 107.414 77.2263 107.607 77.419C107.799 77.6003 108.134 77.691 108.61 77.691H109.749V79H108.355C107.493 79 106.847 78.8017 106.417 78.405C105.986 78.0083 105.771 77.3567 105.771 76.45V70.959H104.564V69.684H105.771V67.338H107.318V69.684H109.749V70.959H107.318ZM111.045 74.308C111.045 73.356 111.238 72.523 111.623 71.809C112.008 71.0837 112.535 70.5227 113.204 70.126C113.884 69.7293 114.638 69.531 115.465 69.531C116.281 69.531 116.989 69.7067 117.59 70.058C118.191 70.4093 118.638 70.8513 118.933 71.384V69.684H120.497V79H118.933V77.266C118.627 77.81 118.168 78.2633 117.556 78.626C116.955 78.9773 116.253 79.153 115.448 79.153C114.621 79.153 113.873 78.949 113.204 78.541C112.535 78.133 112.008 77.5607 111.623 76.824C111.238 76.0873 111.045 75.2487 111.045 74.308ZM118.933 74.325C118.933 73.6223 118.791 73.0103 118.508 72.489C118.225 71.9677 117.839 71.571 117.352 71.299C116.876 71.0157 116.349 70.874 115.771 70.874C115.193 70.874 114.666 71.01 114.19 71.282C113.714 71.554 113.334 71.9507 113.051 72.472C112.768 72.9933 112.626 73.6053 112.626 74.308C112.626 75.022 112.768 75.6453 113.051 76.178C113.334 76.6993 113.714 77.1017 114.19 77.385C114.666 77.657 115.193 77.793 115.771 77.793C116.349 77.793 116.876 77.657 117.352 77.385C117.839 77.1017 118.225 76.6993 118.508 76.178C118.791 75.6453 118.933 75.0277 118.933 74.325ZM127.072 77.844C127.752 77.844 128.319 77.6853 128.772 77.368C129.226 77.0507 129.537 76.5973 129.707 76.008H131.373C131.147 76.892 130.699 77.6173 130.03 78.184C129.373 78.7393 128.546 79.0567 127.548 79.136V79.986C128.217 79.9747 128.75 80.1163 129.146 80.411C129.543 80.7057 129.741 81.125 129.741 81.669C129.741 82.2017 129.549 82.6267 129.163 82.944C128.778 83.2613 128.279 83.42 127.667 83.42H125.712V82.417H127.361C127.735 82.417 128.007 82.3603 128.177 82.247C128.359 82.1337 128.449 81.941 128.449 81.669C128.449 81.4083 128.359 81.2213 128.177 81.108C128.007 80.9947 127.735 80.938 127.361 80.938H126.511V79.119C125.729 79.0397 125.038 78.796 124.437 78.388C123.837 77.9687 123.366 77.4133 123.026 76.722C122.698 76.0193 122.533 75.2203 122.533 74.325C122.533 73.3617 122.726 72.523 123.111 71.809C123.497 71.0837 124.029 70.5227 124.709 70.126C125.401 69.7293 126.188 69.531 127.072 69.531C128.217 69.531 129.158 69.8087 129.894 70.364C130.642 70.9193 131.135 71.69 131.373 72.676H129.707C129.549 72.1093 129.237 71.6617 128.772 71.333C128.319 71.0043 127.752 70.84 127.072 70.84C126.188 70.84 125.474 71.146 124.93 71.758C124.386 72.3587 124.114 73.2143 124.114 74.325C124.114 75.447 124.386 76.314 124.93 76.926C125.474 77.538 126.188 77.844 127.072 77.844ZM132.859 74.308C132.859 73.356 133.052 72.523 133.437 71.809C133.823 71.0837 134.35 70.5227 135.018 70.126C135.698 69.7293 136.452 69.531 137.279 69.531C138.095 69.531 138.804 69.7067 139.404 70.058C140.005 70.4093 140.453 70.8513 140.747 71.384V69.684H142.311V79H140.747V77.266C140.441 77.81 139.982 78.2633 139.37 78.626C138.77 78.9773 138.067 79.153 137.262 79.153C136.435 79.153 135.687 78.949 135.018 78.541C134.35 78.133 133.823 77.5607 133.437 76.824C133.052 76.0873 132.859 75.2487 132.859 74.308ZM140.747 74.325C140.747 73.6223 140.606 73.0103 140.322 72.489C140.039 71.9677 139.654 71.571 139.166 71.299C138.69 71.0157 138.163 70.874 137.585 70.874C137.007 70.874 136.48 71.01 136.004 71.282C135.528 71.554 135.149 71.9507 134.865 72.472C134.582 72.9933 134.44 73.6053 134.44 74.308C134.44 75.022 134.582 75.6453 134.865 76.178C135.149 76.6993 135.528 77.1017 136.004 77.385C136.48 77.657 137.007 77.793 137.585 77.793C138.163 77.793 138.69 77.657 139.166 77.385C139.654 77.1017 140.039 76.6993 140.322 76.178C140.606 75.6453 140.747 75.0277 140.747 74.325ZM135.392 68.681C135.472 68.103 135.659 67.661 135.953 67.355C136.259 67.049 136.639 66.896 137.092 66.896C137.308 66.896 137.489 66.9357 137.636 67.015C137.795 67.083 137.982 67.185 138.197 67.321C138.356 67.4343 138.498 67.525 138.622 67.593C138.747 67.6497 138.883 67.678 139.03 67.678C139.223 67.678 139.387 67.6157 139.523 67.491C139.659 67.3663 139.744 67.185 139.778 66.947H140.662C140.594 67.5137 140.407 67.95 140.101 68.256C139.795 68.562 139.416 68.715 138.962 68.715C138.747 68.715 138.554 68.681 138.384 68.613C138.226 68.5337 138.044 68.4203 137.84 68.273C137.659 68.1597 137.512 68.0747 137.398 68.018C137.296 67.9613 137.172 67.933 137.024 67.933C136.832 67.933 136.667 67.9953 136.531 68.12C136.407 68.2447 136.327 68.4317 136.293 68.681H135.392ZM148.989 79.153C148.116 79.153 147.323 78.9547 146.609 78.558C145.906 78.1613 145.351 77.6003 144.943 76.875C144.546 76.1383 144.348 75.2883 144.348 74.325C144.348 73.373 144.552 72.5343 144.96 71.809C145.379 71.0723 145.946 70.5113 146.66 70.126C147.374 69.7293 148.173 69.531 149.057 69.531C149.941 69.531 150.74 69.7293 151.454 70.126C152.168 70.5113 152.729 71.0667 153.137 71.792C153.556 72.5173 153.766 73.3617 153.766 74.325C153.766 75.2883 153.55 76.1383 153.12 76.875C152.7 77.6003 152.128 78.1613 151.403 78.558C150.677 78.9547 149.873 79.153 148.989 79.153ZM148.989 77.793C149.544 77.793 150.065 77.6627 150.553 77.402C151.04 77.1413 151.431 76.7503 151.726 76.229C152.032 75.7077 152.185 75.073 152.185 74.325C152.185 73.577 152.037 72.9423 151.743 72.421C151.448 71.8997 151.063 71.5143 150.587 71.265C150.111 71.0043 149.595 70.874 149.04 70.874C148.473 70.874 147.952 71.0043 147.476 71.265C147.011 71.5143 146.637 71.8997 146.354 72.421C146.07 72.9423 145.929 73.577 145.929 74.325C145.929 75.0843 146.065 75.7247 146.337 76.246C146.62 76.7673 146.994 77.1583 147.459 77.419C147.923 77.6683 148.433 77.793 148.989 77.793ZM166.265 72.897C166.696 72.965 167.087 73.1407 167.438 73.424C167.801 73.7073 168.084 74.0587 168.288 74.478C168.503 74.8973 168.611 75.345 168.611 75.821C168.611 76.4217 168.458 76.9657 168.152 77.453C167.846 77.929 167.398 78.3087 166.809 78.592C166.231 78.864 165.545 79 164.752 79H160.332V67.151H164.582C165.387 67.151 166.072 67.287 166.639 67.559C167.206 67.8197 167.631 68.1767 167.914 68.63C168.197 69.0833 168.339 69.5933 168.339 70.16C168.339 70.8627 168.146 71.4463 167.761 71.911C167.387 72.3643 166.888 72.693 166.265 72.897ZM161.879 72.268H164.48C165.205 72.268 165.766 72.098 166.163 71.758C166.56 71.418 166.758 70.9477 166.758 70.347C166.758 69.7463 166.56 69.276 166.163 68.936C165.766 68.596 165.194 68.426 164.446 68.426H161.879V72.268ZM164.616 77.725C165.387 77.725 165.987 77.5437 166.418 77.181C166.849 76.8183 167.064 76.314 167.064 75.668C167.064 75.0107 166.837 74.495 166.384 74.121C165.931 73.7357 165.324 73.543 164.565 73.543H161.879V77.725H164.616ZM170.18 74.308C170.18 73.356 170.372 72.523 170.758 71.809C171.143 71.0837 171.67 70.5227 172.339 70.126C173.019 69.7293 173.772 69.531 174.6 69.531C175.416 69.531 176.124 69.7067 176.725 70.058C177.325 70.4093 177.773 70.8513 178.068 71.384V69.684H179.632V79H178.068V77.266C177.762 77.81 177.303 78.2633 176.691 78.626C176.09 78.9773 175.387 79.153 174.583 79.153C173.755 79.153 173.007 78.949 172.339 78.541C171.67 78.133 171.143 77.5607 170.758 76.824C170.372 76.0873 170.18 75.2487 170.18 74.308ZM178.068 74.325C178.068 73.6223 177.926 73.0103 177.643 72.489C177.359 71.9677 176.974 71.571 176.487 71.299C176.011 71.0157 175.484 70.874 174.906 70.874C174.328 70.874 173.801 71.01 173.325 71.282C172.849 71.554 172.469 71.9507 172.186 72.472C171.902 72.9933 171.761 73.6053 171.761 74.308C171.761 75.022 171.902 75.6453 172.186 76.178C172.469 76.6993 172.849 77.1017 173.325 77.385C173.801 77.657 174.328 77.793 174.906 77.793C175.484 77.793 176.011 77.657 176.487 77.385C176.974 77.1017 177.359 76.6993 177.643 76.178C177.926 75.6453 178.068 75.0277 178.068 74.325ZM186.785 69.514C187.918 69.514 188.836 69.8597 189.539 70.551C190.242 71.231 190.593 72.217 190.593 73.509V79H189.063V73.73C189.063 72.8007 188.831 72.0923 188.366 71.605C187.901 71.1063 187.267 70.857 186.462 70.857C185.646 70.857 184.994 71.112 184.507 71.622C184.031 72.132 183.793 72.8743 183.793 73.849V79H182.246V69.684H183.793V71.01C184.099 70.534 184.513 70.1657 185.034 69.905C185.567 69.6443 186.15 69.514 186.785 69.514ZM192.542 74.325C192.542 73.3617 192.735 72.523 193.12 71.809C193.505 71.0837 194.038 70.5227 194.718 70.126C195.409 69.7293 196.197 69.531 197.081 69.531C198.226 69.531 199.166 69.8087 199.903 70.364C200.651 70.9193 201.144 71.69 201.382 72.676H199.716C199.557 72.1093 199.246 71.6617 198.781 71.333C198.328 71.0043 197.761 70.84 197.081 70.84C196.197 70.84 195.483 71.146 194.939 71.758C194.395 72.3587 194.123 73.2143 194.123 74.325C194.123 75.447 194.395 76.314 194.939 76.926C195.483 77.538 196.197 77.844 197.081 77.844C197.761 77.844 198.328 77.6853 198.781 77.368C199.234 77.0507 199.546 76.5973 199.716 76.008H201.382C201.133 76.96 200.634 77.725 199.886 78.303C199.138 78.8697 198.203 79.153 197.081 79.153C196.197 79.153 195.409 78.9547 194.718 78.558C194.038 78.1613 193.505 77.6003 193.12 76.875C192.735 76.1497 192.542 75.2997 192.542 74.325ZM202.868 74.308C202.868 73.356 203.061 72.523 203.446 71.809C203.832 71.0837 204.359 70.5227 205.027 70.126C205.707 69.7293 206.461 69.531 207.288 69.531C208.104 69.531 208.813 69.7067 209.413 70.058C210.014 70.4093 210.462 70.8513 210.756 71.384V69.684H212.32V79H210.756V77.266C210.45 77.81 209.991 78.2633 209.379 78.626C208.779 78.9773 208.076 79.153 207.271 79.153C206.444 79.153 205.696 78.949 205.027 78.541C204.359 78.133 203.832 77.5607 203.446 76.824C203.061 76.0873 202.868 75.2487 202.868 74.308ZM210.756 74.325C210.756 73.6223 210.615 73.0103 210.331 72.489C210.048 71.9677 209.663 71.571 209.175 71.299C208.699 71.0157 208.172 70.874 207.594 70.874C207.016 70.874 206.489 71.01 206.013 71.282C205.537 71.554 205.158 71.9507 204.874 72.472C204.591 72.9933 204.449 73.6053 204.449 74.308C204.449 75.022 204.591 75.6453 204.874 76.178C205.158 76.6993 205.537 77.1017 206.013 77.385C206.489 77.657 207.016 77.793 207.594 77.793C208.172 77.793 208.699 77.657 209.175 77.385C209.663 77.1017 210.048 76.6993 210.331 76.178C210.615 75.6453 210.756 75.0277 210.756 74.325ZM209.549 67.049L205.928 68.987V67.831L209.549 65.706V67.049ZM216.481 71.197C216.753 70.6643 217.139 70.2507 217.637 69.956C218.147 69.6613 218.765 69.514 219.49 69.514V71.112H219.082C217.348 71.112 216.481 72.0527 216.481 73.934V79H214.934V69.684H216.481V71.197ZM222.075 68.171C221.781 68.171 221.531 68.069 221.327 67.865C221.123 67.661 221.021 67.4117 221.021 67.117C221.021 66.8223 221.123 66.573 221.327 66.369C221.531 66.165 221.781 66.063 222.075 66.063C222.359 66.063 222.597 66.165 222.789 66.369C222.993 66.573 223.095 66.8223 223.095 67.117C223.095 67.4117 222.993 67.661 222.789 67.865C222.597 68.069 222.359 68.171 222.075 68.171ZM222.823 69.684V79H221.276V69.684H222.823ZM224.882 74.308C224.882 73.356 225.075 72.523 225.46 71.809C225.845 71.0837 226.372 70.5227 227.041 70.126C227.721 69.7293 228.475 69.531 229.302 69.531C230.118 69.531 230.826 69.7067 231.427 70.058C232.028 70.4093 232.475 70.8513 232.77 71.384V69.684H234.334V79H232.77V77.266C232.464 77.81 232.005 78.2633 231.393 78.626C230.792 78.9773 230.09 79.153 229.285 79.153C228.458 79.153 227.71 78.949 227.041 78.541C226.372 78.133 225.845 77.5607 225.46 76.824C225.075 76.0873 224.882 75.2487 224.882 74.308ZM232.77 74.325C232.77 73.6223 232.628 73.0103 232.345 72.489C232.062 71.9677 231.676 71.571 231.189 71.299C230.713 71.0157 230.186 70.874 229.608 70.874C229.03 70.874 228.503 71.01 228.027 71.282C227.551 71.554 227.171 71.9507 226.888 72.472C226.605 72.9933 226.463 73.6053 226.463 74.308C226.463 75.022 226.605 75.6453 226.888 76.178C227.171 76.6993 227.551 77.1017 228.027 77.385C228.503 77.657 229.03 77.793 229.608 77.793C230.186 77.793 230.713 77.657 231.189 77.385C231.676 77.1017 232.062 76.6993 232.345 76.178C232.628 75.6453 232.77 75.0277 232.77 74.325Z" fill="white"/>
<defs>
<filter id="filter0_d_320_2666" x="443" y="106.734" width="103.465" height="53.548" filterUnits="userSpaceOnUse" color-interpolation-filters="sRGB">
<feFlood flood-opacity="0" result="BackgroundImageFix"/>
<feColorMatrix in="SourceAlpha" type="matrix" values="0 0 0 0 0 0 0 0 0 0 0 0 0 0 0 0 0 0 127 0" result="hardAlpha"/>
<feOffset dy="3"/>
<feGaussianBlur stdDeviation="3.5"/>
<feColorMatrix type="matrix" values="0 0 0 0 0 0 0 0 0 0 0 0 0 0 0 0 0 0 0.15 0"/>
<feBlend mode="normal" in2="BackgroundImageFix" result="effect1_dropShadow_320_2666"/>
<feBlend mode="normal" in="SourceGraphic" in2="effect1_dropShadow_320_2666" result="shape"/>
</filter>
<radialGradient id="paint0_radial_320_2666" cx="0" cy="0" r="1" gradientUnits="userSpaceOnUse" gradientTransform="translate(450 200) rotate(90) scale(200 450)">
<stop stop-color="#041506"/>
<stop offset="1"/>
</radialGradient>
<linearGradient id="paint1_linear_320_2666" x1="901.089" y1="269.192" x2="898.172" y2="148.294" gradientUnits="userSpaceOnUse">
<stop stop-opacity="0.01"/>
<stop offset="1" stop-color="#00FF44"/>
</linearGradient>
<clipPath id="clip0_320_2666">
<rect width="848" height="32" fill="white" transform="translate(26 341)"/>
</clipPath>
<clipPath id="clip1_320_2666">
<rect width="53.924" height="27.1186" fill="white" transform="translate(820.114 287.006)"/>
</clipPath>
<clipPath id="clip2_320_2666">
<rect width="53.924" height="27.1186" fill="white" transform="translate(731.875 287.006)"/>
</clipPath>
<clipPath id="clip3_320_2666">
<rect width="53.924" height="27.1186" fill="white" transform="translate(643.636 287.006)"/>
</clipPath>
<clipPath id="clip4_320_2666">
<rect width="53.924" height="27.1186" fill="white" transform="translate(555.397 287.006)"/>
</clipPath>
<clipPath id="clip5_320_2666">
<rect width="53.924" height="27.1186" fill="white" transform="translate(467.157 287.006)"/>
</clipPath>
<clipPath id="clip6_320_2666">
<rect width="53.924" height="27.1186" fill="white" transform="translate(378.918 287.006)"/>
</clipPath>
<clipPath id="clip7_320_2666">
<rect width="53.924" height="27.1186" fill="white" transform="translate(290.679 287.006)"/>
</clipPath>
<clipPath id="clip8_320_2666">
<rect width="53.924" height="27.1186" fill="white" transform="translate(202.44 287.006)"/>
</clipPath>
<clipPath id="clip9_320_2666">
<rect width="53.924" height="27.1186" fill="white" transform="translate(114.201 287.006)"/>
</clipPath>
<clipPath id="clip10_320_2666">
<rect width="53.924" height="27.1186" fill="white" transform="translate(25.9614 287.006)"/>
</clipPath>
<clipPath id="clip11_320_2666">
<rect width="89.4648" height="39.548" fill="white" transform="translate(450 110.734)"/>
</clipPath>
</defs>
</svg>
