<svg width="150" height="61" viewBox="0 0 150 61" fill="none" xmlns="http://www.w3.org/2000/svg">
<path d="M44.2093 0C43.6102 0 42.5319 0.389377 41.6633 0.988418C40.6749 1.64736 38.8179 3.38458 38.8179 3.38458L30.1917 2.21645L28.1549 4.10343L35.5232 6.40974C35.5232 6.40974 33.9956 7.84744 33.127 8.83586C32.3782 9.58466 31.2999 10.8427 31.2999 10.8427L28.095 10.4832L26.9868 11.5016L30.3714 13.2388L31.8091 16.7432L32.9173 15.6949L32.7975 12.52C32.7975 12.52 34.1753 11.5315 34.9541 10.8726C36.0323 10.0339 37.5899 8.65615 37.5899 8.65615L39.2672 16.1741L41.3638 14.2871L40.9145 5.63099C40.9145 5.63099 42.8315 3.92372 43.5803 3.02516C44.4788 1.91693 44.988 0.449281 44.6885 0.0898562C44.5687 0.0299521 44.4189 0 44.2093 0Z" fill="#1967BA"/>
<path d="M27.8853 14.1374C25.1297 16.6833 21.3258 20.8766 18.8698 24.411H22.1645C24.2611 21.5356 27.1964 18.0911 29.4129 15.8447L28.9636 14.7065L27.8853 14.1374Z" fill="#1967BA"/>
<path d="M10.8726 38.788C6.67931 50.1997 8.20687 59.1554 15.9345 60.7428C26.1182 62.8095 41.274 51.248 50.1098 38.788H49.0615C39.357 52.0867 25.9684 61.282 17.9113 59.0056C11.4117 57.1785 10.4832 49.3311 14.3171 38.788H10.8726Z" fill="#1967BA"/>
<path d="M0 21.7452V36.9609H3.20487V30.2816H8.83586V36.9609H12.0407V21.7452H8.80591V27.7656H3.20487V21.7452H0ZM41.843 21.7452V34.8043C41.843 35.5232 41.7831 36.2121 41.7831 36.9309H44.8383C44.8982 36.3918 44.9581 35.8826 44.988 35.4034C45.4972 36.3619 46.3059 36.871 47.2045 37.1107C47.504 37.1706 47.8035 37.2305 48.1629 37.2305C51.1581 37.2305 52.5958 34.3251 52.5958 31.6294C52.5958 28.8139 51.0084 26.0284 47.8035 26.0284C47.6238 26.0284 47.4141 26.0583 47.2344 26.1182C46.3658 26.298 45.5272 26.8371 44.988 27.6158V21.7452H41.843ZM91.863 21.7452L86.5315 36.9609H89.5867L90.6649 33.7261H96.5056L97.5839 36.9609H100.819L95.637 21.7452H91.863ZM101.148 21.7452V24.4709H104.443V21.7452H101.148ZM147.664 23.1829L144.609 24.3211V26.4178H142.512V28.5144H144.609V33.6961C144.609 36.0024 145.118 37.2904 147.514 37.2904C147.963 37.2904 149.611 37.1406 149.97 36.9908V35.1338C149.611 35.1338 149.311 35.2237 148.982 35.2237C147.903 35.2237 147.694 34.8343 147.694 33.4265V28.4845H150V26.3878H147.664V23.1829ZM93.6901 24.7105L95.6969 31.1801H93.6002H91.4736L93.6002 24.8603L93.6901 24.7105ZM17.8814 26.0583C17.8215 26.0583 17.7616 26.0883 17.7017 26.0883C16.7133 26.0883 15.7548 26.268 14.976 26.7173C14.1374 27.1965 13.5982 28.0052 13.5683 29.3531H16.5335C16.4736 28.9038 16.7732 27.9753 17.6717 27.8854C17.7316 27.8255 17.8215 27.8555 17.9113 27.8555C18.9597 27.8555 19.2891 28.7241 19.2891 29.1434V30.1318C18.8099 30.1318 18.2109 30.1318 17.6717 30.1917C16.863 30.2816 15.9944 30.4014 15.2756 30.7309C13.4185 31.5695 13.119 33.3666 13.119 34.0855C13.119 36.1222 14.5268 37.2904 16.4736 37.2904C16.9229 37.2904 17.3123 37.2005 17.7017 37.1107C18.5104 36.871 19.1394 36.3918 19.6785 35.5831C19.6785 36.0024 19.7085 36.4817 19.7983 36.9908H22.5839C22.524 36.6314 22.4341 36.3319 22.4341 35.8227V30.0719C22.4341 26.897 20.1278 26.1182 18.0611 26.1182C18.0012 26.0583 17.9413 26.0583 17.8814 26.0583ZM30.2516 26.0583C28.6941 26.0583 27.7057 26.7173 27.0467 27.6458V26.4178H23.9617V36.9908H27.0467V30.6111C27.0767 29.1134 27.9153 28.1849 28.9337 28.1849C30.4313 28.1849 30.7608 29.4729 30.7608 30.6111V36.9908H33.8458V30.6111C33.8758 29.1134 34.7145 28.1849 35.6729 28.1849C37.2005 28.1849 37.53 29.4729 37.53 30.6111V36.9908H40.615V30.6111C40.615 29.7724 40.615 28.9038 40.3155 28.0951C39.8962 26.9269 38.1889 26.0583 37.0208 26.0583C35.4633 26.0583 34.4748 26.7173 33.5164 28.0951C33.127 26.897 31.3898 26.0583 30.2516 26.0583ZM75.599 26.0583C72.7236 26.0583 71.1961 28.8139 71.1961 31.4797C71.1961 34.0256 72.6338 36.7512 75.4193 36.7512C75.7788 36.7512 76.0783 36.7213 76.3778 36.6314C77.1565 36.4817 77.8754 36.0324 78.3546 35.2836C78.5044 36.7512 78.5942 38.9078 76.3778 38.9677H76.228C75.3894 38.9677 74.5807 38.6083 74.5507 37.6797H71.6154C71.7053 40.4952 74.1014 41.0643 76.3778 41.0943H76.4077C80.9006 41.1542 81.4397 38.4285 81.4397 36.0024V26.3878H78.3546L78.3247 27.6158C77.9353 26.7472 77.3063 26.268 76.3778 26.1182C76.1681 26.0883 75.8986 26.0583 75.599 26.0583ZM118.64 26.0583C118.401 26.0583 118.221 26.0883 118.011 26.1482C117.143 26.3279 116.334 26.867 115.825 27.6458L115.765 26.4178H112.65C112.68 27.1067 112.77 27.7956 112.77 28.5144V41.0044H115.825L115.855 35.4633C116.364 36.4218 117.113 36.9309 118.041 37.1706C118.341 37.2305 118.67 37.2904 119.03 37.2904C122.025 37.2904 123.462 34.385 123.462 31.6893C123.433 28.8439 121.815 26.0583 118.64 26.0583ZM129.423 26.0583C126.068 26.0583 124.032 28.3646 124.032 31.6594C124.032 34.9841 126.068 37.2604 129.423 37.2604C132.808 37.2604 134.784 34.9841 134.784 31.6594C134.784 28.3646 132.808 26.0583 129.423 26.0583ZM70.9265 26.268C69.5188 26.268 68.3207 26.7472 67.6617 28.3047L67.6018 26.4178H64.7863C64.8163 27.1965 64.9061 28.0651 64.9061 28.5144V36.9908H67.9912V31.7193C67.9912 31.0304 68.0811 30.4613 68.4105 29.8623C68.74 29.4429 69.399 29.1434 69.9081 29.1134H71.256V26.298C71.1362 26.2381 71.0164 26.268 70.9265 26.268ZM112.021 26.268C110.613 26.268 109.415 26.7472 108.756 28.3047L108.726 26.4178H105.911C105.94 27.1965 105.97 28.0651 105.97 28.5144L106.03 36.9908H109.085V31.7193C109.115 31.0304 109.175 30.4613 109.505 29.8623C109.804 29.4429 110.493 29.1434 111.002 29.1134H112.32V26.298C112.2 26.2381 112.111 26.268 112.021 26.268ZM141.793 26.268C140.355 26.268 139.187 26.7472 138.528 28.3047L138.438 26.4178H135.623C135.683 27.1965 135.743 28.0651 135.743 28.5144L135.773 36.9908H138.828V31.7193C138.828 31.0304 138.888 30.4613 139.247 29.8623C139.547 29.4429 140.206 29.1434 140.745 29.1134H142.063V26.298C142.003 26.2381 141.883 26.268 141.793 26.268ZM53.5244 26.3878V33.1869C53.5244 33.5763 53.5543 34.2353 53.764 34.8642C54.1234 36.4218 56.1302 37.2305 57.1186 37.2305C58.6761 37.2305 59.6645 36.5715 60.3235 35.5831L60.4433 36.9309H63.5284C63.4385 36.272 63.4085 35.6131 63.4085 35.044V26.3878H60.3235V32.7077C60.2935 34.2353 59.4549 35.1338 58.4665 35.1338C56.9688 35.1338 56.6394 33.786 56.6394 32.7077V26.3878H53.5244ZM101.238 26.3878V36.9609H104.323V26.3878H101.238ZM47.0248 28.155C47.0847 28.155 47.1446 28.155 47.1745 28.155C49.1214 28.155 49.391 30.0719 49.391 31.6594C49.391 33.2768 49.1214 35.1338 47.1745 35.1638C45.4972 35.1638 44.9281 33.0971 44.9281 31.6594C44.9281 30.2516 45.4673 28.2748 47.0248 28.155ZM76.258 28.155C76.3179 28.155 76.3478 28.155 76.4077 28.155C78.0851 28.155 78.3846 29.9222 78.3846 31.5096C78.3846 32.8874 78.0851 34.6246 76.4077 34.6246C74.7304 34.6246 74.4309 32.8874 74.4309 31.5096C74.4309 29.9821 74.7005 28.2748 76.258 28.155ZM117.861 28.155C117.921 28.155 117.951 28.155 118.011 28.155C119.988 28.155 120.258 30.0719 120.258 31.6594C120.258 33.2768 119.988 35.1338 118.011 35.1638C116.364 35.1638 115.825 33.0971 115.825 31.6594C115.825 30.2516 116.334 28.2748 117.861 28.155ZM129.243 28.155C129.303 28.155 129.363 28.155 129.423 28.155C131.34 28.155 131.609 29.9821 131.609 31.6594C131.609 33.3367 131.31 35.1638 129.423 35.1638C127.536 35.1638 127.236 33.3367 127.236 31.6594C127.236 30.042 127.506 28.2748 129.243 28.155ZM18.9896 31.9589C19.1094 31.9589 19.2292 31.9589 19.349 31.9589C19.349 33.157 19.2891 35.044 17.7316 35.1039C17.7017 35.1039 17.6418 35.1338 17.6118 35.1338C16.7432 35.1338 16.0843 34.5048 16.0843 33.6063C16.0843 32.5879 16.893 32.1985 17.7316 32.0488C18.151 31.9888 18.6302 31.9888 18.9896 31.9589Z" fill="#DA1C30"/>
</svg>
