<svg width="100" height="64" viewBox="0 0 100 64" fill="none" xmlns="http://www.w3.org/2000/svg">
<path d="M96.8976 21.0667C96.8976 20.5231 96.6817 20.0018 96.2973 19.6174C95.9129 19.2331 95.3916 19.0171 94.848 19.0171C94.3044 19.0171 93.7831 19.2331 93.3987 19.6174C93.0144 20.0018 92.7984 20.5231 92.7984 21.0667C92.7984 22.1987 93.7207 23.121 94.8527 23.121C95.3957 23.1179 95.9155 22.9002 96.2986 22.5154C96.6817 22.1305 96.897 21.6098 96.8976 21.0667ZM89.7892 1.10167C90.0524 1.81437 90.3226 2.52708 90.6091 3.22814L92.0438 0C92.0438 0 93.8675 0.188657 95.3767 0.659136C95.4263 0.564531 95.4823 0.473477 95.5444 0.386631C97.2121 0.910679 98.6678 1.44637 100 2.63887C95.9427 9.87073 91.8877 17.7105 89.8009 25.8228L89.5074 25.7506L89.3909 26.957C89.3909 26.957 83.0814 25.2475 81.5512 25.2475L82.0566 23.1094C82.0566 23.1094 79.8439 25.2475 75.1485 24.1365C75.1485 24.1365 72.2464 27.721 66.617 26.957C66.617 26.957 60.7267 31.4638 60.2236 33.3388C60.2236 33.3388 56.9745 28.9158 51.8598 27.4694C51.8598 27.4694 50.665 34.6174 50.8327 38.2019C50.8327 38.2019 48.1192 39.6576 47.8584 40.34L47.4904 39.7531C47.2295 39.8789 46.957 40.014 46.6938 40.1514L47.3437 43.2328C47.3437 43.2328 41.5698 46.0836 38.7283 49.3746C39.094 49.5959 39.4713 49.8055 39.8696 50.0058C39.094 50.8653 38.2765 51.734 37.4077 52.5818L41.2857 55.9474C41.2857 55.9474 31.7387 63.9641 20.9852 63.9641C10.2317 63.9641 0 56.4598 0 40.7593C0 25.0821 13.9909 7.58821 28.2357 7.58821C28.2357 7.58821 33.0989 7.42052 34.8899 8.43834C34.8899 8.43834 31.7363 10.481 29.6704 12.5772C31.7247 12.7146 33.6532 13.1222 35.8239 13.6462C34.3449 14.5476 33.0034 15.5002 31.7969 16.5506C32.2464 16.688 32.7821 16.8231 33.3807 16.9605C33.7696 16.2571 34.1772 15.5654 34.5872 14.883C37.0304 14.9575 39.3665 14.8736 41.7235 14.4963L40.3494 13.05C40.3494 13.05 41.6071 12.6098 43.4098 12.0321L43.2538 11.8225C46.9757 10.5648 50.7698 9.40026 54.657 8.78304C57.5824 8.38477 61.805 8.5315 64.1644 10.7325L64.395 10.4903L63.6311 9.37929C63.6311 9.37929 64.8375 8.74112 66.4074 8.47793L66.03 8.06801C68.1053 7.66973 70.1805 7.30406 72.307 7.50204C72.9568 7.57657 73.6159 7.7233 74.2471 7.93292C75.0833 6.1628 77.254 3.22581 82.3175 3.83603L81.9727 2.97659C81.9727 2.97659 84.7071 0.598579 87.9446 0.0838477L88.5757 1.47898C88.9717 1.3206 89.37 1.19483 89.7892 1.10167Z" fill="black"/>
<path d="M53.5553 22.1777C55.4037 21.4564 57.2699 20.7815 59.1522 20.1537C59.8439 20.3843 63.5332 21.6956 66.0486 24.0317C66.0486 24.0317 62.7576 25.0378 60.7476 27.6255C60.7476 27.6255 56.2594 24.975 53.2316 24.2203L53.5553 22.1777ZM46.3375 25.2055C48.098 24.4131 49.8723 23.6513 51.6595 22.9207C50.991 26.6636 50.2969 31.4732 50.2038 35.8239L47.2691 37.2703C46.5044 34.8912 45.8116 32.4896 45.1915 30.0687C45.5468 28.4415 45.9288 26.8202 46.3375 25.2055ZM26.7264 35.7913C29.2612 34.1926 31.8405 32.6656 34.4614 31.2123C34.3659 31.5477 34.3239 31.7457 34.3239 31.7457C34.9621 31.1075 38.2112 30.269 38.2112 30.269C38.2112 29.9127 38.2019 29.5447 38.1903 29.179C40.026 28.2251 41.8779 27.3026 43.7452 26.412C44.4159 29.9243 45.4966 34.1889 47.1852 39.1569C47.1852 39.1569 42.4991 41.5139 40.7709 42.7833C40.7709 42.7833 39.1149 38.6957 38.7586 34.5778L32.8473 36.8604C32.8473 36.8604 32.0205 40.4355 31.5896 43.4541C31.2318 43.0704 30.8824 42.679 30.5415 42.2802C28.5524 44.3764 26.5704 46.0114 23.9921 46.9547C24.2948 45.4874 25.2148 41.1063 26.7264 35.7913Z" fill="#CCCCCC"/>
<path d="M7.55566 49.5959C9.75667 47.8025 12.1673 45.9066 14.7875 43.9665C16.9559 50.7674 25.5317 48.7667 30.5183 43.2747C30.5183 43.2747 34.522 48.0331 38.8099 50.2015C38.8099 50.2015 30.6767 59.5202 22.6692 59.5202C16.8418 59.5225 10.5532 56.8604 7.55566 49.5959Z" fill="#CCCCCC"/>
<path d="M34.0934 13.9187C34.0934 13.9187 28.0354 17.5125 24.9657 24.6931C24.9657 24.6931 14.2634 29.1883 14.2634 40.2352C14.2634 41.6909 14.4521 42.9277 14.7875 43.9665C12.3336 45.7867 9.92233 47.6637 7.55562 49.5959C6.42367 46.8709 5.76221 43.496 5.76221 39.3665C5.76221 24.2739 16.872 13.4785 27.8654 13.1641C30.2783 13.1012 32.1859 13.4459 34.0934 13.9187ZM26.7265 35.7913C28.5921 29.2093 31.3684 21.2018 34.9528 15.5537C34.9528 15.5537 39.7554 15.7005 42.6365 15.0297C42.6365 15.0297 42.3221 19.0451 43.7475 26.412C41.861 27.3134 40.007 28.2357 38.1926 29.179C38.1507 26.5588 38.1926 23.9176 38.719 21.6653C38.1623 21.5069 37.8479 21.8214 37.8479 21.8214C36.2245 24.9656 34.8923 29.6308 34.4637 31.2123C31.8418 32.6651 29.2617 34.1921 26.7265 35.7913ZM49.1976 15.754C49.1976 15.754 52.2883 16.518 52.9801 16.518C52.9801 16.518 52.3303 19.1708 51.6595 22.923C49.8724 23.6537 48.0981 24.4154 46.3375 25.2079C47.1643 21.9355 48.1379 18.5839 49.1976 15.754Z" fill="#999999"/>
<path d="M46.6705 15.2486L44.3438 12.1579C44.3438 12.1579 52.8543 9.25586 56.9512 9.25586C61.062 9.25586 65.096 10.5858 65.096 14.4335C65.096 16.6973 64.204 18.1228 62.7693 19.0032C61.6361 19.343 60.5079 19.6994 59.3851 20.0722C59.2686 20.0932 59.1522 20.1048 59.0381 20.1165C59.0381 20.1165 59.0823 20.1258 59.1545 20.1584C57.2586 20.7872 55.393 21.4673 53.5577 22.1824L53.9257 19.8649C53.9257 19.8649 59.5644 17.3705 58.9146 14.9389C58.2648 12.5073 54.6826 12.7262 52.668 13.1664C50.6416 13.6159 46.7334 15.1881 46.6705 15.2486Z" fill="#999999"/>
<path d="M32.8776 39.8486C32.5934 41.253 32.3442 42.6668 32.1742 44.0945C33.9862 45.9904 35.8961 47.6278 38.118 49.009C37.6872 46.8708 36.5995 41.3905 36.2524 38.549L32.8776 39.8486ZM43.2863 16.1523C43.263 18.1949 43.4121 20.2725 43.6846 22.357L45.7272 17.3145L44.7863 17.7431L43.2863 16.1523ZM25.4035 25.1962C25.4035 25.1962 27.4368 20.3959 30.9281 17.4193C30.9281 17.4193 21.4719 36.8208 20.8245 46.7753C20.8245 46.7753 21.9867 46.7753 22.711 47.4252C22.711 47.4252 18.1297 48.9554 16.0242 45.0262C13.9187 41.1063 14.4311 30.6463 25.4035 25.1962ZM53.7137 17.2004L53.8791 16.1919L53.4482 16.0359C53.4482 16.0359 53.7114 15.3651 54.5079 15.5328C55.3045 15.7005 54.5732 16.8953 53.7137 17.2004Z" fill="white"/>
<path d="M76.4458 15.754C77.4846 15.5654 78.5234 15.4093 79.5715 15.2603C79.9371 16.6437 80.9945 16.9163 80.9945 16.9163C81.9378 17.042 82.5364 15.9101 82.8834 14.841C84.5278 14.6524 86.1745 14.5149 87.8398 14.4218C86.6869 16.7812 85.6923 19.264 84.7374 21.6956C83.4494 22.2615 82.1078 22.534 81.0691 22.3873C80.5869 22.3244 78.8494 21.8749 77.2866 20.7732C77.3285 20.701 77.3588 20.6172 77.3914 20.5427C78.0622 18.698 77.6639 17.2633 76.4458 15.754Z" fill="#CCCCCC"/>
<path d="M65.6528 18.174C68.9622 17.2506 72.3137 16.4851 75.6959 15.8798C76.2385 16.4994 77.3612 17.997 77.0141 19.5179C76.553 21.5093 74.7502 24.3508 69.4376 24.3508C68.6387 24.3508 67.9376 24.3182 67.3204 24.2879C66.3002 23.3449 65.2024 22.4894 64.0387 21.7305C64.4882 20.8362 65.0658 19.6204 65.6528 18.174ZM93.3411 14.2425C91.6642 17.9318 90.0734 21.8726 89.3164 25.0076L84.6513 23.7592C84.6513 23.7592 86.7894 18.2998 88.6457 14.3682C90.2099 14.2959 91.7753 14.254 93.3411 14.2425Z" fill="#CCCCCC"/>
<path d="M69.3513 11.5593C69.3513 11.5593 67.672 8.83427 67.3273 8.49888C67.3273 8.49888 69.2349 8.10992 71.196 8.10992C73.1454 8.10992 77.2447 8.75974 77.2447 12.3955C77.2447 12.3955 77.3588 13.8092 75.4 15.5724C75.4 15.5724 75.5141 15.6865 75.6935 15.8752C72.3114 16.4806 68.9599 17.2462 65.6504 18.1693C66.4982 16.0428 67.3576 13.4319 67.8211 10.6766L69.1208 12.47C69.1208 12.47 69.8963 12.0205 70.7767 12.0205L70.0012 15.3837C70.0012 15.3837 73.4203 15.761 73.4925 13.2759C73.5647 10.7954 71.196 10.9118 69.3513 11.5593Z" fill="#999999"/>
<path d="M79.5715 15.2603C79.4721 14.8489 79.436 14.4248 79.4643 14.0026C79.5808 11.5197 80.4612 9.83114 81.8353 9.83114C83.2072 9.83114 83.3236 12.7891 83.291 13.0919C83.2701 13.227 83.1536 14.0142 82.8834 14.841C84.5278 14.6524 86.1745 14.515 87.8398 14.4218C88.1449 13.7836 88.4709 13.1548 88.7947 12.5352C87.8072 8.75044 84.9051 6.30023 82.1381 6.35147C79.979 6.39339 78.0412 7.38792 76.6461 9.29545C77.5591 10.1339 78.0925 11.2985 77.8828 12.8077C77.7035 13.8768 77.0746 14.841 76.3317 15.605C76.3736 15.6492 76.4039 15.7005 76.4458 15.7517C77.4869 15.5654 78.5234 15.407 79.5715 15.2603Z" fill="#999999"/>
<path d="M90.2714 11.3078C90.2714 11.3078 86.603 7.49272 85.6085 4.03401C85.6085 4.03401 88.2614 2.07523 89.37 1.87493C89.37 1.87493 90.87 5.94154 91.6758 7.04088C91.6758 7.04088 92.0741 7.90031 92.7332 6.59136C93.3831 5.29172 95.8356 1.17154 95.8356 1.17154C95.8356 1.17154 98.195 1.87493 99.1476 2.77396C99.1476 2.77396 96.1198 8.17049 93.3411 14.2401C91.769 14.2518 90.2085 14.2914 88.6457 14.3659C89.2443 13.1222 89.8125 12.0321 90.2714 11.3078Z" fill="#999999"/>
<path d="M67.6744 21.9681C67.6744 21.9681 69.2047 18.6771 69.3211 18.1018C69.3211 18.1018 72.7263 18.1018 72.7263 19.9045C72.7263 21.7073 70.6627 22.6599 67.6744 21.9681Z" fill="black"/>
<path d="M80.2935 15.3651C80.2935 15.3651 79.9581 15.1345 79.9791 14.2448C80.0001 13.3434 80.0001 12.3582 80.3564 12.3582C80.7221 12.3582 80.587 13.5204 80.566 14.0142C80.5451 14.5056 80.566 15.3325 80.2935 15.3651Z" fill="white"/>
<path d="M59.3851 20.0699C60.5079 19.6971 61.6361 19.3407 62.7693 19.0008C61.8377 19.5668 60.6848 19.9022 59.3851 20.0699Z" fill="#CCCCCC"/>
<path d="M96.6647 21.0667C96.6647 21.5473 96.4738 22.0082 96.134 22.348C95.7942 22.6878 95.3333 22.8788 94.8527 22.8788C94.3721 22.8788 93.9112 22.6878 93.5714 22.348C93.2316 22.0082 93.0406 21.5473 93.0406 21.0667C93.0406 20.5861 93.2316 20.1252 93.5714 19.7854C93.9112 19.4456 94.3721 19.2547 94.8527 19.2547C95.3333 19.2547 95.7942 19.4456 96.134 19.7854C96.4738 20.1252 96.6647 20.5861 96.6647 21.0667Z" fill="white"/>
<path d="M94.0864 22.1358H94.3799V21.1715H95.1112C95.5841 21.1715 95.456 21.5814 95.5002 21.8516L95.5515 22.1358H95.8962C95.7704 21.9378 95.8123 21.8935 95.7797 21.5908C95.7471 21.2018 95.7378 21.1715 95.5072 21.0131C95.7285 20.8571 95.824 20.7406 95.8123 20.4588C95.7797 19.9441 95.4466 19.8812 95.088 19.8812H94.0818V22.1358H94.0864Z" fill="black"/>
<path d="M95.1042 20.1351C95.2812 20.1351 95.5538 20.177 95.5118 20.566C95.4909 20.8595 95.2929 20.9107 95.1042 20.9107H94.3799V20.1351H95.1042Z" fill="white"/>
</svg>
