<svg width="150" height="35" viewBox="0 0 150 35" fill="none" xmlns="http://www.w3.org/2000/svg">
<path fill-rule="evenodd" clip-rule="evenodd" d="M80.4129 1.96838C80.4129 10.9255 80.4129 24.2218 80.4129 34.0114H74.5533V32.7484C72.4613 33.8703 70.7503 34.7522 68.1009 34.6041C62.3647 34.2866 57.4928 29.1713 58.0149 22.292C58.3113 18.3762 60.3398 15.7621 62.908 13.91C64.25 12.9044 65.8304 12.2649 67.4941 12.0544C70.3763 11.7827 72.1967 12.6082 74.0946 13.4655C74.0946 10.7914 74.0946 5.11871 74.0946 1.96838H80.4129ZM64.4673 24.6028C65.2646 28.254 69.8719 29.9227 72.7753 27.4956C73.9747 26.4937 74.8602 24.6274 74.5392 22.3802C74.3509 21.0532 73.6455 19.8545 72.5769 19.0456C71.5082 18.2366 70.163 17.8831 68.8347 18.0622C66.0125 18.4291 63.7264 21.1984 64.4673 24.6028Z" fill="white"/>
<path fill-rule="evenodd" clip-rule="evenodd" d="M122.549 1.96838C122.549 11.8709 122.549 27.1322 122.549 34.0114H116.689V32.7484C114.594 33.8703 112.883 34.7522 110.237 34.6041C104.501 34.2866 99.6252 29.1713 100.147 22.292C100.444 18.3762 102.476 15.7621 105.044 13.91C106.386 12.9044 107.966 12.2649 109.63 12.0544C112.512 11.7827 114.333 12.6082 116.234 13.4655C116.234 9.79657 116.234 4.73065 116.234 1.96838H122.549ZM106.603 24.6028C107.401 28.254 112.004 29.9227 114.908 27.4956C116.107 26.4937 116.993 24.6274 116.672 22.3802C116.48 21.0544 115.772 19.858 114.702 19.0518C113.632 18.2456 112.287 17.895 110.96 18.0763C108.134 18.4291 105.876 21.1984 106.603 24.6028Z" fill="white"/>
<path fill-rule="evenodd" clip-rule="evenodd" d="M24.6875 20.9122C24.744 23.8508 24.744 31.6508 24.744 34.0109H17.8789C17.8789 34.0109 17.8789 25.3396 17.8401 21.3108C17.7771 20.6325 17.6154 19.9669 17.3603 19.3352C16.1891 16.2272 9.02059 15.8462 7.34135 19.3C7.08286 19.9698 6.93741 20.678 6.91096 21.3955V34.0038H0C0 34.0038 0 17.7936 0 12.4172H6.39237V13.9024C6.39237 13.9024 8.12452 12.9111 9.13347 12.4913C13.9913 10.4769 20.4542 12.4595 22.9307 15.4582C23.8762 16.6118 24.6558 18.7038 24.6875 20.9122Z" fill="white"/>
<path fill-rule="evenodd" clip-rule="evenodd" d="M149.692 25.555C144.887 25.6785 138.237 25.6715 133.669 25.555C134.198 28.7301 138.774 30.7092 141.755 28.7301C142.343 28.2597 142.888 27.7378 143.384 27.1708H149.17C148.488 29.3083 147.143 31.1729 145.329 32.4937C143.515 33.8145 141.328 34.5228 139.084 34.5157C137.437 34.4946 135.814 34.1271 134.319 33.4373C132.823 32.7474 131.49 31.7506 130.406 30.5116C129.008 28.7955 128.134 26.7137 127.887 24.5143C127.534 20.4574 128.885 17.2188 131.15 14.9434C133.186 12.9207 135.919 11.7532 138.788 11.6802C145.864 11.5038 151.385 17.8397 149.692 25.555ZM138.862 16.6544C135.916 16.732 134.201 18.6829 133.447 21.103C137.059 21.2758 140.989 21.1277 144.736 21.177C143.977 18.5065 142.058 16.5697 138.862 16.6544Z" fill="white"/>
<path fill-rule="evenodd" clip-rule="evenodd" d="M46.5183 13.836C46.5395 13.9137 46.5183 12.4249 46.5183 12.4249H52.5156C52.5156 18.8173 52.5156 34.0115 52.5156 34.0115H46.5818V32.6004C46.5818 32.6004 45.0931 33.4965 44.2817 33.8634C42.6477 34.5706 40.8608 34.8511 39.0888 34.6783C33.6948 34.2302 30.0929 29.5206 29.6696 24.2924C29.3344 20.1473 30.7032 17.3815 32.7105 15.1696C34.2169 13.5115 36.4782 11.9945 39.2369 11.7582C42.6166 11.4724 44.6274 12.5096 46.5183 13.836ZM38.3585 18.4222C37.1767 19.223 36.2736 20.5389 36.0619 22.5038C35.6456 26.3174 38.1433 28.8362 41.3183 28.8362C48.2928 28.8362 48.06 16.9793 40.7257 17.7096C39.8869 17.7393 39.0707 17.9887 38.3585 18.4328V18.4222Z" fill="white"/>
<path fill-rule="evenodd" clip-rule="evenodd" d="M96.4685 5.42891C96.4685 6.4476 96.1665 7.44341 95.6005 8.29042C95.0346 9.13743 94.2301 9.7976 93.289 10.1874C92.3478 10.5773 91.3122 10.6793 90.3131 10.4805C89.314 10.2818 88.3963 9.79125 87.6759 9.07092C86.9556 8.3506 86.4651 7.43286 86.2663 6.43374C86.0676 5.43462 86.1696 4.39901 86.5594 3.45786C86.9493 2.51672 87.6094 1.71231 88.4564 1.14635C89.3035 0.580397 90.2993 0.278322 91.318 0.278322C91.9945 0.277858 92.6644 0.410762 93.2895 0.669439C93.9146 0.928116 94.4826 1.30749 94.961 1.78586C95.4394 2.26423 95.8187 2.83221 96.0774 3.45731C96.3361 4.08242 96.469 4.75239 96.4685 5.42891Z" fill="#E31019"/>
<path d="M94.4078 12.3678H88.1248V33.9685H94.4078V12.3678Z" fill="white"/>
<path d="M96.7752 5.29487C96.8088 6.37459 96.5216 7.44004 95.9499 8.35661C95.3782 9.27319 94.5477 9.99976 93.5633 10.4445C92.5789 10.8893 91.4847 11.0323 90.419 10.8556C89.3533 10.6788 88.364 10.1901 87.5759 9.45128C86.7878 8.71245 86.2364 7.75663 85.9913 6.70456C85.7462 5.65249 85.8184 4.55137 86.1988 3.54032C86.5792 2.52928 87.2507 1.65366 88.1286 1.02409C89.0064 0.394523 90.0511 0.039256 91.1308 0.0031678C91.8492 -0.0213115 92.5653 0.0962762 93.2382 0.349192C93.911 0.602108 94.5274 0.985374 95.0518 1.47701C95.5762 1.96864 95.9984 2.55896 96.2941 3.21412C96.5899 3.86928 96.7534 4.57638 96.7752 5.29487Z" fill="url(#paint0_radial_3_129)"/>
<path d="M96.5283 5.30191C96.5627 6.33381 96.2902 7.35272 95.7452 8.22966C95.2003 9.10661 94.4074 9.80217 93.467 10.2283C92.5266 10.6544 91.4809 10.792 90.4622 10.6235C89.4436 10.455 88.4978 9.98814 87.7447 9.28193C86.9915 8.57572 86.4648 7.66193 86.2312 6.65623C85.9976 5.65053 86.0677 4.59814 86.4325 3.63227C86.7973 2.66639 87.4404 1.83046 88.2806 1.23029C89.1207 0.630111 90.1199 0.292674 91.1519 0.260686C92.5329 0.21788 93.8745 0.72459 94.8824 1.66966C95.8903 2.61474 96.4822 3.921 96.5283 5.30191Z" fill="url(#paint1_radial_3_129)"/>
<path d="M86.2229 6.04291C85.8701 3.22067 95.1835 8.58998 96.4147 4.77995C96.5463 6.1136 96.1515 7.44588 95.3146 8.4925C94.4776 9.53911 93.2647 10.2172 91.9347 10.382C90.6048 10.5468 89.2631 10.1853 88.196 9.37462C87.1288 8.56396 86.4208 7.36834 86.2229 6.04291Z" fill="url(#paint2_radial_3_129)"/>
<path d="M96.443 5.33354C96.5312 8.15578 86.2688 8.48739 86.1841 5.65104C86.17 4.30793 86.6829 3.01281 87.6128 2.04356C88.5427 1.07432 89.8155 0.508182 91.158 0.466632C92.5005 0.425081 93.8059 0.911429 94.7939 1.82132C95.782 2.7312 96.374 3.99213 96.443 5.33354Z" fill="url(#paint3_radial_3_129)"/>
<path d="M95.3459 5.2C95.4588 7.93405 86.3112 7.99755 86.2336 5.48223C86.1962 4.27386 86.6403 3.10012 87.4683 2.21921C88.2963 1.3383 89.4403 0.822388 90.6487 0.784963C91.857 0.747538 93.0308 1.19167 93.9117 2.01965C94.7926 2.84763 95.3085 3.99164 95.3459 5.2Z" fill="url(#paint4_radial_3_129)"/>
<path d="M86.3043 6.28604C86.1544 5.09146 86.4731 3.88525 87.1933 2.92052C86.9139 3.54477 86.7695 4.22098 86.7695 4.9049C86.7695 5.58882 86.9139 6.26504 87.1933 6.88929C86.8427 6.78303 86.5326 6.57264 86.3043 6.28604Z" fill="#F7C0BA"/>
<path d="M95.6028 4.01811C95.6028 4.01811 96.0402 3.96872 96.0473 3.63005C96.2771 4.2439 96.3803 4.89791 96.3506 5.5527C96.2343 5.93471 95.9837 6.26174 95.6451 6.47346C95.5534 6.55812 96.3506 5.69381 95.6028 4.01811Z" fill="#F7C0BA"/>
<path d="M95.9318 3.43604C95.8353 3.18206 95.7009 2.94417 95.5331 2.73048C95.332 2.46943 95.5331 3.15735 95.258 3.19262C94.9828 3.2279 95.4555 3.7853 95.5049 3.85585C95.5543 3.92641 96.0164 3.76766 95.9318 3.43604Z" fill="#F7C0BA"/>
<path d="M95.1808 5.62289C94.6622 7.86657 90.7111 1.29429 87.5114 4.16592C87.9276 2.0951 89.5822 0.673391 92.0199 1.16376C93.2299 1.4107 95.6465 3.58735 95.1808 5.62289Z" fill="url(#paint5_radial_3_129)"/>
<defs>
<radialGradient id="paint0_radial_3_129" cx="0" cy="0" r="1" gradientUnits="userSpaceOnUse" gradientTransform="translate(89.022 7.02808) rotate(-1.77) scale(10.3365 10.3364)">
<stop stop-color="#C61718"/>
<stop offset="0.08" stop-color="#C71B1C"/>
<stop offset="0.16" stop-color="#CA2728"/>
<stop offset="0.23" stop-color="#CF3A3B"/>
<stop offset="0.31" stop-color="#D55656"/>
<stop offset="0.38" stop-color="#DE797A"/>
<stop offset="0.45" stop-color="#E9A4A5"/>
<stop offset="0.53" stop-color="#F5D7D7"/>
<stop offset="0.58" stop-color="white"/>
<stop offset="1" stop-color="#F5A89D"/>
</radialGradient>
<radialGradient id="paint1_radial_3_129" cx="0" cy="0" r="1" gradientUnits="userSpaceOnUse" gradientTransform="translate(91.5183 5.45796) rotate(-1.77) scale(5.62684)">
<stop stop-color="#8F1913"/>
<stop offset="0.34" stop-color="#8F1913"/>
<stop offset="0.35" stop-color="#8F1913"/>
<stop offset="0.67" stop-color="#B91918"/>
<stop offset="0.75" stop-color="#C63936"/>
<stop offset="0.93" stop-color="#E88980"/>
<stop offset="1" stop-color="#F5A89D"/>
</radialGradient>
<radialGradient id="paint2_radial_3_129" cx="0" cy="0" r="1" gradientUnits="userSpaceOnUse" gradientTransform="translate(91.8145 6.71846) rotate(172.95) scale(5.57745 5.57745)">
<stop stop-color="#9C1915"/>
<stop offset="0.23" stop-color="#A01916"/>
<stop offset="0.33" stop-color="#A41A17"/>
<stop offset="0.5" stop-color="#AF1918"/>
<stop offset="0.61" stop-color="#B91918"/>
<stop offset="0.71" stop-color="#C63936"/>
<stop offset="0.92" stop-color="#E88980"/>
<stop offset="1" stop-color="#F5A89D"/>
</radialGradient>
<radialGradient id="paint3_radial_3_129" cx="0" cy="0" r="1" gradientUnits="userSpaceOnUse" gradientTransform="translate(90.9777 5.00509) rotate(-1.77) scale(5.76796)">
<stop stop-color="#8F1913"/>
<stop offset="0.26" stop-color="#8F1913"/>
<stop offset="0.57" stop-color="#B91918"/>
<stop offset="0.68" stop-color="#C63936"/>
<stop offset="0.91" stop-color="#E88980"/>
<stop offset="1" stop-color="#F5A89D"/>
</radialGradient>
<radialGradient id="paint4_radial_3_129" cx="0" cy="0" r="1" gradientUnits="userSpaceOnUse" gradientTransform="translate(90.8946 7.45059) rotate(-1.77) scale(6.56523 6.56524)">
<stop offset="0.01" stop-color="#B21918"/>
<stop offset="0.59" stop-color="#C61718"/>
<stop offset="0.65" stop-color="#CB2525"/>
<stop offset="0.76" stop-color="#D74B48"/>
<stop offset="0.92" stop-color="#EA887F"/>
<stop offset="1" stop-color="#F5A89D"/>
</radialGradient>
<radialGradient id="paint5_radial_3_129" cx="0" cy="0" r="1" gradientUnits="userSpaceOnUse" gradientTransform="translate(89.8839 7.36101) rotate(11.32) scale(6.08898 6.08898)">
<stop offset="0.01" stop-color="#B91918"/>
<stop offset="0.54" stop-color="#C61718"/>
<stop offset="0.6" stop-color="#CA2526"/>
<stop offset="0.71" stop-color="#D54B49"/>
<stop offset="0.86" stop-color="#E78883"/>
<stop offset="1" stop-color="#F8C3BB"/>
</radialGradient>
</defs>
</svg>
