<svg width="100" height="85" viewBox="0 0 100 85" fill="none" xmlns="http://www.w3.org/2000/svg">
<path d="M48.6744 0.00195559C43.2852 -0.0143098 37.8961 0.0708905 32.51 0.257511C25.1489 0.4464 19.0189 0.729734 15.8544 1.07418C10.2411 1.6864 6.60444 4.04751 4.29556 7.66751C1.82889 10.6097 0.458889 14.5175 0.272222 19.3497C0.0833333 24.2431 0.0166667 30.4831 0.00555556 36.7831C0 37.6142 0 38.4497 0 39.2886C0.0111111 52.7575 0.271111 65.7553 0.271111 65.7553C0.271111 75.5142 6.96889 82.3253 15.1533 83.372C21.6222 84.202 36.1656 84.4975 50.4422 84.4386H50.47C56.37 84.4609 62.2078 84.3786 67.49 84.1886C74.8511 83.9997 80.9811 83.7164 84.1456 83.372C89.7589 82.7597 93.3956 80.3986 95.7045 76.7786C98.1711 73.8364 99.5411 69.9286 99.7278 65.0964C99.9167 60.2031 99.9833 53.9631 99.9945 47.6631C100 46.832 100 45.9964 100 45.1575C99.9889 31.6886 99.7289 18.6908 99.7289 18.6908C99.7289 8.93196 93.0311 2.12084 84.8467 1.07418C78.3778 0.244178 63.8344 -0.0513776 49.5578 0.00751128H49.53C49.2433 0.00751128 48.9567 0.0030667 48.6711 0.00195559H48.6744Z" fill="#09311B"/>
<path d="M51.2001 9.61417L42.4679 9.53195L36.0512 54.4264L35.1235 48.1864H17.7724L17.0101 53.7653L30.2468 53.7886L31.349 61.8508L40.9435 61.8697L46.8579 19.4453L47.869 26.6531L53.5446 26.6475L51.2001 9.61417Z" fill="white"/>
<path d="M55.0601 37.593L49.3934 37.6042L54.4001 73.6119L61.9457 73.603L64.7345 53.7819L77.7345 53.7919L78.5357 48.2108L59.8323 48.2219L58.1568 60.0697L55.0601 37.593Z" fill="#22BC66"/>
</svg>
