<svg width="150" height="33" viewBox="0 0 150 33" fill="none" xmlns="http://www.w3.org/2000/svg">
<path d="M6.82544 16.1402C6.82544 11.172 10.8525 7.14495 15.8207 7.14495C20.7888 7.14495 24.8159 11.172 24.8159 16.1402C24.8159 21.1084 20.7888 25.1354 15.8207 25.1354C10.8525 25.1354 6.82544 21.1084 6.82544 16.1402Z" fill="#EC520D"/>
<mask id="mask0_4_200" style="mask-type:luminance" maskUnits="userSpaceOnUse" x="0" y="0" width="150" height="33">
<path d="M0 0H150V32.032H0V0Z" fill="white"/>
</mask>
<g mask="url(#mask0_4_200)">
<path d="M5.39084 13.1644C4.78713 15.3413 4.87946 17.6922 5.66073 19.8265C4.43911 19.5104 3.28851 18.8783 2.33323 17.923C-0.511296 15.0785 -0.511296 10.469 2.33323 7.62803L2.53565 7.42206C2.86592 7.09179 3.16422 7.13086 3.33823 7.30487C3.50514 7.47178 3.56196 7.55345 3.54065 7.92988C3.54065 7.92988 3.52644 10.849 5.39084 13.1644Z" fill="#EC520D"/>
</g>
<path d="M10.4655 6.64421C8.49808 7.75574 6.90358 9.48518 5.94475 11.5449C5.30553 10.4618 4.9362 9.19753 4.9362 7.84807C4.9362 3.82453 8.19622 0.564513 12.2198 0.564513H12.5074C12.9726 0.564513 13.1573 0.805997 13.1573 1.05103C13.1573 1.28541 13.1395 1.38485 12.8554 1.63343C12.8554 1.63343 10.7851 3.68959 10.4655 6.64421Z" fill="#EC520D"/>
<path d="M18.9173 5.71024C16.7511 5.06747 14.4002 5.12074 12.2517 5.86295C12.5891 4.64843 13.2425 3.50849 14.212 2.57096C17.1062 -0.223849 21.7157 -0.142171 24.507 2.74852L24.7058 2.95449C25.0325 3.29186 24.9864 3.59016 24.8124 3.76062C24.6419 3.92398 24.5602 3.9808 24.1803 3.94884C24.1803 3.94884 21.2647 3.88847 18.9173 5.71024Z" fill="#EC520D"/>
<path d="M25.377 10.9589C24.2974 8.97378 22.6 7.34732 20.558 6.35298C21.6518 5.73152 22.9231 5.38705 24.2726 5.41191C28.2926 5.48293 31.4958 8.79622 31.4247 12.8198L31.4176 13.1039C31.4105 13.5726 31.1691 13.7537 30.924 13.7466C30.6861 13.7431 30.5902 13.7253 30.3452 13.4377C30.3452 13.4377 28.3281 11.3318 25.377 10.9589Z" fill="#EC520D"/>
<path d="M26.2542 19.1942C26.8934 17.028 26.8437 14.6771 26.1015 12.5286C27.316 12.8659 28.4559 13.5194 29.3935 14.4888C32.1883 17.3831 32.1066 21.9926 29.2159 24.7838L29.0099 24.9827C28.6726 25.3094 28.3743 25.2632 28.2038 25.0892C28.0404 24.9188 27.9836 24.8371 28.012 24.4607C28.012 24.4607 28.076 21.5416 26.2542 19.1942Z" fill="#EC520D"/>
<path d="M21.0871 25.6468C23.0723 24.5672 24.6987 22.8697 25.6931 20.8278C26.3145 21.9216 26.659 23.1929 26.6341 24.5424C26.5631 28.5623 23.2498 31.7655 19.2298 31.6945L18.9422 31.6874C18.4734 31.6803 18.2959 31.4388 18.2994 31.1938C18.303 30.9559 18.3207 30.86 18.6084 30.6149C18.6084 30.6149 20.7143 28.5979 21.0871 25.6468Z" fill="#EC520D"/>
<path d="M12.8164 26.5737C14.9826 27.2164 17.3335 27.1632 19.482 26.4209C19.1446 27.6355 18.4912 28.7754 17.5217 29.7129C14.6275 32.5077 10.018 32.4261 7.22674 29.5354L7.02787 29.3294C6.70116 28.992 6.74732 28.6937 6.92133 28.5233C7.09179 28.3599 7.17347 28.3031 7.5499 28.3351C7.5499 28.3351 10.469 28.3954 12.8164 26.5737Z" fill="#EC520D"/>
<path d="M6.3034 21.4102C7.41493 23.3776 9.14438 24.9721 11.2041 25.9309C10.1174 26.5701 8.85673 26.9395 7.50727 26.9395C3.48373 26.9395 0.223709 23.6794 0.223709 19.6559V19.3682C0.223709 18.903 0.465192 18.7184 0.710226 18.7184C0.944607 18.7184 1.04404 18.7361 1.29263 19.0202C1.29263 19.0202 3.34878 21.0906 6.3034 21.4102Z" fill="#EC520D"/>
<path fill-rule="evenodd" clip-rule="evenodd" d="M51.7271 12.5499C50.8428 8.93121 48.286 7.66698 46.9471 7.21242C46.3896 7.03486 45.4769 6.75786 44.0884 6.75786C40.3419 6.75786 37.2807 8.75365 36.0165 12.2978C35.3844 14.0414 35.3595 15.6359 35.3595 16.2929C35.3595 18.7468 35.8922 21.048 37.5861 22.9479C39.1806 24.7164 40.9243 25.1212 41.8121 25.2491C42.2418 25.3237 42.8988 25.3485 43.3782 25.3485C45.0472 25.3485 46.7199 25.0467 47.9592 23.8819C48.6162 23.2497 48.7938 22.7206 48.8932 22.3406C48.9181 23.3527 49.2235 23.9848 49.401 24.9969H51.8017V15.1316H44.0884V18.3952H48.4635C48.4138 18.7468 48.3641 18.9492 48.3108 19.1268C48.1084 19.6843 47.4266 21.2255 45.6794 21.8328C45.4272 21.9109 44.8732 22.0601 44.163 22.0601C42.0394 22.0601 40.8994 20.9983 40.3951 20.2916C39.8625 19.5565 39.2801 18.2177 39.2801 16.0656C39.2801 13.0826 40.3703 11.6408 41.5315 10.8808C42.5933 10.199 43.7084 10.1457 44.1381 10.1457C45.9102 10.1457 47.4017 10.9554 47.8563 12.7523L51.7271 12.5499Z" fill="#02FFFF"/>
<path fill-rule="evenodd" clip-rule="evenodd" d="M58.2649 7.13785L52.2953 24.9969H56.5958L57.7073 21.3783H63.7302L64.8169 24.9969H69.192L63.3005 7.13785H58.2649ZM58.6449 18.1679L60.7188 10.8063L62.7678 18.1679H58.6449Z" fill="#02FFFF"/>
<path fill-rule="evenodd" clip-rule="evenodd" d="M69.8703 7.13785V24.9969H73.8157V17.8377H74.9308C76.9266 17.8377 77.8889 17.8128 78.7235 18.5231C79.3059 19.0025 79.6077 19.6346 79.7107 21.1261L79.7853 22.5679C79.8386 23.1503 79.8101 24.2903 80.2683 24.7945C80.3428 24.8975 80.4955 24.9721 80.5204 24.9969H84.5155C84.2882 24.7697 84.1888 24.6418 84.1107 24.4927C83.784 23.8606 83.7342 22.646 83.7058 22.6212C83.6561 21.7831 83.6064 19.6346 83.4288 18.8001C83.0489 16.8504 81.7349 16.4456 80.9501 16.2432C81.3549 16.1438 81.9622 15.9662 82.7221 15.2844C83.0489 14.979 83.2513 14.702 83.3543 14.5493C84.0361 13.562 84.0858 12.2481 84.0858 11.8929C84.0858 11.3638 84.0112 10.096 83.0489 8.93477C81.5325 7.06328 79.178 7.113 77.0295 7.13785H69.8703ZM73.8157 14.6771V10.5293H77.129C78.1411 10.5293 78.6738 10.5541 79.1283 10.7814C79.5332 10.959 80.1156 11.4632 80.1156 12.5499C80.1156 12.8305 80.041 14.045 78.9508 14.4995C78.4216 14.7268 77.9138 14.702 76.7774 14.6771H73.8157Z" fill="#02FFFF"/>
<path fill-rule="evenodd" clip-rule="evenodd" d="M86.1278 7.13785V24.9969H91.2131C93.6422 24.9969 94.7288 24.9472 95.8936 24.617C99.5869 23.5552 100.723 20.2667 101.054 19.0771C101.355 18.0401 101.483 17.028 101.483 15.9165C101.483 11.8184 99.6615 9.66632 98.2694 8.62937C96.3233 7.21243 94.047 7.13785 91.7423 7.13785H86.1278ZM90.1229 21.5558V10.579H92.1755C93.6422 10.579 94.4234 10.6784 95.084 10.9838C95.3361 11.1081 95.8155 11.3887 96.2736 11.9427C97.2076 13.1323 97.4597 14.6522 97.4597 16.0692C97.4597 16.4207 97.4846 18.8746 96.1955 20.3164C95.2615 21.3783 93.8694 21.4812 93.4646 21.531C92.8076 21.5558 92.1471 21.5558 91.4901 21.5558H90.1229Z" fill="#02FFFF"/>
<path fill-rule="evenodd" clip-rule="evenodd" d="M102.911 7.13785V24.9969H116.37V21.5842H106.881V17.2056H115.052V14.0201H106.881V10.5293H116.192V7.13785H102.911Z" fill="#02FFFF"/>
<path fill-rule="evenodd" clip-rule="evenodd" d="M117.933 7.13785V24.9969H121.601V18.4201C121.601 16.2716 121.576 14.1693 121.498 12.0456C121.778 12.8802 121.931 13.1323 122.336 13.9171C122.712 14.7268 123.146 15.5116 123.575 16.2965L128.43 24.9969H132.528V7.13785H128.835V14.9044C128.835 15.6892 128.81 16.474 128.835 17.2553C128.86 18.1928 128.913 19.1019 128.987 20.0146C128.81 19.6097 128.632 19.18 128.43 18.7503C127.901 17.6353 127.294 16.5735 126.711 15.5116L122.055 7.13785H117.933Z" fill="#02FFFF"/>
<path fill-rule="evenodd" clip-rule="evenodd" d="M139.002 7.13785L133.032 24.9969H137.333L138.444 21.3783H144.467L145.554 24.9969H149.929L144.034 7.13785H139.002ZM139.382 18.1679L141.456 10.8063L143.505 18.1679H139.382Z" fill="#02FFFF"/>
</svg>
