<svg width="200" height="50" viewBox="0 0 200 50" fill="none" xmlns="http://www.w3.org/2000/svg">
<path fill-rule="evenodd" clip-rule="evenodd" d="M177.004 1.40309C176.322 -0.467695 173.678 -0.467695 172.996 1.40309L169.904 9.9041L161.403 12.9964C159.532 13.6778 159.532 16.3222 161.403 17.0036L169.904 20.0959L172.996 28.5969C173.678 30.4677 176.322 30.4677 177.004 28.5969L180.096 20.0959L188.597 17.0036C190.468 16.3222 190.468 13.6778 188.597 12.9964L180.096 9.9041L177.004 1.40309Z" fill="#6AC1FF" fill-opacity="0.41"/>
<path fill-rule="evenodd" clip-rule="evenodd" d="M187.004 21.4031C186.322 19.5323 183.678 19.5323 182.996 21.4031L179.904 29.9041L171.403 32.9964C169.532 33.6778 169.532 36.3222 171.403 37.0036L179.904 40.0959L182.996 48.5969C183.678 50.4677 186.322 50.4677 187.004 48.5969L190.096 40.0959L198.597 37.0036C200.468 36.3222 200.468 33.6778 198.597 32.9964L190.096 29.9041L187.004 21.4031Z" fill="#6AC1FF" fill-opacity="0.41"/>
<path d="M13.1445 39.352C11.5018 39.352 9.95517 39.0533 8.5045 38.456C7.07517 37.8587 5.82717 37.0373 4.7605 35.992C3.69383 34.9253 2.85117 33.688 2.2325 32.28C1.63517 30.8507 1.3365 29.3147 1.3365 27.672C1.3365 26.0293 1.64583 24.504 2.2645 23.096C2.88317 21.688 3.7365 20.4613 4.8245 19.416C5.93383 18.3493 7.2245 17.528 8.6965 16.952C10.1685 16.3547 11.7472 16.056 13.4325 16.056C15.3738 16.056 17.1338 16.408 18.7125 17.112C20.3125 17.816 21.6352 18.7867 22.6805 20.024L19.2565 23.448C18.5312 22.5093 17.6778 21.8053 16.6965 21.336C15.7152 20.8667 14.6058 20.632 13.3685 20.632C12.0458 20.632 10.8618 20.9307 9.8165 21.528C8.77117 22.104 7.94983 22.9253 7.3525 23.992C6.7765 25.0373 6.4885 26.264 6.4885 27.672C6.4885 29.08 6.7765 30.3173 7.3525 31.384C7.9285 32.4507 8.71783 33.2827 9.7205 33.88C10.7232 34.4773 11.8752 34.776 13.1765 34.776C14.4992 34.776 15.6192 34.5307 16.5365 34.04C17.4752 33.528 18.1898 32.8027 18.6805 31.864C19.1925 30.904 19.4485 29.7413 19.4485 28.376L22.7765 30.616L12.6965 30.456V26.2H24.5685V26.936C24.5685 29.6453 24.0778 31.928 23.0965 33.784C22.1365 35.6187 20.7925 37.0053 19.0645 37.944C17.3578 38.8827 15.3845 39.352 13.1445 39.352ZM27.1655 39V23.448H32.0615V39H27.1655ZM32.0615 30.456L30.0135 28.856C30.4188 27.0427 31.1015 25.6347 32.0615 24.632C33.0215 23.6293 34.3548 23.128 36.0615 23.128C36.8082 23.128 37.4588 23.2453 38.0135 23.48C38.5895 23.6933 39.0908 24.0347 39.5175 24.504L36.6055 28.184C36.3922 27.9493 36.1255 27.768 35.8055 27.64C35.4855 27.512 35.1228 27.448 34.7175 27.448C33.9068 27.448 33.2562 27.704 32.7655 28.216C32.2962 28.7067 32.0615 29.4533 32.0615 30.456ZM82.8428 39L76.2508 23.448H81.5308L86.0108 36.408H83.7068L88.1868 23.448H93.3708L86.7788 39H82.8428ZM99.3718 39.064L92.9718 23.448H98.2518L102.316 35.832H100.364L104.524 23.448H109.804L103.148 39.064H99.3718ZM95.3718 45.56L100.044 35.48L103.148 39.064L100.396 45.56H95.3718ZM112.114 39V16.408H117.138V39H112.114ZM115.986 39V34.584H127.154V39H115.986ZM135.849 39.32C134.42 39.32 133.14 38.968 132.009 38.264C130.9 37.56 130.014 36.6 129.353 35.384C128.713 34.168 128.393 32.7813 128.393 31.224C128.393 29.6667 128.713 28.28 129.353 27.064C130.014 25.848 130.9 24.888 132.009 24.184C133.14 23.48 134.42 23.128 135.849 23.128C136.894 23.128 137.833 23.3307 138.665 23.736C139.518 24.1413 140.212 24.7067 140.745 25.432C141.278 26.136 141.577 26.9467 141.641 27.864V34.584C141.577 35.5013 141.278 36.3227 140.745 37.048C140.233 37.752 139.55 38.3067 138.697 38.712C137.844 39.1173 136.894 39.32 135.849 39.32ZM136.841 34.904C137.886 34.904 138.729 34.5627 139.369 33.88C140.009 33.176 140.329 32.2907 140.329 31.224C140.329 30.4987 140.18 29.8587 139.881 29.304C139.604 28.7493 139.198 28.3227 138.665 28.024C138.153 27.704 137.556 27.544 136.873 27.544C136.19 27.544 135.582 27.704 135.049 28.024C134.537 28.3227 134.121 28.7493 133.801 29.304C133.502 29.8587 133.353 30.4987 133.353 31.224C133.353 31.928 133.502 32.5573 133.801 33.112C134.1 33.6667 134.516 34.104 135.049 34.424C135.582 34.744 136.18 34.904 136.841 34.904ZM140.137 39V34.808L140.873 31.032L140.137 27.256V23.448H144.937V39H140.137ZM157.344 39.32C156.299 39.32 155.339 39.1067 154.464 38.68C153.59 38.232 152.875 37.6453 152.32 36.92C151.766 36.1733 151.446 35.3413 151.36 34.424V27.864C151.446 26.9467 151.766 26.136 152.32 25.432C152.875 24.7067 153.59 24.1413 154.464 23.736C155.339 23.3307 156.299 23.128 157.344 23.128C158.816 23.128 160.118 23.48 161.248 24.184C162.4 24.888 163.296 25.848 163.936 27.064C164.598 28.28 164.928 29.6667 164.928 31.224C164.928 32.7813 164.598 34.168 163.936 35.384C163.296 36.6 162.4 37.56 161.248 38.264C160.118 38.968 158.816 39.32 157.344 39.32ZM148.384 39V15.768H153.28V27.256L152.48 31.032L153.216 34.808V39H148.384ZM156.48 34.904C157.163 34.904 157.76 34.744 158.272 34.424C158.806 34.104 159.222 33.6667 159.52 33.112C159.819 32.5573 159.968 31.928 159.968 31.224C159.968 30.4987 159.819 29.8587 159.52 29.304C159.222 28.7493 158.806 28.3227 158.272 28.024C157.76 27.704 157.163 27.544 156.48 27.544C155.798 27.544 155.19 27.704 154.656 28.024C154.123 28.3227 153.707 28.7493 153.408 29.304C153.131 29.8587 152.992 30.4987 152.992 31.224C152.992 31.9493 153.142 32.5893 153.44 33.144C153.739 33.6987 154.144 34.136 154.656 34.456C155.19 34.7547 155.798 34.904 156.48 34.904Z" fill="url(#paint0_linear_3_49)"/>
<path d="M67.125 24C71.4708 24 75 27.4708 75 31.8458C75 36.1625 71.4708 39.6771 67.125 39.6771C65.0104 39.6771 63.0417 38.8604 61.5542 37.3875L57.5 33.8L53.3729 37.4604C51.9583 38.875 49.975 39.6917 47.875 39.6917C43.5292 39.6917 40 36.1625 40 31.8458C40 27.5292 43.5292 24 47.875 24C49.975 24 51.9583 24.8167 53.4458 26.3042L57.5 29.8917L61.6271 26.2312C63.0417 24.8167 65.025 24 67.125 24ZM51.375 35.3313L55.3125 31.8458L51.4333 28.4187C50.4417 27.4271 49.2021 26.9167 47.875 26.9167C45.1479 26.9167 42.9167 29.1188 42.9167 31.8458C42.9167 34.5729 45.1479 36.775 47.875 36.775C49.2021 36.775 50.4417 36.2646 51.375 35.3313ZM63.625 28.3604L59.6875 31.8458L63.5667 35.2729C64.5583 36.2646 65.8125 36.775 67.125 36.775C69.8521 36.775 72.0833 34.5729 72.0833 31.8458C72.0833 29.1188 69.8521 26.9167 67.125 26.9167C65.7979 26.9167 64.5583 27.4271 63.625 28.3604Z" fill="url(#paint1_linear_3_49)"/>
<defs>
<linearGradient id="paint0_linear_3_49" x1="0" y1="27.5" x2="166" y2="27.5" gradientUnits="userSpaceOnUse">
<stop stop-color="white"/>
<stop offset="1" stop-color="#999999"/>
</linearGradient>
<linearGradient id="paint1_linear_3_49" x1="57.5" y1="24" x2="57" y2="51.5" gradientUnits="userSpaceOnUse">
<stop stop-color="#EBEBEB"/>
<stop offset="1" stop-color="#4D4D4D"/>
</linearGradient>
</defs>
</svg>
