<svg width="439" height="782" viewBox="0 0 439 782" fill="none" xmlns="http://www.w3.org/2000/svg">
<g opacity="0.3" clip-path="url(#clip0_427_417)">
<path d="M3.97053 440.83C-0.676965 439.638 -4.1101 442.891 -8.40616 446.293C-13.7049 450.312 -18.4735 458.672 -29.0574 439.885C-32.913 433.014 -33.3432 421.561 -41.9167 407.968C-47.7295 398.775 -65.9672 375.546 -35.999 370.37C-19.3982 367.502 4.70643 379.742 12.306 392.838C17.3973 401.713 -1.43914 409.622 8.13023 421.269C13.5323 428.095 19.8582 438.973 17.1466 442.544C14.6137 445.863 8.40293 442.06 3.97053 440.83Z" stroke="white" stroke-width="0.5"/>
<path d="M27.3816 387.575C34.5247 396.759 15.0955 407.652 22.5994 422.759C23.6199 424.8 24.6768 427.057 25.5177 429.349C28.6231 437.015 34.0996 444.271 33.0089 448.227C31.5041 454.916 25.5626 453.947 19.555 453.877C13.1164 453.881 7.31131 457.544 -0.130779 458.164C-9.33516 458.868 -11.2634 466.959 -23.4402 458.201C-26.7277 455.887 -30.2811 457.166 -33.7506 448.676C-36.4537 442.049 -39.2568 442.534 -41.1724 435.327C-43.6756 426.007 -40.6245 419.272 -53.0697 407.678C-67.8667 394.052 -74.6033 357.752 -40.2984 355.817C-39.1831 355.846 -38.0678 355.874 -36.9152 356.119C-24.6385 357.767 -16.1811 364.286 6.25784 374.598C14.6238 378.029 22.8128 381.713 27.3816 387.575Z" stroke="white" stroke-width="0.5"/>
<path d="M42.2412 382.347C51.4744 392.058 31.0577 406.225 36.8163 424.072C37.6953 426.581 38.3957 429.342 39.096 432.102C41.3469 441.246 49.1295 448.99 49.088 453.874C48.8636 464.11 42.9382 465.798 35.1396 466.923C27.0877 467.871 18.1526 471.41 8.3597 469.998C-6.25941 467.646 -5.72504 478.416 -23.5232 467.968C-28.2164 465.233 -33.3289 470.328 -37.9764 457.608C-41.7448 447.397 -46.5007 451.987 -48.9007 441.983C-52.2169 429.255 -44.0203 422.741 -63.9703 407.566C-87.5364 389.469 -82.6213 340.96 -44.3438 341.442C-42.7974 341.396 -41.3925 341.819 -39.9868 342.24C-26.0062 346.033 -22.0971 355.776 13.5627 369.345C23.9451 372.872 35.7239 375.493 42.2412 382.347Z" stroke="white" stroke-width="0.5"/>
<path d="M57.3168 377.083C68.2081 387.394 48.2767 404.358 51.0332 425.385C51.3397 428.436 51.8995 431.664 52.4592 434.893C53.8565 445.514 62.8653 453.933 64.7352 459.595C69.2412 472.782 60.0987 477.686 50.4717 479.793C40.8439 481.899 28.9576 485.061 16.5606 481.439C-3.33186 475.564 -0.691392 489.518 -24.1499 477.166C-30.2489 474.007 -36.8831 483.133 -42.7449 465.969C-47.5779 452.173 -54.0343 461.047 -57.1718 448.067C-61.0851 431.896 -47.959 425.638 -75.2351 406.63C-107.785 384.1 -90.9661 323.56 -48.755 326.243C-46.9555 326.376 -45.2974 326.976 -43.4233 327.539C-27.7761 333.26 -28.3401 346.658 20.4671 363.054C33.4814 367.678 48.8136 369.02 57.3168 377.083Z" stroke="white" stroke-width="0.5"/>
<path d="M72.1764 371.856C84.7258 382.767 63.5555 402.828 65.2873 426.913C65.4533 430.431 65.6565 434.165 65.8589 437.898C66.439 450.211 77.9688 459.082 80.6347 465.494C87.069 482.116 77.2592 489.574 66.0562 492.839C54.8533 496.105 40.014 498.89 25.0511 493.272C0.100412 483.838 4.84701 500.975 -24.271 486.718C-31.5589 483.1 -39.7149 496.258 -47.0071 474.685C-52.869 457.521 -61.3146 470.285 -65.1161 454.759C-69.8424 435.182 -51.3176 429.321 -86.1348 406.518C-127.454 379.518 -98.9468 306.982 -52.8385 311.653C-50.5707 311.926 -48.6593 312.704 -46.7107 313.698C-29.3597 321.563 -34.3976 338.615 27.5569 357.839C42.8018 362.521 61.7246 362.799 72.1764 371.856Z" stroke="white" stroke-width="0.5"/>
<path d="M87.0361 366.629C101.498 378.318 79.4805 401.185 79.5042 428.226C79.5296 432.212 79.3382 436.235 79.4001 440.436C79.1265 454.227 93.3925 463.511 96.4606 470.962C104.785 490.805 94.5976 501.21 81.6035 505.672C68.8255 510.096 51.2128 512.251 33.4679 504.676C3.24311 491.72 10.0958 512.038 -24.6435 496.093C-33.3381 492.053 -43.0159 509.243 -51.7384 483.262C-58.6656 462.512 -68.849 479.345 -73.3508 461.059C-78.8892 438.075 -55.219 432.434 -97.541 406.05C-147.844 374.616 -107.574 290.517 -57.3903 296.922C-54.9065 297.158 -52.4896 298.292 -50.2878 299.464C-31.0542 309.22 -40.7447 330.18 34.3571 352.231C52.1595 357.579 74.6357 356.579 87.0361 366.629Z" stroke="white" stroke-width="0.5"/>
<path d="M102.112 361.364C118.231 373.654 95.6213 399.506 93.937 429.501C93.605 433.991 93.2731 438.482 92.9784 443.189C92.0655 458.42 109.893 467.754 112.323 476.645C119.022 501.202 111.757 513.098 97.1508 518.502C82.7595 523.87 62.2319 525.864 41.9202 516.294C6.63807 499.778 15.3809 523.317 -24.8019 505.431C-34.9014 500.969 -46.1383 521.974 -56.0379 491.762C-63.8153 467.392 -76.1302 488.583 -81.1545 467.283C-87.2891 440.855 -58.6521 435.686 -108.3 405.47C-167.372 369.566 -115.592 273.724 -61.2951 282.079C-58.343 282.456 -55.8888 283.805 -53.2187 285.117C-32.3186 296.802 -46.6608 321.669 42.0185 346.474C61.6958 352.385 87.5467 350.358 102.112 361.364Z" stroke="white" stroke-width="0.5"/>
<path d="M116.971 356.137C134.749 369.027 111.762 397.826 107.975 431.066C107.503 436.025 106.814 441.02 106.163 446.231C104.396 462.941 124.96 472.689 128.007 482.581C136.634 510.574 128.918 524.986 112.557 531.802C96.5901 538.329 73.3264 539.909 50.2328 528.381C9.89245 508.305 20.7787 535.242 -25.0637 515.451C-36.5689 510.567 -49.3275 535.603 -60.4416 500.947C-69.2843 472.992 -83.3361 498.252 -89.0235 474.406C-95.971 444.572 -61.9727 439.586 -119.163 405.573C-187.22 365.236 -123.461 257.793 -65.3033 267.919C-62.0988 268.474 -59.1755 269.964 -56.469 271.492C-33.6863 285.068 -52.8589 314.094 49.1091 341.259C71.0161 347.228 100.458 344.138 116.971 356.137Z" stroke="white" stroke-width="0.5"/>
<path d="M132.084 351.088C151.557 364.793 127.94 396.361 122.445 432.557C121.615 438.021 120.786 443.484 119.779 449.199C117.158 467.387 140.243 477.586 143.907 488.48C154.462 519.908 146.115 537.089 128.141 544.849C110.384 552.571 84.3456 553.522 58.6862 539.999C13.2876 516.364 26.0648 546.521 -25.4371 524.826C-38.3853 519.305 -52.6285 548.587 -64.9568 509.485C-74.865 477.946 -90.8323 507.527 -97.0422 480.668C-104.765 447.642 -65.6589 442.661 -130.353 405.068C-207.394 360.297 -131.909 241.075 -69.6399 253.151C-66.1822 253.884 -62.7906 255.515 -59.7936 257.435C-35.1292 272.904 -58.9163 306.052 56.1609 335.829C80.3367 342.071 113.369 337.917 132.084 351.088Z" stroke="white" stroke-width="0.5"/>
<path d="M146.944 345.861C168.076 360.167 143.865 394.718 136.662 433.869C135.692 439.8 134.29 445.806 133.32 451.737C129.844 471.401 155.628 481.8 159.948 493.911C172.215 528.812 163.632 548.472 143.688 557.68C124.355 566.562 95.5807 567.099 66.9243 551.655C16.4674 524.46 31.3135 557.585 -25.7733 534.416C-40.1273 528.472 -55.9295 561.572 -69.435 518.24C-80.4084 483.115 -98.1135 516.764 -105.024 487.145C-113.559 450.714 -69.2707 446.166 -141.291 404.74C-227.1 355.499 -140.069 224.75 -73.7607 238.345C-69.8347 239.218 -66.4431 240.85 -62.9397 243.127C-36.6087 260.524 -65.0111 297.795 63.3921 330.146C89.9103 337.093 126.281 331.697 146.944 345.861Z" stroke="white" stroke-width="0.5"/>
<path d="M162.019 340.597C184.847 355.718 160.044 393.254 150.916 435.397C149.552 441.618 148.046 448.307 146.719 454.743C142.427 476.1 170.695 486.735 175.632 499.847C189.827 538.184 180.613 560.612 159.058 570.765C138.111 580.59 106.601 580.713 75.1997 563.526C19.6846 532.771 36.4208 569.117 -26.3254 544.044C-42.0844 537.677 -59.4084 574.808 -74.3442 527.068C-86.383 488.359 -106.042 526.115 -113.436 493.697C-122.569 453.821 -73.1349 449.494 -152.875 404.524C-247.669 350.85 -148.874 208.537 -78.4904 223.867C-74.3484 224.703 -70.4512 226.691 -66.9106 229.182C-38.6979 248.471 -71.9298 289.901 69.7985 324.828C99.2315 331.936 139.192 325.477 162.019 340.597Z" stroke="white" stroke-width="0.5"/>
<path d="M176.879 335.371C201.365 351.092 175.969 391.611 165.133 436.71C163.412 443.435 161.729 450.377 160.083 457.533C154.936 480.368 185.941 491.416 191.28 505.568C207.403 547.34 197.737 572.285 174.39 583.633C151.868 594.618 117.406 594.364 83.4006 574.967C22.8273 540.652 41.4537 580.218 -26.698 553.418C-43.8627 546.63 -62.7085 587.792 -78.8595 535.607C-91.9636 493.313 -113.322 535.353 -121.418 500.175C-131.362 456.893 -76.7458 452.999 -163.849 403.982C-267.412 345.837 -157.07 191.997 -82.6111 209.061C-78.0008 210.038 -73.8504 212.203 -70.0193 215.088C-39.924 236.269 -77.9873 281.859 77.0298 319.146C108.768 326.742 151.888 319.294 176.879 335.371Z" stroke="white" stroke-width="0.5"/>
<path d="M191.954 330.106C218.136 346.642 192.109 389.931 179.566 437.985C177.704 445.179 175.664 452.625 173.876 460.249C167.876 484.562 201.401 496.061 207.574 511.177C225.624 556.384 215.328 584.099 190.406 596.606C166.308 608.748 129.109 608.081 92.322 586.727C26.6906 548.852 47.4231 591.6 -26.604 562.934C-45.1737 555.724 -65.5412 600.917 -82.9067 544.285C-97.0761 498.408 -120.387 544.553 -128.968 506.577C-139.726 459.889 -79.9639 456.215 -174.356 403.58C-286.903 341.002 -164.798 175.598 -86.2636 194.397C-81.4001 195.552 -76.9974 197.895 -72.6979 200.921C-40.7201 223.993 -83.3978 273.705 84.7292 313.604C118.125 321.8 164.799 313.073 191.954 330.106Z" stroke="white" stroke-width="0.5"/>
<path d="M206.814 324.879C234.692 342.231 208.213 388.037 193.82 439.513C191.601 447.212 189.421 455.126 187.276 463.254C180.422 489.044 216.646 500.743 223.258 517.113C243.236 565.755 232.273 596.024 205.774 609.69C179.886 623.029 140.129 621.694 100.597 598.597C29.9077 557.163 52.5685 603.347 -26.9021 572.739C-46.8775 565.106 -68.8049 614.116 -87.3475 553.254C-102.367 503.755 -127.631 554.006 -136.913 513.269C-148.266 463.138 -83.3597 459.684 -185.471 403.504C-306.788 336.456 -173.135 159.526 -90.5249 180.059C-85.4082 181.392 -80.5372 183.876 -76.2005 187.116C-42.3401 212.08 -89.8483 265.952 91.6039 308.426C127.446 316.643 177.71 306.853 206.814 324.879Z" stroke="white" stroke-width="0.5"/>
<path d="M221.89 319.615C251.426 337.567 224.354 386.357 208.037 440.826C205.678 448.992 203.14 457.411 200.602 465.829C192.894 493.097 231.638 505.246 239.084 522.582C260.989 574.659 249.611 607.66 221.322 622.522C193.82 636.804 151.364 635.272 109.013 610.001C33.2663 565.006 58.0332 614.374 -27.3129 581.899C-48.479 573.807 -72.1424 626.885 -91.9002 561.578C-107.985 508.495 -135.165 563.066 -144.931 519.532C-157.097 465.993 -87.008 462.974 -196.446 402.963C-326.746 331.48 -181.547 143.023 -94.6457 165.253C-89.0607 166.727 -83.9364 169.389 -79.3465 172.808C-43.6045 199.663 -95.943 257.695 99.0502 302.706C136.982 311.449 190.658 300.847 221.89 319.615Z" stroke="white" stroke-width="0.5"/>
<path d="M236.749 314.388C268.197 333.118 240.279 384.714 222.291 442.353C219.575 451.025 216.681 459.949 214.002 468.835C205.439 497.58 246.92 510.144 254.768 528.517C278.564 583.816 266.593 619.8 236.475 635.643C207.398 651.085 161.99 649.175 117.073 621.909C36.2676 573.355 62.9246 625.942 -27.8277 591.742C-50.3987 583.227 -75.5848 640.336 -96.772 570.622C-113.922 513.953 -142.84 572.594 -153.307 526.299C-166.285 469.354 -91.0508 466.555 -208.03 402.747C-347.315 326.831 -190.352 126.811 -99.4134 150.56C-93.5752 152.211 -88.1977 155.051 -83.1022 158.826C-45.6936 187.611 -102.609 249.979 105.634 297.135C146.34 306.508 203.569 294.627 236.749 314.388Z" stroke="white" stroke-width="0.5"/>
<path d="M251.862 309.339C284.968 328.669 256.457 383.249 236.76 443.845C233.688 453.021 230.653 462.411 227.833 471.766C218.416 501.989 262.381 514.789 271.099 534.342C296.823 593.076 284.4 631.576 252.528 648.831C221.838 665.216 173.694 662.892 126.032 633.883C40.3468 581.517 68.7162 637.578 -27.6957 601.473C-51.6724 592.535 -78.4167 653.461 -100.782 579.516C-118.998 519.264 -149.83 582.226 -160.82 532.917C-174.612 472.565 -94.0156 469.948 -218.499 402.56C-366.553 322.174 -198.043 110.626 -103.028 136.11C-96.7594 137.687 -91.0915 140.92 -85.9587 144.91C-46.6676 175.587 -108.414 242.115 113.155 291.846C155.661 301.351 216.48 288.407 251.862 309.339Z" stroke="white" stroke-width="0.5"/>
<path d="M266.722 304.112C301.524 324.258 272.383 381.608 250.978 445.157C247.764 454.801 244.372 464.697 241.196 474.557C230.962 506.472 277.626 519.47 286.746 540.063C314.398 602.232 301.307 643.286 267.86 661.7C235.379 679.281 184.714 676.505 134.017 645.361C43.2736 589.435 73.749 648.679 -28.3223 610.67C-53.7412 601.095 -81.7549 666.23 -105.55 587.877C-124.831 524.04 -157.401 591.07 -169.054 539.217C-183.443 475.421 -97.8797 473.276 -229.689 402.055C-386.727 317.235 -206.454 94.1241 -107.364 121.342C-100.842 123.097 -94.7439 126.255 -89.3207 130.639C-48.147 163.206 -114.508 233.857 120.171 286.2C165.198 296.157 229.176 282.223 266.722 304.112Z" stroke="white" stroke-width="0.5"/>
<path d="M281.797 298.848C318.295 319.809 288.523 379.928 265.232 446.685C261.662 456.834 258.091 466.983 254.558 477.346C243.471 510.74 292.655 524.189 302.393 545.783C331.973 611.388 318.467 655.174 283.192 674.569C249.135 693.309 195.697 689.904 142.255 657.017C46.4534 597.532 78.819 659.995 -28.8736 620.297C-55.6983 610.301 -85.2338 679.467 -110.244 596.669C-130.59 529.247 -165.113 600.383 -177.466 545.768C-192.667 478.566 -101.959 476.641 -241.273 401.839C-407.08 312.549 -215.259 77.911 -112.094 106.864C-105.319 108.797 -98.9679 112.133 -93.0392 116.872C-49.9829 151.332 -121.138 226.357 126.83 281.06C174.555 291.215 242.087 276.003 281.797 298.848Z" stroke="white" stroke-width="0.5"/>
<path d="M296.657 293.62C334.812 315.182 304.449 378.285 279.449 447.997C275.737 458.614 271.811 469.268 268.137 480.099C256.195 514.97 308.116 528.834 318.472 551.429C349.979 620.469 335.843 667.025 298.992 687.578C263.36 707.477 206.969 703.696 150.924 668.598C50.0644 605.553 84.3202 671.237 -28.816 629.598C-57.0465 619.178 -88.1038 692.376 -114.328 605.133C-135.74 534.126 -171.964 609.547 -185.054 551.955C-201.068 481.347 -104.961 479.819 -251.854 401.006C-426.645 307.283 -223.278 61.1185 -115.821 91.7679C-108.578 93.8417 -101.973 97.3569 -96.0074 102.311C-51.0695 138.662 -127.054 217.847 134.202 274.91C184.091 286.021 255.035 269.997 296.657 293.62Z" stroke="white" stroke-width="0.5"/>
<path d="M311.732 288.356C351.584 310.734 320.805 376.568 293.882 449.273C289.813 460.394 285.53 471.553 281.715 482.853C268.919 519.201 323.323 533.3 334.335 557.113C367.77 629.589 352.966 678.697 314.54 700.41C277.295 721.253 218.204 717.272 159.377 680.218C53.4594 613.611 89.8222 682.478 -29.1522 639.187C-58.7884 628.346 -91.4047 705.36 -119.059 613.709C-141.536 539.118 -179.712 618.644 -193.252 558.47C-209.862 484.418 -108.825 483.147 -263.007 400.716C-446.567 302.523 -231.652 44.831 -120.157 76.9995C-112.661 79.2516 -105.588 82.9072 -99.3685 88.0398C-52.5489 126.282 -133.364 209.627 141.217 269.264C193.412 280.864 267.947 263.777 311.732 288.356Z" stroke="white" stroke-width="0.5"/>
<path d="M326.592 283.13C368.139 306.322 336.514 374.963 308.135 450.801C303.711 462.427 299.286 474.053 295.115 485.858C281.464 523.684 338.605 538.198 350.234 563.011C385.561 638.708 370.379 690.764 330.161 713.672C291.34 735.673 229.476 731.063 167.905 692.266C56.9289 622.101 95.1827 694.188 -29.2361 648.956C-60.2772 637.692 -94.4153 718.737 -123.284 622.64C-146.612 544.428 -186.741 628.059 -200.98 565.125C-218.366 487.882 -112.221 486.615 -273.907 400.604C-466.452 297.977 -239.774 28.7217 -124.203 62.625C-116.239 65.0175 -109.128 68.8878 -102.441 74.1614C-53.7387 114.295 -139.346 202.015 148.738 263.975C202.769 275.923 280.642 257.594 326.592 283.13Z" stroke="white" stroke-width="0.5"/>
<path d="M341.668 277.865C384.874 301.658 352.87 373.246 322.353 452.114C317.787 464.208 313.006 476.339 308.441 488.433C293.937 527.737 353.598 542.701 365.844 568.517C403.095 647.649 387.249 702.259 345.24 726.362C304.844 749.523 240.244 744.5 175.852 703.529C59.9979 629.551 100.178 705.074 -30.0778 658.19C-62.5248 646.504 -98.1838 731.581 -128.268 631.039C-152.661 549.241 -194.706 637.194 -209.467 571.246C-227.665 490.596 -116.339 489.765 -285.35 399.921C-486.879 292.86 -248.438 12.0411 -128.792 47.6783C-120.612 50.0344 -112.996 54.2606 -106.234 59.9646C-55.6492 101.99 -146.012 194.299 155.323 258.404C212.091 270.766 293.554 251.374 341.668 277.865Z" stroke="white" stroke-width="0.5"/>
<path d="M356.528 272.638C401.427 297.246 368.796 371.603 336.57 453.427C331.61 465.81 326.726 478.624 322.019 491.186C306.698 532.183 369.021 547.131 381.745 574.416C421.142 656.946 404.662 714.325 360.825 739.41C318.638 763.765 251.479 758.075 184.344 715.363C63.4302 637.826 105.502 716.568 -30.198 667.743C-64.0507 655.635 -101.27 744.528 -132.531 639.755C-157.989 554.374 -201.771 646.395 -217.233 577.687C-236.243 493.631 -119.556 492.981 -296.325 399.378C-506.622 287.847 -256.85 -4.46204 -132.913 32.8728C-124.48 35.4065 -116.394 39.7738 -109.38 45.6553C-56.9126 89.5725 -152.107 186.042 162.516 252.507C221.664 265.787 306.502 245.368 356.528 272.638Z" stroke="white" stroke-width="0.5"/>
<path d="M371.64 267.589C418.237 293.013 384.974 370.138 351.076 455.132C345.976 467.984 340.735 481.303 335.672 494.369C319.496 536.843 384.341 552.243 397.897 580.493C439.222 666.458 422.115 726.606 376.7 752.85C332.899 778.153 262.826 772.295 192.909 727.627C66.9742 646.745 110.899 728.493 -30.4225 677.979C-65.6801 665.448 -104.421 758.371 -136.897 649.154C-163.42 560.189 -209.118 656.531 -225.065 585.025C-244.673 497.525 -123.018 497.348 -307.114 399.911C-526.395 283.947 -264.823 -19.7103 -136.847 19.1442C-127.945 21.8182 -119.861 26.1848 -112.34 32.423C-57.9908 78.2313 -158.015 178.86 169.934 247.9C230.985 260.63 319.413 239.147 371.64 267.589Z" stroke="white" stroke-width="0.5"/>
<path d="M413.503 585.999C498.296 761.33 349.075 834.322 201.109 739.068C70.1169 654.626 116.185 739.772 -30.8332 687.139C-67.2815 674.149 -107.759 771.145 -141.665 657.515C-169.254 564.965 -216.689 665.376 -233.337 591.109C-253.757 500.203 -126.957 500.245 -318.34 399.191C-562.27 270.416 -232.904 -81.5295 -115.955 17.9733C-59.9012 65.9264 -164.4 170.209 176.697 242.077C240.305 255.473 332.108 232.965 386.5 262.362C442.116 292.434 388.684 394.104 349.035 497.16C331.968 540.896 399.333 556.748 413.503 585.999Z" stroke="white" stroke-width="0.5"/>
</g>
<defs>
<clipPath id="clip0_427_417">
<rect width="846" height="782" fill="white" transform="translate(-407)"/>
</clipPath>
</defs>
</svg>
