<svg width="1916" height="754" viewBox="0 0 1916 754" fill="none" xmlns="http://www.w3.org/2000/svg">
<path d="M-3 748.113V5.88721L258.338 132.884V621.117L257.638 621.455L-3 748.113ZM0.502043 10.4075V743.593L254.836 619.995V134.006L0.502043 10.4075Z" fill="#00FF95"/>
<path d="M60.4393 37.2744H56.9368V716.723H60.4393V37.2744Z" fill="#00FF95"/>
<path d="M111.611 62.1396H108.109V691.858H111.611V62.1396Z" fill="#00FF95"/>
<path d="M155.797 83.6123H152.294V670.386H155.797V83.6123Z" fill="#00FF95"/>
<path d="M194.345 102.343H190.843V651.654H194.345V102.343Z" fill="#00FF95"/>
<path d="M228.263 118.827H224.761V635.17H228.263V118.827Z" fill="#00FF95"/>
<path d="M255.591 575.236L-2.09674 677.906L-0.252085 679.825L257.435 577.155L255.591 575.236Z" fill="#00FF95"/>
<path d="M-0.488802 612.738L-2.00867 610.709L255.827 530.974L257.347 533.003L-0.488802 612.738Z" fill="#00FF95"/>
<path d="M-0.684586 545.723L-1.81207 543.594L256.024 486.641L257.151 488.769L-0.684586 545.723Z" fill="#00FF95"/>
<path d="M-0.898163 478.697L-1.59857 476.492L256.237 442.322L256.938 444.528L-0.898163 478.697Z" fill="#00FF95"/>
<path d="M256.468 398.018L-1.36859 409.403L-1.12896 411.653L256.708 400.267L256.468 398.018Z" fill="#00FF95"/>
<path d="M-1.12893 342.344L-1.36859 344.593L256.468 355.982L256.707 353.732L-1.12893 342.344Z" fill="#00FF95"/>
<path d="M256.237 311.676L-1.59857 277.506L-0.898163 275.301L256.938 309.471L256.237 311.676Z" fill="#00FF95"/>
<path d="M256.024 267.357L-1.81207 210.403L-0.684586 208.274L257.151 265.229L256.024 267.357Z" fill="#00FF95"/>
<path d="M255.827 223.024L-2.00867 143.288L-0.488802 141.259L257.347 220.994L255.827 223.024Z" fill="#00FF95"/>
<path d="M-0.327865 74.2495L-2.16992 76.1699L255.666 178.686L257.508 176.765L-0.327865 74.2495Z" fill="#00FF95"/>
<path d="M359.068 748.597V5.40283L362.066 7.35522L554.577 132.983V621.018L554.073 621.348L359.068 748.597ZM362.57 10.8917V743.109L551.075 620.094V133.907L362.57 10.8917Z" fill="#00FFD0"/>
<path d="M407.208 37.2744H403.706V716.723H407.208V37.2744Z" fill="#00FFD0"/>
<path d="M445.312 62.1396H441.81V691.858H445.312V62.1396Z" fill="#00FFD0"/>
<path d="M478.215 83.6123H474.713V670.386H478.215V83.6123Z" fill="#00FFD0"/>
<path d="M506.923 102.343H503.421V651.655H506.923V102.343Z" fill="#00FFD0"/>
<path d="M532.18 118.827H528.678V635.17H532.18V118.827Z" fill="#00FFD0"/>
<path d="M361.939 679.655L359.7 677.923L551.706 575.406L553.944 577.138L361.939 679.655Z" fill="#00FFD0"/>
<path d="M551.867 531.032L359.882 610.788L361.778 612.68L553.764 532.924L551.867 531.032Z" fill="#00FFD0"/>
<path d="M361.554 545.682L360.085 543.636L552.091 486.682L553.56 488.727L361.554 545.682Z" fill="#00FFD0"/>
<path d="M361.289 478.68L360.349 476.508L552.356 442.338L553.296 444.51L361.289 478.68Z" fill="#00FFD0"/>
<path d="M552.654 397.959L360.665 409.467L360.99 411.711L552.979 400.203L552.654 397.959Z" fill="#00FFD0"/>
<path d="M360.98 342.346L360.659 344.59L552.665 355.979L552.986 353.734L360.98 342.346Z" fill="#00FFD0"/>
<path d="M552.356 311.66L360.349 277.49L361.289 275.317L553.296 309.488L552.356 311.66Z" fill="#00FFD0"/>
<path d="M552.091 267.315L360.085 210.361L361.554 208.316L553.56 265.27L552.091 267.315Z" fill="#00FFD0"/>
<path d="M361.767 141.328L359.871 143.22L551.877 222.955L553.773 221.063L361.767 141.328Z" fill="#00FFD0"/>
<path d="M551.706 178.591L359.7 76.075L361.939 74.3428L553.944 176.859L551.706 178.591Z" fill="#00FFD0"/>
<path d="M647.082 749.884V4.11621L768.526 133.131V620.869L768.269 621.139L647.082 749.884ZM650.584 12.1786V741.822L765.024 620.242V133.758L650.584 12.1786Z" fill="#00F7FF"/>
<path d="M678.001 37.2744H674.5V716.723H678.001V37.2744Z" fill="#00F7FF"/>
<path d="M701.406 62.1396H697.904V691.858H701.406V62.1396Z" fill="#00F7FF"/>
<path d="M721.624 83.6123H718.122V670.386H721.624V83.6123Z" fill="#00F7FF"/>
<path d="M739.253 102.343H735.751V651.654H739.253V102.343Z" fill="#00F7FF"/>
<path d="M754.773 118.827H751.271V635.17H754.773V118.827Z" fill="#00F7FF"/>
<path d="M765.296 575.568L647.491 678.15L650.31 679.492L768.114 576.91L765.296 575.568Z" fill="#00F7FF"/>
<path d="M765.547 531.248L647.562 610.944L650.091 612.494L768.076 532.798L765.547 531.248Z" fill="#00F7FF"/>
<path d="M765.719 486.799L647.788 543.763L649.89 545.566L767.821 488.603L765.719 486.799Z" fill="#00F7FF"/>
<path d="M766.071 442.417L648.101 476.546L649.536 478.603L767.507 444.474L766.071 442.417Z" fill="#00F7FF"/>
<path d="M649.089 411.644L648.576 409.417L766.518 398.027L767.031 400.255L649.089 411.644Z" fill="#00F7FF"/>
<path d="M766.518 355.971L648.576 344.582L649.089 342.354L767.031 353.744L766.518 355.971Z" fill="#00F7FF"/>
<path d="M649.551 275.375L648.114 277.432L766.056 311.602L767.493 309.545L649.551 275.375Z" fill="#00F7FF"/>
<path d="M649.883 208.437L647.782 210.241L765.724 267.194L767.826 265.39L649.883 208.437Z" fill="#00F7FF"/>
<path d="M650.098 141.499L647.569 143.049L765.539 222.754L768.068 221.204L650.098 141.499Z" fill="#00F7FF"/>
<path d="M650.241 74.5374L647.424 75.8809L765.366 178.397L768.183 177.054L650.241 74.5374Z" fill="#00F7FF"/>
<path d="M855.547 754V0L913.903 133.444L913.835 620.86L855.547 754ZM859.049 16.2943V737.706L910.401 620.399V133.601L859.049 16.2943Z" fill="#0099FF"/>
<path d="M871.801 37.2744H868.299V716.723H871.801V37.2744Z" fill="#0099FF"/>
<path d="M882.683 62.1396H879.181V691.858H882.683V62.1396Z" fill="#0099FF"/>
<path d="M892.088 83.6118H888.586V670.385H892.088V83.6118Z" fill="#0099FF"/>
<path d="M900.288 102.343H896.786V651.654H900.288V102.343Z" fill="#0099FF"/>
<path d="M907.505 118.827H904.003V635.17H907.505V118.827Z" fill="#0099FF"/>
<path d="M858.955 679.154L855.641 678.423L910.495 575.906L913.809 576.638L858.955 679.154Z" fill="#0099FF"/>
<path d="M910.603 531.545L855.654 611.253L858.848 612.166L913.797 532.458L910.603 531.545Z" fill="#0099FF"/>
<path d="M910.694 487.122L855.785 544.054L858.757 545.242L913.665 488.31L910.694 487.122Z" fill="#0099FF"/>
<path d="M910.962 442.631L856.063 476.771L858.488 478.387L913.388 444.248L910.962 442.631Z" fill="#0099FF"/>
<path d="M911.611 398.062L856.764 409.465L857.84 411.61L912.687 400.207L911.611 398.062Z" fill="#0099FF"/>
<path d="M857.835 342.395L856.761 344.54L911.615 355.929L912.689 353.784L857.835 342.395Z" fill="#0099FF"/>
<path d="M858.513 275.594L856.085 277.21L910.938 311.381L913.366 309.765L858.513 275.594Z" fill="#0099FF"/>
<path d="M858.785 208.745L855.812 209.932L910.666 266.886L913.639 265.699L858.785 208.745Z" fill="#0099FF"/>
<path d="M858.896 141.818L855.701 142.729L910.554 222.465L913.75 221.553L858.896 141.818Z" fill="#0099FF"/>
<path d="M910.495 178.091L855.641 75.5748L858.955 74.8433L913.809 177.36L910.495 178.091Z" fill="#0099FF"/>
<path d="M1916 748.113L1654.66 621.116V132.883L1655.36 132.545L1916 5.88672V748.113ZM1658.16 619.994L1912.5 743.592V10.407L1658.16 134.005V619.994Z" fill="#5500FF"/>
<path d="M1856.06 37.2744H1852.55V716.723H1856.06V37.2744Z" fill="#5500FF"/>
<path d="M1804.89 62.1396H1801.39V691.858H1804.89V62.1396Z" fill="#5500FF"/>
<path d="M1760.71 83.6113H1757.2V670.385H1760.71V83.6113Z" fill="#5500FF"/>
<path d="M1722.16 102.343H1718.66V651.654H1722.16V102.343Z" fill="#5500FF"/>
<path d="M1688.24 118.827H1684.74V635.17H1688.24V118.827Z" fill="#5500FF"/>
<path d="M1913.24 74.1547L1655.58 176.86L1657.43 178.78L1915.08 76.074L1913.24 74.1547Z" fill="#5500FF"/>
<path d="M1657.17 223.024L1655.65 220.994L1913.49 141.259L1915.01 143.288L1657.17 223.024Z" fill="#5500FF"/>
<path d="M1656.98 267.356L1655.85 265.228L1913.69 208.273L1914.81 210.402L1656.98 267.356Z" fill="#5500FF"/>
<path d="M1656.76 311.676L1656.06 309.471L1913.9 275.301L1914.6 277.506L1656.76 311.676Z" fill="#5500FF"/>
<path d="M1914.13 342.347L1656.29 353.728L1656.53 355.977L1914.37 344.596L1914.13 342.347Z" fill="#5500FF"/>
<path d="M1656.53 398.015L1656.29 400.265L1914.13 411.654L1914.37 409.405L1656.53 398.015Z" fill="#5500FF"/>
<path d="M1913.9 478.696L1656.06 444.527L1656.76 442.321L1914.6 476.491L1913.9 478.696Z" fill="#5500FF"/>
<path d="M1913.69 545.723L1655.85 488.769L1656.98 486.641L1914.81 543.594L1913.69 545.723Z" fill="#5500FF"/>
<path d="M1913.49 612.737L1655.65 533.002L1657.17 530.973L1915.01 610.708L1913.49 612.737Z" fill="#5500FF"/>
<path d="M1657.34 575.312L1655.49 577.232L1913.33 679.749L1915.17 677.828L1657.34 575.312Z" fill="#5500FF"/>
<path d="M1553.93 748.597L1550.93 746.645L1358.42 621.018V132.983L1358.93 132.653L1553.93 5.40283V748.597ZM1361.93 620.094L1550.43 743.109V10.8917L1361.93 133.907V620.094Z" fill="#2600FF"/>
<path d="M1509.29 37.2744H1505.79V716.723H1509.29V37.2744Z" fill="#2600FF"/>
<path d="M1471.19 62.1396H1467.69V691.858H1471.19V62.1396Z" fill="#2600FF"/>
<path d="M1438.29 83.6123H1434.78V670.386H1438.29V83.6123Z" fill="#2600FF"/>
<path d="M1409.58 102.343H1406.08V651.655H1409.58V102.343Z" fill="#2600FF"/>
<path d="M1384.32 118.827H1380.82V635.17H1384.32V118.827Z" fill="#2600FF"/>
<path d="M1361.29 178.591L1359.06 176.859L1551.06 74.3428L1553.3 76.075L1361.29 178.591Z" fill="#2600FF"/>
<path d="M1551.22 141.316L1359.24 221.076L1361.14 222.968L1553.12 143.208L1551.22 141.316Z" fill="#2600FF"/>
<path d="M1360.91 267.315L1359.44 265.27L1551.45 208.316L1552.91 210.361L1360.91 267.315Z" fill="#2600FF"/>
<path d="M1360.64 311.66L1359.7 309.488L1551.71 275.317L1552.65 277.49L1360.64 311.66Z" fill="#2600FF"/>
<path d="M1552.01 342.288L1360.02 353.793L1360.34 356.037L1552.33 344.532L1552.01 342.288Z" fill="#2600FF"/>
<path d="M1360.34 398.019L1360.01 400.263L1552.02 411.652L1552.34 409.408L1360.34 398.019Z" fill="#2600FF"/>
<path d="M1551.71 478.68L1359.7 444.51L1360.64 442.338L1552.65 476.508L1551.71 478.68Z" fill="#2600FF"/>
<path d="M1551.45 545.682L1359.44 488.727L1360.91 486.682L1552.91 543.636L1551.45 545.682Z" fill="#2600FF"/>
<path d="M1361.12 531.042L1359.23 532.935L1551.23 612.67L1553.13 610.777L1361.12 531.042Z" fill="#2600FF"/>
<path d="M1551.06 679.655L1359.06 577.138L1361.29 575.406L1553.3 677.923L1551.06 679.655Z" fill="#2600FF"/>
<path d="M1265.92 749.884L1144.47 620.869V133.131L1144.72 132.862L1265.92 4.11621V749.884ZM1147.97 620.242L1262.42 741.822V12.1786L1147.97 133.758V620.242Z" fill="#001AFF"/>
<path d="M1238.5 37.2744H1235V716.723H1238.5V37.2744Z" fill="#001AFF"/>
<path d="M1215.1 62.1396H1211.59V691.858H1215.1V62.1396Z" fill="#001AFF"/>
<path d="M1194.88 83.6123H1191.38V670.386H1194.88V83.6123Z" fill="#001AFF"/>
<path d="M1177.25 102.343H1173.75V651.654H1177.25V102.343Z" fill="#001AFF"/>
<path d="M1161.73 118.827H1158.23V635.17H1161.73V118.827Z" fill="#001AFF"/>
<path d="M1262.69 74.5041L1144.88 177.089L1147.7 178.431L1265.5 75.8459L1262.69 74.5041Z" fill="#001AFF"/>
<path d="M1262.91 141.502L1144.95 221.229L1147.47 222.78L1265.44 143.053L1262.91 141.502Z" fill="#001AFF"/>
<path d="M1263.11 208.43L1145.17 265.396L1147.27 267.2L1265.21 210.234L1263.11 208.43Z" fill="#001AFF"/>
<path d="M1263.47 275.398L1145.48 309.521L1146.92 311.578L1264.9 277.455L1263.47 275.398Z" fill="#001AFF"/>
<path d="M1146.47 355.971L1145.96 353.744L1263.91 342.354L1264.42 344.582L1146.47 355.971Z" fill="#001AFF"/>
<path d="M1263.91 411.644L1145.96 400.255L1146.47 398.027L1264.42 409.417L1263.91 411.644Z" fill="#001AFF"/>
<path d="M1146.93 442.396L1145.5 444.452L1263.45 478.622L1264.89 476.566L1146.93 442.396Z" fill="#001AFF"/>
<path d="M1147.27 486.804L1145.17 488.607L1263.12 545.562L1265.22 543.758L1147.27 486.804Z" fill="#001AFF"/>
<path d="M1147.48 531.213L1144.95 532.764L1262.9 612.499L1265.43 610.948L1147.48 531.213Z" fill="#001AFF"/>
<path d="M1147.62 575.6L1144.81 576.943L1262.76 679.46L1265.58 678.116L1147.62 575.6Z" fill="#001AFF"/>
<path d="M1057.45 754L999.088 620.555L999.157 133.14L1057.45 0V754ZM1002.59 620.399L1053.95 737.706V16.2943L1002.59 133.601V620.399Z" fill="#006AFF"/>
<path d="M1044.7 37.2744H1041.2V716.723H1044.7V37.2744Z" fill="#006AFF"/>
<path d="M1033.81 62.1396H1030.31V691.858H1033.81V62.1396Z" fill="#006AFF"/>
<path d="M1024.41 83.6118H1020.91V670.385H1024.41V83.6118Z" fill="#006AFF"/>
<path d="M1016.21 102.343H1012.71V651.654H1016.21V102.343Z" fill="#006AFF"/>
<path d="M1009 118.827H1005.49V635.17H1009V118.827Z" fill="#006AFF"/>
<path d="M1002.5 178.091L999.182 177.36L1054.04 74.8433L1057.36 75.5748L1002.5 178.091Z" fill="#006AFF"/>
<path d="M1054.16 141.832L999.188 221.537L1002.38 222.45L1057.35 142.746L1054.16 141.832Z" fill="#006AFF"/>
<path d="M1054.22 208.748L999.342 265.694L1002.31 266.882L1057.2 209.935L1054.22 208.748Z" fill="#006AFF"/>
<path d="M1054.51 275.609L999.605 309.751L1002.03 311.368L1056.93 277.225L1054.51 275.609Z" fill="#006AFF"/>
<path d="M1055.16 342.383L1000.3 353.795L1001.38 355.94L1056.23 344.528L1055.16 342.383Z" fill="#006AFF"/>
<path d="M1001.37 398.068L1000.3 400.213L1055.16 411.602L1056.24 409.457L1001.37 398.068Z" fill="#006AFF"/>
<path d="M1002.05 442.617L999.625 444.232L1054.49 478.403L1056.91 476.787L1002.05 442.617Z" fill="#006AFF"/>
<path d="M1002.33 487.111L999.353 488.298L1054.22 545.252L1057.19 544.065L1002.33 487.111Z" fill="#006AFF"/>
<path d="M1002.44 531.532L999.241 532.443L1054.1 612.178L1057.3 611.266L1002.44 531.532Z" fill="#006AFF"/>
<path d="M1054.04 679.154L999.182 576.638L1002.5 575.906L1057.36 678.423L1054.04 679.154Z" fill="#006AFF"/>
<path d="M156.043 338.6L124.723 422H108.883L77.4429 338.6H92.0829L116.803 407.96L141.643 338.6H156.043ZM205.523 422.84C197.763 422.84 190.603 421.04 184.043 417.44C177.563 413.76 172.403 408.68 168.563 402.2C164.803 395.64 162.923 388.28 162.923 380.12C162.923 371.96 164.803 364.64 168.563 358.16C172.403 351.68 177.563 346.64 184.043 343.04C190.603 339.36 197.763 337.52 205.523 337.52C213.363 337.52 220.523 339.36 227.003 343.04C233.563 346.64 238.723 351.68 242.483 358.16C246.243 364.64 248.123 371.96 248.123 380.12C248.123 388.28 246.243 395.64 242.483 402.2C238.723 408.68 233.563 413.76 227.003 417.44C220.523 421.04 213.363 422.84 205.523 422.84ZM205.523 410.96C211.043 410.96 215.963 409.72 220.283 407.24C224.603 404.68 227.963 401.08 230.363 396.44C232.843 391.72 234.083 386.28 234.083 380.12C234.083 373.96 232.843 368.56 230.363 363.92C227.963 359.28 224.603 355.72 220.283 353.24C215.963 350.76 211.043 349.52 205.523 349.52C200.003 349.52 195.083 350.76 190.763 353.24C186.443 355.72 183.043 359.28 180.563 363.92C178.163 368.56 176.963 373.96 176.963 380.12C176.963 386.28 178.163 391.72 180.563 396.44C183.043 401.08 186.443 404.68 190.763 407.24C195.083 409.72 200.003 410.96 205.523 410.96ZM257.025 380.12C257.025 371.96 258.905 364.64 262.665 358.16C266.505 351.68 271.665 346.64 278.145 343.04C284.705 339.36 291.865 337.52 299.625 337.52C308.505 337.52 316.385 339.72 323.265 344.12C330.225 348.44 335.265 354.6 338.385 362.6H321.945C319.785 358.2 316.785 354.92 312.945 352.76C309.105 350.6 304.665 349.52 299.625 349.52C294.105 349.52 289.185 350.76 284.865 353.24C280.545 355.72 277.145 359.28 274.665 363.92C272.265 368.56 271.065 373.96 271.065 380.12C271.065 386.28 272.265 391.68 274.665 396.32C277.145 400.96 280.545 404.56 284.865 407.12C289.185 409.6 294.105 410.84 299.625 410.84C304.665 410.84 309.105 409.76 312.945 407.6C316.785 405.44 319.785 402.16 321.945 397.76H338.385C335.265 405.76 330.225 411.92 323.265 416.24C316.385 420.56 308.505 422.72 299.625 422.72C291.785 422.72 284.625 420.92 278.145 417.32C271.665 413.64 266.505 408.56 262.665 402.08C258.905 395.6 257.025 388.28 257.025 380.12ZM368.077 349.64V374.12H396.877V385.28H368.077V410.84H400.477V422H354.397V338.48H400.477V349.64H368.077ZM376.837 323.48L359.677 333.8V323.12L376.837 313.16L393.997 323.12V333.8L376.837 323.48ZM517.019 422H503.339L462.179 359.72V422H448.499V338.48H462.179L503.339 400.64V338.48H517.019V422ZM573.023 422.84C565.263 422.84 558.103 421.04 551.543 417.44C545.063 413.76 539.903 408.68 536.063 402.2C532.303 395.64 530.423 388.28 530.423 380.12C530.423 371.96 532.303 364.64 536.063 358.16C539.903 351.68 545.063 346.64 551.543 343.04C558.103 339.36 565.263 337.52 573.023 337.52C580.863 337.52 588.023 339.36 594.503 343.04C601.063 346.64 606.223 351.68 609.983 358.16C613.743 364.64 615.623 371.96 615.623 380.12C615.623 388.28 613.743 395.64 609.983 402.2C606.223 408.68 601.063 413.76 594.503 417.44C588.023 421.04 580.863 422.84 573.023 422.84ZM573.023 410.96C578.543 410.96 583.463 409.72 587.783 407.24C592.103 404.68 595.463 401.08 597.863 396.44C600.343 391.72 601.583 386.28 601.583 380.12C601.583 373.96 600.343 368.56 597.863 363.92C595.463 359.28 592.103 355.72 587.783 353.24C583.463 350.76 578.543 349.52 573.023 349.52C567.503 349.52 562.583 350.76 558.263 353.24C553.943 355.72 550.543 359.28 548.063 363.92C545.663 368.56 544.463 373.96 544.463 380.12C544.463 386.28 545.663 391.72 548.063 396.44C550.543 401.08 553.943 404.68 558.263 407.24C562.583 409.72 567.503 410.96 573.023 410.96ZM655.697 380.12C655.697 371.96 657.577 364.64 661.337 358.16C665.177 351.68 670.337 346.64 676.817 343.04C683.377 339.36 690.537 337.52 698.297 337.52C707.177 337.52 715.057 339.72 721.937 344.12C728.897 348.44 733.937 354.6 737.057 362.6H720.617C718.457 358.2 715.457 354.92 711.617 352.76C707.777 350.6 703.337 349.52 698.297 349.52C692.777 349.52 687.857 350.76 683.537 353.24C679.217 355.72 675.817 359.28 673.337 363.92C670.937 368.56 669.737 373.96 669.737 380.12C669.737 386.28 670.937 391.68 673.337 396.32C675.817 400.96 679.217 404.56 683.537 407.12C687.857 409.6 692.777 410.84 698.297 410.84C703.337 410.84 707.777 409.76 711.617 407.6C715.457 405.44 718.457 402.16 720.617 397.76H737.057C733.937 405.76 728.897 411.92 721.937 416.24C715.057 420.56 707.177 422.72 698.297 422.72C690.457 422.72 683.297 420.92 676.817 417.32C670.337 413.64 665.177 408.56 661.337 402.08C657.577 395.6 655.697 388.28 655.697 380.12ZM791.109 422.84C783.349 422.84 776.189 421.04 769.629 417.44C763.149 413.76 757.989 408.68 754.149 402.2C750.389 395.64 748.509 388.28 748.509 380.12C748.509 371.96 750.389 364.64 754.149 358.16C757.989 351.68 763.149 346.64 769.629 343.04C776.189 339.36 783.349 337.52 791.109 337.52C798.949 337.52 806.109 339.36 812.589 343.04C819.149 346.64 824.309 351.68 828.069 358.16C831.829 364.64 833.709 371.96 833.709 380.12C833.709 388.28 831.829 395.64 828.069 402.2C824.309 408.68 819.149 413.76 812.589 417.44C806.109 421.04 798.949 422.84 791.109 422.84ZM791.109 410.96C796.629 410.96 801.549 409.72 805.869 407.24C810.189 404.68 813.549 401.08 815.949 396.44C818.429 391.72 819.669 386.28 819.669 380.12C819.669 373.96 818.429 368.56 815.949 363.92C813.549 359.28 810.189 355.72 805.869 353.24C801.549 350.76 796.629 349.52 791.109 349.52C785.589 349.52 780.669 350.76 776.349 353.24C772.029 355.72 768.629 359.28 766.149 363.92C763.749 368.56 762.549 373.96 762.549 380.12C762.549 386.28 763.749 391.72 766.149 396.44C768.629 401.08 772.029 404.68 776.349 407.24C780.669 409.72 785.589 410.96 791.109 410.96ZM915.691 422H902.011L860.851 359.72V422H847.171V338.48H860.851L902.011 400.64V338.48H915.691V422ZM987.535 338.6V349.76H965.335V422H951.655V349.76H929.335V338.6H987.535ZM1044.71 422L1025.51 388.64H1015.07V422H1001.39V338.6H1030.19C1036.59 338.6 1041.99 339.72 1046.39 341.96C1050.87 344.2 1054.19 347.2 1056.35 350.96C1058.59 354.72 1059.71 358.92 1059.71 363.56C1059.71 369 1058.11 373.96 1054.91 378.44C1051.79 382.84 1046.95 385.84 1040.39 387.44L1061.03 422H1044.71ZM1015.07 377.72H1030.19C1035.31 377.72 1039.15 376.44 1041.71 373.88C1044.35 371.32 1045.67 367.88 1045.67 363.56C1045.67 359.24 1044.39 355.88 1041.83 353.48C1039.27 351 1035.39 349.76 1030.19 349.76H1015.07V377.72ZM1115.25 422.84C1107.49 422.84 1100.33 421.04 1093.77 417.44C1087.29 413.76 1082.13 408.68 1078.29 402.2C1074.53 395.64 1072.65 388.28 1072.65 380.12C1072.65 371.96 1074.53 364.64 1078.29 358.16C1082.13 351.68 1087.29 346.64 1093.77 343.04C1100.33 339.36 1107.49 337.52 1115.25 337.52C1123.09 337.52 1130.25 339.36 1136.73 343.04C1143.29 346.64 1148.45 351.68 1152.21 358.16C1155.97 364.64 1157.85 371.96 1157.85 380.12C1157.85 388.28 1155.97 395.64 1152.21 402.2C1148.45 408.68 1143.29 413.76 1136.73 417.44C1130.25 421.04 1123.09 422.84 1115.25 422.84ZM1115.25 410.96C1120.77 410.96 1125.69 409.72 1130.01 407.24C1134.33 404.68 1137.69 401.08 1140.09 396.44C1142.57 391.72 1143.81 386.28 1143.81 380.12C1143.81 373.96 1142.57 368.56 1140.09 363.92C1137.69 359.28 1134.33 355.72 1130.01 353.24C1125.69 350.76 1120.77 349.52 1115.25 349.52C1109.73 349.52 1104.81 350.76 1100.49 353.24C1096.17 355.72 1092.77 359.28 1090.29 363.92C1087.89 368.56 1086.69 373.96 1086.69 380.12C1086.69 386.28 1087.89 391.72 1090.29 396.44C1092.77 401.08 1096.17 404.68 1100.49 407.24C1104.81 409.72 1109.73 410.96 1115.25 410.96ZM1184.99 410.96H1213.19V422H1171.31V338.6H1184.99V410.96ZM1238.31 349.64V374.12H1267.11V385.28H1238.31V410.84H1270.71V422H1224.63V338.48H1270.71V349.64H1238.31ZM1345.97 338.6C1354.85 338.6 1362.61 340.32 1369.25 343.76C1375.97 347.12 1381.13 352 1384.73 358.4C1388.41 364.72 1390.25 372.12 1390.25 380.6C1390.25 389.08 1388.41 396.44 1384.73 402.68C1381.13 408.92 1375.97 413.72 1369.25 417.08C1362.61 420.36 1354.85 422 1345.97 422H1318.73V338.6H1345.97ZM1345.97 410.84C1355.73 410.84 1363.21 408.2 1368.41 402.92C1373.61 397.64 1376.21 390.2 1376.21 380.6C1376.21 370.92 1373.61 363.36 1368.41 357.92C1363.21 352.48 1355.73 349.76 1345.97 349.76H1332.41V410.84H1345.97ZM1417.49 349.64V374.12H1446.29V385.28H1417.49V410.84H1449.89V422H1403.81V338.48H1449.89V349.64H1417.49ZM1551.79 338.6V349.76H1529.59V422H1515.91V349.76H1493.59V338.6H1551.79ZM1579.21 338.6V391.76C1579.21 398.08 1580.85 402.84 1584.13 406.04C1587.49 409.24 1592.13 410.84 1598.05 410.84C1604.05 410.84 1608.69 409.24 1611.97 406.04C1615.33 402.84 1617.01 398.08 1617.01 391.76V338.6H1630.69V391.52C1630.69 398.32 1629.21 404.08 1626.25 408.8C1623.29 413.52 1619.33 417.04 1614.37 419.36C1609.41 421.68 1603.93 422.84 1597.93 422.84C1591.93 422.84 1586.45 421.68 1581.49 419.36C1576.61 417.04 1572.73 413.52 1569.85 408.8C1566.97 404.08 1565.53 398.32 1565.53 391.52V338.6H1579.21ZM1675.74 338.6C1684.62 338.6 1692.38 340.32 1699.02 343.76C1705.74 347.12 1710.9 352 1714.5 358.4C1718.18 364.72 1720.02 372.12 1720.02 380.6C1720.02 389.08 1718.18 396.44 1714.5 402.68C1710.9 408.92 1705.74 413.72 1699.02 417.08C1692.38 420.36 1684.62 422 1675.74 422H1648.5V338.6H1675.74ZM1675.74 410.84C1685.5 410.84 1692.98 408.2 1698.18 402.92C1703.38 397.64 1705.98 390.2 1705.98 380.6C1705.98 370.92 1703.38 363.36 1698.18 357.92C1692.98 352.48 1685.5 349.76 1675.74 349.76H1662.18V410.84H1675.74ZM1771.62 422.84C1763.86 422.84 1756.7 421.04 1750.14 417.44C1743.66 413.76 1738.5 408.68 1734.66 402.2C1730.9 395.64 1729.02 388.28 1729.02 380.12C1729.02 371.96 1730.9 364.64 1734.66 358.16C1738.5 351.68 1743.66 346.64 1750.14 343.04C1756.7 339.36 1763.86 337.52 1771.62 337.52C1779.46 337.52 1786.62 339.36 1793.1 343.04C1799.66 346.64 1804.82 351.68 1808.58 358.16C1812.34 364.64 1814.22 371.96 1814.22 380.12C1814.22 388.28 1812.34 395.64 1808.58 402.2C1804.82 408.68 1799.66 413.76 1793.1 417.44C1786.62 421.04 1779.46 422.84 1771.62 422.84ZM1771.62 410.96C1777.14 410.96 1782.06 409.72 1786.38 407.24C1790.7 404.68 1794.06 401.08 1796.46 396.44C1798.94 391.72 1800.18 386.28 1800.18 380.12C1800.18 373.96 1798.94 368.56 1796.46 363.92C1794.06 359.28 1790.7 355.72 1786.38 353.24C1782.06 350.76 1777.14 349.52 1771.62 349.52C1766.1 349.52 1761.18 350.76 1756.86 353.24C1752.54 355.72 1749.14 359.28 1746.66 363.92C1744.26 368.56 1743.06 373.96 1743.06 380.12C1743.06 386.28 1744.26 391.72 1746.66 396.44C1749.14 401.08 1752.54 404.68 1756.86 407.24C1761.18 409.72 1766.1 410.96 1771.62 410.96Z" fill="white"/>
</svg>
