<svg width="710" height="500" viewBox="0 0 710 500" fill="none" xmlns="http://www.w3.org/2000/svg">
<rect width="709.488" height="498.943" rx="9.26842" fill="url(#paint0_linear_429_455)"/>
<path d="M43.2213 59.348H39.3981V42.271H44.5722L48.5738 50.682L50.1796 54.6837H50.46L52.0147 50.682L55.8889 42.271H61.0885V59.348H57.2653V50.682L57.3927 48.0058H57.1124L56.1183 50.682L52.55 58.3285H47.9111L44.3428 50.682L43.3488 48.0058H43.0684L43.2213 50.682V59.348ZM69.874 59.6029C65.6175 59.6029 62.7118 57.5129 62.7118 52.976C62.7118 48.8979 65.592 46.3236 69.7975 46.3236C73.9776 46.3236 76.7558 48.5156 76.7558 52.5172C76.7558 52.976 76.7048 53.3073 76.6538 53.7406H66.2547C66.3566 55.7032 67.2742 56.5443 69.7465 56.5443C72.015 56.5443 72.8051 55.9581 72.8051 54.8621V54.6072H76.6283V54.8876C76.6283 57.6658 73.9266 59.6029 69.874 59.6029ZM69.7211 49.3057C67.4526 49.3057 66.4841 50.0703 66.3056 51.7271H73.0855C72.9835 50.0448 71.964 49.3057 69.7211 49.3057ZM83.6531 59.6029C80.0593 59.6029 78.3516 57.3854 78.3516 54.5308V46.5784H82.1748V53.2564C82.1748 55.3209 83.0414 56.1875 85.4628 56.1875C87.9606 56.1875 88.8527 55.2189 88.8527 53.0524V46.5784H92.6759V59.348H89.1076V55.4483H88.9037C88.5723 57.5893 87.0176 59.6029 83.6531 59.6029ZM104.273 59.6029C100.297 59.6029 98.1047 57.0031 98.1047 52.976C98.1047 48.8979 100.271 46.3236 104.069 46.3236C107.102 46.3236 108.657 47.8274 109.09 49.9684H109.32V42.271H113.143V59.348H109.574V55.8052H109.37C108.886 58.3285 107.204 59.6029 104.273 59.6029ZM101.979 52.976C101.979 55.2954 103.126 56.111 105.573 56.111C107.994 56.111 109.32 55.2699 109.32 53.0524V52.8485C109.32 50.6311 108.02 49.8154 105.573 49.8154C103.126 49.8154 101.979 50.6311 101.979 52.976ZM118.989 45.2786H115.166V42.271H118.989V45.2786ZM118.989 59.348H115.166V46.5784H118.989V59.348ZM124.813 59.348H120.99V46.5784H124.533V50.5036H124.762C125.094 48.3626 126.623 46.3236 129.962 46.3236C133.454 46.3236 135.111 48.5665 135.111 51.3957V59.348H131.287V52.6701C131.287 50.6311 130.446 49.7645 128.101 49.7645C125.68 49.7645 124.813 50.733 124.813 52.8995V59.348ZM140.868 59.348H137.045V42.271H140.868V50.4781H141.072C141.48 48.3116 142.983 46.3236 146.246 46.3236C149.687 46.3236 151.369 48.5665 151.369 51.5232V59.348H147.546V52.6701C147.546 50.5291 146.628 49.7645 144.232 49.7645C141.658 49.7645 140.868 50.8095 140.868 52.9505V59.348ZM160.078 59.6029C155.822 59.6029 152.916 57.5129 152.916 52.976C152.916 48.8979 155.796 46.3236 160.002 46.3236C164.182 46.3236 166.96 48.5156 166.96 52.5172C166.96 52.976 166.909 53.3073 166.858 53.7406H156.459C156.561 55.7032 157.478 56.5443 159.951 56.5443C162.219 56.5443 163.009 55.9581 163.009 54.8621V54.6072H166.833V54.8876C166.833 57.6658 164.131 59.6029 160.078 59.6029ZM159.925 49.3057C157.657 49.3057 156.688 50.0703 156.51 51.7271H163.29C163.188 50.0448 162.168 49.3057 159.925 49.3057ZM172.405 45.2786H168.581V42.271H172.405V45.2786ZM172.405 59.348H168.581V46.5784H172.405V59.348ZM178.229 59.348H174.406V46.5784H177.949V49.9684H178.178C178.535 47.9038 179.886 46.3236 182.46 46.3236C185.315 46.3236 186.487 48.2862 186.487 50.784V52.8995H182.664V51.5741C182.664 50.1723 182.103 49.5606 180.548 49.5606C178.841 49.5606 178.229 50.3507 178.229 51.9565V59.348ZM194.677 59.6029C190.319 59.6029 187.387 57.0031 187.387 52.976C187.387 48.8979 190.319 46.3236 194.677 46.3236C199.035 46.3236 201.967 48.8979 201.967 52.976C201.967 57.0031 199.035 59.6029 194.677 59.6029ZM194.677 56.213C197.251 56.213 198.169 55.2189 198.169 52.976C198.169 50.733 197.251 49.688 194.677 49.688C192.077 49.688 191.185 50.733 191.185 52.976C191.185 55.2189 192.077 56.213 194.677 56.213Z" fill="#FEFEFE"/>
<path d="M41.0008 124.3H39.8492V113.432H41.4225L45.072 120.52L46.0289 122.532H46.11L47.0508 120.52L50.684 113.432H52.2735V124.3H51.1219V116.644L51.1544 115.184H51.0571L50.3758 116.644L46.7588 123.651H45.3639L41.7469 116.644L41.0495 115.184H40.9684L41.0008 116.644V124.3ZM58.4147 124.462C55.8033 124.462 54.0678 122.726 54.0678 120.293C54.0678 117.86 55.8033 116.125 58.4147 116.125C61.0423 116.125 62.7778 117.86 62.7778 120.293C62.7778 122.726 61.0423 124.462 58.4147 124.462ZM58.4147 123.424C60.6206 123.424 61.6424 122.24 61.6424 120.293C61.6424 118.363 60.6206 117.163 58.4147 117.163C56.2088 117.163 55.2032 118.363 55.2032 120.293C55.2032 122.24 56.2088 123.424 58.4147 123.424ZM69.0277 124.3H67.6166L63.7887 116.287H65.0377L68.2816 123.164H68.3789L71.6066 116.287H72.8556L69.0277 124.3ZM75.4338 115.265H74.2822V113.432H75.4338V115.265ZM75.4338 124.3H74.2822V116.287H75.4338V124.3ZM78.8122 124.3H77.6606V116.287H78.6987V118.704H78.7635C78.9906 117.358 79.9151 116.125 81.9102 116.125C83.6943 116.125 84.7 117.228 84.9595 118.785H85.0406C85.2677 117.406 86.2246 116.125 88.2359 116.125C90.3282 116.125 91.4149 117.601 91.4149 119.628V124.3H90.2633V119.791C90.2633 118.006 89.501 117.179 87.8142 117.179C85.884 117.179 85.1055 118.298 85.1055 120.423V124.3H83.9539V119.791C83.9539 118.006 83.2077 117.179 81.5209 117.179C79.5745 117.179 78.8122 118.298 78.8122 120.423V124.3ZM97.3956 124.462C94.8166 124.462 93.1784 122.84 93.1784 120.293C93.1784 117.86 94.8004 116.125 97.3793 116.125C99.7312 116.125 101.402 117.487 101.402 119.872C101.402 120.164 101.369 120.407 101.321 120.618H94.2651C94.33 122.418 95.2545 123.505 97.3793 123.505C99.2608 123.505 100.137 122.807 100.137 121.64V121.526H101.288V121.64C101.288 123.31 99.6339 124.462 97.3956 124.462ZM97.3631 117.082C95.287 117.082 94.3462 118.152 94.2651 119.904H100.315C100.315 119.823 100.315 119.742 100.315 119.661C100.315 117.974 99.2446 117.082 97.3631 117.082ZM104.371 124.3H103.219V116.287H104.257V118.801H104.338C104.614 117.439 105.749 116.125 107.744 116.125C109.999 116.125 111.118 117.731 111.118 119.628V124.3H109.966V119.791C109.966 118.136 109.172 117.179 107.339 117.179C105.392 117.179 104.371 118.363 104.371 120.423V124.3ZM118.196 124.3H116.461C114.871 124.3 113.849 123.635 113.849 121.753V117.277H112.422V116.287H113.849V114.373H115.017V116.287H118.196V117.277H115.017V121.818C115.017 122.937 115.569 123.245 116.736 123.245H118.196V124.3ZM121.971 124.462C120.397 124.462 119.327 123.716 119.327 122.418C119.327 121.104 120.414 120.537 121.906 120.375L125.718 119.953V119.336C125.718 117.779 125.036 117.163 123.285 117.163C121.565 117.163 120.657 117.779 120.657 119.19V119.255H119.505V119.19C119.505 117.504 120.9 116.125 123.366 116.125C125.799 116.125 126.837 117.52 126.837 119.288V124.3H125.799V122.142H125.718C125.247 123.618 123.836 124.462 121.971 124.462ZM120.479 122.337C120.479 123.148 121.014 123.57 122.23 123.57C124.177 123.57 125.718 122.71 125.718 120.78V120.715L122.263 121.104C121.062 121.218 120.479 121.51 120.479 122.337ZM133.804 127.609H132.523V126.879H133.804C134.112 126.879 134.372 126.798 134.372 126.424C134.372 126.019 134.112 125.954 133.804 125.954H132.669V124.462C130.203 124.381 128.614 122.661 128.614 120.293C128.614 117.86 130.284 116.125 132.847 116.125C135.086 116.125 136.837 117.455 136.837 119.385V119.515H135.702V119.418C135.702 117.99 134.664 117.179 132.831 117.179C130.69 117.179 129.765 118.331 129.765 120.293C129.765 122.256 130.69 123.408 132.831 123.408C134.664 123.408 135.702 122.597 135.702 121.169V121.072H136.837V121.202C136.837 122.97 135.361 124.235 133.399 124.429V125.224H133.804C134.664 125.224 135.167 125.695 135.167 126.408C135.167 127.154 134.664 127.609 133.804 127.609ZM140.714 114.925H139.903V114.341C139.903 113.643 140.195 113.076 141.038 113.076C141.492 113.076 141.833 113.286 142.206 113.546L142.563 113.789C142.806 113.984 143.033 114.13 143.325 114.13C143.585 114.13 143.812 114 143.812 113.514V113.108H144.607V113.676C144.607 114.438 144.25 114.973 143.536 114.973C143.05 114.973 142.693 114.746 142.336 114.487L141.93 114.243C141.687 114.049 141.476 113.903 141.2 113.903C140.925 113.903 140.714 114.049 140.714 114.471V114.925ZM140.892 124.462C139.319 124.462 138.248 123.716 138.248 122.418C138.248 121.104 139.335 120.537 140.827 120.375L144.639 119.953V119.336C144.639 117.779 143.958 117.163 142.206 117.163C140.487 117.163 139.578 117.779 139.578 119.19V119.255H138.427V119.19C138.427 117.504 139.822 116.125 142.287 116.125C144.72 116.125 145.758 117.52 145.758 119.288V124.3H144.72V122.142H144.639C144.169 123.618 142.758 124.462 140.892 124.462ZM139.4 122.337C139.4 123.148 139.935 123.57 141.152 123.57C143.098 123.57 144.639 122.71 144.639 120.78V120.715L141.184 121.104C139.984 121.218 139.4 121.51 139.4 122.337ZM151.866 124.462C149.255 124.462 147.519 122.726 147.519 120.293C147.519 117.86 149.255 116.125 151.866 116.125C154.494 116.125 156.229 117.86 156.229 120.293C156.229 122.726 154.494 124.462 151.866 124.462ZM151.866 123.424C154.072 123.424 155.094 122.24 155.094 120.293C155.094 118.363 154.072 117.163 151.866 117.163C149.66 117.163 148.655 118.363 148.655 120.293C148.655 122.24 149.66 123.424 151.866 123.424ZM166.233 124.3H164.498C162.908 124.3 161.886 123.635 161.886 121.753V117.277H160.459V116.287H161.886V114.373H163.054V116.287H166.233V117.277H163.054V121.818C163.054 122.937 163.606 123.245 164.773 123.245H166.233V124.3ZM171.711 124.462C169.099 124.462 167.364 122.726 167.364 120.293C167.364 117.86 169.099 116.125 171.711 116.125C174.338 116.125 176.074 117.86 176.074 120.293C176.074 122.726 174.338 124.462 171.711 124.462ZM171.711 123.424C173.917 123.424 174.939 122.24 174.939 120.293C174.939 118.363 173.917 117.163 171.711 117.163C169.505 117.163 168.499 118.363 168.499 120.293C168.499 122.24 169.505 123.424 171.711 123.424ZM182.81 124.3H181.075C179.485 124.3 178.463 123.635 178.463 121.753V117.277H177.036V116.287H178.463V114.373H179.631V116.287H182.81V117.277H179.631V121.818C179.631 122.937 180.183 123.245 181.351 123.245H182.81V124.3ZM186.585 124.462C185.012 124.462 183.941 123.716 183.941 122.418C183.941 121.104 185.028 120.537 186.52 120.375L190.332 119.953V119.336C190.332 117.779 189.651 117.163 187.899 117.163C186.179 117.163 185.271 117.779 185.271 119.19V119.255H184.12V119.19C184.12 117.504 185.514 116.125 187.98 116.125C190.413 116.125 191.451 117.52 191.451 119.288V124.3H190.413V122.142H190.332C189.861 123.618 188.45 124.462 186.585 124.462ZM185.093 122.337C185.093 123.148 185.628 123.57 186.844 123.57C188.791 123.57 190.332 122.71 190.332 120.78V120.715L186.877 121.104C185.677 121.218 185.093 121.51 185.093 122.337ZM194.785 124.3H193.634V113.432H194.785V124.3Z" fill="#F6F6F6"/>
<path d="M43.7188 166.172H39.8956V149.095H49.3262C53.5317 149.095 55.9276 150.956 55.9276 154.218C55.9276 156.996 54.3219 158.653 51.1104 158.959V159.163C52.6396 159.571 53.2259 160.386 53.8631 161.584L56.3354 166.172H51.9005L49.5556 161.737C48.8674 160.412 48.2302 159.978 46.2421 159.978H43.7188V166.172ZM43.7188 152.536V157.098H49.3007C51.1104 157.098 51.926 156.588 51.926 154.804C51.926 153.122 51.1104 152.536 49.3007 152.536H43.7188ZM67.0757 168.721H63.5074V166.325C59.4547 165.892 57.2118 163.904 57.2118 160.412V160.259H61.035V160.718C61.035 162.298 61.8251 162.935 65.2915 162.935C68.3501 162.935 69.0638 162.476 69.0638 161.329C69.0638 160.284 68.4776 159.902 66.7189 159.596L61.9271 158.908C58.8685 158.424 57.0589 156.894 57.0589 154.116C57.0589 151.771 58.8175 149.299 63.5074 148.891V146.546H67.0757V148.993C70.8225 149.605 72.5812 151.797 72.5812 154.855V155.008H68.7324V154.651C68.7324 153.02 67.8913 152.332 64.5014 152.332C61.7487 152.332 60.9076 152.867 60.9076 153.963C60.9076 154.957 61.4683 155.314 62.8956 155.569L67.6874 156.334C71.5106 156.945 72.887 158.806 72.887 161.151C72.887 163.598 71.2048 165.841 67.0757 166.325V168.721ZM93.1089 166.172H77.9434V163.725C77.9434 160.718 79.2433 159.163 82.8371 157.965L87.2211 156.537C88.7504 156.002 89.3111 155.492 89.3111 154.371C89.3111 153.071 88.5975 152.332 85.7938 152.332C82.6587 152.332 81.7157 153.275 81.7157 155.161V155.492H77.9689V155.161C77.9689 151.848 80.2374 148.84 85.9212 148.84C91.0698 148.84 93.1599 151.185 93.1599 154.422C93.1599 157.455 91.1718 158.959 88.1387 159.8L84.4174 160.819C82.7607 161.329 81.9706 161.814 81.9706 163.164L86.431 162.731H93.1089V166.172ZM102.732 166.427C97.3795 166.427 94.5758 164.617 94.5758 160.87V160.641H98.5265V160.87C98.5265 162.323 99.546 162.935 102.783 162.935C105.714 162.935 106.606 162.247 106.606 160.386C106.606 158.5 105.714 157.812 102.809 157.812C100.464 157.812 99.1892 158.092 98.5775 158.984L98.2971 158.959V158.984L94.7033 158.882L95.6718 149.095H109.741V152.536H99.0618L98.5265 156.996L98.7559 157.022C99.3676 156.028 101.177 154.779 104.363 154.779C108.569 154.779 110.659 156.818 110.659 160.335C110.659 164.031 108.161 166.427 102.732 166.427ZM117.166 166.172H112.247V161.712H117.166V166.172ZM126.825 166.427C122.135 166.427 119.153 164.184 119.153 160.692V160.488H123.409V160.692C123.409 162.17 124.352 162.757 126.825 162.757C129.832 162.757 131.03 161.737 131.03 158.22V157.098H130.75C130.036 158.5 128.201 159.647 125.142 159.647C120.937 159.647 118.592 157.939 118.592 154.447C118.592 151.032 121.268 148.84 126.34 148.84C132.559 148.84 135.108 151.542 135.108 157.532C135.108 163.521 131.82 166.427 126.825 166.427ZM126.544 156.996C129.73 156.996 130.724 156.283 130.724 154.728C130.724 153.249 129.705 152.51 126.544 152.51C123.511 152.51 122.594 153.224 122.594 154.728C122.594 156.308 123.486 156.996 126.544 156.996ZM145.051 166.427C139.546 166.427 136.513 162.96 136.513 157.633C136.513 152.332 139.546 148.84 145.051 148.84C150.531 148.84 153.59 152.332 153.59 157.633C153.59 162.96 150.531 166.427 145.051 166.427ZM145.051 162.706C148.288 162.706 149.486 161.304 149.486 157.633C149.486 153.963 148.288 152.561 145.051 152.561C141.789 152.561 140.616 153.963 140.616 157.633C140.616 161.304 141.789 162.706 145.051 162.706ZM162.657 166.172H158.834V153.836H154.45V151.21H155.164C157.05 151.21 158.324 150.777 159.165 149.095H162.657V166.172ZM165.947 169.766H164.596V167.395H165.845C166.355 167.395 166.61 167.268 166.61 166.605V166.172H164.443V161.712H169.362V166.58C169.362 168.721 168.113 169.766 165.947 169.766ZM179.097 166.427C173.744 166.427 170.941 164.617 170.941 160.87V160.641H174.891V160.87C174.891 162.323 175.911 162.935 179.148 162.935C182.079 162.935 182.971 162.247 182.971 160.386C182.971 158.5 182.079 157.812 179.173 157.812C176.829 157.812 175.554 158.092 174.942 158.984L174.662 158.959V158.984L171.068 158.882L172.037 149.095H186.106V152.536H175.427L174.891 156.996L175.121 157.022C175.733 156.028 177.542 154.779 180.728 154.779C184.934 154.779 187.024 156.818 187.024 160.335C187.024 164.031 184.526 166.427 179.097 166.427ZM197.023 166.427C191.518 166.427 188.485 162.96 188.485 157.633C188.485 152.332 191.518 148.84 197.023 148.84C202.503 148.84 205.562 152.332 205.562 157.633C205.562 162.96 202.503 166.427 197.023 166.427ZM197.023 162.706C200.26 162.706 201.458 161.304 201.458 157.633C201.458 153.963 200.26 152.561 197.023 152.561C193.761 152.561 192.588 153.963 192.588 157.633C192.588 161.304 193.761 162.706 197.023 162.706Z" fill="#FEFEFE"/>
<path d="M41.0201 209.108H38.9347V199.793H44.0787C46.3726 199.793 47.6794 200.808 47.6794 202.587C47.6794 204.103 46.8036 205.007 45.0518 205.173V205.285C45.886 205.507 46.2058 205.952 46.5533 206.605L47.9019 209.108H45.4828L44.2038 206.689C43.8284 205.966 43.4808 205.729 42.3964 205.729H41.0201V209.108ZM41.0201 201.67V204.158H44.0647C45.0518 204.158 45.4967 203.88 45.4967 202.907C45.4967 201.99 45.0518 201.67 44.0647 201.67H41.0201ZM53.8761 210.498H51.9297V209.191C49.7192 208.955 48.4957 207.87 48.4957 205.966V205.882H50.5811V206.133C50.5811 206.995 51.0121 207.342 52.9029 207.342C54.5712 207.342 54.9605 207.092 54.9605 206.466C54.9605 205.896 54.6407 205.688 53.6814 205.521L51.0677 205.146C49.3994 204.881 48.4123 204.047 48.4123 202.532C48.4123 201.253 49.3716 199.904 51.9297 199.682V198.403H53.8761V199.737C55.9198 200.071 56.879 201.267 56.879 202.935V203.018H54.7797V202.824C54.7797 201.934 54.3209 201.559 52.4719 201.559C50.9704 201.559 50.5116 201.851 50.5116 202.448C50.5116 202.991 50.8175 203.185 51.596 203.324L54.2097 203.741C56.2951 204.075 57.0459 205.09 57.0459 206.369C57.0459 207.704 56.1283 208.927 53.8761 209.191V210.498ZM64.3315 209.108H62.2461V202.379H59.8549V200.947H60.2442C61.273 200.947 61.9681 200.711 62.4269 199.793H64.3315V209.108ZM68.1048 209.108H65.4216V206.675H68.1048V209.108ZM73.5304 209.247C70.6109 209.247 69.0816 208.26 69.0816 206.216V206.091H71.2365V206.216C71.2365 207.008 71.7926 207.342 73.5583 207.342C75.1571 207.342 75.6436 206.967 75.6436 205.952C75.6436 204.923 75.1571 204.548 73.5722 204.548C72.2931 204.548 71.598 204.701 71.2643 205.187L71.1114 205.173V205.187L69.1511 205.132L69.6794 199.793H77.3537V201.67H71.5285L71.2365 204.103L71.3616 204.117C71.6953 203.575 72.6824 202.893 74.4202 202.893C76.7142 202.893 77.8542 204.006 77.8542 205.924C77.8542 207.94 76.4917 209.247 73.5304 209.247ZM87.0111 209.108H78.739V207.773C78.739 206.133 79.448 205.285 81.4083 204.631L83.7996 203.853C84.6337 203.561 84.9396 203.283 84.9396 202.671C84.9396 201.962 84.5503 201.559 83.021 201.559C81.311 201.559 80.7966 202.073 80.7966 203.102V203.283H78.7529V203.102C78.7529 201.295 79.9902 199.654 83.0905 199.654C85.8989 199.654 87.0389 200.933 87.0389 202.699C87.0389 204.353 85.9545 205.173 84.3001 205.632L82.2703 206.188C81.3666 206.466 80.9356 206.73 80.9356 207.467L83.3686 207.231H87.0111V209.108ZM92.0979 209.108H90.0125V202.379H87.6212V200.947H88.0105C89.0393 200.947 89.7344 200.711 90.1932 199.793H92.0979V209.108ZM94.0082 211.068H93.2713V209.775H93.9526C94.2306 209.775 94.3696 209.706 94.3696 209.344V209.108H93.1879V206.675H95.8711V209.33C95.8711 210.498 95.1899 211.068 94.0082 211.068ZM101.255 209.247C98.697 209.247 97.0704 208.023 97.0704 206.119V206.007H99.3921V206.119C99.3921 206.925 99.9065 207.245 101.255 207.245C102.896 207.245 103.549 206.689 103.549 204.77V204.158H103.396C103.007 204.923 102.006 205.549 100.338 205.549C98.0436 205.549 96.7645 204.617 96.7645 202.713C96.7645 200.85 98.2243 199.654 100.991 199.654C104.383 199.654 105.773 201.128 105.773 204.395C105.773 207.662 103.98 209.247 101.255 209.247ZM101.102 204.103C102.84 204.103 103.382 203.714 103.382 202.866C103.382 202.059 102.826 201.656 101.102 201.656C99.4478 201.656 98.9473 202.045 98.9473 202.866C98.9473 203.727 99.4338 204.103 101.102 204.103ZM110.59 209.108H108.185C108.185 204.923 110.576 203.074 112.328 201.823V201.67H106.447V199.793H114.496V201.475C111.911 203.922 110.59 205.604 110.59 209.108Z" fill="#FEFEFE"/>
<g opacity="0.8" filter="url(#filter0_d_429_455)">
<rect x="272.132" y="147.974" width="100.43" height="28.6342" rx="11.5855" fill="#2A4037"/>
<path d="M285.071 160.261C285.53 159.573 286.54 159.573 286.999 160.261L289.468 163.965C289.982 164.735 289.43 165.766 288.504 165.766H283.566C282.64 165.766 282.088 164.735 282.602 163.965L285.071 160.261Z" fill="#07F8B5"/>
<path d="M300.688 167.291H298.255V159.44H295.466V157.77H295.92C297.12 157.77 297.931 157.494 298.466 156.424H300.688V167.291ZM306.839 167.291H304.406V159.44H301.616V157.77H302.07C303.271 157.77 304.082 157.494 304.617 156.424H306.839V167.291ZM313.444 167.453C309.94 167.453 308.01 165.247 308.01 161.857C308.01 158.483 309.94 156.261 313.444 156.261C316.931 156.261 318.878 158.483 318.878 161.857C318.878 165.247 316.931 167.453 313.444 167.453ZM313.444 165.085C315.504 165.085 316.266 164.193 316.266 161.857C316.266 159.522 315.504 158.629 313.444 158.629C311.368 158.629 310.622 159.522 310.622 161.857C310.622 164.193 311.368 165.085 313.444 165.085ZM322.477 161.663C320.676 161.663 319.622 160.576 319.622 158.954C319.622 157.332 320.676 156.229 322.477 156.229C324.293 156.229 325.347 157.332 325.347 158.954C325.347 160.576 324.293 161.663 322.477 161.663ZM322.541 167.291H320.19L329.419 156.424H331.77L322.541 167.291ZM322.477 160.073C323.336 160.073 323.612 159.765 323.612 158.954C323.612 158.143 323.336 157.818 322.477 157.818C321.633 157.818 321.357 158.143 321.357 158.954C321.357 159.765 321.633 160.073 322.477 160.073ZM329.467 167.469C327.667 167.469 326.596 166.382 326.596 164.76C326.596 163.139 327.667 162.052 329.467 162.052C331.268 162.052 332.338 163.139 332.338 164.76C332.338 166.382 331.268 167.469 329.467 167.469ZM329.467 165.88C330.311 165.88 330.603 165.571 330.603 164.76C330.603 163.95 330.311 163.625 329.467 163.625C328.624 163.625 328.332 163.95 328.332 164.76C328.332 165.571 328.624 165.88 329.467 165.88Z" fill="#07F8B5"/>
</g>
<path d="M7.04789 499.983L2.13214 499.905H11.6724C16.9652 499.541 24.2959 497.897 31.6266 491.089C41.4581 481.959 51.2896 463.54 61.1211 455.994C70.9526 448.448 80.7841 451.774 90.6156 447.866C100.447 443.957 110.279 432.813 120.11 428.975C129.942 425.138 139.773 428.607 149.605 424.913C159.436 421.219 169.268 410.361 179.099 410.428C188.931 410.496 198.762 421.488 208.594 420.679C218.425 419.87 228.257 407.26 238.088 400.563C247.92 393.866 257.751 393.083 267.583 394.854C277.414 396.626 287.246 400.953 297.077 401.03C306.909 401.108 316.74 396.935 326.572 393.872C336.403 390.809 346.235 388.855 356.066 381.974C365.898 375.093 375.729 363.284 385.561 359.839C395.392 356.394 405.224 361.313 415.055 358.763C424.887 356.214 434.718 346.196 444.55 335.345C454.381 324.495 464.213 312.811 474.044 311.488C483.876 310.165 493.707 319.204 503.539 320.573C513.37 321.941 523.202 315.639 533.033 314.579C542.865 313.518 552.696 317.699 562.527 310.663C572.359 303.626 582.19 285.372 592.022 274.06C601.854 262.747 611.685 258.376 621.517 254.723C631.348 251.07 641.18 248.135 651.011 245.568C660.842 243 670.674 240.801 680.505 241.183C690.337 241.564 700.168 244.527 705.084 246.008L710 247.489V499.905H11.6724C9.86676 500.029 8.29829 500.003 7.04789 499.983Z" fill="url(#paint1_linear_429_455)"/>
<g opacity="0.4">
<path d="M346.838 440.232H345.851V432.821H343.654V432.071H344.141C345.169 432.071 345.67 431.793 346.031 430.917H346.838V440.232ZM349.477 440.232H348.49V430.917H349.477V435.088H355.469V430.917H356.456V440.232H355.469V435.991H349.477V440.232Z" fill="#FEFEFE"/>
<path d="M407.997 440.232H406.996V438.257H401.032V437.534L406.829 430.917H407.997V437.354H409.735V438.257H407.997V440.232ZM402.394 437.354H406.996V432.112H406.926L402.394 437.27V437.354ZM411.9 440.232H410.913V430.917H411.9V435.088H417.892V430.917H418.88V440.232H417.892V435.991H411.9V440.232Z" fill="#FEFEFE"/>
<path d="M466.218 440.232H465.231V432.821H463.035V432.071H463.521C464.55 432.071 465.051 431.793 465.412 430.917H466.218V440.232ZM471.944 440.232H467.899V430.917H471.944C474.739 430.917 476.518 432.724 476.518 435.574C476.518 438.424 474.739 440.232 471.944 440.232ZM471.944 431.82H468.9V439.328H471.944C474.308 439.328 475.476 438.104 475.476 435.574C475.476 433.044 474.308 431.82 471.944 431.82Z" fill="#FEFEFE"/>
<path d="M523.537 440.245H522.439C522.439 435.824 524.455 433.544 526.47 431.89V431.82H520.2V430.917H527.597V431.723C524.844 434.142 523.537 436.408 523.537 440.245ZM532.613 440.232H528.567V430.917H532.613C535.407 430.917 537.187 432.724 537.187 435.574C537.187 438.424 535.407 440.232 532.613 440.232ZM532.613 431.82H529.568V439.328H532.613C534.976 439.328 536.144 438.104 536.144 435.574C536.144 433.044 534.976 431.82 532.613 431.82Z" fill="#FEFEFE"/>
</g>
<path d="M268.982 440.371C266.174 440.371 264.978 439.022 264.978 437.27V437.048H266.007V437.229C266.007 438.688 266.716 439.425 268.954 439.425C271.04 439.425 271.874 438.855 271.874 437.534C271.874 436.353 271.054 435.797 269.636 435.797H267.119V434.949H269.427C270.831 434.949 271.596 434.434 271.596 433.378C271.596 432.265 270.915 431.723 268.913 431.723C266.785 431.723 266.007 432.46 266.007 433.92V434.045H264.978V433.878C264.978 432.154 266.215 430.778 268.982 430.778C271.262 430.778 272.583 431.681 272.583 433.225C272.583 434.267 271.971 435.046 270.803 435.254V435.352C272.124 435.602 272.875 436.408 272.875 437.646C272.875 439.384 271.387 440.371 268.982 440.371ZM278.127 440.371C275.471 440.371 273.803 438.577 273.803 435.574C273.803 432.585 275.471 430.778 278.127 430.778C280.768 430.778 282.437 432.585 282.437 435.574C282.437 438.577 280.768 440.371 278.127 440.371ZM278.127 439.425C280.282 439.425 281.394 438.174 281.394 435.574C281.394 432.974 280.282 431.723 278.127 431.723C275.958 431.723 274.846 432.974 274.846 435.574C274.846 438.174 275.958 439.425 278.127 439.425ZM284.75 440.232H283.763V433.364H284.653V435.435H284.708C284.903 434.281 285.695 433.225 287.405 433.225C288.935 433.225 289.797 434.17 290.019 435.505H290.089C290.283 434.323 291.104 433.225 292.828 433.225C294.621 433.225 295.552 434.49 295.552 436.228V440.232H294.565V436.367C294.565 434.837 293.912 434.128 292.466 434.128C290.812 434.128 290.144 435.088 290.144 436.909V440.232H289.157V436.367C289.157 434.837 288.518 434.128 287.072 434.128C285.404 434.128 284.75 435.088 284.75 436.909V440.232Z" fill="#FEFEFE"/>
<path d="M39.1859 350.451H409.093" stroke="#767676" stroke-width="1.15855" stroke-linecap="round" stroke-linejoin="round" stroke-dasharray="8.11"/>
<path d="M39.1859 296.801H604.135" stroke="#767676" stroke-width="1.15855" stroke-linecap="round" stroke-linejoin="round" stroke-dasharray="8.11"/>
<path d="M39.1859 404.101H195.556" stroke="#767676" stroke-width="1.15855" stroke-linecap="round" stroke-linejoin="round" stroke-dasharray="8.11"/>
<ellipse opacity="0.4" cx="656.033" cy="241.424" rx="50.2149" ry="41.5786" fill="url(#paint2_radial_429_455)"/>
<path d="M668.991 236.059C668.991 240.733 664.289 245.051 657.77 245.051C651.252 245.051 646.549 240.733 646.549 236.059C646.549 231.386 651.252 227.067 657.77 227.067C664.289 227.067 668.991 231.386 668.991 236.059Z" fill="#89B9FF" stroke="#181818" stroke-width="3.47566"/>
<path d="M519.967 167.535C519.967 162.417 524.117 158.267 529.236 158.267H648.385C653.503 158.267 657.653 162.417 657.653 167.535V218.623H529.236C524.117 218.623 519.967 214.473 519.967 209.355V167.535Z" fill="white"/>
<line x1="656.613" y1="209.234" x2="656.613" y2="229.353" stroke="#89B9FF" stroke-width="1.15855"/>
<path d="M542.623 204.226H541.472V193.359H546.792C549.062 193.359 550.603 194.511 550.603 196.506C550.603 198.339 549.257 199.474 547.246 199.523V199.604C547.959 199.798 548.365 200.269 548.738 200.901L550.782 204.226H549.452L547.522 201.08C546.97 200.171 546.402 199.782 544.959 199.782H542.623V204.226ZM542.623 194.413V198.858H546.775C548.495 198.858 549.403 198.176 549.403 196.635C549.403 195.095 548.495 194.413 546.775 194.413H542.623ZM556.914 205.848H555.844V204.356C553.184 204.129 551.935 202.685 551.935 200.788V200.69H553.103V200.901C553.103 202.458 554.076 203.302 556.623 203.302C558.796 203.302 559.785 202.702 559.785 201.469C559.785 200.252 559.055 199.815 557.466 199.49L555.163 199.052C553.395 198.712 551.984 197.965 551.984 196.165C551.984 194.77 553.103 193.375 555.844 193.213V191.737H556.914V193.213C559.591 193.408 560.791 194.949 560.791 196.798V196.895H559.623V196.7C559.623 195.127 558.65 194.284 556.282 194.284C554.125 194.284 553.152 194.9 553.152 196.084C553.152 197.317 553.865 197.69 555.471 198.03L557.758 198.485C559.704 198.858 560.953 199.685 560.953 201.372C560.953 202.88 559.721 204.291 556.914 204.389V205.848ZM570.254 204.389C567.286 204.389 565.453 203.35 565.453 201.274C565.453 199.928 566.394 198.89 568.178 198.533V198.42C566.605 198.209 565.745 197.252 565.745 196.019C565.745 194.348 567.286 193.197 570.254 193.197C573.239 193.197 574.763 194.348 574.763 196.019C574.763 197.252 573.904 198.209 572.331 198.42V198.533C574.147 198.89 575.055 199.928 575.055 201.274C575.055 203.35 573.206 204.389 570.254 204.389ZM570.254 198.144C572.558 198.144 573.612 197.511 573.612 196.23C573.612 195.03 572.801 194.3 570.254 194.3C567.724 194.3 566.897 195.03 566.897 196.23C566.897 197.511 567.951 198.144 570.254 198.144ZM570.254 203.286C572.833 203.286 573.888 202.637 573.888 201.096C573.888 199.685 572.801 198.971 570.254 198.971C567.708 198.971 566.621 199.685 566.621 201.096C566.621 202.637 567.659 203.286 570.254 203.286ZM577.673 204.226H576.246V201.972H577.673V204.226ZM582.512 204.243H581.23C581.23 199.085 583.582 196.425 585.934 194.494V194.413H578.619V193.359H587.248V194.3C584.036 197.122 582.512 199.766 582.512 204.243ZM592.887 204.389C589.919 204.389 588.086 203.35 588.086 201.274C588.086 199.928 589.027 198.89 590.811 198.533V198.42C589.237 198.209 588.378 197.252 588.378 196.019C588.378 194.348 589.919 193.197 592.887 193.197C595.871 193.197 597.396 194.348 597.396 196.019C597.396 197.252 596.536 198.209 594.963 198.42V198.533C596.78 198.89 597.688 199.928 597.688 201.274C597.688 203.35 595.839 204.389 592.887 204.389ZM592.887 198.144C595.19 198.144 596.244 197.511 596.244 196.23C596.244 195.03 595.433 194.3 592.887 194.3C590.357 194.3 589.529 195.03 589.529 196.23C589.529 197.511 590.584 198.144 592.887 198.144ZM592.887 203.286C595.466 203.286 596.52 202.637 596.52 201.096C596.52 199.685 595.433 198.971 592.887 198.971C590.34 198.971 589.254 199.685 589.254 201.096C589.254 202.637 590.292 203.286 592.887 203.286ZM604.004 204.389C600.906 204.389 598.96 202.296 598.96 198.793C598.96 195.305 600.906 193.197 604.004 193.197C607.086 193.197 609.032 195.305 609.032 198.793C609.032 202.296 607.086 204.389 604.004 204.389ZM604.004 203.286C606.518 203.286 607.816 201.826 607.816 198.793C607.816 195.76 606.518 194.3 604.004 194.3C601.474 194.3 600.176 195.76 600.176 198.793C600.176 201.826 601.474 203.286 604.004 203.286ZM610.707 205.654H610.367V204.956H610.691C610.902 204.956 611.015 204.908 611.015 204.616V204.226H610.383V201.972H611.81V204.599C611.81 205.313 611.388 205.654 610.707 205.654ZM618.205 204.389C615.107 204.389 613.161 202.296 613.161 198.793C613.161 195.305 615.107 193.197 618.205 193.197C621.287 193.197 623.234 195.305 623.234 198.793C623.234 202.296 621.287 204.389 618.205 204.389ZM618.205 203.286C620.72 203.286 622.017 201.826 622.017 198.793C622.017 195.76 620.72 194.3 618.205 194.3C615.675 194.3 614.378 195.76 614.378 198.793C614.378 201.826 615.675 203.286 618.205 203.286ZM627.974 204.226H626.822V195.581H624.26V194.705H624.827C626.028 194.705 626.612 194.381 627.033 193.359H627.974V204.226Z" fill="#181818"/>
<path d="M543.15 181.973H541.998V171.106H546.994C549.346 171.106 551 172.452 551 174.772C551 177.107 549.346 178.453 546.994 178.453H543.15V181.973ZM546.896 172.16H543.15V177.399H546.896C548.81 177.399 549.832 176.621 549.832 174.772C549.832 172.955 548.81 172.16 546.896 172.16ZM553.688 172.939H552.536V171.106H553.688V172.939ZM553.688 181.973H552.536V173.961H553.688V181.973ZM559.742 182.135C557.179 182.135 555.509 180.4 555.509 177.967C555.509 175.534 557.179 173.798 559.742 173.798C561.98 173.798 563.732 175.128 563.732 177.059V177.188H562.597V177.091C562.597 175.664 561.559 174.853 559.726 174.853C557.585 174.853 556.66 176.004 556.66 177.967C556.66 179.929 557.585 181.081 559.726 181.081C561.559 181.081 562.597 180.27 562.597 178.843V178.745H563.732V178.875C563.732 180.805 561.98 182.135 559.742 182.135ZM569.49 182.135C566.879 182.135 565.143 180.4 565.143 177.967C565.143 175.534 566.879 173.798 569.49 173.798C572.118 173.798 573.853 175.534 573.853 177.967C573.853 180.4 572.118 182.135 569.49 182.135ZM569.49 181.097C571.696 181.097 572.718 179.913 572.718 177.967C572.718 176.037 571.696 174.836 569.49 174.836C567.284 174.836 566.279 176.037 566.279 177.967C566.279 179.913 567.284 181.097 569.49 181.097Z" fill="#181818"/>
<defs>
<filter id="filter0_d_429_455" x="244.327" y="129.437" width="156.04" height="84.2447" filterUnits="userSpaceOnUse" color-interpolation-filters="sRGB">
<feFlood flood-opacity="0" result="BackgroundImageFix"/>
<feColorMatrix in="SourceAlpha" type="matrix" values="0 0 0 0 0 0 0 0 0 0 0 0 0 0 0 0 0 0 127 0" result="hardAlpha"/>
<feOffset dy="9.26842"/>
<feGaussianBlur stdDeviation="13.9026"/>
<feColorMatrix type="matrix" values="0 0 0 0 0.964706 0 0 0 0 0.109804 0 0 0 0 0.478431 0 0 0 0.01 0"/>
<feBlend mode="normal" in2="BackgroundImageFix" result="effect1_dropShadow_429_455"/>
<feBlend mode="normal" in="SourceGraphic" in2="effect1_dropShadow_429_455" result="shape"/>
</filter>
<linearGradient id="paint0_linear_429_455" x1="354.744" y1="0" x2="354.744" y2="498.943" gradientUnits="userSpaceOnUse">
<stop/>
<stop offset="1" stop-color="#111111" stop-opacity="0.5"/>
</linearGradient>
<linearGradient id="paint1_linear_429_455" x1="400.421" y1="190.265" x2="395.554" y2="500.035" gradientUnits="userSpaceOnUse">
<stop stop-color="#37FF00"/>
<stop offset="1"/>
</linearGradient>
<radialGradient id="paint2_radial_429_455" cx="0" cy="0" r="1" gradientUnits="userSpaceOnUse" gradientTransform="translate(656.033 241.424) rotate(23.7666) scale(64.1045 57.0327)">
<stop stop-color="#D0F5A1"/>
<stop offset="0.723902" stop-color="#7CFE15" stop-opacity="0.1"/>
</radialGradient>
</defs>
</svg>
