<svg width="150" height="58" viewBox="0 0 150 58" fill="none" xmlns="http://www.w3.org/2000/svg">
<mask id="mask0_4_318" style="mask-type:luminance" maskUnits="userSpaceOnUse" x="0" y="0" width="150" height="58">
<path d="M0 0H150V57.3144H0V0Z" fill="white"/>
</mask>
<g mask="url(#mask0_4_318)">
<path d="M73.489 50.9471C73.8668 50.6065 74.3536 50.5244 74.9494 50.6986L73.489 50.9471ZM73.4092 49.8599C73.7881 49.5193 74.2749 49.4372 74.8707 49.6115L73.4092 49.8599ZM73.3305 48.7728C73.7082 48.4321 74.195 48.349 74.7909 48.5243L73.3305 48.7728ZM73.2417 47.5507C73.6194 47.2101 74.1062 47.1269 74.7021 47.3023L73.2417 47.5507ZM74.9854 45.8857L74.2333 46.3388C73.1394 46.8919 69.725 47.852 69.6193 47.6126C69.4552 47.2382 73.4013 46.4838 74.0005 45.6463C72.186 45.5102 70.268 45.4057 68.549 45.7553C66.8301 46.1049 65.8576 46.7244 64.9132 48.2601C65.2437 48.2748 66.2511 48.0836 66.305 48.3692C66.359 48.6536 65.3404 48.7301 64.9773 48.8774C64.9773 48.9819 64.9773 49.1045 64.9683 49.2382C64.9593 49.3642 66.1656 48.9043 66.1982 49.281C66.2241 49.58 65.002 49.6272 65.0436 49.7464C65.1077 49.9285 65.0953 50.1185 65.1909 50.2411C65.2932 50.3726 66.3196 49.897 66.3624 50.2062C66.3927 50.421 65.2797 50.6244 65.2943 50.6953C65.3179 50.8077 65.3393 50.9707 65.3865 51.1821C65.4146 51.3091 66.2162 50.8718 66.2758 51.1416C66.3545 51.5014 65.4956 51.5789 65.5012 51.6812C65.527 52.1163 65.4944 52.5604 65.6102 53.0315C67.3776 52.7189 69.4192 52.195 71.0764 51.9409C72.7324 51.6869 73.9781 51.6509 75.3946 51.7296C76.81 51.8072 78.2615 52.0298 79.7837 52.3423C79.7983 52.1838 79.8152 52.0253 79.8275 51.8679C79.8579 51.5036 77.9804 51.4924 77.9928 51.3046C78.0051 51.1169 78.5279 51.2102 79.8601 51.4103C79.859 51.2372 79.859 51.0314 79.8568 50.8909C79.8534 50.7155 77.8309 50.6211 77.8219 50.3636C77.8151 50.1534 79.8478 50.4884 79.8444 50.3659C79.8354 49.9589 79.8365 49.9162 79.832 49.6924C78.7044 49.616 77.642 49.652 77.6465 49.4563C77.651 49.2349 78.3143 49.3181 79.8084 49.2281C79.7983 48.9887 79.7466 48.8054 79.7016 48.5761C77.3632 48.666 77.2665 48.838 77.2305 48.6109C77.2002 48.4277 79.6443 48.2601 79.6004 48.0488C79.5836 47.969 79.3677 47.7216 79.1136 47.4462C79.0361 47.3619 76.7224 48.1578 76.6437 47.9993C76.5166 47.7475 78.9248 47.191 78.8348 47.0853C78.5436 46.7379 78.2423 46.3871 78.0276 46.2095C77.1383 45.6181 76.1625 45.5158 74.9854 45.8857ZM62.6141 41.084C63.1684 40.9806 64.2072 40.5275 64.2881 40.8075C64.3691 41.0874 63.4551 41.3066 62.8873 41.7653C63.4584 41.9542 64.5501 41.2549 64.6591 41.5652C64.7682 41.8766 63.8227 42.1408 63.3988 42.3893C63.4551 42.5242 63.536 42.5613 63.6046 42.6636C63.7541 42.8873 64.8592 41.9497 64.9762 42.2229C65.0818 42.4714 64.3601 42.7299 64.0543 43.1392C64.0543 43.1392 64.2701 43.3876 64.4556 43.3876C64.9975 43.391 65.5248 42.7772 65.6147 42.8626C65.8553 43.0908 65.3483 43.4112 65.21 43.6822C66.7064 44.2657 68.0206 44.4624 68.7357 44.5153C69.4507 44.567 70.2691 44.4894 71.7498 44.5006C71.3945 43.6856 70.9763 43.038 70.7649 42.414C70.4018 41.346 70.3546 39.3246 70.6772 37.872C70.7852 37.383 70.9954 36.8715 71.1494 36.2497C69.8959 36.8152 62.4702 39.9856 62.6141 41.084ZM61.9182 38.2487C63.8901 38.6972 66.2915 36.8389 67.9745 35.845C67.7519 35.7067 61.6664 35.6089 61.9182 38.2487ZM67.264 32.615C68.1083 32.7522 69.6935 32.9343 70.0128 31.9596C69.1966 32.2002 67.7148 32.1968 67.264 32.615ZM66.6884 31.4357C67.6159 32.09 68.8391 31.7955 69.8543 31.5211C69.3 31.1861 67.5012 31.4672 66.8424 31.4492C66.7806 31.4481 66.7277 31.4436 66.6884 31.4357ZM73.4958 31.5436C74.43 31.5819 75.6656 31.7482 76.3098 30.9084C75.778 30.9905 73.7498 31.1884 73.4958 31.5436ZM61.9002 35.1693C63.3617 34.9748 64.7952 34.6027 66.1847 34.153C65.9104 33.547 65.5203 32.995 65.3359 32.352C65.0133 31.3424 64.7749 30.2721 64.0846 29.4357C62.0913 30.38 61.9958 34.4588 61.9002 35.1693ZM78.2907 29.4548C79.0304 29.5267 79.9164 29.5357 80.429 28.9005C79.9321 28.914 78.348 28.8005 78.2907 29.4548ZM78.7291 22.8014C78.0186 23.5097 78.6336 24.6486 79.3272 25.0331C81.3183 25.7369 83.4735 25.5626 85.5264 25.9595C85.324 26.5789 84.7034 26.8791 84.2931 27.3412C85.107 27.6436 84.9339 28.2855 84.3819 28.588C83.9164 28.842 82.836 28.2012 82.5876 28.751C82.2481 29.5031 83.9558 29.2468 84.2998 29.3693C84.645 29.493 84.7495 29.7223 84.4235 29.801C84.0963 29.8809 83.2914 29.7077 82.745 29.8213C82.6281 29.846 82.8799 30.1878 82.9912 30.2361C83.3138 30.3789 83.7714 30.3665 83.8254 30.8016C83.5544 30.8443 83.0249 30.6465 83.0137 30.9197C82.9844 31.5931 83.3273 32.3171 83.9153 32.7421C84.3819 33.1873 85.0497 33.4391 85.3375 34.0507C84.6989 33.9091 84.1199 33.4357 83.4409 33.5628C83.5679 34.2452 83.5364 35.2716 83.3937 35.6359C83.2509 36.0013 83.1306 36.3903 83.0665 35.7438C83.0024 35.0974 83.2655 33.0254 82.2076 32.1552C80.0366 31.5897 77.9118 32.6353 76.0579 33.6572C74.7392 34.3509 73.5857 35.3099 72.3558 36.1452C72.6526 37.573 73.0921 38.7388 74.5469 40.0036C74.7999 40.333 74.3142 40.5421 74.0916 40.2914C73.0933 39.2099 72.5705 37.8271 71.8633 36.5769C71.245 37.5438 70.9932 38.6781 70.9246 39.8361C70.8099 41.7518 71.6542 43.7575 73.2124 44.7682C73.6082 45.02 74.9595 45.3539 74.5739 45.0043C72.7751 43.3708 72.3917 42.9863 72.5525 42.8435C72.6649 42.7457 74.2794 44.2567 75.5025 44.8694C75.9826 45.11 76.3187 45.2651 76.0523 45.0065C74.4783 43.4832 73.4182 42.7974 73.507 42.6243C73.5981 42.4455 76.7718 44.9031 77.0844 44.8177C77.3306 44.6288 74.2524 42.4815 74.4109 42.2353C74.7054 41.9924 77.5015 44.5715 77.7027 44.4827C78.0186 44.2128 75.127 42.0149 75.2867 41.8036C75.5958 41.6878 78.5571 44.1611 78.7696 43.9666C79.0496 43.7092 76.1479 41.4831 76.3221 41.3629C76.6808 41.1133 79.0855 43.7732 79.4891 43.5743C79.6375 43.2685 77.1653 41.1504 77.3789 41.0357C77.5723 40.8468 79.4048 42.3859 80.4178 43.0593C79.5566 42.0621 78.1322 40.6332 78.2941 40.4803C78.4919 40.3139 80.3784 41.8654 81.4217 42.5579C81.8253 42.1138 78.9371 40.0396 79.18 39.8192C79.4532 39.4651 82.1098 41.9475 82.2548 41.7912C82.8259 41.1751 79.7994 39.5697 79.995 39.3606C80.3053 39.0278 82.9642 40.9502 83.062 40.8524C83.207 40.7074 80.836 38.9772 81.0035 38.7445C81.2216 38.442 83.9648 40.2465 84.0705 40.1205C84.2065 39.9575 81.9018 38.4375 82.0457 38.2408C82.2615 37.9474 82.8079 38.8355 84.5854 39.1582C83.994 38.6343 82.6348 37.8282 82.8091 37.5887C82.9608 37.4066 84.1638 38.1891 84.8833 38.3611C84.546 37.8327 83.4712 37.3054 83.7051 37.0289C83.8141 36.7804 84.7956 37.4403 85.342 37.6461C85.1464 37.3807 84.6629 36.9681 84.7473 36.849C84.8867 36.65 85.5061 37.0783 85.6703 36.9176C86.0559 36.5364 86.0267 35.8653 86.4044 35.4661C87.0329 34.8006 86.8294 35.3088 86.6259 34.3914C86.5596 34.0923 87.6164 34.2081 87.4275 33.9563C87.17 33.6111 86.0402 34.1317 86.1616 33.6966C86.3111 33.1637 87.7322 33.3649 87.4601 32.7466C87.3072 32.4003 86.455 33.1086 86.328 32.7511C86.2043 32.4014 87.1149 32.3745 87.1532 32.0057C87.1835 31.7235 86.3313 31.7584 86.4606 31.5077C86.8148 30.8252 88.7608 30.8207 88.2021 30.0146C87.8974 29.5762 86.9946 31.0804 86.7215 30.6217C86.3786 30.045 87.9795 29.7842 87.975 29.131C87.9716 28.7319 86.9081 29.6526 86.7889 29.2749C86.6383 28.8005 87.5174 28.5318 87.6343 28.045C87.6703 27.8898 87.0655 28.0776 87.0115 27.9292C86.8665 27.5289 86.8462 27.0466 87.016 26.6565C87.2892 26.0202 88.011 25.6188 88.1358 24.8993C88.2156 24.3057 88.2493 23.6795 88.0717 23.1027C87.785 22.5091 87.0306 22.5462 86.482 22.4091C85.4274 22.2528 84.3661 21.9414 83.2947 22.0325C82.6022 22.0909 83.0452 23.3737 82.4437 23.775C81.75 24.2382 79.4768 23.078 78.7291 22.8014ZM65.8227 29.8393C65.8385 30.271 66.0543 30.8016 66.54 30.859C67.6553 31.0995 68.8886 31.0816 69.9296 30.5689C70.1983 30.1091 70.0072 24.0392 69.969 23.2084C69.9296 22.7396 69.8914 22.2517 69.6643 21.829C69.1842 21.341 68.4771 21.3163 67.8284 21.368C64.6423 21.6221 65.6721 27.7864 65.8227 29.8393ZM79.2306 21.1589C79.0147 21.3972 78.7932 21.6333 78.6201 21.9065C78.6493 22.3101 79.1058 22.3461 79.3958 22.4968C80.0659 22.7317 80.7483 22.9982 81.4656 23.0229C81.976 22.9229 82.0558 22.3439 82.1694 21.9279C81.8354 21.829 79.3542 21.0206 79.2306 21.1589ZM71.1269 22.1089C70.9684 23.7368 71.0854 25.3737 71.055 27.0039C71.1022 28.1169 71.0044 29.2355 71.1258 30.3441C72.702 30.9916 73.1562 31.221 75.0326 30.5565C75.3879 30.4441 75.8567 30.4149 75.9466 29.9697C74.5784 30.0731 73.1101 30.9017 71.7914 30.1226C72.8336 29.9 73.9612 29.9978 74.9359 29.5188C75.3103 29.339 75.3845 28.8971 75.398 28.525C75.4508 27.4086 75.7341 21.6929 74.946 20.952C74.3153 20.3573 72.3659 20.4236 71.6835 21.0004C71.3754 21.2612 71.1663 21.6243 71.1269 22.1089ZM76.3738 27.9224C77.0776 27.9348 77.8039 28.0483 78.4874 27.9775C79.1698 27.9055 79.7185 27.5379 80.266 27.186C79.4925 26.4856 78.601 25.8482 78.149 24.8757C77.7971 23.8672 77.5397 22.6868 78.0827 21.6974C78.3233 21.2376 78.6561 20.671 79.2373 20.6395C80.0164 20.7137 80.7652 20.9993 81.5589 20.9948C81.3936 20.5215 81.3543 19.9166 80.9136 19.6086C80.1907 19.3961 79.4183 19.3826 78.6763 19.4624C75.4081 19.6805 76.3761 25.7549 76.3738 27.9224ZM82.9001 21.3961C84.0772 21.368 85.2386 21.585 86.4078 21.6929C86.3774 21.3658 86.3493 21.0364 86.2909 20.7148C86.1942 19.7952 85.1835 19.395 84.41 19.1769C83.8546 18.9801 83.324 19.2319 82.8709 19.5434C82.4167 19.8537 82.7911 20.9363 82.9001 21.3961ZM135.398 -0.000648421C135.823 0.712128 108.78 12.9575 106.598 13.9603L107.039 10.7191L92.5766 16.373L97.6132 18.4191C94.6688 19.7682 91.5569 21.0836 88.6687 22.5046C88.8283 22.834 88.979 23.1713 89.1948 23.4715L106.222 20.0504L102.551 17.1138L118.243 14.1537L116.593 17.9941L133.159 14.7226L129.705 12.1536L148.618 9.39585L132.816 12.9609L136.013 15.4016L114.046 19.9863L115.878 15.9772L105.713 17.7614L109.507 20.7812C107.624 21.2781 89.1768 25.0061 89.1903 25.3771C89.1498 26.489 89.4028 27.5908 89.3601 28.706C89.2825 30.0686 89.5602 31.4548 89.2083 32.7938C89.025 33.7213 88.599 34.5791 88.4236 35.5077L100.763 38.8018L98.9826 40.3105L111.274 43.6777L110.271 41.2347L126.322 45.5394L123.692 46.8739L150 54.6583L119.942 47.1842L122.99 45.7103L113.329 43.2145L113.707 45.6024L111.041 44.9458L95.2512 41.0042L97.6548 39.3392L88.1054 36.7489C87.3578 36.8962 86.7979 37.5696 86.627 38.3004L98.1596 44.4253L93.4827 46.3455L95.6581 47.6699L107.29 53.4418L106.392 48.3152L123.156 57.2407L108.373 50.9853L109.157 56.0613L90.2617 46.4984L95.1972 44.2286C92.9757 43.1032 88.1324 40.2611 85.939 39.6798C85.3746 41.0908 84.437 42.2971 83.759 43.6462C83.2194 44.6513 82.0288 45.1313 81.5285 46.1589C81.6724 46.9661 82.5595 54.2749 82.2672 54.6807C81.1013 56.3019 66.1364 56.6549 63.8508 54.3986C63.7046 54.2547 63.6102 54.0748 63.6214 53.8353C63.5225 50.9707 63.409 48.2264 63.2707 45.3652C63.2673 44.9582 61.3572 41.6833 61.0716 41.2549L54.3497 44.6423L58.9063 46.4141L39.6839 56.3593L40.6676 51.426L27.9208 57.3149L42.7845 48.7784L41.7098 53.9118L55.5516 46.8739L50.8544 45.0897C53.9034 43.4079 57.7854 41.5641 60.6309 39.6877C60.4803 38.9929 60.3364 38.2948 60.2397 37.5887L51.2164 39.7855L54.2587 41.3302L34.5573 46.5086L36.2965 43.6631L25.8376 46.4197L30.3087 47.8014L6.60948 53.8724L25.2507 47.788L21.0797 46.4557L39.3713 41.5191L37.5478 44.4422L49.8741 40.8727L47.2501 39.5157C51.6245 38.1688 56.153 37.2796 60.4454 35.8102C60.7748 34.6117 61.1368 32.5914 61.5551 30.6307C61.9216 28.9163 62.3612 27.2524 62.6141 26.0753L38.8418 21.3568L43.6401 18.1212L32.9991 16.4101L36.2155 20.9194L11.6518 16.0379L15.5383 13.6725L0 9.80733L19.1067 12.8282L15.0369 15.432L32.8967 18.726L29.4284 14.4707L46.9398 17.1352L42.4315 20.4405L62.9233 24.3709L50.8533 18.5563L56.4082 16.672L41.6862 10.908L42.9262 15.1071L13.1909 0.707631L40.3213 12.1132L39.3488 8.44586L60.4533 16.7811L54.9006 18.825L64.6276 23.0004C65.2033 21.8593 66.3781 20.3776 67.6643 20.1921C68.9504 20.0054 69.4338 20.5113 70.3096 20.6114C72.1242 19.07 73.8701 18.925 75.8342 19.911C76.4379 19.6502 76.6976 19.2409 77.4261 18.7665C78.1535 18.2909 79.6319 18.1639 80.7449 18.337C81.1856 18.3932 81.5398 18.6844 81.9063 18.9104C82.6618 18.6395 82.9957 18.0706 84.1559 18.0807C85.3161 18.0919 86.4055 18.6709 87.1082 19.5063C87.5646 20.0481 87.821 20.6418 88.0863 21.2511L93.9155 18.3382C92.3191 17.703 90.6294 17.3567 89.0374 16.708L109.206 8.21539L108.684 11.496C111 10.6044 135.36 -0.0658551 135.398 -0.000648421Z" fill="#D11F26"/>
</g>
<path d="M143.629 16.6052C143.629 16.3017 143.503 16.151 143.251 16.151H142.834V17.9667H143.251C143.503 17.9667 143.629 17.8408 143.629 17.589V16.6052ZM145.18 20.8054H143.288V20.6919C143.465 20.6166 143.554 20.3895 143.554 20.0106H143.667L143.326 18.838H142.834V20.0106H142.986C142.986 20.3895 143.061 20.6166 143.213 20.6919V20.8054H141.358V20.6919C141.51 20.6166 141.586 20.3895 141.586 20.0106H141.737V16.151H141.586C141.586 15.7722 141.51 15.5451 141.358 15.4697V15.3562H144.272C144.272 15.7339 144.487 15.9487 144.916 15.9993V16.0746C144.764 16.151 144.689 16.3399 144.689 16.6423V17.5507C144.689 17.879 144.764 18.0555 144.916 18.0803V18.1949C144.613 18.2444 144.387 18.3456 144.234 18.4962L144.726 20.0106H144.878C144.878 20.3895 144.978 20.6166 145.18 20.6919V20.8054ZM146.656 18.1185C146.656 17.1854 146.321 16.3838 145.654 15.716C144.986 15.047 144.184 14.712 143.251 14.712C142.267 14.712 141.44 15.0403 140.772 15.6968C140.104 16.3523 139.769 17.1719 139.769 18.1567C139.769 18.6356 139.864 19.0831 140.053 19.5002C140.243 19.9162 140.494 20.2759 140.81 20.5783C141.125 20.8808 141.491 21.1214 141.908 21.2967C142.324 21.4744 142.759 21.5621 143.213 21.5621C144.172 21.5621 144.986 21.2282 145.654 20.5592C146.321 19.8903 146.656 19.0763 146.656 18.1185ZM147.451 18.1185C147.451 18.6986 147.338 19.2472 147.111 19.7644C146.884 20.2815 146.581 20.729 146.202 21.1079C145.825 21.4867 145.376 21.7892 144.859 22.0163C144.342 22.2434 143.805 22.3569 143.251 22.3569C142.039 22.3569 141.031 21.9533 140.223 21.1461C139.416 20.3389 139.013 19.3417 139.013 18.1567C139.013 17.5507 139.119 16.9897 139.333 16.4726C139.548 15.9554 139.845 15.508 140.223 15.1291C140.601 14.7502 141.05 14.4545 141.567 14.2398C142.084 14.0251 142.645 13.9183 143.251 13.9183C143.805 13.9183 144.342 14.0318 144.859 14.2589C145.376 14.486 145.825 14.7884 146.202 15.1662C146.581 15.5451 146.884 15.9925 147.111 16.5108C147.338 17.0268 147.451 17.5631 147.451 18.1185ZM136.015 40.2235L137.257 41.8953L137.213 38.6316L136.015 40.2235ZM130.983 39.3646L135.673 40.011L136.837 38.4326L133.083 37.9064L130.983 39.3646ZM128.806 24.0793L128.833 40.7935L130.165 39.1308L130.088 25.6993L128.806 24.0793ZM129.016 23.3901L130.233 24.7583L131.831 23.1124L129.016 23.3901ZM132.628 22.5649L132.707 37.4669L137.696 38.1268L137.605 42.9757L128.356 41.4017L128.374 23.045L132.628 22.5649ZM54.6713 34.3459L53.7763 35.2004L57.193 34.8058L57.7315 34.1009L54.6713 34.3459ZM54.5116 30.2458L53.7955 31.0238L56.4611 30.8979L57.1154 30.2166L54.5116 30.2458ZM52.0034 26.8618L52.0045 36.3887L52.995 34.7743L53.0782 27.8568L52.0034 26.8618ZM52.4711 26.4245L53.2581 27.2429L57.5763 27.4419L57.9833 26.8101L52.4711 26.4245ZM51.43 25.9219L58.3363 26.5492L58.3307 28.7888L54.8107 28.8225L54.7904 29.9895L57.5831 29.9535L57.691 32.4178L54.8894 32.4965L54.8039 33.9412L58.3532 33.7388L58.3419 36.0087L51.4357 36.9059L51.43 25.9219ZM98.2428 28.2278L98.1427 32.2886L99.6279 36.6124L100.809 35.7265L100.073 33.433L98.2428 28.2278ZM91.8514 27.0855L93.4119 35.2465L94.2719 34.9283L93.0701 28.1502L91.8514 27.0855ZM96.8566 26.402L95.3029 30.3717L94.8352 34.4066L97.5559 27.3879L96.8566 26.402ZM92.1201 26.5931L93.2668 27.4183L94.0819 26.3907L92.1201 26.5931ZM97.1702 26.0748L98.1236 27.0248L99.0702 25.9748L97.1702 26.0748ZM102.539 25.8061L101.334 30.4066L101.509 34.998L101.902 33.7456L103.575 26.9945L102.539 25.8061ZM103.03 25.6015L104.107 26.5077L105.373 25.3969L103.03 25.6015ZM102.295 25.2654L106.206 25.0214L102.932 37.513L99.3344 36.9621L97.8527 32.8035L96.354 36.6799L93.0038 36.0852L92.1561 31.306L91.1499 26.2423L94.7329 25.932L95.3062 29.3846L96.6149 25.6813L99.7077 25.4407L101.013 29.8917L102.295 25.2654ZM45.9729 34.3752L46.0831 37.4298L47.1298 36.0807L47.2085 28.4875L45.9729 34.3752ZM38.7979 26.981L40.7732 34.0491L42.7092 37.8592L42.7587 35.9008L41.7513 33.4263L39.8885 29.2711L38.7979 26.981ZM43.1881 31.3959L43.1803 34.0222L46.6328 26.981L45.7211 26.2581L43.1881 31.3959ZM46.0584 25.914L47.2028 26.7134L48.3417 26.0186L46.0584 25.914ZM37.4589 25.199L38.5933 26.1884L39.8154 25.2024L37.4589 25.199ZM36.9092 25.3441L37.0306 39.0273L38.3516 37.3882L38.3572 26.8359L36.9092 25.3441ZM36.4988 24.7347L40.2538 24.7774L42.9397 30.5808L44.4844 27.6342L45.5659 25.6071L49.0174 25.7926L49.1388 37.5152L45.6716 38.1032L45.5052 34.5146L43.7289 38.5214L42.6732 38.7294L40.454 34.5123L40.3708 38.9947L36.5899 39.6726L36.4988 24.6819V24.7347ZM109.082 36.5326L114.207 37.1914L114.917 36.1436L110.498 35.5545L109.082 36.5326ZM110.324 30.2604L109.093 31.4161L112.824 31.4577L113.59 30.2109L110.324 30.2604ZM107.043 25.4183L107.255 37.4264L108.402 36.2605L108.301 26.3469L107.043 25.4183ZM107.531 25.1406L108.783 26.0276L113.476 25.7083L114.63 24.4907L107.531 25.1406ZM115.511 23.9938L115.527 27.4295L110.477 27.8118L110.45 29.8703L114.376 29.9344L114.345 33.3723L110.538 33.2554L110.551 35.1138L115.618 35.7906L115.615 39.1915L106.544 38.0785L106.631 24.7516L115.511 23.9938ZM32.1187 37.9874L32.6359 39.5917L33.4071 38.2842L32.8608 36.4056L32.1187 37.9874ZM28.4593 34.6933L26.9123 36.3134L32.0861 35.8063L30.7989 34.491L28.4593 34.6933ZM29.7331 31.659L29.0687 34.2785L30.6078 34.2077L29.7331 31.659ZM29.9793 26.4211L29.9928 29.6544L31.3037 34.4381L32.5729 35.378L29.9793 26.4211ZM28.6864 24.2198L29.5262 25.4666L31.397 24.339L28.864 24.3648L28.6864 24.2198ZM27.968 24.2715L23.7521 40.8509L25.5171 38.934L28.9304 26.0332L27.968 24.2715ZM27.4846 23.8398L31.7567 23.8836L36.1571 39.5287L32.338 40.2584L31.5982 38.0706L28.0096 38.5574L27.2316 41.006L23.1146 41.5828L23.4474 40.1268L27.4846 23.8398ZM125.506 38.7125L126.702 40.1673L126.661 37.3263L125.506 38.7125ZM120.659 37.9649L125.176 38.527L126.297 37.1532L122.682 36.6956L120.659 37.9649ZM118.56 24.6616L118.587 39.2083L119.87 37.7603L119.796 26.0714L118.56 24.6616ZM118.763 24.0613L119.936 25.2519L121.474 23.8196L118.763 24.0613ZM122.243 23.3429L122.319 36.3134L127.126 36.8879L127.037 41.1083L118.127 39.7379L118.144 23.7611L122.243 23.3429ZM19.2809 36.7012C19.1022 38.1212 19.5327 38.3022 17.5867 38.4708C17.0167 38.5203 16.4343 38.5023 15.8677 38.5135C15.3089 39.1353 14.7715 39.7783 14.3331 40.49C14.9098 40.6878 19.4495 40.2179 19.9982 39.6592C20.585 39.1847 20.4198 36.4629 20.2804 35.7614C19.96 36.0885 19.6384 36.4134 19.2809 36.7012ZM17.4416 33.8198C17.4034 34.5955 17.4394 35.3713 17.4855 36.147C17.9239 35.8221 18.2927 35.4151 18.6165 34.9755C18.232 34.5843 17.8486 34.1908 17.4416 33.8198ZM17.9768 33.6152C18.1589 33.9176 18.3669 34.2054 18.6243 34.4516C19.0392 34.9834 19.7857 34.7675 20.3669 34.7675C20.8661 34.4404 21.2596 33.9772 21.5856 33.4825C20.3827 33.4713 19.1786 33.5567 17.9768 33.6152ZM18.9358 27.4374L19.2562 29.9692L20.295 29.1856L20.0836 26.2761L18.9358 27.4374ZM11.5078 25.2867C11.5146 30.3402 11.5798 35.3937 11.4887 40.4495C11.4763 41.1398 11.6607 41.7784 12.2881 41.8762C12.8637 41.9661 13.1166 41.3242 13.3201 40.7654L13.1414 26.8202C13.1335 26.2019 13.4933 25.5206 14.0947 25.2148C15.1189 24.8426 18.9425 25.1979 20.3681 25.2451L20.8998 23.8803C19.4765 23.5722 14.6231 23.5329 13.1706 23.6037C12.2195 23.6487 11.5067 24.3558 11.5078 25.2867ZM12.541 22.5503L20.5581 22.6256C21.6834 23.1641 22.6503 24.3974 22.6166 25.6948L22.6053 30.5617L18.6603 30.5358C18.6884 29.6735 18.7323 28.3717 18.3793 27.8354C18.0262 27.2991 16.9942 27.416 16.1701 27.47C15.8429 27.4914 15.5428 27.8219 15.5248 28.1581C15.382 30.8282 15.3854 34.6911 15.5585 37.3882C15.5529 38.0841 16.4804 38.0616 17.3371 37.9593C19.0448 37.7535 18.6671 38.0818 18.8323 36.8294C18.2533 36.8069 17.6687 36.8733 17.0897 36.8778C16.8795 35.7434 16.9931 34.3212 16.9739 33.1756C18.8222 33.0924 20.7379 33.0328 22.6087 33.2386C22.7166 35.26 22.5783 37.2859 22.7402 39.3061C22.8189 40.1909 22.584 41.1465 21.8318 41.6873C20.9572 42.2775 14.2184 43.3051 13.2054 43.1702C12.7243 43.1061 11.9665 42.752 11.5573 42.4698C11.1481 42.1887 10.5578 41.5243 10.5635 41.0049L10.7074 25.1023C10.7209 23.6194 11.3493 22.539 12.541 22.5503Z" fill="white"/>
</svg>
