<svg width="200" height="44" viewBox="0 0 200 44" fill="none" xmlns="http://www.w3.org/2000/svg">
<path d="M38.1712 23.6129L27.432 40.8326L21.8772 30.0934L36.227 5.46731C27.2468 -2.49451 13.5451 -1.6613 5.4907 7.3189C-0.0640641 13.5217 -1.54533 22.4093 1.69494 30.0934L17.8963 2.31961L26.6914 18.3359L20.9515 28.2418L17.8963 23.798L8.45324 38.8885C17.8963 46.2948 31.5981 44.5358 39.0044 35.0927C40.208 33.5189 41.1338 31.8524 41.967 30.0934L38.1712 23.6129Z" fill="#002B5C"/>
<path d="M55.8539 4.5415H62.0567L66.3154 16.762L70.6666 4.5415H76.8694V23.2425H72.7033V8.89274L67.7966 23.2425H64.6489L59.9274 8.89274V23.2425H55.8539V4.5415Z" fill="#002B5C"/>
<path d="M87.4236 4.5415H90.7564L98.8108 23.15H94.1818L92.608 19.1691H85.3868L83.9055 23.15H79.3691L87.4236 4.5415ZM88.9974 10.0037L86.7755 15.7436H91.3119L88.9974 10.0037Z" fill="#002B5C"/>
<path d="M101.403 4.5415H108.532C109.457 4.5415 110.383 4.63408 111.216 4.81924C112.05 5.0044 112.79 5.28214 113.438 5.74504C114.086 6.20793 114.642 6.76341 115.012 7.50404C115.382 8.33726 115.568 9.26305 115.568 10.1888C115.568 11.3924 115.197 12.5959 114.549 13.5217C113.809 14.4475 112.698 15.0956 111.587 15.2807L116.308 23.15H111.402L107.513 15.7436H105.476V23.15H101.403V4.5415ZM105.569 12.3182H107.976H109.18C109.55 12.3182 109.92 12.2256 110.291 12.0404C110.568 11.8553 110.846 11.6701 111.124 11.3924C111.402 11.0221 111.494 10.6517 111.494 10.1888C111.494 9.81853 111.402 9.35563 111.216 9.07789C111.031 8.80016 110.753 8.615 110.476 8.42984C110.105 8.24468 109.828 8.1521 109.457 8.1521C109.087 8.05952 108.717 8.05952 108.346 8.05952H105.569V12.3182Z" fill="#002B5C"/>
<path d="M123.067 4.5415H118.993V23.15H123.067V4.5415Z" fill="#002B5C"/>
<path d="M138.99 9.44821C138.62 8.98531 138.157 8.61499 137.602 8.33725C136.954 8.05952 136.306 7.96694 135.565 7.96694C134.084 7.96694 132.695 8.61499 131.677 9.63337C131.214 10.1888 130.843 10.8369 130.566 11.5775C130.288 12.3182 130.103 13.1514 130.195 13.9846C130.195 14.8178 130.288 15.651 130.566 16.3917C130.843 17.0397 131.214 17.6878 131.677 18.2433C132.14 18.7987 132.695 19.169 133.343 19.4468C133.991 19.7245 134.732 19.9097 135.38 19.9097C136.12 19.9097 136.954 19.7245 137.602 19.3542C138.25 18.9839 138.805 18.521 139.176 17.9655L142.601 20.4652C141.86 21.4835 140.749 22.3167 139.546 22.8722C138.342 23.4277 137.139 23.6129 135.843 23.6129C134.454 23.6129 133.158 23.4277 131.862 22.9648C130.658 22.5019 129.547 21.8538 128.714 21.0206C127.788 20.1874 127.14 19.0765 126.585 17.9655C126.029 16.6694 125.844 15.2807 125.844 13.892C125.844 12.5033 126.029 11.1146 126.585 9.81852C127.048 8.61499 127.788 7.59662 128.714 6.7634C129.64 5.93019 130.751 5.18955 131.862 4.81924C133.158 4.35634 134.547 4.0786 135.843 4.17118C136.398 4.17118 136.954 4.26376 137.509 4.35634C138.065 4.44892 138.62 4.63408 139.176 4.81924C139.731 5.0044 140.287 5.28213 140.749 5.65245C141.305 6.02277 141.768 6.39309 142.138 6.94856L138.99 9.44821Z" fill="#002B5C"/>
<path d="M143.619 13.892C143.619 12.5033 143.804 11.1146 144.267 9.81851C144.73 8.61498 145.471 7.59661 146.397 6.76339C147.322 5.93018 148.433 5.18954 149.544 4.81922C152.137 3.89343 155.007 3.89343 157.599 4.81922C158.802 5.28212 159.913 5.93018 160.746 6.76339C161.672 7.59661 162.32 8.70756 162.876 9.81851C163.431 11.1146 163.616 12.5033 163.616 13.892C163.616 15.2807 163.339 16.6694 162.876 17.9655C162.413 19.169 161.672 20.1874 160.746 21.0206C159.821 21.8538 158.71 22.5945 157.599 22.9648C155.007 23.8906 152.137 23.8906 149.544 22.9648C148.341 22.5019 147.23 21.8538 146.397 21.0206C145.471 20.1874 144.823 19.0765 144.267 17.9655C143.804 16.6694 143.527 15.2807 143.619 13.892ZM147.785 13.892C147.785 14.7252 147.878 15.5584 148.156 16.2991C148.433 17.0397 148.804 17.6878 149.359 18.1507C149.915 18.7061 150.47 19.0765 151.211 19.3542C152.785 19.9097 154.451 19.9097 155.932 19.3542C156.58 19.0765 157.228 18.6136 157.784 18.1507C158.339 17.5952 158.71 16.9471 158.987 16.2991C159.265 15.5584 159.45 14.7252 159.358 13.892C159.358 13.0588 159.265 12.2256 158.987 11.4849C158.71 10.7443 158.339 10.0962 157.784 9.54077C157.228 8.9853 156.673 8.61498 155.932 8.33724C154.359 7.78176 152.692 7.78176 151.211 8.33724C150.563 8.61498 149.915 9.07788 149.359 9.54077C148.804 10.0962 148.433 10.7443 148.156 11.4849C147.971 12.3182 147.785 13.0588 147.785 13.892Z" fill="#002B5C"/>
<path d="M167.134 4.5415H174.078C175.004 4.5415 175.929 4.63408 176.763 4.81924C177.596 5.0044 178.337 5.28214 178.985 5.74504C179.633 6.20793 180.188 6.76341 180.558 7.50404C180.929 8.33726 181.114 9.26305 181.114 10.2814C181.114 11.2072 180.929 12.133 180.558 12.9662C180.281 13.7069 179.725 14.2623 179.17 14.7252C178.522 15.1881 177.781 15.4659 176.948 15.651C176.022 15.8362 175.096 15.9288 174.263 15.9288H171.3V23.15H167.227V4.5415H167.134ZM171.208 12.5033H173.893C174.263 12.5033 174.633 12.5033 174.911 12.4108C175.189 12.3182 175.559 12.2256 175.837 12.0404C176.115 11.8553 176.3 11.6701 176.485 11.3924C176.67 11.0221 176.763 10.6517 176.763 10.2814C176.763 9.91111 176.67 9.44821 176.392 9.17047C176.207 8.89274 175.837 8.615 175.559 8.52242C175.189 8.33726 174.818 8.24468 174.448 8.24468C174.078 8.24468 173.615 8.24468 173.245 8.24468H171.115L171.208 12.5033Z" fill="#002B5C"/>
<path d="M188.52 4.5415H191.946L200 23.15H195.371L193.797 19.1691H186.576L185.002 23.15H180.466L188.52 4.5415ZM190.094 10.0037L187.872 15.7436H192.409L190.094 10.0037Z" fill="#002B5C"/>
<path d="M61.9643 31.8525C61.6866 31.5748 61.4088 31.297 61.0385 31.1119C60.6682 30.9267 60.2979 30.8341 59.9276 30.8341C59.4647 30.8341 59.0944 30.9267 58.724 31.1119C58.3537 31.297 57.9834 31.5748 57.7057 31.8525C57.4279 32.1302 57.2428 32.5005 57.0576 32.9634C56.8724 33.3338 56.8724 33.7967 56.8724 34.2596C56.8724 34.7225 56.965 35.1854 57.0576 35.5557C57.2428 35.926 57.4279 36.2963 57.7057 36.6666C57.9834 36.9444 58.3537 37.2221 58.6315 37.4073C59.4647 37.7776 60.3905 37.7776 61.2237 37.4073C61.594 37.2221 61.9643 36.9444 62.242 36.574L62.9827 37.2221C62.6124 37.685 62.1495 38.0553 61.6866 38.3331C61.1311 38.5182 60.5756 38.6108 60.0201 38.6108C59.4647 38.6108 58.9092 38.5182 58.3537 38.2405C57.8908 38.0553 57.4279 37.7776 57.0576 37.3147C56.6873 36.9444 56.4096 36.4815 56.2244 35.926C56.0392 35.3705 55.9467 34.815 55.9467 34.167C55.9467 33.6115 56.0392 33.056 56.2244 32.5005C56.8724 30.9267 58.3537 29.9083 60.0201 29.9083C60.5756 29.9083 61.1311 30.0009 61.594 30.1861C62.1495 30.3712 62.5198 30.7415 62.8901 31.1119L61.9643 31.8525Z" fill="#002B5C"/>
<path d="M68.8148 38.5182C68.2594 38.5182 67.6113 38.4256 67.0558 38.2404C66.5929 38.0553 66.13 37.7776 65.6671 37.3147C65.2968 36.9443 65.0191 36.4814 64.7413 35.926C64.2784 34.815 64.2784 33.6115 64.7413 32.5005C64.9265 32.0376 65.2042 31.5747 65.6671 31.1118C66.0374 30.7415 66.5003 30.4638 67.0558 30.186C68.1668 29.7231 69.3703 29.7231 70.4813 30.186C70.9442 30.3712 71.4071 30.6489 71.8699 31.1118C72.2403 31.4822 72.518 31.945 72.7957 32.5005C73.2586 33.6115 73.2586 34.815 72.7957 35.926C72.6106 36.3889 72.3328 36.8518 71.8699 37.3147C71.4996 37.685 71.0367 37.9627 70.4813 38.2404C70.0184 38.4256 69.4629 38.5182 68.8148 38.5182ZM68.8148 37.5924C69.2777 37.5924 69.7406 37.4998 70.1109 37.3147C70.4813 37.1295 70.8516 36.8518 71.1293 36.574C71.4071 36.2963 71.5922 35.926 71.7774 35.4631C72.0551 34.6299 72.0551 33.7041 71.7774 32.8708C71.5922 32.5005 71.4071 32.1302 71.1293 31.7599C70.8516 31.4822 70.4813 31.2044 70.1109 31.0193C69.2777 30.6489 68.3519 30.6489 67.5187 31.0193C67.1484 31.2044 66.7781 31.4822 66.5003 31.7599C66.2226 32.0376 66.0374 32.4079 65.8523 32.8708C65.5745 33.7041 65.5745 34.6299 65.8523 35.4631C66.0374 35.8334 66.2226 36.2037 66.5003 36.574C66.7781 36.8518 67.1484 37.1295 67.5187 37.3147C67.9816 37.5924 68.3519 37.685 68.8148 37.5924Z" fill="#002B5C"/>
<path d="M75.3881 30.186H76.7768L79.5541 36.574L82.3315 30.186H83.8128V38.333H82.7944V31.4821L79.8319 38.333H79.2764L76.3139 31.4821V38.333H75.3881V30.186Z" fill="#002B5C"/>
<path d="M86.4977 30.186H87.8864L90.6638 36.574H90.7563L93.5337 30.186H94.9224V38.333H93.904V31.4821L90.9415 38.333H90.386L87.5161 31.4821H87.4235V38.333H86.4977V30.186Z" fill="#002B5C"/>
<path d="M103.717 35.1853C103.717 35.6482 103.625 36.0185 103.532 36.4814C103.44 36.8518 103.255 37.2221 102.977 37.4998C102.699 37.7775 102.421 38.0553 102.051 38.2404C101.125 38.6108 100.107 38.6108 99.1811 38.2404C98.8108 38.0553 98.533 37.8701 98.2553 37.4998C97.9775 37.2221 97.7924 36.8518 97.6998 36.4814C97.6072 36.1111 97.5146 35.6482 97.5146 35.1853V30.186H98.533V35.0927C98.533 35.3705 98.533 35.7408 98.6256 36.0185C98.7182 36.2963 98.8108 36.574 98.9959 36.8518C99.1811 37.1295 99.3662 37.3147 99.644 37.4072C100.292 37.685 101.033 37.685 101.681 37.4072C101.958 37.3147 102.144 37.0369 102.329 36.8518C102.514 36.574 102.607 36.2963 102.699 36.0185C102.792 35.7408 102.792 35.3705 102.792 35.0927V30.186H103.717V35.1853Z" fill="#002B5C"/>
<path d="M106.402 30.186H107.606L112.327 36.9443H112.42V30.186H113.346V38.333H112.142L107.421 31.5747V38.333H106.402V30.186Z" fill="#002B5C"/>
<path d="M116.956 30.186H116.031V38.333H116.956V30.186Z" fill="#002B5C"/>
<path d="M125.196 31.1118H122.511V38.333H121.585V31.1118H118.9V30.186H125.196V31.1118Z" fill="#002B5C"/>
<path d="M128.992 34.815L125.937 30.186H127.14L129.455 33.8892L131.862 30.186H132.973L129.917 34.815V38.333H128.992V34.815Z" fill="#002B5C"/>
<path d="M144.175 31.8525C143.897 31.5748 143.619 31.297 143.249 31.1119C142.879 30.9267 142.508 30.8341 142.138 30.8341C141.675 30.8341 141.305 30.9267 140.934 31.1119C140.564 31.297 140.194 31.5748 139.916 31.8525C139.638 32.1302 139.453 32.5005 139.268 32.9634C139.083 33.3338 139.083 33.7967 139.083 34.2596C139.083 34.7225 139.175 35.1854 139.268 35.5557C139.453 35.926 139.638 36.2963 139.916 36.6666C140.194 36.9444 140.564 37.2221 140.842 37.4073C141.675 37.7776 142.601 37.7776 143.434 37.4073C143.804 37.2221 144.175 36.9444 144.452 36.574L145.193 37.2221C144.823 37.685 144.36 38.0553 143.897 38.3331C143.341 38.6108 142.786 38.7034 142.138 38.7034C141.582 38.7034 141.027 38.6108 140.472 38.3331C140.009 38.1479 139.546 37.8702 139.175 37.4073C138.805 37.0369 138.527 36.574 138.342 36.0186C138.157 35.4631 138.064 34.9076 138.064 34.2596C138.064 33.7041 138.157 33.1486 138.342 32.5931C138.898 31.0193 140.472 29.9083 142.138 29.9083C142.693 29.9083 143.249 30.0009 143.712 30.1861C144.267 30.3712 144.638 30.7415 145.008 31.1119L144.175 31.8525Z" fill="#002B5C"/>
<path d="M151.118 38.5181C150.563 38.5181 149.915 38.4255 149.359 38.1478C148.896 37.9626 148.433 37.6849 147.971 37.222C147.6 36.8517 147.323 36.3888 147.045 35.8333C146.582 34.7224 146.582 33.5188 147.045 32.4079C147.23 31.945 147.508 31.4821 147.971 31.0192C148.341 30.6489 148.804 30.3711 149.359 30.0934C150.47 29.6305 151.674 29.6305 152.785 30.0934C153.248 30.2785 153.711 30.5563 154.173 31.0192C154.544 31.3895 154.821 31.8524 155.099 32.4079C155.562 33.5188 155.562 34.7224 155.099 35.8333C154.914 36.2962 154.636 36.7591 154.173 37.222C153.803 37.5923 153.34 37.8701 152.785 38.1478C152.229 38.4255 151.674 38.5181 151.118 38.5181ZM151.026 37.5923C151.489 37.5923 151.952 37.4997 152.322 37.3146C152.692 37.1294 153.062 36.8517 153.34 36.5739C153.618 36.2962 153.803 35.9259 153.988 35.463C154.266 34.6298 154.266 33.704 153.988 32.8708C153.803 32.5005 153.618 32.1301 153.34 31.7598C153.062 31.4821 152.692 31.2043 152.322 31.0192C151.489 30.6489 150.563 30.6489 149.73 31.0192C149.359 31.2043 148.989 31.4821 148.711 31.7598C148.433 32.0376 148.248 32.4079 148.063 32.8708C147.785 33.704 147.785 34.6298 148.063 35.463C148.248 35.8333 148.433 36.2036 148.711 36.5739C148.989 36.8517 149.359 37.1294 149.73 37.3146C150.192 37.4997 150.563 37.5923 151.026 37.5923Z" fill="#002B5C"/>
<path d="M157.599 30.186H158.524V37.4072H162.228V38.333H157.599V30.186Z" fill="#002B5C"/>
<path d="M163.987 30.186H165.005V37.4072H168.708V38.333H163.987V30.186Z" fill="#002B5C"/>
<path d="M170.467 30.186H175.559V31.1118H171.486V33.6115H175.281V34.5373H171.486V37.4072H175.837V38.333H170.467V30.186Z" fill="#002B5C"/>
<path d="M184.91 37.7775C184.447 38.0553 183.984 38.2404 183.521 38.333C182.965 38.4256 182.503 38.5182 181.947 38.5182C181.392 38.5182 180.744 38.4256 180.188 38.2404C179.633 38.0553 179.17 37.7775 178.799 37.4072C178.429 37.0369 178.059 36.574 177.874 36.0185C177.688 35.463 177.503 34.9076 177.503 34.2595C177.503 33.6114 177.596 33.056 177.874 32.5005C178.059 32.0376 178.429 31.5747 178.799 31.1118C179.17 30.7415 179.725 30.4638 180.188 30.2786C180.744 30.0934 181.299 30.0009 181.947 30.0009C182.503 30.0009 182.965 30.0934 183.521 30.2786C183.984 30.4638 184.447 30.7415 184.817 31.1118L184.076 31.8524C183.799 31.5747 183.428 31.297 183.058 31.2044C182.688 31.0192 182.225 30.9266 181.855 30.9266C181.392 30.9266 180.929 31.0192 180.558 31.2044C179.725 31.5747 179.17 32.1302 178.799 32.9634C178.429 33.7966 178.429 34.815 178.799 35.6482C178.985 36.0185 179.17 36.3888 179.447 36.7592C179.725 37.0369 180.096 37.3146 180.466 37.4998C180.929 37.6849 181.392 37.7775 181.855 37.7775C182.225 37.7775 182.503 37.6849 182.873 37.6849C183.243 37.5924 183.521 37.4998 183.891 37.3146V34.815H182.04V33.8892H184.91V37.7775Z" fill="#002B5C"/>
<path d="M187.594 30.186H192.779V31.1118H188.613V33.6115H192.501V34.5373H188.613V37.4072H192.964V38.333H187.594V30.186Z" fill="#002B5C"/>
<path d="M198.982 31.6673C198.797 31.3896 198.611 31.2044 198.334 31.1118C198.056 31.0192 197.778 30.9267 197.5 30.9267C197.315 30.9267 197.038 30.9267 196.852 31.0193C196.667 31.1118 196.482 31.1118 196.297 31.297C196.112 31.3896 196.019 31.5747 195.927 31.7599C195.834 31.945 195.741 32.1302 195.741 32.4079C195.741 32.5931 195.741 32.7783 195.834 32.8708C195.927 33.056 196.019 33.1486 196.112 33.2412C196.297 33.3337 196.482 33.5189 196.667 33.6115C196.945 33.7041 197.223 33.7966 197.5 33.8892L198.426 34.2595C198.704 34.3521 198.982 34.5373 199.167 34.7224C199.352 34.9076 199.537 35.0927 199.722 35.3705C199.907 35.6482 199.907 36.0185 199.907 36.3889C199.907 37.1295 199.63 37.7775 198.982 38.1479C198.704 38.333 198.426 38.5182 198.056 38.6108C197.686 38.7033 197.315 38.7959 196.945 38.7959C196.667 38.7959 196.482 38.7959 196.204 38.7959C195.927 38.7959 195.741 38.7033 195.556 38.6108C195.371 38.5182 195.093 38.4256 194.908 38.2404C194.723 38.0553 194.538 37.8701 194.445 37.685L195.279 37.0369C195.464 37.3146 195.741 37.5924 196.019 37.685C196.482 37.9627 197.13 37.9627 197.686 37.8701C197.871 37.7775 198.056 37.685 198.241 37.5924C198.426 37.4998 198.519 37.3146 198.611 37.1295C198.704 36.9443 198.797 36.7592 198.797 36.4814C198.797 36.2963 198.797 36.0185 198.704 35.8334C198.611 35.6482 198.519 35.5556 198.334 35.4631C198.148 35.3705 197.871 35.1853 197.686 35.1853L196.76 34.815C196.482 34.7224 196.204 34.6298 195.927 34.5373C195.649 34.4447 195.464 34.2595 195.279 34.0744C195.093 33.8892 194.908 33.7041 194.816 33.4263C194.723 33.1486 194.63 32.8708 194.63 32.5931C194.63 32.2228 194.723 31.8525 194.816 31.5747C195.001 31.297 195.186 31.0193 195.464 30.8341C195.741 30.6489 196.019 30.4638 196.389 30.3712C196.76 30.2786 197.038 30.186 197.408 30.186C197.871 30.186 198.241 30.2786 198.704 30.3712C199.074 30.5564 199.445 30.7415 199.722 31.1118L198.982 31.6673Z" fill="#002B5C"/>
</svg>
