<svg width="150" height="42" viewBox="0 0 150 42" fill="none" xmlns="http://www.w3.org/2000/svg">
<path d="M8.3692 17.4155L6.49407 22.1036L1.65952 20.6469L4.15518 25.0357L0 27.9083L4.99007 28.6928L4.64424 33.7325L8.3692 30.3203L12.0952 33.733L11.7488 28.6913L16.7389 27.9083L12.5832 25.036L15.0806 20.6474L10.2451 22.1038L8.3692 17.4155Z" fill="#0070C0"/>
<path d="M46.828 0L46.1611 1.66653L44.4425 1.14866L45.3298 2.70902L43.8525 3.73022L45.6265 4.00918L45.5035 5.80092L46.828 4.5879L48.1525 5.80117L48.0293 4.00868L49.8035 3.73022L48.326 2.70902L49.2137 1.14891L47.4949 1.66678L46.828 0Z" fill="#0070C0"/>
<path d="M57.9484 8.81421L57.2817 10.4807L55.5629 9.96287L56.4504 11.5232L54.9729 12.5444L56.7471 12.8234L56.6242 14.6151L57.9484 13.4021L59.2731 14.6151L59.1499 12.8229L60.9241 12.5444L59.4466 11.5232L60.3343 9.96312L58.6152 10.481L57.9484 8.81421Z" fill="#0070C0"/>
<path d="M34.8837 11.3677L34.2171 13.0342L32.4982 12.5163L33.3857 14.0767L31.9082 15.0981L33.6824 15.3769L33.5595 17.1686L34.8837 15.9556L36.2084 17.1688L36.0852 15.3764L37.8594 15.0981L36.3819 14.0767L37.2696 12.5166L35.5505 13.0345L34.8837 11.3677Z" fill="#0070C0"/>
<path d="M44.6094 19.5374V28.3177C44.6094 29.5711 43.4743 30.5873 42.074 30.5873C40.6736 30.5873 39.5385 29.5711 39.5385 28.3177V19.5374H34.311V28.8091C34.311 31.9418 37.7866 34.4813 42.074 34.4813C46.3614 34.4813 49.8369 31.9415 49.8369 28.8091V19.5374H44.6094Z" fill="black"/>
<path d="M45.8392 28.7487L45.1726 30.4154L43.4538 29.8976L44.3412 31.4577L42.8638 32.4789L44.638 32.7578L44.515 34.5498L45.8392 33.3366L47.1639 34.5498L47.0407 32.7573L48.8149 32.4789L47.3375 31.4577L48.2252 29.8976L46.5061 30.4154L45.8392 28.7487Z" fill="#0070C0"/>
<path d="M60.6991 25.6227L58.7271 25.1531C58.7271 25.1531 56.9429 24.934 56.9429 23.8698C56.9429 23.3376 57.162 22.5733 58.5393 22.5733C59.2194 22.5733 60.2201 22.9432 61.0592 23.3173L62.8652 19.9961C61.6773 19.5188 60.003 19.0675 57.9095 19.0675C54.4349 19.0675 51.7157 21.0082 51.7157 24.2324C51.7157 27.4565 54.3097 27.926 54.3097 27.926L56.2818 28.3956C56.2818 28.3956 58.066 28.6147 58.066 29.6789C58.066 30.2111 57.8469 30.9754 56.4696 30.9754C55.0923 30.9754 52.4003 29.4598 52.4003 29.4598L50.5923 32.7849C51.5424 33.3633 53.8041 34.4809 57.0996 34.4809C60.5742 34.4809 63.2935 32.5402 63.2935 29.3161C63.2935 26.092 60.6991 25.6227 60.6991 25.6227Z" fill="black"/>
<path d="M57.3897 22.0619H56.0342L55.6153 20.7727L55.1963 22.0619H53.8408L54.9376 22.8584L54.5187 24.1478L55.6153 23.351L56.7121 24.1478L56.2932 22.8584L57.3897 22.0619Z" fill="#0070C0"/>
<path d="M18.119 2.56653L11.7334 13.7992L23.4702 34.4454H36.2415L18.119 2.56653Z" fill="#FF0000"/>
<path d="M107.617 10.4862H102.389V34.0207H107.617V10.4862Z" fill="black"/>
<path d="M72.9654 19.5639H70.1482V15.1503H64.9208V19.5639H63.2305V23.9775H64.9208V34.0568H70.1482V23.9775H72.9654V19.5639Z" fill="black"/>
<path d="M83.5611 19.3135C81.5245 19.3135 79.7152 20.4176 78.5683 22.1274V19.5278H73.3408V34.0207H78.5683V27.3894C78.5683 25.4187 80.2639 23.821 82.3558 23.821C83.1056 23.821 83.8023 24.0288 84.3905 24.3829V19.3773C84.1188 19.3368 83.8426 19.3135 83.5611 19.3135Z" fill="black"/>
<path d="M95.1273 19.5278V20.8407C93.9295 19.7336 92.3912 19.0675 90.7137 19.0675C86.8941 19.0675 83.7959 22.518 83.7959 26.7743C83.7959 31.0304 86.8941 34.4809 90.7137 34.4809C92.3912 34.4809 93.9295 33.8151 95.1273 32.708V34.0204H100.355V19.5278H95.1273ZM92.1556 30.0999C90.3243 30.0999 88.8396 28.6112 88.8396 26.7746C88.8396 24.938 90.3243 23.4493 92.1556 23.4493C93.9869 23.4493 95.4716 24.938 95.4716 26.7746C95.4716 28.6112 93.9869 30.0999 92.1556 30.0999Z" fill="black"/>
<path d="M127.181 19.5278V20.8407C125.983 19.7336 124.445 19.0675 122.767 19.0675C118.948 19.0675 115.849 22.518 115.849 26.7743C115.849 31.0304 118.948 34.4809 122.767 34.4809C124.445 34.4809 125.983 33.8151 127.181 32.708V34.0204H132.408V19.5278H127.181ZM124.209 30.0999C122.378 30.0999 120.893 28.6112 120.893 26.7746C120.893 24.938 122.378 23.4493 124.209 23.4493C126.04 23.4493 127.525 24.938 127.525 26.7746C127.525 28.6112 126.04 30.0999 124.209 30.0999Z" fill="black"/>
<path d="M114.879 19.5278H109.651V34.0207H114.879V19.5278Z" fill="black"/>
<path d="M112.265 16.7576C113.856 16.7576 115.145 15.4683 115.145 13.8778C115.145 12.2874 113.856 10.998 112.265 10.998C110.675 10.998 109.385 12.2874 109.385 13.8778C109.385 15.4683 110.675 16.7576 112.265 16.7576Z" fill="black"/>
<path d="M144.187 19.0679C142.326 19.0679 140.68 19.9513 139.67 21.3069V19.5279H134.443V34.0208H139.67V25.3704C139.67 24.0652 140.757 23.0069 142.096 23.0069C143.436 23.0069 144.522 24.0652 144.522 25.3704V34.0208H149.75V24.4426C149.75 21.4741 147.259 19.0679 144.187 19.0679Z" fill="black"/>
<path d="M54.123 40.3092L52.8371 36.5482H51.7245L53.5408 41.6296H54.6361L56.4559 36.5482H55.3676L54.123 40.3092Z" fill="black"/>
<path d="M131.226 36.4618C130.812 36.4618 130.447 36.5292 130.131 36.6629C129.893 36.7623 129.674 36.915 129.474 37.1204C129.274 37.326 129.116 37.5584 129.001 37.8168C128.846 38.1681 128.769 38.6029 128.769 39.1205C128.769 39.9291 128.991 40.5641 129.437 41.0246C129.883 41.4859 130.484 41.7163 131.24 41.7163C131.986 41.7163 132.582 41.4847 133.028 41.0214C133.474 40.5581 133.697 39.9165 133.697 39.0962C133.697 38.2686 133.473 37.6227 133.023 37.1585C132.573 36.6937 131.975 36.4618 131.226 36.4618ZM132.243 40.3976C131.981 40.6923 131.646 40.8393 131.236 40.8393C130.827 40.8393 130.49 40.6908 130.224 40.3943C129.959 40.0968 129.826 39.6609 129.826 39.0854C129.826 38.5012 129.955 38.0637 130.214 37.7735C130.473 37.484 130.814 37.3388 131.236 37.3388C131.659 37.3388 131.998 37.482 132.254 37.7685C132.509 38.0552 132.636 38.4899 132.636 39.0716C132.637 39.6609 132.506 40.1029 132.243 40.3976Z" fill="black"/>
<path d="M60.4781 36.5482H59.4521V41.6296H60.4781V36.5482Z" fill="black"/>
<path d="M67.3177 38.8237C67.0785 38.6978 66.7094 38.5763 66.2103 38.4584C65.7112 38.3407 65.397 38.227 65.2675 38.1188C65.1661 38.0332 65.1152 37.9302 65.1152 37.8103C65.1152 37.6786 65.1696 37.5734 65.278 37.4945C65.4468 37.3723 65.6802 37.3112 65.9784 37.3112C66.2672 37.3112 66.484 37.3686 66.6283 37.4827C66.7728 37.5972 66.8669 37.785 66.9105 38.0462L67.9367 38.0009C67.9209 37.5343 67.7514 37.161 67.4289 36.8812C67.1066 36.602 66.6265 36.4618 65.989 36.4618C65.598 36.4618 65.265 36.5206 64.9888 36.6386C64.7126 36.7563 64.5012 36.9278 64.3545 37.1534C64.2077 37.3791 64.1344 37.6207 64.1344 37.8792C64.1344 38.2813 64.2904 38.6224 64.6024 38.9019C64.824 39.1009 65.2099 39.2682 65.7601 39.4047C66.1875 39.5109 66.4615 39.585 66.5817 39.6268C66.7575 39.6892 66.8804 39.7625 66.9508 39.8464C67.0214 39.9311 67.0567 40.0332 67.0567 40.1534C67.0567 40.3405 66.9731 40.504 66.8053 40.6443C66.638 40.7837 66.3889 40.8536 66.0586 40.8536C65.7466 40.8536 65.4986 40.7752 65.3148 40.618C65.1313 40.461 65.0093 40.215 64.9492 39.8797L63.9508 39.9771C64.0179 40.5456 64.2238 40.9783 64.5678 41.2753C64.9122 41.5721 65.4055 41.7206 66.0481 41.7206C66.4895 41.7206 66.8579 41.6585 67.1539 41.5352C67.4496 41.4113 67.6783 41.2225 67.8403 40.9681C68.0021 40.7141 68.0829 40.4414 68.0829 40.1502C68.0829 39.8292 68.0151 39.5595 67.8799 39.3408C67.7441 39.122 67.5568 38.9497 67.3177 38.8237Z" fill="black"/>
<path d="M72.6944 36.5482H71.6685V41.6296H72.6944V36.5482Z" fill="black"/>
<path d="M38.9682 36.59H37.9423V41.6296H41.5195V40.7737H38.9682V36.59Z" fill="black"/>
<path d="M23.4711 37.4078H24.9791V41.6296H26.0048V37.4078H27.509V36.5482H23.4711V37.4078Z" fill="black"/>
<path d="M31.7014 39.3906H34.2526V38.5345H31.7014V37.4078H34.4432V36.5482H30.6754V41.6296H34.5404V40.7737H31.7014V39.3906Z" fill="black"/>
<path d="M46.0315 39.3906H48.5825V38.5345H46.0315V37.4078H48.773V36.5482H45.0052V41.6296H48.8702V40.7737H46.0315V39.3906Z" fill="black"/>
<path d="M123.886 40.0976L122.995 36.5482H121.775L120.846 40.039L120.08 36.5482H119.029L120.243 41.6296H121.355L122.364 37.8305L123.376 41.6296H124.464L125.699 36.5482H124.666L123.886 40.0976Z" fill="black"/>
<path d="M112.067 37.4078H113.575V41.6296H114.601V37.4078H116.105V36.5482H112.067V37.4078Z" fill="black"/>
<path d="M106.218 39.3906H108.769V38.5345H106.218V37.4078H108.96V36.5482H105.192V41.6296H109.057V40.7737H106.218V39.3906Z" fill="black"/>
<path d="M141.486 40.2889C141.486 39.9103 141.265 39.5672 140.906 39.3103C141.031 39.2003 141.138 39.0636 141.226 38.8983C141.339 38.6855 141.396 38.4235 141.396 38.1115C141.396 37.7071 141.298 37.3768 141.101 37.1221C140.905 36.8664 140.661 36.7007 140.37 36.6248C140.18 36.5737 139.774 36.5482 139.15 36.5482H137.253V41.6296H138.279V39.7132H139.306C139.943 39.7132 140.46 40.0903 140.46 40.5551V41.1979C140.46 41.1979 140.469 41.6296 140.704 41.6296H141.609C141.609 41.6296 141.486 41.5067 141.486 41.1979L141.486 40.2889ZM140.223 38.5207C140.145 38.6336 140.038 38.7168 139.902 38.7699C139.766 38.8234 139.495 38.8497 139.091 38.8497H138.279V37.4076H139.025C139.395 37.4076 139.641 37.4194 139.763 37.4424C139.93 37.4724 140.067 37.5478 140.176 37.6673C140.285 37.788 140.339 37.9407 140.339 38.1255C140.339 38.2758 140.3 38.4073 140.223 38.5207Z" fill="black"/>
<path d="M78.6762 36.4618C78.2628 36.4618 77.8977 36.5292 77.5812 36.6629C77.343 36.7623 77.1241 36.915 76.9243 37.1204C76.7242 37.326 76.5665 37.5584 76.451 37.8168C76.296 38.1681 76.2186 38.6029 76.2186 39.1205C76.2186 39.9291 76.4415 40.5641 76.8875 41.0246C77.3335 41.4859 77.9345 41.7163 78.6897 41.7163C79.4365 41.7163 80.0322 41.4847 80.479 41.0214C80.9245 40.5581 81.1478 39.9165 81.1478 39.0962C81.1478 38.2686 80.9232 37.6227 80.4737 37.1585C80.0242 36.6937 79.425 36.4618 78.6762 36.4618ZM79.6934 40.3976C79.4312 40.6923 79.0957 40.8393 78.6865 40.8393C78.2773 40.8393 77.9402 40.6908 77.6743 40.3943C77.4084 40.0968 77.2756 39.6609 77.2756 39.0854C77.2756 38.5012 77.4051 38.0637 77.664 37.7735C77.9227 37.484 78.2638 37.3388 78.6865 37.3388C79.1092 37.3388 79.4485 37.482 79.7039 37.7685C79.9591 38.0552 80.0868 38.4899 80.0868 39.0716C80.0868 39.6609 79.9559 40.1029 79.6934 40.3976Z" fill="black"/>
<path d="M147.982 38.5277L149.896 36.5482H148.517L146.444 38.8047V36.5482H145.418V41.6296H146.444V40.0941L147.275 39.2451L148.672 41.6296H150L147.982 38.5277Z" fill="black"/>
<path d="M100.399 39.9416L98.3197 36.5482H97.3213V41.6296H98.2744V38.3166L100.323 41.6296H101.353V36.5482H100.399V39.9416Z" fill="black"/>
<path d="M88.0418 39.9416L85.9618 36.5482H84.9634V41.6296H85.9167V38.3166L87.9654 41.6296H88.9951V36.5482H88.0418V39.9416Z" fill="black"/>
</svg>
