<svg width="150" height="45" viewBox="0 0 150 45" fill="none" xmlns="http://www.w3.org/2000/svg">
<path fill-rule="evenodd" clip-rule="evenodd" d="M136.621 19.4627C136.516 18.6204 135.714 18.2507 134.752 18.2507C133.669 18.2507 132.831 18.8513 132.831 19.776V20.5609L132.826 32.315H127.984V9.13841H132.831V15.4951C133.118 15.4409 133.453 15.222 133.78 15.1081C136.006 14.397 138.814 14.6247 140.625 16.1271C141.395 16.7494 141.693 17.6361 141.855 18.5478V32.2793H136.621V19.4627Z" fill="#0A8137"/>
<path d="M26.1176 19.6839L29.5226 20.3181L22.2259 10.2831L25.1626 10.72L17.441 -3.8147e-05L9.71729 10.72L12.655 10.2831L5.35947 20.3181L8.76441 19.6839L0 32.3053H15.119C10.3709 30.0624 10.2517 22.2606 11.1764 17.6253C12.01 20.2595 13.1949 22.8286 14.5196 25.1387C14.6269 24.91 14.7353 24.6824 14.8458 24.4569C13.5396 21.8173 12.4946 19.0194 11.8008 16.1586L11.7043 15.7521C12.1347 14.5824 12.758 13.2903 13.313 12.177C13.7401 15.5765 14.7851 19.0053 16.1001 22.0698C16.2356 21.8509 16.3711 21.6276 16.5098 21.4108C15.4963 18.5836 14.7689 15.6274 14.4057 12.6441C14.2984 11.7607 14.2431 11.004 14.2139 10.4154C14.6746 9.54709 15.0561 8.86414 15.1646 8.67118C15.6881 9.1113 16.164 9.53621 16.5966 9.94272C16.5879 10.2311 16.5879 10.5195 16.5911 10.8024C16.6226 13.7499 17.2361 16.6248 18.1391 19.4151C18.2996 19.2253 18.4578 19.0335 18.6215 18.847C17.996 16.3061 17.5787 13.584 17.6253 10.9574C18.8362 12.2149 19.6048 13.2588 20.111 14.0632C20.5088 14.6919 20.9815 15.6805 20.9923 15.738C19.2925 18.125 18.4047 21.0823 18.1814 23.1994C17.9603 25.3284 18.1749 26.922 18.1749 26.922L18.7917 26.8428C18.5565 22.5718 19.7121 19.4291 21.0378 17.3966C21.7013 16.3819 23.0411 15.1353 23.8596 14.4968C23.2428 16.1814 23.2601 18.3689 23.555 19.944C23.62 20.2855 24.1675 21.6362 24.4211 22.7192C24.6737 23.801 24.8992 24.8493 24.9013 26.1946C24.9046 28.4927 23.7306 31.1887 21.3847 32.3053H34.882L26.1176 19.6839Z" fill="#0A8137"/>
<path fill-rule="evenodd" clip-rule="evenodd" d="M26.0212 44.8281C22.601 39.9586 19.5636 33.8349 18.4503 28.8223L19.0508 28.7594C20.5858 33.7341 23.7035 40.1526 27.6288 43.4763L26.0212 44.8281Z" fill="#0A8137"/>
<path fill-rule="evenodd" clip-rule="evenodd" d="M126.507 28.1914C126.507 30.9123 123.41 32.6826 119.61 32.6826C115.773 32.6826 112.674 30.9123 112.674 28.1914V19.4714C112.674 16.7223 115.773 14.9488 119.61 14.9488C123.41 14.9488 126.507 16.7223 126.507 19.4714V21.969H121.307V19.3945C121.307 18.5435 120.533 18.1608 119.596 18.1608C118.601 18.1608 117.828 18.5435 117.828 19.3945V27.9193C117.828 28.767 118.601 29.1931 119.596 29.1931C120.533 29.1931 121.307 28.767 121.307 27.9193V25.5257H126.507V28.1914Z" fill="#0A8137"/>
<path fill-rule="evenodd" clip-rule="evenodd" d="M64.1521 22.8774V19.3945C64.1521 18.5435 63.378 18.1608 62.4404 18.1608C61.4452 18.1608 60.6734 18.5435 60.6734 19.3945V27.9193C60.6734 28.767 61.4452 29.1931 62.4404 29.1931C63.378 29.1931 64.1521 28.767 64.1521 27.9193V22.8774ZM69.3511 28.1914V28.2781C69.3478 28.368 69.3435 28.4223 69.3403 28.4776L69.3348 28.5274C69.066 31.0684 66.0795 32.6826 62.4545 32.6826H62.4154C59.2848 32.6826 56.6289 31.4803 55.792 29.5334L55.7757 29.4933L55.741 29.4055C55.6521 29.1768 55.5893 28.9372 55.5546 28.689C55.5318 28.5274 55.5177 28.3627 55.5177 28.1914V19.4714C55.5318 16.7147 58.6246 14.9488 62.4154 14.9488H62.4545C65.9461 14.9488 68.8492 16.4469 69.2915 18.8286L69.3001 18.8752C69.3348 19.0682 69.3511 19.2676 69.3511 19.4714V28.1914Z" fill="#0A8137"/>
<path fill-rule="evenodd" clip-rule="evenodd" d="M109.229 15.39L111.654 15.3694V18.6345H109.265V27.6895C109.265 28.1014 109.608 28.5925 110.039 28.7497C110.632 28.9643 111.279 28.9123 111.934 28.9231V32.3313C111.934 32.3313 108.724 32.5612 107.11 32.2164C105.988 31.978 105.008 30.9047 104.511 29.7871C104.201 29.0901 104.036 28.1058 104.036 27.2396V18.6345H101.893V15.4031H104.036L104.014 12.0686H109.229V15.39Z" fill="#0A8137"/>
<path fill-rule="evenodd" clip-rule="evenodd" d="M49.3735 17.7435L49.3648 20.1186C49.3648 20.9793 48.1691 21.4086 46.7186 21.4086C46.3316 21.4086 45.9663 21.3815 45.6368 21.3284V13.0474C45.9685 12.9954 46.3371 12.9715 46.7262 12.9715C48.1777 12.9715 49.3735 13.3585 49.3735 14.2192V17.7435ZM54.554 20.1652C54.5595 20.2552 54.5627 20.3473 54.5627 20.4395C54.5627 22.3712 53.3128 24.0092 51.5762 24.587C51.2586 24.6921 50.671 24.8254 50.1897 24.8254H45.6769L45.6422 32.3031H39.8134V9.62188C39.8134 9.62188 50.4282 9.58721 50.5756 9.6013C50.7924 9.62407 51.0071 9.66307 51.213 9.71511C53.0993 10.2008 54.5649 11.984 54.5649 14.0209C54.5649 14.1629 54.5616 14.4404 54.5616 14.4404V19.6275C54.5649 19.8129 54.5627 19.9918 54.554 20.1652Z" fill="#0A8137"/>
<path d="M95.5381 24.3094C95.2584 24.2823 94.7229 24.2953 94.7066 24.2953C93.9847 24.2953 92.7369 24.9663 92.7369 26.2574V26.8319C92.7369 28.0926 93.4882 28.7388 94.2242 28.7388C94.2687 28.7388 94.3121 28.7366 94.3478 28.7312L96.8888 28.7138L96.8736 32.3149L91.7277 32.2835C91.6399 32.2922 90.7 32.2369 90.4952 32.1621C88.8702 31.709 87.4436 30.1914 87.4436 28.2195V24.8883C87.4436 23.233 88.0854 22.2476 89.0534 21.608C89.2962 21.4497 89.5846 21.2654 89.8827 21.1689C91.2063 20.7483 92.6903 20.7689 94.195 20.7971L94.1354 20.6919L93.2215 19.0052C93.2215 19.0052 93.0936 18.8188 93.0015 18.7364C92.892 18.6388 92.7662 18.6344 92.7662 18.6344H87.9195V15.3867L95.8254 15.3672C96.0476 15.3672 96.2633 15.4279 96.3674 15.4691C97.5229 15.932 98.2536 17.2187 98.8401 18.3754L106.634 37.0544H101.613C100.906 36.8853 100.476 36.2088 100.173 35.6159L95.5381 24.3094Z" fill="#0A8137"/>
<path fill-rule="evenodd" clip-rule="evenodd" d="M77.7014 15.39L80.1242 15.3694V18.6345H77.735V27.6895C77.735 28.1014 78.0775 28.5925 78.5079 28.7497C79.103 28.9643 79.7491 28.9123 80.4039 28.9231V32.3313C80.4039 32.3313 77.1941 32.5612 75.5799 32.2164C74.458 31.978 73.4812 30.9047 72.9826 29.7871C72.6715 29.0901 72.5056 28.1058 72.5056 27.2396V18.6345H70.3625V15.4031H72.5056L72.4861 12.0686H77.7014V15.39Z" fill="#0A8137"/>
<path fill-rule="evenodd" clip-rule="evenodd" d="M146.861 32.7292C145.129 32.7292 143.722 31.3254 143.722 29.5931C143.722 27.8608 145.129 26.4548 146.861 26.4548C148.594 26.4548 150 27.8608 150 29.5931C150 31.3254 148.594 32.7292 146.861 32.7292ZM149.341 29.5931C149.341 28.2239 148.231 27.1117 146.861 27.1117C145.49 27.1117 144.38 28.2239 144.38 29.5931C144.38 30.9633 145.49 32.0722 146.861 32.0722C148.231 32.0722 149.341 30.9633 149.341 29.5931Z" fill="#0A8137"/>
<path fill-rule="evenodd" clip-rule="evenodd" d="M146.953 29.3101C147.302 29.3101 147.554 29.2494 147.554 28.844C147.554 28.4775 147.161 28.4374 146.877 28.4374H146.342V29.3101H146.953ZM145.652 27.9138H146.913C147.771 27.9138 148.246 28.1664 148.246 28.9122C148.246 29.5171 147.886 29.7567 147.367 29.799L147.339 29.8011L148.234 31.2711H147.529L146.719 29.8326H146.342V31.2711H145.652V27.9138Z" fill="#0A8137"/>
<path d="M81.45 32.2518H86.3218V9.15001H81.45V32.2518Z" fill="#0A8137"/>
</svg>
