<svg width="200" height="24" viewBox="0 0 200 24" fill="none" xmlns="http://www.w3.org/2000/svg">
<path d="M177.298 0C178.55 2.01135 179.708 4.0811 180.918 6.11841C178.569 6.12814 176.221 6.11841 173.875 6.12814C174.981 4.06812 176.156 2.04379 177.298 0ZM175.218 5.31711C176.646 5.31062 178.073 5.32036 179.5 5.30738C178.783 4.06488 178.06 2.82563 177.324 1.59286C176.62 2.83211 175.919 4.07461 175.218 5.31711ZM98.7056 2.96188C100.182 1.52474 102.381 1.17113 104.35 1.52149C106.936 2.07299 108.814 4.5515 108.821 7.17275C108.065 7.19546 107.312 7.19546 106.56 7.19221C106.404 5.60584 105.421 3.98053 103.786 3.61395C102.174 3.07542 100.247 3.90592 99.5361 5.45012C98.8419 6.79318 99.0073 8.71695 100.334 9.61232C102.154 10.8743 104.532 10.8191 106.417 11.9578C108.273 13.0251 109.376 15.1922 109.275 17.3171C109.22 19.6431 107.646 21.794 105.538 22.7186C102.998 23.8962 99.7308 23.2474 97.8589 21.1581C96.8078 20.0259 96.3082 18.4947 96.3018 16.9667C97.0511 16.9538 97.8038 16.9538 98.5532 16.957C98.7316 18.5823 99.6043 20.2206 101.181 20.8597C103.335 21.9173 106.261 20.6002 106.907 18.2903C107.51 16.7137 106.78 14.8548 105.44 13.8978C103.442 12.4801 100.694 12.7332 98.7965 11.1208C96.3504 9.1549 96.3958 5.01865 98.7056 2.96188ZM182.663 0.243309C183.906 -0.262774 185.463 0.0843471 186.29 1.16464C187.364 2.40714 187.221 4.49959 185.943 5.55069C184.441 7.0073 181.573 6.33901 180.921 4.33414C180.305 2.78994 181.084 0.833739 182.663 0.243309ZM182.897 1.10949C181.586 1.72912 181.155 3.63017 182.183 4.68775C183.101 5.83293 185.071 5.64152 185.778 4.36658C186.625 3.17599 185.852 1.2425 184.406 0.9927C183.903 0.846715 183.38 0.960259 182.897 1.10949ZM187.504 0.93755C187.718 0.736415 187.938 0.541768 188.162 0.347121C188.921 1.06732 189.651 1.81671 190.381 2.56285C191.134 1.77778 191.893 0.999189 192.685 0.249797C192.869 0.48013 193.058 0.713706 193.246 0.947283C192.506 1.70641 191.766 2.46877 191.007 3.20519C191.779 3.95134 192.548 4.70722 193.268 5.50851C193.1 5.65126 192.759 5.93674 192.59 6.07948C191.848 5.34306 191.108 4.6034 190.384 3.85401C189.658 4.59043 188.931 5.32035 188.198 6.04379C187.961 5.84915 187.728 5.6545 187.5 5.45336C188.23 4.691 188.977 3.94485 189.736 3.20843C188.98 2.46229 188.221 1.71938 187.504 0.93755ZM194.261 0.269262C196.172 0.266018 198.086 0.266018 200 0.269262V6.06001C198.086 6.05353 196.172 6.05353 194.258 6.05353C194.258 4.12652 194.251 2.19627 194.261 0.269262ZM195.118 1.09327C195.127 2.46877 195.121 3.84428 195.121 5.22303C196.477 5.22303 197.833 5.21006 199.192 5.23276C199.163 3.85401 199.176 2.47526 199.182 1.09651C197.826 1.09651 196.47 1.09976 195.118 1.09327ZM113.402 1.75507C114.131 1.74534 114.858 1.74209 115.588 1.73885C115.598 3.55555 115.601 5.37226 115.588 7.19221C116.795 7.18572 118.005 7.19221 119.212 7.18572C119.215 7.85077 119.215 8.51581 119.205 9.18086C118.002 9.19059 116.798 9.18086 115.595 9.18734V22.9327C114.861 22.9262 114.131 22.9294 113.402 22.9327C113.405 18.3487 113.402 13.7648 113.408 9.18086C112.321 9.18734 111.241 9.19383 110.157 9.17113C110.148 8.50933 110.151 7.84753 110.161 7.18572C111.241 7.19221 112.321 7.18897 113.401 7.18897C113.385 5.3755 113.389 3.56529 113.402 1.75507ZM151.715 1.74858C152.441 1.74534 153.171 1.74534 153.901 1.74858C153.914 8.81103 153.911 15.8735 153.904 22.9327C153.223 22.9294 152.545 22.9262 151.87 22.9229C151.864 21.9659 151.854 21.0089 151.893 20.0487C150.985 21.4306 149.622 22.5239 148.032 22.9976C146.041 23.5458 143.854 23.3479 141.969 22.5239C138.391 20.9213 136.545 16.4736 137.684 12.7721C138.492 9.77777 141.204 7.4712 144.247 6.99108C146.985 6.4558 150.063 7.44525 151.724 9.75182C151.685 7.08516 151.711 4.41849 151.715 1.74858ZM144.376 9.09002C142.096 9.55069 140.149 11.4193 139.685 13.7096C138.936 16.7299 140.834 20.2141 143.912 20.9635C147.296 22.1184 151.251 19.5328 151.705 16.0259C151.789 14.8646 151.828 13.6318 151.286 12.5645C150.18 9.97891 147.098 8.46066 144.376 9.09002ZM156.889 1.74534H159.007C159.011 2.93593 159.007 4.12328 159.011 5.31387C158.3 5.31387 157.59 5.31387 156.882 5.31711C156.882 4.12652 156.879 2.93593 156.889 1.74534ZM167.387 7.14679C170.994 6.05353 175.056 8.00973 176.743 11.309C178.151 13.927 177.872 17.3139 176.178 19.734C174.488 22.2676 171.257 23.7794 168.237 23.1663C165.366 22.7607 162.845 20.6326 161.865 17.9205C161.045 15.6756 161.285 13.0706 162.472 10.9976C163.523 9.13868 165.32 7.70478 167.387 7.14679ZM168.38 9.0738C165.492 9.59935 163.39 12.4801 163.539 15.3706C163.572 18.5012 166.397 21.2165 169.505 21.2392C171.747 21.2425 173.956 19.88 174.855 17.8037C175.523 16.5612 175.497 15.1143 175.387 13.7453C174.845 10.6472 171.449 8.37307 168.38 9.0738ZM121.236 7.18248C121.966 7.18897 122.696 7.18897 123.426 7.18248C123.468 10.352 123.374 13.5215 123.474 16.6877C123.507 18.6245 124.821 20.5288 126.738 21.0089C128.295 21.5701 130.073 21.0576 131.299 20.0032C132.49 18.9457 132.866 17.2717 132.863 15.7372C132.882 12.8856 132.85 10.0341 132.882 7.18248C133.586 7.18897 134.29 7.18897 134.994 7.18897C135.004 12.4347 135.001 17.6837 134.998 22.9294C134.31 22.9262 133.619 22.9262 132.931 22.9262C132.928 22.1444 132.915 21.3625 132.98 20.5839C131.87 22.6959 129.285 23.6788 127.007 23.2084C124.474 22.9716 122.128 21.0673 121.567 18.5564C121.34 17.4015 121.207 16.2238 121.226 15.0495C121.233 12.4282 121.213 9.80373 121.236 7.18248ZM156.889 7.18248C157.593 7.18572 158.297 7.18897 159.004 7.18897C159.014 12.4347 159.007 17.6837 159.007 22.9294C158.297 22.9294 157.593 22.9262 156.886 22.9294C156.882 17.6804 156.876 12.4315 156.889 7.18248Z" fill="white"/>
<path d="M9.07704 1.78104C10.7964 1.50854 12.5774 1.75834 14.3228 1.64804C14.4234 6.00489 14.3422 10.365 14.3682 14.7218C14.3358 16.4899 14.4623 18.3877 13.5085 19.9611C12 22.4688 8.82076 23.6756 5.99189 23.2441C4.06812 22.9359 2.08921 22.0049 1.09976 20.2498C0.337388 19.0138 0.113544 17.5475 0 16.1233C1.93025 16.0844 3.86375 16.0876 5.794 16.1233C5.90105 16.7559 5.8751 17.4664 6.30008 17.9919C6.81589 18.7381 8.1103 18.7218 8.60989 17.966C8.92133 17.4923 8.97648 16.8986 9.00892 16.3471C9.0738 11.4939 8.92133 6.631 9.07704 1.78104ZM22.3812 4.47042C22.7445 3.50367 23.1338 2.54341 23.6172 1.62857C24.9246 1.70319 26.2319 1.61884 27.5361 1.69345C27.9124 1.84593 27.9546 2.30659 28.1265 2.631C30.7607 9.40797 33.4728 16.1557 36.107 22.9327C34.1638 22.9489 32.2206 22.9457 30.2806 22.9359C29.9238 21.8913 29.5604 20.8467 29.1484 19.8248C26.777 19.8443 24.4055 19.867 22.0341 19.8119C21.5993 20.8565 21.2133 21.9205 20.7721 22.9651C18.8808 22.9262 16.9862 22.9457 15.0916 22.9424C15.4744 21.7064 15.9838 20.5126 16.4639 19.3123C18.4363 14.365 20.412 9.42094 22.3812 4.47042ZM23.5166 15.5426C24.9246 15.5361 26.3293 15.5329 27.7372 15.5394C27.0722 13.0803 26.3909 10.6213 25.515 8.22711C25.0414 10.7153 24.0454 13.0673 23.5166 15.5426ZM37.674 1.6675C41.0576 1.72914 44.4574 1.49556 47.828 1.91405C49.0997 2.09248 50.3779 2.55963 51.2928 3.49394C53.8264 5.81024 54.1508 9.87512 52.558 12.8143C51.6107 14.7056 49.5993 15.8865 47.5426 16.1492C45.9886 16.3309 44.4185 16.266 42.8581 16.2725C42.8418 18.4947 42.8678 20.7202 42.8386 22.9424C41.1127 22.9359 39.3901 22.9489 37.6642 22.9359C37.6253 15.8475 37.6156 8.7559 37.674 1.6675ZM42.8581 6.50772C42.8451 8.18818 42.8386 9.86863 42.8743 11.5491C44.253 11.5394 45.6675 11.6042 47.0105 11.2214C48.2757 10.6926 48.5969 9.12249 48.1849 7.93189C47.8215 7.18899 47.0559 6.70237 46.2449 6.59207C45.1224 6.44933 43.987 6.52395 42.8581 6.50772ZM59.7307 2.66344C59.9124 2.31957 60.0032 1.8589 60.4023 1.69021C61.6318 1.63506 62.8678 1.62208 64.0941 1.70967C64.4963 1.86215 64.6001 2.30335 64.7656 2.65371C67.4128 9.4177 70.1022 16.172 72.7461 22.9392C70.8029 22.9489 68.8629 22.9359 66.9197 22.9489C66.5466 21.9076 66.1833 20.8629 65.7972 19.8248C63.4193 19.8475 61.0413 19.8703 58.6634 19.8086C58.2319 20.8532 57.8459 21.9173 57.4014 22.9554C55.5134 22.9197 53.6285 22.9457 51.7437 22.9392C52.2141 21.3593 52.8889 19.854 53.4988 18.326C55.5653 13.0998 57.6512 7.88323 59.7307 2.66344ZM60.1784 15.5458C61.5766 15.5329 62.9716 15.5361 64.3666 15.5523C63.7437 13.0738 62.9878 10.631 62.1735 8.20764C61.6739 10.6991 60.6456 13.0479 60.1784 15.5458ZM74.3195 1.67074C75.6691 1.68048 77.0219 1.63506 78.3714 1.67074C78.9359 1.5572 79.1987 2.13465 79.4582 2.50773C81.9464 6.6602 84.519 10.764 87.004 14.9165C87.0657 10.498 86.8775 6.0795 86.9489 1.66426C88.6683 1.71292 90.4006 1.53125 92.107 1.82322C92.0421 8.85971 92.0941 15.8962 92.0778 22.9327C90.5239 22.9489 88.97 22.9392 87.416 22.9424C84.7039 18.6991 82.0567 14.4104 79.429 10.1119C79.3122 14.3812 79.4906 18.6537 79.4712 22.923C77.7518 22.9554 76.0357 22.9489 74.3195 22.9327C74.2773 15.8443 74.2709 8.7559 74.3195 1.67074Z" fill="#971010"/>
</svg>
