<svg width="500" height="401" viewBox="0 0 500 401" fill="none" xmlns="http://www.w3.org/2000/svg">
<rect width="500" height="401" rx="30" fill="#080808"/>
<path d="M123.384 34.5746C123.295 34.2869 123.173 34.0295 123.017 33.8022C122.864 33.5714 122.679 33.3743 122.463 33.2109C122.25 33.0476 122.005 32.9251 121.728 32.8434C121.451 32.7582 121.149 32.7156 120.822 32.7156C120.236 32.7156 119.714 32.8629 119.256 33.1577C118.798 33.4524 118.438 33.8857 118.175 34.4574C117.915 35.0256 117.786 35.718 117.786 36.5348C117.786 37.3587 117.915 38.0565 118.175 38.6282C118.434 39.1999 118.794 39.6349 119.256 39.9332C119.718 40.228 120.254 40.3754 120.865 40.3754C121.419 40.3754 121.898 40.2688 122.303 40.0558C122.711 39.8427 123.026 39.5408 123.246 39.1502C123.466 38.756 123.576 38.2944 123.576 37.7653L124.023 37.8345H121.062V36.2898H125.488V37.6001C125.488 38.5341 125.289 39.342 124.892 40.0238C124.494 40.7056 123.947 41.2312 123.251 41.6005C122.555 41.9663 121.756 42.1491 120.854 42.1491C119.849 42.1491 118.967 41.9237 118.207 41.4727C117.45 41.0181 116.859 40.3736 116.433 39.5391C116.01 38.701 115.799 37.7067 115.799 36.5561C115.799 35.6754 115.923 34.8888 116.172 34.1964C116.424 33.5039 116.776 32.9162 117.227 32.4332C117.678 31.9467 118.207 31.5774 118.814 31.3253C119.421 31.0696 120.082 30.9418 120.795 30.9418C121.399 30.9418 121.962 31.0305 122.484 31.2081C123.006 31.3821 123.469 31.6307 123.874 31.9538C124.283 32.277 124.618 32.6605 124.881 33.1044C125.144 33.5483 125.316 34.0384 125.398 34.5746H123.384ZM129.668 42.1651C129.15 42.1651 128.683 42.0728 128.267 41.8881C127.856 41.6999 127.529 41.4229 127.287 41.0572C127.049 40.6914 126.93 40.2404 126.93 39.7042C126.93 39.2425 127.016 38.8608 127.186 38.5589C127.357 38.2571 127.589 38.0156 127.884 37.8345C128.179 37.6534 128.511 37.5167 128.88 37.4244C129.253 37.3285 129.638 37.2592 130.036 37.2166C130.515 37.1669 130.904 37.1225 131.203 37.0835C131.501 37.0408 131.717 36.9769 131.852 36.8917C131.991 36.8029 132.06 36.6662 132.06 36.4815V36.4496C132.06 36.0483 131.941 35.7376 131.703 35.5174C131.465 35.2972 131.123 35.1871 130.675 35.1871C130.203 35.1871 129.828 35.2901 129.551 35.4961C129.278 35.7021 129.093 35.9453 128.997 36.2259L127.197 35.9702C127.339 35.473 127.573 35.0575 127.9 34.7237C128.227 34.3864 128.626 34.1342 129.098 33.9673C129.571 33.7969 130.093 33.7116 130.665 33.7116C131.059 33.7116 131.451 33.7578 131.842 33.8501C132.232 33.9425 132.589 34.0952 132.912 34.3082C133.236 34.5178 133.495 34.8036 133.69 35.1658C133.889 35.5281 133.988 35.9808 133.988 36.5241V42H132.135V40.8761H132.071C131.954 41.1033 131.788 41.3164 131.575 41.5153C131.366 41.7106 131.101 41.8686 130.782 41.9893C130.466 42.1065 130.095 42.1651 129.668 42.1651ZM130.169 40.7482C130.556 40.7482 130.892 40.6719 131.176 40.5192C131.46 40.3629 131.678 40.157 131.831 39.9013C131.987 39.6456 132.065 39.3668 132.065 39.065V38.1009C132.005 38.1506 131.902 38.1967 131.756 38.2393C131.614 38.282 131.455 38.3192 131.277 38.3512C131.1 38.3832 130.924 38.4116 130.75 38.4364C130.576 38.4613 130.425 38.4826 130.297 38.5004C130.009 38.5394 129.752 38.6033 129.525 38.6921C129.297 38.7809 129.118 38.9052 128.987 39.065C128.855 39.2212 128.79 39.4237 128.79 39.6722C128.79 40.0273 128.919 40.2955 129.178 40.4766C129.438 40.6577 129.768 40.7482 130.169 40.7482ZM142.394 35.9808L140.636 36.1726C140.586 35.995 140.499 35.8281 140.375 35.6719C140.254 35.5156 140.091 35.3896 139.885 35.2937C139.679 35.1978 139.427 35.1499 139.129 35.1499C138.727 35.1499 138.39 35.2369 138.117 35.4109C137.847 35.5849 137.714 35.8104 137.717 36.0874C137.714 36.3253 137.801 36.5188 137.978 36.668C138.159 36.8171 138.457 36.9396 138.873 37.0355L140.269 37.3338C141.043 37.5007 141.618 37.7653 141.994 38.1275C142.374 38.4897 142.566 38.9638 142.57 39.5497C142.566 40.0646 142.415 40.5192 142.117 40.9134C141.822 41.304 141.412 41.6094 140.886 41.8295C140.361 42.0497 139.757 42.1598 139.075 42.1598C138.074 42.1598 137.268 41.9503 136.657 41.5312C136.046 41.1087 135.682 40.521 135.565 39.7681L137.445 39.587C137.531 39.9563 137.712 40.2351 137.989 40.4233C138.266 40.6115 138.626 40.7056 139.07 40.7056C139.528 40.7056 139.896 40.6115 140.173 40.4233C140.453 40.2351 140.593 40.0025 140.593 39.7255C140.593 39.4911 140.503 39.2976 140.322 39.1449C140.144 38.9922 139.867 38.875 139.491 38.7933L138.095 38.5004C137.31 38.337 136.73 38.0618 136.353 37.6747C135.977 37.2841 135.791 36.7905 135.794 36.1939C135.791 35.6896 135.927 35.2528 136.204 34.8835C136.485 34.5107 136.874 34.223 137.371 34.0206C137.872 33.8146 138.449 33.7116 139.102 33.7116C140.061 33.7116 140.815 33.9158 141.366 34.3242C141.92 34.7326 142.263 35.2848 142.394 35.9808ZM148.245 33.8182V35.3097H143.542V33.8182H148.245ZM144.703 31.858H146.631V39.5391C146.631 39.7983 146.67 39.9972 146.748 40.1357C146.83 40.2706 146.937 40.3629 147.068 40.4126C147.199 40.4624 147.345 40.4872 147.505 40.4872C147.626 40.4872 147.736 40.4783 147.835 40.4606C147.938 40.4428 148.016 40.4268 148.07 40.4126L148.394 41.9201C148.291 41.9556 148.144 41.9947 147.952 42.0373C147.764 42.0799 147.533 42.1048 147.26 42.1119C146.777 42.1261 146.342 42.0533 145.955 41.8935C145.568 41.7301 145.261 41.478 145.033 41.1371C144.81 40.7962 144.699 40.37 144.703 39.8587V31.858ZM153.339 42.1598C152.54 42.1598 151.847 41.984 151.262 41.6325C150.676 41.2809 150.221 40.7891 149.898 40.157C149.578 39.5249 149.419 38.7862 149.419 37.9411C149.419 37.0959 149.578 36.3555 149.898 35.7198C150.221 35.0842 150.676 34.5906 151.262 34.239C151.847 33.8874 152.54 33.7116 153.339 33.7116C154.138 33.7116 154.83 33.8874 155.416 34.239C156.002 34.5906 156.455 35.0842 156.775 35.7198C157.098 36.3555 157.259 37.0959 157.259 37.9411C157.259 38.7862 157.098 39.5249 156.775 40.157C156.455 40.7891 156.002 41.2809 155.416 41.6325C154.83 41.984 154.138 42.1598 153.339 42.1598ZM153.35 40.6151C153.783 40.6151 154.145 40.4961 154.436 40.2582C154.727 40.0167 154.944 39.6935 155.086 39.2887C155.232 38.8839 155.305 38.4329 155.305 37.9357C155.305 37.435 155.232 36.9822 155.086 36.5774C154.944 36.169 154.727 35.8441 154.436 35.6026C154.145 35.3612 153.783 35.2404 153.35 35.2404C152.906 35.2404 152.536 35.3612 152.242 35.6026C151.95 35.8441 151.732 36.169 151.586 36.5774C151.444 36.9822 151.373 37.435 151.373 37.9357C151.373 38.4329 151.444 38.8839 151.586 39.2887C151.732 39.6935 151.95 40.0167 152.242 40.2582C152.536 40.4961 152.906 40.6151 153.35 40.6151ZM165.363 35.9808L163.605 36.1726C163.555 35.995 163.468 35.8281 163.344 35.6719C163.223 35.5156 163.06 35.3896 162.854 35.2937C162.648 35.1978 162.396 35.1499 162.097 35.1499C161.696 35.1499 161.359 35.2369 161.085 35.4109C160.815 35.5849 160.682 35.8104 160.686 36.0874C160.682 36.3253 160.769 36.5188 160.947 36.668C161.128 36.8171 161.426 36.9396 161.842 37.0355L163.237 37.3338C164.011 37.5007 164.587 37.7653 164.963 38.1275C165.343 38.4897 165.535 38.9638 165.538 39.5497C165.535 40.0646 165.384 40.5192 165.086 40.9134C164.791 41.304 164.381 41.6094 163.855 41.8295C163.33 42.0497 162.726 42.1598 162.044 42.1598C161.043 42.1598 160.237 41.9503 159.626 41.5312C159.015 41.1087 158.651 40.521 158.534 39.7681L160.414 39.587C160.499 39.9563 160.68 40.2351 160.957 40.4233C161.234 40.6115 161.595 40.7056 162.039 40.7056C162.497 40.7056 162.864 40.6115 163.141 40.4233C163.422 40.2351 163.562 40.0025 163.562 39.7255C163.562 39.4911 163.472 39.2976 163.291 39.1449C163.113 38.9922 162.836 38.875 162.46 38.7933L161.064 38.5004C160.279 38.337 159.699 38.0618 159.322 37.6747C158.946 37.2841 158.759 36.7905 158.763 36.1939C158.759 35.6896 158.896 35.2528 159.173 34.8835C159.454 34.5107 159.842 34.223 160.34 34.0206C160.84 33.8146 161.417 33.7116 162.071 33.7116C163.03 33.7116 163.784 33.9158 164.335 34.3242C164.889 34.7326 165.231 35.2848 165.363 35.9808ZM170.849 42V33.8182H172.692V35.2085H172.788C172.959 34.7397 173.241 34.3739 173.635 34.1112C174.029 33.8448 174.5 33.7116 175.047 33.7116C175.601 33.7116 176.068 33.8466 176.448 34.1165C176.831 34.3828 177.101 34.7468 177.257 35.2085H177.342C177.524 34.7539 177.829 34.3917 178.259 34.1218C178.692 33.8484 179.205 33.7116 179.798 33.7116C180.551 33.7116 181.165 33.9496 181.641 34.4254C182.117 34.9013 182.355 35.5955 182.355 36.5082V42H180.421V36.8065C180.421 36.2987 180.286 35.9276 180.016 35.6932C179.747 35.4553 179.416 35.3363 179.026 35.3363C178.56 35.3363 178.196 35.4819 177.934 35.7731C177.674 36.0607 177.545 36.4354 177.545 36.897V42H175.654V36.7266C175.654 36.304 175.526 35.9666 175.27 35.7145C175.018 35.4624 174.688 35.3363 174.28 35.3363C174.003 35.3363 173.75 35.4073 173.523 35.5494C173.296 35.6879 173.115 35.8849 172.98 36.1406C172.845 36.3928 172.777 36.6875 172.777 37.0249V42H170.849ZM187.933 42.1598C187.113 42.1598 186.404 41.9893 185.808 41.6484C185.215 41.304 184.759 40.8175 184.439 40.1889C184.119 39.5568 183.96 38.8129 183.96 37.957C183.96 37.1154 184.119 36.3768 184.439 35.7411C184.762 35.1019 185.213 34.6048 185.792 34.2496C186.371 33.891 187.051 33.7116 187.832 33.7116C188.336 33.7116 188.812 33.7933 189.26 33.9567C189.711 34.1165 190.108 34.3651 190.453 34.7024C190.801 35.0398 191.074 35.4695 191.273 35.9915C191.472 36.5099 191.571 37.1278 191.571 37.8452V38.4364H184.865V37.1367H189.723C189.719 36.7674 189.64 36.4389 189.483 36.1513C189.327 35.8601 189.109 35.631 188.828 35.4641C188.551 35.2972 188.228 35.2138 187.859 35.2138C187.464 35.2138 187.118 35.3097 186.82 35.5014C186.522 35.6896 186.289 35.9382 186.122 36.2472C185.959 36.5526 185.875 36.8881 185.872 37.2539V38.3885C185.872 38.8643 185.959 39.2727 186.133 39.6136C186.307 39.951 186.55 40.2102 186.863 40.3913C187.175 40.5689 187.541 40.6577 187.96 40.6577C188.24 40.6577 188.494 40.6186 188.722 40.5405C188.949 40.4588 189.146 40.3398 189.313 40.1836C189.48 40.0273 189.606 39.8338 189.691 39.603L191.491 39.8054C191.378 40.2812 191.161 40.6967 190.842 41.0518C190.526 41.4034 190.121 41.6768 189.627 41.8722C189.134 42.0639 188.569 42.1598 187.933 42.1598ZM195.131 37.206V42H193.203V33.8182H195.046V35.2085H195.142C195.33 34.7504 195.63 34.3864 196.042 34.1165C196.457 33.8466 196.97 33.7116 197.581 33.7116C198.146 33.7116 198.638 33.8324 199.057 34.0739C199.479 34.3153 199.806 34.6651 200.037 35.1232C200.271 35.5813 200.387 36.1371 200.383 36.7905V42H198.455V37.0888C198.455 36.5419 198.313 36.114 198.029 35.805C197.748 35.4961 197.359 35.3416 196.862 35.3416C196.525 35.3416 196.225 35.4162 195.962 35.5653C195.703 35.7109 195.498 35.9222 195.349 36.1992C195.204 36.4762 195.131 36.8118 195.131 37.206ZM208.81 35.9808L207.052 36.1726C207.002 35.995 206.915 35.8281 206.791 35.6719C206.67 35.5156 206.507 35.3896 206.301 35.2937C206.095 35.1978 205.843 35.1499 205.545 35.1499C205.143 35.1499 204.806 35.2369 204.533 35.4109C204.263 35.5849 204.13 35.8104 204.133 36.0874C204.13 36.3253 204.217 36.5188 204.394 36.668C204.575 36.8171 204.873 36.9396 205.289 37.0355L206.685 37.3338C207.459 37.5007 208.034 37.7653 208.41 38.1275C208.79 38.4897 208.982 38.9638 208.986 39.5497C208.982 40.0646 208.831 40.5192 208.533 40.9134C208.238 41.304 207.828 41.6094 207.302 41.8295C206.777 42.0497 206.173 42.1598 205.491 42.1598C204.49 42.1598 203.684 41.9503 203.073 41.5312C202.462 41.1087 202.098 40.521 201.981 39.7681L203.861 39.587C203.947 39.9563 204.128 40.2351 204.405 40.4233C204.682 40.6115 205.042 40.7056 205.486 40.7056C205.944 40.7056 206.312 40.6115 206.589 40.4233C206.869 40.2351 207.009 40.0025 207.009 39.7255C207.009 39.4911 206.919 39.2976 206.738 39.1449C206.56 38.9922 206.283 38.875 205.907 38.7933L204.511 38.5004C203.726 38.337 203.146 38.0618 202.769 37.6747C202.393 37.2841 202.207 36.7905 202.21 36.1939C202.207 35.6896 202.343 35.2528 202.62 34.8835C202.901 34.5107 203.29 34.223 203.787 34.0206C204.288 33.8146 204.865 33.7116 205.518 33.7116C206.477 33.7116 207.231 33.9158 207.782 34.3242C208.336 34.7326 208.679 35.2848 208.81 35.9808ZM212.93 42.1651C212.412 42.1651 211.945 42.0728 211.529 41.8881C211.117 41.6999 210.791 41.4229 210.549 41.0572C210.311 40.6914 210.192 40.2404 210.192 39.7042C210.192 39.2425 210.277 38.8608 210.448 38.5589C210.618 38.2571 210.851 38.0156 211.146 37.8345C211.44 37.6534 211.772 37.5167 212.142 37.4244C212.515 37.3285 212.9 37.2592 213.298 37.2166C213.777 37.1669 214.166 37.1225 214.464 37.0835C214.763 37.0408 214.979 36.9769 215.114 36.8917C215.253 36.8029 215.322 36.6662 215.322 36.4815V36.4496C215.322 36.0483 215.203 35.7376 214.965 35.5174C214.727 35.2972 214.384 35.1871 213.937 35.1871C213.465 35.1871 213.09 35.2901 212.813 35.4961C212.54 35.7021 212.355 35.9453 212.259 36.2259L210.459 35.9702C210.601 35.473 210.835 35.0575 211.162 34.7237C211.488 34.3864 211.888 34.1342 212.36 33.9673C212.832 33.7969 213.354 33.7116 213.926 33.7116C214.32 33.7116 214.713 33.7578 215.103 33.8501C215.494 33.9425 215.851 34.0952 216.174 34.3082C216.497 34.5178 216.756 34.8036 216.952 35.1658C217.151 35.5281 217.25 35.9808 217.25 36.5241V42H215.396V40.8761H215.332C215.215 41.1033 215.05 41.3164 214.837 41.5153C214.628 41.7106 214.363 41.8686 214.043 41.9893C213.727 42.1065 213.356 42.1651 212.93 42.1651ZM213.431 40.7482C213.818 40.7482 214.153 40.6719 214.438 40.5192C214.722 40.3629 214.94 40.157 215.093 39.9013C215.249 39.6456 215.327 39.3668 215.327 39.065V38.1009C215.267 38.1506 215.164 38.1967 215.018 38.2393C214.876 38.282 214.716 38.3192 214.539 38.3512C214.361 38.3832 214.185 38.4116 214.011 38.4364C213.837 38.4613 213.687 38.4826 213.559 38.5004C213.271 38.5394 213.014 38.6033 212.786 38.6921C212.559 38.7809 212.38 38.9052 212.248 39.065C212.117 39.2212 212.051 39.4237 212.051 39.6722C212.051 40.0273 212.181 40.2955 212.44 40.4766C212.699 40.6577 213.03 40.7482 213.431 40.7482ZM219.189 42V33.8182H221.117V42H219.189ZM220.158 32.657C219.853 32.657 219.59 32.5558 219.37 32.3533C219.15 32.1474 219.04 31.9006 219.04 31.6129C219.04 31.3217 219.15 31.0749 219.37 30.8725C219.59 30.6665 219.853 30.5636 220.158 30.5636C220.467 30.5636 220.73 30.6665 220.947 30.8725C221.167 31.0749 221.277 31.3217 221.277 31.6129C221.277 31.9006 221.167 32.1474 220.947 32.3533C220.73 32.5558 220.467 32.657 220.158 32.657ZM229.567 35.9808L227.809 36.1726C227.759 35.995 227.672 35.8281 227.548 35.6719C227.427 35.5156 227.264 35.3896 227.058 35.2937C226.852 35.1978 226.6 35.1499 226.301 35.1499C225.9 35.1499 225.563 35.2369 225.289 35.4109C225.02 35.5849 224.886 35.8104 224.89 36.0874C224.886 36.3253 224.973 36.5188 225.151 36.668C225.332 36.8171 225.63 36.9396 226.046 37.0355L227.441 37.3338C228.216 37.5007 228.791 37.7653 229.167 38.1275C229.547 38.4897 229.739 38.9638 229.743 39.5497C229.739 40.0646 229.588 40.5192 229.29 40.9134C228.995 41.304 228.585 41.6094 228.059 41.8295C227.534 42.0497 226.93 42.1598 226.248 42.1598C225.247 42.1598 224.441 41.9503 223.83 41.5312C223.219 41.1087 222.855 40.521 222.738 39.7681L224.618 39.587C224.703 39.9563 224.885 40.2351 225.162 40.4233C225.439 40.6115 225.799 40.7056 226.243 40.7056C226.701 40.7056 227.069 40.6115 227.346 40.4233C227.626 40.2351 227.766 40.0025 227.766 39.7255C227.766 39.4911 227.676 39.2976 227.495 39.1449C227.317 38.9922 227.04 38.875 226.664 38.7933L225.268 38.5004C224.483 38.337 223.903 38.0618 223.526 37.6747C223.15 37.2841 222.963 36.7905 222.967 36.1939C222.963 35.6896 223.1 35.2528 223.377 34.8835C223.658 34.5107 224.047 34.223 224.544 34.0206C225.044 33.8146 225.621 33.7116 226.275 33.7116C227.234 33.7116 227.988 33.9158 228.539 34.3242C229.093 34.7326 229.435 35.2848 229.567 35.9808ZM240.012 35.7518V37.3391H235.101V35.7518H240.012ZM247.247 42H245.138L248.979 31.0909H251.418L255.264 42H253.155L250.241 33.3281H250.156L247.247 42ZM247.317 37.7227H253.07V39.31H247.317V37.7227ZM258.544 37.206V42H256.616V33.8182H258.459V35.2085H258.555C258.743 34.7504 259.043 34.3864 259.455 34.1165C259.87 33.8466 260.384 33.7116 260.994 33.7116C261.559 33.7116 262.051 33.8324 262.47 34.0739C262.892 34.3153 263.219 34.6651 263.45 35.1232C263.684 35.5813 263.8 36.1371 263.796 36.7905V42H261.868V37.0888C261.868 36.5419 261.726 36.114 261.442 35.805C261.161 35.4961 260.772 35.3416 260.275 35.3416C259.938 35.3416 259.638 35.4162 259.375 35.5653C259.116 35.7109 258.912 35.9222 258.762 36.1992C258.617 36.4762 258.544 36.8118 258.544 37.206ZM268.111 42.1651C267.592 42.1651 267.125 42.0728 266.71 41.8881C266.298 41.6999 265.971 41.4229 265.73 41.0572C265.492 40.6914 265.373 40.2404 265.373 39.7042C265.373 39.2425 265.458 38.8608 265.629 38.5589C265.799 38.2571 266.032 38.0156 266.326 37.8345C266.621 37.6534 266.953 37.5167 267.322 37.4244C267.695 37.3285 268.081 37.2592 268.478 37.2166C268.958 37.1669 269.347 37.1225 269.645 37.0835C269.943 37.0408 270.16 36.9769 270.295 36.8917C270.433 36.8029 270.502 36.6662 270.502 36.4815V36.4496C270.502 36.0483 270.384 35.7376 270.146 35.5174C269.908 35.2972 269.565 35.1871 269.118 35.1871C268.645 35.1871 268.271 35.2901 267.994 35.4961C267.72 35.7021 267.536 35.9453 267.44 36.2259L265.639 35.9702C265.781 35.473 266.016 35.0575 266.342 34.7237C266.669 34.3864 267.069 34.1342 267.541 33.9673C268.013 33.7969 268.535 33.7116 269.107 33.7116C269.501 33.7116 269.893 33.7578 270.284 33.8501C270.675 33.9425 271.032 34.0952 271.355 34.3082C271.678 34.5178 271.937 34.8036 272.132 35.1658C272.331 35.5281 272.431 35.9808 272.431 36.5241V42H270.577V40.8761H270.513C270.396 41.1033 270.231 41.3164 270.018 41.5153C269.808 41.7106 269.544 41.8686 269.224 41.9893C268.908 42.1065 268.537 42.1651 268.111 42.1651ZM268.612 40.7482C268.999 40.7482 269.334 40.6719 269.618 40.5192C269.902 40.3629 270.121 40.157 270.273 39.9013C270.43 39.6456 270.508 39.3668 270.508 39.065V38.1009C270.447 38.1506 270.344 38.1967 270.199 38.2393C270.057 38.282 269.897 38.3192 269.719 38.3512C269.542 38.3832 269.366 38.4116 269.192 38.4364C269.018 38.4613 268.867 38.4826 268.739 38.5004C268.452 38.5394 268.194 38.6033 267.967 38.6921C267.74 38.7809 267.56 38.9052 267.429 39.065C267.298 39.2212 267.232 39.4237 267.232 39.6722C267.232 40.0273 267.362 40.2955 267.621 40.4766C267.88 40.6577 268.21 40.7482 268.612 40.7482ZM268.452 32.7422L269.645 30.3079H271.531L269.895 32.7422H268.452ZM276.298 31.0909V42H274.37V31.0909H276.298ZM278.281 42V33.8182H280.209V42H278.281ZM279.25 32.657C278.945 32.657 278.682 32.5558 278.462 32.3533C278.242 32.1474 278.132 31.9006 278.132 31.6129C278.132 31.3217 278.242 31.0749 278.462 30.8725C278.682 30.6665 278.945 30.5636 279.25 30.5636C279.559 30.5636 279.822 30.6665 280.039 30.8725C280.259 31.0749 280.369 31.3217 280.369 31.6129C280.369 31.9006 280.259 32.1474 280.039 32.3533C279.822 32.5558 279.559 32.657 279.25 32.657ZM288.659 35.9808L286.901 36.1726C286.851 35.995 286.764 35.8281 286.64 35.6719C286.519 35.5156 286.356 35.3896 286.15 35.2937C285.944 35.1978 285.692 35.1499 285.393 35.1499C284.992 35.1499 284.655 35.2369 284.381 35.4109C284.111 35.5849 283.978 35.8104 283.982 36.0874C283.978 36.3253 284.065 36.5188 284.243 36.668C284.424 36.8171 284.722 36.9396 285.138 37.0355L286.533 37.3338C287.307 37.5007 287.883 37.7653 288.259 38.1275C288.639 38.4897 288.831 38.9638 288.834 39.5497C288.831 40.0646 288.68 40.5192 288.382 40.9134C288.087 41.304 287.677 41.6094 287.151 41.8295C286.626 42.0497 286.022 42.1598 285.34 42.1598C284.339 42.1598 283.532 41.9503 282.922 41.5312C282.311 41.1087 281.947 40.521 281.83 39.7681L283.71 39.587C283.795 39.9563 283.976 40.2351 284.253 40.4233C284.53 40.6115 284.891 40.7056 285.335 40.7056C285.793 40.7056 286.16 40.6115 286.437 40.4233C286.718 40.2351 286.858 40.0025 286.858 39.7255C286.858 39.4911 286.768 39.2976 286.586 39.1449C286.409 38.9922 286.132 38.875 285.756 38.7933L284.36 38.5004C283.575 38.337 282.994 38.0618 282.618 37.6747C282.242 37.2841 282.055 36.7905 282.059 36.1939C282.055 35.6896 282.192 35.2528 282.469 34.8835C282.749 34.5107 283.138 34.223 283.635 34.0206C284.136 33.8146 284.713 33.7116 285.367 33.7116C286.325 33.7116 287.08 33.9158 287.631 34.3242C288.184 34.7326 288.527 35.2848 288.659 35.9808ZM294.047 42.1598C293.226 42.1598 292.518 41.9893 291.921 41.6484C291.328 41.304 290.872 40.8175 290.552 40.1889C290.233 39.5568 290.073 38.8129 290.073 37.957C290.073 37.1154 290.233 36.3768 290.552 35.7411C290.875 35.1019 291.326 34.6048 291.905 34.2496C292.484 33.891 293.164 33.7116 293.945 33.7116C294.45 33.7116 294.925 33.7933 295.373 33.9567C295.824 34.1165 296.222 34.3651 296.566 34.7024C296.914 35.0398 297.188 35.4695 297.386 35.9915C297.585 36.5099 297.685 37.1278 297.685 37.8452V38.4364H290.978V37.1367H295.836C295.833 36.7674 295.753 36.4389 295.597 36.1513C295.44 35.8601 295.222 35.631 294.941 35.4641C294.664 35.2972 294.341 35.2138 293.972 35.2138C293.578 35.2138 293.232 35.3097 292.933 35.5014C292.635 35.6896 292.402 35.9382 292.235 36.2472C292.072 36.5526 291.989 36.8881 291.985 37.2539V38.3885C291.985 38.8643 292.072 39.2727 292.246 39.6136C292.42 39.951 292.663 40.2102 292.976 40.3913C293.288 40.5689 293.654 40.6577 294.073 40.6577C294.354 40.6577 294.608 40.6186 294.835 40.5405C295.062 40.4588 295.259 40.3398 295.426 40.1836C295.593 40.0273 295.719 39.8338 295.804 39.603L297.605 39.8054C297.491 40.2812 297.275 40.6967 296.955 41.0518C296.639 41.4034 296.234 41.6768 295.74 41.8722C295.247 42.0639 294.682 42.1598 294.047 42.1598ZM303.037 45.0682V33.8182H304.933V35.1712H305.045C305.144 34.9723 305.285 34.761 305.466 34.5373C305.647 34.31 305.892 34.1165 306.201 33.9567C306.51 33.7933 306.904 33.7116 307.383 33.7116C308.015 33.7116 308.585 33.8732 309.093 34.1964C309.604 34.516 310.009 34.9901 310.308 35.6186C310.609 36.2436 310.76 37.0107 310.76 37.9197C310.76 38.8182 310.613 39.5817 310.318 40.2102C310.024 40.8388 309.622 41.3182 309.114 41.6484C308.607 41.9787 308.031 42.1438 307.389 42.1438C306.92 42.1438 306.531 42.0657 306.222 41.9094C305.913 41.7532 305.665 41.565 305.476 41.3448C305.292 41.1211 305.148 40.9098 305.045 40.7109H304.965V45.0682H303.037ZM304.928 37.9091C304.928 38.4382 305.002 38.9016 305.151 39.2994C305.304 39.6971 305.522 40.0078 305.807 40.2315C306.094 40.4517 306.442 40.5618 306.851 40.5618C307.277 40.5618 307.634 40.4482 307.921 40.2209C308.209 39.9901 308.426 39.6758 308.571 39.2781C308.72 38.8768 308.795 38.4205 308.795 37.9091C308.795 37.4013 308.722 36.9503 308.576 36.5561C308.431 36.1619 308.214 35.853 307.927 35.6293C307.639 35.4055 307.28 35.2937 306.851 35.2937C306.439 35.2937 306.089 35.402 305.801 35.6186C305.514 35.8352 305.295 36.1388 305.146 36.5295C305 36.9201 304.928 37.38 304.928 37.9091ZM315.981 42.1598C315.182 42.1598 314.489 41.984 313.903 41.6325C313.317 41.2809 312.863 40.7891 312.54 40.157C312.22 39.5249 312.06 38.7862 312.06 37.9411C312.06 37.0959 312.22 36.3555 312.54 35.7198C312.863 35.0842 313.317 34.5906 313.903 34.239C314.489 33.8874 315.182 33.7116 315.981 33.7116C316.78 33.7116 317.472 33.8874 318.058 34.239C318.644 34.5906 319.097 35.0842 319.416 35.7198C319.739 36.3555 319.901 37.0959 319.901 37.9411C319.901 38.7862 319.739 39.5249 319.416 40.157C319.097 40.7891 318.644 41.2809 318.058 41.6325C317.472 41.984 316.78 42.1598 315.981 42.1598ZM315.991 40.6151C316.424 40.6151 316.787 40.4961 317.078 40.2582C317.369 40.0167 317.586 39.6935 317.728 39.2887C317.873 38.8839 317.946 38.4329 317.946 37.9357C317.946 37.435 317.873 36.9822 317.728 36.5774C317.586 36.169 317.369 35.8441 317.078 35.6026C316.787 35.3612 316.424 35.2404 315.991 35.2404C315.547 35.2404 315.178 35.3612 314.883 35.6026C314.592 35.8441 314.374 36.169 314.228 36.5774C314.086 36.9822 314.015 37.435 314.015 37.9357C314.015 38.4329 314.086 38.8839 314.228 39.2887C314.374 39.6935 314.592 40.0167 314.883 40.2582C315.178 40.4961 315.547 40.6151 315.991 40.6151ZM321.538 42V33.8182H323.407V35.1818H323.493C323.642 34.7095 323.897 34.3455 324.26 34.0898C324.625 33.8306 325.043 33.701 325.511 33.701C325.618 33.701 325.737 33.7063 325.868 33.717C326.003 33.7241 326.115 33.7365 326.204 33.7543V35.5281C326.122 35.4996 325.993 35.4748 325.815 35.4535C325.641 35.4286 325.472 35.4162 325.309 35.4162C324.957 35.4162 324.641 35.4925 324.361 35.6452C324.084 35.7944 323.865 36.0021 323.706 36.2685C323.546 36.5348 323.466 36.842 323.466 37.19V42H321.538ZM331.291 42V31.0909H333.219V35.1712H333.299C333.398 34.9723 333.539 34.761 333.72 34.5373C333.901 34.31 334.146 34.1165 334.455 33.9567C334.764 33.7933 335.158 33.7116 335.637 33.7116C336.27 33.7116 336.839 33.8732 337.347 34.1964C337.859 34.516 338.263 34.9901 338.562 35.6186C338.864 36.2436 339.015 37.0107 339.015 37.9197C339.015 38.8182 338.867 39.5817 338.572 40.2102C338.278 40.8388 337.876 41.3182 337.369 41.6484C336.861 41.9787 336.286 42.1438 335.643 42.1438C335.174 42.1438 334.785 42.0657 334.476 41.9094C334.167 41.7532 333.919 41.565 333.73 41.3448C333.546 41.1211 333.402 40.9098 333.299 40.7109H333.187V42H331.291ZM333.182 37.9091C333.182 38.4382 333.256 38.9016 333.406 39.2994C333.558 39.6971 333.777 40.0078 334.061 40.2315C334.348 40.4517 334.696 40.5618 335.105 40.5618C335.531 40.5618 335.888 40.4482 336.175 40.2209C336.463 39.9901 336.68 39.6758 336.825 39.2781C336.974 38.8768 337.049 38.4205 337.049 37.9091C337.049 37.4013 336.976 36.9503 336.831 36.5561C336.685 36.1619 336.468 35.853 336.181 35.6293C335.893 35.4055 335.534 35.2937 335.105 35.2937C334.693 35.2937 334.343 35.402 334.055 35.6186C333.768 35.8352 333.549 36.1388 333.4 36.5295C333.255 36.9201 333.182 37.38 333.182 37.9091ZM344.223 42.1598C343.424 42.1598 342.731 41.984 342.145 41.6325C341.559 41.2809 341.105 40.7891 340.782 40.157C340.462 39.5249 340.302 38.7862 340.302 37.9411C340.302 37.0959 340.462 36.3555 340.782 35.7198C341.105 35.0842 341.559 34.5906 342.145 34.239C342.731 33.8874 343.424 33.7116 344.223 33.7116C345.022 33.7116 345.714 33.8874 346.3 34.239C346.886 34.5906 347.339 35.0842 347.658 35.7198C347.982 36.3555 348.143 37.0959 348.143 37.9411C348.143 38.7862 347.982 39.5249 347.658 40.157C347.339 40.7891 346.886 41.2809 346.3 41.6325C345.714 41.984 345.022 42.1598 344.223 42.1598ZM344.233 40.6151C344.667 40.6151 345.029 40.4961 345.32 40.2582C345.611 40.0167 345.828 39.6935 345.97 39.2887C346.116 38.8839 346.188 38.4329 346.188 37.9357C346.188 37.435 346.116 36.9822 345.97 36.5774C345.828 36.169 345.611 35.8441 345.32 35.6026C345.029 35.3612 344.667 35.2404 344.233 35.2404C343.79 35.2404 343.42 35.3612 343.125 35.6026C342.834 35.8441 342.616 36.169 342.47 36.5774C342.328 36.9822 342.257 37.435 342.257 37.9357C342.257 38.4329 342.328 38.8839 342.47 39.2887C342.616 39.6935 342.834 40.0167 343.125 40.2582C343.42 40.4961 343.79 40.6151 344.233 40.6151ZM351.708 31.0909V42H349.78V31.0909H351.708ZM357.313 42.1598C356.493 42.1598 355.784 41.9893 355.188 41.6484C354.595 41.304 354.138 40.8175 353.819 40.1889C353.499 39.5568 353.339 38.8129 353.339 37.957C353.339 37.1154 353.499 36.3768 353.819 35.7411C354.142 35.1019 354.593 34.6048 355.172 34.2496C355.751 33.891 356.431 33.7116 357.212 33.7116C357.716 33.7116 358.192 33.7933 358.639 33.9567C359.09 34.1165 359.488 34.3651 359.833 34.7024C360.181 35.0398 360.454 35.4695 360.653 35.9915C360.852 36.5099 360.951 37.1278 360.951 37.8452V38.4364H354.245V37.1367H359.103C359.099 36.7674 359.019 36.4389 358.863 36.1513C358.707 35.8601 358.489 35.631 358.208 35.4641C357.931 35.2972 357.608 35.2138 357.239 35.2138C356.844 35.2138 356.498 35.3097 356.2 35.5014C355.902 35.6896 355.669 35.9382 355.502 36.2472C355.339 36.5526 355.255 36.8881 355.252 37.2539V38.3885C355.252 38.8643 355.339 39.2727 355.513 39.6136C355.687 39.951 355.93 40.2102 356.242 40.3913C356.555 40.5689 356.921 40.6577 357.34 40.6577C357.62 40.6577 357.874 40.6186 358.101 40.5405C358.329 40.4588 358.526 40.3398 358.693 40.1836C358.86 40.0273 358.986 39.8338 359.071 39.603L360.871 39.8054C360.758 40.2812 360.541 40.6967 360.222 41.0518C359.905 41.4034 359.501 41.6768 359.007 41.8722C358.513 42.0639 357.949 42.1598 357.313 42.1598ZM366.668 33.8182V35.3097H361.965V33.8182H366.668ZM363.126 31.858H365.054V39.5391C365.054 39.7983 365.093 39.9972 365.171 40.1357C365.253 40.2706 365.36 40.3629 365.491 40.4126C365.622 40.4624 365.768 40.4872 365.928 40.4872C366.048 40.4872 366.159 40.4783 366.258 40.4606C366.361 40.4428 366.439 40.4268 366.492 40.4126L366.817 41.9201C366.714 41.9556 366.567 41.9947 366.375 42.0373C366.187 42.0799 365.956 42.1048 365.683 42.1119C365.2 42.1261 364.765 42.0533 364.378 41.8935C363.991 41.7301 363.683 41.478 363.456 41.1371C363.232 40.7962 363.122 40.37 363.126 39.8587V31.858ZM371.762 42.1598C370.963 42.1598 370.27 41.984 369.684 41.6325C369.098 41.2809 368.644 40.7891 368.321 40.157C368.001 39.5249 367.841 38.7862 367.841 37.9411C367.841 37.0959 368.001 36.3555 368.321 35.7198C368.644 35.0842 369.098 34.5906 369.684 34.239C370.27 33.8874 370.963 33.7116 371.762 33.7116C372.561 33.7116 373.253 33.8874 373.839 34.239C374.425 34.5906 374.878 35.0842 375.198 35.7198C375.521 36.3555 375.682 37.0959 375.682 37.9411C375.682 38.7862 375.521 39.5249 375.198 40.157C374.878 40.7891 374.425 41.2809 373.839 41.6325C373.253 41.984 372.561 42.1598 371.762 42.1598ZM371.772 40.6151C372.206 40.6151 372.568 40.4961 372.859 40.2582C373.15 40.0167 373.367 39.6935 373.509 39.2887C373.655 38.8839 373.727 38.4329 373.727 37.9357C373.727 37.435 373.655 36.9822 373.509 36.5774C373.367 36.169 373.15 35.8441 372.859 35.6026C372.568 35.3612 372.206 35.2404 371.772 35.2404C371.329 35.2404 370.959 35.3612 370.665 35.6026C370.373 35.8441 370.155 36.169 370.009 36.5774C369.867 36.9822 369.796 37.435 369.796 37.9357C369.796 38.4329 369.867 38.8839 370.009 39.2887C370.155 39.6935 370.373 40.0167 370.665 40.2582C370.959 40.4961 371.329 40.6151 371.772 40.6151ZM383.786 35.9808L382.028 36.1726C381.978 35.995 381.891 35.8281 381.767 35.6719C381.646 35.5156 381.483 35.3896 381.277 35.2937C381.071 35.1978 380.819 35.1499 380.52 35.1499C380.119 35.1499 379.782 35.2369 379.508 35.4109C379.238 35.5849 379.105 35.8104 379.109 36.0874C379.105 36.3253 379.192 36.5188 379.37 36.668C379.551 36.8171 379.849 36.9396 380.265 37.0355L381.66 37.3338C382.434 37.5007 383.01 37.7653 383.386 38.1275C383.766 38.4897 383.958 38.9638 383.961 39.5497C383.958 40.0646 383.807 40.5192 383.509 40.9134C383.214 41.304 382.804 41.6094 382.278 41.8295C381.752 42.0497 381.149 42.1598 380.467 42.1598C379.466 42.1598 378.659 41.9503 378.049 41.5312C377.438 41.1087 377.074 40.521 376.957 39.7681L378.837 39.587C378.922 39.9563 379.103 40.2351 379.38 40.4233C379.657 40.6115 380.018 40.7056 380.462 40.7056C380.92 40.7056 381.287 40.6115 381.564 40.4233C381.845 40.2351 381.985 40.0025 381.985 39.7255C381.985 39.4911 381.895 39.2976 381.713 39.1449C381.536 38.9922 381.259 38.875 380.882 38.7933L379.487 38.5004C378.702 38.337 378.121 38.0618 377.745 37.6747C377.369 37.2841 377.182 36.7905 377.186 36.1939C377.182 35.6896 377.319 35.2528 377.596 34.8835C377.876 34.5107 378.265 34.223 378.762 34.0206C379.263 33.8146 379.84 33.7116 380.494 33.7116C381.452 33.7116 382.207 33.9158 382.757 34.3242C383.311 34.7326 383.654 35.2848 383.786 35.9808Z" fill="white"/>
<path d="M44.7199 87.8613C62.4987 96.7864 98.6963 114.637 101.256 114.637C103.817 114.637 116.546 114.637 122.591 114.637L174.861 99.6424L219.663 127.489H245.265L290.067 95.3584L312.468 102.855L380.739 149.98L396.74 142.483L436.209 72.8672" stroke="#A9DFD8" stroke-width="1.14674" stroke-linecap="round"/>
<path d="M101.256 115.708L44.7199 88.933V204.556H437.276V72.8672L396.346 143.848L380.739 151.052L312.468 103.927L290.067 96.4301L245.265 128.56H232.464H219.663L174.861 100.714L122.591 115.708H101.256Z" fill="url(#paint0_linear_495_411)"/>
<ellipse cx="44.7217" cy="87.811" rx="3.72171" ry="3.73585" fill="#A9DFD8"/>
<ellipse cx="100.536" cy="113.962" rx="3.72171" ry="3.73585" fill="#A9DFD8"/>
<ellipse cx="122.861" cy="113.962" rx="3.72171" ry="3.73585" fill="#A9DFD8"/>
<ellipse cx="173.093" cy="99.0186" rx="3.72171" ry="3.73585" fill="#A9DFD8"/>
<ellipse cx="219.604" cy="127.038" rx="3.72171" ry="3.73585" fill="#A9DFD8"/>
<ellipse cx="245.65" cy="127.038" rx="3.72171" ry="3.73585" fill="#A9DFD8"/>
<ellipse cx="290.302" cy="95.2827" rx="3.72171" ry="3.73585" fill="#A9DFD8"/>
<ellipse cx="312.627" cy="102.755" rx="3.72171" ry="3.73585" fill="#A9DFD8"/>
<ellipse cx="381.464" cy="149.453" rx="3.72171" ry="3.73585" fill="#A9DFD8"/>
<ellipse cx="396.349" cy="141.981" rx="3.72171" ry="3.73585" fill="#A9DFD8"/>
<ellipse cx="435.417" cy="74.7358" rx="3.72171" ry="3.73585" fill="#A9DFD8"/>
<path d="M44.7199 169.606L75.655 166.393L117.257 146.044L172.727 203.879H231.397L298.601 183.529L383.939 188.884L436.209 151.399" stroke="#F2C8ED" stroke-width="1.14674" stroke-linecap="round"/>
<path d="M75.655 167.464L44.7199 170.677V268.999H437.276V151.399L383.939 189.955L342.392 186.811L297.742 184.009L231.397 204.949H172.161L117.257 147.115L75.655 167.464Z" fill="url(#paint1_linear_495_411)"/>
<ellipse cx="44.7217" cy="170" rx="3.72171" ry="3.73585" fill="#F2C8ED"/>
<ellipse cx="74.49" cy="166.264" rx="3.72171" ry="3.73585" fill="#F2C8ED"/>
<ellipse cx="117.28" cy="145.717" rx="3.72171" ry="3.73585" fill="#F2C8ED"/>
<ellipse cx="173.093" cy="203.622" rx="3.72171" ry="3.73585" fill="#F2C8ED"/>
<ellipse cx="230.767" cy="203.622" rx="3.72171" ry="3.73585" fill="#F2C8ED"/>
<ellipse cx="297.744" cy="183.075" rx="3.72171" ry="3.73585" fill="#F2C8ED"/>
<ellipse cx="383.324" cy="188.679" rx="3.72171" ry="3.73585" fill="#F2C8ED"/>
<ellipse cx="437.278" cy="149.453" rx="3.72171" ry="3.73585" fill="#F2C8ED"/>
<line x1="240.729" y1="356.119" x2="240.729" y2="305" stroke="white" stroke-opacity="0.12" stroke-width="0.5"/>
<line x1="122" y1="295.75" x2="363" y2="295.75" stroke="white" stroke-opacity="0.06" stroke-width="0.5"/>
<circle cx="152" cy="313.763" r="3" fill="#A9DFD8"/>
<path d="M159.799 310.49H161.131L163.446 316.144H163.531L165.847 310.49H167.178V317.763H166.134V312.5H166.067L163.922 317.753H163.055L160.911 312.497H160.843V317.763H159.799V310.49ZM171.039 317.873C170.502 317.873 170.039 317.758 169.651 317.529C169.265 317.297 168.967 316.971 168.756 316.552C168.548 316.131 168.443 315.637 168.443 315.071C168.443 314.513 168.548 314.02 168.756 313.594C168.967 313.168 169.26 312.835 169.637 312.596C170.015 312.357 170.458 312.238 170.965 312.238C171.272 312.238 171.571 312.289 171.86 312.39C172.148 312.492 172.408 312.652 172.637 312.87C172.867 313.088 173.048 313.37 173.181 313.718C173.313 314.064 173.379 314.484 173.379 314.979V315.356H169.044V314.56H172.339C172.339 314.281 172.282 314.033 172.169 313.818C172.055 313.6 171.895 313.428 171.689 313.303C171.485 313.177 171.246 313.115 170.972 313.115C170.673 313.115 170.413 313.188 170.191 313.335C169.97 313.479 169.8 313.669 169.679 313.903C169.561 314.135 169.502 314.387 169.502 314.659V315.281C169.502 315.646 169.566 315.956 169.693 316.211C169.824 316.467 170.005 316.662 170.237 316.797C170.469 316.93 170.74 316.996 171.05 316.996C171.251 316.996 171.435 316.968 171.6 316.911C171.766 316.852 171.909 316.764 172.03 316.648C172.151 316.532 172.243 316.389 172.307 316.218L173.312 316.4C173.231 316.695 173.087 316.955 172.879 317.177C172.673 317.397 172.414 317.569 172.101 317.692C171.791 317.813 171.437 317.873 171.039 317.873ZM171.654 311.655L170.926 310.704L170.194 311.655H169.235V311.602L170.482 310.096H171.366L172.616 311.602V311.655H171.654ZM178.645 313.64L177.683 313.811C177.642 313.688 177.578 313.57 177.491 313.459C177.406 313.348 177.29 313.257 177.143 313.186C176.996 313.115 176.813 313.079 176.592 313.079C176.292 313.079 176.041 313.147 175.839 313.282C175.638 313.414 175.538 313.586 175.538 313.797C175.538 313.979 175.605 314.126 175.74 314.237C175.875 314.348 176.093 314.439 176.393 314.51L177.26 314.709C177.762 314.825 178.136 315.004 178.382 315.245C178.628 315.487 178.751 315.801 178.751 316.186C178.751 316.513 178.657 316.804 178.467 317.06C178.28 317.313 178.019 317.512 177.683 317.657C177.349 317.801 176.962 317.873 176.521 317.873C175.911 317.873 175.412 317.743 175.026 317.483C174.64 317.22 174.404 316.847 174.316 316.364L175.342 316.208C175.406 316.475 175.538 316.678 175.737 316.815C175.935 316.95 176.195 317.017 176.514 317.017C176.862 317.017 177.14 316.945 177.349 316.801C177.557 316.654 177.661 316.475 177.661 316.265C177.661 316.094 177.597 315.951 177.469 315.835C177.344 315.719 177.151 315.631 176.891 315.572L175.967 315.37C175.458 315.254 175.082 315.069 174.838 314.816C174.597 314.562 174.476 314.242 174.476 313.853C174.476 313.531 174.566 313.25 174.746 313.008C174.926 312.767 175.174 312.579 175.491 312.444C175.809 312.306 176.172 312.238 176.582 312.238C177.171 312.238 177.635 312.365 177.974 312.621C178.312 312.874 178.536 313.214 178.645 313.64ZM182.565 319.809V312.309H183.602V313.193H183.691C183.753 313.079 183.841 312.948 183.957 312.799C184.073 312.65 184.234 312.519 184.44 312.408C184.646 312.294 184.919 312.238 185.257 312.238C185.697 312.238 186.09 312.349 186.436 312.571C186.782 312.794 187.053 313.115 187.249 313.534C187.448 313.953 187.548 314.457 187.548 315.047C187.548 315.636 187.449 316.141 187.253 316.563C187.056 316.982 186.786 317.305 186.443 317.532C186.1 317.757 185.708 317.87 185.268 317.87C184.936 317.87 184.665 317.814 184.455 317.703C184.246 317.592 184.083 317.461 183.964 317.312C183.846 317.163 183.755 317.03 183.691 316.914H183.627V319.809H182.565ZM183.606 315.036C183.606 315.419 183.661 315.756 183.773 316.044C183.884 316.333 184.045 316.559 184.256 316.723C184.466 316.884 184.724 316.964 185.03 316.964C185.347 316.964 185.612 316.88 185.825 316.712C186.038 316.542 186.199 316.311 186.308 316.02C186.42 315.728 186.475 315.4 186.475 315.036C186.475 314.676 186.421 314.353 186.312 314.066C186.205 313.78 186.044 313.554 185.829 313.388C185.616 313.222 185.349 313.14 185.03 313.14C184.722 313.14 184.462 313.219 184.249 313.378C184.038 313.536 183.878 313.758 183.769 314.042C183.66 314.326 183.606 314.657 183.606 315.036ZM190.325 317.884C189.979 317.884 189.666 317.82 189.387 317.692C189.108 317.562 188.886 317.374 188.723 317.128C188.562 316.881 188.482 316.579 188.482 316.222C188.482 315.914 188.541 315.661 188.659 315.462C188.777 315.263 188.937 315.106 189.138 314.99C189.34 314.874 189.565 314.786 189.813 314.727C190.062 314.668 190.315 314.623 190.573 314.592C190.9 314.554 191.165 314.523 191.369 314.5C191.572 314.474 191.72 314.432 191.812 314.375C191.905 314.319 191.951 314.226 191.951 314.098V314.074C191.951 313.763 191.863 313.523 191.688 313.353C191.515 313.182 191.257 313.097 190.914 313.097C190.557 313.097 190.275 313.176 190.069 313.335C189.865 313.491 189.724 313.665 189.646 313.857L188.648 313.63C188.767 313.298 188.94 313.031 189.167 312.827C189.397 312.621 189.661 312.472 189.959 312.38C190.257 312.285 190.571 312.238 190.9 312.238C191.118 312.238 191.348 312.264 191.592 312.316C191.839 312.365 192.068 312.458 192.281 312.593C192.497 312.728 192.673 312.921 192.81 313.172C192.948 313.42 193.016 313.743 193.016 314.141V317.763H191.979V317.017H191.937C191.868 317.155 191.765 317.29 191.628 317.422C191.491 317.555 191.314 317.665 191.099 317.753C190.883 317.84 190.625 317.884 190.325 317.884ZM190.555 317.032C190.849 317.032 191.1 316.974 191.308 316.858C191.519 316.742 191.679 316.59 191.788 316.403C191.899 316.214 191.955 316.011 191.955 315.796V315.093C191.917 315.131 191.843 315.166 191.734 315.199C191.628 315.23 191.506 315.257 191.369 315.281C191.231 315.302 191.098 315.322 190.967 315.341C190.837 315.358 190.728 315.372 190.641 315.384C190.435 315.41 190.246 315.454 190.076 315.515C189.908 315.577 189.773 315.666 189.671 315.782C189.572 315.895 189.522 316.047 189.522 316.236C189.522 316.499 189.619 316.698 189.813 316.833C190.007 316.965 190.255 317.032 190.555 317.032ZM198.518 313.64L197.556 313.811C197.515 313.688 197.451 313.57 197.364 313.459C197.279 313.348 197.163 313.257 197.016 313.186C196.869 313.115 196.686 313.079 196.465 313.079C196.165 313.079 195.914 313.147 195.713 313.282C195.511 313.414 195.411 313.586 195.411 313.797C195.411 313.979 195.478 314.126 195.613 314.237C195.748 314.348 195.966 314.439 196.267 314.51L197.133 314.709C197.635 314.825 198.009 315.004 198.255 315.245C198.501 315.487 198.624 315.801 198.624 316.186C198.624 316.513 198.53 316.804 198.34 317.06C198.153 317.313 197.892 317.512 197.556 317.657C197.222 317.801 196.835 317.873 196.394 317.873C195.784 317.873 195.285 317.743 194.899 317.483C194.513 317.22 194.277 316.847 194.189 316.364L195.215 316.208C195.279 316.475 195.411 316.678 195.61 316.815C195.808 316.95 196.068 317.017 196.387 317.017C196.735 317.017 197.013 316.945 197.222 316.801C197.43 316.654 197.534 316.475 197.534 316.265C197.534 316.094 197.47 315.951 197.343 315.835C197.217 315.719 197.024 315.631 196.764 315.572L195.84 315.37C195.331 315.254 194.955 315.069 194.711 314.816C194.47 314.562 194.349 314.242 194.349 313.853C194.349 313.531 194.439 313.25 194.619 313.008C194.799 312.767 195.047 312.579 195.365 312.444C195.682 312.306 196.045 312.238 196.455 312.238C197.044 312.238 197.508 312.365 197.847 312.621C198.185 312.874 198.409 313.214 198.518 313.64ZM203.879 313.64L202.917 313.811C202.877 313.688 202.813 313.57 202.725 313.459C202.64 313.348 202.524 313.257 202.377 313.186C202.23 313.115 202.047 313.079 201.827 313.079C201.526 313.079 201.275 313.147 201.074 313.282C200.873 313.414 200.772 313.586 200.772 313.797C200.772 313.979 200.839 314.126 200.974 314.237C201.109 314.348 201.327 314.439 201.628 314.51L202.494 314.709C202.996 314.825 203.37 315.004 203.616 315.245C203.863 315.487 203.986 315.801 203.986 316.186C203.986 316.513 203.891 316.804 203.702 317.06C203.515 317.313 203.253 317.512 202.917 317.657C202.583 317.801 202.196 317.873 201.756 317.873C201.145 317.873 200.647 317.743 200.261 317.483C199.875 317.22 199.638 316.847 199.55 316.364L200.577 316.208C200.641 316.475 200.772 316.678 200.971 316.815C201.17 316.95 201.429 317.017 201.749 317.017C202.097 317.017 202.375 316.945 202.583 316.801C202.791 316.654 202.896 316.475 202.896 316.265C202.896 316.094 202.832 315.951 202.704 315.835C202.578 315.719 202.385 315.631 202.125 315.572L201.202 315.37C200.693 315.254 200.316 315.069 200.072 314.816C199.831 314.562 199.71 314.242 199.71 313.853C199.71 313.531 199.8 313.25 199.98 313.008C200.16 312.767 200.409 312.579 200.726 312.444C201.043 312.306 201.406 312.238 201.816 312.238C202.406 312.238 202.87 312.365 203.208 312.621C203.547 312.874 203.77 313.214 203.879 313.64ZM206.741 317.884C206.395 317.884 206.082 317.82 205.803 317.692C205.524 317.562 205.302 317.374 205.139 317.128C204.978 316.881 204.898 316.579 204.898 316.222C204.898 315.914 204.957 315.661 205.075 315.462C205.193 315.263 205.353 315.106 205.555 314.99C205.756 314.874 205.981 314.786 206.229 314.727C206.478 314.668 206.731 314.623 206.989 314.592C207.316 314.554 207.581 314.523 207.785 314.5C207.988 314.474 208.136 314.432 208.229 314.375C208.321 314.319 208.367 314.226 208.367 314.098V314.074C208.367 313.763 208.279 313.523 208.104 313.353C207.931 313.182 207.673 313.097 207.33 313.097C206.973 313.097 206.691 313.176 206.485 313.335C206.281 313.491 206.14 313.665 206.062 313.857L205.064 313.63C205.183 313.298 205.356 313.031 205.583 312.827C205.813 312.621 206.077 312.472 206.375 312.38C206.673 312.285 206.987 312.238 207.316 312.238C207.534 312.238 207.765 312.264 208.008 312.316C208.255 312.365 208.484 312.458 208.697 312.593C208.913 312.728 209.089 312.921 209.226 313.172C209.364 313.42 209.432 313.743 209.432 314.141V317.763H208.395V317.017H208.353C208.284 317.155 208.181 317.29 208.044 317.422C207.907 317.555 207.73 317.665 207.515 317.753C207.299 317.84 207.041 317.884 206.741 317.884ZM206.971 317.032C207.265 317.032 207.516 316.974 207.724 316.858C207.935 316.742 208.095 316.59 208.204 316.403C208.315 316.214 208.371 316.011 208.371 315.796V315.093C208.333 315.131 208.259 315.166 208.15 315.199C208.044 315.23 207.922 315.257 207.785 315.281C207.647 315.302 207.514 315.322 207.383 315.341C207.253 315.358 207.144 315.372 207.057 315.384C206.851 315.41 206.662 315.454 206.492 315.515C206.324 315.577 206.189 315.666 206.087 315.782C205.988 315.895 205.938 316.047 205.938 316.236C205.938 316.499 206.035 316.698 206.229 316.833C206.423 316.965 206.671 317.032 206.971 317.032ZM212.888 317.87C212.448 317.87 212.055 317.757 211.71 317.532C211.366 317.305 211.096 316.982 210.9 316.563C210.706 316.141 210.609 315.636 210.609 315.047C210.609 314.457 210.707 313.953 210.903 313.534C211.102 313.115 211.375 312.794 211.72 312.571C212.066 312.349 212.458 312.238 212.896 312.238C213.234 312.238 213.506 312.294 213.712 312.408C213.921 312.519 214.082 312.65 214.195 312.799C214.311 312.948 214.401 313.079 214.465 313.193H214.529V310.49H215.591V317.763H214.554V316.914H214.465C214.401 317.03 214.309 317.163 214.188 317.312C214.07 317.461 213.906 317.592 213.698 317.703C213.49 317.814 213.22 317.87 212.888 317.87ZM213.123 316.964C213.428 316.964 213.686 316.884 213.897 316.723C214.11 316.559 214.271 316.333 214.38 316.044C214.491 315.756 214.547 315.419 214.547 315.036C214.547 314.657 214.492 314.326 214.384 314.042C214.275 313.758 214.115 313.536 213.904 313.378C213.693 313.219 213.433 313.14 213.123 313.14C212.803 313.14 212.537 313.222 212.324 313.388C212.111 313.554 211.95 313.78 211.841 314.066C211.734 314.353 211.681 314.676 211.681 315.036C211.681 315.4 211.736 315.728 211.844 316.02C211.953 316.311 212.114 316.542 212.327 316.712C212.543 316.88 212.808 316.964 213.123 316.964ZM219.404 317.873C218.893 317.873 218.446 317.756 218.065 317.522C217.684 317.287 217.388 316.959 217.177 316.538C216.967 316.117 216.861 315.624 216.861 315.061C216.861 314.495 216.967 314 217.177 313.576C217.388 313.153 217.684 312.824 218.065 312.589C218.446 312.355 218.893 312.238 219.404 312.238C219.915 312.238 220.362 312.355 220.743 312.589C221.124 312.824 221.42 313.153 221.631 313.576C221.841 314 221.947 314.495 221.947 315.061C221.947 315.624 221.841 316.117 221.631 316.538C221.42 316.959 221.124 317.287 220.743 317.522C220.362 317.756 219.915 317.873 219.404 317.873ZM219.407 316.982C219.739 316.982 220.014 316.894 220.231 316.719C220.449 316.544 220.61 316.311 220.714 316.02C220.821 315.728 220.874 315.408 220.874 315.057C220.874 314.709 220.821 314.39 220.714 314.098C220.61 313.805 220.449 313.569 220.231 313.392C220.014 313.214 219.739 313.125 219.407 313.125C219.074 313.125 218.797 313.214 218.577 313.392C218.359 313.569 218.197 313.805 218.09 314.098C217.986 314.39 217.934 314.709 217.934 315.057C217.934 315.408 217.986 315.728 218.09 316.02C218.197 316.311 218.359 316.544 218.577 316.719C218.797 316.894 219.074 316.982 219.407 316.982Z" fill="#A0A0A0"/>
<path d="M165.299 334.763V327.49H167.891C168.455 327.49 168.922 327.588 169.294 327.782C169.668 327.976 169.947 328.244 170.132 328.588C170.317 328.929 170.409 329.323 170.409 329.77C170.409 330.215 170.316 330.607 170.129 330.946C169.944 331.282 169.665 331.543 169.29 331.731C168.919 331.918 168.451 332.011 167.888 332.011H165.924V331.066H167.788C168.143 331.066 168.432 331.016 168.655 330.914C168.88 330.812 169.044 330.664 169.148 330.47C169.253 330.276 169.305 330.043 169.305 329.77C169.305 329.496 169.251 329.258 169.145 329.057C169.041 328.855 168.876 328.701 168.651 328.595C168.429 328.486 168.136 328.432 167.774 328.432H166.396V334.763H165.299ZM168.889 331.482L170.686 334.763H169.436L167.675 331.482H168.889ZM173.889 335.672V326.581H174.472V335.672H173.889ZM175.711 329.401C175.673 329.065 175.517 328.804 175.242 328.62C174.968 328.433 174.622 328.339 174.205 328.339C173.907 328.339 173.649 328.387 173.431 328.481C173.213 328.574 173.044 328.701 172.923 328.865C172.805 329.026 172.746 329.209 172.746 329.415C172.746 329.588 172.786 329.737 172.866 329.863C172.949 329.988 173.057 330.093 173.19 330.179C173.325 330.262 173.469 330.331 173.623 330.388C173.777 330.443 173.925 330.488 174.067 330.523L174.777 330.708C175.009 330.765 175.247 330.842 175.491 330.939C175.735 331.036 175.961 331.164 176.169 331.322C176.377 331.481 176.545 331.677 176.673 331.912C176.804 332.146 176.869 332.427 176.869 332.753C176.869 333.165 176.762 333.531 176.549 333.851C176.338 334.17 176.032 334.422 175.629 334.607C175.229 334.792 174.745 334.884 174.177 334.884C173.632 334.884 173.161 334.798 172.763 334.625C172.366 334.452 172.054 334.207 171.83 333.89C171.605 333.57 171.48 333.191 171.457 332.753H172.558C172.579 333.016 172.664 333.235 172.813 333.41C172.965 333.583 173.158 333.712 173.392 333.797C173.629 333.88 173.888 333.922 174.17 333.922C174.48 333.922 174.756 333.873 174.997 333.776C175.241 333.677 175.433 333.539 175.572 333.364C175.712 333.186 175.782 332.979 175.782 332.743C175.782 332.527 175.72 332.351 175.597 332.213C175.477 332.076 175.312 331.963 175.104 331.873C174.898 331.783 174.665 331.703 174.404 331.635L173.545 331.4C172.962 331.242 172.501 331.008 172.16 330.701C171.821 330.393 171.652 329.986 171.652 329.479C171.652 329.06 171.766 328.694 171.993 328.382C172.22 328.069 172.528 327.827 172.916 327.654C173.304 327.479 173.742 327.391 174.23 327.391C174.723 327.391 175.157 327.477 175.533 327.65C175.912 327.823 176.21 328.061 176.428 328.364C176.646 328.665 176.76 329.01 176.769 329.401H175.711ZM183.266 334.863C182.942 334.858 182.622 334.799 182.307 334.685C181.995 334.571 181.711 334.382 181.455 334.117C181.199 333.852 180.994 333.495 180.841 333.048C180.689 332.601 180.613 332.042 180.613 331.372C180.613 330.737 180.676 330.174 180.801 329.682C180.929 329.189 181.113 328.774 181.352 328.435C181.591 328.094 181.88 327.835 182.218 327.657C182.557 327.48 182.937 327.391 183.358 327.391C183.792 327.391 184.176 327.476 184.512 327.647C184.849 327.817 185.121 328.053 185.329 328.353C185.54 328.654 185.674 328.996 185.73 329.38H184.647C184.574 329.077 184.428 328.829 184.211 328.637C183.993 328.446 183.709 328.35 183.358 328.35C182.826 328.35 182.41 328.582 182.112 329.046C181.816 329.51 181.667 330.155 181.664 330.981H181.718C181.843 330.775 181.997 330.6 182.179 330.456C182.364 330.309 182.57 330.196 182.797 330.118C183.027 330.038 183.268 329.998 183.522 329.998C183.943 329.998 184.324 330.101 184.665 330.307C185.008 330.51 185.282 330.792 185.485 331.152C185.689 331.512 185.791 331.923 185.791 332.387C185.791 332.851 185.685 333.272 185.475 333.648C185.266 334.025 184.973 334.323 184.594 334.543C184.215 334.761 183.773 334.867 183.266 334.863ZM183.262 333.939C183.542 333.939 183.792 333.871 184.012 333.733C184.232 333.596 184.406 333.411 184.534 333.179C184.662 332.947 184.725 332.688 184.725 332.402C184.725 332.122 184.663 331.868 184.537 331.638C184.414 331.409 184.244 331.226 184.026 331.091C183.81 330.956 183.564 330.889 183.287 330.889C183.077 330.889 182.881 330.929 182.701 331.01C182.524 331.09 182.368 331.201 182.233 331.343C182.098 331.485 181.991 331.649 181.913 331.833C181.837 332.016 181.799 332.209 181.799 332.412C181.799 332.685 181.862 332.937 181.988 333.169C182.115 333.401 182.289 333.588 182.51 333.73C182.732 333.869 182.983 333.939 183.262 333.939ZM187.466 334.831C187.272 334.831 187.105 334.762 186.965 334.625C186.826 334.485 186.756 334.317 186.756 334.12C186.756 333.926 186.826 333.761 186.965 333.623C187.105 333.484 187.272 333.414 187.466 333.414C187.66 333.414 187.827 333.484 187.967 333.623C188.106 333.761 188.176 333.926 188.176 334.12C188.176 334.251 188.143 334.37 188.077 334.479C188.013 334.586 187.928 334.671 187.821 334.735C187.715 334.799 187.596 334.831 187.466 334.831ZM191.915 327.391C192.239 327.393 192.559 327.453 192.874 327.569C193.188 327.685 193.473 327.874 193.726 328.137C193.982 328.4 194.185 328.755 194.337 329.202C194.491 329.647 194.569 330.201 194.571 330.864C194.571 331.501 194.507 332.068 194.379 332.565C194.251 333.06 194.068 333.478 193.829 333.819C193.592 334.159 193.304 334.419 192.966 334.596C192.627 334.774 192.246 334.863 191.822 334.863C191.389 334.863 191.004 334.777 190.668 334.607C190.332 334.436 190.059 334.201 189.848 333.9C189.637 333.597 189.506 333.249 189.454 332.856H190.537C190.608 333.169 190.752 333.422 190.97 333.616C191.19 333.808 191.474 333.904 191.822 333.904C192.355 333.904 192.771 333.672 193.069 333.208C193.367 332.741 193.518 332.09 193.52 331.255H193.463C193.34 331.458 193.186 331.633 193.001 331.78C192.819 331.927 192.614 332.041 192.387 332.121C192.16 332.202 191.917 332.242 191.659 332.242C191.24 332.242 190.859 332.139 190.516 331.933C190.172 331.727 189.899 331.444 189.695 331.084C189.492 330.724 189.39 330.314 189.39 329.852C189.39 329.393 189.494 328.976 189.702 328.602C189.913 328.228 190.207 327.932 190.583 327.714C190.962 327.494 191.406 327.386 191.915 327.391ZM191.918 328.314C191.641 328.314 191.392 328.383 191.169 328.52C190.949 328.655 190.775 328.839 190.647 329.071C190.519 329.3 190.455 329.556 190.455 329.838C190.455 330.119 190.517 330.375 190.64 330.605C190.765 330.832 190.936 331.013 191.151 331.148C191.369 331.281 191.618 331.347 191.897 331.347C192.105 331.347 192.299 331.307 192.479 331.226C192.659 331.146 192.817 331.034 192.952 330.892C193.087 330.748 193.192 330.585 193.268 330.402C193.344 330.22 193.381 330.028 193.381 329.827C193.381 329.56 193.317 329.311 193.19 329.081C193.064 328.852 192.891 328.667 192.671 328.527C192.451 328.385 192.2 328.314 191.918 328.314ZM198.311 334.863C197.802 334.863 197.352 334.775 196.962 334.6C196.574 334.425 196.269 334.183 196.049 333.875C195.829 333.568 195.72 333.217 195.722 332.824C195.72 332.516 195.783 332.234 195.911 331.976C196.041 331.715 196.217 331.499 196.44 331.326C196.662 331.15 196.911 331.039 197.186 330.992V330.949C196.823 330.862 196.533 330.668 196.316 330.367C196.098 330.066 195.99 329.721 195.992 329.33C195.99 328.958 196.088 328.627 196.287 328.336C196.488 328.042 196.764 327.811 197.115 327.643C197.465 327.475 197.864 327.391 198.311 327.391C198.754 327.391 199.149 327.476 199.497 327.647C199.848 327.815 200.124 328.046 200.325 328.339C200.526 328.63 200.628 328.961 200.63 329.33C200.628 329.721 200.517 330.066 200.296 330.367C200.076 330.668 199.79 330.862 199.437 330.949V330.992C199.709 331.039 199.954 331.15 200.172 331.326C200.392 331.499 200.567 331.715 200.698 331.976C200.83 332.234 200.898 332.516 200.9 332.824C200.898 333.217 200.786 333.568 200.566 333.875C200.346 334.183 200.041 334.425 199.65 334.6C199.262 334.775 198.816 334.863 198.311 334.863ZM198.311 333.964C198.612 333.964 198.872 333.914 199.093 333.815C199.313 333.713 199.483 333.572 199.604 333.392C199.725 333.21 199.786 332.997 199.789 332.753C199.786 332.5 199.72 332.276 199.59 332.082C199.462 331.888 199.288 331.735 199.068 331.624C198.847 331.513 198.595 331.457 198.311 331.457C198.025 331.457 197.77 331.513 197.548 331.624C197.325 331.735 197.15 331.888 197.022 332.082C196.894 332.276 196.832 332.5 196.834 332.753C196.832 332.997 196.89 333.21 197.008 333.392C197.129 333.572 197.3 333.713 197.523 333.815C197.745 333.914 198.008 333.964 198.311 333.964ZM198.311 330.58C198.553 330.58 198.767 330.531 198.954 330.434C199.141 330.337 199.288 330.202 199.394 330.03C199.503 329.857 199.559 329.654 199.561 329.422C199.559 329.195 199.504 328.996 199.398 328.826C199.294 328.655 199.148 328.524 198.961 328.432C198.774 328.337 198.557 328.289 198.311 328.289C198.06 328.289 197.84 328.337 197.651 328.432C197.464 328.524 197.318 328.655 197.214 328.826C197.11 328.996 197.059 329.195 197.061 329.422C197.059 329.654 197.111 329.857 197.218 330.03C197.324 330.202 197.471 330.337 197.658 330.434C197.847 330.531 198.065 330.58 198.311 330.58ZM202.417 334.763L205.592 328.485V328.432H201.92V327.49H206.728V328.463L203.564 334.763H202.417Z" fill="white"/>
<circle cx="272" cy="313.763" r="3" fill="#F2C8ED"/>
<path d="M279.799 310.49H281.131L283.446 316.144H283.531L285.847 310.49H287.178V317.763H286.134V312.5H286.067L283.922 317.753H283.055L280.911 312.497H280.843V317.763H279.799V310.49ZM291.039 317.873C290.502 317.873 290.039 317.758 289.651 317.529C289.265 317.297 288.967 316.971 288.756 316.552C288.548 316.131 288.443 315.637 288.443 315.071C288.443 314.513 288.548 314.02 288.756 313.594C288.967 313.168 289.26 312.835 289.637 312.596C290.015 312.357 290.458 312.238 290.965 312.238C291.272 312.238 291.571 312.289 291.86 312.39C292.148 312.492 292.408 312.652 292.637 312.87C292.867 313.088 293.048 313.37 293.181 313.718C293.313 314.064 293.379 314.484 293.379 314.979V315.356H289.044V314.56H292.339C292.339 314.281 292.282 314.033 292.169 313.818C292.055 313.6 291.895 313.428 291.689 313.303C291.485 313.177 291.246 313.115 290.972 313.115C290.673 313.115 290.413 313.188 290.191 313.335C289.97 313.479 289.8 313.669 289.679 313.903C289.561 314.135 289.502 314.387 289.502 314.659V315.281C289.502 315.646 289.566 315.956 289.693 316.211C289.824 316.467 290.005 316.662 290.237 316.797C290.469 316.93 290.74 316.996 291.05 316.996C291.251 316.996 291.435 316.968 291.6 316.911C291.766 316.852 291.909 316.764 292.03 316.648C292.151 316.532 292.243 316.389 292.307 316.218L293.312 316.4C293.231 316.695 293.087 316.955 292.879 317.177C292.673 317.397 292.414 317.569 292.101 317.692C291.791 317.813 291.437 317.873 291.039 317.873ZM291.654 311.655L290.926 310.704L290.194 311.655H289.235V311.602L290.482 310.096H291.366L292.616 311.602V311.655H291.654ZM298.645 313.64L297.683 313.811C297.642 313.688 297.578 313.57 297.491 313.459C297.406 313.348 297.29 313.257 297.143 313.186C296.996 313.115 296.813 313.079 296.592 313.079C296.292 313.079 296.041 313.147 295.839 313.282C295.638 313.414 295.538 313.586 295.538 313.797C295.538 313.979 295.605 314.126 295.74 314.237C295.875 314.348 296.093 314.439 296.393 314.51L297.26 314.709C297.762 314.825 298.136 315.004 298.382 315.245C298.628 315.487 298.751 315.801 298.751 316.186C298.751 316.513 298.657 316.804 298.467 317.06C298.28 317.313 298.019 317.512 297.683 317.657C297.349 317.801 296.962 317.873 296.521 317.873C295.911 317.873 295.412 317.743 295.026 317.483C294.64 317.22 294.404 316.847 294.316 316.364L295.342 316.208C295.406 316.475 295.538 316.678 295.737 316.815C295.935 316.95 296.195 317.017 296.514 317.017C296.862 317.017 297.14 316.945 297.349 316.801C297.557 316.654 297.661 316.475 297.661 316.265C297.661 316.094 297.597 315.951 297.469 315.835C297.344 315.719 297.151 315.631 296.891 315.572L295.967 315.37C295.458 315.254 295.082 315.069 294.838 314.816C294.597 314.562 294.476 314.242 294.476 313.853C294.476 313.531 294.566 313.25 294.746 313.008C294.926 312.767 295.174 312.579 295.491 312.444C295.809 312.306 296.172 312.238 296.582 312.238C297.171 312.238 297.635 312.365 297.974 312.621C298.312 312.874 298.536 313.214 298.645 313.64ZM304.153 317.884C303.807 317.884 303.495 317.82 303.215 317.692C302.936 317.562 302.714 317.374 302.551 317.128C302.39 316.881 302.31 316.579 302.31 316.222C302.31 315.914 302.369 315.661 302.487 315.462C302.606 315.263 302.765 315.106 302.967 314.99C303.168 314.874 303.393 314.786 303.641 314.727C303.89 314.668 304.143 314.623 304.401 314.592C304.728 314.554 304.993 314.523 305.197 314.5C305.4 314.474 305.548 314.432 305.641 314.375C305.733 314.319 305.779 314.226 305.779 314.098V314.074C305.779 313.763 305.692 313.523 305.516 313.353C305.344 313.182 305.085 313.097 304.742 313.097C304.385 313.097 304.103 313.176 303.897 313.335C303.693 313.491 303.553 313.665 303.474 313.857L302.477 313.63C302.595 313.298 302.768 313.031 302.995 312.827C303.225 312.621 303.489 312.472 303.787 312.38C304.085 312.285 304.399 312.238 304.728 312.238C304.946 312.238 305.177 312.264 305.42 312.316C305.667 312.365 305.896 312.458 306.109 312.593C306.325 312.728 306.501 312.921 306.638 313.172C306.776 313.42 306.844 313.743 306.844 314.141V317.763H305.808V317.017H305.765C305.696 317.155 305.593 317.29 305.456 317.422C305.319 317.555 305.142 317.665 304.927 317.753C304.711 317.84 304.453 317.884 304.153 317.884ZM304.384 317.032C304.677 317.032 304.928 316.974 305.136 316.858C305.347 316.742 305.507 316.59 305.616 316.403C305.727 316.214 305.783 316.011 305.783 315.796V315.093C305.745 315.131 305.671 315.166 305.562 315.199C305.456 315.23 305.334 315.257 305.197 315.281C305.059 315.302 304.926 315.322 304.795 315.341C304.665 315.358 304.556 315.372 304.469 315.384C304.263 315.41 304.075 315.454 303.904 315.515C303.736 315.577 303.601 315.666 303.499 315.782C303.4 315.895 303.35 316.047 303.35 316.236C303.35 316.499 303.447 316.698 303.641 316.833C303.835 316.965 304.083 317.032 304.384 317.032ZM310.805 312.309V313.161H307.825V312.309H310.805ZM308.624 311.002H309.686V316.162C309.686 316.368 309.717 316.523 309.779 316.627C309.84 316.729 309.919 316.798 310.017 316.836C310.116 316.872 310.224 316.89 310.34 316.89C310.425 316.89 310.499 316.884 310.563 316.872C310.627 316.86 310.677 316.851 310.713 316.843L310.904 317.721C310.843 317.744 310.755 317.768 310.642 317.792C310.528 317.818 310.386 317.832 310.215 317.834C309.936 317.839 309.676 317.789 309.434 317.685C309.193 317.581 308.997 317.42 308.848 317.202C308.699 316.984 308.624 316.711 308.624 316.382V311.002ZM315.435 315.501V312.309H316.5V317.763H315.456V316.819H315.399C315.274 317.11 315.072 317.352 314.795 317.547C314.521 317.738 314.179 317.834 313.769 317.834C313.419 317.834 313.109 317.757 312.839 317.603C312.571 317.447 312.361 317.216 312.207 316.911C312.055 316.606 311.979 316.228 311.979 315.778V312.309H313.041V315.65C313.041 316.022 313.144 316.318 313.35 316.538C313.556 316.758 313.824 316.868 314.153 316.868C314.352 316.868 314.549 316.819 314.746 316.719C314.945 316.62 315.109 316.469 315.239 316.268C315.372 316.067 315.437 315.811 315.435 315.501ZM319.514 317.884C319.168 317.884 318.856 317.82 318.577 317.692C318.297 317.562 318.076 317.374 317.912 317.128C317.751 316.881 317.671 316.579 317.671 316.222C317.671 315.914 317.73 315.661 317.849 315.462C317.967 315.263 318.127 315.106 318.328 314.99C318.529 314.874 318.754 314.786 319.003 314.727C319.251 314.668 319.505 314.623 319.763 314.592C320.089 314.554 320.354 314.523 320.558 314.5C320.762 314.474 320.91 314.432 321.002 314.375C321.094 314.319 321.14 314.226 321.14 314.098V314.074C321.14 313.763 321.053 313.523 320.878 313.353C320.705 313.182 320.447 313.097 320.104 313.097C319.746 313.097 319.464 313.176 319.258 313.335C319.055 313.491 318.914 313.665 318.836 313.857L317.838 313.63C317.956 313.298 318.129 313.031 318.356 312.827C318.586 312.621 318.85 312.472 319.148 312.38C319.447 312.285 319.76 312.238 320.089 312.238C320.307 312.238 320.538 312.264 320.782 312.316C321.028 312.365 321.258 312.458 321.471 312.593C321.686 312.728 321.863 312.921 322 313.172C322.137 313.42 322.206 313.743 322.206 314.141V317.763H321.169V317.017H321.126C321.058 317.155 320.955 317.29 320.817 317.422C320.68 317.555 320.504 317.665 320.288 317.753C320.073 317.84 319.815 317.884 319.514 317.884ZM319.745 317.032C320.038 317.032 320.289 316.974 320.498 316.858C320.708 316.742 320.868 316.59 320.977 316.403C321.088 316.214 321.144 316.011 321.144 315.796V315.093C321.106 315.131 321.033 315.166 320.924 315.199C320.817 315.23 320.695 315.257 320.558 315.281C320.421 315.302 320.287 315.322 320.157 315.341C320.027 315.358 319.918 315.372 319.83 315.384C319.624 315.41 319.436 315.454 319.265 315.515C319.097 315.577 318.962 315.666 318.861 315.782C318.761 315.895 318.711 316.047 318.711 316.236C318.711 316.499 318.809 316.698 319.003 316.833C319.197 316.965 319.444 317.032 319.745 317.032ZM324.682 310.49V317.763H323.62V310.49H324.682Z" fill="#A0A0A0"/>
<path d="M277.299 334.763V327.49H279.891C280.455 327.49 280.922 327.588 281.294 327.782C281.668 327.976 281.947 328.244 282.132 328.588C282.317 328.929 282.409 329.323 282.409 329.77C282.409 330.215 282.316 330.607 282.129 330.946C281.944 331.282 281.665 331.543 281.29 331.731C280.919 331.918 280.451 332.011 279.888 332.011H277.924V331.066H279.788C280.143 331.066 280.432 331.016 280.655 330.914C280.88 330.812 281.044 330.664 281.148 330.47C281.253 330.276 281.305 330.043 281.305 329.77C281.305 329.496 281.251 329.258 281.145 329.057C281.041 328.855 280.876 328.701 280.651 328.595C280.429 328.486 280.136 328.432 279.774 328.432H278.396V334.763H277.299ZM280.889 331.482L282.686 334.763H281.436L279.675 331.482H280.889ZM285.889 335.672V326.581H286.472V335.672H285.889ZM287.711 329.401C287.673 329.065 287.517 328.804 287.242 328.62C286.968 328.433 286.622 328.339 286.205 328.339C285.907 328.339 285.649 328.387 285.431 328.481C285.213 328.574 285.044 328.701 284.923 328.865C284.805 329.026 284.746 329.209 284.746 329.415C284.746 329.588 284.786 329.737 284.866 329.863C284.949 329.988 285.057 330.093 285.19 330.179C285.325 330.262 285.469 330.331 285.623 330.388C285.777 330.443 285.925 330.488 286.067 330.523L286.777 330.708C287.009 330.765 287.247 330.842 287.491 330.939C287.735 331.036 287.961 331.164 288.169 331.322C288.377 331.481 288.545 331.677 288.673 331.912C288.804 332.146 288.869 332.427 288.869 332.753C288.869 333.165 288.762 333.531 288.549 333.851C288.338 334.17 288.032 334.422 287.629 334.607C287.229 334.792 286.745 334.884 286.177 334.884C285.632 334.884 285.161 334.798 284.763 334.625C284.366 334.452 284.054 334.207 283.83 333.89C283.605 333.57 283.48 333.191 283.457 332.753H284.558C284.579 333.016 284.664 333.235 284.813 333.41C284.965 333.583 285.158 333.712 285.392 333.797C285.629 333.88 285.888 333.922 286.17 333.922C286.48 333.922 286.756 333.873 286.997 333.776C287.241 333.677 287.433 333.539 287.572 333.364C287.712 333.186 287.782 332.979 287.782 332.743C287.782 332.527 287.72 332.351 287.597 332.213C287.477 332.076 287.312 331.963 287.104 331.873C286.898 331.783 286.665 331.703 286.404 331.635L285.545 331.4C284.962 331.242 284.501 331.008 284.16 330.701C283.821 330.393 283.652 329.986 283.652 329.479C283.652 329.06 283.766 328.694 283.993 328.382C284.22 328.069 284.528 327.827 284.916 327.654C285.304 327.479 285.742 327.391 286.23 327.391C286.723 327.391 287.157 327.477 287.533 327.65C287.912 327.823 288.21 328.061 288.428 328.364C288.646 328.665 288.76 329.01 288.769 329.401H287.711ZM295.127 334.863C294.682 334.863 294.282 334.777 293.927 334.607C293.574 334.434 293.293 334.197 293.082 333.897C292.871 333.596 292.759 333.253 292.745 332.867H293.81C293.836 333.179 293.975 333.436 294.225 333.637C294.476 333.839 294.777 333.939 295.127 333.939C295.407 333.939 295.654 333.875 295.87 333.748C296.087 333.617 296.258 333.439 296.381 333.211C296.507 332.984 296.569 332.725 296.569 332.434C296.569 332.138 296.505 331.874 296.377 331.642C296.25 331.41 296.073 331.227 295.848 331.095C295.626 330.962 295.37 330.895 295.081 330.892C294.861 330.892 294.64 330.93 294.417 331.006C294.195 331.082 294.015 331.181 293.877 331.304L292.873 331.155L293.281 327.49H297.279V328.432H294.194L293.963 330.466H294.005C294.147 330.329 294.336 330.214 294.57 330.122C294.807 330.03 295.06 329.983 295.33 329.983C295.773 329.983 296.167 330.089 296.512 330.299C296.86 330.51 297.134 330.798 297.333 331.162C297.534 331.525 297.633 331.941 297.631 332.412C297.633 332.883 297.527 333.304 297.311 333.673C297.098 334.042 296.802 334.333 296.424 334.547C296.047 334.757 295.615 334.863 295.127 334.863ZM299.378 334.831C299.184 334.831 299.017 334.762 298.877 334.625C298.738 334.485 298.668 334.317 298.668 334.12C298.668 333.926 298.738 333.761 298.877 333.623C299.017 333.484 299.184 333.414 299.378 333.414C299.572 333.414 299.739 333.484 299.879 333.623C300.019 333.761 300.088 333.926 300.088 334.12C300.088 334.251 300.055 334.37 299.989 334.479C299.925 334.586 299.84 334.671 299.733 334.735C299.627 334.799 299.508 334.831 299.378 334.831ZM303.78 334.863C303.335 334.863 302.935 334.777 302.58 334.607C302.227 334.434 301.945 334.197 301.734 333.897C301.524 333.596 301.411 333.253 301.397 332.867H302.462C302.488 333.179 302.627 333.436 302.878 333.637C303.129 333.839 303.429 333.939 303.78 333.939C304.059 333.939 304.307 333.875 304.522 333.748C304.74 333.617 304.91 333.439 305.033 333.211C305.159 332.984 305.222 332.725 305.222 332.434C305.222 332.138 305.158 331.874 305.03 331.642C304.902 331.41 304.726 331.227 304.501 331.095C304.278 330.962 304.022 330.895 303.734 330.892C303.513 330.892 303.292 330.93 303.07 331.006C302.847 331.082 302.667 331.181 302.53 331.304L301.525 331.155L301.933 327.49H305.932V328.432H302.846L302.615 330.466H302.658C302.8 330.329 302.988 330.214 303.222 330.122C303.459 330.03 303.712 329.983 303.982 329.983C304.425 329.983 304.819 330.089 305.165 330.299C305.513 330.51 305.786 330.798 305.985 331.162C306.186 331.525 306.286 331.941 306.283 332.412C306.286 332.883 306.179 333.304 305.964 333.673C305.751 334.042 305.455 334.333 305.076 334.547C304.7 334.757 304.268 334.863 303.78 334.863ZM310.34 327.49V334.763H309.239V328.591H309.196L307.456 329.728V328.677L309.271 327.49H310.34ZM314.846 334.863C314.522 334.858 314.202 334.799 313.887 334.685C313.575 334.571 313.291 334.382 313.035 334.117C312.779 333.852 312.575 333.495 312.421 333.048C312.269 332.601 312.193 332.042 312.193 331.372C312.193 330.737 312.256 330.174 312.382 329.682C312.509 329.189 312.693 328.774 312.932 328.435C313.171 328.094 313.46 327.835 313.798 327.657C314.137 327.48 314.517 327.391 314.938 327.391C315.372 327.391 315.756 327.476 316.093 327.647C316.429 327.817 316.701 328.053 316.909 328.353C317.12 328.654 317.254 328.996 317.311 329.38H316.227C316.154 329.077 316.008 328.829 315.791 328.637C315.573 328.446 315.289 328.35 314.938 328.35C314.406 328.35 313.99 328.582 313.692 329.046C313.396 329.51 313.247 330.155 313.244 330.981H313.298C313.423 330.775 313.577 330.6 313.759 330.456C313.944 330.309 314.15 330.196 314.377 330.118C314.607 330.038 314.848 329.998 315.102 329.998C315.523 329.998 315.904 330.101 316.245 330.307C316.588 330.51 316.862 330.792 317.066 331.152C317.269 331.512 317.371 331.923 317.371 332.387C317.371 332.851 317.266 333.272 317.055 333.648C316.847 334.025 316.553 334.323 316.174 334.543C315.795 334.761 315.353 334.867 314.846 334.863ZM314.843 333.939C315.122 333.939 315.372 333.871 315.592 333.733C315.812 333.596 315.986 333.411 316.114 333.179C316.242 332.947 316.306 332.688 316.306 332.402C316.306 332.122 316.243 331.868 316.117 331.638C315.994 331.409 315.824 331.226 315.606 331.091C315.391 330.956 315.144 330.889 314.867 330.889C314.657 330.889 314.461 330.929 314.281 331.01C314.104 331.09 313.948 331.201 313.813 331.343C313.678 331.485 313.571 331.649 313.493 331.833C313.417 332.016 313.379 332.209 313.379 332.412C313.379 332.685 313.442 332.937 313.568 333.169C313.695 333.401 313.869 333.588 314.09 333.73C314.312 333.869 314.563 333.939 314.843 333.939Z" fill="white"/>
<defs>
<linearGradient id="paint0_linear_495_411" x1="237.277" y1="63.7489" x2="240.044" y2="217.526" gradientUnits="userSpaceOnUse">
<stop stop-color="#A9DFD8"/>
<stop offset="1" stop-color="#1D1E26" stop-opacity="0"/>
</linearGradient>
<linearGradient id="paint1_linear_495_411" x1="238.207" y1="140.309" x2="239.128" y2="269.925" gradientUnits="userSpaceOnUse">
<stop stop-color="#F2C8ED"/>
<stop offset="1" stop-color="#1D1E26" stop-opacity="0"/>
</linearGradient>
</defs>
</svg>
