<svg width="500" height="401" viewBox="0 0 500 401" fill="none" xmlns="http://www.w3.org/2000/svg">
<rect width="500" height="401" rx="30" fill="#080808"/>
<path d="M56.9639 276.766L61.4589 260.815L69.9495 276.766L73.9451 266.398L79.9385 276.766L85.9318 266.398L95.4213 276.766H107.908L124.389 221.736L136.875 112.472L145.366 200.202L158.851 211.367L167.342 200.202L177.83 217.748L190.316 211.367L198.807 165.11L205.3 180.263L216.787 75.7847L222.281 101.306L236.266 118.852L244.756 105.294L249.751 82.9626L255.744 105.294L268.23 118.852L281.715 193.024L291.205 130.815L302.193 112.472L313.68 130.815L322.17 101.306L327.664 118.852L342.648 135.601L359.629 130.815L372.115 105.294L390.095 200.202L402.582 211.367L413.07 180.263L419.063 200.202L432.049 211.367L437.543 240.079L445.534 204.987L459.019 180.263L467.01 211.367L474.502 165.11" stroke="#FF0000" stroke-width="3"/>
<path d="M61.9582 264.803L55.9648 283.944L476 285.539V165.907L467.51 218.545L458.52 185.048L447.032 205.784L437.543 245.662L431.05 212.962L418.064 201.797L413.07 185.048L403.081 213.76L388.597 201.797L371.616 110.079L360.628 132.41L342.148 137.993L326.665 120.447L322.17 106.889L314.179 134.803L302.192 115.662L292.703 131.613L282.215 200.202L266.732 120.447L254.745 106.889L249.75 89.3427L246.254 106.091L236.265 122.042L221.282 102.901L217.286 85.355L206.299 185.846L199.306 170.692L191.315 212.962L177.331 220.14L167.342 203.392L159.35 213.76L144.367 201.797L136.875 126.03L125.887 222.533L108.906 279.159H94.9217L85.9317 268.791L79.9383 279.159L73.945 270.386L69.9494 279.956L61.9582 264.803Z" fill="url(#paint0_linear_495_376)"/>
<path d="M55.5554 318.156H56.8622V323.27C56.8598 323.739 56.7604 324.143 56.5639 324.481C56.3674 324.817 56.0928 325.076 55.7401 325.259C55.3897 325.439 54.9813 325.529 54.5149 325.529C54.0888 325.529 53.7053 325.453 53.3643 325.301C53.0258 325.147 52.7571 324.92 52.5582 324.62C52.3594 324.319 52.2599 323.945 52.2599 323.497H53.5703C53.5727 323.694 53.6153 323.863 53.6982 324.005C53.7834 324.147 53.9006 324.256 54.0497 324.332C54.1989 324.408 54.3705 324.446 54.5646 324.446C54.7753 324.446 54.9541 324.402 55.1009 324.314C55.2476 324.224 55.3589 324.092 55.4347 323.916C55.5128 323.741 55.553 323.526 55.5554 323.27V318.156ZM59.8043 325.539C59.4587 325.539 59.1474 325.478 58.8704 325.355C58.5958 325.229 58.378 325.044 58.217 324.801C58.0584 324.557 57.979 324.256 57.979 323.899C57.979 323.591 58.0359 323.336 58.1495 323.135C58.2631 322.934 58.4182 322.773 58.6147 322.652C58.8112 322.531 59.0326 322.44 59.2788 322.379C59.5273 322.315 59.7842 322.269 60.0494 322.24C60.369 322.207 60.6282 322.178 60.8271 322.152C61.0259 322.123 61.1703 322.08 61.2603 322.024C61.3526 321.964 61.3988 321.873 61.3988 321.75V321.729C61.3988 321.461 61.3195 321.254 61.1609 321.107C61.0022 320.961 60.7738 320.887 60.4755 320.887C60.1606 320.887 59.9109 320.956 59.7262 321.093C59.5439 321.231 59.4208 321.393 59.3569 321.58L58.1566 321.409C58.2513 321.078 58.4076 320.801 58.6254 320.578C58.8432 320.353 59.1095 320.185 59.4244 320.074C59.7392 319.96 60.0872 319.904 60.4684 319.904C60.7312 319.904 60.9928 319.934 61.2532 319.996C61.5136 320.058 61.7515 320.159 61.967 320.301C62.1824 320.441 62.3552 320.632 62.4854 320.873C62.618 321.115 62.6843 321.416 62.6843 321.779V325.429H61.4485V324.68H61.4059C61.3278 324.831 61.2177 324.973 61.0756 325.106C60.936 325.236 60.7596 325.342 60.5465 325.422C60.3358 325.5 60.0884 325.539 59.8043 325.539ZM60.1381 324.595C60.3962 324.595 60.6199 324.544 60.8093 324.442C60.9987 324.338 61.1443 324.201 61.2461 324.03C61.3503 323.86 61.4023 323.674 61.4023 323.473V322.83C61.3621 322.863 61.2934 322.894 61.1964 322.922C61.1017 322.951 60.9951 322.975 60.8768 322.997C60.7584 323.018 60.6412 323.037 60.5252 323.053C60.4092 323.07 60.3086 323.084 60.2234 323.096C60.0316 323.122 59.86 323.165 59.7085 323.224C59.5569 323.283 59.4374 323.366 59.3498 323.473C59.2622 323.577 59.2184 323.712 59.2184 323.877C59.2184 324.114 59.3048 324.293 59.4776 324.414C59.6504 324.534 59.8706 324.595 60.1381 324.595ZM65.2624 322.233V325.429H63.9769V319.975H65.2056V320.902H65.2695C65.395 320.596 65.5951 320.353 65.8697 320.174C66.1467 319.994 66.4888 319.904 66.896 319.904C67.2724 319.904 67.6003 319.984 67.8796 320.145C68.1613 320.306 68.3791 320.539 68.533 320.845C68.6893 321.15 68.7662 321.521 68.7638 321.956V325.429H67.4783V322.155C67.4783 321.79 67.3836 321.505 67.1942 321.299C67.0072 321.093 66.748 320.99 66.4165 320.99C66.1916 320.99 65.9916 321.04 65.8164 321.139C65.6436 321.236 65.5075 321.377 65.408 321.562C65.311 321.747 65.2624 321.97 65.2624 322.233Z" fill="white"/>
<path d="M88.6861 325.429V318.156H93.3452V319.261H90.0036V321.235H93.0256V322.34H90.0036V325.429H88.6861ZM96.503 325.536C95.9561 325.536 95.4838 325.422 95.0861 325.195C94.6908 324.965 94.3865 324.641 94.1735 324.222C93.9604 323.8 93.8539 323.304 93.8539 322.734C93.8539 322.173 93.9604 321.68 94.1735 321.257C94.3889 320.83 94.6896 320.499 95.0755 320.262C95.4614 320.023 95.9147 319.904 96.4355 319.904C96.7717 319.904 97.089 319.958 97.3873 320.067C97.6879 320.174 97.9531 320.339 98.1827 320.564C98.4147 320.789 98.597 321.076 98.7296 321.424C98.8622 321.769 98.9284 322.181 98.9284 322.659V323.053H94.4576V322.187H97.6962C97.6938 321.941 97.6406 321.722 97.5364 321.53C97.4322 321.336 97.2866 321.183 97.0996 321.072C96.915 320.961 96.6995 320.905 96.4533 320.905C96.1905 320.905 95.9597 320.969 95.7608 321.097C95.562 321.222 95.4069 321.388 95.2956 321.594C95.1867 321.798 95.1311 322.021 95.1287 322.265V323.022C95.1287 323.339 95.1867 323.611 95.3027 323.838C95.4187 324.063 95.5809 324.236 95.7892 324.357C95.9976 324.475 96.2414 324.534 96.5208 324.534C96.7078 324.534 96.8771 324.508 97.0286 324.456C97.1801 324.402 97.3115 324.322 97.4228 324.218C97.534 324.114 97.6181 323.985 97.6749 323.831L98.8752 323.966C98.7994 324.283 98.655 324.56 98.4419 324.797C98.2312 325.031 97.9614 325.214 97.6323 325.344C97.3032 325.472 96.9268 325.536 96.503 325.536ZM100.073 325.429V318.156H101.358V320.877H101.412C101.478 320.744 101.571 320.603 101.692 320.454C101.813 320.303 101.976 320.174 102.182 320.067C102.388 319.958 102.651 319.904 102.971 319.904C103.392 319.904 103.772 320.011 104.11 320.227C104.451 320.44 104.721 320.756 104.92 321.175C105.121 321.592 105.222 322.103 105.222 322.709C105.222 323.308 105.124 323.817 104.927 324.236C104.731 324.655 104.463 324.975 104.125 325.195C103.786 325.415 103.403 325.525 102.974 325.525C102.662 325.525 102.402 325.473 102.196 325.369C101.99 325.265 101.825 325.139 101.699 324.992C101.576 324.843 101.48 324.702 101.412 324.57H101.337V325.429H100.073ZM101.333 322.702C101.333 323.055 101.383 323.364 101.483 323.629C101.584 323.894 101.73 324.101 101.919 324.25C102.111 324.397 102.343 324.47 102.615 324.47C102.9 324.47 103.137 324.395 103.329 324.243C103.521 324.089 103.665 323.88 103.762 323.615C103.862 323.347 103.912 323.043 103.912 322.702C103.912 322.363 103.863 322.063 103.766 321.8C103.669 321.537 103.525 321.331 103.333 321.182C103.141 321.033 102.902 320.958 102.615 320.958C102.341 320.958 102.108 321.031 101.916 321.175C101.724 321.319 101.578 321.522 101.479 321.782C101.382 322.043 101.333 322.349 101.333 322.702Z" fill="white"/>
<path d="M124.686 318.156H126.298L128.457 323.426H128.543L130.702 318.156H132.314V325.429H131.05V320.433H130.982L128.972 325.408H128.028L126.018 320.422H125.95V325.429H124.686V318.156ZM135.261 325.539C134.916 325.539 134.604 325.478 134.327 325.355C134.053 325.229 133.835 325.044 133.674 324.801C133.515 324.557 133.436 324.256 133.436 323.899C133.436 323.591 133.493 323.336 133.607 323.135C133.72 322.934 133.875 322.773 134.072 322.652C134.268 322.531 134.49 322.44 134.736 322.379C134.984 322.315 135.241 322.269 135.506 322.24C135.826 322.207 136.085 322.178 136.284 322.152C136.483 322.123 136.627 322.08 136.717 322.024C136.81 321.964 136.856 321.873 136.856 321.75V321.729C136.856 321.461 136.777 321.254 136.618 321.107C136.459 320.961 136.231 320.887 135.933 320.887C135.618 320.887 135.368 320.956 135.183 321.093C135.001 321.231 134.878 321.393 134.814 321.58L133.614 321.409C133.708 321.078 133.865 320.801 134.082 320.578C134.3 320.353 134.567 320.185 134.881 320.074C135.196 319.96 135.544 319.904 135.925 319.904C136.188 319.904 136.45 319.934 136.71 319.996C136.971 320.058 137.209 320.159 137.424 320.301C137.639 320.441 137.812 320.632 137.942 320.873C138.075 321.115 138.141 321.416 138.141 321.779V325.429H136.906V324.68H136.863C136.785 324.831 136.675 324.973 136.533 325.106C136.393 325.236 136.217 325.342 136.004 325.422C135.793 325.5 135.545 325.539 135.261 325.539ZM135.595 324.595C135.853 324.595 136.077 324.544 136.266 324.442C136.456 324.338 136.601 324.201 136.703 324.03C136.807 323.86 136.859 323.674 136.859 323.473V322.83C136.819 322.863 136.75 322.894 136.653 322.922C136.559 322.951 136.452 322.975 136.334 322.997C136.215 323.018 136.098 323.037 135.982 323.053C135.866 323.07 135.766 323.084 135.68 323.096C135.489 323.122 135.317 323.165 135.165 323.224C135.014 323.283 134.894 323.366 134.807 323.473C134.719 323.577 134.675 323.712 134.675 323.877C134.675 324.114 134.762 324.293 134.935 324.414C135.107 324.534 135.328 324.595 135.595 324.595ZM139.434 325.429V319.975H140.68V320.884H140.737C140.837 320.569 141.007 320.326 141.249 320.156C141.492 319.983 141.771 319.897 142.083 319.897C142.154 319.897 142.233 319.9 142.321 319.907C142.411 319.912 142.486 319.92 142.545 319.932V321.115C142.49 321.096 142.404 321.079 142.286 321.065C142.17 321.048 142.057 321.04 141.948 321.04C141.714 321.04 141.503 321.091 141.316 321.193C141.131 321.292 140.986 321.431 140.879 321.608C140.773 321.786 140.719 321.991 140.719 322.223V325.429H139.434Z" fill="white"/>
<path d="M162.62 325.429H161.214L163.774 318.156H165.401L167.964 325.429H166.558L164.616 319.648H164.559L162.62 325.429ZM162.666 322.578H166.501V323.636H162.666V322.578ZM168.866 327.475V319.975H170.13V320.877H170.204C170.271 320.744 170.364 320.603 170.485 320.454C170.606 320.303 170.769 320.174 170.975 320.067C171.181 319.958 171.444 319.904 171.763 319.904C172.185 319.904 172.565 320.011 172.903 320.227C173.244 320.44 173.514 320.756 173.713 321.175C173.914 321.592 174.015 322.103 174.015 322.709C174.015 323.308 173.916 323.817 173.72 324.236C173.523 324.655 173.256 324.975 172.917 325.195C172.579 325.415 172.195 325.525 171.767 325.525C171.454 325.525 171.195 325.473 170.989 325.369C170.783 325.265 170.617 325.139 170.492 324.992C170.369 324.843 170.273 324.702 170.204 324.57H170.151V327.475H168.866ZM170.126 322.702C170.126 323.055 170.176 323.364 170.275 323.629C170.377 323.894 170.523 324.101 170.712 324.25C170.904 324.397 171.136 324.47 171.408 324.47C171.692 324.47 171.93 324.395 172.122 324.243C172.314 324.089 172.458 323.88 172.555 323.615C172.655 323.347 172.704 323.043 172.704 322.702C172.704 322.363 172.656 322.063 172.559 321.8C172.462 321.537 172.317 321.331 172.126 321.182C171.934 321.033 171.695 320.958 171.408 320.958C171.134 320.958 170.9 321.031 170.709 321.175C170.517 321.319 170.371 321.522 170.272 321.782C170.175 322.043 170.126 322.349 170.126 322.702ZM175.116 325.429V319.975H176.362V320.884H176.419C176.518 320.569 176.689 320.326 176.93 320.156C177.174 319.983 177.452 319.897 177.765 319.897C177.836 319.897 177.915 319.9 178.003 319.907C178.093 319.912 178.167 319.92 178.226 319.932V321.115C178.172 321.096 178.086 321.079 177.967 321.065C177.851 321.048 177.739 321.04 177.63 321.04C177.395 321.04 177.185 321.091 176.998 321.193C176.813 321.292 176.667 321.431 176.561 321.608C176.454 321.786 176.401 321.991 176.401 322.223V325.429H175.116Z" fill="white"/>
<path d="M197.686 318.156H199.298L201.457 323.426H201.543L203.702 318.156H205.314V325.429H204.05V320.433H203.982L201.972 325.408H201.028L199.018 320.422H198.95V325.429H197.686V318.156ZM208.261 325.539C207.916 325.539 207.604 325.478 207.327 325.355C207.053 325.229 206.835 325.044 206.674 324.801C206.515 324.557 206.436 324.256 206.436 323.899C206.436 323.591 206.493 323.336 206.607 323.135C206.72 322.934 206.875 322.773 207.072 322.652C207.268 322.531 207.49 322.44 207.736 322.379C207.984 322.315 208.241 322.269 208.506 322.24C208.826 322.207 209.085 322.178 209.284 322.152C209.483 322.123 209.627 322.08 209.717 322.024C209.81 321.964 209.856 321.873 209.856 321.75V321.729C209.856 321.461 209.777 321.254 209.618 321.107C209.459 320.961 209.231 320.887 208.933 320.887C208.618 320.887 208.368 320.956 208.183 321.093C208.001 321.231 207.878 321.393 207.814 321.58L206.614 321.409C206.708 321.078 206.865 320.801 207.082 320.578C207.3 320.353 207.567 320.185 207.881 320.074C208.196 319.96 208.544 319.904 208.925 319.904C209.188 319.904 209.45 319.934 209.71 319.996C209.971 320.058 210.209 320.159 210.424 320.301C210.639 320.441 210.812 320.632 210.942 320.873C211.075 321.115 211.141 321.416 211.141 321.779V325.429H209.906V324.68H209.863C209.785 324.831 209.675 324.973 209.533 325.106C209.393 325.236 209.217 325.342 209.004 325.422C208.793 325.5 208.545 325.539 208.261 325.539ZM208.595 324.595C208.853 324.595 209.077 324.544 209.266 324.442C209.456 324.338 209.601 324.201 209.703 324.03C209.807 323.86 209.859 323.674 209.859 323.473V322.83C209.819 322.863 209.75 322.894 209.653 322.922C209.559 322.951 209.452 322.975 209.334 322.997C209.215 323.018 209.098 323.037 208.982 323.053C208.866 323.07 208.766 323.084 208.68 323.096C208.489 323.122 208.317 323.165 208.165 323.224C208.014 323.283 207.894 323.366 207.807 323.473C207.719 323.577 207.675 323.712 207.675 323.877C207.675 324.114 207.762 324.293 207.935 324.414C208.107 324.534 208.328 324.595 208.595 324.595ZM213.038 327.475C212.862 327.475 212.7 327.46 212.551 327.432C212.404 327.406 212.287 327.375 212.2 327.34L212.498 326.338C212.685 326.393 212.852 326.419 212.999 326.416C213.145 326.414 213.274 326.368 213.386 326.278C213.499 326.19 213.595 326.044 213.673 325.838L213.783 325.543L211.805 319.975H213.169L214.426 324.094H214.483L215.744 319.975H217.111L214.927 326.09C214.825 326.379 214.69 326.626 214.522 326.832C214.354 327.04 214.148 327.199 213.904 327.308C213.663 327.419 213.374 327.475 213.038 327.475Z" fill="white"/>
<path d="M239.555 318.156H240.862V323.27C240.86 323.739 240.76 324.143 240.564 324.481C240.367 324.817 240.093 325.076 239.74 325.259C239.39 325.439 238.981 325.529 238.515 325.529C238.089 325.529 237.705 325.453 237.364 325.301C237.026 325.147 236.757 324.92 236.558 324.62C236.359 324.319 236.26 323.945 236.26 323.497H237.57C237.573 323.694 237.615 323.863 237.698 324.005C237.783 324.147 237.901 324.256 238.05 324.332C238.199 324.408 238.371 324.446 238.565 324.446C238.775 324.446 238.954 324.402 239.101 324.314C239.248 324.224 239.359 324.092 239.435 323.916C239.513 323.741 239.553 323.526 239.555 323.27V318.156ZM245.711 323.135V319.975H246.997V325.429H245.75V324.46H245.694C245.57 324.765 245.368 325.015 245.086 325.209C244.807 325.403 244.462 325.5 244.053 325.5C243.695 325.5 243.379 325.421 243.105 325.262C242.833 325.101 242.619 324.868 242.466 324.563C242.312 324.255 242.235 323.883 242.235 323.448V319.975H243.52V323.249C243.52 323.594 243.615 323.869 243.804 324.073C243.994 324.276 244.242 324.378 244.55 324.378C244.739 324.378 244.923 324.332 245.1 324.24C245.278 324.147 245.424 324.01 245.537 323.828C245.653 323.643 245.711 323.412 245.711 323.135ZM249.604 322.233V325.429H248.319V319.975H249.547V320.902H249.611C249.737 320.596 249.937 320.353 250.211 320.174C250.488 319.994 250.831 319.904 251.238 319.904C251.614 319.904 251.942 319.984 252.221 320.145C252.503 320.306 252.721 320.539 252.875 320.845C253.031 321.15 253.108 321.521 253.106 321.956V325.429H251.82V322.155C251.82 321.79 251.725 321.505 251.536 321.299C251.349 321.093 251.09 320.99 250.758 320.99C250.533 320.99 250.333 321.04 250.158 321.139C249.985 321.236 249.849 321.377 249.75 321.562C249.653 321.747 249.604 321.97 249.604 322.233Z" fill="white"/>
<path d="M275.555 318.156H276.862V323.27C276.86 323.739 276.76 324.143 276.564 324.481C276.367 324.817 276.093 325.076 275.74 325.259C275.39 325.439 274.981 325.529 274.515 325.529C274.089 325.529 273.705 325.453 273.364 325.301C273.026 325.147 272.757 324.92 272.558 324.62C272.359 324.319 272.26 323.945 272.26 323.497H273.57C273.573 323.694 273.615 323.863 273.698 324.005C273.783 324.147 273.901 324.256 274.05 324.332C274.199 324.408 274.371 324.446 274.565 324.446C274.775 324.446 274.954 324.402 275.101 324.314C275.248 324.224 275.359 324.092 275.435 323.916C275.513 323.741 275.553 323.526 275.555 323.27V318.156ZM281.711 323.135V319.975H282.997V325.429H281.75V324.46H281.694C281.57 324.765 281.368 325.015 281.086 325.209C280.807 325.403 280.462 325.5 280.053 325.5C279.695 325.5 279.379 325.421 279.105 325.262C278.833 325.101 278.619 324.868 278.466 324.563C278.312 324.255 278.235 323.883 278.235 323.448V319.975H279.52V323.249C279.52 323.594 279.615 323.869 279.804 324.073C279.994 324.276 280.242 324.378 280.55 324.378C280.739 324.378 280.923 324.332 281.1 324.24C281.278 324.147 281.424 324.01 281.537 323.828C281.653 323.643 281.711 323.412 281.711 323.135ZM285.604 318.156V325.429H284.319V318.156H285.604Z" fill="white"/>
<path d="M306.62 325.429H305.214L307.774 318.156H309.401L311.964 325.429H310.558L308.616 319.648H308.559L306.62 325.429ZM306.666 322.578H310.501V323.636H306.666V322.578ZM316.342 323.135V319.975H317.628V325.429H316.381V324.46H316.324C316.201 324.765 315.999 325.015 315.717 325.209C315.438 325.403 315.093 325.5 314.684 325.5C314.326 325.5 314.01 325.421 313.736 325.262C313.463 325.101 313.25 324.868 313.096 324.563C312.943 324.255 312.866 323.883 312.866 323.448V319.975H314.151V323.249C314.151 323.594 314.246 323.869 314.435 324.073C314.625 324.276 314.873 324.378 315.181 324.378C315.37 324.378 315.554 324.332 315.731 324.24C315.909 324.147 316.055 324.01 316.168 323.828C316.284 323.643 316.342 323.412 316.342 323.135ZM321.322 327.588C320.86 327.588 320.464 327.526 320.132 327.4C319.801 327.277 319.534 327.111 319.333 326.903C319.132 326.695 318.992 326.464 318.914 326.21L320.072 325.93C320.124 326.036 320.2 326.142 320.299 326.246C320.398 326.352 320.532 326.44 320.7 326.509C320.871 326.58 321.085 326.615 321.343 326.615C321.708 326.615 322.009 326.527 322.249 326.349C322.488 326.174 322.607 325.885 322.607 325.482V324.449H322.543C322.477 324.582 322.38 324.718 322.252 324.857C322.127 324.997 321.96 325.114 321.751 325.209C321.545 325.304 321.286 325.351 320.974 325.351C320.555 325.351 320.175 325.253 319.834 325.056C319.495 324.857 319.225 324.562 319.024 324.169C318.825 323.773 318.726 323.278 318.726 322.684C318.726 322.085 318.825 321.58 319.024 321.168C319.225 320.754 319.496 320.44 319.837 320.227C320.178 320.011 320.558 319.904 320.977 319.904C321.297 319.904 321.56 319.958 321.766 320.067C321.974 320.174 322.14 320.303 322.263 320.454C322.386 320.603 322.479 320.744 322.543 320.877H322.614V319.975H323.882V325.518C323.882 325.984 323.771 326.37 323.548 326.676C323.326 326.981 323.022 327.21 322.636 327.361C322.25 327.513 321.812 327.588 321.322 327.588ZM321.332 324.343C321.605 324.343 321.837 324.276 322.028 324.144C322.22 324.011 322.366 323.821 322.465 323.572C322.565 323.323 322.614 323.025 322.614 322.677C322.614 322.334 322.565 322.033 322.465 321.775C322.368 321.517 322.224 321.317 322.032 321.175C321.843 321.031 321.609 320.958 321.332 320.958C321.046 320.958 320.807 321.033 320.615 321.182C320.423 321.331 320.279 321.536 320.182 321.796C320.085 322.054 320.036 322.348 320.036 322.677C320.036 323.011 320.085 323.303 320.182 323.554C320.281 323.803 320.427 323.997 320.619 324.137C320.813 324.274 321.051 324.343 321.332 324.343Z" fill="white"/>
<path d="M347.638 320.156C347.605 319.846 347.466 319.604 347.219 319.431C346.976 319.259 346.658 319.172 346.268 319.172C345.993 319.172 345.758 319.214 345.561 319.296C345.365 319.379 345.214 319.492 345.11 319.634C345.006 319.776 344.953 319.938 344.95 320.12C344.95 320.272 344.985 320.403 345.053 320.514C345.124 320.626 345.22 320.72 345.341 320.799C345.462 320.874 345.595 320.938 345.742 320.99C345.889 321.042 346.037 321.086 346.186 321.122L346.868 321.292C347.143 321.356 347.406 321.442 347.66 321.551C347.915 321.66 348.144 321.798 348.345 321.963C348.549 322.129 348.71 322.329 348.828 322.563C348.946 322.798 349.006 323.072 349.006 323.387C349.006 323.813 348.897 324.189 348.679 324.513C348.461 324.835 348.146 325.087 347.734 325.269C347.325 325.449 346.829 325.539 346.246 325.539C345.681 325.539 345.189 325.452 344.773 325.277C344.358 325.101 344.034 324.846 343.8 324.509C343.568 324.173 343.442 323.764 343.423 323.281H344.719C344.738 323.534 344.817 323.745 344.954 323.913C345.091 324.081 345.27 324.206 345.49 324.289C345.713 324.372 345.961 324.414 346.236 324.414C346.522 324.414 346.773 324.371 346.989 324.286C347.206 324.198 347.377 324.077 347.5 323.924C347.623 323.767 347.686 323.585 347.688 323.377C347.686 323.187 347.63 323.031 347.521 322.908C347.412 322.782 347.26 322.678 347.063 322.595C346.869 322.51 346.642 322.434 346.381 322.368L345.554 322.155C344.955 322.001 344.482 321.768 344.134 321.455C343.788 321.141 343.615 320.723 343.615 320.202C343.615 319.773 343.731 319.398 343.963 319.076C344.197 318.754 344.516 318.504 344.918 318.327C345.321 318.147 345.777 318.057 346.286 318.057C346.802 318.057 347.254 318.147 347.642 318.327C348.033 318.504 348.339 318.752 348.562 319.069C348.784 319.384 348.899 319.746 348.906 320.156H347.638ZM352.538 325.536C351.991 325.536 351.519 325.422 351.121 325.195C350.726 324.965 350.422 324.641 350.209 324.222C349.996 323.8 349.889 323.304 349.889 322.734C349.889 322.173 349.996 321.68 350.209 321.257C350.424 320.83 350.725 320.499 351.111 320.262C351.497 320.023 351.95 319.904 352.471 319.904C352.807 319.904 353.124 319.958 353.422 320.067C353.723 320.174 353.988 320.339 354.218 320.564C354.45 320.789 354.632 321.076 354.765 321.424C354.897 321.769 354.964 322.181 354.964 322.659V323.053H350.493V322.187H353.731C353.729 321.941 353.676 321.722 353.572 321.53C353.467 321.336 353.322 321.183 353.135 321.072C352.95 320.961 352.735 320.905 352.488 320.905C352.226 320.905 351.995 320.969 351.796 321.097C351.597 321.222 351.442 321.388 351.331 321.594C351.222 321.798 351.166 322.021 351.164 322.265V323.022C351.164 323.339 351.222 323.611 351.338 323.838C351.454 324.063 351.616 324.236 351.824 324.357C352.033 324.475 352.277 324.534 352.556 324.534C352.743 324.534 352.912 324.508 353.064 324.456C353.215 324.402 353.347 324.322 353.458 324.218C353.569 324.114 353.653 323.985 353.71 323.831L354.91 323.966C354.835 324.283 354.69 324.56 354.477 324.797C354.266 325.031 353.997 325.214 353.667 325.344C353.338 325.472 352.962 325.536 352.538 325.536ZM356.051 327.475V319.975H357.315V320.877H357.39C357.456 320.744 357.55 320.603 357.67 320.454C357.791 320.303 357.955 320.174 358.161 320.067C358.366 319.958 358.629 319.904 358.949 319.904C359.37 319.904 359.75 320.011 360.089 320.227C360.43 320.44 360.7 320.756 360.898 321.175C361.1 321.592 361.2 322.103 361.2 322.709C361.2 323.308 361.102 323.817 360.906 324.236C360.709 324.655 360.442 324.975 360.103 325.195C359.764 325.415 359.381 325.525 358.952 325.525C358.64 325.525 358.381 325.473 358.175 325.369C357.969 325.265 357.803 325.139 357.678 324.992C357.554 324.843 357.459 324.702 357.39 324.57H357.337V327.475H356.051ZM357.312 322.702C357.312 323.055 357.362 323.364 357.461 323.629C357.563 323.894 357.708 324.101 357.898 324.25C358.089 324.397 358.321 324.47 358.594 324.47C358.878 324.47 359.116 324.395 359.308 324.243C359.499 324.089 359.644 323.88 359.741 323.615C359.84 323.347 359.89 323.043 359.89 322.702C359.89 322.363 359.841 322.063 359.744 321.8C359.647 321.537 359.503 321.331 359.311 321.182C359.119 321.033 358.88 320.958 358.594 320.958C358.319 320.958 358.086 321.031 357.894 321.175C357.702 321.319 357.557 321.522 357.457 321.782C357.36 322.043 357.312 322.349 357.312 322.702Z" fill="white"/>
<path d="M387.185 321.793C387.185 322.576 387.038 323.248 386.744 323.806C386.453 324.363 386.055 324.789 385.551 325.085C385.049 325.381 384.48 325.529 383.843 325.529C383.206 325.529 382.636 325.381 382.131 325.085C381.629 324.786 381.232 324.359 380.938 323.803C380.647 323.244 380.501 322.574 380.501 321.793C380.501 321.009 380.647 320.339 380.938 319.783C381.232 319.224 381.629 318.797 382.131 318.501C382.636 318.205 383.206 318.057 383.843 318.057C384.48 318.057 385.049 318.205 385.551 318.501C386.055 318.797 386.453 319.224 386.744 319.783C387.038 320.339 387.185 321.009 387.185 321.793ZM385.86 321.793C385.86 321.241 385.774 320.776 385.601 320.397C385.43 320.016 385.194 319.728 384.891 319.534C384.588 319.338 384.238 319.24 383.843 319.24C383.448 319.24 383.098 319.338 382.795 319.534C382.492 319.728 382.254 320.016 382.082 320.397C381.911 320.776 381.826 321.241 381.826 321.793C381.826 322.344 381.911 322.811 382.082 323.192C382.254 323.571 382.492 323.858 382.795 324.055C383.098 324.249 383.448 324.346 383.843 324.346C384.238 324.346 384.588 324.249 384.891 324.055C385.194 323.858 385.43 323.571 385.601 323.192C385.774 322.811 385.86 322.344 385.86 321.793ZM390.753 325.536C390.208 325.536 389.741 325.416 389.35 325.177C388.962 324.938 388.662 324.608 388.452 324.186C388.243 323.763 388.139 323.275 388.139 322.723C388.139 322.169 388.246 321.68 388.459 321.257C388.672 320.83 388.972 320.499 389.361 320.262C389.751 320.023 390.213 319.904 390.746 319.904C391.188 319.904 391.58 319.985 391.921 320.149C392.264 320.31 392.538 320.538 392.741 320.834C392.945 321.128 393.061 321.471 393.089 321.864H391.861C391.811 321.601 391.693 321.382 391.506 321.207C391.321 321.029 391.073 320.941 390.763 320.941C390.501 320.941 390.27 321.012 390.071 321.154C389.872 321.293 389.717 321.495 389.606 321.757C389.497 322.02 389.442 322.335 389.442 322.702C389.442 323.074 389.497 323.393 389.606 323.661C389.715 323.926 389.867 324.131 390.064 324.275C390.263 324.417 390.496 324.488 390.763 324.488C390.953 324.488 391.122 324.453 391.271 324.382C391.423 324.308 391.549 324.203 391.651 324.066C391.753 323.928 391.823 323.761 391.861 323.565H393.089C393.059 323.951 392.945 324.293 392.748 324.591C392.552 324.887 392.284 325.119 391.946 325.287C391.607 325.453 391.21 325.536 390.753 325.536ZM396.869 319.975V320.969H393.733V319.975H396.869ZM394.507 318.668H395.793V323.789C395.793 323.961 395.819 324.094 395.871 324.186C395.925 324.276 395.996 324.338 396.084 324.371C396.171 324.404 396.268 324.421 396.375 324.421C396.455 324.421 396.529 324.415 396.595 324.403C396.664 324.391 396.716 324.38 396.751 324.371L396.968 325.376C396.899 325.4 396.801 325.426 396.673 325.454C396.548 325.482 396.394 325.499 396.212 325.504C395.89 325.513 395.6 325.465 395.342 325.358C395.084 325.249 394.879 325.081 394.727 324.854C394.578 324.627 394.505 324.343 394.507 324.002V318.668Z" fill="white"/>
<path d="M422.663 318.156V325.429H421.491L418.064 320.475H418.004V325.429H416.686V318.156H417.865L421.288 323.114H421.352V318.156H422.663ZM426.421 325.536C425.888 325.536 425.426 325.419 425.036 325.184C424.645 324.95 424.342 324.622 424.127 324.201C423.914 323.779 423.807 323.287 423.807 322.723C423.807 322.16 423.914 321.666 424.127 321.242C424.342 320.819 424.645 320.49 425.036 320.255C425.426 320.021 425.888 319.904 426.421 319.904C426.953 319.904 427.415 320.021 427.806 320.255C428.196 320.49 428.498 320.819 428.711 321.242C428.927 321.666 429.034 322.16 429.034 322.723C429.034 323.287 428.927 323.779 428.711 324.201C428.498 324.622 428.196 324.95 427.806 325.184C427.415 325.419 426.953 325.536 426.421 325.536ZM426.428 324.506C426.717 324.506 426.958 324.427 427.152 324.268C427.346 324.107 427.491 323.892 427.585 323.622C427.682 323.352 427.731 323.051 427.731 322.72C427.731 322.386 427.682 322.084 427.585 321.814C427.491 321.542 427.346 321.325 427.152 321.164C426.958 321.003 426.717 320.923 426.428 320.923C426.132 320.923 425.886 321.003 425.689 321.164C425.495 321.325 425.349 321.542 425.252 321.814C425.158 322.084 425.11 322.386 425.11 322.72C425.11 323.051 425.158 323.352 425.252 323.622C425.349 323.892 425.495 324.107 425.689 324.268C425.886 324.427 426.132 324.506 426.428 324.506ZM434.812 319.975L432.869 325.429H431.449L429.507 319.975H430.877L432.131 324.027H432.188L433.445 319.975H434.812Z" fill="white"/>
<path d="M457.151 325.429H454.686V318.156H457.2C457.922 318.156 458.543 318.302 459.061 318.593C459.582 318.882 459.982 319.298 460.261 319.84C460.541 320.382 460.68 321.031 460.68 321.786C460.68 322.543 460.54 323.194 460.258 323.739C459.978 324.283 459.575 324.701 459.047 324.992C458.521 325.284 457.889 325.429 457.151 325.429ZM456.004 324.289H457.087C457.593 324.289 458.016 324.197 458.354 324.012C458.693 323.825 458.947 323.547 459.118 323.178C459.288 322.806 459.374 322.342 459.374 321.786C459.374 321.229 459.288 320.768 459.118 320.401C458.947 320.031 458.695 319.756 458.362 319.573C458.03 319.389 457.618 319.296 457.126 319.296H456.004V324.289ZM464.29 325.536C463.743 325.536 463.271 325.422 462.873 325.195C462.478 324.965 462.174 324.641 461.961 324.222C461.748 323.8 461.641 323.304 461.641 322.734C461.641 322.173 461.748 321.68 461.961 321.257C462.176 320.83 462.477 320.499 462.863 320.262C463.248 320.023 463.702 319.904 464.223 319.904C464.559 319.904 464.876 319.958 465.174 320.067C465.475 320.174 465.74 320.339 465.97 320.564C466.202 320.789 466.384 321.076 466.517 321.424C466.649 321.769 466.716 322.181 466.716 322.659V323.053H462.245V322.187H465.483C465.481 321.941 465.428 321.722 465.324 321.53C465.219 321.336 465.074 321.183 464.887 321.072C464.702 320.961 464.487 320.905 464.24 320.905C463.978 320.905 463.747 320.969 463.548 321.097C463.349 321.222 463.194 321.388 463.083 321.594C462.974 321.798 462.918 322.021 462.916 322.265V323.022C462.916 323.339 462.974 323.611 463.09 323.838C463.206 324.063 463.368 324.236 463.576 324.357C463.785 324.475 464.029 324.534 464.308 324.534C464.495 324.534 464.664 324.508 464.816 324.456C464.967 324.402 465.099 324.322 465.21 324.218C465.321 324.114 465.405 323.985 465.462 323.831L466.662 323.966C466.587 324.283 466.442 324.56 466.229 324.797C466.018 325.031 465.748 325.214 465.419 325.344C465.09 325.472 464.714 325.536 464.29 325.536ZM470.182 325.536C469.638 325.536 469.17 325.416 468.78 325.177C468.391 324.938 468.092 324.608 467.881 324.186C467.673 323.763 467.569 323.275 467.569 322.723C467.569 322.169 467.675 321.68 467.888 321.257C468.101 320.83 468.402 320.499 468.79 320.262C469.181 320.023 469.643 319.904 470.175 319.904C470.618 319.904 471.01 319.985 471.351 320.149C471.694 320.31 471.967 320.538 472.171 320.834C472.375 321.128 472.491 321.471 472.519 321.864H471.29C471.241 321.601 471.122 321.382 470.935 321.207C470.751 321.029 470.503 320.941 470.193 320.941C469.93 320.941 469.699 321.012 469.501 321.154C469.302 321.293 469.147 321.495 469.035 321.757C468.926 322.02 468.872 322.335 468.872 322.702C468.872 323.074 468.926 323.393 469.035 323.661C469.144 323.926 469.297 324.131 469.493 324.275C469.692 324.417 469.925 324.488 470.193 324.488C470.382 324.488 470.552 324.453 470.701 324.382C470.852 324.308 470.979 324.203 471.081 324.066C471.183 323.928 471.252 323.761 471.29 323.565H472.519C472.488 323.951 472.375 324.293 472.178 324.591C471.982 324.887 471.714 325.119 471.376 325.287C471.037 325.453 470.639 325.536 470.182 325.536Z" fill="white"/>
<path d="M27.1637 81.0994C26.6902 81.0994 26.2664 81.0107 25.8924 80.8331C25.5183 80.6532 25.2212 80.407 25.001 80.0945C24.7832 79.782 24.6672 79.4245 24.653 79.022H25.9314C25.9551 79.3203 26.0841 79.5642 26.3185 79.7536C26.5529 79.9406 26.8346 80.0341 27.1637 80.0341C27.4217 80.0341 27.6514 79.9749 27.8526 79.8565C28.0538 79.7382 28.2124 79.5736 28.3284 79.3629C28.4444 79.1522 28.5013 78.9119 28.4989 78.642C28.5013 78.3674 28.4433 78.1236 28.3249 77.9105C28.2065 77.6974 28.0443 77.5305 27.8384 77.4098C27.6324 77.2867 27.3957 77.2251 27.1282 77.2251C26.9104 77.2228 26.6961 77.263 26.4854 77.3459C26.2747 77.4287 26.1078 77.5376 25.9847 77.6726L24.7951 77.4773L25.175 73.7273H29.3938V74.8281H26.2652L26.0557 76.7564H26.0983C26.2333 76.5978 26.4238 76.4664 26.6701 76.3622C26.9163 76.2557 27.1862 76.2024 27.4797 76.2024C27.9201 76.2024 28.3131 76.3066 28.6587 76.5149C29.0043 76.7209 29.2766 77.005 29.4755 77.3672C29.6743 77.7294 29.7738 78.1437 29.7738 78.6101C29.7738 79.0907 29.6625 79.5192 29.4399 79.8956C29.2198 80.2696 28.9132 80.5644 28.5202 80.7798C28.1296 80.9929 27.6774 81.0994 27.1637 81.0994ZM33.6516 81.1385C33.0668 81.1385 32.5649 80.9905 32.1459 80.6946C31.7292 80.3963 31.4085 79.9666 31.1836 79.4055C30.961 78.8421 30.8497 78.1638 30.8497 77.3707C30.8521 76.5777 30.9646 75.9029 31.1871 75.3466C31.412 74.7879 31.7328 74.3617 32.1495 74.0682C32.5685 73.7746 33.0692 73.6278 33.6516 73.6278C34.234 73.6278 34.7347 73.7746 35.1537 74.0682C35.5728 74.3617 35.8935 74.7879 36.1161 75.3466C36.341 75.9053 36.4534 76.58 36.4534 77.3707C36.4534 78.1662 36.341 78.8456 36.1161 79.4091C35.8935 79.9702 35.5728 80.3987 35.1537 80.6946C34.7371 80.9905 34.2363 81.1385 33.6516 81.1385ZM33.6516 80.027C34.1061 80.027 34.4648 79.8033 34.7276 79.3558C34.9927 78.906 35.1253 78.2443 35.1253 77.3707C35.1253 76.7931 35.0649 76.3078 34.9442 75.9148C34.8235 75.5218 34.653 75.2259 34.4328 75.027C34.2127 74.8258 33.9523 74.7251 33.6516 74.7251C33.1994 74.7251 32.8419 74.95 32.5791 75.3999C32.3164 75.8473 32.1838 76.5043 32.1814 77.3707C32.1791 77.9508 32.2371 78.4384 32.3554 78.8338C32.4762 79.2292 32.6466 79.5275 32.8668 79.7287C33.087 79.9276 33.3486 80.027 33.6516 80.027ZM40.3215 81.1385C39.7368 81.1385 39.2349 80.9905 38.8158 80.6946C38.3992 80.3963 38.0784 79.9666 37.8535 79.4055C37.6309 78.8421 37.5197 78.1638 37.5197 77.3707C37.522 76.5777 37.6345 75.9029 37.857 75.3466C38.0819 74.7879 38.4027 74.3617 38.8194 74.0682C39.2384 73.7746 39.7391 73.6278 40.3215 73.6278C40.9039 73.6278 41.4046 73.7746 41.8236 74.0682C42.2427 74.3617 42.5635 74.7879 42.786 75.3466C43.0109 75.9053 43.1234 76.58 43.1234 77.3707C43.1234 78.1662 43.0109 78.8456 42.786 79.4091C42.5635 79.9702 42.2427 80.3987 41.8236 80.6946C41.407 80.9905 40.9063 81.1385 40.3215 81.1385ZM40.3215 80.027C40.7761 80.027 41.1347 79.8033 41.3975 79.3558C41.6627 78.906 41.7952 78.2443 41.7952 77.3707C41.7952 76.7931 41.7349 76.3078 41.6141 75.9148C41.4934 75.5218 41.3229 75.2259 41.1028 75.027C40.8826 74.8258 40.6222 74.7251 40.3215 74.7251C39.8693 74.7251 39.5119 74.95 39.2491 75.3999C38.9863 75.8473 38.8537 76.5043 38.8513 77.3707C38.849 77.9508 38.907 78.4384 39.0253 78.8338C39.1461 79.2292 39.3165 79.5275 39.5367 79.7287C39.7569 79.9276 40.0185 80.027 40.3215 80.027Z" fill="white"/>
<path d="M24.5039 107.651V106.603L27.5898 101.727H28.4634V103.219H27.9307L25.8533 106.511V106.567H30.1608V107.651H24.5039ZM27.9733 109V107.331L27.9875 106.862V101.727H29.2304V109H27.9733ZM33.9836 109.138C33.3989 109.138 32.897 108.991 32.4779 108.695C32.0613 108.396 31.7405 107.967 31.5156 107.406C31.293 106.842 31.1818 106.164 31.1818 105.371C31.1841 104.578 31.2966 103.903 31.5191 103.347C31.744 102.788 32.0648 102.362 32.4815 102.068C32.9005 101.775 33.4012 101.628 33.9836 101.628C34.566 101.628 35.0667 101.775 35.4858 102.068C35.9048 102.362 36.2256 102.788 36.4481 103.347C36.673 103.905 36.7855 104.58 36.7855 105.371C36.7855 106.166 36.673 106.846 36.4481 107.409C36.2256 107.97 35.9048 108.399 35.4858 108.695C35.0691 108.991 34.5684 109.138 33.9836 109.138ZM33.9836 108.027C34.4382 108.027 34.7968 107.803 35.0596 107.356C35.3248 106.906 35.4573 106.244 35.4573 105.371C35.4573 104.793 35.397 104.308 35.2762 103.915C35.1555 103.522 34.985 103.226 34.7649 103.027C34.5447 102.826 34.2843 102.725 33.9836 102.725C33.5314 102.725 33.174 102.95 32.9112 103.4C32.6484 103.847 32.5158 104.504 32.5135 105.371C32.5111 105.951 32.5691 106.438 32.6875 106.834C32.8082 107.229 32.9787 107.527 33.1988 107.729C33.419 107.928 33.6806 108.027 33.9836 108.027ZM40.6535 109.138C40.0688 109.138 39.5669 108.991 39.1479 108.695C38.7312 108.396 38.4104 107.967 38.1855 107.406C37.963 106.842 37.8517 106.164 37.8517 105.371C37.8541 104.578 37.9665 103.903 38.1891 103.347C38.414 102.788 38.7347 102.362 39.1514 102.068C39.5704 101.775 40.0712 101.628 40.6535 101.628C41.2359 101.628 41.7366 101.775 42.1557 102.068C42.5747 102.362 42.8955 102.788 43.118 103.347C43.3429 103.905 43.4554 104.58 43.4554 105.371C43.4554 106.166 43.3429 106.846 43.118 107.409C42.8955 107.97 42.5747 108.399 42.1557 108.695C41.739 108.991 41.2383 109.138 40.6535 109.138ZM40.6535 108.027C41.1081 108.027 41.4668 107.803 41.7295 107.356C41.9947 106.906 42.1273 106.244 42.1273 105.371C42.1273 104.793 42.0669 104.308 41.9462 103.915C41.8254 103.522 41.655 103.226 41.4348 103.027C41.2146 102.826 40.9542 102.725 40.6535 102.725C40.2014 102.725 39.8439 102.95 39.5811 103.4C39.3183 103.847 39.1857 104.504 39.1834 105.371C39.181 105.951 39.239 106.438 39.3574 106.834C39.4781 107.229 39.6486 107.527 39.8687 107.729C40.0889 107.928 40.3505 108.027 40.6535 108.027Z" fill="white"/>
<path d="M27.2453 137.099C26.734 137.099 26.2794 137.012 25.8817 136.837C25.4863 136.661 25.1738 136.418 24.9442 136.105C24.7146 135.793 24.5926 135.432 24.5784 135.022H25.9137C25.9255 135.219 25.9906 135.39 26.109 135.537C26.2274 135.681 26.3848 135.794 26.5813 135.874C26.7778 135.955 26.9979 135.995 27.2418 135.995C27.5022 135.995 27.733 135.95 27.9343 135.86C28.1355 135.768 28.2929 135.64 28.4066 135.477C28.5202 135.313 28.5758 135.125 28.5735 134.912C28.5758 134.692 28.519 134.498 28.403 134.33C28.287 134.161 28.1189 134.03 27.8988 133.935C27.6809 133.841 27.4182 133.793 27.1104 133.793H26.4676V132.778H27.1104C27.3637 132.778 27.5851 132.734 27.7745 132.646C27.9662 132.559 28.1166 132.436 28.2255 132.277C28.3344 132.116 28.3876 131.93 28.3853 131.719C28.3876 131.513 28.3415 131.335 28.2468 131.183C28.1544 131.029 28.023 130.91 27.8526 130.825C27.6845 130.739 27.4868 130.697 27.2595 130.697C27.037 130.697 26.831 130.737 26.6416 130.817C26.4523 130.898 26.2996 131.013 26.1836 131.162C26.0675 131.309 26.006 131.484 25.9989 131.688H24.7311C24.7406 131.28 24.8578 130.923 25.0827 130.615C25.31 130.305 25.613 130.063 25.9918 129.891C26.3706 129.715 26.7955 129.628 27.2666 129.628C27.752 129.628 28.1734 129.719 28.5309 129.901C28.8907 130.081 29.1689 130.324 29.3654 130.629C29.5619 130.935 29.6601 131.272 29.6601 131.641C29.6625 132.051 29.5417 132.394 29.2979 132.671C29.0564 132.948 28.7392 133.129 28.3462 133.214V133.271C28.8576 133.342 29.2494 133.532 29.5216 133.839C29.7962 134.145 29.9324 134.525 29.93 134.979C29.93 135.387 29.814 135.751 29.582 136.073C29.3524 136.393 29.0351 136.644 28.6303 136.826C28.2278 137.008 27.7662 137.099 27.2453 137.099ZM33.8371 137.138C33.2524 137.138 32.7505 136.991 32.3315 136.695C31.9148 136.396 31.594 135.967 31.3691 135.406C31.1466 134.842 31.0353 134.164 31.0353 133.371C31.0377 132.578 31.1501 131.903 31.3727 131.347C31.5976 130.788 31.9183 130.362 32.335 130.068C32.754 129.775 33.2548 129.628 33.8371 129.628C34.4195 129.628 34.9202 129.775 35.3393 130.068C35.7583 130.362 36.0791 130.788 36.3016 131.347C36.5265 131.905 36.639 132.58 36.639 133.371C36.639 134.166 36.5265 134.846 36.3016 135.409C36.0791 135.97 35.7583 136.399 35.3393 136.695C34.9226 136.991 34.4219 137.138 33.8371 137.138ZM33.8371 136.027C34.2917 136.027 34.6503 135.803 34.9131 135.356C35.1783 134.906 35.3109 134.244 35.3109 133.371C35.3109 132.793 35.2505 132.308 35.1298 131.915C35.009 131.522 34.8386 131.226 34.6184 131.027C34.3982 130.826 34.1378 130.725 33.8371 130.725C33.385 130.725 33.0275 130.95 32.7647 131.4C32.5019 131.847 32.3693 132.504 32.367 133.371C32.3646 133.951 32.4226 134.438 32.541 134.834C32.6617 135.229 32.8322 135.527 33.0523 135.729C33.2725 135.928 33.5341 136.027 33.8371 136.027ZM40.5071 137.138C39.9223 137.138 39.4204 136.991 39.0014 136.695C38.5847 136.396 38.2639 135.967 38.039 135.406C37.8165 134.842 37.7052 134.164 37.7052 133.371C37.7076 132.578 37.82 131.903 38.0426 131.347C38.2675 130.788 38.5883 130.362 39.0049 130.068C39.424 129.775 39.9247 129.628 40.5071 129.628C41.0894 129.628 41.5902 129.775 42.0092 130.068C42.4282 130.362 42.749 130.788 42.9716 131.347C43.1965 131.905 43.3089 132.58 43.3089 133.371C43.3089 134.166 43.1965 134.846 42.9716 135.409C42.749 135.97 42.4282 136.399 42.0092 136.695C41.5925 136.991 41.0918 137.138 40.5071 137.138ZM40.5071 136.027C40.9616 136.027 41.3203 135.803 41.5831 135.356C41.8482 134.906 41.9808 134.244 41.9808 133.371C41.9808 132.793 41.9204 132.308 41.7997 131.915C41.6789 131.522 41.5085 131.226 41.2883 131.027C41.0681 130.826 40.8077 130.725 40.5071 130.725C40.0549 130.725 39.6974 130.95 39.4346 131.4C39.1718 131.847 39.0393 132.504 39.0369 133.371C39.0345 133.951 39.0925 134.438 39.2109 134.834C39.3316 135.229 39.5021 135.527 39.7223 135.729C39.9424 135.928 40.204 136.027 40.5071 136.027Z" fill="white"/>
<path d="M24.6353 165V164.048L27.1601 161.573C27.4016 161.329 27.6028 161.113 27.7638 160.923C27.9248 160.734 28.0455 160.55 28.126 160.373C28.2065 160.195 28.2468 160.006 28.2468 159.805C28.2468 159.575 28.1947 159.379 28.0905 159.215C27.9863 159.049 27.8431 158.922 27.6608 158.832C27.4785 158.742 27.2714 158.697 27.0394 158.697C26.8003 158.697 26.5908 158.746 26.4108 158.846C26.2309 158.943 26.0912 159.081 25.9918 159.261C25.8947 159.441 25.8462 159.656 25.8462 159.904H24.5926C24.5926 159.442 24.698 159.041 24.9087 158.7C25.1194 158.359 25.4094 158.095 25.7787 157.908C26.1504 157.721 26.5765 157.628 27.0571 157.628C27.5448 157.628 27.9733 157.719 28.3426 157.901C28.712 158.084 28.9984 158.333 29.202 158.651C29.408 158.968 29.511 159.33 29.511 159.737C29.511 160.009 29.4589 160.277 29.3547 160.54C29.2506 160.803 29.0671 161.094 28.8043 161.413C28.5439 161.733 28.1781 162.12 27.707 162.575L26.4534 163.849V163.899H29.6211V165H24.6353ZM33.5344 165.138C32.9497 165.138 32.4478 164.991 32.0287 164.695C31.6121 164.396 31.2913 163.967 31.0664 163.406C30.8438 162.842 30.7326 162.164 30.7326 161.371C30.7349 160.578 30.8474 159.903 31.0699 159.347C31.2948 158.788 31.6156 158.362 32.0323 158.068C32.4513 157.775 32.952 157.628 33.5344 157.628C34.1168 157.628 34.6175 157.775 35.0365 158.068C35.4556 158.362 35.7764 158.788 35.9989 159.347C36.2238 159.905 36.3363 160.58 36.3363 161.371C36.3363 162.166 36.2238 162.846 35.9989 163.409C35.7764 163.97 35.4556 164.399 35.0365 164.695C34.6199 164.991 34.1192 165.138 33.5344 165.138ZM33.5344 164.027C33.989 164.027 34.3476 163.803 34.6104 163.356C34.8756 162.906 35.0081 162.244 35.0081 161.371C35.0081 160.793 34.9478 160.308 34.827 159.915C34.7063 159.522 34.5358 159.226 34.3157 159.027C34.0955 158.826 33.8351 158.725 33.5344 158.725C33.0822 158.725 32.7247 158.95 32.462 159.4C32.1992 159.847 32.0666 160.504 32.0642 161.371C32.0619 161.951 32.1199 162.438 32.2382 162.834C32.359 163.229 32.5294 163.527 32.7496 163.729C32.9698 163.928 33.2314 164.027 33.5344 164.027ZM40.2043 165.138C39.6196 165.138 39.1177 164.991 38.6986 164.695C38.282 164.396 37.9612 163.967 37.7363 163.406C37.5137 162.842 37.4025 162.164 37.4025 161.371C37.4048 160.578 37.5173 159.903 37.7398 159.347C37.9647 158.788 38.2855 158.362 38.7022 158.068C39.1212 157.775 39.6219 157.628 40.2043 157.628C40.7867 157.628 41.2874 157.775 41.7065 158.068C42.1255 158.362 42.4463 158.788 42.6688 159.347C42.8937 159.905 43.0062 160.58 43.0062 161.371C43.0062 162.166 42.8937 162.846 42.6688 163.409C42.4463 163.97 42.1255 164.399 41.7065 164.695C41.2898 164.991 40.7891 165.138 40.2043 165.138ZM40.2043 164.027C40.6589 164.027 41.0175 163.803 41.2803 163.356C41.5455 162.906 41.678 162.244 41.678 161.371C41.678 160.793 41.6177 160.308 41.4969 159.915C41.3762 159.522 41.2057 159.226 40.9856 159.027C40.7654 158.826 40.505 158.725 40.2043 158.725C39.7521 158.725 39.3947 158.95 39.1319 159.4C38.8691 159.847 38.7365 160.504 38.7342 161.371C38.7318 161.951 38.7898 162.438 38.9082 162.834C39.0289 163.229 39.1994 163.527 39.4195 163.729C39.6397 163.928 39.9013 164.027 40.2043 164.027Z" fill="white"/>
<path d="M28.0934 185.727V193H26.7759V187.009H26.7333L25.0323 188.096V186.888L26.8398 185.727H28.0934ZM32.6282 193.138C32.0434 193.138 31.5415 192.991 31.1225 192.695C30.7058 192.396 30.385 191.967 30.1601 191.406C29.9376 190.842 29.8263 190.164 29.8263 189.371C29.8287 188.578 29.9411 187.903 30.1637 187.347C30.3886 186.788 30.7094 186.362 31.126 186.068C31.5451 185.775 32.0458 185.628 32.6282 185.628C33.2105 185.628 33.7113 185.775 34.1303 186.068C34.5493 186.362 34.8701 186.788 35.0926 187.347C35.3175 187.905 35.43 188.58 35.43 189.371C35.43 190.166 35.3175 190.846 35.0926 191.409C34.8701 191.97 34.5493 192.399 34.1303 192.695C33.7136 192.991 33.2129 193.138 32.6282 193.138ZM32.6282 192.027C33.0827 192.027 33.4414 191.803 33.7041 191.356C33.9693 190.906 34.1019 190.244 34.1019 189.371C34.1019 188.793 34.0415 188.308 33.9208 187.915C33.8 187.522 33.6296 187.226 33.4094 187.027C33.1892 186.826 32.9288 186.725 32.6282 186.725C32.176 186.725 31.8185 186.95 31.5557 187.4C31.2929 187.847 31.1604 188.504 31.158 189.371C31.1556 189.951 31.2136 190.438 31.332 190.834C31.4527 191.229 31.6232 191.527 31.8434 191.729C32.0635 191.928 32.3251 192.027 32.6282 192.027ZM39.2981 193.138C38.7133 193.138 38.2114 192.991 37.7924 192.695C37.3757 192.396 37.0549 191.967 36.83 191.406C36.6075 190.842 36.4962 190.164 36.4962 189.371C36.4986 188.578 36.6111 187.903 36.8336 187.347C37.0585 186.788 37.3793 186.362 37.7959 186.068C38.215 185.775 38.7157 185.628 39.2981 185.628C39.8805 185.628 40.3812 185.775 40.8002 186.068C41.2192 186.362 41.54 186.788 41.7626 187.347C41.9875 187.905 42.0999 188.58 42.0999 189.371C42.0999 190.166 41.9875 190.846 41.7626 191.409C41.54 191.97 41.2192 192.399 40.8002 192.695C40.3835 192.991 39.8828 193.138 39.2981 193.138ZM39.2981 192.027C39.7526 192.027 40.1113 191.803 40.3741 191.356C40.6392 190.906 40.7718 190.244 40.7718 189.371C40.7718 188.793 40.7114 188.308 40.5907 187.915C40.47 187.522 40.2995 187.226 40.0793 187.027C39.8592 186.826 39.5987 186.725 39.2981 186.725C38.8459 186.725 38.4884 186.95 38.2256 187.4C37.9628 187.847 37.8303 188.504 37.8279 189.371C37.8255 189.951 37.8835 190.438 38.0019 190.834C38.1227 191.229 38.2931 191.527 38.5133 191.729C38.7334 191.928 38.995 192.027 39.2981 192.027Z" fill="white"/>
<path d="M33.8235 221.138C33.2387 221.138 32.7368 220.991 32.3178 220.695C31.9011 220.396 31.5803 219.967 31.3554 219.406C31.1329 218.842 31.0216 218.164 31.0216 217.371C31.024 216.578 31.1364 215.903 31.359 215.347C31.5839 214.788 31.9047 214.362 32.3213 214.068C32.7404 213.775 33.2411 213.628 33.8235 213.628C34.4059 213.628 34.9066 213.775 35.3256 214.068C35.7446 214.362 36.0654 214.788 36.288 215.347C36.5129 215.905 36.6253 216.58 36.6253 217.371C36.6253 218.166 36.5129 218.846 36.288 219.409C36.0654 219.97 35.7446 220.399 35.3256 220.695C34.9089 220.991 34.4082 221.138 33.8235 221.138ZM33.8235 220.027C34.278 220.027 34.6367 219.803 34.8995 219.356C35.1646 218.906 35.2972 218.244 35.2972 217.371C35.2972 216.793 35.2368 216.308 35.1161 215.915C34.9953 215.522 34.8249 215.226 34.6047 215.027C34.3845 214.826 34.1241 214.725 33.8235 214.725C33.3713 214.725 33.0138 214.95 32.751 215.4C32.4882 215.847 32.3557 216.504 32.3533 217.371C32.3509 217.951 32.4089 218.438 32.5273 218.834C32.648 219.229 32.8185 219.527 33.0387 219.729C33.2588 219.928 33.5204 220.027 33.8235 220.027Z" fill="white"/>
<rect x="276" y="24" width="101.654" height="22.7478" rx="4.26522" fill="#0D0D0D"/>
<rect x="276.178" y="24.1777" width="101.299" height="22.3924" rx="4.0875" stroke="#87936D" stroke-opacity="0.15" stroke-width="0.355435"/>
<path d="M292.265 37.687V32.3043H290.482V31.7157H294.764V32.3043H292.981V37.687H292.265ZM296.8 37.7894C296.384 37.7894 296.018 37.6927 295.699 37.4993C295.381 37.306 295.133 37.033 294.957 36.6804C294.781 36.3278 294.692 35.9155 294.692 35.4435C294.692 34.9658 294.781 34.5535 294.957 34.2066C295.139 33.854 295.389 33.581 295.708 33.3877C296.032 33.1943 296.401 33.0976 296.817 33.0976C297.237 33.0976 297.604 33.1943 297.917 33.3877C298.235 33.581 298.483 33.854 298.659 34.2066C298.835 34.5535 298.924 34.9658 298.924 35.4435C298.924 35.9155 298.833 36.3278 298.651 36.6804C298.474 37.033 298.227 37.306 297.908 37.4993C297.59 37.6927 297.22 37.7894 296.8 37.7894ZM296.8 37.1752C297.061 37.1752 297.297 37.1126 297.508 36.9875C297.718 36.8567 297.883 36.6634 298.002 36.4074C298.127 36.1458 298.19 35.8245 298.19 35.4435C298.19 35.0568 298.13 34.7355 298.011 34.4796C297.891 34.2237 297.726 34.0331 297.516 33.908C297.311 33.7772 297.078 33.7118 296.817 33.7118C296.561 33.7118 296.327 33.7772 296.117 33.908C295.907 34.0331 295.739 34.2237 295.614 34.4796C295.489 34.7355 295.426 35.0568 295.426 35.4435C295.426 35.8245 295.486 36.1458 295.605 36.4074C295.73 36.6634 295.895 36.8567 296.1 36.9875C296.31 37.1126 296.544 37.1752 296.8 37.1752ZM301.535 37.687C301.279 37.687 301.057 37.6472 300.87 37.5676C300.682 37.488 300.537 37.3543 300.435 37.1667C300.338 36.9733 300.29 36.7145 300.29 36.3904V33.8057H299.505V33.2H300.29L300.384 32.0825H301.006V33.2H302.277V33.8057H301.006V36.3904C301.006 36.6577 301.06 36.8397 301.168 36.9363C301.276 37.0273 301.467 37.0728 301.74 37.0728H302.26V37.687H301.535ZM304.659 37.7894C304.318 37.7894 304.034 37.7268 303.806 37.6017C303.579 37.4709 303.408 37.3003 303.295 37.0899C303.181 36.8738 303.124 36.6435 303.124 36.3989C303.124 36.1032 303.198 35.853 303.346 35.6482C303.499 35.4378 303.713 35.2786 303.986 35.1705C304.259 35.0625 304.577 35.0085 304.941 35.0085H306.058C306.058 34.7184 306.024 34.4767 305.956 34.2834C305.888 34.09 305.777 33.945 305.623 33.8483C305.47 33.7516 305.265 33.7033 305.009 33.7033C304.753 33.7033 304.534 33.7687 304.352 33.8995C304.17 34.0246 304.057 34.2123 304.011 34.4625H303.278C303.312 34.1668 303.411 33.9194 303.576 33.7204C303.741 33.5156 303.949 33.3621 304.199 33.2597C304.455 33.1517 304.725 33.0976 305.009 33.0976C305.413 33.0976 305.746 33.1716 306.007 33.3194C306.269 33.4616 306.462 33.6635 306.587 33.9251C306.712 34.181 306.775 34.4853 306.775 34.8378V37.687H306.135L306.093 36.9193C306.036 37.0387 305.962 37.1524 305.871 37.2605C305.785 37.3629 305.683 37.4538 305.564 37.5335C305.444 37.6131 305.308 37.6756 305.154 37.7211C305.006 37.7666 304.841 37.7894 304.659 37.7894ZM304.762 37.1837C304.949 37.1837 305.123 37.1411 305.282 37.0558C305.441 36.9705 305.578 36.8567 305.692 36.7145C305.811 36.5667 305.902 36.4018 305.965 36.2198C306.027 36.0378 306.058 35.8473 306.058 35.6482V35.5629H305.001C304.733 35.5629 304.514 35.5971 304.344 35.6653C304.179 35.7335 304.059 35.8302 303.986 35.9553C303.912 36.0748 303.875 36.2112 303.875 36.3648C303.875 36.5297 303.909 36.6747 303.977 36.7998C304.045 36.9193 304.145 37.0131 304.276 37.0814C304.412 37.1496 304.574 37.1837 304.762 37.1837ZM307.959 37.687V31.5451H308.675V37.687H307.959ZM314.784 37.7894C314.227 37.7894 313.738 37.6614 313.317 37.4055C312.896 37.1439 312.569 36.7828 312.336 36.3221C312.103 35.8615 311.986 35.3241 311.986 34.7099C311.986 34.1014 312.103 33.564 312.336 33.0976C312.575 32.6313 312.911 32.2673 313.343 32.0057C313.781 31.7441 314.295 31.6133 314.887 31.6133C315.558 31.6133 316.118 31.7754 316.567 32.0996C317.017 32.418 317.304 32.8645 317.429 33.4389H316.601C316.522 33.0806 316.334 32.7962 316.038 32.5858C315.743 32.3754 315.359 32.2702 314.887 32.2702C314.449 32.2702 314.065 32.3697 313.735 32.5688C313.411 32.7621 313.161 33.0408 312.984 33.4047C312.808 33.7687 312.72 34.2038 312.72 34.7099C312.72 35.216 312.808 35.6539 312.984 36.0236C313.161 36.3875 313.405 36.6662 313.718 36.8596C314.037 37.0529 314.401 37.1496 314.81 37.1496C315.447 37.1496 315.927 36.9619 316.252 36.5866C316.576 36.2112 316.761 35.7023 316.806 35.0596H315.083V34.4966H317.54V37.687H316.883L316.823 36.706C316.681 36.9392 316.516 37.1382 316.328 37.3031C316.146 37.4624 315.93 37.5846 315.68 37.67C315.43 37.7496 315.131 37.7894 314.784 37.7894ZM320.071 37.7894C319.73 37.7894 319.445 37.7268 319.218 37.6017C318.99 37.4709 318.82 37.3003 318.706 37.0899C318.592 36.8738 318.535 36.6435 318.535 36.3989C318.535 36.1032 318.609 35.853 318.757 35.6482C318.911 35.4378 319.124 35.2786 319.397 35.1705C319.67 35.0625 319.988 35.0085 320.352 35.0085H321.47C321.47 34.7184 321.436 34.4767 321.367 34.2834C321.299 34.09 321.188 33.945 321.035 33.8483C320.881 33.7516 320.677 33.7033 320.421 33.7033C320.165 33.7033 319.946 33.7687 319.764 33.8995C319.582 34.0246 319.468 34.2123 319.423 34.4625H318.689C318.723 34.1668 318.823 33.9194 318.988 33.7204C319.152 33.5156 319.36 33.3621 319.61 33.2597C319.866 33.1517 320.136 33.0976 320.421 33.0976C320.824 33.0976 321.157 33.1716 321.419 33.3194C321.68 33.4616 321.874 33.6635 321.999 33.9251C322.124 34.181 322.186 34.4853 322.186 34.8378V37.687H321.547L321.504 36.9193C321.447 37.0387 321.373 37.1524 321.282 37.2605C321.197 37.3629 321.095 37.4538 320.975 37.5335C320.856 37.6131 320.719 37.6756 320.566 37.7211C320.418 37.7666 320.253 37.7894 320.071 37.7894ZM320.173 37.1837C320.361 37.1837 320.534 37.1411 320.694 37.0558C320.853 36.9705 320.989 36.8567 321.103 36.7145C321.222 36.5667 321.313 36.4018 321.376 36.2198C321.439 36.0378 321.47 35.8473 321.47 35.6482V35.5629H320.412C320.145 35.5629 319.926 35.5971 319.755 35.6653C319.59 35.7335 319.471 35.8302 319.397 35.9553C319.323 36.0748 319.286 36.2112 319.286 36.3648C319.286 36.5297 319.32 36.6747 319.388 36.7998C319.457 36.9193 319.556 37.0131 319.687 37.0814C319.823 37.1496 319.986 37.1837 320.173 37.1837ZM323.37 37.687V33.2H324.019L324.053 33.908C324.184 33.6521 324.371 33.4531 324.616 33.3109C324.866 33.1687 325.153 33.0976 325.477 33.0976C325.807 33.0976 326.094 33.1602 326.339 33.2853C326.583 33.4104 326.774 33.6009 326.91 33.8568C327.047 34.1128 327.115 34.4369 327.115 34.8293V37.687H326.399V34.9061C326.399 34.508 326.299 34.2094 326.1 34.0104C325.907 33.8114 325.645 33.7118 325.315 33.7118C325.093 33.7118 324.889 33.7659 324.701 33.8739C324.513 33.9763 324.363 34.1298 324.249 34.3346C324.141 34.5393 324.087 34.7895 324.087 35.0852V37.687H323.37ZM328.302 37.687V31.5451H329.018V33.9251C329.166 33.6692 329.368 33.4673 329.624 33.3194C329.88 33.1716 330.156 33.0976 330.452 33.0976C330.799 33.0976 331.091 33.163 331.33 33.2938C331.575 33.419 331.76 33.6123 331.885 33.8739C332.016 34.1355 332.081 34.4682 332.081 34.872V37.687H331.373V34.9487C331.373 34.5393 331.276 34.2322 331.083 34.0275C330.89 33.817 330.628 33.7118 330.298 33.7118C330.065 33.7118 329.852 33.7687 329.658 33.8824C329.465 33.9905 329.309 34.1526 329.189 34.3687C329.075 34.5848 329.018 34.8464 329.018 35.1535V37.687H328.302ZM335.195 37.7894C334.78 37.7894 334.413 37.6927 334.094 37.4993C333.776 37.306 333.529 37.033 333.352 36.6804C333.176 36.3278 333.088 35.9155 333.088 35.4435C333.088 34.9658 333.176 34.5535 333.352 34.2066C333.534 33.854 333.784 33.581 334.103 33.3877C334.427 33.1943 334.797 33.0976 335.212 33.0976C335.633 33.0976 335.999 33.1943 336.312 33.3877C336.631 33.581 336.878 33.854 337.054 34.2066C337.231 34.5535 337.319 34.9658 337.319 35.4435C337.319 35.9155 337.228 36.3278 337.046 36.6804C336.87 37.033 336.622 37.306 336.304 37.4993C335.985 37.6927 335.616 37.7894 335.195 37.7894ZM335.195 37.1752C335.456 37.1752 335.692 37.1126 335.903 36.9875C336.113 36.8567 336.278 36.6634 336.398 36.4074C336.523 36.1458 336.585 35.8245 336.585 35.4435C336.585 35.0568 336.526 34.7355 336.406 34.4796C336.287 34.2237 336.122 34.0331 335.911 33.908C335.707 33.7772 335.473 33.7118 335.212 33.7118C334.956 33.7118 334.723 33.7772 334.512 33.908C334.302 34.0331 334.134 34.2237 334.009 34.4796C333.884 34.7355 333.821 35.0568 333.821 35.4435C333.821 35.8245 333.881 36.1458 334.001 36.4074C334.126 36.6634 334.291 36.8567 334.495 36.9875C334.706 37.1126 334.939 37.1752 335.195 37.1752Z" fill="#89936D"/>
<path d="M354.568 34.1206L356.7 36.2532L358.833 34.1206" stroke="#89936D" stroke-width="1.0663" stroke-linecap="round" stroke-linejoin="round"/>
<rect x="391.872" y="24" width="83.1717" height="22.7478" rx="4.26522" fill="#0D0D0D"/>
<rect x="392.049" y="24.1777" width="82.8163" height="22.3924" rx="4.0875" stroke="#87936D" stroke-opacity="0.15" stroke-width="0.355435"/>
<path d="M406.746 37.687V31.7157H407.582L409.612 35.9212L411.625 31.7157H412.47V37.687H411.753V33.0038L409.877 36.9022H409.339L407.463 33.0379V37.687H406.746ZM415.594 37.7894C415.196 37.7894 414.843 37.6927 414.536 37.4993C414.229 37.306 413.987 37.033 413.811 36.6804C413.64 36.3278 413.555 35.9155 413.555 35.4435C413.555 34.9715 413.64 34.5592 413.811 34.2066C413.987 33.854 414.229 33.581 414.536 33.3877C414.849 33.1943 415.207 33.0976 415.611 33.0976C416.043 33.0976 416.404 33.1943 416.694 33.3877C416.984 33.581 417.203 33.8398 417.351 34.1639C417.499 34.4881 417.573 34.8435 417.573 35.2302C417.573 35.2871 417.573 35.344 417.573 35.4009C417.573 35.4577 417.57 35.526 417.564 35.6056H414.092V35.0511H416.873C416.862 34.6132 416.734 34.2805 416.489 34.053C416.251 33.8199 415.952 33.7033 415.594 33.7033C415.355 33.7033 415.133 33.763 414.928 33.8824C414.729 33.9962 414.567 34.1668 414.442 34.3943C414.317 34.6217 414.254 34.9061 414.254 35.2473V35.4862C414.254 35.8615 414.317 36.1771 414.442 36.433C414.567 36.6833 414.729 36.8709 414.928 36.996C415.133 37.1212 415.355 37.1837 415.594 37.1837C415.912 37.1837 416.162 37.124 416.344 37.0046C416.526 36.8795 416.66 36.7032 416.745 36.4757H417.453C417.385 36.7259 417.266 36.9506 417.095 37.1496C416.93 37.3486 416.72 37.505 416.464 37.6188C416.214 37.7325 415.924 37.7894 415.594 37.7894ZM418.566 37.687V33.2H419.214L419.248 33.908C419.379 33.6521 419.567 33.4531 419.811 33.3109C420.061 33.1687 420.349 33.0976 420.673 33.0976C421.003 33.0976 421.29 33.1602 421.534 33.2853C421.779 33.4104 421.969 33.6009 422.106 33.8568C422.242 34.1128 422.311 34.4369 422.311 34.8293V37.687H421.594V34.9061C421.594 34.508 421.495 34.2094 421.296 34.0104C421.102 33.8114 420.841 33.7118 420.511 33.7118C420.289 33.7118 420.084 33.7659 419.897 33.8739C419.709 33.9763 419.558 34.1298 419.444 34.3346C419.336 34.5393 419.282 34.7895 419.282 35.0852V37.687H418.566ZM425.118 37.7894C424.714 37.7894 424.379 37.7297 424.112 37.6102C423.85 37.4851 423.651 37.3145 423.514 37.0984C423.378 36.8766 423.296 36.6207 423.267 36.3307H424.001C424.023 36.4842 424.075 36.6264 424.154 36.7572C424.24 36.8823 424.362 36.9847 424.521 37.0643C424.68 37.1439 424.882 37.1837 425.127 37.1837C425.32 37.1837 425.485 37.1553 425.622 37.0984C425.758 37.0359 425.86 36.9506 425.929 36.8425C426.003 36.7344 426.039 36.6093 426.039 36.4672C426.039 36.2795 425.997 36.1345 425.912 36.0321C425.832 35.9241 425.712 35.8444 425.553 35.7933C425.4 35.7364 425.206 35.6937 424.973 35.6653C424.723 35.6312 424.501 35.5828 424.308 35.5203C424.114 35.4577 423.95 35.3753 423.813 35.2729C423.682 35.1705 423.583 35.0426 423.514 34.889C423.446 34.7355 423.412 34.5535 423.412 34.3431C423.412 34.0985 423.478 33.8824 423.608 33.6948C423.739 33.5071 423.924 33.3621 424.163 33.2597C424.407 33.1517 424.695 33.0976 425.024 33.0976C425.508 33.0976 425.889 33.2085 426.167 33.4303C426.452 33.6521 426.62 33.9677 426.671 34.3772H425.963C425.934 34.1668 425.838 34.0019 425.673 33.8824C425.508 33.763 425.289 33.7033 425.016 33.7033C424.726 33.7033 424.507 33.7573 424.359 33.8654C424.211 33.9734 424.137 34.1156 424.137 34.2919C424.137 34.4227 424.168 34.5421 424.231 34.6502C424.299 34.7525 424.413 34.8407 424.572 34.9146C424.731 34.9829 424.945 35.034 425.212 35.0682C425.548 35.108 425.832 35.1734 426.065 35.2644C426.298 35.3497 426.475 35.4833 426.594 35.6653C426.719 35.8473 426.779 36.0947 426.773 36.4074C426.773 36.7032 426.702 36.9534 426.56 37.1581C426.423 37.3629 426.23 37.5192 425.98 37.6273C425.735 37.7354 425.448 37.7894 425.118 37.7894ZM429.237 37.7894C428.895 37.7894 428.611 37.7268 428.384 37.6017C428.156 37.4709 427.985 37.3003 427.872 37.0899C427.758 36.8738 427.701 36.6435 427.701 36.3989C427.701 36.1032 427.775 35.853 427.923 35.6482C428.076 35.4378 428.29 35.2786 428.563 35.1705C428.836 35.0625 429.154 35.0085 429.518 35.0085H430.636C430.636 34.7184 430.601 34.4767 430.533 34.2834C430.465 34.09 430.354 33.945 430.201 33.8483C430.047 33.7516 429.842 33.7033 429.586 33.7033C429.33 33.7033 429.111 33.7687 428.93 33.8995C428.748 34.0246 428.634 34.2123 428.588 34.4625H427.855C427.889 34.1668 427.988 33.9194 428.153 33.7204C428.318 33.5156 428.526 33.3621 428.776 33.2597C429.032 33.1517 429.302 33.0976 429.586 33.0976C429.99 33.0976 430.323 33.1716 430.584 33.3194C430.846 33.4616 431.039 33.6635 431.164 33.9251C431.29 34.181 431.352 34.4853 431.352 34.8378V37.687H430.712L430.67 36.9193C430.613 37.0387 430.539 37.1524 430.448 37.2605C430.363 37.3629 430.26 37.4538 430.141 37.5335C430.021 37.6131 429.885 37.6756 429.731 37.7211C429.584 37.7666 429.419 37.7894 429.237 37.7894ZM429.339 37.1837C429.527 37.1837 429.7 37.1411 429.859 37.0558C430.019 36.9705 430.155 36.8567 430.269 36.7145C430.388 36.5667 430.479 36.4018 430.542 36.2198C430.604 36.0378 430.636 35.8473 430.636 35.6482V35.5629H429.578C429.311 35.5629 429.092 35.5971 428.921 35.6653C428.756 35.7335 428.637 35.8302 428.563 35.9553C428.489 36.0748 428.452 36.2112 428.452 36.3648C428.452 36.5297 428.486 36.6747 428.554 36.7998C428.622 36.9193 428.722 37.0131 428.853 37.0814C428.989 37.1496 429.151 37.1837 429.339 37.1837ZM432.536 37.687V31.5451H433.253V37.687H432.536Z" fill="#89936D"/>
<path d="M450.439 34.1206L452.572 36.2532L454.704 34.1206" stroke="#89936D" stroke-width="1.0663" stroke-linecap="round" stroke-linejoin="round"/>
<defs>
<linearGradient id="paint0_linear_495_376" x1="266.732" y1="69.4041" x2="264.185" y2="280.735" gradientUnits="userSpaceOnUse">
<stop stop-color="#FF1A00"/>
<stop offset="1" stop-color="#2E0000" stop-opacity="0.01"/>
</linearGradient>
</defs>
</svg>
