<svg width="1919" height="652" viewBox="0 0 1919 652" fill="none" xmlns="http://www.w3.org/2000/svg">
<path d="M1923.98 650.982H1603.5L1524.93 611.147L1452.39 574.376L1385.22 540.321L1322.83 508.688L1264.74 479.238L1210.51 451.752L1159.77 426.027L1112.19 401.917L1067.52 379.257M1924 650.982V1.01837M1.12174 542.651V109.33M1.12174 542.651V650.982H321.524L399.951 611.147L472.364 574.376L539.42 540.321L601.703 508.688L659.701 479.238L713.828 451.752L764.473 426.027L811.953 401.917L856.56 379.257H1120.11L1187.12 401.917M1.12174 542.651L118.823 516.083L227.49 491.55L328.123 468.835L421.573 447.752L508.594 428.119L589.821 409.789L665.813 392.633L737.057 376.56L803.991 361.459V272.376L737.057 249.752M1.12174 1H1923.98M1603.52 651H321.597M118.798 40.8164V611.165H1806.13L1697.34 574.394M1697.34 574.394H227.466V77.532M1697.34 574.394V77.532L1806.13 40.7981H118.823L1.12174 1.01837V109.349L118.823 135.862L227.49 160.339L328.123 183L421.573 204.046L508.594 223.642L589.821 241.935L665.813 259.055L737.057 275.11L803.991 290.192M227.466 77.532L118.798 40.7981M227.466 77.532H1452.37L1524.9 40.7981L1603.48 1.01837M1596.61 540.339H328.098V111.55M1503.06 508.706H421.548V143.128M1923.98 1.03673L1806.15 40.8164V135.881L1697.36 160.358L1596.63 183.018L1503.09 204.064L1415.97 223.66L1334.64 241.954L1258.55 259.073L1187.21 275.128L1120.21 290.211V361.477L1187.21 376.578L1258.55 392.651L1334.64 409.807L1415.97 428.138L1503.09 447.771L1596.63 468.853L1697.36 491.569L1806.15 516.101V611.165L1923.98 651M1415.92 479.238H508.546V172.523M1697.34 77.5137L1596.61 111.514M1596.61 111.514V540.303L1697.34 574.358M1596.61 111.514H328.098L227.466 77.5137M1923.98 109.33L1806.15 135.844V516.083L1923.98 542.651M321.597 1.01837L400.024 40.7981L472.437 77.532L539.493 111.532L601.776 143.11L659.774 172.523L713.901 199.972L764.546 225.66L812.026 249.734L856.633 272.358H1067.47L1112.15 249.734L1159.72 225.66L1210.47 199.972L1264.69 172.523L1322.79 143.11L1385.17 111.532L1452.34 77.532H1697.32M1596.59 111.532L1503.04 143.11V508.688L1596.59 540.321M328.05 111.532L421.5 143.11H1503.01M1282.98 650.982L1243.65 611.147L1207.35 574.376L1173.72 540.321L1142.51 508.688L1113.44 479.238L1086.29 451.752L1060.89 426.027L1037.08 401.917L1014.7 379.257M642 650.982L681.177 611.147L717.359 574.376L750.862 540.321L781.98 508.688L810.955 479.238L838.006 451.752L863.304 426.027L887.02 401.917L909.299 379.257M589.772 199.972V451.752H1334.55L1258.46 426.027M803.942 343.624L737.008 351.183L665.764 359.239L589.772 367.826L508.546 377L421.524 386.835L328.074 397.385L227.442 408.761L118.774 421.037L1.07305 434.339M803.894 308.009L736.959 300.486L665.716 292.468L589.724 283.917L508.497 274.78L421.475 264.981L328.025 254.468L227.393 243.147L118.725 230.926L1.02435 217.679M1502.96 143.11L1415.85 172.523V479.238L1502.96 508.688M421.451 143.11L508.473 172.523H1415.87M962.476 650.982L962.403 611.147L962.33 574.376L962.281 540.321L962.232 508.688L962.184 479.238L962.135 451.752L962.086 426.027L962.037 401.917L961.989 379.257M803.869 325.807H736.935L665.691 325.844H589.699L508.473 325.88H421.451L328.001 325.917H227.369L118.701 325.972L1 326.009M1415.82 172.523L1334.5 199.972M1334.5 199.972V451.752L1415.82 479.238M1334.5 199.972H589.651M508.424 172.523L589.651 199.972M589.651 199.972L665.642 225.66H1258.43L1334.52 199.972M1258.46 426.027V225.66L1187.12 249.734H736.911L665.667 225.66V426.027H1258.46ZM737.008 401.917L803.942 379.257V361.44M1187.26 249.752V401.936M1187.26 401.936L1258.6 426.046M1187.26 401.936H737.057L665.813 426.046L589.821 451.77L508.594 479.257L421.573 508.706L328.123 540.339L227.49 574.394L118.823 611.165L1.12174 651M737.008 249.752V401.936M1923.95 434.339L1806.13 421.037L1697.34 408.761L1596.61 397.385L1503.06 386.835L1415.94 377L1334.62 367.826L1258.53 359.239L1187.19 351.183L1120.18 343.624M1923.95 217.66L1806.13 230.908L1697.34 243.128L1596.61 254.449L1503.06 264.963L1415.94 274.761L1334.62 283.899L1258.53 292.449L1187.19 300.468L1120.18 307.99M1014.78 272.358L1037.15 249.734L1060.97 225.66L1086.36 199.972L1113.51 172.523L1142.58 143.11L1173.8 111.532L1207.42 77.532L1243.73 40.7981L1283.05 1.01837M909.396 272.358L887.117 249.734L863.401 225.66L838.103 199.972L811.052 172.523L782.077 143.11L750.96 111.532L717.456 77.532L681.274 40.7981L642.097 1.01837M1924 326.009L1806.18 325.972H1697.39L1596.66 325.917H1503.11L1415.99 325.88H1334.67L1258.58 325.844H1187.24L1120.23 325.807M962.11 272.358L962.159 249.734L962.208 225.66L962.257 199.972L962.305 172.523L962.354 143.11L962.403 111.532L962.451 77.532L962.524 40.7981L962.597 1.01837M1120.25 272.358V290.174M804.015 272.358H856.73M1067.56 272.358H1120.28L1187.29 249.734M1120.28 361.44V379.257M856.73 379.257H804.015" stroke="white" stroke-opacity="0.1" stroke-width="1.08501" stroke-linecap="round" stroke-linejoin="round"/>
</svg>
